<svg width="349" height="54" viewBox="0 0 349 54" fill="none" xmlns="http://www.w3.org/2000/svg">
<rect width="349" height="54" rx="27" fill="#1313F2"/>
<path d="M155.719 25.2536H153.86C153.807 24.9486 153.709 24.6785 153.567 24.4432C153.424 24.2045 153.247 24.0024 153.035 23.8366C152.823 23.6709 152.581 23.5466 152.309 23.4638C152.04 23.3776 151.75 23.3345 151.439 23.3345C150.885 23.3345 150.395 23.4737 149.967 23.7521C149.54 24.0272 149.205 24.4316 148.963 24.9652C148.721 25.4955 148.6 26.1435 148.6 26.9091C148.6 27.688 148.721 28.3442 148.963 28.8778C149.208 29.4081 149.543 29.8092 149.967 30.081C150.395 30.3494 150.884 30.4837 151.434 30.4837C151.739 30.4837 152.024 30.4439 152.289 30.3643C152.558 30.2815 152.798 30.1605 153.01 30.0014C153.225 29.8423 153.406 29.6468 153.552 29.4148C153.701 29.1828 153.804 28.9176 153.86 28.6193L155.719 28.6293C155.65 29.1132 155.499 29.5672 155.267 29.9915C155.038 30.4157 154.738 30.7902 154.367 31.1151C153.996 31.4366 153.562 31.6884 153.065 31.8707C152.567 32.0497 152.016 32.1392 151.409 32.1392C150.514 32.1392 149.715 31.9321 149.013 31.5178C148.31 31.1035 147.757 30.5052 147.352 29.723C146.948 28.9408 146.746 28.0028 146.746 26.9091C146.746 25.812 146.95 24.8741 147.357 24.0952C147.765 23.313 148.32 22.7147 149.023 22.3004C149.725 21.8861 150.521 21.679 151.409 21.679C151.976 21.679 152.503 21.7585 152.99 21.9176C153.477 22.0767 153.911 22.3104 154.293 22.6186C154.674 22.9235 154.987 23.2981 155.232 23.7422C155.481 24.183 155.643 24.6868 155.719 25.2536ZM160.66 32.1491C159.914 32.1491 159.268 31.9851 158.721 31.657C158.174 31.3288 157.75 30.8698 157.448 30.2798C157.15 29.6899 157.001 29.0005 157.001 28.2116C157.001 27.4228 157.15 26.7318 157.448 26.1385C157.75 25.5452 158.174 25.0845 158.721 24.7564C159.268 24.4283 159.914 24.2642 160.66 24.2642C161.406 24.2642 162.052 24.4283 162.599 24.7564C163.146 25.0845 163.568 25.5452 163.867 26.1385C164.168 26.7318 164.319 27.4228 164.319 28.2116C164.319 29.0005 164.168 29.6899 163.867 30.2798C163.568 30.8698 163.146 31.3288 162.599 31.657C162.052 31.9851 161.406 32.1491 160.66 32.1491ZM160.67 30.7074C161.074 30.7074 161.412 30.5964 161.684 30.3743C161.956 30.1489 162.158 29.8473 162.291 29.4695C162.427 29.0916 162.494 28.6707 162.494 28.2067C162.494 27.7393 162.427 27.3168 162.291 26.9389C162.158 26.5578 161.956 26.2545 161.684 26.0291C161.412 25.8037 161.074 25.6911 160.67 25.6911C160.256 25.6911 159.911 25.8037 159.636 26.0291C159.364 26.2545 159.16 26.5578 159.024 26.9389C158.892 27.3168 158.825 27.7393 158.825 28.2067C158.825 28.6707 158.892 29.0916 159.024 29.4695C159.16 29.8473 159.364 30.1489 159.636 30.3743C159.911 30.5964 160.256 30.7074 160.67 30.7074ZM167.646 27.5256V32H165.847V24.3636H167.567V25.6612H167.656C167.832 25.2337 168.112 24.8939 168.496 24.642C168.884 24.3902 169.363 24.2642 169.933 24.2642C170.46 24.2642 170.919 24.3769 171.31 24.6023C171.705 24.8277 172.01 25.1541 172.225 25.5817C172.444 26.0092 172.552 26.5279 172.548 27.1378V32H170.749V27.4162C170.749 26.9058 170.616 26.5064 170.351 26.218C170.089 25.9297 169.726 25.7855 169.262 25.7855C168.947 25.7855 168.667 25.8551 168.422 25.9943C168.18 26.1302 167.989 26.3274 167.85 26.5859C167.714 26.8445 167.646 27.1577 167.646 27.5256ZM177.709 32.1491C176.946 32.1491 176.292 31.9818 175.745 31.647C175.201 31.3123 174.782 30.8499 174.487 30.2599C174.196 29.6667 174.05 28.9839 174.05 28.2116C174.05 27.4361 174.199 26.7517 174.497 26.1584C174.795 25.5618 175.216 25.0978 175.76 24.7663C176.307 24.4316 176.953 24.2642 177.699 24.2642C178.319 24.2642 178.867 24.3786 179.344 24.6072C179.825 24.8326 180.208 25.1525 180.493 25.5668C180.778 25.9777 180.94 26.4583 180.98 27.0085H179.26C179.19 26.6406 179.025 26.334 178.763 26.0888C178.504 25.8402 178.158 25.7159 177.724 25.7159C177.356 25.7159 177.033 25.8153 176.754 26.0142C176.476 26.2098 176.259 26.4915 176.103 26.8594C175.951 27.2273 175.874 27.6681 175.874 28.1818C175.874 28.7022 175.951 29.1496 176.103 29.5241C176.255 29.8954 176.469 30.1821 176.744 30.3842C177.023 30.5831 177.349 30.6825 177.724 30.6825C177.989 30.6825 178.226 30.6328 178.435 30.5334C178.647 30.4306 178.824 30.2831 178.967 30.0909C179.109 29.8987 179.207 29.665 179.26 29.3899H180.98C180.937 29.9302 180.778 30.4091 180.503 30.8267C180.228 31.241 179.853 31.5658 179.379 31.8011C178.905 32.0331 178.348 32.1491 177.709 32.1491ZM184.258 21.8182V32H182.458V21.8182H184.258ZM190.975 28.7884V24.3636H192.775V32H191.03V30.6428H190.951C190.778 31.0703 190.495 31.42 190.1 31.6918C189.709 31.9635 189.227 32.0994 188.654 32.0994C188.153 32.0994 187.711 31.9884 187.326 31.7663C186.945 31.541 186.647 31.2145 186.431 30.7869C186.216 30.3561 186.108 29.8357 186.108 29.2259V24.3636H187.908V28.9474C187.908 29.4313 188.041 29.8158 188.306 30.1009C188.571 30.3859 188.919 30.5284 189.35 30.5284C189.615 30.5284 189.872 30.4638 190.12 30.3345C190.369 30.2053 190.573 30.013 190.732 29.7578C190.894 29.4993 190.975 29.1761 190.975 28.7884ZM194.626 32V24.3636H196.426V32H194.626ZM195.531 23.2798C195.246 23.2798 195 23.1854 194.795 22.9964C194.589 22.8042 194.487 22.5739 194.487 22.3054C194.487 22.0336 194.589 21.8033 194.795 21.6143C195 21.4221 195.246 21.326 195.531 21.326C195.819 21.326 196.064 21.4221 196.267 21.6143C196.472 21.8033 196.575 22.0336 196.575 22.3054C196.575 22.5739 196.472 22.8042 196.267 22.9964C196.064 23.1854 195.819 23.2798 195.531 23.2798ZM198.276 32V24.3636H200.021V25.6364H200.101C200.24 25.1955 200.479 24.8558 200.817 24.6172C201.158 24.3752 201.548 24.2543 201.985 24.2543C202.085 24.2543 202.196 24.2592 202.318 24.2692C202.444 24.2758 202.549 24.2874 202.631 24.304V25.9595C202.555 25.933 202.434 25.9098 202.268 25.8899C202.106 25.8667 201.949 25.8551 201.796 25.8551C201.468 25.8551 201.173 25.9264 200.911 26.0689C200.653 26.2081 200.449 26.402 200.3 26.6506C200.151 26.8991 200.076 27.1858 200.076 27.5107V32H198.276Z" fill="#F6F6F6"/>
</svg>
