<svg width="349" height="54" viewBox="0 0 349 54" fill="none" xmlns="http://www.w3.org/2000/svg">
<path d="M0 27C0 12.0883 12.0883 0 27 0H322C336.912 0 349 12.0883 349 27C349 41.9117 336.912 54 322 54H27C12.0883 54 0 41.9117 0 27Z" fill="#00051B"/>
<path d="M126.812 32H124.843L128.428 21.8182H130.705L134.294 32H132.325L129.606 23.9062H129.526L126.812 32ZM126.876 28.0078H132.246V29.4893H126.876V28.0078ZM141.42 24.3636L138.7 32H136.711L133.992 24.3636H135.911L137.666 30.0362H137.746L139.506 24.3636H141.42ZM144.644 32.1541C144.16 32.1541 143.724 32.0679 143.336 31.8956C142.952 31.7199 142.647 31.4614 142.421 31.12C142.199 30.7786 142.088 30.3577 142.088 29.8572C142.088 29.4264 142.168 29.0701 142.327 28.7884C142.486 28.5066 142.703 28.2812 142.978 28.1122C143.253 27.9432 143.563 27.8156 143.908 27.7294C144.256 27.6399 144.615 27.5753 144.987 27.5355C145.434 27.4891 145.797 27.4477 146.075 27.4112C146.354 27.3714 146.556 27.3118 146.682 27.2322C146.811 27.1494 146.876 27.0218 146.876 26.8494V26.8196C146.876 26.4451 146.765 26.1551 146.543 25.9496C146.321 25.7441 146.001 25.6413 145.583 25.6413C145.142 25.6413 144.793 25.7375 144.534 25.9297C144.279 26.1219 144.107 26.349 144.017 26.6108L142.337 26.3722C142.469 25.9081 142.688 25.5204 142.993 25.2088C143.298 24.8939 143.671 24.6586 144.112 24.5028C144.552 24.3438 145.04 24.2642 145.573 24.2642C145.941 24.2642 146.307 24.3073 146.672 24.3935C147.037 24.4796 147.37 24.6222 147.671 24.821C147.973 25.0166 148.215 25.2834 148.397 25.6214C148.583 25.9595 148.676 26.3821 148.676 26.8892V32H146.945V30.951H146.886C146.776 31.1631 146.622 31.362 146.423 31.5476C146.228 31.7299 145.981 31.8774 145.683 31.9901C145.388 32.0994 145.041 32.1541 144.644 32.1541ZM145.111 30.8317C145.472 30.8317 145.785 30.7604 146.051 30.6179C146.316 30.4721 146.52 30.2798 146.662 30.0412C146.808 29.8026 146.881 29.5424 146.881 29.2607V28.3608C146.825 28.4072 146.728 28.4503 146.593 28.4901C146.46 28.5298 146.311 28.5646 146.145 28.5945C145.979 28.6243 145.815 28.6508 145.653 28.674C145.49 28.6972 145.35 28.7171 145.23 28.7337C144.962 28.7701 144.722 28.8298 144.509 28.9126C144.297 28.9955 144.13 29.1115 144.007 29.2607C143.885 29.4065 143.823 29.5954 143.823 29.8274C143.823 30.1589 143.944 30.4091 144.186 30.5781C144.428 30.7472 144.736 30.8317 145.111 30.8317ZM152.285 27.5256V32H150.485V24.3636H152.205V25.6612H152.295C152.471 25.2337 152.751 24.8939 153.135 24.642C153.523 24.3902 154.002 24.2642 154.572 24.2642C155.099 24.2642 155.558 24.3769 155.949 24.6023C156.343 24.8277 156.648 25.1541 156.864 25.5817C157.083 26.0092 157.19 26.5279 157.187 27.1378V32H155.387V27.4162C155.387 26.9058 155.255 26.5064 154.99 26.218C154.728 25.9297 154.365 25.7855 153.901 25.7855C153.586 25.7855 153.306 25.8551 153.061 25.9943C152.819 26.1302 152.628 26.3274 152.489 26.5859C152.353 26.8445 152.285 27.1577 152.285 27.5256ZM162.347 32.1491C161.585 32.1491 160.931 31.9818 160.384 31.647C159.84 31.3123 159.421 30.8499 159.126 30.2599C158.834 29.6667 158.688 28.9839 158.688 28.2116C158.688 27.4361 158.838 26.7517 159.136 26.1584C159.434 25.5618 159.855 25.0978 160.399 24.7663C160.945 24.4316 161.592 24.2642 162.338 24.2642C162.957 24.2642 163.506 24.3786 163.983 24.6072C164.464 24.8326 164.847 25.1525 165.132 25.5668C165.417 25.9777 165.579 26.4583 165.619 27.0085H163.899C163.829 26.6406 163.663 26.334 163.401 26.0888C163.143 25.8402 162.797 25.7159 162.362 25.7159C161.994 25.7159 161.671 25.8153 161.393 26.0142C161.115 26.2098 160.897 26.4915 160.742 26.8594C160.589 27.2273 160.513 27.6681 160.513 28.1818C160.513 28.7022 160.589 29.1496 160.742 29.5241C160.894 29.8954 161.108 30.1821 161.383 30.3842C161.661 30.5831 161.988 30.6825 162.362 30.6825C162.628 30.6825 162.865 30.6328 163.073 30.5334C163.285 30.4306 163.463 30.2831 163.605 30.0909C163.748 29.8987 163.846 29.665 163.899 29.3899H165.619C165.576 29.9302 165.417 30.4091 165.142 30.8267C164.866 31.241 164.492 31.5658 164.018 31.8011C163.544 32.0331 162.987 32.1491 162.347 32.1491ZM161.83 31.9602H162.805L162.725 32.3828C163.037 32.4292 163.3 32.5485 163.516 32.7408C163.735 32.9363 163.844 33.2164 163.844 33.581C163.847 34.0516 163.637 34.4295 163.213 34.7145C162.788 34.9995 162.183 35.142 161.398 35.142L161.378 34.2571C161.759 34.2571 162.062 34.2057 162.288 34.103C162.513 34.0036 162.628 33.8445 162.631 33.6257C162.637 33.4136 162.558 33.2578 162.392 33.1584C162.23 33.0623 161.971 32.996 161.617 32.9595L161.83 31.9602ZM169.294 32.1541C168.81 32.1541 168.374 32.0679 167.987 31.8956C167.602 31.7199 167.297 31.4614 167.072 31.12C166.85 30.7786 166.739 30.3577 166.739 29.8572C166.739 29.4264 166.818 29.0701 166.977 28.7884C167.136 28.5066 167.353 28.2812 167.629 28.1122C167.904 27.9432 168.214 27.8156 168.558 27.7294C168.906 27.6399 169.266 27.5753 169.637 27.5355C170.085 27.4891 170.447 27.4477 170.726 27.4112C171.004 27.3714 171.206 27.3118 171.332 27.2322C171.462 27.1494 171.526 27.0218 171.526 26.8494V26.8196C171.526 26.4451 171.415 26.1551 171.193 25.9496C170.971 25.7441 170.651 25.6413 170.234 25.6413C169.793 25.6413 169.443 25.7375 169.185 25.9297C168.929 26.1219 168.757 26.349 168.668 26.6108L166.987 26.3722C167.12 25.9081 167.339 25.5204 167.643 25.2088C167.948 24.8939 168.321 24.6586 168.762 24.5028C169.203 24.3438 169.69 24.2642 170.224 24.2642C170.592 24.2642 170.958 24.3073 171.322 24.3935C171.687 24.4796 172.02 24.6222 172.322 24.821C172.623 25.0166 172.865 25.2834 173.048 25.6214C173.233 25.9595 173.326 26.3821 173.326 26.8892V32H171.596V30.951H171.536C171.427 31.1631 171.273 31.362 171.074 31.5476C170.878 31.7299 170.631 31.8774 170.333 31.9901C170.038 32.0994 169.692 32.1541 169.294 32.1541ZM169.761 30.8317C170.123 30.8317 170.436 30.7604 170.701 30.6179C170.966 30.4721 171.17 30.2798 171.312 30.0412C171.458 29.8026 171.531 29.5424 171.531 29.2607V28.3608C171.475 28.4072 171.379 28.4503 171.243 28.4901C171.11 28.5298 170.961 28.5646 170.795 28.5945C170.63 28.6243 170.466 28.6508 170.303 28.674C170.141 28.6972 170 28.7171 169.881 28.7337C169.612 28.7701 169.372 28.8298 169.16 28.9126C168.948 28.9955 168.78 29.1115 168.658 29.2607C168.535 29.4065 168.474 29.5954 168.474 29.8274C168.474 30.1589 168.595 30.4091 168.837 30.5781C169.079 30.7472 169.387 30.8317 169.761 30.8317ZM175.136 32V24.3636H176.881V25.6364H176.96C177.099 25.1955 177.338 24.8558 177.676 24.6172C178.018 24.3752 178.407 24.2543 178.844 24.2543C178.944 24.2543 179.055 24.2592 179.178 24.2692C179.304 24.2758 179.408 24.2874 179.491 24.304V25.9595C179.415 25.933 179.294 25.9098 179.128 25.8899C178.965 25.8667 178.808 25.8551 178.656 25.8551C178.327 25.8551 178.032 25.9264 177.771 26.0689C177.512 26.2081 177.308 26.402 177.159 26.6506C177.01 26.8991 176.935 27.1858 176.935 27.5107V32H175.136Z" fill="#F9FAFC"/>
<mask id="mask0_384_3686" style="mask-type:alpha" maskUnits="userSpaceOnUse" x="200" y="15" width="25" height="24">
<rect x="200.5" y="15" width="24" height="24" fill="#D9D9D9"/>
</mask>
<g mask="url(#mask0_384_3686)">
<path d="M216.675 28H204.5V26H216.675L211.075 20.4L212.5 19L220.5 27L212.5 35L211.075 33.6L216.675 28Z" fill="#F9FAFC"/>
</g>
</svg>
