<svg width="346" height="54" viewBox="0 0 346 54" fill="none" xmlns="http://www.w3.org/2000/svg">
<rect x="0.5" width="345" height="54" rx="27" fill="#00051B"/>
<path d="M148.719 25.2536H146.86C146.807 24.9486 146.709 24.6785 146.567 24.4432C146.424 24.2045 146.247 24.0024 146.035 23.8366C145.823 23.6709 145.581 23.5466 145.309 23.4638C145.04 23.3776 144.75 23.3345 144.439 23.3345C143.885 23.3345 143.395 23.4737 142.967 23.7521C142.54 24.0272 142.205 24.4316 141.963 24.9652C141.721 25.4955 141.6 26.1435 141.6 26.9091C141.6 27.688 141.721 28.3442 141.963 28.8778C142.208 29.4081 142.543 29.8092 142.967 30.081C143.395 30.3494 143.884 30.4837 144.434 30.4837C144.739 30.4837 145.024 30.4439 145.289 30.3643C145.558 30.2815 145.798 30.1605 146.01 30.0014C146.225 29.8423 146.406 29.6468 146.552 29.4148C146.701 29.1828 146.804 28.9176 146.86 28.6193L148.719 28.6293C148.65 29.1132 148.499 29.5672 148.267 29.9915C148.038 30.4157 147.738 30.7902 147.367 31.1151C146.996 31.4366 146.562 31.6884 146.065 31.8707C145.567 32.0497 145.016 32.1392 144.409 32.1392C143.514 32.1392 142.715 31.9321 142.013 31.5178C141.31 31.1035 140.757 30.5052 140.352 29.723C139.948 28.9408 139.746 28.0028 139.746 26.9091C139.746 25.812 139.95 24.8741 140.357 24.0952C140.765 23.313 141.32 22.7147 142.023 22.3004C142.725 21.8861 143.521 21.679 144.409 21.679C144.976 21.679 145.503 21.7585 145.99 21.9176C146.477 22.0767 146.911 22.3104 147.293 22.6186C147.674 22.9235 147.987 23.2981 148.232 23.7422C148.481 24.183 148.643 24.6868 148.719 25.2536ZM153.66 32.1491C152.914 32.1491 152.268 31.9851 151.721 31.657C151.174 31.3288 150.75 30.8698 150.448 30.2798C150.15 29.6899 150.001 29.0005 150.001 28.2116C150.001 27.4228 150.15 26.7318 150.448 26.1385C150.75 25.5452 151.174 25.0845 151.721 24.7564C152.268 24.4283 152.914 24.2642 153.66 24.2642C154.406 24.2642 155.052 24.4283 155.599 24.7564C156.146 25.0845 156.568 25.5452 156.867 26.1385C157.168 26.7318 157.319 27.4228 157.319 28.2116C157.319 29.0005 157.168 29.6899 156.867 30.2798C156.568 30.8698 156.146 31.3288 155.599 31.657C155.052 31.9851 154.406 32.1491 153.66 32.1491ZM153.67 30.7074C154.074 30.7074 154.412 30.5964 154.684 30.3743C154.956 30.1489 155.158 29.8473 155.291 29.4695C155.427 29.0916 155.494 28.6707 155.494 28.2067C155.494 27.7393 155.427 27.3168 155.291 26.9389C155.158 26.5578 154.956 26.2545 154.684 26.0291C154.412 25.8037 154.074 25.6911 153.67 25.6911C153.256 25.6911 152.911 25.8037 152.636 26.0291C152.364 26.2545 152.16 26.5578 152.024 26.9389C151.892 27.3168 151.825 27.7393 151.825 28.2067C151.825 28.6707 151.892 29.0916 152.024 29.4695C152.16 29.8473 152.364 30.1489 152.636 30.3743C152.911 30.5964 153.256 30.7074 153.67 30.7074ZM160.646 27.5256V32H158.847V24.3636H160.567V25.6612H160.656C160.832 25.2337 161.112 24.8939 161.496 24.642C161.884 24.3902 162.363 24.2642 162.933 24.2642C163.46 24.2642 163.919 24.3769 164.31 24.6023C164.705 24.8277 165.01 25.1541 165.225 25.5817C165.444 26.0092 165.552 26.5279 165.548 27.1378V32H163.749V27.4162C163.749 26.9058 163.616 26.5064 163.351 26.218C163.089 25.9297 162.726 25.7855 162.262 25.7855C161.947 25.7855 161.667 25.8551 161.422 25.9943C161.18 26.1302 160.989 26.3274 160.85 26.5859C160.714 26.8445 160.646 27.1577 160.646 27.5256ZM171.191 24.3636V25.7557H166.801V24.3636H171.191ZM167.885 22.5341H169.685V29.7031C169.685 29.9451 169.721 30.1307 169.794 30.2599C169.87 30.3859 169.97 30.4721 170.092 30.5185C170.215 30.5649 170.351 30.5881 170.5 30.5881C170.613 30.5881 170.715 30.5798 170.808 30.5632C170.904 30.5466 170.977 30.5317 171.027 30.5185L171.33 31.9254C171.234 31.9586 171.097 31.995 170.918 32.0348C170.742 32.0746 170.527 32.0978 170.271 32.1044C169.821 32.1177 169.415 32.0497 169.053 31.9006C168.692 31.7481 168.405 31.5128 168.193 31.1946C167.984 30.8764 167.882 30.4787 167.885 30.0014V22.5341ZM172.696 32V24.3636H174.496V32H172.696ZM173.601 23.2798C173.316 23.2798 173.071 23.1854 172.865 22.9964C172.66 22.8042 172.557 22.5739 172.557 22.3054C172.557 22.0336 172.66 21.8033 172.865 21.6143C173.071 21.4221 173.316 21.326 173.601 21.326C173.889 21.326 174.135 21.4221 174.337 21.6143C174.542 21.8033 174.645 22.0336 174.645 22.3054C174.645 22.5739 174.542 22.8042 174.337 22.9964C174.135 23.1854 173.889 23.2798 173.601 23.2798ZM178.146 27.5256V32H176.347V24.3636H178.067V25.6612H178.156C178.332 25.2337 178.612 24.8939 178.996 24.642C179.384 24.3902 179.863 24.2642 180.433 24.2642C180.96 24.2642 181.419 24.3769 181.81 24.6023C182.205 24.8277 182.51 25.1541 182.725 25.5817C182.944 26.0092 183.052 26.5279 183.048 27.1378V32H181.249V27.4162C181.249 26.9058 181.116 26.5064 180.851 26.218C180.589 25.9297 180.226 25.7855 179.762 25.7855C179.447 25.7855 179.167 25.8551 178.922 25.9943C178.68 26.1302 178.489 26.3274 178.35 26.5859C178.214 26.8445 178.146 27.1577 178.146 27.5256ZM189.745 28.7884V24.3636H191.545V32H189.8V30.6428H189.72C189.548 31.0703 189.264 31.42 188.87 31.6918C188.479 31.9635 187.997 32.0994 187.423 32.0994C186.923 32.0994 186.48 31.9884 186.096 31.7663C185.715 31.541 185.416 31.2145 185.201 30.7869C184.986 30.3561 184.878 29.8357 184.878 29.2259V24.3636H186.678V28.9474C186.678 29.4313 186.81 29.8158 187.075 30.1009C187.34 30.3859 187.688 30.5284 188.119 30.5284C188.384 30.5284 188.641 30.4638 188.89 30.3345C189.138 30.2053 189.342 30.013 189.501 29.7578C189.664 29.4993 189.745 29.1761 189.745 28.7884ZM195.593 32.1541C195.109 32.1541 194.673 32.0679 194.285 31.8956C193.901 31.7199 193.596 31.4614 193.371 31.12C193.148 30.7786 193.037 30.3577 193.037 29.8572C193.037 29.4264 193.117 29.0701 193.276 28.7884C193.435 28.5066 193.652 28.2812 193.927 28.1122C194.202 27.9432 194.512 27.8156 194.857 27.7294C195.205 27.6399 195.565 27.5753 195.936 27.5355C196.383 27.4891 196.746 27.4477 197.025 27.4112C197.303 27.3714 197.505 27.3118 197.631 27.2322C197.76 27.1494 197.825 27.0218 197.825 26.8494V26.8196C197.825 26.4451 197.714 26.1551 197.492 25.9496C197.27 25.7441 196.95 25.6413 196.532 25.6413C196.092 25.6413 195.742 25.7375 195.483 25.9297C195.228 26.1219 195.056 26.349 194.966 26.6108L193.286 26.3722C193.419 25.9081 193.637 25.5204 193.942 25.2088C194.247 24.8939 194.62 24.6586 195.061 24.5028C195.502 24.3438 195.989 24.2642 196.523 24.2642C196.89 24.2642 197.257 24.3073 197.621 24.3935C197.986 24.4796 198.319 24.6222 198.621 24.821C198.922 25.0166 199.164 25.2834 199.346 25.6214C199.532 25.9595 199.625 26.3821 199.625 26.8892V32H197.895V30.951H197.835C197.726 31.1631 197.572 31.362 197.373 31.5476C197.177 31.7299 196.93 31.8774 196.632 31.9901C196.337 32.0994 195.991 32.1541 195.593 32.1541ZM196.06 30.8317C196.421 30.8317 196.735 30.7604 197 30.6179C197.265 30.4721 197.469 30.2798 197.611 30.0412C197.757 29.8026 197.83 29.5424 197.83 29.2607V28.3608C197.774 28.4072 197.678 28.4503 197.542 28.4901C197.409 28.5298 197.26 28.5646 197.094 28.5945C196.929 28.6243 196.765 28.6508 196.602 28.674C196.44 28.6972 196.299 28.7171 196.18 28.7337C195.911 28.7701 195.671 28.8298 195.459 28.9126C195.247 28.9955 195.079 29.1115 194.956 29.2607C194.834 29.4065 194.773 29.5954 194.773 29.8274C194.773 30.1589 194.894 30.4091 195.135 30.5781C195.377 30.7472 195.686 30.8317 196.06 30.8317ZM201.434 32V24.3636H203.18V25.6364H203.259C203.398 25.1955 203.637 24.8558 203.975 24.6172C204.316 24.3752 204.706 24.2543 205.143 24.2543C205.243 24.2543 205.354 24.2592 205.476 24.2692C205.602 24.2758 205.707 24.2874 205.79 24.304V25.9595C205.713 25.933 205.592 25.9098 205.427 25.8899C205.264 25.8667 205.107 25.8551 204.954 25.8551C204.626 25.8551 204.331 25.9264 204.069 26.0689C203.811 26.2081 203.607 26.402 203.458 26.6506C203.309 26.8991 203.234 27.1858 203.234 27.5107V32H201.434Z" fill="#F6F6F6"/>
</svg>
