<svg width="220" height="24" viewBox="0 0 220 24" fill="none" xmlns="http://www.w3.org/2000/svg">
<mask id="mask0_384_7106" style="mask-type:alpha" maskUnits="userSpaceOnUse" x="0" y="0" width="24" height="24">
<rect width="24" height="24" fill="#D9D9D9"/>
</mask>
<g mask="url(#mask0_384_7106)">
<path d="M7 17H14V15H7V17ZM7 13H17V11H7V13ZM7 9H17V7H7V9ZM5 21C4.45 21 3.97917 20.8042 3.5875 20.4125C3.19583 20.0208 3 19.55 3 19V5C3 4.45 3.19583 3.97917 3.5875 3.5875C3.97917 3.19583 4.45 3 5 3H19C19.55 3 20.0208 3.19583 20.4125 3.5875C20.8042 3.97917 21 4.45 21 5V19C21 19.55 20.8042 20.0208 20.4125 20.4125C20.0208 20.8042 19.55 21 19 21H5ZM5 19H19V5H5V19Z" fill="#1313F2"/>
</g>
<path d="M45.7195 10.2536H43.8601C43.8071 9.94863 43.7093 9.6785 43.5668 9.44318C43.4242 9.20455 43.2469 9.00237 43.0348 8.83665C42.8227 8.67093 42.5807 8.54664 42.3089 8.46378C42.0405 8.3776 41.7505 8.33452 41.4389 8.33452C40.8854 8.33452 40.3949 8.47372 39.9673 8.75213C39.5398 9.02722 39.205 9.43158 38.9631 9.9652C38.7211 10.4955 38.6001 11.1435 38.6001 11.9091C38.6001 12.688 38.7211 13.3442 38.9631 13.8778C39.2083 14.4081 39.5431 14.8092 39.9673 15.081C40.3949 15.3494 40.8838 15.4837 41.4339 15.4837C41.7389 15.4837 42.0239 15.4439 42.2891 15.3643C42.5575 15.2815 42.7978 15.1605 43.0099 15.0014C43.2254 14.8423 43.406 14.6468 43.5518 14.4148C43.701 14.1828 43.8037 13.9176 43.8601 13.6193L45.7195 13.6293C45.6499 14.1132 45.4991 14.5672 45.267 14.9915C45.0384 15.4157 44.7384 15.7902 44.3672 16.1151C43.996 16.4366 43.5618 16.6884 43.0646 16.8707C42.5675 17.0497 42.0156 17.1392 41.4091 17.1392C40.5142 17.1392 39.7154 16.9321 39.0128 16.5178C38.3101 16.1035 37.7566 15.5052 37.3523 14.723C36.9479 13.9408 36.7457 13.0028 36.7457 11.9091C36.7457 10.812 36.9496 9.87405 37.3572 9.09517C37.7649 8.31297 38.3201 7.71473 39.0227 7.30043C39.7254 6.88613 40.5208 6.67898 41.4091 6.67898C41.9759 6.67898 42.5028 6.75852 42.9901 6.91761C43.4773 7.0767 43.9115 7.31037 44.2926 7.61861C44.6738 7.92353 44.987 8.29806 45.2322 8.74219C45.4808 9.183 45.6432 9.68679 45.7195 10.2536ZM50.66 17.1491C49.9142 17.1491 49.2679 16.9851 48.7211 16.657C48.1742 16.3288 47.7499 15.8698 47.4483 15.2798C47.15 14.6899 47.0009 14.0005 47.0009 13.2116C47.0009 12.4228 47.15 11.7318 47.4483 11.1385C47.7499 10.5452 48.1742 10.0845 48.7211 9.75639C49.2679 9.42827 49.9142 9.2642 50.66 9.2642C51.4057 9.2642 52.052 9.42827 52.5989 9.75639C53.1458 10.0845 53.5684 10.5452 53.8667 11.1385C54.1683 11.7318 54.3191 12.4228 54.3191 13.2116C54.3191 14.0005 54.1683 14.6899 53.8667 15.2798C53.5684 15.8698 53.1458 16.3288 52.5989 16.657C52.052 16.9851 51.4057 17.1491 50.66 17.1491ZM50.6699 15.7074C51.0743 15.7074 51.4123 15.5964 51.6841 15.3743C51.9559 15.1489 52.1581 14.8473 52.2907 14.4695C52.4266 14.0916 52.4945 13.6707 52.4945 13.2067C52.4945 12.7393 52.4266 12.3168 52.2907 11.9389C52.1581 11.5578 51.9559 11.2545 51.6841 11.0291C51.4123 10.8037 51.0743 10.6911 50.6699 10.6911C50.2556 10.6911 49.9109 10.8037 49.6358 11.0291C49.3641 11.2545 49.1602 11.5578 49.0243 11.9389C48.8917 12.3168 48.8255 12.7393 48.8255 13.2067C48.8255 13.6707 48.8917 14.0916 49.0243 14.4695C49.1602 14.8473 49.3641 15.1489 49.6358 15.3743C49.9109 15.5964 50.2556 15.7074 50.6699 15.7074ZM55.8466 17V9.36364H57.5668V10.6612H57.6562C57.8153 10.2237 58.0788 9.88234 58.4467 9.63707C58.8146 9.38849 59.2538 9.2642 59.7642 9.2642C60.2812 9.2642 60.7171 9.39015 61.0717 9.64205C61.4297 9.89062 61.6816 10.2304 61.8274 10.6612H61.907C62.076 10.237 62.361 9.89891 62.7621 9.64702C63.1664 9.39181 63.6454 9.2642 64.1989 9.2642C64.9015 9.2642 65.4749 9.48627 65.919 9.9304C66.3632 10.3745 66.5852 11.0225 66.5852 11.8743V17H64.7805V12.1527C64.7805 11.6787 64.6546 11.3324 64.4027 11.1136C64.1508 10.8916 63.8426 10.7805 63.478 10.7805C63.0438 10.7805 62.7041 10.9164 62.4588 11.1882C62.2169 11.4567 62.0959 11.8063 62.0959 12.2372V17H60.331V12.0781C60.331 11.6837 60.2116 11.3688 59.973 11.1335C59.7377 10.8982 59.4295 10.7805 59.0483 10.7805C58.7898 10.7805 58.5545 10.8468 58.3423 10.9794C58.1302 11.1087 57.9612 11.2926 57.8352 11.5312C57.7093 11.7666 57.6463 12.0417 57.6463 12.3565V17H55.8466ZM68.411 19.8636V9.36364H70.1809V10.6264H70.2853C70.3781 10.4408 70.5091 10.2436 70.6781 10.0348C70.8471 9.82268 71.0758 9.64205 71.3642 9.4929C71.6525 9.34044 72.0204 9.2642 72.4679 9.2642C73.0578 9.2642 73.5898 9.41501 74.0637 9.71662C74.541 10.0149 74.9189 10.4574 75.1973 11.044C75.479 11.6274 75.6199 12.3433 75.6199 13.1918C75.6199 14.0303 75.4823 14.7429 75.2072 15.3295C74.9321 15.9162 74.5576 16.3636 74.0836 16.6719C73.6097 16.9801 73.0727 17.1342 72.4728 17.1342C72.0353 17.1342 71.6724 17.0613 71.3841 16.9155C71.0957 16.7696 70.8637 16.594 70.688 16.3885C70.5157 16.1797 70.3815 15.9825 70.2853 15.7969H70.2108V19.8636H68.411ZM70.176 13.1818C70.176 13.6757 70.2456 14.1082 70.3848 14.4794C70.5273 14.8506 70.7311 15.1406 70.9963 15.3494C71.2647 15.5549 71.5895 15.6577 71.9707 15.6577C72.3684 15.6577 72.7015 15.5516 72.97 15.3395C73.2385 15.1241 73.4406 14.8307 73.5765 14.4595C73.7157 14.085 73.7853 13.6591 73.7853 13.1818C73.7853 12.7079 73.7174 12.2869 73.5815 11.919C73.4456 11.5511 73.2434 11.2628 72.975 11.054C72.7065 10.8452 72.3717 10.7408 71.9707 10.7408C71.5862 10.7408 71.2598 10.8419 70.9913 11.044C70.7228 11.2462 70.519 11.5296 70.3798 11.8942C70.2439 12.2588 70.176 12.688 70.176 13.1818ZM77.161 17V9.36364H78.9061V10.6364H78.9856C79.1248 10.1955 79.3635 9.85582 79.7015 9.61719C80.0429 9.37524 80.4324 9.25426 80.8699 9.25426C80.9693 9.25426 81.0803 9.25923 81.2029 9.26918C81.3289 9.2758 81.4333 9.2874 81.5162 9.30398V10.9595C81.4399 10.933 81.319 10.9098 81.1532 10.8899C80.9908 10.8667 80.8334 10.8551 80.6809 10.8551C80.3528 10.8551 80.0578 10.9264 79.796 11.0689C79.5375 11.2081 79.3336 11.402 79.1845 11.6506C79.0353 11.8991 78.9608 12.1858 78.9608 12.5107V17H77.161ZM85.7283 17.1491C84.9826 17.1491 84.3363 16.9851 83.7894 16.657C83.2425 16.3288 82.8183 15.8698 82.5167 15.2798C82.2184 14.6899 82.0692 14.0005 82.0692 13.2116C82.0692 12.4228 82.2184 11.7318 82.5167 11.1385C82.8183 10.5452 83.2425 10.0845 83.7894 9.75639C84.3363 9.42827 84.9826 9.2642 85.7283 9.2642C86.4741 9.2642 87.1204 9.42827 87.6673 9.75639C88.2141 10.0845 88.6367 10.5452 88.935 11.1385C89.2366 11.7318 89.3874 12.4228 89.3874 13.2116C89.3874 14.0005 89.2366 14.6899 88.935 15.2798C88.6367 15.8698 88.2141 16.3288 87.6673 16.657C87.1204 16.9851 86.4741 17.1491 85.7283 17.1491ZM85.7383 15.7074C86.1426 15.7074 86.4807 15.5964 86.7525 15.3743C87.0243 15.1489 87.2264 14.8473 87.359 14.4695C87.4949 14.0916 87.5629 13.6707 87.5629 13.2067C87.5629 12.7393 87.4949 12.3168 87.359 11.9389C87.2264 11.5578 87.0243 11.2545 86.7525 11.0291C86.4807 10.8037 86.1426 10.6911 85.7383 10.6911C85.324 10.6911 84.9793 10.8037 84.7042 11.0291C84.4324 11.2545 84.2286 11.5578 84.0927 11.9389C83.9601 12.3168 83.8938 12.7393 83.8938 13.2067C83.8938 13.6707 83.9601 14.0916 84.0927 14.4695C84.2286 14.8473 84.4324 15.1489 84.7042 15.3743C84.9793 15.5964 85.324 15.7074 85.7383 15.7074ZM97.4762 9.36364L94.7567 17H92.7681L90.0487 9.36364H91.9677L93.7227 15.0362H93.8022L95.5621 9.36364H97.4762ZM100.7 17.1541C100.216 17.1541 99.7805 17.0679 99.3928 16.8956C99.0083 16.7199 98.7034 16.4614 98.478 16.12C98.2559 15.7786 98.1449 15.3577 98.1449 14.8572C98.1449 14.4264 98.2244 14.0701 98.3835 13.7884C98.5426 13.5066 98.7597 13.2812 99.0348 13.1122C99.3099 12.9432 99.6198 12.8156 99.9645 12.7294C100.313 12.6399 100.672 12.5753 101.043 12.5355C101.491 12.4891 101.854 12.4477 102.132 12.4112C102.411 12.3714 102.613 12.3118 102.739 12.2322C102.868 12.1494 102.933 12.0218 102.933 11.8494V11.8196C102.933 11.4451 102.821 11.1551 102.599 10.9496C102.377 10.7441 102.058 10.6413 101.64 10.6413C101.199 10.6413 100.849 10.7375 100.591 10.9297C100.336 11.1219 100.163 11.349 100.074 11.6108L98.3935 11.3722C98.526 10.9081 98.7448 10.5204 99.0497 10.2088C99.3546 9.89394 99.7275 9.65862 100.168 9.50284C100.609 9.34375 101.096 9.2642 101.63 9.2642C101.998 9.2642 102.364 9.30729 102.729 9.39347C103.093 9.47964 103.426 9.62216 103.728 9.82102C104.03 10.0166 104.272 10.2834 104.454 10.6214C104.639 10.9595 104.732 11.3821 104.732 11.8892V17H103.002V15.951H102.942C102.833 16.1631 102.679 16.362 102.48 16.5476C102.285 16.7299 102.038 16.8774 101.739 16.9901C101.444 17.0994 101.098 17.1541 100.7 17.1541ZM101.168 15.8317C101.529 15.8317 101.842 15.7604 102.107 15.6179C102.372 15.4721 102.576 15.2798 102.719 15.0412C102.865 14.8026 102.938 14.5424 102.938 14.2607V13.3608C102.881 13.4072 102.785 13.4503 102.649 13.4901C102.517 13.5298 102.367 13.5646 102.202 13.5945C102.036 13.6243 101.872 13.6508 101.71 13.674C101.547 13.6972 101.406 13.7171 101.287 13.7337C101.018 13.7701 100.778 13.8298 100.566 13.9126C100.354 13.9955 100.187 14.1115 100.064 14.2607C99.9413 14.4065 99.88 14.5954 99.88 14.8274C99.88 15.1589 100.001 15.4091 100.243 15.5781C100.485 15.7472 100.793 15.8317 101.168 15.8317ZM108.342 12.5256V17H106.542V9.36364H108.262V10.6612H108.352C108.527 10.2337 108.807 9.89394 109.192 9.64205C109.58 9.39015 110.058 9.2642 110.629 9.2642C111.156 9.2642 111.615 9.37689 112.006 9.60227C112.4 9.82765 112.705 10.1541 112.92 10.5817C113.139 11.0092 113.247 11.5279 113.244 12.1378V17H111.444V12.4162C111.444 11.9058 111.311 11.5064 111.046 11.218C110.784 10.9297 110.421 10.7855 109.957 10.7855C109.643 10.7855 109.362 10.8551 109.117 10.9943C108.875 11.1302 108.685 11.3274 108.545 11.5859C108.41 11.8445 108.342 12.1577 108.342 12.5256ZM118.886 9.36364V10.7557H114.496V9.36364H118.886ZM115.58 7.53409H117.38V14.7031C117.38 14.9451 117.416 15.1307 117.489 15.2599C117.566 15.3859 117.665 15.4721 117.788 15.5185C117.91 15.5649 118.046 15.5881 118.195 15.5881C118.308 15.5881 118.411 15.5798 118.504 15.5632C118.6 15.5466 118.673 15.5317 118.722 15.5185L119.026 16.9254C118.929 16.9586 118.792 16.995 118.613 17.0348C118.437 17.0746 118.222 17.0978 117.967 17.1044C117.516 17.1177 117.11 17.0497 116.749 16.9006C116.387 16.7481 116.101 16.5128 115.888 16.1946C115.68 15.8764 115.577 15.4787 115.58 15.0014V7.53409ZM123.69 17.1491C122.925 17.1491 122.263 16.9901 121.706 16.6719C121.153 16.3504 120.727 15.8963 120.429 15.3097C120.131 14.7197 119.981 14.0253 119.981 13.2266C119.981 12.4411 120.131 11.7517 120.429 11.1584C120.73 10.5618 121.151 10.0978 121.692 9.76633C122.232 9.43158 122.867 9.2642 123.596 9.2642C124.066 9.2642 124.51 9.34044 124.928 9.4929C125.349 9.64205 125.72 9.87405 126.042 10.1889C126.367 10.5038 126.622 10.9048 126.807 11.392C126.993 11.8759 127.086 12.4527 127.086 13.1222V13.674H120.827V12.4609H125.361C125.357 12.1162 125.283 11.8097 125.137 11.5412C124.991 11.2694 124.787 11.0556 124.525 10.8999C124.267 10.7441 123.965 10.6662 123.621 10.6662C123.253 10.6662 122.93 10.7557 122.651 10.9347C122.373 11.1103 122.156 11.3423 122 11.6307C121.847 11.9157 121.769 12.2289 121.766 12.5703V13.6293C121.766 14.0734 121.847 14.4545 122.01 14.7727C122.172 15.0876 122.399 15.3295 122.691 15.4986C122.983 15.6643 123.324 15.7472 123.715 15.7472C123.977 15.7472 124.214 15.7107 124.426 15.6378C124.638 15.5616 124.822 15.4505 124.978 15.3047C125.134 15.1589 125.251 14.9782 125.331 14.7628L127.011 14.9517C126.905 15.3958 126.703 15.7836 126.405 16.1151C126.11 16.4432 125.732 16.6984 125.271 16.8807C124.81 17.0597 124.283 17.1491 123.69 17.1491ZM134.915 17.1342C134.315 17.1342 133.778 16.9801 133.304 16.6719C132.83 16.3636 132.455 15.9162 132.18 15.3295C131.905 14.7429 131.768 14.0303 131.768 13.1918C131.768 12.3433 131.907 11.6274 132.185 11.044C132.467 10.4574 132.847 10.0149 133.324 9.71662C133.801 9.41501 134.333 9.2642 134.92 9.2642C135.367 9.2642 135.735 9.34044 136.023 9.4929C136.312 9.64205 136.54 9.82268 136.71 10.0348C136.879 10.2436 137.009 10.4408 137.102 10.6264H137.177V6.81818H138.982V17H137.212V15.7969H137.102C137.009 15.9825 136.875 16.1797 136.7 16.3885C136.524 16.594 136.292 16.7696 136.004 16.9155C135.715 17.0613 135.352 17.1342 134.915 17.1342ZM135.417 15.6577C135.798 15.6577 136.123 15.5549 136.391 15.3494C136.66 15.1406 136.864 14.8506 137.003 14.4794C137.142 14.1082 137.212 13.6757 137.212 13.1818C137.212 12.688 137.142 12.2588 137.003 11.8942C136.867 11.5296 136.665 11.2462 136.396 11.044C136.131 10.8419 135.805 10.7408 135.417 10.7408C135.016 10.7408 134.681 10.8452 134.413 11.054C134.144 11.2628 133.942 11.5511 133.806 11.919C133.67 12.2869 133.602 12.7079 133.602 13.1818C133.602 13.6591 133.67 14.085 133.806 14.4595C133.945 14.8307 134.149 15.1241 134.418 15.3395C134.689 15.5516 135.022 15.6577 135.417 15.6577ZM144.28 17.1491C143.514 17.1491 142.853 16.9901 142.296 16.6719C141.743 16.3504 141.317 15.8963 141.019 15.3097C140.72 14.7197 140.571 14.0253 140.571 13.2266C140.571 12.4411 140.72 11.7517 141.019 11.1584C141.32 10.5618 141.741 10.0978 142.281 9.76633C142.822 9.43158 143.456 9.2642 144.186 9.2642C144.656 9.2642 145.1 9.34044 145.518 9.4929C145.939 9.64205 146.31 9.87405 146.632 10.1889C146.956 10.5038 147.212 10.9048 147.397 11.392C147.583 11.8759 147.676 12.4527 147.676 13.1222V13.674H141.416V12.4609H145.95C145.947 12.1162 145.873 11.8097 145.727 11.5412C145.581 11.2694 145.377 11.0556 145.115 10.8999C144.857 10.7441 144.555 10.6662 144.21 10.6662C143.843 10.6662 143.519 10.7557 143.241 10.9347C142.963 11.1103 142.745 11.3423 142.59 11.6307C142.437 11.9157 142.359 12.2289 142.356 12.5703V13.6293C142.356 14.0734 142.437 14.4545 142.6 14.7727C142.762 15.0876 142.989 15.3295 143.281 15.4986C143.572 15.6643 143.914 15.7472 144.305 15.7472C144.567 15.7472 144.804 15.7107 145.016 15.6378C145.228 15.5616 145.412 15.4505 145.568 15.3047C145.723 15.1589 145.841 14.9782 145.921 14.7628L147.601 14.9517C147.495 15.3958 147.293 15.7836 146.994 16.1151C146.7 16.4432 146.322 16.6984 145.861 16.8807C145.4 17.0597 144.873 17.1491 144.28 17.1491ZM156.484 9.36364V10.7557H152.094V9.36364H156.484ZM153.178 7.53409H154.978V14.7031C154.978 14.9451 155.014 15.1307 155.087 15.2599C155.163 15.3859 155.263 15.4721 155.385 15.5185C155.508 15.5649 155.644 15.5881 155.793 15.5881C155.906 15.5881 156.008 15.5798 156.101 15.5632C156.197 15.5466 156.27 15.5317 156.32 15.5185L156.623 16.9254C156.527 16.9586 156.39 16.995 156.211 17.0348C156.035 17.0746 155.819 17.0978 155.564 17.1044C155.114 17.1177 154.708 17.0497 154.346 16.9006C153.985 16.7481 153.698 16.5128 153.486 16.1946C153.277 15.8764 153.175 15.4787 153.178 15.0014V7.53409ZM157.989 17V9.36364H159.734V10.6364H159.814C159.953 10.1955 160.192 9.85582 160.53 9.61719C160.871 9.37524 161.26 9.25426 161.698 9.25426C161.797 9.25426 161.908 9.25923 162.031 9.26918C162.157 9.2758 162.261 9.2874 162.344 9.30398V10.9595C162.268 10.933 162.147 10.9098 161.981 10.8899C161.819 10.8667 161.662 10.8551 161.509 10.8551C161.181 10.8551 160.886 10.9264 160.624 11.0689C160.366 11.2081 160.162 11.402 160.013 11.6506C159.863 11.8991 159.789 12.1858 159.789 12.5107V17H157.989ZM165.601 17.1541C165.117 17.1541 164.681 17.0679 164.293 16.8956C163.909 16.7199 163.604 16.4614 163.378 16.12C163.156 15.7786 163.045 15.3577 163.045 14.8572C163.045 14.4264 163.125 14.0701 163.284 13.7884C163.443 13.5066 163.66 13.2812 163.935 13.1122C164.21 12.9432 164.52 12.8156 164.865 12.7294C165.213 12.6399 165.573 12.5753 165.944 12.5355C166.391 12.4891 166.754 12.4477 167.032 12.4112C167.311 12.3714 167.513 12.3118 167.639 12.2322C167.768 12.1494 167.833 12.0218 167.833 11.8494V11.8196C167.833 11.4451 167.722 11.1551 167.5 10.9496C167.278 10.7441 166.958 10.6413 166.54 10.6413C166.099 10.6413 165.75 10.7375 165.491 10.9297C165.236 11.1219 165.064 11.349 164.974 11.6108L163.294 11.3722C163.426 10.9081 163.645 10.5204 163.95 10.2088C164.255 9.89394 164.628 9.65862 165.069 9.50284C165.51 9.34375 165.997 9.2642 166.53 9.2642C166.898 9.2642 167.265 9.30729 167.629 9.39347C167.994 9.47964 168.327 9.62216 168.628 9.82102C168.93 10.0166 169.172 10.2834 169.354 10.6214C169.54 10.9595 169.633 11.3821 169.633 11.8892V17H167.903V15.951H167.843C167.733 16.1631 167.579 16.362 167.381 16.5476C167.185 16.7299 166.938 16.8774 166.64 16.9901C166.345 17.0994 165.998 17.1541 165.601 17.1541ZM166.068 15.8317C166.429 15.8317 166.742 15.7604 167.008 15.6179C167.273 15.4721 167.477 15.2798 167.619 15.0412C167.765 14.8026 167.838 14.5424 167.838 14.2607V13.3608C167.782 13.4072 167.685 13.4503 167.55 13.4901C167.417 13.5298 167.268 13.5646 167.102 13.5945C166.936 13.6243 166.772 13.6508 166.61 13.674C166.448 13.6972 166.307 13.7171 166.187 13.7337C165.919 13.7701 165.679 13.8298 165.466 13.9126C165.254 13.9955 165.087 14.1115 164.964 14.2607C164.842 14.4065 164.78 14.5954 164.78 14.8274C164.78 15.1589 164.901 15.4091 165.143 15.5781C165.385 15.7472 165.693 15.8317 166.068 15.8317ZM173.242 12.5256V17H171.442V9.36364H173.162V10.6612H173.252C173.428 10.2337 173.708 9.89394 174.092 9.64205C174.48 9.39015 174.959 9.2642 175.529 9.2642C176.056 9.2642 176.515 9.37689 176.906 9.60227C177.3 9.82765 177.605 10.1541 177.821 10.5817C178.04 11.0092 178.147 11.5279 178.144 12.1378V17H176.344V12.4162C176.344 11.9058 176.212 11.5064 175.947 11.218C175.685 10.9297 175.322 10.7855 174.858 10.7855C174.543 10.7855 174.263 10.8551 174.018 10.9943C173.776 11.1302 173.585 11.3274 173.446 11.5859C173.31 11.8445 173.242 12.1577 173.242 12.5256ZM186.009 11.3821L184.368 11.5611C184.322 11.3954 184.241 11.2396 184.125 11.0938C184.012 10.9479 183.86 10.8303 183.667 10.7408C183.475 10.6513 183.24 10.6065 182.961 10.6065C182.587 10.6065 182.272 10.6877 182.017 10.8501C181.765 11.0125 181.641 11.223 181.644 11.4815C181.641 11.7036 181.722 11.8842 181.888 12.0234C182.057 12.1626 182.335 12.277 182.723 12.3665L184.025 12.6449C184.748 12.8007 185.285 13.0476 185.636 13.3857C185.991 13.7237 186.17 14.1662 186.173 14.7131C186.17 15.1937 186.029 15.6179 185.751 15.9858C185.475 16.3504 185.093 16.6354 184.602 16.8409C184.112 17.0464 183.548 17.1491 182.912 17.1491C181.977 17.1491 181.225 16.9536 180.655 16.5625C180.085 16.1681 179.745 15.6196 179.635 14.9169L181.39 14.7479C181.47 15.0926 181.639 15.3527 181.898 15.5284C182.156 15.7041 182.492 15.7919 182.907 15.7919C183.334 15.7919 183.677 15.7041 183.936 15.5284C184.198 15.3527 184.329 15.1357 184.329 14.8771C184.329 14.6584 184.244 14.4777 184.075 14.3352C183.909 14.1927 183.651 14.0833 183.3 14.0071L181.997 13.7337C181.265 13.5812 180.723 13.3243 180.371 12.9631C180.02 12.5985 179.846 12.1378 179.849 11.581C179.846 11.1103 179.974 10.7027 180.232 10.358C180.494 10.0099 180.857 9.74148 181.321 9.55256C181.788 9.36032 182.327 9.2642 182.937 9.2642C183.831 9.2642 184.536 9.45478 185.05 9.83594C185.567 10.2171 185.886 10.7325 186.009 11.3821ZM189.855 17.1541C189.371 17.1541 188.935 17.0679 188.547 16.8956C188.163 16.7199 187.858 16.4614 187.632 16.12C187.41 15.7786 187.299 15.3577 187.299 14.8572C187.299 14.4264 187.379 14.0701 187.538 13.7884C187.697 13.5066 187.914 13.2812 188.189 13.1122C188.464 12.9432 188.774 12.8156 189.119 12.7294C189.467 12.6399 189.826 12.5753 190.198 12.5355C190.645 12.4891 191.008 12.4477 191.286 12.4112C191.565 12.3714 191.767 12.3118 191.893 12.2322C192.022 12.1494 192.087 12.0218 192.087 11.8494V11.8196C192.087 11.4451 191.976 11.1551 191.754 10.9496C191.532 10.7441 191.212 10.6413 190.794 10.6413C190.353 10.6413 190.004 10.7375 189.745 10.9297C189.49 11.1219 189.318 11.349 189.228 11.6108L187.548 11.3722C187.68 10.9081 187.899 10.5204 188.204 10.2088C188.509 9.89394 188.882 9.65862 189.323 9.50284C189.763 9.34375 190.251 9.2642 190.784 9.2642C191.152 9.2642 191.518 9.30729 191.883 9.39347C192.248 9.47964 192.581 9.62216 192.882 9.82102C193.184 10.0166 193.426 10.2834 193.608 10.6214C193.794 10.9595 193.887 11.3821 193.887 11.8892V17H192.156V15.951H192.097C191.987 16.1631 191.833 16.362 191.634 16.5476C191.439 16.7299 191.192 16.8774 190.894 16.9901C190.599 17.0994 190.252 17.1541 189.855 17.1541ZM190.322 15.8317C190.683 15.8317 190.996 15.7604 191.262 15.6179C191.527 15.4721 191.731 15.2798 191.873 15.0412C192.019 14.8026 192.092 14.5424 192.092 14.2607V13.3608C192.035 13.4072 191.939 13.4503 191.803 13.4901C191.671 13.5298 191.522 13.5646 191.356 13.5945C191.19 13.6243 191.026 13.6508 190.864 13.674C190.701 13.6972 190.561 13.7171 190.441 13.7337C190.173 13.7701 189.932 13.8298 189.72 13.9126C189.508 13.9955 189.341 14.1115 189.218 14.2607C189.096 14.4065 189.034 14.5954 189.034 14.8274C189.034 15.1589 189.155 15.4091 189.397 15.5781C189.639 15.7472 189.947 15.8317 190.322 15.8317ZM199.027 17.1491C198.265 17.1491 197.61 16.9818 197.063 16.647C196.52 16.3123 196.101 15.8499 195.806 15.2599C195.514 14.6667 195.368 13.9839 195.368 13.2116C195.368 12.4361 195.517 11.7517 195.816 11.1584C196.114 10.5618 196.535 10.0978 197.078 9.76633C197.625 9.43158 198.271 9.2642 199.017 9.2642C199.637 9.2642 200.186 9.37855 200.663 9.60724C201.143 9.83262 201.526 10.1525 201.811 10.5668C202.096 10.9777 202.259 11.4583 202.298 12.0085H200.578C200.509 11.6406 200.343 11.334 200.081 11.0888C199.823 10.8402 199.476 10.7159 199.042 10.7159C198.674 10.7159 198.351 10.8153 198.073 11.0142C197.794 11.2098 197.577 11.4915 197.421 11.8594C197.269 12.2273 197.193 12.6681 197.193 13.1818C197.193 13.7022 197.269 14.1496 197.421 14.5241C197.574 14.8954 197.788 15.1821 198.063 15.3842C198.341 15.5831 198.668 15.6825 199.042 15.6825C199.307 15.6825 199.544 15.6328 199.753 15.5334C199.965 15.4306 200.142 15.2831 200.285 15.0909C200.427 14.8987 200.525 14.665 200.578 14.3899H202.298C202.255 14.9302 202.096 15.4091 201.821 15.8267C201.546 16.241 201.172 16.5658 200.698 16.8011C200.224 17.0331 199.667 17.1491 199.027 17.1491ZM198.51 16.9602H199.485L199.405 17.3828C199.717 17.4292 199.98 17.5485 200.195 17.7408C200.414 17.9363 200.524 18.2164 200.524 18.581C200.527 19.0516 200.316 19.4295 199.892 19.7145C199.468 19.9995 198.863 20.142 198.078 20.142L198.058 19.2571C198.439 19.2571 198.742 19.2057 198.968 19.103C199.193 19.0036 199.307 18.8445 199.311 18.6257C199.317 18.4136 199.238 18.2578 199.072 18.1584C198.91 18.0623 198.651 17.996 198.296 17.9595L198.51 16.9602ZM205.974 17.1541C205.49 17.1541 205.054 17.0679 204.666 16.8956C204.282 16.7199 203.977 16.4614 203.751 16.12C203.529 15.7786 203.418 15.3577 203.418 14.8572C203.418 14.4264 203.498 14.0701 203.657 13.7884C203.816 13.5066 204.033 13.2812 204.308 13.1122C204.583 12.9432 204.893 12.8156 205.238 12.7294C205.586 12.6399 205.946 12.5753 206.317 12.5355C206.764 12.4891 207.127 12.4477 207.406 12.4112C207.684 12.3714 207.886 12.3118 208.012 12.2322C208.141 12.1494 208.206 12.0218 208.206 11.8494V11.8196C208.206 11.4451 208.095 11.1551 207.873 10.9496C207.651 10.7441 207.331 10.6413 206.913 10.6413C206.473 10.6413 206.123 10.7375 205.864 10.9297C205.609 11.1219 205.437 11.349 205.347 11.6108L203.667 11.3722C203.799 10.9081 204.018 10.5204 204.323 10.2088C204.628 9.89394 205.001 9.65862 205.442 9.50284C205.883 9.34375 206.37 9.2642 206.903 9.2642C207.271 9.2642 207.638 9.30729 208.002 9.39347C208.367 9.47964 208.7 9.62216 209.001 9.82102C209.303 10.0166 209.545 10.2834 209.727 10.6214C209.913 10.9595 210.006 11.3821 210.006 11.8892V17H208.276V15.951H208.216C208.107 16.1631 207.952 16.362 207.754 16.5476C207.558 16.7299 207.311 16.8774 207.013 16.9901C206.718 17.0994 206.371 17.1541 205.974 17.1541ZM206.441 15.8317C206.802 15.8317 207.116 15.7604 207.381 15.6179C207.646 15.4721 207.85 15.2798 207.992 15.0412C208.138 14.8026 208.211 14.5424 208.211 14.2607V13.3608C208.155 13.4072 208.058 13.4503 207.923 13.4901C207.79 13.5298 207.641 13.5646 207.475 13.5945C207.309 13.6243 207.145 13.6508 206.983 13.674C206.821 13.6972 206.68 13.7171 206.56 13.7337C206.292 13.7701 206.052 13.8298 205.839 13.9126C205.627 13.9955 205.46 14.1115 205.337 14.2607C205.215 14.4065 205.153 14.5954 205.153 14.8274C205.153 15.1589 205.274 15.4091 205.516 15.5781C205.758 15.7472 206.067 15.8317 206.441 15.8317ZM205.521 8.43395L204.433 8.40909C204.433 7.81913 204.585 7.35677 204.89 7.02202C205.195 6.68726 205.571 6.51989 206.018 6.51989C206.234 6.51989 206.421 6.55634 206.58 6.62926C206.739 6.69886 206.885 6.78007 207.018 6.87287C207.154 6.96567 207.286 7.04853 207.415 7.12145C207.545 7.19105 207.687 7.22585 207.843 7.22585C208.032 7.22585 208.181 7.15459 208.29 7.01207C208.403 6.86955 208.461 6.68726 208.464 6.4652L209.533 6.50994C209.53 7.10322 209.376 7.56392 209.071 7.89205C208.766 8.21686 208.392 8.38092 207.947 8.38423C207.709 8.38755 207.508 8.35275 207.346 8.27983C207.183 8.20691 207.041 8.12405 206.918 8.03125C206.799 7.93845 206.678 7.85724 206.555 7.78764C206.433 7.71473 206.289 7.67827 206.123 7.67827C205.947 7.67827 205.803 7.74787 205.69 7.88707C205.578 8.02628 205.521 8.20857 205.521 8.43395ZM215.146 17.1491C214.401 17.1491 213.754 16.9851 213.207 16.657C212.661 16.3288 212.236 15.8698 211.935 15.2798C211.636 14.6899 211.487 14.0005 211.487 13.2116C211.487 12.4228 211.636 11.7318 211.935 11.1385C212.236 10.5452 212.661 10.0845 213.207 9.75639C213.754 9.42827 214.401 9.2642 215.146 9.2642C215.892 9.2642 216.538 9.42827 217.085 9.75639C217.632 10.0845 218.055 10.5452 218.353 11.1385C218.655 11.7318 218.805 12.4228 218.805 13.2116C218.805 14.0005 218.655 14.6899 218.353 15.2798C218.055 15.8698 217.632 16.3288 217.085 16.657C216.538 16.9851 215.892 17.1491 215.146 17.1491ZM215.156 15.7074C215.561 15.7074 215.899 15.5964 216.17 15.3743C216.442 15.1489 216.644 14.8473 216.777 14.4695C216.913 14.0916 216.981 13.6707 216.981 13.2067C216.981 12.7393 216.913 12.3168 216.777 11.9389C216.644 11.5578 216.442 11.2545 216.17 11.0291C215.899 10.8037 215.561 10.6911 215.156 10.6911C214.742 10.6911 214.397 10.8037 214.122 11.0291C213.85 11.2545 213.647 11.5578 213.511 11.9389C213.378 12.3168 213.312 12.7393 213.312 13.2067C213.312 13.6707 213.378 14.0916 213.511 14.4695C213.647 14.8473 213.85 15.1489 214.122 15.3743C214.397 15.5964 214.742 15.7074 215.156 15.7074Z" fill="#1313F2"/>
</svg>
