<svg width="350" height="153" viewBox="0 0 350 153" fill="none" xmlns="http://www.w3.org/2000/svg">
<path d="M23.3182 9.81818C23.1136 8.09091 22.2841 6.75 20.8295 5.79545C19.375 4.84091 17.5909 4.36364 15.4773 4.36364C13.9318 4.36364 12.5795 4.61364 11.4205 5.11364C10.2727 5.61364 9.375 6.30114 8.72727 7.17614C8.09091 8.05114 7.77273 9.04545 7.77273 10.1591C7.77273 11.0909 7.99432 11.892 8.4375 12.5625C8.89205 13.2216 9.47159 13.7727 10.1761 14.2159C10.8807 14.6477 11.6193 15.0057 12.392 15.2898C13.1648 15.5625 13.875 15.7841 14.5227 15.9545L18.0682 16.9091C18.9773 17.1477 19.9886 17.4773 21.1023 17.8977C22.2273 18.3182 23.3011 18.892 24.3239 19.6193C25.358 20.3352 26.2102 21.2557 26.8807 22.3807C27.5511 23.5057 27.8864 24.8864 27.8864 26.5227C27.8864 28.4091 27.392 30.1136 26.4034 31.6364C25.4261 33.1591 23.9943 34.3693 22.108 35.267C20.233 36.1648 17.9545 36.6136 15.2727 36.6136C12.7727 36.6136 10.608 36.2102 8.77841 35.4034C6.96023 34.5966 5.52841 33.4716 4.48295 32.0284C3.44886 30.5852 2.86364 28.9091 2.72727 27H7.09091C7.20455 28.3182 7.64773 29.4091 8.42045 30.2727C9.20455 31.125 10.1932 31.7614 11.3864 32.1818C12.5909 32.5909 13.8864 32.7955 15.2727 32.7955C16.8864 32.7955 18.3352 32.5341 19.6193 32.0114C20.9034 31.4773 21.9205 30.7386 22.6705 29.7955C23.4205 28.8409 23.7955 27.7273 23.7955 26.4545C23.7955 25.2955 23.4716 24.3523 22.8239 23.625C22.1761 22.8977 21.3239 22.3068 20.267 21.8523C19.2102 21.3977 18.0682 21 16.8409 20.6591L12.5455 19.4318C9.81818 18.6477 7.65909 17.5284 6.06818 16.0739C4.47727 14.6193 3.68182 12.7159 3.68182 10.3636C3.68182 8.40909 4.21023 6.70454 5.26705 5.25C6.33523 3.78409 7.76705 2.64773 9.5625 1.84091C11.3693 1.02273 13.3864 0.613635 15.6136 0.613635C17.8636 0.613635 19.8636 1.01704 21.6136 1.82386C23.3636 2.61932 24.75 3.71023 25.7727 5.09659C26.8068 6.48295 27.3523 8.05682 27.4091 9.81818H23.3182ZM47.4312 25.2955V9.81818H51.4539V36H47.4312V31.5682H47.1585C46.5448 32.8977 45.5903 34.0284 44.2948 34.9602C42.9994 35.8807 41.363 36.3409 39.3857 36.3409C37.7494 36.3409 36.2948 35.983 35.0221 35.267C33.7494 34.5398 32.7494 33.4489 32.0221 31.9943C31.2948 30.5284 30.9312 28.6818 30.9312 26.4545V9.81818H34.9539V26.1818C34.9539 28.0909 35.488 29.6136 36.5562 30.75C37.6357 31.8864 39.0107 32.4545 40.6812 32.4545C41.6812 32.4545 42.6982 32.1989 43.7323 31.6875C44.7778 31.1761 45.6528 30.392 46.3573 29.3352C47.0732 28.2784 47.4312 26.9318 47.4312 25.2955ZM63.1664 36.6136C61.5073 36.6136 60.0016 36.3011 58.6493 35.6761C57.297 35.0398 56.2232 34.125 55.4277 32.9318C54.6323 31.7273 54.2345 30.2727 54.2345 28.5682C54.2345 27.0682 54.53 25.8523 55.1209 24.9205C55.7118 23.9773 56.5016 23.2386 57.4902 22.7045C58.4789 22.1705 59.5698 21.7727 60.763 21.5114C61.9675 21.2386 63.1777 21.0227 64.3936 20.8636C65.9845 20.6591 67.2743 20.5057 68.263 20.4034C69.263 20.2898 69.9902 20.1023 70.4448 19.8409C70.9107 19.5795 71.1436 19.125 71.1436 18.4773V18.3409C71.1436 16.6591 70.6834 15.3523 69.763 14.4205C68.8539 13.4886 67.4732 13.0227 65.6209 13.0227C63.7005 13.0227 62.1948 13.4432 61.1039 14.2841C60.013 15.125 59.2459 16.0227 58.8027 16.9773L54.9845 15.6136C55.6664 14.0227 56.5755 12.7841 57.7118 11.8977C58.8595 11 60.1095 10.375 61.4618 10.0227C62.8255 9.65909 64.1664 9.47727 65.4845 9.47727C66.3255 9.47727 67.2914 9.57955 68.3823 9.78409C69.4845 9.97727 70.547 10.3807 71.5698 10.9943C72.6039 11.608 73.4618 12.5341 74.1436 13.7727C74.8255 15.0114 75.1664 16.6705 75.1664 18.75V36H71.1436V32.4545H70.9391C70.6664 33.0227 70.2118 33.6307 69.5755 34.2784C68.9391 34.9261 68.0925 35.4773 67.0357 35.9318C65.9789 36.3864 64.6891 36.6136 63.1664 36.6136ZM63.78 33C65.3709 33 66.7118 32.6875 67.8027 32.0625C68.905 31.4375 69.7345 30.6307 70.2914 29.642C70.8595 28.6534 71.1436 27.6136 71.1436 26.5227V22.8409C70.9732 23.0455 70.5982 23.233 70.0186 23.4034C69.4505 23.5625 68.7914 23.7045 68.0414 23.8295C67.3027 23.9432 66.5811 24.0455 65.8766 24.1364C65.1834 24.2159 64.6209 24.2841 64.1891 24.3409C63.1436 24.4773 62.1664 24.6989 61.2573 25.0057C60.3595 25.3011 59.6323 25.75 59.0755 26.3523C58.53 26.9432 58.2573 27.75 58.2573 28.7727C58.2573 30.1705 58.7743 31.2273 59.8084 31.9432C60.8539 32.6477 62.1777 33 63.78 33ZM107.834 15.6818L104.221 16.7045C103.993 16.1023 103.658 15.517 103.215 14.9489C102.783 14.3693 102.192 13.892 101.442 13.517C100.692 13.142 99.7319 12.9545 98.5614 12.9545C96.9591 12.9545 95.6239 13.3239 94.5557 14.0625C93.4989 14.7898 92.9705 15.7159 92.9705 16.8409C92.9705 17.8409 93.3341 18.6307 94.0614 19.2102C94.7887 19.7898 95.9251 20.2727 97.4705 20.6591L101.357 21.6136C103.698 22.1818 105.442 23.0511 106.59 24.2216C107.738 25.3807 108.311 26.875 108.311 28.7045C108.311 30.2045 107.88 31.5455 107.016 32.7273C106.164 33.9091 104.971 34.8409 103.436 35.5227C101.902 36.2045 100.118 36.5455 98.0841 36.5455C95.4137 36.5455 93.2035 35.9659 91.4535 34.8068C89.7035 33.6477 88.5955 31.9545 88.1296 29.7273L91.9478 28.7727C92.3114 30.1818 92.9989 31.2386 94.0103 31.9432C95.033 32.6477 96.3682 33 98.016 33C99.891 33 101.38 32.6023 102.482 31.8068C103.596 31 104.152 30.0341 104.152 28.9091C104.152 28 103.834 27.2386 103.198 26.625C102.561 26 101.584 25.5341 100.266 25.2273L95.9023 24.2045C93.5046 23.6364 91.7432 22.7557 90.6182 21.5625C89.5046 20.358 88.9478 18.8523 88.9478 17.0455C88.9478 15.5682 89.3626 14.2614 90.1921 13.125C91.033 11.9886 92.1751 11.0966 93.6182 10.4489C95.0728 9.80114 96.7205 9.47727 98.5614 9.47727C101.152 9.47727 103.186 10.0455 104.664 11.1818C106.152 12.3182 107.209 13.8182 107.834 15.6818ZM121.643 36.5455C119.28 36.5455 117.206 35.983 115.422 34.858C113.649 33.733 112.262 32.1591 111.262 30.1364C110.274 28.1136 109.78 25.75 109.78 23.0455C109.78 20.3182 110.274 17.9375 111.262 15.9034C112.262 13.8693 113.649 12.2898 115.422 11.1648C117.206 10.0398 119.28 9.47727 121.643 9.47727C124.007 9.47727 126.075 10.0398 127.848 11.1648C129.632 12.2898 131.018 13.8693 132.007 15.9034C133.007 17.9375 133.507 20.3182 133.507 23.0455C133.507 25.75 133.007 28.1136 132.007 30.1364C131.018 32.1591 129.632 33.733 127.848 34.858C126.075 35.983 124.007 36.5455 121.643 36.5455ZM121.643 32.9318C123.439 32.9318 124.916 32.4716 126.075 31.5511C127.234 30.6307 128.092 29.4205 128.649 27.9205C129.206 26.4205 129.484 24.7955 129.484 23.0455C129.484 21.2955 129.206 19.6648 128.649 18.1534C128.092 16.642 127.234 15.4205 126.075 14.4886C124.916 13.5568 123.439 13.0909 121.643 13.0909C119.848 13.0909 118.37 13.5568 117.211 14.4886C116.052 15.4205 115.194 16.642 114.637 18.1534C114.081 19.6648 113.802 21.2955 113.802 23.0455C113.802 24.7955 114.081 26.4205 114.637 27.9205C115.194 29.4205 116.052 30.6307 117.211 31.5511C118.37 32.4716 119.848 32.9318 121.643 32.9318ZM140.31 1.09091V36H136.287V1.09091H140.31ZM144.318 36V9.81818H148.341V36H144.318ZM146.364 5.45455C145.579 5.45455 144.903 5.1875 144.335 4.65341C143.778 4.11932 143.5 3.47727 143.5 2.72727C143.5 1.97727 143.778 1.33523 144.335 0.801135C144.903 0.267045 145.579 0 146.364 0C147.148 0 147.818 0.267045 148.375 0.801135C148.943 1.33523 149.227 1.97727 149.227 2.72727C149.227 3.47727 148.943 4.11932 148.375 4.65341C147.818 5.1875 147.148 5.45455 146.364 5.45455ZM162.985 36.5455C160.531 36.5455 158.417 35.9659 156.644 34.8068C154.871 33.6477 153.508 32.0511 152.553 30.017C151.599 27.983 151.121 25.6591 151.121 23.0455C151.121 20.3864 151.61 18.0398 152.587 16.0057C153.576 13.9602 154.951 12.3636 156.712 11.2159C158.485 10.0568 160.553 9.47727 162.917 9.47727C164.758 9.47727 166.417 9.81818 167.894 10.5C169.371 11.1818 170.582 12.1364 171.525 13.3636C172.468 14.5909 173.053 16.0227 173.281 17.6591H169.258C168.951 16.4659 168.269 15.4091 167.212 14.4886C166.167 13.5568 164.758 13.0909 162.985 13.0909C161.417 13.0909 160.042 13.5 158.86 14.3182C157.69 15.125 156.775 16.267 156.116 17.7443C155.468 19.2102 155.144 20.9318 155.144 22.9091C155.144 24.9318 155.462 26.6932 156.099 28.1932C156.746 29.6932 157.656 30.858 158.826 31.6875C160.008 32.517 161.394 32.9318 162.985 32.9318C164.031 32.9318 164.979 32.75 165.832 32.3864C166.684 32.0227 167.406 31.5 167.996 30.8182C168.587 30.1364 169.008 29.3182 169.258 28.3636H173.281C173.053 29.9091 172.491 31.3011 171.593 32.5398C170.707 33.767 169.531 34.7443 168.065 35.4716C166.61 36.1875 164.917 36.5455 162.985 36.5455ZM175.801 36V9.81818H179.824V36H175.801ZM177.847 5.45455C177.063 5.45455 176.386 5.1875 175.818 4.65341C175.261 4.11932 174.983 3.47727 174.983 2.72727C174.983 1.97727 175.261 1.33523 175.818 0.801135C176.386 0.267045 177.063 0 177.847 0C178.631 0 179.301 0.267045 179.858 0.801135C180.426 1.33523 180.71 1.97727 180.71 2.72727C180.71 3.47727 180.426 4.11932 179.858 4.65341C179.301 5.1875 178.631 5.45455 177.847 5.45455ZM195.218 9.81818V13.2273H181.65V9.81818H195.218ZM185.605 3.54545H189.627V28.5C189.627 29.6364 189.792 30.4886 190.122 31.0568C190.462 31.6136 190.894 31.9886 191.417 32.1818C191.951 32.3636 192.514 32.4545 193.105 32.4545C193.548 32.4545 193.911 32.4318 194.195 32.3864C194.48 32.3295 194.707 32.2841 194.877 32.25L195.695 35.8636C195.423 35.9659 195.042 36.0682 194.553 36.1705C194.065 36.2841 193.445 36.3409 192.695 36.3409C191.559 36.3409 190.445 36.0966 189.355 35.608C188.275 35.1193 187.377 34.375 186.661 33.375C185.957 32.375 185.605 31.1136 185.605 29.5909V3.54545ZM205.614 36.6136C203.955 36.6136 202.449 36.3011 201.097 35.6761C199.745 35.0398 198.671 34.125 197.875 32.9318C197.08 31.7273 196.682 30.2727 196.682 28.5682C196.682 27.0682 196.978 25.8523 197.568 24.9205C198.159 23.9773 198.949 23.2386 199.938 22.7045C200.926 22.1705 202.017 21.7727 203.21 21.5114C204.415 21.2386 205.625 21.0227 206.841 20.8636C208.432 20.6591 209.722 20.5057 210.71 20.4034C211.71 20.2898 212.438 20.1023 212.892 19.8409C213.358 19.5795 213.591 19.125 213.591 18.4773V18.3409C213.591 16.6591 213.131 15.3523 212.21 14.4205C211.301 13.4886 209.921 13.0227 208.068 13.0227C206.148 13.0227 204.642 13.4432 203.551 14.2841C202.46 15.125 201.693 16.0227 201.25 16.9773L197.432 15.6136C198.114 14.0227 199.023 12.7841 200.159 11.8977C201.307 11 202.557 10.375 203.909 10.0227C205.273 9.65909 206.614 9.47727 207.932 9.47727C208.773 9.47727 209.739 9.57955 210.83 9.78409C211.932 9.97727 212.995 10.3807 214.017 10.9943C215.051 11.608 215.909 12.5341 216.591 13.7727C217.273 15.0114 217.614 16.6705 217.614 18.75V36H213.591V32.4545H213.387C213.114 33.0227 212.659 33.6307 212.023 34.2784C211.387 34.9261 210.54 35.4773 209.483 35.9318C208.426 36.3864 207.137 36.6136 205.614 36.6136ZM206.228 33C207.818 33 209.159 32.6875 210.25 32.0625C211.353 31.4375 212.182 30.6307 212.739 29.642C213.307 28.6534 213.591 27.6136 213.591 26.5227V22.8409C213.421 23.0455 213.046 23.233 212.466 23.4034C211.898 23.5625 211.239 23.7045 210.489 23.8295C209.75 23.9432 209.029 24.0455 208.324 24.1364C207.631 24.2159 207.068 24.2841 206.637 24.3409C205.591 24.4773 204.614 24.6989 203.705 25.0057C202.807 25.3011 202.08 25.75 201.523 26.3523C200.978 26.9432 200.705 27.75 200.705 28.7727C200.705 30.1705 201.222 31.2273 202.256 31.9432C203.301 32.6477 204.625 33 206.228 33ZM232.233 36.5455C229.778 36.5455 227.664 35.9659 225.892 34.8068C224.119 33.6477 222.755 32.0511 221.801 30.017C220.846 27.983 220.369 25.6591 220.369 23.0455C220.369 20.3864 220.858 18.0398 221.835 16.0057C222.823 13.9602 224.198 12.3636 225.96 11.2159C227.733 10.0568 229.801 9.47727 232.164 9.47727C234.005 9.47727 235.664 9.81818 237.142 10.5C238.619 11.1818 239.829 12.1364 240.772 13.3636C241.716 14.5909 242.301 16.0227 242.528 17.6591H238.505C238.198 16.4659 237.517 15.4091 236.46 14.4886C235.414 13.5568 234.005 13.0909 232.233 13.0909C230.664 13.0909 229.289 13.5 228.108 14.3182C226.937 15.125 226.022 16.267 225.363 17.7443C224.716 19.2102 224.392 20.9318 224.392 22.9091C224.392 24.9318 224.71 26.6932 225.346 28.1932C225.994 29.6932 226.903 30.858 228.073 31.6875C229.255 32.517 230.642 32.9318 232.233 32.9318C233.278 32.9318 234.227 32.75 235.079 32.3864C235.931 32.0227 236.653 31.5 237.244 30.8182C237.835 30.1364 238.255 29.3182 238.505 28.3636H242.528C242.301 29.9091 241.738 31.3011 240.841 32.5398C239.954 33.767 238.778 34.7443 237.312 35.4716C235.858 36.1875 234.164 36.5455 232.233 36.5455ZM230.323 35.8636H233.664L233.392 37.2273C234.278 37.3636 235.091 37.733 235.829 38.3352C236.568 38.9489 236.937 39.9205 236.937 41.25C236.937 42.7159 236.329 43.9091 235.113 44.8295C233.909 45.7614 232.13 46.2273 229.778 46.2273L229.642 43.5682C230.698 43.5682 231.573 43.3977 232.267 43.0568C232.971 42.7273 233.323 42.1705 233.323 41.3864C233.323 40.6023 233.034 40.0682 232.454 39.7841C231.875 39.5 230.937 39.3068 229.642 39.2045L230.323 35.8636ZM252.753 36.6136C251.094 36.6136 249.588 36.3011 248.236 35.6761C246.884 35.0398 245.81 34.125 245.015 32.9318C244.219 31.7273 243.821 30.2727 243.821 28.5682C243.821 27.0682 244.117 25.8523 244.708 24.9205C245.299 23.9773 246.088 23.2386 247.077 22.7045C248.066 22.1705 249.157 21.7727 250.35 21.5114C251.554 21.2386 252.765 21.0227 253.981 20.8636C255.571 20.6591 256.861 20.5057 257.85 20.4034C258.85 20.2898 259.577 20.1023 260.032 19.8409C260.498 19.5795 260.731 19.125 260.731 18.4773V18.3409C260.731 16.6591 260.27 15.3523 259.35 14.4205C258.441 13.4886 257.06 13.0227 255.208 13.0227C253.287 13.0227 251.782 13.4432 250.691 14.2841C249.6 15.125 248.833 16.0227 248.39 16.9773L244.571 15.6136C245.253 14.0227 246.162 12.7841 247.299 11.8977C248.446 11 249.696 10.375 251.049 10.0227C252.412 9.65909 253.753 9.47727 255.071 9.47727C255.912 9.47727 256.878 9.57955 257.969 9.78409C259.071 9.97727 260.134 10.3807 261.157 10.9943C262.191 11.608 263.049 12.5341 263.731 13.7727C264.412 15.0114 264.753 16.6705 264.753 18.75V36H260.731V32.4545H260.526C260.253 33.0227 259.799 33.6307 259.162 34.2784C258.526 34.9261 257.679 35.4773 256.623 35.9318C255.566 36.3864 254.276 36.6136 252.753 36.6136ZM253.367 33C254.958 33 256.299 32.6875 257.39 32.0625C258.492 31.4375 259.321 30.6307 259.878 29.642C260.446 28.6534 260.731 27.6136 260.731 26.5227V22.8409C260.56 23.0455 260.185 23.233 259.606 23.4034C259.037 23.5625 258.378 23.7045 257.628 23.8295C256.89 23.9432 256.168 24.0455 255.463 24.1364C254.77 24.2159 254.208 24.2841 253.776 24.3409C252.731 24.4773 251.753 24.6989 250.844 25.0057C249.946 25.3011 249.219 25.75 248.662 26.3523C248.117 26.9432 247.844 27.75 247.844 28.7727C247.844 30.1705 248.361 31.2273 249.395 31.9432C250.441 32.6477 251.765 33 253.367 33ZM250.094 6.68182L246.958 6.54545C246.958 4.80682 247.452 3.38636 248.441 2.28409C249.441 1.17045 250.674 0.613635 252.14 0.613635C252.787 0.613635 253.361 0.727271 253.861 0.954543C254.361 1.17045 254.838 1.42045 255.293 1.70454C255.748 1.98864 256.213 2.24432 256.691 2.47159C257.179 2.6875 257.731 2.79545 258.344 2.79545C258.992 2.79545 259.537 2.54545 259.981 2.04545C260.435 1.53409 260.662 0.920453 260.662 0.204543L263.731 0.477273C263.731 2.25 263.231 3.65909 262.231 4.70454C261.242 5.75 260.015 6.27273 258.549 6.27273C257.765 6.27273 257.117 6.16477 256.606 5.94886C256.094 5.72159 255.64 5.46591 255.242 5.18182C254.844 4.89773 254.424 4.64773 253.981 4.43182C253.537 4.20454 252.992 4.09091 252.344 4.09091C251.696 4.09091 251.157 4.34659 250.725 4.85795C250.304 5.35795 250.094 5.96591 250.094 6.68182ZM279.372 36.5455C277.008 36.5455 274.934 35.983 273.15 34.858C271.378 33.733 269.991 32.1591 268.991 30.1364C268.003 28.1136 267.508 25.75 267.508 23.0455C267.508 20.3182 268.003 17.9375 268.991 15.9034C269.991 13.8693 271.378 12.2898 273.15 11.1648C274.934 10.0398 277.008 9.47727 279.372 9.47727C281.736 9.47727 283.804 10.0398 285.576 11.1648C287.361 12.2898 288.747 13.8693 289.736 15.9034C290.736 17.9375 291.236 20.3182 291.236 23.0455C291.236 25.75 290.736 28.1136 289.736 30.1364C288.747 32.1591 287.361 33.733 285.576 34.858C283.804 35.983 281.736 36.5455 279.372 36.5455ZM279.372 32.9318C281.167 32.9318 282.645 32.4716 283.804 31.5511C284.963 30.6307 285.821 29.4205 286.378 27.9205C286.934 26.4205 287.213 24.7955 287.213 23.0455C287.213 21.2955 286.934 19.6648 286.378 18.1534C285.821 16.642 284.963 15.4205 283.804 14.4886C282.645 13.5568 281.167 13.0909 279.372 13.0909C277.576 13.0909 276.099 13.5568 274.94 14.4886C273.781 15.4205 272.923 16.642 272.366 18.1534C271.809 19.6648 271.531 21.2955 271.531 23.0455C271.531 24.7955 271.809 26.4205 272.366 27.9205C272.923 29.4205 273.781 30.6307 274.94 31.5511C276.099 32.4716 277.576 32.9318 279.372 32.9318ZM13.5682 94.5455C11.3864 94.5455 9.46023 93.9943 7.78977 92.892C6.11932 91.7784 4.8125 90.2102 3.86932 88.1875C2.92614 86.1534 2.45455 83.75 2.45455 80.9773C2.45455 78.2273 2.92614 75.8409 3.86932 73.8182C4.8125 71.7955 6.125 70.233 7.80682 69.1307C9.48864 68.0284 11.4318 67.4773 13.6364 67.4773C15.3409 67.4773 16.6875 67.7614 17.6761 68.3295C18.6761 68.8864 19.4375 69.5227 19.9602 70.2386C20.4943 70.9432 20.9091 71.5227 21.2045 71.9773H21.5455V59.0909H25.5682V94H21.6818V89.9773H21.2045C20.9091 90.4545 20.4886 91.0568 19.9432 91.7841C19.3977 92.5 18.6193 93.142 17.608 93.7102C16.5966 94.267 15.25 94.5455 13.5682 94.5455ZM14.1136 90.9318C15.7273 90.9318 17.0909 90.5114 18.2045 89.6705C19.3182 88.8182 20.1648 87.642 20.7443 86.142C21.3239 84.6307 21.6136 82.8864 21.6136 80.9091C21.6136 78.9545 21.3295 77.2443 20.7614 75.7784C20.1932 74.3011 19.3523 73.1534 18.2386 72.3352C17.125 71.5057 15.75 71.0909 14.1136 71.0909C12.4091 71.0909 10.9886 71.5284 9.85227 72.4034C8.72727 73.267 7.88068 74.4432 7.3125 75.9318C6.75568 77.4091 6.47727 79.0682 6.47727 80.9091C6.47727 82.7727 6.76136 84.4659 7.32955 85.9886C7.90909 87.5 8.76136 88.7045 9.88636 89.6023C11.0227 90.4886 12.4318 90.9318 14.1136 90.9318ZM41.1116 94.5455C38.5889 94.5455 36.4127 93.9886 34.5832 92.875C32.765 91.75 31.3616 90.1818 30.373 88.1705C29.3957 86.1477 28.907 83.7955 28.907 81.1136C28.907 78.4318 29.3957 76.0682 30.373 74.0227C31.3616 71.9659 32.7366 70.3636 34.498 69.2159C36.2707 68.0568 38.3389 67.4773 40.7025 67.4773C42.0661 67.4773 43.4127 67.7045 44.7423 68.1591C46.0718 68.6136 47.282 69.3523 48.373 70.375C49.4639 71.3864 50.3332 72.7273 50.9809 74.3977C51.6286 76.0682 51.9525 78.125 51.9525 80.5682V82.2727H31.7707V78.7955H47.8616C47.8616 77.3182 47.5661 76 46.9752 74.8409C46.3957 73.6818 45.5661 72.767 44.4866 72.0966C43.4184 71.4261 42.157 71.0909 40.7025 71.0909C39.1002 71.0909 37.7139 71.4886 36.5434 72.2841C35.3843 73.0682 34.4923 74.0909 33.8673 75.3523C33.2423 76.6136 32.9298 77.9659 32.9298 79.4091V81.7273C32.9298 83.7045 33.2707 85.3807 33.9525 86.7557C34.6457 88.1193 35.6059 89.1591 36.8332 89.875C38.0605 90.5795 39.4866 90.9318 41.1116 90.9318C42.1684 90.9318 43.123 90.7841 43.9752 90.4886C44.8389 90.1818 45.5832 89.7273 46.2082 89.125C46.8332 88.5114 47.3161 87.75 47.657 86.8409L51.5434 87.9318C51.1343 89.25 50.4468 90.4091 49.4809 91.4091C48.515 92.3977 47.3218 93.1705 45.9014 93.7273C44.4809 94.2727 42.8843 94.5455 41.1116 94.5455ZM83.3973 73.6818L79.7836 74.7045C79.5564 74.1023 79.2211 73.517 78.778 72.9489C78.3461 72.3693 77.7552 71.892 77.0052 71.517C76.2552 71.142 75.295 70.9545 74.1245 70.9545C72.5223 70.9545 71.187 71.3239 70.1189 72.0625C69.062 72.7898 68.5336 73.7159 68.5336 74.8409C68.5336 75.8409 68.8973 76.6307 69.6245 77.2102C70.3518 77.7898 71.4882 78.2727 73.0336 78.6591L76.92 79.6136C79.2609 80.1818 81.0052 81.0511 82.153 82.2216C83.3007 83.3807 83.8745 84.875 83.8745 86.7045C83.8745 88.2045 83.4427 89.5455 82.5791 90.7273C81.7268 91.9091 80.5336 92.8409 78.9995 93.5227C77.4655 94.2045 75.6814 94.5455 73.6473 94.5455C70.9768 94.5455 68.7666 93.9659 67.0166 92.8068C65.2666 91.6477 64.1586 89.9545 63.6927 87.7273L67.5109 86.7727C67.8745 88.1818 68.562 89.2386 69.5734 89.9432C70.5961 90.6477 71.9314 91 73.5791 91C75.4541 91 76.9427 90.6023 78.045 89.8068C79.1586 89 79.7155 88.0341 79.7155 86.9091C79.7155 86 79.3973 85.2386 78.7609 84.625C78.1245 84 77.1473 83.5341 75.8291 83.2273L71.4655 82.2045C69.0677 81.6364 67.3064 80.7557 66.1814 79.5625C65.0677 78.358 64.5109 76.8523 64.5109 75.0455C64.5109 73.5682 64.9257 72.2614 65.7552 71.125C66.5961 69.9886 67.7382 69.0966 69.1814 68.4489C70.6359 67.8011 72.2836 67.4773 74.1245 67.4773C76.7155 67.4773 78.7495 68.0455 80.2268 69.1818C81.7155 70.3182 82.7723 71.8182 83.3973 73.6818ZM94.2745 94.6136C92.6154 94.6136 91.1097 94.3011 89.7574 93.6761C88.4052 93.0398 87.3313 92.125 86.5358 90.9318C85.7404 89.7273 85.3427 88.2727 85.3427 86.5682C85.3427 85.0682 85.6381 83.8523 86.229 82.9205C86.8199 81.9773 87.6097 81.2386 88.5983 80.7045C89.587 80.1705 90.6779 79.7727 91.8711 79.5114C93.0756 79.2386 94.2859 79.0227 95.5018 78.8636C97.0927 78.6591 98.3824 78.5057 99.3711 78.4034C100.371 78.2898 101.098 78.1023 101.553 77.8409C102.019 77.5795 102.252 77.125 102.252 76.4773V76.3409C102.252 74.6591 101.792 73.3523 100.871 72.4205C99.962 71.4886 98.5813 71.0227 96.729 71.0227C94.8086 71.0227 93.3029 71.4432 92.212 72.2841C91.1211 73.125 90.354 74.0227 89.9109 74.9773L86.0927 73.6136C86.7745 72.0227 87.6836 70.7841 88.8199 69.8977C89.9677 69 91.2177 68.375 92.5699 68.0227C93.9336 67.6591 95.2745 67.4773 96.5927 67.4773C97.4336 67.4773 98.3995 67.5795 99.4904 67.7841C100.593 67.9773 101.655 68.3807 102.678 68.9943C103.712 69.608 104.57 70.5341 105.252 71.7727C105.934 73.0114 106.274 74.6705 106.274 76.75V94H102.252V90.4545H102.047C101.774 91.0227 101.32 91.6307 100.684 92.2784C100.047 92.9261 99.2006 93.4773 98.1438 93.9318C97.087 94.3864 95.7972 94.6136 94.2745 94.6136ZM94.8881 91C96.479 91 97.8199 90.6875 98.9109 90.0625C100.013 89.4375 100.843 88.6307 101.399 87.642C101.968 86.6534 102.252 85.6136 102.252 84.5227V80.8409C102.081 81.0455 101.706 81.233 101.127 81.4034C100.559 81.5625 99.8995 81.7045 99.1495 81.8295C98.4109 81.9432 97.6893 82.0455 96.9847 82.1364C96.2915 82.2159 95.729 82.2841 95.2972 82.3409C94.2518 82.4773 93.2745 82.6989 92.3654 83.0057C91.4677 83.3011 90.7404 83.75 90.1836 84.3523C89.6381 84.9432 89.3654 85.75 89.3654 86.7727C89.3654 88.1705 89.8824 89.2273 90.9165 89.9432C91.962 90.6477 93.2859 91 94.8881 91ZM128.12 103.818V89.9773H127.78C127.484 90.4545 127.064 91.0568 126.518 91.7841C125.973 92.5 125.194 93.142 124.183 93.7102C123.172 94.267 121.825 94.5455 120.143 94.5455C117.961 94.5455 116.035 93.9943 114.365 92.892C112.694 91.7784 111.387 90.2102 110.444 88.1875C109.501 86.1534 109.03 83.75 109.03 80.9773C109.03 78.2273 109.501 75.8409 110.444 73.8182C111.387 71.7955 112.7 70.233 114.382 69.1307C116.064 68.0284 118.007 67.4773 120.211 67.4773C121.916 67.4773 123.262 67.7614 124.251 68.3295C125.251 68.8864 126.012 69.5227 126.535 70.2386C127.069 70.9432 127.484 71.5227 127.78 71.9773H128.257V67.8182H132.143V103.818H128.12ZM120.689 90.9318C122.302 90.9318 123.666 90.5114 124.78 89.6705C125.893 88.8182 126.74 87.642 127.319 86.142C127.899 84.6307 128.189 82.8864 128.189 80.9091C128.189 78.9545 127.905 77.2443 127.336 75.7784C126.768 74.3011 125.927 73.1534 124.814 72.3352C123.7 71.5057 122.325 71.0909 120.689 71.0909C118.984 71.0909 117.564 71.5284 116.427 72.4034C115.302 73.267 114.456 74.4432 113.887 75.9318C113.331 77.4091 113.052 79.0682 113.052 80.9091C113.052 82.7727 113.336 84.4659 113.905 85.9886C114.484 87.5 115.336 88.7045 116.461 89.6023C117.598 90.4886 119.007 90.9318 120.689 90.9318ZM152.647 83.2955V67.8182H156.67V94H152.647V89.5682H152.374C151.76 90.8977 150.806 92.0284 149.51 92.9602C148.215 93.8807 146.579 94.3409 144.601 94.3409C142.965 94.3409 141.51 93.983 140.238 93.267C138.965 92.5398 137.965 91.4489 137.238 89.9943C136.51 88.5284 136.147 86.6818 136.147 84.4545V67.8182H140.17V84.1818C140.17 86.0909 140.704 87.6136 141.772 88.75C142.851 89.8864 144.226 90.4545 145.897 90.4545C146.897 90.4545 147.914 90.1989 148.948 89.6875C149.993 89.1761 150.868 88.392 151.573 87.3352C152.289 86.2784 152.647 84.9318 152.647 83.2955ZM171.655 94.5455C169.132 94.5455 166.956 93.9886 165.126 92.875C163.308 91.75 161.905 90.1818 160.916 88.1705C159.939 86.1477 159.45 83.7955 159.45 81.1136C159.45 78.4318 159.939 76.0682 160.916 74.0227C161.905 71.9659 163.28 70.3636 165.041 69.2159C166.814 68.0568 168.882 67.4773 171.246 67.4773C172.609 67.4773 173.956 67.7045 175.285 68.1591C176.615 68.6136 177.825 69.3523 178.916 70.375C180.007 71.3864 180.876 72.7273 181.524 74.3977C182.172 76.0682 182.496 78.125 182.496 80.5682V82.2727H162.314V78.7955H178.405C178.405 77.3182 178.109 76 177.518 74.8409C176.939 73.6818 176.109 72.767 175.03 72.0966C173.962 71.4261 172.7 71.0909 171.246 71.0909C169.643 71.0909 168.257 71.4886 167.087 72.2841C165.927 73.0682 165.035 74.0909 164.41 75.3523C163.785 76.6136 163.473 77.9659 163.473 79.4091V81.7273C163.473 83.7045 163.814 85.3807 164.496 86.7557C165.189 88.1193 166.149 89.1591 167.376 89.875C168.604 90.5795 170.03 90.9318 171.655 90.9318C172.712 90.9318 173.666 90.7841 174.518 90.4886C175.382 90.1818 176.126 89.7273 176.751 89.125C177.376 88.5114 177.859 87.75 178.2 86.8409L182.087 87.9318C181.677 89.25 180.99 90.4091 180.024 91.4091C179.058 92.3977 177.865 93.1705 176.444 93.7273C175.024 94.2727 173.427 94.5455 171.655 94.5455ZM207.054 67.8182V71.2273H192.94V67.8182H207.054ZM197.168 94V64.2045C197.168 62.7045 197.52 61.4545 198.224 60.4545C198.929 59.4545 199.844 58.7045 200.969 58.2045C202.094 57.7045 203.281 57.4545 204.531 57.4545C205.52 57.4545 206.327 57.5341 206.952 57.6932C207.577 57.8523 208.043 58 208.349 58.1364L207.19 61.6136C206.986 61.5455 206.702 61.4602 206.338 61.358C205.986 61.2557 205.52 61.2045 204.94 61.2045C203.611 61.2045 202.651 61.5398 202.06 62.2102C201.48 62.8807 201.19 63.8636 201.19 65.1591V94H197.168ZM218.89 94.5455C216.526 94.5455 214.453 93.983 212.668 92.858C210.896 91.733 209.509 90.1591 208.509 88.1364C207.521 86.1136 207.026 83.75 207.026 81.0455C207.026 78.3182 207.521 75.9375 208.509 73.9034C209.509 71.8693 210.896 70.2898 212.668 69.1648C214.453 68.0398 216.526 67.4773 218.89 67.4773C221.254 67.4773 223.322 68.0398 225.095 69.1648C226.879 70.2898 228.265 71.8693 229.254 73.9034C230.254 75.9375 230.754 78.3182 230.754 81.0455C230.754 83.75 230.254 86.1136 229.254 88.1364C228.265 90.1591 226.879 91.733 225.095 92.858C223.322 93.983 221.254 94.5455 218.89 94.5455ZM218.89 90.9318C220.686 90.9318 222.163 90.4716 223.322 89.5511C224.481 88.6307 225.339 87.4205 225.896 85.9205C226.453 84.4205 226.731 82.7955 226.731 81.0455C226.731 79.2955 226.453 77.6648 225.896 76.1534C225.339 74.642 224.481 73.4205 223.322 72.4886C222.163 71.5568 220.686 71.0909 218.89 71.0909C217.095 71.0909 215.617 71.5568 214.458 72.4886C213.299 73.4205 212.441 74.642 211.884 76.1534C211.328 77.6648 211.049 79.2955 211.049 81.0455C211.049 82.7955 211.328 84.4205 211.884 85.9205C212.441 87.4205 213.299 88.6307 214.458 89.5511C215.617 90.4716 217.095 90.9318 218.89 90.9318ZM233.534 94V67.8182H237.557V94H233.534ZM235.58 63.4545C234.796 63.4545 234.12 63.1875 233.551 62.6534C232.995 62.1193 232.716 61.4773 232.716 60.7273C232.716 59.9773 232.995 59.3352 233.551 58.8011C234.12 58.267 234.796 58 235.58 58C236.364 58 237.034 58.267 237.591 58.8011C238.159 59.3352 238.443 59.9773 238.443 60.7273C238.443 61.4773 238.159 62.1193 237.591 62.6534C237.034 63.1875 236.364 63.4545 235.58 63.4545ZM14.3182 152.545C11.8636 152.545 9.75 151.966 7.97727 150.807C6.20455 149.648 4.84091 148.051 3.88636 146.017C2.93182 143.983 2.45455 141.659 2.45455 139.045C2.45455 136.386 2.94318 134.04 3.92045 132.006C4.90909 129.96 6.28409 128.364 8.04545 127.216C9.81818 126.057 11.8864 125.477 14.25 125.477C16.0909 125.477 17.75 125.818 19.2273 126.5C20.7045 127.182 21.9148 128.136 22.858 129.364C23.8011 130.591 24.3864 132.023 24.6136 133.659H20.5909C20.2841 132.466 19.6023 131.409 18.5455 130.489C17.5 129.557 16.0909 129.091 14.3182 129.091C12.75 129.091 11.375 129.5 10.1932 130.318C9.02273 131.125 8.10795 132.267 7.44886 133.744C6.80114 135.21 6.47727 136.932 6.47727 138.909C6.47727 140.932 6.79545 142.693 7.43182 144.193C8.07955 145.693 8.98864 146.858 10.1591 147.688C11.3409 148.517 12.7273 148.932 14.3182 148.932C15.3636 148.932 16.3125 148.75 17.1648 148.386C18.017 148.023 18.7386 147.5 19.3295 146.818C19.9205 146.136 20.3409 145.318 20.5909 144.364H24.6136C24.3864 145.909 23.8239 147.301 22.9261 148.54C22.0398 149.767 20.8636 150.744 19.3977 151.472C17.9432 152.188 16.25 152.545 14.3182 152.545ZM37.7707 152.545C35.407 152.545 33.3332 151.983 31.5491 150.858C29.7764 149.733 28.39 148.159 27.39 146.136C26.4014 144.114 25.907 141.75 25.907 139.045C25.907 136.318 26.4014 133.937 27.39 131.903C28.39 129.869 29.7764 128.29 31.5491 127.165C33.3332 126.04 35.407 125.477 37.7707 125.477C40.1343 125.477 42.2025 126.04 43.9752 127.165C45.7593 128.29 47.1457 129.869 48.1343 131.903C49.1343 133.937 49.6343 136.318 49.6343 139.045C49.6343 141.75 49.1343 144.114 48.1343 146.136C47.1457 148.159 45.7593 149.733 43.9752 150.858C42.2025 151.983 40.1343 152.545 37.7707 152.545ZM37.7707 148.932C39.5661 148.932 41.0434 148.472 42.2025 147.551C43.3616 146.631 44.2195 145.42 44.7764 143.92C45.3332 142.42 45.6116 140.795 45.6116 139.045C45.6116 137.295 45.3332 135.665 44.7764 134.153C44.2195 132.642 43.3616 131.42 42.2025 130.489C41.0434 129.557 39.5661 129.091 37.7707 129.091C35.9752 129.091 34.498 129.557 33.3389 130.489C32.1798 131.42 31.3218 132.642 30.765 134.153C30.2082 135.665 29.9298 137.295 29.9298 139.045C29.9298 140.795 30.2082 142.42 30.765 143.92C31.3218 145.42 32.1798 146.631 33.3389 147.551C34.498 148.472 35.9752 148.932 37.7707 148.932ZM56.4377 136.25V152H52.4149V125.818H56.3013V129.909H56.6422C57.2559 128.58 58.1877 127.511 59.4377 126.705C60.6877 125.886 62.3013 125.477 64.2786 125.477C66.0513 125.477 67.6024 125.841 68.932 126.568C70.2615 127.284 71.2956 128.375 72.0343 129.841C72.7729 131.295 73.1422 133.136 73.1422 135.364V152H69.1195V135.636C69.1195 133.58 68.5854 131.977 67.5172 130.83C66.449 129.67 64.9831 129.091 63.1195 129.091C61.8354 129.091 60.6877 129.369 59.6763 129.926C58.6763 130.483 57.8865 131.295 57.307 132.364C56.7274 133.432 56.4377 134.727 56.4377 136.25ZM87.7694 152.545C85.3149 152.545 83.2012 151.966 81.4285 150.807C79.6558 149.648 78.2922 148.051 77.3376 146.017C76.3831 143.983 75.9058 141.659 75.9058 139.045C75.9058 136.386 76.3944 134.04 77.3717 132.006C78.3603 129.96 79.7353 128.364 81.4967 127.216C83.2694 126.057 85.3376 125.477 87.7012 125.477C89.5422 125.477 91.2012 125.818 92.6785 126.5C94.1558 127.182 95.366 128.136 96.3092 129.364C97.2524 130.591 97.8376 132.023 98.0649 133.659H94.0422C93.7353 132.466 93.0535 131.409 91.9967 130.489C90.9512 129.557 89.5422 129.091 87.7694 129.091C86.2012 129.091 84.8262 129.5 83.6444 130.318C82.474 131.125 81.5592 132.267 80.9001 133.744C80.2524 135.21 79.9285 136.932 79.9285 138.909C79.9285 140.932 80.2467 142.693 80.8831 144.193C81.5308 145.693 82.4399 146.858 83.6103 147.688C84.7922 148.517 86.1785 148.932 87.7694 148.932C88.8149 148.932 89.7637 148.75 90.616 148.386C91.4683 148.023 92.1899 147.5 92.7808 146.818C93.3717 146.136 93.7922 145.318 94.0422 144.364H98.0649C97.8376 145.909 97.2751 147.301 96.3774 148.54C95.491 149.767 94.3149 150.744 92.849 151.472C91.3944 152.188 89.7012 152.545 87.7694 152.545ZM104.608 117.091V152H100.586V117.091H104.608ZM125.116 141.295V125.818H129.139V152H125.116V147.568H124.843C124.23 148.898 123.275 150.028 121.98 150.96C120.684 151.881 119.048 152.341 117.071 152.341C115.434 152.341 113.98 151.983 112.707 151.267C111.434 150.54 110.434 149.449 109.707 147.994C108.98 146.528 108.616 144.682 108.616 142.455V125.818H112.639V142.182C112.639 144.091 113.173 145.614 114.241 146.75C115.321 147.886 116.696 148.455 118.366 148.455C119.366 148.455 120.383 148.199 121.417 147.688C122.463 147.176 123.338 146.392 124.042 145.335C124.758 144.278 125.116 142.932 125.116 141.295ZM133.147 152V125.818H137.17V152H133.147ZM133.351 122.273L137.51 114.364H142.215L136.897 122.273H133.351ZM151.064 152.545C148.882 152.545 146.956 151.994 145.285 150.892C143.615 149.778 142.308 148.21 141.365 146.188C140.422 144.153 139.95 141.75 139.95 138.977C139.95 136.227 140.422 133.841 141.365 131.818C142.308 129.795 143.621 128.233 145.302 127.131C146.984 126.028 148.927 125.477 151.132 125.477C152.837 125.477 154.183 125.761 155.172 126.33C156.172 126.886 156.933 127.523 157.456 128.239C157.99 128.943 158.405 129.523 158.7 129.977H159.041V117.091H163.064V152H159.177V147.977H158.7C158.405 148.455 157.984 149.057 157.439 149.784C156.893 150.5 156.115 151.142 155.104 151.71C154.092 152.267 152.746 152.545 151.064 152.545ZM151.609 148.932C153.223 148.932 154.587 148.511 155.7 147.67C156.814 146.818 157.66 145.642 158.24 144.142C158.819 142.631 159.109 140.886 159.109 138.909C159.109 136.955 158.825 135.244 158.257 133.778C157.689 132.301 156.848 131.153 155.734 130.335C154.621 129.506 153.246 129.091 151.609 129.091C149.905 129.091 148.484 129.528 147.348 130.403C146.223 131.267 145.376 132.443 144.808 133.932C144.251 135.409 143.973 137.068 143.973 138.909C143.973 140.773 144.257 142.466 144.825 143.989C145.405 145.5 146.257 146.705 147.382 147.602C148.518 148.489 149.927 148.932 151.609 148.932ZM175.334 152.614C173.675 152.614 172.17 152.301 170.817 151.676C169.465 151.04 168.391 150.125 167.596 148.932C166.8 147.727 166.403 146.273 166.403 144.568C166.403 143.068 166.698 141.852 167.289 140.92C167.88 139.977 168.67 139.239 169.658 138.705C170.647 138.17 171.738 137.773 172.931 137.511C174.136 137.239 175.346 137.023 176.562 136.864C178.153 136.659 179.442 136.506 180.431 136.403C181.431 136.29 182.158 136.102 182.613 135.841C183.079 135.58 183.312 135.125 183.312 134.477V134.341C183.312 132.659 182.852 131.352 181.931 130.42C181.022 129.489 179.641 129.023 177.789 129.023C175.869 129.023 174.363 129.443 173.272 130.284C172.181 131.125 171.414 132.023 170.971 132.977L167.153 131.614C167.834 130.023 168.744 128.784 169.88 127.898C171.028 127 172.278 126.375 173.63 126.023C174.994 125.659 176.334 125.477 177.653 125.477C178.494 125.477 179.459 125.58 180.55 125.784C181.653 125.977 182.715 126.381 183.738 126.994C184.772 127.608 185.63 128.534 186.312 129.773C186.994 131.011 187.334 132.67 187.334 134.75V152H183.312V148.455H183.107C182.834 149.023 182.38 149.631 181.744 150.278C181.107 150.926 180.261 151.477 179.204 151.932C178.147 152.386 176.857 152.614 175.334 152.614ZM175.948 149C177.539 149 178.88 148.688 179.971 148.062C181.073 147.438 181.903 146.631 182.459 145.642C183.028 144.653 183.312 143.614 183.312 142.523V138.841C183.141 139.045 182.766 139.233 182.187 139.403C181.619 139.562 180.959 139.705 180.209 139.83C179.471 139.943 178.749 140.045 178.045 140.136C177.352 140.216 176.789 140.284 176.357 140.341C175.312 140.477 174.334 140.699 173.425 141.006C172.528 141.301 171.8 141.75 171.244 142.352C170.698 142.943 170.425 143.75 170.425 144.773C170.425 146.17 170.942 147.227 171.977 147.943C173.022 148.648 174.346 149 175.948 149ZM194.249 152.273C193.408 152.273 192.686 151.972 192.084 151.369C191.482 150.767 191.18 150.045 191.18 149.205C191.18 148.364 191.482 147.642 192.084 147.04C192.686 146.437 193.408 146.136 194.249 146.136C195.09 146.136 195.811 146.437 196.413 147.04C197.016 147.642 197.317 148.364 197.317 149.205C197.317 149.761 197.175 150.273 196.891 150.739C196.618 151.205 196.249 151.58 195.783 151.864C195.328 152.136 194.817 152.273 194.249 152.273Z" fill="#7575B3"/>
</svg>
