<svg width="48" height="48" viewBox="0 0 48 48" fill="none" xmlns="http://www.w3.org/2000/svg">
<rect width="48" height="48" rx="24" fill="#1313F2"/>
<mask id="mask0_384_3102" style="mask-type:alpha" maskUnits="userSpaceOnUse" x="11" y="11" width="26" height="26">
<rect x="11.478" y="11.478" width="25.0435" height="25.0435" fill="#D9D9D9"/>
</mask>
<g mask="url(#mask0_384_3102)">
<path d="M20.8693 30.2606C20.2954 30.2606 19.8041 30.0562 19.3954 29.6476C18.9867 29.2389 18.7823 28.7476 18.7823 28.1736V15.6519C18.7823 15.078 18.9867 14.5867 19.3954 14.178C19.8041 13.7693 20.2954 13.5649 20.8693 13.5649H30.2606C30.8345 13.5649 31.3258 13.7693 31.7345 14.178C32.1432 14.5867 32.3475 15.078 32.3475 15.6519V28.1736C32.3475 28.7476 32.1432 29.2389 31.7345 29.6476C31.3258 30.0562 30.8345 30.2606 30.2606 30.2606H20.8693ZM20.8693 28.1736H30.2606V15.6519H20.8693V28.1736ZM16.6954 34.4345C16.1214 34.4345 15.6301 34.2302 15.2214 33.8215C14.8127 33.4128 14.6084 32.9215 14.6084 32.3475V17.7389H16.6954V32.3475H28.1736V34.4345H16.6954Z" fill="#E5EBFF"/>
</g>
</svg>
