<svg width="10" height="18" viewBox="0 0 10 18" fill="none" xmlns="http://www.w3.org/2000/svg">
<mask id="mask0_384_3067" style="mask-type:alpha" maskUnits="userSpaceOnUse" x="0" y="0" width="10" height="18">
<rect width="10" height="18" fill="#D9D9D9"/>
</mask>
<g mask="url(#mask0_384_3067)">
<path d="M3.69927 16.4255V14.583C2.81611 14.4116 2.05376 14.0831 1.41222 13.5975C0.770681 13.1119 0.299941 12.4263 0 11.5408L1.84963 10.898C2.09958 11.5836 2.47034 12.1049 2.96191 12.462C3.45348 12.8191 4.09919 12.9976 4.89903 12.9976C5.58223 12.9976 6.16128 12.8655 6.63619 12.6013C7.11109 12.337 7.34854 11.9264 7.34854 11.3694C7.34854 10.8695 7.16525 10.4731 6.79865 10.1803C6.43206 9.88752 5.58223 9.55545 4.24916 9.18409C2.81611 8.79845 1.83297 8.33783 1.29974 7.80222C0.766515 7.26662 0.499901 6.61317 0.499901 5.8419C0.499901 4.91351 0.849832 4.19222 1.54969 3.67804C2.24955 3.16386 2.96608 2.87106 3.69927 2.79964V1H5.69887V2.79964C6.53204 2.91391 7.2194 3.17457 7.76096 3.58163C8.30252 3.98869 8.69828 4.48502 8.94823 5.07062L7.09859 5.7562C6.89863 5.29915 6.61536 4.95636 6.24876 4.72783C5.88217 4.49931 5.38227 4.38504 4.74906 4.38504C4.01587 4.38504 3.45765 4.5243 3.07439 4.80282C2.69113 5.08133 2.4995 5.42769 2.4995 5.8419C2.4995 6.31323 2.74946 6.68459 3.24936 6.95596C3.74926 7.22734 4.61575 7.513 5.84884 7.81294C6.99861 8.09859 7.86927 8.55207 8.46082 9.17338C9.05237 9.79469 9.34815 10.5124 9.34815 11.3265C9.34815 12.3406 8.99822 13.1119 8.29836 13.6404C7.59849 14.1688 6.732 14.4973 5.69887 14.6259V16.4255H3.69927Z" fill="#5B5B5B"/>
</g>
</svg>
