<svg width="21" height="18" viewBox="0 0 21 18" fill="none" xmlns="http://www.w3.org/2000/svg">
<mask id="mask0_384_3087" style="mask-type:alpha" maskUnits="userSpaceOnUse" x="0" y="0" width="21" height="18">
<rect width="21" height="18" fill="#D9D9D9"/>
</mask>
<g mask="url(#mask0_384_3087)">
<path d="M11.375 15.75V14.25H15.4L11.375 10.8V8.7L16.625 13.2V9.75H18.375V15.75H11.375ZM5.25 12.75V12H2.625V10.5H7.875V8.25H4.375C3.89375 8.25 3.48177 8.10313 3.13906 7.80937C2.79635 7.51562 2.625 7.1625 2.625 6.75V4.5C2.625 4.0875 2.79635 3.73438 3.13906 3.44062C3.48177 3.14687 3.89375 3 4.375 3H5.25V2.25H7V3H9.625V4.5H4.375V6.75H7.875C8.35625 6.75 8.76823 6.89687 9.11094 7.19063C9.45365 7.48438 9.625 7.8375 9.625 8.25V10.5C9.625 10.9125 9.45365 11.2656 9.11094 11.5594C8.76823 11.8531 8.35625 12 7.875 12H7V12.75H5.25Z" fill="#1C1B1F"/>
</g>
</svg>
