<svg width="16" height="20" viewBox="0 0 16 20" fill="none" xmlns="http://www.w3.org/2000/svg">
<path d="M7 16H9V15H10C10.2833 15 10.5208 14.9042 10.7125 14.7125C10.9042 14.5208 11 14.2833 11 14V11C11 10.7167 10.9042 10.4792 10.7125 10.2875C10.5208 10.0958 10.2833 10 10 10H7V9H11V7H9V6H7V7H6C5.71667 7 5.47917 7.09583 5.2875 7.2875C5.09583 7.47917 5 7.71667 5 8V11C5 11.2833 5.09583 11.5208 5.2875 11.7125C5.47917 11.9042 5.71667 12 6 12H9V13H5V15H7V16ZM2 20C1.45 20 0.979167 19.8042 0.5875 19.4125C0.195833 19.0208 0 18.55 0 18V2C0 1.45 0.195833 0.979167 0.5875 0.5875C0.979167 0.195833 1.45 0 2 0H10L16 6V18C16 18.55 15.8042 19.0208 15.4125 19.4125C15.0208 19.8042 14.55 20 14 20H2ZM2 18H14V6.85L9.15 2H2V18Z" fill="#5B5B5B"/>
</svg>
