<svg width="20" height="19" viewBox="0 0 20 19" fill="none" xmlns="http://www.w3.org/2000/svg">
<path d="M8.92069 10.3426C9.31668 9.9576 9.95871 9.9576 10.3547 10.3426L13.5976 13.4953C13.9936 13.8803 13.9936 14.5045 13.5976 14.8895L11.0717 17.3452C10.2797 18.1151 8.99567 18.1151 8.20369 17.3452L5.67779 14.8895C5.2818 14.5045 5.2818 13.8803 5.67779 13.4953L8.92069 10.3426Z" fill="#F9FAFC"/>
<path d="M8.20369 1.39414C8.99567 0.624179 10.2797 0.624178 11.0717 1.39414L13.5976 3.84982C13.9936 4.2348 13.9936 4.85898 13.5976 5.24396L10.3547 8.39672C9.95871 8.7817 9.31668 8.7817 8.92069 8.39672L5.67779 5.24397C5.2818 4.85898 5.2818 4.23481 5.67779 3.84982L8.20369 1.39414Z" fill="#F9FAFC"/>
<path d="M17.8409 7.97549C18.6329 8.74545 18.6329 9.99381 17.8409 10.7638L15.315 13.2195C14.919 13.6044 14.277 13.6044 13.881 13.2195L10.6381 10.0667C10.2421 9.68172 10.2421 9.05754 10.6381 8.67256L13.881 5.51981C14.277 5.13482 14.919 5.13482 15.315 5.5198L17.8409 7.97549Z" fill="#F9FAFC"/>
<path d="M8.637 8.67256C9.03299 9.05754 9.03299 9.68172 8.637 10.0667L5.3941 13.2195C4.99811 13.6044 4.35608 13.6044 3.96009 13.2195L1.43419 10.7638C0.642207 9.99381 0.642205 8.74545 1.43418 7.97549L3.96009 5.51981C4.35608 5.13482 4.9981 5.13482 5.39409 5.5198L8.637 8.67256Z" fill="#F9FAFC"/>
</svg>
