<svg width="9" height="17" viewBox="0 0 9 17" fill="none" xmlns="http://www.w3.org/2000/svg">
<path d="M3.475 16.9001V14.9001C2.625 14.7168 1.89583 14.3334 1.2875 13.7501C0.679167 13.1668 0.25 12.4418 0 11.5751L1.85 10.8251C1.98333 11.4251 2.32083 11.9626 2.8625 12.4376C3.40417 12.9126 3.96667 13.1501 4.55 13.1501C5.2 13.1501 5.73333 12.9834 6.15 12.6501C6.56667 12.3168 6.775 11.8834 6.775 11.3501C6.775 10.8501 6.5875 10.4334 6.2125 10.1001C5.8375 9.76676 5.175 9.43343 4.225 9.1001C2.925 8.63343 1.975 8.12093 1.375 7.5626C0.775 7.00426 0.475 6.28343 0.475 5.4001C0.475 4.56676 0.745833 3.8501 1.2875 3.2501C1.82917 2.6501 2.55833 2.25843 3.475 2.0751V0.100098H5.275V2.0751C6.475 2.2751 7.27917 2.73343 7.6875 3.4501C8.09583 4.16676 8.30833 4.54176 8.325 4.5751L6.575 5.3001C6.44167 4.86676 6.175 4.50843 5.775 4.2251C5.375 3.94176 4.93333 3.8001 4.45 3.8001C3.86667 3.8001 3.38333 3.9501 3 4.2501C2.61667 4.5501 2.425 4.91676 2.425 5.3501C2.425 5.78343 2.63333 6.15426 3.05 6.4626C3.46667 6.77093 4.24167 7.11676 5.375 7.5001C6.54167 7.88343 7.39167 8.38343 7.925 9.0001C8.45833 9.61676 8.725 10.4001 8.725 11.3501C8.725 12.3001 8.41667 13.1001 7.8 13.7501C7.18333 14.4001 6.34167 14.8084 5.275 14.9751V16.9001H3.475Z" fill="#F9FAFC"/>
</svg>
