<svg width="20" height="19" viewBox="0 0 20 19" fill="none" xmlns="http://www.w3.org/2000/svg">
<path d="M14.4502 9C14.7335 9 14.971 8.90417 15.1627 8.7125C15.3544 8.52083 15.4502 8.28333 15.4502 8C15.4502 7.71667 15.3544 7.47917 15.1627 7.2875C14.971 7.09583 14.7335 7 14.4502 7C14.1669 7 13.9294 7.09583 13.7377 7.2875C13.546 7.47917 13.4502 7.71667 13.4502 8C13.4502 8.28333 13.546 8.52083 13.7377 8.7125C13.9294 8.90417 14.1669 9 14.4502 9ZM6.4502 7H11.4502V5H6.4502V7ZM2.9502 19C2.38353 17.1 1.8252 15.2042 1.2752 13.3125C0.725195 11.4208 0.450195 9.48333 0.450195 7.5C0.450195 5.96667 0.983529 4.66667 2.0502 3.6C3.11686 2.53333 4.41686 2 5.9502 2H10.9502C11.4335 1.36667 12.021 0.875 12.7127 0.525C13.4044 0.175 14.1502 0 14.9502 0C15.3669 0 15.721 0.145833 16.0127 0.4375C16.3044 0.729167 16.4502 1.08333 16.4502 1.5C16.4502 1.6 16.4377 1.7 16.4127 1.8C16.3877 1.9 16.3585 1.99167 16.3252 2.075C16.2585 2.25833 16.196 2.44583 16.1377 2.6375C16.0794 2.82917 16.0335 3.025 16.0002 3.225L18.2752 5.5H20.4502V12.475L17.6252 13.4L15.9502 19H10.4502V17H8.4502V19H2.9502ZM4.4502 17H6.4502V15H12.4502V17H14.4502L16.0002 11.85L18.4502 11.025V7.5H17.4502L13.9502 4C13.9502 3.66667 13.971 3.34583 14.0127 3.0375C14.0544 2.72917 14.1169 2.41667 14.2002 2.1C13.7169 2.23333 13.2919 2.4625 12.9252 2.7875C12.5585 3.1125 12.2919 3.51667 12.1252 4H5.9502C4.98353 4 4.15853 4.34167 3.4752 5.025C2.79186 5.70833 2.4502 6.53333 2.4502 7.5C2.4502 9.13333 2.6752 10.7292 3.1252 12.2875C3.5752 13.8458 4.01686 15.4167 4.4502 17Z" fill="#1313F2"/>
</svg>
