<svg width="21" height="19" viewBox="0 0 21 19" fill="none" xmlns="http://www.w3.org/2000/svg">
<mask id="mask0_384_3353" style="mask-type:alpha" maskUnits="userSpaceOnUse" x="0" y="0" width="21" height="19">
<rect y="0.369629" width="21" height="18" fill="#D9D9D9"/>
</mask>
<g mask="url(#mask0_384_3353)">
<path d="M2 18.3696C1.45 18.3696 0.979167 18.1738 0.5875 17.7821C0.195833 17.3905 0 16.9196 0 16.3696V2.36963C0 1.81963 0.195833 1.3488 0.5875 0.957129C0.979167 0.565462 1.45 0.369629 2 0.369629H16C16.55 0.369629 17.0208 0.565462 17.4125 0.957129C17.8042 1.3488 18 1.81963 18 2.36963V4.86963H16V2.36963H2V16.3696H16V13.8696H18V16.3696C18 16.9196 17.8042 17.3905 17.4125 17.7821C17.0208 18.1738 16.55 18.3696 16 18.3696H2ZM10 14.3696C9.45 14.3696 8.97917 14.1738 8.5875 13.7821C8.19583 13.3905 8 12.9196 8 12.3696V6.36963C8 5.81963 8.19583 5.3488 8.5875 4.95713C8.97917 4.56546 9.45 4.36963 10 4.36963H17C17.55 4.36963 18.0208 4.56546 18.4125 4.95713C18.8042 5.3488 19 5.81963 19 6.36963V12.3696C19 12.9196 18.8042 13.3905 18.4125 13.7821C18.0208 14.1738 17.55 14.3696 17 14.3696H10ZM17 12.3696V6.36963H10V12.3696H17ZM13 10.8696C13.4167 10.8696 13.7708 10.7238 14.0625 10.4321C14.3542 10.1405 14.5 9.7863 14.5 9.36963C14.5 8.95296 14.3542 8.5988 14.0625 8.30713C13.7708 8.01546 13.4167 7.86963 13 7.86963C12.5833 7.86963 12.2292 8.01546 11.9375 8.30713C11.6458 8.5988 11.5 8.95296 11.5 9.36963C11.5 9.7863 11.6458 10.1405 11.9375 10.4321C12.2292 10.7238 12.5833 10.8696 13 10.8696Z" fill="#F2F2F2"/>
</g>
</svg>
