<svg width="214" height="212" viewBox="0 0 214 212" fill="none" xmlns="http://www.w3.org/2000/svg">
<path d="M78.3437 130.215V121.996H83.3039V122.879H79.339V125.656H83.0471V126.539H79.339V129.332H83.3681V130.215H78.3437ZM84.9693 130.215V124.051H85.8843V125.014H85.9646C86.093 124.685 86.3003 124.429 86.5866 124.247C86.8729 124.063 87.2167 123.97 87.618 123.97C88.0246 123.97 88.3631 124.063 88.6333 124.247C88.9062 124.429 89.1189 124.685 89.2714 125.014H89.3356C89.4934 124.696 89.7302 124.443 90.0459 124.255C90.3616 124.065 90.7401 123.97 91.1816 123.97C91.7327 123.97 92.1835 124.143 92.534 124.488C92.8845 124.831 93.0597 125.364 93.0597 126.089V130.215H92.1126V126.089C92.1126 125.635 91.9882 125.31 91.7394 125.114C91.4906 124.919 91.1976 124.821 90.8605 124.821C90.4271 124.821 90.0914 124.952 89.8533 125.215C89.6151 125.474 89.4961 125.803 89.4961 126.202V130.215H88.5329V125.993C88.5329 125.643 88.4192 125.36 88.1918 125.146C87.9644 124.93 87.6715 124.821 87.313 124.821C87.0668 124.821 86.8368 124.887 86.6227 125.018C86.4114 125.149 86.2401 125.331 86.109 125.564C85.9806 125.794 85.9164 126.06 85.9164 126.362V130.215H84.9693ZM103.01 124.051L100.731 130.215H99.7676L97.4881 124.051H98.5155L100.217 128.963H100.281L101.983 124.051H103.01ZM106.624 130.343C106.03 130.343 105.518 130.212 105.087 129.95C104.659 129.685 104.328 129.316 104.096 128.842C103.866 128.366 103.751 127.812 103.751 127.181C103.751 126.55 103.866 125.993 104.096 125.512C104.328 125.027 104.652 124.65 105.067 124.38C105.484 124.107 105.971 123.97 106.528 123.97C106.849 123.97 107.166 124.024 107.479 124.131C107.792 124.238 108.077 124.412 108.333 124.653C108.59 124.891 108.795 125.207 108.947 125.6C109.1 125.993 109.176 126.477 109.176 127.053V127.454H104.425V126.635H108.213C108.213 126.287 108.144 125.977 108.004 125.704C107.868 125.431 107.673 125.216 107.418 125.058C107.167 124.9 106.87 124.821 106.528 124.821C106.15 124.821 105.824 124.915 105.548 125.102C105.276 125.287 105.065 125.528 104.918 125.825C104.771 126.122 104.698 126.44 104.698 126.78V127.325C104.698 127.791 104.778 128.186 104.938 128.509C105.102 128.83 105.328 129.075 105.617 129.244C105.906 129.41 106.241 129.492 106.624 129.492C106.873 129.492 107.097 129.458 107.298 129.388C107.501 129.316 107.677 129.209 107.824 129.067C107.971 128.923 108.085 128.743 108.165 128.529L109.08 128.786C108.984 129.097 108.822 129.369 108.594 129.605C108.367 129.838 108.086 130.02 107.752 130.151C107.417 130.279 107.041 130.343 106.624 130.343ZM111.564 126.507V130.215H110.617V124.051H111.532V125.014H111.612C111.757 124.701 111.976 124.449 112.27 124.259C112.565 124.067 112.945 123.97 113.41 123.97C113.827 123.97 114.193 124.056 114.506 124.227C114.819 124.396 115.062 124.653 115.236 124.998C115.41 125.34 115.497 125.774 115.497 126.298V130.215H114.55V126.362C114.55 125.878 114.424 125.501 114.173 125.231C113.921 124.958 113.576 124.821 113.137 124.821C112.835 124.821 112.565 124.887 112.326 125.018C112.091 125.149 111.905 125.34 111.769 125.592C111.632 125.843 111.564 126.148 111.564 126.507ZM119.555 130.343C119.041 130.343 118.588 130.214 118.195 129.954C117.801 129.692 117.494 129.323 117.272 128.846C117.05 128.367 116.939 127.802 116.939 127.149C116.939 126.501 117.05 125.94 117.272 125.463C117.494 124.987 117.803 124.619 118.199 124.36C118.595 124.1 119.052 123.97 119.571 123.97C119.972 123.97 120.289 124.037 120.522 124.171C120.758 124.302 120.937 124.452 121.06 124.621C121.186 124.786 121.283 124.923 121.353 125.03H121.433V121.996H122.38V130.215H121.465V129.268H121.353C121.283 129.38 121.184 129.522 121.056 129.693C120.928 129.862 120.744 130.013 120.506 130.147C120.268 130.278 119.951 130.343 119.555 130.343ZM119.683 129.492C120.063 129.492 120.384 129.394 120.647 129.196C120.909 128.995 121.108 128.718 121.245 128.365C121.381 128.009 121.449 127.598 121.449 127.133C121.449 126.673 121.382 126.27 121.249 125.925C121.115 125.577 120.917 125.307 120.655 125.114C120.392 124.919 120.069 124.821 119.683 124.821C119.282 124.821 118.948 124.924 118.68 125.13C118.415 125.334 118.216 125.611 118.082 125.961C117.951 126.309 117.886 126.699 117.886 127.133C117.886 127.572 117.952 127.97 118.086 128.329C118.223 128.685 118.423 128.968 118.688 129.179C118.956 129.388 119.288 129.492 119.683 129.492ZM126.06 130.359C125.67 130.359 125.315 130.286 124.997 130.139C124.678 129.989 124.426 129.773 124.238 129.492C124.051 129.209 123.957 128.866 123.957 128.465C123.957 128.112 124.027 127.826 124.166 127.606C124.305 127.384 124.491 127.21 124.724 127.085C124.957 126.959 125.213 126.865 125.494 126.804C125.778 126.74 126.063 126.689 126.349 126.651C126.724 126.603 127.027 126.567 127.26 126.543C127.496 126.516 127.667 126.472 127.774 126.41C127.884 126.349 127.938 126.242 127.938 126.089V126.057C127.938 125.661 127.83 125.354 127.613 125.134C127.399 124.915 127.074 124.805 126.638 124.805C126.186 124.805 125.831 124.904 125.575 125.102C125.318 125.3 125.137 125.512 125.033 125.736L124.134 125.415C124.294 125.041 124.509 124.749 124.776 124.54C125.046 124.329 125.341 124.182 125.659 124.099C125.98 124.013 126.296 123.97 126.606 123.97C126.804 123.97 127.031 123.995 127.288 124.043C127.548 124.088 127.798 124.183 128.039 124.328C128.282 124.472 128.484 124.69 128.645 124.982C128.805 125.273 128.885 125.664 128.885 126.154V130.215H127.938V129.38H127.89C127.826 129.514 127.719 129.657 127.569 129.81C127.419 129.962 127.22 130.092 126.971 130.199C126.722 130.306 126.419 130.359 126.06 130.359ZM126.205 129.509C126.579 129.509 126.895 129.435 127.152 129.288C127.411 129.141 127.607 128.951 127.738 128.718C127.871 128.485 127.938 128.24 127.938 127.984V127.117C127.898 127.165 127.81 127.209 127.674 127.249C127.54 127.287 127.385 127.32 127.208 127.35C127.034 127.376 126.864 127.4 126.698 127.422C126.535 127.44 126.403 127.457 126.301 127.47C126.055 127.502 125.825 127.554 125.611 127.626C125.399 127.696 125.228 127.802 125.097 127.943C124.969 128.083 124.904 128.273 124.904 128.513C124.904 128.842 125.026 129.091 125.27 129.26C125.516 129.426 125.827 129.509 126.205 129.509ZM134.98 125.431L134.13 125.672C134.076 125.53 133.997 125.392 133.893 125.259C133.791 125.122 133.652 125.01 133.475 124.922C133.299 124.833 133.073 124.789 132.797 124.789C132.42 124.789 132.106 124.876 131.854 125.05C131.605 125.221 131.481 125.439 131.481 125.704C131.481 125.94 131.567 126.126 131.738 126.262C131.909 126.398 132.177 126.512 132.54 126.603L133.455 126.828C134.006 126.962 134.417 127.166 134.687 127.442C134.958 127.715 135.093 128.067 135.093 128.497C135.093 128.85 134.991 129.166 134.788 129.444C134.587 129.723 134.306 129.942 133.945 130.102C133.584 130.263 133.164 130.343 132.685 130.343C132.056 130.343 131.536 130.207 131.124 129.934C130.712 129.661 130.451 129.262 130.341 128.738L131.24 128.513C131.326 128.845 131.488 129.094 131.726 129.26C131.966 129.426 132.281 129.509 132.669 129.509C133.11 129.509 133.461 129.415 133.72 129.228C133.982 129.038 134.113 128.81 134.113 128.545C134.113 128.331 134.039 128.152 133.889 128.008C133.739 127.861 133.509 127.751 133.199 127.679L132.171 127.438C131.607 127.304 131.192 127.097 130.927 126.816C130.665 126.532 130.534 126.178 130.534 125.752C130.534 125.405 130.631 125.097 130.827 124.829C131.025 124.562 131.294 124.352 131.633 124.199C131.976 124.047 132.364 123.97 132.797 123.97C133.407 123.97 133.886 124.104 134.234 124.372C134.584 124.639 134.833 124.992 134.98 125.431Z" fill="black"/>
<path d="M146.758 11.6975C147.505 9.95329 146.699 7.9281 144.931 7.23806C129.833 1.34387 113.566 -1.00536 97.388 0.392362C80.0676 1.88875 63.3835 7.63363 48.8137 17.1181C34.2439 26.6026 22.238 39.5339 13.8595 54.7666C5.48104 69.9993 0.988574 87.0633 0.780066 104.447C0.571558 121.831 4.65344 138.997 12.6642 154.427C20.6749 169.856 32.3671 183.072 46.7053 192.903C61.0434 202.734 77.5849 208.877 94.8644 210.789C111.004 212.574 127.323 210.616 142.558 205.085C144.342 204.438 145.197 202.433 144.492 200.671C143.787 198.909 141.789 198.059 140.004 198.702C125.819 203.815 110.637 205.62 95.6199 203.959C79.4635 202.172 63.9973 196.428 50.5911 187.236C37.1849 178.043 26.2527 165.687 18.7627 151.26C11.2726 136.834 7.45608 120.783 7.65103 104.529C7.84599 88.2757 12.0464 72.3209 19.8803 58.0783C27.7142 43.8357 38.9397 31.7449 52.5625 22.8769C66.1853 14.0089 81.7849 8.63745 97.9794 7.23832C113.032 5.93788 128.166 8.10648 142.224 13.558C143.993 14.2441 146.011 13.4417 146.758 11.6975Z" fill="#1313F2"/>
<path d="M150.803 198.381C151.606 200.1 153.654 200.847 155.346 199.989C167.302 193.922 178.006 185.631 186.876 175.55C196.504 164.608 203.766 151.794 208.205 137.912C212.644 124.029 214.164 109.379 212.671 94.8811C211.294 81.5234 207.387 68.5607 201.168 56.6825C200.288 55.0015 198.187 54.4224 196.535 55.3566C194.884 56.2909 194.308 58.3845 195.184 60.0676C200.939 71.1197 204.556 83.17 205.835 95.5853C207.232 109.141 205.81 122.839 201.66 135.819C197.509 148.799 190.72 160.78 181.718 171.011C173.473 180.381 163.535 188.097 152.436 193.76C150.745 194.622 150 196.661 150.803 198.381Z" fill="#8A38F5"/>
<path d="M191.85 47.8518C193.415 46.7783 193.817 44.636 192.694 43.107C183.606 30.7426 171.935 20.5042 158.492 13.1044C156.83 12.1893 154.758 12.8677 153.897 14.5588C153.037 16.2499 153.714 18.3132 155.374 19.232C167.795 26.1063 178.591 35.5764 187.024 46.9967C188.152 48.5231 190.285 48.9253 191.85 47.8518Z" fill="#34C759"/>
</svg>
