<svg width="214" height="212" viewBox="0 0 214 212" fill="none" xmlns="http://www.w3.org/2000/svg">
<path d="M146.758 11.6975C147.505 9.95329 146.699 7.9281 144.931 7.23806C129.833 1.34387 113.566 -1.00536 97.388 0.392362C80.0676 1.88875 63.3835 7.63363 48.8137 17.1181C34.2439 26.6026 22.238 39.5339 13.8595 54.7666C5.48104 69.9993 0.988574 87.0633 0.780066 104.447C0.571558 121.831 4.65344 138.997 12.6642 154.427C20.6749 169.856 32.3671 183.072 46.7053 192.903C61.0434 202.734 77.5849 208.877 94.8644 210.789C111.004 212.574 127.323 210.616 142.558 205.085C144.342 204.438 145.197 202.433 144.492 200.671C143.787 198.909 141.789 198.059 140.004 198.702C125.819 203.815 110.637 205.62 95.6199 203.959C79.4635 202.172 63.9973 196.428 50.5911 187.236C37.1849 178.043 26.2527 165.687 18.7627 151.26C11.2726 136.834 7.45608 120.783 7.65103 104.529C7.84599 88.2757 12.0464 72.3209 19.8803 58.0783C27.7142 43.8357 38.9397 31.7449 52.5625 22.8769C66.1853 14.0089 81.7849 8.63745 97.9794 7.23832C113.032 5.93788 128.166 8.10648 142.224 13.558C143.993 14.2441 146.011 13.4417 146.758 11.6975Z" fill="#1313F2"/>
<path d="M150.803 198.381C151.606 200.1 153.654 200.847 155.346 199.989C167.302 193.922 178.006 185.631 186.876 175.55C196.504 164.608 203.766 151.794 208.205 137.912C212.644 124.029 214.164 109.379 212.671 94.8811C211.294 81.5234 207.387 68.5607 201.168 56.6825C200.288 55.0015 198.187 54.4224 196.535 55.3566C194.884 56.2909 194.308 58.3845 195.184 60.0676C200.939 71.1197 204.556 83.17 205.835 95.5853C207.232 109.141 205.81 122.839 201.66 135.819C197.509 148.799 190.72 160.78 181.718 171.011C173.473 180.381 163.535 188.097 152.436 193.76C150.745 194.622 150 196.661 150.803 198.381Z" fill="#8A38F5"/>
<path d="M191.85 47.8518C193.415 46.7783 193.817 44.636 192.694 43.107C183.606 30.7426 171.935 20.5042 158.492 13.1044C156.83 12.1893 154.758 12.8677 153.897 14.5588C153.037 16.2499 153.714 18.3132 155.374 19.232C167.795 26.1063 178.591 35.5764 187.024 46.9967C188.152 48.5231 190.285 48.9253 191.85 47.8518Z" fill="#34C759"/>
</svg>
