<svg width="214" height="212" viewBox="0 0 214 212" fill="none" xmlns="http://www.w3.org/2000/svg">
<path d="M64.0336 123.402V122.519H70.1977V123.402H67.6133V130.738H66.618V123.402H64.0336ZM72.5804 130.883C72.1898 130.883 71.8354 130.809 71.517 130.662C71.1986 130.512 70.9458 130.297 70.7585 130.016C70.5712 129.732 70.4776 129.39 70.4776 128.989C70.4776 128.635 70.5472 128.349 70.6863 128.13C70.8254 127.908 71.0113 127.734 71.2441 127.608C71.4769 127.482 71.7337 127.389 72.0146 127.327C72.2982 127.263 72.5831 127.212 72.8694 127.175C73.2439 127.127 73.5476 127.09 73.7804 127.066C74.0158 127.04 74.187 126.995 74.294 126.934C74.4037 126.872 74.4586 126.765 74.4586 126.613V126.581C74.4586 126.185 74.3502 125.877 74.1335 125.658C73.9195 125.438 73.5944 125.329 73.1583 125.329C72.7062 125.329 72.3517 125.428 72.0949 125.626C71.838 125.824 71.6574 126.035 71.5531 126.26L70.6542 125.939C70.8147 125.564 71.0287 125.272 71.2963 125.064C71.5665 124.852 71.8608 124.705 72.1791 124.622C72.5002 124.537 72.8159 124.494 73.1262 124.494C73.3242 124.494 73.5516 124.518 73.8084 124.566C74.068 124.612 74.3181 124.707 74.5589 124.851C74.8024 124.996 75.0043 125.214 75.1649 125.505C75.3254 125.797 75.4057 126.187 75.4057 126.677V130.738H74.4586V129.904H74.4104C74.3462 130.037 74.2392 130.18 74.0894 130.333C73.9395 130.485 73.7402 130.615 73.4914 130.722C73.2426 130.829 72.9389 130.883 72.5804 130.883ZM72.7249 130.032C73.0995 130.032 73.4152 129.958 73.672 129.811C73.9315 129.664 74.1268 129.474 74.2579 129.241C74.3917 129.009 74.4586 128.764 74.4586 128.507V127.64C74.4184 127.688 74.3302 127.732 74.1937 127.773C74.0599 127.81 73.9048 127.844 73.7282 127.873C73.5543 127.9 73.3844 127.924 73.2185 127.945C73.0553 127.964 72.9229 127.98 72.8212 127.993C72.5751 128.025 72.345 128.078 72.131 128.15C71.9196 128.219 71.7484 128.325 71.6173 128.467C71.4889 128.606 71.4247 128.796 71.4247 129.037C71.4247 129.366 71.5464 129.615 71.7899 129.783C72.036 129.949 72.3477 130.032 72.7249 130.032ZM77.8406 124.574L79.3174 127.094L80.7942 124.574H81.8858L79.8953 127.656L81.8858 130.738H80.7942L79.3174 128.346L77.8406 130.738H76.749L78.7074 127.656L76.749 124.574H77.8406ZM85.0511 130.883C84.6605 130.883 84.306 130.809 83.9876 130.662C83.6693 130.512 83.4164 130.297 83.2292 130.016C83.0419 129.732 82.9482 129.39 82.9482 128.989C82.9482 128.635 83.0178 128.349 83.1569 128.13C83.296 127.908 83.482 127.734 83.7147 127.608C83.9475 127.482 84.2043 127.389 84.4852 127.327C84.7688 127.263 85.0538 127.212 85.34 127.175C85.7146 127.127 86.0182 127.09 86.251 127.066C86.4864 127.04 86.6577 126.995 86.7647 126.934C86.8744 126.872 86.9292 126.765 86.9292 126.613V126.581C86.9292 126.185 86.8209 125.877 86.6041 125.658C86.3901 125.438 86.0651 125.329 85.629 125.329C85.1768 125.329 84.8223 125.428 84.5655 125.626C84.3087 125.824 84.1281 126.035 84.0237 126.26L83.1248 125.939C83.2853 125.564 83.4994 125.272 83.7669 125.064C84.0371 124.852 84.3314 124.705 84.6498 124.622C84.9708 124.537 85.2865 124.494 85.5969 124.494C85.7948 124.494 86.0223 124.518 86.2791 124.566C86.5386 124.612 86.7888 124.707 87.0295 124.851C87.273 124.996 87.475 125.214 87.6355 125.505C87.796 125.797 87.8763 126.187 87.8763 126.677V130.738H86.9292V129.904H86.8811C86.8168 130.037 86.7098 130.18 86.56 130.333C86.4102 130.485 86.2109 130.615 85.9621 130.722C85.7132 130.829 85.4096 130.883 85.0511 130.883ZM85.1956 130.032C85.5701 130.032 85.8858 129.958 86.1426 129.811C86.4022 129.664 86.5975 129.474 86.7286 129.241C86.8623 129.009 86.9292 128.764 86.9292 128.507V127.64C86.8891 127.688 86.8008 127.732 86.6643 127.773C86.5306 127.81 86.3754 127.844 86.1988 127.873C86.0249 127.9 85.855 127.924 85.6892 127.945C85.526 127.964 85.3935 127.98 85.2919 127.993C85.0457 128.025 84.8157 128.078 84.6016 128.15C84.3903 128.219 84.219 128.325 84.0879 128.467C83.9595 128.606 83.8953 128.796 83.8953 129.037C83.8953 129.366 84.0171 129.615 84.2605 129.783C84.5066 129.949 84.8183 130.032 85.1956 130.032ZM95.1109 130.867C94.5972 130.867 94.1437 130.737 93.7504 130.477C93.3572 130.215 93.0495 129.846 92.8274 129.37C92.6054 128.891 92.4943 128.325 92.4943 127.672C92.4943 127.025 92.6054 126.463 92.8274 125.987C93.0495 125.511 93.3585 125.143 93.7545 124.883C94.1504 124.624 94.6079 124.494 95.1269 124.494C95.5282 124.494 95.8453 124.561 96.078 124.695C96.3135 124.826 96.4927 124.976 96.6158 125.144C96.7415 125.31 96.8392 125.446 96.9087 125.553H96.989V122.519H97.9361V130.738H97.0211V129.791H96.9087C96.8392 129.904 96.7402 130.045 96.6118 130.217C96.4833 130.385 96.3001 130.536 96.062 130.67C95.8239 130.801 95.5068 130.867 95.1109 130.867ZM95.2393 130.016C95.6192 130.016 95.9402 129.917 96.2024 129.719C96.4646 129.518 96.6639 129.241 96.8004 128.888C96.9368 128.532 97.005 128.122 97.005 127.656C97.005 127.196 96.9382 126.793 96.8044 126.448C96.6706 126.101 96.4726 125.83 96.2105 125.638C95.9483 125.442 95.6245 125.345 95.2393 125.345C94.838 125.345 94.5036 125.448 94.236 125.654C93.9712 125.857 93.7718 126.134 93.6381 126.484C93.507 126.832 93.4414 127.223 93.4414 127.656C93.4414 128.095 93.5083 128.494 93.6421 128.852C93.7785 129.208 93.9792 129.492 94.244 129.703C94.5116 129.912 94.8433 130.016 95.2393 130.016ZM102.387 130.867C101.793 130.867 101.28 130.736 100.85 130.473C100.422 130.209 100.091 129.839 99.8583 129.366C99.6283 128.89 99.5132 128.336 99.5132 127.704C99.5132 127.073 99.6283 126.517 99.8583 126.035C100.091 125.551 100.415 125.173 100.83 124.903C101.247 124.63 101.734 124.494 102.29 124.494C102.611 124.494 102.928 124.547 103.241 124.654C103.554 124.761 103.839 124.935 104.096 125.176C104.353 125.414 104.558 125.73 104.71 126.123C104.863 126.517 104.939 127.001 104.939 127.576V127.977H100.187V127.159H103.976C103.976 126.811 103.906 126.5 103.767 126.228C103.631 125.955 103.435 125.739 103.181 125.581C102.93 125.424 102.633 125.345 102.29 125.345C101.913 125.345 101.587 125.438 101.311 125.626C101.038 125.81 100.828 126.051 100.681 126.348C100.534 126.645 100.46 126.963 100.46 127.303V127.849C100.46 128.314 100.541 128.709 100.701 129.033C100.864 129.354 101.09 129.599 101.379 129.767C101.668 129.933 102.004 130.016 102.387 130.016C102.635 130.016 102.86 129.981 103.061 129.912C103.264 129.839 103.439 129.732 103.586 129.591C103.734 129.446 103.847 129.267 103.928 129.053L104.843 129.31C104.746 129.62 104.584 129.893 104.357 130.128C104.13 130.361 103.849 130.543 103.514 130.674C103.18 130.802 102.804 130.867 102.387 130.867ZM112.142 130.867C111.548 130.867 111.036 130.736 110.605 130.473C110.177 130.209 109.847 129.839 109.614 129.366C109.384 128.89 109.269 128.336 109.269 127.704C109.269 127.073 109.384 126.517 109.614 126.035C109.847 125.551 110.171 125.173 110.585 124.903C111.003 124.63 111.49 124.494 112.046 124.494C112.367 124.494 112.684 124.547 112.997 124.654C113.31 124.761 113.595 124.935 113.852 125.176C114.109 125.414 114.313 125.73 114.466 126.123C114.618 126.517 114.695 127.001 114.695 127.576V127.977H109.943V127.159H113.732C113.732 126.811 113.662 126.5 113.523 126.228C113.386 125.955 113.191 125.739 112.937 125.581C112.685 125.424 112.389 125.345 112.046 125.345C111.669 125.345 111.342 125.438 111.067 125.626C110.794 125.81 110.584 126.051 110.437 126.348C110.29 126.645 110.216 126.963 110.216 127.303V127.849C110.216 128.314 110.296 128.709 110.457 129.033C110.62 129.354 110.846 129.599 111.135 129.767C111.424 129.933 111.76 130.016 112.142 130.016C112.391 130.016 112.616 129.981 112.817 129.912C113.02 129.839 113.195 129.732 113.342 129.591C113.489 129.446 113.603 129.267 113.683 129.053L114.598 129.31C114.502 129.62 114.34 129.893 114.113 130.128C113.885 130.361 113.604 130.543 113.27 130.674C112.936 130.802 112.56 130.867 112.142 130.867ZM120.502 125.955L119.651 126.195C119.597 126.054 119.518 125.916 119.414 125.782C119.312 125.646 119.173 125.533 118.997 125.445C118.82 125.357 118.594 125.313 118.319 125.313C117.941 125.313 117.627 125.4 117.375 125.573C117.127 125.745 117.002 125.963 117.002 126.228C117.002 126.463 117.088 126.649 117.259 126.785C117.43 126.922 117.698 127.036 118.062 127.127L118.977 127.351C119.528 127.485 119.938 127.69 120.209 127.965C120.479 128.238 120.614 128.59 120.614 129.021C120.614 129.374 120.512 129.69 120.309 129.968C120.108 130.246 119.827 130.465 119.466 130.626C119.105 130.786 118.685 130.867 118.206 130.867C117.577 130.867 117.057 130.73 116.645 130.457C116.233 130.184 115.972 129.786 115.862 129.261L116.761 129.037C116.847 129.368 117.009 129.617 117.247 129.783C117.488 129.949 117.802 130.032 118.19 130.032C118.632 130.032 118.982 129.938 119.242 129.751C119.504 129.561 119.635 129.334 119.635 129.069C119.635 128.855 119.56 128.676 119.41 128.531C119.26 128.384 119.03 128.274 118.72 128.202L117.692 127.961C117.128 127.827 116.713 127.62 116.448 127.339C116.186 127.056 116.055 126.701 116.055 126.276C116.055 125.928 116.153 125.62 116.348 125.353C116.546 125.085 116.815 124.875 117.155 124.723C117.497 124.57 117.885 124.494 118.319 124.494C118.928 124.494 119.407 124.628 119.755 124.895C120.106 125.163 120.354 125.516 120.502 125.955ZM124.72 124.574V125.377H121.526V124.574H124.72ZM122.457 123.097H123.404V128.973C123.404 129.24 123.443 129.441 123.52 129.574C123.601 129.706 123.702 129.794 123.825 129.839C123.951 129.882 124.084 129.904 124.223 129.904C124.327 129.904 124.413 129.898 124.48 129.888C124.546 129.874 124.6 129.863 124.64 129.855L124.833 130.706C124.769 130.73 124.679 130.754 124.564 130.778C124.449 130.805 124.303 130.819 124.126 130.819C123.859 130.819 123.597 130.761 123.34 130.646C123.086 130.531 122.874 130.356 122.706 130.12C122.54 129.885 122.457 129.588 122.457 129.229V123.097ZM128.583 130.867C128.026 130.867 127.538 130.734 127.118 130.469C126.701 130.205 126.374 129.834 126.139 129.358C125.906 128.882 125.79 128.325 125.79 127.688C125.79 127.046 125.906 126.486 126.139 126.007C126.374 125.528 126.701 125.156 127.118 124.891C127.538 124.626 128.026 124.494 128.583 124.494C129.139 124.494 129.626 124.626 130.044 124.891C130.464 125.156 130.79 125.528 131.023 126.007C131.258 126.486 131.376 127.046 131.376 127.688C131.376 128.325 131.258 128.882 131.023 129.358C130.79 129.834 130.464 130.205 130.044 130.469C129.626 130.734 129.139 130.867 128.583 130.867ZM128.583 130.016C129.006 130.016 129.353 129.908 129.626 129.691C129.899 129.474 130.101 129.189 130.232 128.836C130.363 128.483 130.429 128.1 130.429 127.688C130.429 127.276 130.363 126.892 130.232 126.537C130.101 126.181 129.899 125.893 129.626 125.674C129.353 125.454 129.006 125.345 128.583 125.345C128.16 125.345 127.812 125.454 127.54 125.674C127.267 125.893 127.065 126.181 126.934 126.537C126.802 126.892 126.737 127.276 126.737 127.688C126.737 128.1 126.802 128.483 126.934 128.836C127.065 129.189 127.267 129.474 127.54 129.691C127.812 129.908 128.16 130.016 128.583 130.016ZM132.822 130.738V124.574H133.737V125.505H133.801C133.913 125.2 134.117 124.953 134.411 124.763C134.705 124.573 135.037 124.478 135.406 124.478C135.476 124.478 135.563 124.479 135.667 124.482C135.771 124.485 135.85 124.489 135.904 124.494V125.457C135.872 125.449 135.798 125.437 135.683 125.421C135.571 125.402 135.452 125.393 135.326 125.393C135.026 125.393 134.759 125.456 134.523 125.581C134.291 125.705 134.106 125.876 133.97 126.095C133.836 126.312 133.769 126.559 133.769 126.838V130.738H132.822ZM137.974 127.03V130.738H137.026V124.574H137.941V125.537H138.022C138.166 125.224 138.386 124.973 138.68 124.783C138.974 124.59 139.354 124.494 139.82 124.494C140.237 124.494 140.602 124.58 140.915 124.751C141.228 124.919 141.472 125.176 141.646 125.521C141.819 125.864 141.906 126.297 141.906 126.822V130.738H140.959V126.886C140.959 126.401 140.834 126.024 140.582 125.754C140.331 125.481 139.985 125.345 139.547 125.345C139.244 125.345 138.974 125.41 138.736 125.541C138.501 125.672 138.315 125.864 138.178 126.115C138.042 126.367 137.974 126.672 137.974 127.03ZM146.141 130.867C145.585 130.867 145.096 130.734 144.676 130.469C144.259 130.205 143.933 129.834 143.697 129.358C143.464 128.882 143.348 128.325 143.348 127.688C143.348 127.046 143.464 126.486 143.697 126.007C143.933 125.528 144.259 125.156 144.676 124.891C145.096 124.626 145.585 124.494 146.141 124.494C146.698 124.494 147.185 124.626 147.602 124.891C148.022 125.156 148.348 125.528 148.581 126.007C148.817 126.486 148.934 127.046 148.934 127.688C148.934 128.325 148.817 128.882 148.581 129.358C148.348 129.834 148.022 130.205 147.602 130.469C147.185 130.734 146.698 130.867 146.141 130.867ZM146.141 130.016C146.564 130.016 146.912 129.908 147.185 129.691C147.457 129.474 147.659 129.189 147.791 128.836C147.922 128.483 147.987 128.1 147.987 127.688C147.987 127.276 147.922 126.892 147.791 126.537C147.659 126.181 147.457 125.893 147.185 125.674C146.912 125.454 146.564 125.345 146.141 125.345C145.718 125.345 145.371 125.454 145.098 125.674C144.825 125.893 144.623 126.181 144.492 126.537C144.361 126.892 144.295 127.276 144.295 127.688C144.295 128.1 144.361 128.483 144.492 128.836C144.623 129.189 144.825 129.474 145.098 129.691C145.371 129.908 145.718 130.016 146.141 130.016Z" fill="black"/>
<path d="M180.818 35.9818C182.197 34.6784 182.262 32.4994 180.915 31.1635C166.802 17.1725 149.013 7.42523 129.575 3.07522C109.018 -1.52521 87.5552 0.120757 67.9402 7.80198C48.3252 15.4832 31.4523 28.8494 19.4859 46.1859C7.51946 63.5224 1.00531 84.0387 0.77905 105.103C0.552788 126.167 6.62473 146.818 18.216 164.408C29.8072 181.998 46.3891 195.723 65.8346 203.824C85.2801 211.925 106.702 214.031 127.353 209.873C146.88 205.942 164.875 196.579 179.285 182.895C180.661 181.588 180.643 179.408 179.292 178.075C177.941 176.742 175.77 176.762 174.391 178.065C160.945 190.777 144.182 199.476 125.997 203.137C106.688 207.025 86.6586 205.055 68.4771 197.481C50.2956 189.907 34.7914 177.073 23.9536 160.627C13.1158 144.181 7.43856 124.872 7.65011 105.177C7.86167 85.4816 13.9524 66.299 25.141 50.0893C36.3296 33.8797 52.1058 21.3823 70.4458 14.2003C88.7858 7.01839 108.853 5.47941 128.074 9.78082C146.176 13.8318 162.749 22.8889 175.918 35.8863C177.269 37.2192 179.439 37.2852 180.818 35.9818Z" fill="#1313F2"/>
<path d="M183.34 174.876C184.747 176.149 186.925 176.044 188.152 174.597C203.132 156.926 211.915 134.793 213.092 111.594C214.269 88.3944 207.771 65.4866 194.656 46.3906C193.581 44.8264 191.426 44.5017 189.897 45.6262C188.369 46.7506 188.047 48.8983 189.118 50.4649C201.296 68.2826 207.326 89.6288 206.229 111.246C205.132 132.863 196.973 153.489 183.054 169.983C181.831 171.433 181.934 173.602 183.34 174.876Z" fill="#8A38F5"/>
</svg>
