<svg width="312" height="167" viewBox="0 0 312 167" fill="none" xmlns="http://www.w3.org/2000/svg">
<g clip-path="url(#clip0_462_715)">
<rect x="25.5" width="47" height="146" rx="12" fill="#F2F2F2"/>
<rect x="25.5" y="9" width="47" height="137" rx="12" fill="#1313F2"/>
</g>
<path d="M40.1824 166V155.818H43.8117C44.6038 155.818 45.2601 155.962 45.7804 156.251C46.3008 156.539 46.6902 156.933 46.9488 157.434C47.2073 157.931 47.3366 158.491 47.3366 159.114C47.3366 159.741 47.2056 160.304 46.9438 160.805C46.6853 161.302 46.2942 161.696 45.7705 161.988C45.2501 162.276 44.5956 162.42 43.8067 162.42H41.311V161.118H43.6675C44.168 161.118 44.574 161.032 44.8856 160.859C45.1971 160.684 45.4258 160.445 45.5716 160.143C45.7175 159.842 45.7904 159.499 45.7904 159.114C45.7904 158.73 45.7175 158.388 45.5716 158.09C45.4258 157.792 45.1955 157.558 44.8806 157.389C44.569 157.22 44.1581 157.136 43.6476 157.136H41.7187V166H40.1824ZM48.8782 166V158.364H50.3647V166H48.8782ZM49.6289 157.185C49.3704 157.185 49.1483 157.099 48.9627 156.927C48.7804 156.751 48.6893 156.542 48.6893 156.3C48.6893 156.055 48.7804 155.846 48.9627 155.674C49.1483 155.498 49.3704 155.411 49.6289 155.411C49.8874 155.411 50.1078 155.498 50.2901 155.674C50.4757 155.846 50.5685 156.055 50.5685 156.3C50.5685 156.542 50.4757 156.751 50.2901 156.927C50.1078 157.099 49.8874 157.185 49.6289 157.185ZM53.3978 158.364L55.0832 161.337L56.7835 158.364H58.4092L56.0278 162.182L58.4291 166H56.8034L55.0832 163.146L53.368 166H51.7373L54.1137 162.182L51.7671 158.364H53.3978Z" fill="#5B5B5B"/>
<g clip-path="url(#clip1_462_715)">
<rect x="132.5" width="47" height="146" rx="12" fill="#F2F2F2"/>
<rect x="132.5" y="12" width="47" height="134" rx="12" fill="#8A38F5"/>
</g>
<path d="M143.073 159.129H141.522C141.462 158.798 141.351 158.506 141.189 158.254C141.026 158.002 140.827 157.789 140.592 157.613C140.357 157.437 140.093 157.305 139.801 157.215C139.513 157.126 139.207 157.081 138.882 157.081C138.295 157.081 137.77 157.228 137.306 157.523C136.845 157.818 136.48 158.251 136.212 158.821C135.947 159.391 135.814 160.087 135.814 160.909C135.814 161.738 135.947 162.437 136.212 163.007C136.48 163.577 136.847 164.008 137.311 164.3C137.775 164.591 138.297 164.737 138.877 164.737C139.198 164.737 139.503 164.694 139.791 164.608C140.083 164.518 140.347 164.388 140.582 164.215C140.817 164.043 141.016 163.832 141.179 163.584C141.344 163.332 141.459 163.044 141.522 162.719L143.073 162.724C142.99 163.224 142.829 163.685 142.591 164.106C142.355 164.523 142.052 164.885 141.681 165.19C141.313 165.491 140.892 165.725 140.418 165.891C139.944 166.056 139.427 166.139 138.867 166.139C137.985 166.139 137.2 165.93 136.51 165.513C135.821 165.092 135.277 164.49 134.88 163.708C134.485 162.926 134.288 161.993 134.288 160.909C134.288 159.822 134.487 158.889 134.885 158.11C135.282 157.328 135.826 156.728 136.515 156.31C137.205 155.889 137.988 155.679 138.867 155.679C139.407 155.679 139.911 155.757 140.378 155.913C140.849 156.065 141.271 156.29 141.646 156.589C142.02 156.884 142.33 157.245 142.576 157.673C142.821 158.097 142.987 158.582 143.073 159.129ZM146.874 166.169C146.39 166.169 145.953 166.08 145.561 165.901C145.17 165.718 144.86 165.455 144.632 165.11C144.406 164.765 144.294 164.343 144.294 163.842C144.294 163.411 144.377 163.057 144.542 162.778C144.708 162.5 144.932 162.28 145.213 162.117C145.495 161.955 145.81 161.832 146.158 161.749C146.506 161.666 146.861 161.603 147.222 161.56C147.679 161.507 148.051 161.464 148.336 161.431C148.621 161.395 148.828 161.337 148.957 161.257C149.086 161.178 149.151 161.048 149.151 160.869V160.835C149.151 160.4 149.028 160.064 148.783 159.825C148.541 159.587 148.18 159.467 147.699 159.467C147.199 159.467 146.804 159.578 146.516 159.8C146.231 160.019 146.034 160.263 145.924 160.531L144.527 160.213C144.693 159.749 144.935 159.375 145.253 159.089C145.575 158.801 145.944 158.592 146.362 158.463C146.78 158.33 147.219 158.264 147.679 158.264C147.984 158.264 148.307 158.301 148.649 158.374C148.994 158.443 149.315 158.572 149.613 158.761C149.915 158.95 150.162 159.22 150.354 159.572C150.546 159.92 150.642 160.372 150.642 160.929V166H149.191V164.956H149.131C149.035 165.148 148.891 165.337 148.699 165.523C148.506 165.708 148.259 165.862 147.958 165.985C147.656 166.108 147.295 166.169 146.874 166.169ZM147.197 164.976C147.608 164.976 147.959 164.895 148.251 164.732C148.546 164.57 148.77 164.358 148.922 164.096C149.078 163.831 149.156 163.547 149.156 163.246V162.261C149.103 162.314 149 162.364 148.848 162.411C148.699 162.454 148.528 162.492 148.336 162.525C148.143 162.555 147.956 162.583 147.774 162.609C147.592 162.633 147.439 162.652 147.316 162.669C147.028 162.705 146.765 162.767 146.526 162.853C146.291 162.939 146.102 163.063 145.959 163.226C145.82 163.385 145.75 163.597 145.75 163.862C145.75 164.23 145.886 164.509 146.158 164.697C146.43 164.883 146.776 164.976 147.197 164.976ZM152.482 166V158.364H153.919V159.577H153.999C154.138 159.166 154.383 158.843 154.735 158.607C155.089 158.369 155.49 158.249 155.938 158.249C156.03 158.249 156.14 158.253 156.266 158.259C156.395 158.266 156.496 158.274 156.569 158.284V159.706C156.509 159.689 156.403 159.671 156.251 159.651C156.098 159.628 155.946 159.616 155.793 159.616C155.442 159.616 155.129 159.691 154.854 159.84C154.582 159.986 154.367 160.19 154.208 160.452C154.048 160.71 153.969 161.005 153.969 161.337V166H152.482ZM161.731 158.364V159.557H157.56V158.364H161.731ZM158.679 156.534H160.165V163.758C160.165 164.046 160.208 164.263 160.294 164.409C160.381 164.552 160.492 164.649 160.628 164.702C160.767 164.752 160.918 164.777 161.08 164.777C161.199 164.777 161.304 164.769 161.393 164.752C161.483 164.736 161.552 164.722 161.602 164.712L161.87 165.94C161.784 165.973 161.662 166.007 161.503 166.04C161.343 166.076 161.145 166.096 160.906 166.099C160.515 166.106 160.15 166.036 159.812 165.891C159.474 165.745 159.201 165.519 158.992 165.214C158.783 164.91 158.679 164.527 158.679 164.066V156.534ZM165.458 166.169C164.974 166.169 164.536 166.08 164.145 165.901C163.754 165.718 163.444 165.455 163.216 165.11C162.99 164.765 162.878 164.343 162.878 163.842C162.878 163.411 162.96 163.057 163.126 162.778C163.292 162.5 163.516 162.28 163.797 162.117C164.079 161.955 164.394 161.832 164.742 161.749C165.09 161.666 165.445 161.603 165.806 161.56C166.263 161.507 166.634 161.464 166.92 161.431C167.205 161.395 167.412 161.337 167.541 161.257C167.67 161.178 167.735 161.048 167.735 160.869V160.835C167.735 160.4 167.612 160.064 167.367 159.825C167.125 159.587 166.764 159.467 166.283 159.467C165.783 159.467 165.388 159.578 165.1 159.8C164.815 160.019 164.618 160.263 164.508 160.531L163.111 160.213C163.277 159.749 163.519 159.375 163.837 159.089C164.159 158.801 164.528 158.592 164.946 158.463C165.363 158.33 165.803 158.264 166.263 158.264C166.568 158.264 166.891 158.301 167.233 158.374C167.577 158.443 167.899 158.572 168.197 158.761C168.499 158.95 168.746 159.22 168.938 159.572C169.13 159.92 169.226 160.372 169.226 160.929V166H167.775V164.956H167.715C167.619 165.148 167.475 165.337 167.282 165.523C167.09 165.708 166.843 165.862 166.542 165.985C166.24 166.108 165.879 166.169 165.458 166.169ZM165.781 164.976C166.192 164.976 166.543 164.895 166.835 164.732C167.13 164.57 167.354 164.358 167.506 164.096C167.662 163.831 167.74 163.547 167.74 163.246V162.261C167.687 162.314 167.584 162.364 167.432 162.411C167.282 162.454 167.112 162.492 166.92 162.525C166.727 162.555 166.54 162.583 166.358 162.609C166.175 162.633 166.023 162.652 165.9 162.669C165.612 162.705 165.349 162.767 165.11 162.853C164.875 162.939 164.686 163.063 164.543 163.226C164.404 163.385 164.334 163.597 164.334 163.862C164.334 164.23 164.47 164.509 164.742 164.697C165.014 164.883 165.36 164.976 165.781 164.976ZM164.846 157.439L163.847 157.409C163.847 156.859 163.995 156.42 164.29 156.092C164.588 155.763 164.956 155.599 165.393 155.599C165.595 155.599 165.773 155.634 165.925 155.704C166.078 155.77 166.22 155.848 166.353 155.938C166.489 156.024 166.623 156.102 166.755 156.171C166.891 156.237 167.042 156.271 167.208 156.271C167.4 156.271 167.556 156.198 167.675 156.052C167.798 155.906 167.859 155.725 167.859 155.51L168.839 155.575C168.839 156.128 168.689 156.564 168.391 156.882C168.093 157.197 167.727 157.356 167.292 157.359C167.057 157.359 166.862 157.326 166.706 157.26C166.553 157.19 166.417 157.112 166.298 157.026C166.179 156.937 166.056 156.857 165.93 156.788C165.804 156.718 165.653 156.683 165.478 156.683C165.292 156.683 165.14 156.756 165.02 156.902C164.904 157.045 164.846 157.223 164.846 157.439ZM174.283 166.154C173.567 166.154 172.942 165.99 172.409 165.662C171.875 165.334 171.461 164.875 171.166 164.285C170.871 163.695 170.723 163.005 170.723 162.217C170.723 161.424 170.871 160.732 171.166 160.138C171.461 159.545 171.875 159.085 172.409 158.756C172.942 158.428 173.567 158.264 174.283 158.264C174.999 158.264 175.624 158.428 176.157 158.756C176.691 159.085 177.105 159.545 177.4 160.138C177.695 160.732 177.843 161.424 177.843 162.217C177.843 163.005 177.695 163.695 177.4 164.285C177.105 164.875 176.691 165.334 176.157 165.662C175.624 165.99 174.999 166.154 174.283 166.154ZM174.288 164.906C174.752 164.906 175.136 164.784 175.441 164.538C175.746 164.293 175.972 163.967 176.117 163.559C176.267 163.151 176.341 162.702 176.341 162.212C176.341 161.724 176.267 161.277 176.117 160.869C175.972 160.458 175.746 160.129 175.441 159.88C175.136 159.631 174.752 159.507 174.288 159.507C173.821 159.507 173.433 159.631 173.125 159.88C172.82 160.129 172.593 160.458 172.443 160.869C172.298 161.277 172.225 161.724 172.225 162.212C172.225 162.702 172.298 163.151 172.443 163.559C172.593 163.967 172.82 164.293 173.125 164.538C173.433 164.784 173.821 164.906 174.288 164.906Z" fill="#5B5B5B"/>
<g clip-path="url(#clip2_462_715)">
<rect x="239.5" width="47" height="146" rx="12" fill="#F2F2F2"/>
<rect x="239.5" y="11" width="47" height="135" rx="12" fill="#34C759"/>
</g>
<path d="M243.038 166V155.818H246.767C247.489 155.818 248.087 155.937 248.561 156.176C249.035 156.411 249.39 156.731 249.625 157.136C249.861 157.537 249.978 157.989 249.978 158.493C249.978 158.917 249.9 159.275 249.745 159.567C249.589 159.855 249.38 160.087 249.118 160.263C248.86 160.435 248.575 160.561 248.263 160.641V160.74C248.601 160.757 248.931 160.866 249.252 161.068C249.577 161.267 249.846 161.55 250.058 161.918C250.27 162.286 250.376 162.734 250.376 163.261C250.376 163.781 250.253 164.248 250.008 164.663C249.766 165.074 249.392 165.4 248.885 165.642C248.377 165.881 247.729 166 246.941 166H243.038ZM244.574 164.683H246.791C247.527 164.683 248.054 164.54 248.372 164.255C248.691 163.97 248.85 163.614 248.85 163.186C248.85 162.865 248.769 162.57 248.606 162.301C248.444 162.033 248.212 161.819 247.91 161.66C247.612 161.501 247.257 161.421 246.846 161.421H244.574V164.683ZM244.574 160.223H246.632C246.977 160.223 247.287 160.157 247.562 160.024C247.841 159.892 248.061 159.706 248.223 159.467C248.389 159.225 248.472 158.94 248.472 158.612C248.472 158.191 248.324 157.838 248.029 157.553C247.734 157.268 247.282 157.126 246.672 157.126H244.574V160.223ZM255.155 166.154C254.439 166.154 253.815 165.99 253.281 165.662C252.747 165.334 252.333 164.875 252.038 164.285C251.743 163.695 251.596 163.005 251.596 162.217C251.596 161.424 251.743 160.732 252.038 160.138C252.333 159.545 252.747 159.085 253.281 158.756C253.815 158.428 254.439 158.264 255.155 158.264C255.871 158.264 256.496 158.428 257.03 158.756C257.563 159.085 257.978 159.545 258.273 160.138C258.568 160.732 258.715 161.424 258.715 162.217C258.715 163.005 258.568 163.695 258.273 164.285C257.978 164.875 257.563 165.334 257.03 165.662C256.496 165.99 255.871 166.154 255.155 166.154ZM255.16 164.906C255.624 164.906 256.009 164.784 256.314 164.538C256.619 164.293 256.844 163.967 256.99 163.559C257.139 163.151 257.214 162.702 257.214 162.212C257.214 161.724 257.139 161.277 256.99 160.869C256.844 160.458 256.619 160.129 256.314 159.88C256.009 159.631 255.624 159.507 255.16 159.507C254.693 159.507 254.305 159.631 253.997 159.88C253.692 160.129 253.465 160.458 253.316 160.869C253.17 161.277 253.097 161.724 253.097 162.212C253.097 162.702 253.17 163.151 253.316 163.559C253.465 163.967 253.692 164.293 253.997 164.538C254.305 164.784 254.693 164.906 255.16 164.906ZM261.721 155.818V166H260.234V155.818H261.721ZM266.872 166.154C266.119 166.154 265.472 165.993 264.928 165.672C264.388 165.347 263.97 164.891 263.675 164.305C263.383 163.715 263.238 163.024 263.238 162.232C263.238 161.449 263.383 160.76 263.675 160.163C263.97 159.567 264.381 159.101 264.908 158.766C265.438 158.432 266.058 158.264 266.767 158.264C267.198 158.264 267.616 158.335 268.02 158.478C268.425 158.621 268.788 158.844 269.109 159.149C269.431 159.454 269.684 159.85 269.87 160.337C270.055 160.821 270.148 161.41 270.148 162.102V162.629H264.078V161.516H268.691C268.691 161.125 268.612 160.778 268.453 160.477C268.294 160.172 268.07 159.931 267.782 159.756C267.497 159.58 267.162 159.492 266.777 159.492C266.36 159.492 265.995 159.595 265.684 159.8C265.375 160.003 265.137 160.268 264.968 160.596C264.802 160.921 264.719 161.274 264.719 161.655V162.525C264.719 163.035 264.809 163.469 264.988 163.827C265.17 164.185 265.423 164.459 265.748 164.648C266.073 164.833 266.453 164.926 266.887 164.926C267.168 164.926 267.425 164.886 267.657 164.807C267.889 164.724 268.09 164.601 268.259 164.439C268.428 164.277 268.557 164.076 268.647 163.837L270.054 164.091C269.941 164.505 269.739 164.868 269.447 165.18C269.159 165.488 268.796 165.728 268.358 165.901C267.924 166.07 267.429 166.154 266.872 166.154ZM275.222 158.364V159.557H271.051V158.364H275.222ZM272.17 156.534H273.656V163.758C273.656 164.046 273.699 164.263 273.785 164.409C273.871 164.552 273.983 164.649 274.118 164.702C274.258 164.752 274.408 164.777 274.571 164.777C274.69 164.777 274.795 164.769 274.884 164.752C274.974 164.736 275.043 164.722 275.093 164.712L275.361 165.94C275.275 165.973 275.152 166.007 274.993 166.04C274.834 166.076 274.635 166.096 274.397 166.099C274.006 166.106 273.641 166.036 273.303 165.891C272.965 165.745 272.692 165.519 272.483 165.214C272.274 164.91 272.17 164.527 272.17 164.066V156.534ZM279.861 166.154C279.145 166.154 278.52 165.99 277.987 165.662C277.453 165.334 277.039 164.875 276.744 164.285C276.449 163.695 276.301 163.005 276.301 162.217C276.301 161.424 276.449 160.732 276.744 160.138C277.039 159.545 277.453 159.085 277.987 158.756C278.52 158.428 279.145 158.264 279.861 158.264C280.577 158.264 281.202 158.428 281.735 158.756C282.269 159.085 282.683 159.545 282.978 160.138C283.273 160.732 283.421 161.424 283.421 162.217C283.421 163.005 283.273 163.695 282.978 164.285C282.683 164.875 282.269 165.334 281.735 165.662C281.202 165.99 280.577 166.154 279.861 166.154ZM279.866 164.906C280.33 164.906 280.714 164.784 281.019 164.538C281.324 164.293 281.55 163.967 281.696 163.559C281.845 163.151 281.919 162.702 281.919 162.212C281.919 161.724 281.845 161.277 281.696 160.869C281.55 160.458 281.324 160.129 281.019 159.88C280.714 159.631 280.33 159.507 279.866 159.507C279.399 159.507 279.011 159.631 278.703 159.88C278.398 160.129 278.171 160.458 278.022 160.869C277.876 161.277 277.803 161.724 277.803 162.212C277.803 162.702 277.876 163.151 278.022 163.559C278.171 163.967 278.398 164.293 278.703 164.538C279.011 164.784 279.399 164.906 279.866 164.906Z" fill="#5B5B5B"/>
<defs>
<clipPath id="clip0_462_715">
<rect x="25.5" width="47" height="146" rx="12" fill="white"/>
</clipPath>
<clipPath id="clip1_462_715">
<rect x="132.5" width="47" height="146" rx="12" fill="white"/>
</clipPath>
<clipPath id="clip2_462_715">
<rect x="239.5" width="47" height="146" rx="12" fill="white"/>
</clipPath>
</defs>
</svg>
