<svg width="315" height="198" viewBox="0 0 315 198" fill="none" xmlns="http://www.w3.org/2000/svg">
<path d="M314 50.2529H2" stroke="black" stroke-opacity="0.2" stroke-width="0.520085" stroke-linecap="round" stroke-dasharray="3.12 3.12"/>
<path d="M314 111.369H2" stroke="black" stroke-opacity="0.2" stroke-width="0.520085" stroke-linecap="round" stroke-dasharray="3.12 3.12"/>
<path d="M314 172.485H2" stroke="black" stroke-opacity="0.2" stroke-width="0.520085" stroke-linecap="round" stroke-dasharray="3.12 3.12"/>
<rect x="25.9326" y="104.314" width="6.24101" height="67.8386" rx="3.12051" fill="#1313F2"/>
<rect x="13.4326" y="91.8145" width="31.241" height="92.8386" rx="15.6205" stroke="#F9FAFC" stroke-opacity="0.01" stroke-width="25"/>
<rect x="155.398" y="104.314" width="6.24101" height="67.8386" rx="3.12051" fill="#1313F2"/>
<rect x="142.898" y="91.8145" width="31.241" height="92.8386" rx="15.6205" stroke="#F9FAFC" stroke-opacity="0.01" stroke-width="25"/>
<rect x="281.712" y="104.314" width="6.24101" height="67.8386" rx="3.12051" fill="#1313F2"/>
<rect x="269.212" y="91.8145" width="31.241" height="92.8386" rx="15.6205" stroke="#F9FAFC" stroke-opacity="0.01" stroke-width="25"/>
<rect x="218.816" y="77.3311" width="6.24101" height="94.7296" rx="3.12051" fill="#1313F2"/>
<rect x="206.316" y="64.8311" width="31.241" height="119.73" rx="15.6205" stroke="#F9FAFC" stroke-opacity="0.01" stroke-width="25"/>
<rect x="92.502" y="25.2568" width="6.24101" height="146.678" rx="3.12051" fill="#1313F2"/>
<rect x="80.002" y="12.7568" width="31.241" height="171.678" rx="15.6205" stroke="#F9FAFC" stroke-opacity="0.01" stroke-width="25"/>
</svg>
