<svg width="167" height="54" viewBox="0 0 167 54" fill="none" xmlns="http://www.w3.org/2000/svg">
<rect width="167" height="54" rx="27" fill="#00051B"/>
<path d="M45.7195 25.2536H43.8601C43.8071 24.9486 43.7093 24.6785 43.5668 24.4432C43.4242 24.2045 43.2469 24.0024 43.0348 23.8366C42.8227 23.6709 42.5807 23.5466 42.3089 23.4638C42.0405 23.3776 41.7505 23.3345 41.4389 23.3345C40.8854 23.3345 40.3949 23.4737 39.9673 23.7521C39.5398 24.0272 39.205 24.4316 38.9631 24.9652C38.7211 25.4955 38.6001 26.1435 38.6001 26.9091C38.6001 27.688 38.7211 28.3442 38.9631 28.8778C39.2083 29.4081 39.5431 29.8092 39.9673 30.081C40.3949 30.3494 40.8838 30.4837 41.4339 30.4837C41.7389 30.4837 42.0239 30.4439 42.2891 30.3643C42.5575 30.2815 42.7978 30.1605 43.0099 30.0014C43.2254 29.8423 43.406 29.6468 43.5518 29.4148C43.701 29.1828 43.8037 28.9176 43.8601 28.6193L45.7195 28.6293C45.6499 29.1132 45.4991 29.5672 45.267 29.9915C45.0384 30.4157 44.7384 30.7902 44.3672 31.1151C43.996 31.4366 43.5618 31.6884 43.0646 31.8707C42.5675 32.0497 42.0156 32.1392 41.4091 32.1392C40.5142 32.1392 39.7154 31.9321 39.0128 31.5178C38.3101 31.1035 37.7566 30.5052 37.3523 29.723C36.9479 28.9408 36.7457 28.0028 36.7457 26.9091C36.7457 25.812 36.9496 24.8741 37.3572 24.0952C37.7649 23.313 38.3201 22.7147 39.0227 22.3004C39.7254 21.8861 40.5208 21.679 41.4091 21.679C41.9759 21.679 42.5028 21.7585 42.9901 21.9176C43.4773 22.0767 43.9115 22.3104 44.2926 22.6186C44.6738 22.9235 44.987 23.2981 45.2322 23.7422C45.4808 24.183 45.6432 24.6868 45.7195 25.2536ZM49.5265 32.1541C49.0426 32.1541 48.6067 32.0679 48.2189 31.8956C47.8345 31.7199 47.5295 31.4614 47.3042 31.12C47.0821 30.7786 46.9711 30.3577 46.9711 29.8572C46.9711 29.4264 47.0506 29.0701 47.2097 28.7884C47.3688 28.5066 47.5859 28.2812 47.861 28.1122C48.1361 27.9432 48.446 27.8156 48.7907 27.7294C49.1387 27.6399 49.4983 27.5753 49.8695 27.5355C50.3169 27.4891 50.6799 27.4477 50.9583 27.4112C51.2367 27.3714 51.4389 27.3118 51.5648 27.2322C51.6941 27.1494 51.7587 27.0218 51.7587 26.8494V26.8196C51.7587 26.4451 51.6477 26.1551 51.4256 25.9496C51.2035 25.7441 50.8837 25.6413 50.4661 25.6413C50.0253 25.6413 49.6756 25.7375 49.4171 25.9297C49.1619 26.1219 48.9895 26.349 48.9 26.6108L47.2196 26.3722C47.3522 25.9081 47.571 25.5204 47.8759 25.2088C48.1808 24.8939 48.5537 24.6586 48.9945 24.5028C49.4353 24.3438 49.9225 24.2642 50.4561 24.2642C50.824 24.2642 51.1903 24.3073 51.5549 24.3935C51.9194 24.4796 52.2525 24.6222 52.5542 24.821C52.8558 25.0166 53.0977 25.2834 53.28 25.6214C53.4656 25.9595 53.5584 26.3821 53.5584 26.8892V32H51.8283V30.951H51.7686C51.6593 31.1631 51.5051 31.362 51.3063 31.5476C51.1107 31.7299 50.8638 31.8774 50.5655 31.9901C50.2705 32.0994 49.9242 32.1541 49.5265 32.1541ZM49.9938 30.8317C50.3551 30.8317 50.6683 30.7604 50.9334 30.6179C51.1986 30.4721 51.4024 30.2798 51.5449 30.0412C51.6908 29.8026 51.7637 29.5424 51.7637 29.2607V28.3608C51.7073 28.4072 51.6112 28.4503 51.4753 28.4901C51.3427 28.5298 51.1936 28.5646 51.0279 28.5945C50.8622 28.6243 50.6981 28.6508 50.5357 28.674C50.3733 28.6972 50.2324 28.7171 50.1131 28.7337C49.8446 28.7701 49.6043 28.8298 49.3922 28.9126C49.1801 28.9955 49.0127 29.1115 48.8901 29.2607C48.7675 29.4065 48.7061 29.5954 48.7061 29.8274C48.7061 30.1589 48.8271 30.4091 49.0691 30.5781C49.311 30.7472 49.6193 30.8317 49.9938 30.8317ZM57.1678 27.5256V32H55.3681V24.3636H57.0882V25.6612H57.1777C57.3534 25.2337 57.6335 24.8939 58.0179 24.642C58.4057 24.3902 58.8846 24.2642 59.4547 24.2642C59.9817 24.2642 60.4408 24.3769 60.8319 24.6023C61.2263 24.8277 61.5312 25.1541 61.7466 25.5817C61.9654 26.0092 62.0731 26.5279 62.0698 27.1378V32H60.2701V27.4162C60.2701 26.9058 60.1375 26.5064 59.8723 26.218C59.6105 25.9297 59.2476 25.7855 58.7836 25.7855C58.4687 25.7855 58.1886 25.8551 57.9434 25.9943C57.7014 26.1302 57.5108 26.3274 57.3716 26.5859C57.2357 26.8445 57.1678 27.1577 57.1678 27.5256ZM67.2303 32.1491C66.468 32.1491 65.8134 31.9818 65.2665 31.647C64.723 31.3123 64.3037 30.8499 64.0087 30.2599C63.717 29.6667 63.5712 28.9839 63.5712 28.2116C63.5712 27.4361 63.7203 26.7517 64.0186 26.1584C64.3169 25.5618 64.7379 25.0978 65.2814 24.7663C65.8283 24.4316 66.4746 24.2642 67.2203 24.2642C67.8401 24.2642 68.3887 24.3786 68.8659 24.6072C69.3465 24.8326 69.7293 25.1525 70.0144 25.5668C70.2994 25.9777 70.4618 26.4583 70.5016 27.0085H68.7814C68.7118 26.6406 68.5461 26.334 68.2843 26.0888C68.0257 25.8402 67.6794 25.7159 67.2452 25.7159C66.8773 25.7159 66.5542 25.8153 66.2757 26.0142C65.9973 26.2098 65.7802 26.4915 65.6245 26.8594C65.472 27.2273 65.3958 27.6681 65.3958 28.1818C65.3958 28.7022 65.472 29.1496 65.6245 29.5241C65.7769 29.8954 65.9907 30.1821 66.2658 30.3842C66.5442 30.5831 66.8707 30.6825 67.2452 30.6825C67.5104 30.6825 67.7473 30.6328 67.9561 30.5334C68.1683 30.4306 68.3456 30.2831 68.4881 30.0909C68.6306 29.8987 68.7284 29.665 68.7814 29.3899H70.5016C70.4585 29.9302 70.2994 30.4091 70.0243 30.8267C69.7492 31.241 69.3747 31.5658 68.9007 31.8011C68.4268 32.0331 67.87 32.1491 67.2303 32.1491ZM75.3601 32.1491C74.5945 32.1491 73.9332 31.9901 73.3764 31.6719C72.8229 31.3504 72.397 30.8963 72.0987 30.3097C71.8004 29.7197 71.6513 29.0253 71.6513 28.2266C71.6513 27.4411 71.8004 26.7517 72.0987 26.1584C72.4003 25.5618 72.8213 25.0978 73.3615 24.7663C73.9018 24.4316 74.5365 24.2642 75.2656 24.2642C75.7363 24.2642 76.1804 24.3404 76.598 24.4929C77.0189 24.642 77.3902 24.8741 77.7116 25.1889C78.0365 25.5038 78.2917 25.9048 78.4773 26.392C78.6629 26.8759 78.7557 27.4527 78.7557 28.1222V28.674H72.4964V27.4609H77.0305C77.0272 27.1162 76.9527 26.8097 76.8068 26.5412C76.661 26.2694 76.4571 26.0556 76.1953 25.8999C75.9368 25.7441 75.6352 25.6662 75.2905 25.6662C74.9226 25.6662 74.5994 25.7557 74.321 25.9347C74.0426 26.1103 73.8255 26.3423 73.6697 26.6307C73.5173 26.9157 73.4394 27.2289 73.4361 27.5703V28.6293C73.4361 29.0734 73.5173 29.4545 73.6797 29.7727C73.8421 30.0876 74.0691 30.3295 74.3608 30.4986C74.6525 30.6643 74.9938 30.7472 75.3849 30.7472C75.6468 30.7472 75.8838 30.7107 76.0959 30.6378C76.308 30.5616 76.492 30.4505 76.6477 30.3047C76.8035 30.1589 76.9212 29.9782 77.0007 29.7628L78.6811 29.9517C78.575 30.3958 78.3729 30.7836 78.0746 31.1151C77.7796 31.4432 77.4018 31.6984 76.9411 31.8807C76.4804 32.0597 75.9534 32.1491 75.3601 32.1491ZM82.0779 21.8182V32H80.2782V21.8182H82.0779ZM86.1261 32.1541C85.6422 32.1541 85.2063 32.0679 84.8185 31.8956C84.4341 31.7199 84.1291 31.4614 83.9038 31.12C83.6817 30.7786 83.5707 30.3577 83.5707 29.8572C83.5707 29.4264 83.6502 29.0701 83.8093 28.7884C83.9684 28.5066 84.1855 28.2812 84.4606 28.1122C84.7357 27.9432 85.0456 27.8156 85.3903 27.7294C85.7383 27.6399 86.0979 27.5753 86.4691 27.5355C86.9165 27.4891 87.2795 27.4477 87.5579 27.4112C87.8363 27.3714 88.0385 27.3118 88.1644 27.2322C88.2937 27.1494 88.3583 27.0218 88.3583 26.8494V26.8196C88.3583 26.4451 88.2473 26.1551 88.0252 25.9496C87.8031 25.7441 87.4833 25.6413 87.0657 25.6413C86.6249 25.6413 86.2752 25.7375 86.0167 25.9297C85.7615 26.1219 85.5891 26.349 85.4996 26.6108L83.8192 26.3722C83.9518 25.9081 84.1706 25.5204 84.4755 25.2088C84.7804 24.8939 85.1533 24.6586 85.5941 24.5028C86.0349 24.3438 86.5221 24.2642 87.0558 24.2642C87.4237 24.2642 87.7899 24.3073 88.1545 24.3935C88.5191 24.4796 88.8522 24.6222 89.1538 24.821C89.4554 25.0166 89.6973 25.2834 89.8796 25.6214C90.0652 25.9595 90.158 26.3821 90.158 26.8892V32H88.4279V30.951H88.3683C88.2589 31.1631 88.1048 31.362 87.9059 31.5476C87.7103 31.7299 87.4634 31.8774 87.1651 31.9901C86.8701 32.0994 86.5238 32.1541 86.1261 32.1541ZM86.5934 30.8317C86.9547 30.8317 87.2679 30.7604 87.533 30.6179C87.7982 30.4721 88.002 30.2798 88.1445 30.0412C88.2904 29.8026 88.3633 29.5424 88.3633 29.2607V28.3608C88.3069 28.4072 88.2108 28.4503 88.0749 28.4901C87.9424 28.5298 87.7932 28.5646 87.6275 28.5945C87.4618 28.6243 87.2977 28.6508 87.1353 28.674C86.9729 28.6972 86.832 28.7171 86.7127 28.7337C86.4442 28.7701 86.204 28.8298 85.9918 28.9126C85.7797 28.9955 85.6123 29.1115 85.4897 29.2607C85.3671 29.4065 85.3058 29.5954 85.3058 29.8274C85.3058 30.1589 85.4267 30.4091 85.6687 30.5781C85.9106 30.7472 86.2189 30.8317 86.5934 30.8317ZM91.9677 32V24.3636H93.7127V25.6364H93.7923C93.9315 25.1955 94.1701 24.8558 94.5082 24.6172C94.8496 24.3752 95.239 24.2543 95.6765 24.2543C95.7759 24.2543 95.887 24.2592 96.0096 24.2692C96.1355 24.2758 96.2399 24.2874 96.3228 24.304V25.9595C96.2466 25.933 96.1256 25.9098 95.9599 25.8899C95.7975 25.8667 95.64 25.8551 95.4876 25.8551C95.1594 25.8551 94.8645 25.9264 94.6026 26.0689C94.3441 26.2081 94.1403 26.402 93.9911 26.6506C93.842 26.8991 93.7674 27.1858 93.7674 27.5107V32H91.9677Z" fill="#F6F6F6"/>
<mask id="mask0_384_3918" style="mask-type:alpha" maskUnits="userSpaceOnUse" x="107" y="15" width="24" height="24">
<rect x="107" y="15" width="24" height="24" fill="#D9D9D9"/>
</mask>
<g mask="url(#mask0_384_3918)">
<path d="M113.4 34L112 32.6L117.6 27L112 21.4L113.4 20L119 25.6L124.6 20L126 21.4L120.4 27L126 32.6L124.6 34L119 28.4L113.4 34Z" fill="#F9FAFC"/>
</g>
</svg>
