<svg width="48" height="48" viewBox="0 0 48 48" fill="none" xmlns="http://www.w3.org/2000/svg">
<rect width="48" height="48" rx="24" fill="#F2F2F2"/>
<mask id="mask0_384_3600" style="mask-type:alpha" maskUnits="userSpaceOnUse" x="12" y="12" width="24" height="24">
<rect x="12" y="12" width="24" height="24" fill="#D9D9D9"/>
</mask>
<g mask="url(#mask0_384_3600)">
<path d="M19 35C18.45 35 17.9792 34.8042 17.5875 34.4125C17.1958 34.0208 17 33.55 17 33V15C17 14.45 17.1958 13.9792 17.5875 13.5875C17.9792 13.1958 18.45 13 19 13H29C29.55 13 30.0208 13.1958 30.4125 13.5875C30.8042 13.9792 31 14.45 31 15V18.1C31.3 18.2167 31.5417 18.4 31.725 18.65C31.9083 18.9 32 19.1833 32 19.5V21.5C32 21.8167 31.9083 22.1 31.725 22.35C31.5417 22.6 31.3 22.7833 31 22.9V33C31 33.55 30.8042 34.0208 30.4125 34.4125C30.0208 34.8042 29.55 35 29 35H19ZM19 33H29V15H19V33ZM24 32C24.2833 32 24.5208 31.9042 24.7125 31.7125C24.9042 31.5208 25 31.2833 25 31C25 30.7167 24.9042 30.4792 24.7125 30.2875C24.5208 30.0958 24.2833 30 24 30C23.7167 30 23.4792 30.0958 23.2875 30.2875C23.0958 30.4792 23 30.7167 23 31C23 31.2833 23.0958 31.5208 23.2875 31.7125C23.4792 31.9042 23.7167 32 24 32Z" fill="#1C1B1F"/>
</g>
</svg>
