<svg width="48" height="48" viewBox="0 0 48 48" fill="none" xmlns="http://www.w3.org/2000/svg">
<rect width="48" height="48" rx="24" fill="#F2F2F2"/>
<mask id="mask0_384_3587" style="mask-type:alpha" maskUnits="userSpaceOnUse" x="12" y="12" width="24" height="24">
<rect x="12" y="12" width="24" height="24" fill="#D9D9D9"/>
</mask>
<g mask="url(#mask0_384_3587)">
<path d="M19 26C18.45 26 17.9792 25.8042 17.5875 25.4125C17.1958 25.0208 17 24.55 17 24C17 23.45 17.1958 22.9792 17.5875 22.5875C17.9792 22.1958 18.45 22 19 22C19.55 22 20.0208 22.1958 20.4125 22.5875C20.8042 22.9792 21 23.45 21 24C21 24.55 20.8042 25.0208 20.4125 25.4125C20.0208 25.8042 19.55 26 19 26ZM19 30C17.3333 30 15.9167 29.4167 14.75 28.25C13.5833 27.0833 13 25.6667 13 24C13 22.3333 13.5833 20.9167 14.75 19.75C15.9167 18.5833 17.3333 18 19 18C20.1167 18 21.1292 18.275 22.0375 18.825C22.9458 19.375 23.6667 20.1 24.2 21H33L36 24L31.5 28.5L29.5 27L27.5 28.5L25.375 27H24.2C23.6667 27.9 22.9458 28.625 22.0375 29.175C21.1292 29.725 20.1167 30 19 30ZM19 28C19.9333 28 20.7542 27.7167 21.4625 27.15C22.1708 26.5833 22.6417 25.8667 22.875 25H26L27.45 26.025L29.5 24.5L31.275 25.875L33.15 24L32.15 23H22.875C22.6417 22.1333 22.1708 21.4167 21.4625 20.85C20.7542 20.2833 19.9333 20 19 20C17.9 20 16.9583 20.3917 16.175 21.175C15.3917 21.9583 15 22.9 15 24C15 25.1 15.3917 26.0417 16.175 26.825C16.9583 27.6083 17.9 28 19 28Z" fill="#1C1B1F"/>
</g>
</svg>
