<svg width="48" height="48" viewBox="0 0 48 48" fill="none" xmlns="http://www.w3.org/2000/svg">
<rect width="48" height="48" rx="24" fill="#ECECEC"/>
<mask id="mask0_384_3818" style="mask-type:alpha" maskUnits="userSpaceOnUse" x="12" y="12" width="24" height="24">
<rect x="12" y="12" width="24" height="24" fill="#D9D9D9"/>
</mask>
<g mask="url(#mask0_384_3818)">
<path d="M16 33C15.45 33 14.9792 32.8042 14.5875 32.4125C14.1958 32.0208 14 31.55 14 31V20C14 19.45 14.1958 18.9792 14.5875 18.5875C14.9792 18.1958 15.45 18 16 18H20V16C20 15.45 20.1958 14.9792 20.5875 14.5875C20.9792 14.1958 21.45 14 22 14H26C26.55 14 27.0208 14.1958 27.4125 14.5875C27.8042 14.9792 28 15.45 28 16V18H32C32.55 18 33.0208 18.1958 33.4125 18.5875C33.8042 18.9792 34 19.45 34 20V31C34 31.55 33.8042 32.0208 33.4125 32.4125C33.0208 32.8042 32.55 33 32 33H16ZM22 18H26V16H22V18ZM32 27H27V29H21V27H16V31H32V27ZM23 27H25V25H23V27ZM16 25H21V23H27V25H32V20H16V25Z" fill="#00051B"/>
</g>
</svg>
