<svg width="173" height="54" viewBox="0 0 173 54" fill="none" xmlns="http://www.w3.org/2000/svg">
<rect width="173" height="54" rx="27" fill="#E72417"/>
<path d="M26.5376 24.6172C26.4912 24.183 26.2957 23.8449 25.951 23.603C25.6096 23.361 25.1655 23.2401 24.6186 23.2401C24.2341 23.2401 23.9044 23.2981 23.6293 23.4141C23.3542 23.5301 23.1437 23.6875 22.9979 23.8864C22.852 24.0852 22.7775 24.3123 22.7741 24.5675C22.7741 24.7796 22.8222 24.9635 22.9183 25.1193C23.0178 25.2751 23.152 25.4077 23.321 25.517C23.4901 25.6231 23.6773 25.7126 23.8828 25.7855C24.0883 25.8584 24.2955 25.9197 24.5043 25.9695L25.4588 26.2081C25.8433 26.2976 26.2128 26.4186 26.5675 26.571C26.9254 26.7235 27.2453 26.9157 27.527 27.1477C27.812 27.3797 28.0374 27.6598 28.2031 27.9879C28.3688 28.3161 28.4517 28.7005 28.4517 29.1413C28.4517 29.7379 28.2992 30.2633 27.9943 30.7173C27.6894 31.1681 27.2486 31.5211 26.6719 31.7763C26.0985 32.0282 25.4041 32.1541 24.5888 32.1541C23.7966 32.1541 23.1089 32.0315 22.5256 31.7862C21.9455 31.541 21.4915 31.183 21.1634 30.7124C20.8385 30.2417 20.6629 29.6683 20.6364 28.9922H22.451C22.4775 29.3468 22.5869 29.6418 22.7791 29.8771C22.9714 30.1125 23.2216 30.2881 23.5298 30.4041C23.8414 30.5201 24.1894 30.5781 24.5739 30.5781C24.9749 30.5781 25.3262 30.5185 25.6278 30.3991C25.9328 30.2765 26.1714 30.1075 26.3438 29.892C26.5161 29.6733 26.6039 29.4181 26.6072 29.1264C26.6039 28.8613 26.526 28.6425 26.3736 28.4702C26.2211 28.2945 26.0073 28.1487 25.7322 28.0327C25.4605 27.9134 25.1423 27.8073 24.7777 27.7145L23.6193 27.4162C22.7808 27.2008 22.1179 26.8743 21.6307 26.4368C21.1468 25.996 20.9048 25.411 20.9048 24.6818C20.9048 24.0819 21.0672 23.5566 21.392 23.1058C21.7202 22.6551 22.166 22.3054 22.7294 22.0568C23.2929 21.8049 23.9309 21.679 24.6435 21.679C25.366 21.679 25.9991 21.8049 26.5426 22.0568C27.0895 22.3054 27.5187 22.6518 27.8303 23.0959C28.1418 23.5367 28.3026 24.0438 28.3125 24.6172H26.5376ZM30.0165 32V24.3636H31.8162V32H30.0165ZM30.9213 23.2798C30.6363 23.2798 30.391 23.1854 30.1855 22.9964C29.9801 22.8042 29.8773 22.5739 29.8773 22.3054C29.8773 22.0336 29.9801 21.8033 30.1855 21.6143C30.391 21.4221 30.6363 21.326 30.9213 21.326C31.2097 21.326 31.455 21.4221 31.6571 21.6143C31.8626 21.8033 31.9654 22.0336 31.9654 22.3054C31.9654 22.5739 31.8626 22.8042 31.6571 22.9964C31.455 23.1854 31.2097 23.2798 30.9213 23.2798ZM33.6669 32V24.3636H35.3871V25.6612H35.4766C35.6357 25.2237 35.8991 24.8823 36.267 24.6371C36.6349 24.3885 37.0741 24.2642 37.5845 24.2642C38.1016 24.2642 38.5374 24.3902 38.892 24.642C39.25 24.8906 39.5019 25.2304 39.6477 25.6612H39.7273C39.8963 25.237 40.1813 24.8989 40.5824 24.647C40.9867 24.3918 41.4657 24.2642 42.0192 24.2642C42.7218 24.2642 43.2952 24.4863 43.7393 24.9304C44.1835 25.3745 44.4055 26.0225 44.4055 26.8743V32H42.6009V27.1527C42.6009 26.6787 42.4749 26.3324 42.223 26.1136C41.9711 25.8916 41.6629 25.7805 41.2983 25.7805C40.8641 25.7805 40.5244 25.9164 40.2791 26.1882C40.0372 26.4567 39.9162 26.8063 39.9162 27.2372V32H38.1513V27.0781C38.1513 26.6837 38.032 26.3688 37.7933 26.1335C37.558 25.8982 37.2498 25.7805 36.8686 25.7805C36.6101 25.7805 36.3748 25.8468 36.1626 25.9794C35.9505 26.1087 35.7815 26.2926 35.6555 26.5312C35.5296 26.7666 35.4666 27.0417 35.4666 27.3565V32H33.6669ZM48.3443 30.608L48.2797 31.1548C48.2333 31.5724 48.1504 31.9967 48.0311 32.4276C47.9151 32.8617 47.7924 33.2611 47.6632 33.6257C47.5339 33.9903 47.4295 34.277 47.35 34.4858H46.1369C46.1833 34.2836 46.2463 34.0085 46.3258 33.6605C46.4087 33.3125 46.4882 32.9214 46.5645 32.4872C46.6407 32.053 46.6921 31.6122 46.7186 31.1648L46.7534 30.608H48.3443ZM56.8494 32.1491C56.0871 32.1491 55.4325 31.9818 54.8857 31.647C54.3421 31.3123 53.9228 30.8499 53.6278 30.2599C53.3362 29.6667 53.1903 28.9839 53.1903 28.2116C53.1903 27.4361 53.3395 26.7517 53.6378 26.1584C53.9361 25.5618 54.357 25.0978 54.9006 24.7663C55.4474 24.4316 56.0938 24.2642 56.8395 24.2642C57.4593 24.2642 58.0078 24.3786 58.4851 24.6072C58.9657 24.8326 59.3485 25.1525 59.6335 25.5668C59.9186 25.9777 60.081 26.4583 60.1207 27.0085H58.4006C58.331 26.6406 58.1652 26.334 57.9034 26.0888C57.6449 25.8402 57.2985 25.7159 56.8643 25.7159C56.4964 25.7159 56.1733 25.8153 55.8949 26.0142C55.6165 26.2098 55.3994 26.4915 55.2436 26.8594C55.0911 27.2273 55.0149 27.6681 55.0149 28.1818C55.0149 28.7022 55.0911 29.1496 55.2436 29.5241C55.3961 29.8954 55.6098 30.1821 55.8849 30.3842C56.1634 30.5831 56.4898 30.6825 56.8643 30.6825C57.1295 30.6825 57.3665 30.6328 57.5753 30.5334C57.7874 30.4306 57.9647 30.2831 58.1072 30.0909C58.2498 29.8987 58.3475 29.665 58.4006 29.3899H60.1207C60.0777 29.9302 59.9186 30.4091 59.6435 30.8267C59.3684 31.241 58.9938 31.5658 58.5199 31.8011C58.0459 32.0331 57.4891 32.1491 56.8494 32.1491ZM64.9295 32.1491C64.1838 32.1491 63.5375 31.9851 62.9906 31.657C62.4437 31.3288 62.0195 30.8698 61.7179 30.2798C61.4196 29.6899 61.2704 29.0005 61.2704 28.2116C61.2704 27.4228 61.4196 26.7318 61.7179 26.1385C62.0195 25.5452 62.4437 25.0845 62.9906 24.7564C63.5375 24.4283 64.1838 24.2642 64.9295 24.2642C65.6752 24.2642 66.3216 24.4283 66.8684 24.7564C67.4153 25.0845 67.8379 25.5452 68.1362 26.1385C68.4378 26.7318 68.5886 27.4228 68.5886 28.2116C68.5886 29.0005 68.4378 29.6899 68.1362 30.2798C67.8379 30.8698 67.4153 31.3288 66.8684 31.657C66.3216 31.9851 65.6752 32.1491 64.9295 32.1491ZM64.9395 30.7074C65.3438 30.7074 65.6819 30.5964 65.9537 30.3743C66.2254 30.1489 66.4276 29.8473 66.5602 29.4695C66.6961 29.0916 66.764 28.6707 66.764 28.2067C66.764 27.7393 66.6961 27.3168 66.5602 26.9389C66.4276 26.5578 66.2254 26.2545 65.9537 26.0291C65.6819 25.8037 65.3438 25.6911 64.9395 25.6911C64.5252 25.6911 64.1805 25.8037 63.9054 26.0291C63.6336 26.2545 63.4297 26.5578 63.2939 26.9389C63.1613 27.3168 63.095 27.7393 63.095 28.2067C63.095 28.6707 63.1613 29.0916 63.2939 29.4695C63.4297 29.8473 63.6336 30.1489 63.9054 30.3743C64.1805 30.5964 64.5252 30.7074 64.9395 30.7074ZM71.9158 27.5256V32H70.1161V24.3636H71.8363V25.6612H71.9258C72.1014 25.2337 72.3815 24.8939 72.766 24.642C73.1538 24.3902 73.6327 24.2642 74.2028 24.2642C74.7298 24.2642 75.1888 24.3769 75.5799 24.6023C75.9743 24.8277 76.2792 25.1541 76.4947 25.5817C76.7134 26.0092 76.8211 26.5279 76.8178 27.1378V32H75.0181V27.4162C75.0181 26.9058 74.8855 26.5064 74.6204 26.218C74.3585 25.9297 73.9956 25.7855 73.5316 25.7855C73.2167 25.7855 72.9367 25.8551 72.6914 25.9943C72.4495 26.1302 72.2589 26.3274 72.1197 26.5859C71.9838 26.8445 71.9158 27.1577 71.9158 27.5256ZM82.5153 24.3636V25.7557H78.0011V24.3636H82.5153ZM79.1296 32V23.6428C79.1296 23.129 79.2357 22.7015 79.4478 22.3601C79.6632 22.0187 79.9516 21.7635 80.3129 21.5945C80.6741 21.4254 81.0752 21.3409 81.516 21.3409C81.8275 21.3409 82.1043 21.3658 82.3462 21.4155C82.5882 21.4652 82.7672 21.5099 82.8832 21.5497L82.5252 22.9418C82.449 22.9186 82.3529 22.8954 82.2369 22.8722C82.1209 22.8456 81.9916 22.8324 81.8491 22.8324C81.5143 22.8324 81.2773 22.9136 81.1381 23.076C81.0022 23.2351 80.9343 23.4638 80.9343 23.7621V32H79.1296ZM83.9247 32V24.3636H85.7244V32H83.9247ZM84.8295 23.2798C84.5445 23.2798 84.2992 23.1854 84.0938 22.9964C83.8883 22.8042 83.7855 22.5739 83.7855 22.3054C83.7855 22.0336 83.8883 21.8033 84.0938 21.6143C84.2992 21.4221 84.5445 21.326 84.8295 21.326C85.1179 21.326 85.3632 21.4221 85.5653 21.6143C85.7708 21.8033 85.8736 22.0336 85.8736 22.3054C85.8736 22.5739 85.7708 22.8042 85.5653 22.9964C85.3632 23.1854 85.1179 23.2798 84.8295 23.2798ZM87.5751 32V24.3636H89.3201V25.6364H89.3997C89.5389 25.1955 89.7775 24.8558 90.1156 24.6172C90.457 24.3752 90.8464 24.2543 91.2839 24.2543C91.3833 24.2543 91.4944 24.2592 91.617 24.2692C91.743 24.2758 91.8474 24.2874 91.9302 24.304V25.9595C91.854 25.933 91.733 25.9098 91.5673 25.8899C91.4049 25.8667 91.2475 25.8551 91.095 25.8551C90.7669 25.8551 90.4719 25.9264 90.21 26.0689C89.9515 26.2081 89.7477 26.402 89.5985 26.6506C89.4494 26.8991 89.3748 27.1858 89.3748 27.5107V32H87.5751ZM93.1259 32V24.3636H94.8461V25.6612H94.9355C95.0946 25.2237 95.3581 24.8823 95.726 24.6371C96.0939 24.3885 96.5331 24.2642 97.0435 24.2642C97.5605 24.2642 97.9964 24.3902 98.351 24.642C98.709 24.8906 98.9609 25.2304 99.1067 25.6612H99.1863C99.3553 25.237 99.6403 24.8989 100.041 24.647C100.446 24.3918 100.925 24.2642 101.478 24.2642C102.181 24.2642 102.754 24.4863 103.198 24.9304C103.642 25.3745 103.865 26.0225 103.865 26.8743V32H102.06V27.1527C102.06 26.6787 101.934 26.3324 101.682 26.1136C101.43 25.8916 101.122 25.7805 100.757 25.7805C100.323 25.7805 99.9834 25.9164 99.7381 26.1882C99.4962 26.4567 99.3752 26.8063 99.3752 27.2372V32H97.6103V27.0781C97.6103 26.6837 97.4909 26.3688 97.2523 26.1335C97.017 25.8982 96.7087 25.7805 96.3276 25.7805C96.0691 25.7805 95.8337 25.8468 95.6216 25.9794C95.4095 26.1087 95.2405 26.2926 95.1145 26.5312C94.9886 26.7666 94.9256 27.0417 94.9256 27.3565V32H93.1259ZM107.888 32.1541C107.404 32.1541 106.968 32.0679 106.58 31.8956C106.196 31.7199 105.891 31.4614 105.665 31.12C105.443 30.7786 105.332 30.3577 105.332 29.8572C105.332 29.4264 105.412 29.0701 105.571 28.7884C105.73 28.5066 105.947 28.2812 106.222 28.1122C106.497 27.9432 106.807 27.8156 107.152 27.7294C107.5 27.6399 107.86 27.5753 108.231 27.5355C108.678 27.4891 109.041 27.4477 109.32 27.4112C109.598 27.3714 109.8 27.3118 109.926 27.2322C110.055 27.1494 110.12 27.0218 110.12 26.8494V26.8196C110.12 26.4451 110.009 26.1551 109.787 25.9496C109.565 25.7441 109.245 25.6413 108.827 25.6413C108.387 25.6413 108.037 25.7375 107.778 25.9297C107.523 26.1219 107.351 26.349 107.261 26.6108L105.581 26.3722C105.714 25.9081 105.932 25.5204 106.237 25.2088C106.542 24.8939 106.915 24.6586 107.356 24.5028C107.797 24.3438 108.284 24.2642 108.817 24.2642C109.185 24.2642 109.552 24.3073 109.916 24.3935C110.281 24.4796 110.614 24.6222 110.915 24.821C111.217 25.0166 111.459 25.2834 111.641 25.6214C111.827 25.9595 111.92 26.3821 111.92 26.8892V32H110.19V30.951H110.13C110.021 31.1631 109.866 31.362 109.668 31.5476C109.472 31.7299 109.225 31.8774 108.927 31.9901C108.632 32.0994 108.286 32.1541 107.888 32.1541ZM108.355 30.8317C108.716 30.8317 109.03 30.7604 109.295 30.6179C109.56 30.4721 109.764 30.2798 109.906 30.0412C110.052 29.8026 110.125 29.5424 110.125 29.2607V28.3608C110.069 28.4072 109.973 28.4503 109.837 28.4901C109.704 28.5298 109.555 28.5646 109.389 28.5945C109.223 28.6243 109.059 28.6508 108.897 28.674C108.735 28.6972 108.594 28.7171 108.474 28.7337C108.206 28.7701 107.966 28.8298 107.754 28.9126C107.541 28.9955 107.374 29.1115 107.251 29.2607C107.129 29.4065 107.067 29.5954 107.067 29.8274C107.067 30.1589 107.188 30.4091 107.43 30.5781C107.672 30.7472 107.981 30.8317 108.355 30.8317ZM113.729 32V24.3636H115.474V25.6364H115.554C115.693 25.1955 115.932 24.8558 116.27 24.6172C116.611 24.3752 117.001 24.2543 117.438 24.2543C117.538 24.2543 117.649 24.2592 117.771 24.2692C117.897 24.2758 118.002 24.2874 118.085 24.304V25.9595C118.008 25.933 117.887 25.9098 117.722 25.8899C117.559 25.8667 117.402 25.8551 117.249 25.8551C116.921 25.8551 116.626 25.9264 116.364 26.0689C116.106 26.2081 115.902 26.402 115.753 26.6506C115.604 26.8991 115.529 27.1858 115.529 27.5107V32H113.729Z" fill="#F6F6F6"/>
<mask id="mask0_384_3919" style="mask-type:alpha" maskUnits="userSpaceOnUse" x="129" y="15" width="24" height="24">
<rect x="129" y="15" width="24" height="24" fill="#D9D9D9"/>
</mask>
<g mask="url(#mask0_384_3919)">
<path d="M138.55 33.0001L132.85 27.3001L134.275 25.8751L138.55 30.1501L147.725 20.9751L149.15 22.4001L138.55 33.0001Z" fill="#F9FAFC"/>
</g>
</svg>
