<svg width="350" height="74" viewBox="0 0 350 74" fill="none" xmlns="http://www.w3.org/2000/svg">
<rect width="350" height="73.5902" rx="12" fill="#F2F2F2"/>
<rect x="20" y="13" width="47.5902" height="47.5902" rx="23.7951" fill="#ECECEC"/>
<mask id="mask0_556_1086" style="mask-type:alpha" maskUnits="userSpaceOnUse" x="32" y="24" width="24" height="25">
<rect x="32" y="24.7705" width="24" height="24" fill="#D9D9D9"/>
</mask>
<g mask="url(#mask0_556_1086)">
<path d="M51 43.7705H40C39.45 43.7705 38.9792 43.5747 38.5875 43.183C38.1958 42.7913 38 42.3205 38 41.7705V27.7705C38 27.2205 38.1958 26.7497 38.5875 26.358C38.9792 25.9663 39.45 25.7705 40 25.7705H47L53 31.7705V41.7705C53 42.3205 52.8042 42.7913 52.4125 43.183C52.0208 43.5747 51.55 43.7705 51 43.7705ZM46 32.7705V27.7705H40V41.7705H51V32.7705H46ZM36 47.7705C35.45 47.7705 34.9792 47.5747 34.5875 47.183C34.1958 46.7913 34 46.3205 34 45.7705V31.7705H36V45.7705H47V47.7705H36Z" fill="#00051B"/>
</g>
<path d="M98.6983 35.0847H96.5733C96.5127 34.7362 96.4009 34.4275 96.2381 34.1586C96.0752 33.8858 95.8725 33.6548 95.6301 33.4654C95.3877 33.276 95.1112 33.1339 94.8006 33.0392C94.4937 32.9408 94.1623 32.8915 93.8062 32.8915C93.1737 32.8915 92.6131 33.0506 92.1244 33.3688C91.6358 33.6832 91.2532 34.1453 90.9767 34.7551C90.7002 35.3612 90.5619 36.1017 90.5619 36.9767C90.5619 37.8669 90.7002 38.6169 90.9767 39.2267C91.257 39.8328 91.6396 40.2911 92.1244 40.6017C92.6131 40.9086 93.1718 41.062 93.8006 41.062C94.149 41.062 94.4748 41.0165 94.7778 40.9256C95.0847 40.8309 95.3593 40.6926 95.6017 40.5108C95.8479 40.329 96.0543 40.1055 96.221 39.8404C96.3915 39.5752 96.5089 39.2722 96.5733 38.9313L98.6983 38.9426C98.6187 39.4957 98.4464 40.0146 98.1812 40.4995C97.9199 40.9843 97.5771 41.4123 97.1528 41.7836C96.7286 42.151 96.2324 42.4389 95.6642 42.6472C95.096 42.8517 94.4653 42.954 93.7722 42.954C92.7494 42.954 91.8365 42.7173 91.0335 42.2438C90.2305 41.7703 89.5979 41.0866 89.1358 40.1926C88.6737 39.2987 88.4426 38.2267 88.4426 36.9767C88.4426 35.723 88.6756 34.651 89.1415 33.7608C89.6074 32.8669 90.2418 32.1832 91.0449 31.7097C91.8479 31.2362 92.757 30.9995 93.7722 30.9995C94.4199 30.9995 95.0222 31.0904 95.579 31.2722C96.1358 31.454 96.632 31.7211 97.0676 32.0733C97.5032 32.4218 97.8612 32.8498 98.1415 33.3574C98.4256 33.8612 98.6112 34.437 98.6983 35.0847ZM104.185 42.9654C103.332 42.9654 102.594 42.7779 101.969 42.4029C101.344 42.0279 100.859 41.5033 100.514 40.829C100.173 40.1548 100.003 39.3669 100.003 38.4654C100.003 37.5639 100.173 36.7741 100.514 36.0961C100.859 35.418 101.344 34.8915 101.969 34.5165C102.594 34.1415 103.332 33.954 104.185 33.954C105.037 33.954 105.776 34.1415 106.401 34.5165C107.026 34.8915 107.508 35.418 107.849 36.0961C108.194 36.7741 108.366 37.5639 108.366 38.4654C108.366 39.3669 108.194 40.1548 107.849 40.829C107.508 41.5033 107.026 42.0279 106.401 42.4029C105.776 42.7779 105.037 42.9654 104.185 42.9654ZM104.196 41.3176C104.658 41.3176 105.044 41.1908 105.355 40.937C105.666 40.6794 105.897 40.3347 106.048 39.9029C106.204 39.4711 106.281 38.99 106.281 38.4597C106.281 37.9256 106.204 37.4426 106.048 37.0108C105.897 36.5752 105.666 36.2286 105.355 35.9711C105.044 35.7135 104.658 35.5847 104.196 35.5847C103.722 35.5847 103.329 35.7135 103.014 35.9711C102.704 36.2286 102.471 36.5752 102.315 37.0108C102.164 37.4426 102.088 37.9256 102.088 38.4597C102.088 38.99 102.164 39.4711 102.315 39.9029C102.471 40.3347 102.704 40.6794 103.014 40.937C103.329 41.1908 103.722 41.3176 104.196 41.3176ZM109.952 46.0676V34.0676H111.975V35.5108H112.094C112.2 35.2987 112.35 35.0733 112.543 34.8347C112.736 34.5923 112.998 34.3858 113.327 34.2154C113.657 34.0411 114.077 33.954 114.589 33.954C115.263 33.954 115.871 34.1264 116.412 34.4711C116.958 34.812 117.39 35.3176 117.708 35.9881C118.03 36.6548 118.191 37.473 118.191 38.4426C118.191 39.401 118.034 40.2154 117.719 40.8858C117.405 41.5563 116.977 42.0676 116.435 42.4199C115.893 42.7722 115.28 42.9483 114.594 42.9483C114.094 42.9483 113.679 42.865 113.35 42.6983C113.02 42.5317 112.755 42.3309 112.554 42.0961C112.357 41.8574 112.204 41.632 112.094 41.4199H112.009V46.0676H109.952ZM111.969 38.4313C111.969 38.9957 112.049 39.49 112.208 39.9142C112.371 40.3385 112.604 40.6699 112.907 40.9086C113.214 41.1434 113.585 41.2608 114.02 41.2608C114.475 41.2608 114.856 41.1396 115.162 40.8972C115.469 40.651 115.7 40.3158 115.856 39.8915C116.015 39.4635 116.094 38.9767 116.094 38.4313C116.094 37.8896 116.017 37.4086 115.861 36.9881C115.706 36.5676 115.475 36.2381 115.168 35.9995C114.861 35.7608 114.479 35.6415 114.02 35.6415C113.581 35.6415 113.208 35.757 112.901 35.9881C112.594 36.2192 112.361 36.543 112.202 36.9597C112.047 37.3764 111.969 37.8669 111.969 38.4313ZM119.792 42.7949V34.0676H121.849V42.7949H119.792ZM120.826 32.829C120.5 32.829 120.22 32.7211 119.985 32.5051C119.75 32.2855 119.633 32.0222 119.633 31.7154C119.633 31.4048 119.75 31.1415 119.985 30.9256C120.22 30.7059 120.5 30.5961 120.826 30.5961C121.156 30.5961 121.436 30.7059 121.667 30.9256C121.902 31.1415 122.019 31.4048 122.019 31.7154C122.019 32.0222 121.902 32.2855 121.667 32.5051C121.436 32.7211 121.156 32.829 120.826 32.829ZM126.315 42.9711C125.762 42.9711 125.264 42.8726 124.821 42.6756C124.382 42.4748 124.033 42.1794 123.776 41.7892C123.522 41.3991 123.395 40.918 123.395 40.3461C123.395 39.8536 123.486 39.4464 123.668 39.1245C123.849 38.8025 124.098 38.5449 124.412 38.3517C124.726 38.1586 125.081 38.0127 125.474 37.9142C125.872 37.812 126.283 37.7381 126.707 37.6926C127.219 37.6396 127.634 37.5923 127.952 37.5506C128.27 37.5051 128.501 37.437 128.645 37.3461C128.793 37.2514 128.867 37.1055 128.867 36.9086V36.8745C128.867 36.4464 128.74 36.115 128.486 35.8801C128.232 35.6453 127.867 35.5279 127.389 35.5279C126.885 35.5279 126.486 35.6377 126.19 35.8574C125.899 36.0771 125.702 36.3366 125.599 36.6358L123.679 36.3631C123.831 35.8328 124.081 35.3896 124.429 35.0336C124.778 34.6737 125.204 34.4048 125.707 34.2267C126.211 34.0449 126.768 33.954 127.378 33.954C127.798 33.954 128.217 34.0033 128.634 34.1017C129.05 34.2002 129.431 34.3631 129.776 34.5904C130.12 34.8139 130.397 35.1188 130.605 35.5051C130.817 35.8915 130.923 36.3745 130.923 36.954V42.7949H128.946V41.5961H128.878C128.753 41.8385 128.577 42.0658 128.349 42.2779C128.126 42.4862 127.844 42.6548 127.503 42.7836C127.166 42.9086 126.77 42.9711 126.315 42.9711ZM126.849 41.4597C127.262 41.4597 127.62 41.3783 127.923 41.2154C128.226 41.0487 128.459 40.829 128.622 40.5563C128.789 40.2836 128.872 39.9862 128.872 39.6642V38.6358C128.808 38.6889 128.698 38.7381 128.543 38.7836C128.391 38.829 128.221 38.8688 128.031 38.9029C127.842 38.937 127.654 38.9673 127.469 38.9938C127.283 39.0203 127.122 39.043 126.986 39.062C126.679 39.1036 126.404 39.1718 126.162 39.2665C125.92 39.3612 125.728 39.4938 125.588 39.6642C125.448 39.8309 125.378 40.0468 125.378 40.312C125.378 40.6908 125.516 40.9767 125.793 41.1699C126.069 41.3631 126.421 41.4597 126.849 41.4597ZM132.832 42.7949V34.0676H134.826V35.5222H134.917C135.076 35.0184 135.349 34.6301 135.735 34.3574C136.125 34.0809 136.57 33.9426 137.07 33.9426C137.184 33.9426 137.311 33.9483 137.451 33.9597C137.595 33.9673 137.714 33.9805 137.809 33.9995V35.8915C137.722 35.8612 137.583 35.8347 137.394 35.812C137.208 35.7855 137.028 35.7722 136.854 35.7722C136.479 35.7722 136.142 35.8536 135.843 36.0165C135.547 36.1756 135.314 36.3972 135.144 36.6813C134.974 36.9654 134.888 37.293 134.888 37.6642V42.7949H132.832ZM146.631 42.9654C145.76 42.9654 145.012 42.7741 144.387 42.3915C143.765 42.0089 143.286 41.4805 142.949 40.8063C142.616 40.1283 142.449 39.348 142.449 38.4654C142.449 37.579 142.619 36.7968 142.96 36.1188C143.301 35.437 143.782 34.9067 144.404 34.5279C145.029 34.1453 145.767 33.954 146.619 33.954C147.328 33.954 147.955 34.0847 148.5 34.3461C149.049 34.6036 149.487 34.9692 149.813 35.4426C150.138 35.9123 150.324 36.4616 150.369 37.0904H148.404C148.324 36.6699 148.135 36.3195 147.835 36.0392C147.54 35.7551 147.144 35.6131 146.648 35.6131C146.227 35.6131 145.858 35.7267 145.54 35.954C145.222 36.1775 144.974 36.4995 144.796 36.9199C144.621 37.3404 144.534 37.8442 144.534 38.4313C144.534 39.026 144.621 39.5373 144.796 39.9654C144.97 40.3896 145.214 40.7173 145.529 40.9483C145.847 41.1756 146.22 41.2892 146.648 41.2892C146.951 41.2892 147.222 41.2324 147.46 41.1188C147.703 41.0014 147.905 40.8328 148.068 40.6131C148.231 40.3934 148.343 40.1264 148.404 39.812H150.369C150.32 40.4294 150.138 40.9767 149.824 41.454C149.51 41.9275 149.082 42.2987 148.54 42.5676C147.998 42.8328 147.362 42.9654 146.631 42.9654ZM153.955 37.6813V42.7949H151.898V31.1586H153.91V35.5506H154.012C154.217 35.0582 154.533 34.6699 154.961 34.3858C155.393 34.098 155.942 33.954 156.609 33.954C157.215 33.954 157.743 34.0809 158.194 34.3347C158.645 34.5885 158.993 34.9597 159.239 35.4483C159.489 35.937 159.614 36.5336 159.614 37.2381V42.7949H157.557V37.5563C157.557 36.9692 157.406 36.5127 157.103 36.187C156.804 35.8574 156.383 35.6926 155.842 35.6926C155.478 35.6926 155.152 35.7722 154.864 35.9313C154.58 36.0866 154.357 36.312 154.194 36.6074C154.035 36.9029 153.955 37.2608 153.955 37.6813ZM164.062 42.9711C163.509 42.9711 163.011 42.8726 162.568 42.6756C162.129 42.4748 161.78 42.1794 161.522 41.7892C161.269 41.3991 161.142 40.918 161.142 40.3461C161.142 39.8536 161.233 39.4464 161.415 39.1245C161.596 38.8025 161.844 38.5449 162.159 38.3517C162.473 38.1586 162.827 38.0127 163.221 37.9142C163.619 37.812 164.03 37.7381 164.454 37.6926C164.966 37.6396 165.38 37.5923 165.699 37.5506C166.017 37.5051 166.248 37.437 166.392 37.3461C166.54 37.2514 166.613 37.1055 166.613 36.9086V36.8745C166.613 36.4464 166.487 36.115 166.233 35.8801C165.979 35.6453 165.613 35.5279 165.136 35.5279C164.632 35.5279 164.233 35.6377 163.937 35.8574C163.646 36.0771 163.449 36.3366 163.346 36.6358L161.426 36.3631C161.577 35.8328 161.827 35.3896 162.176 35.0336C162.524 34.6737 162.951 34.4048 163.454 34.2267C163.958 34.0449 164.515 33.954 165.125 33.954C165.545 33.954 165.964 34.0033 166.38 34.1017C166.797 34.2002 167.178 34.3631 167.522 34.5904C167.867 34.8139 168.144 35.1188 168.352 35.5051C168.564 35.8915 168.67 36.3745 168.67 36.954V42.7949H166.693V41.5961H166.625C166.5 41.8385 166.324 42.0658 166.096 42.2779C165.873 42.4862 165.591 42.6548 165.25 42.7836C164.913 42.9086 164.517 42.9711 164.062 42.9711ZM164.596 41.4597C165.009 41.4597 165.367 41.3783 165.67 41.2154C165.973 41.0487 166.206 40.829 166.369 40.5563C166.536 40.2836 166.619 39.9862 166.619 39.6642V38.6358C166.555 38.6889 166.445 38.7381 166.29 38.7836C166.138 38.829 165.968 38.8688 165.778 38.9029C165.589 38.937 165.401 38.9673 165.216 38.9938C165.03 39.0203 164.869 39.043 164.733 39.062C164.426 39.1036 164.151 39.1718 163.909 39.2665C163.666 39.3612 163.475 39.4938 163.335 39.6642C163.195 39.8309 163.125 40.0468 163.125 40.312C163.125 40.6908 163.263 40.9767 163.54 41.1699C163.816 41.3631 164.168 41.4597 164.596 41.4597ZM178.061 34.0676L174.953 42.7949H172.681L169.573 34.0676H171.766L173.772 40.5506H173.862L175.874 34.0676H178.061ZM182.891 42.9654C182.016 42.9654 181.261 42.7836 180.624 42.4199C179.992 42.0525 179.505 41.5336 179.164 40.8631C178.823 40.1889 178.653 39.3953 178.653 38.4824C178.653 37.5847 178.823 36.7968 179.164 36.1188C179.509 35.437 179.99 34.9067 180.607 34.5279C181.225 34.1453 181.95 33.954 182.783 33.954C183.321 33.954 183.829 34.0411 184.306 34.2154C184.787 34.3858 185.211 34.651 185.579 35.0108C185.95 35.3707 186.242 35.829 186.454 36.3858C186.666 36.9389 186.772 37.598 186.772 38.3631V38.9938H179.619V37.6074H184.801C184.797 37.2135 184.711 36.8631 184.545 36.5563C184.378 36.2457 184.145 36.0014 183.846 35.8233C183.551 35.6453 183.206 35.5563 182.812 35.5563C182.391 35.5563 182.022 35.6586 181.704 35.8631C181.386 36.0639 181.138 36.329 180.96 36.6586C180.785 36.9843 180.696 37.3423 180.693 37.7324V38.9426C180.693 39.4502 180.785 39.8858 180.971 40.2495C181.157 40.6093 181.416 40.8858 181.749 41.079C182.083 41.2684 182.473 41.3631 182.92 41.3631C183.219 41.3631 183.49 41.3214 183.732 41.2381C183.975 41.151 184.185 41.0241 184.363 40.8574C184.541 40.6908 184.676 40.4843 184.766 40.2381L186.687 40.454C186.566 40.9616 186.335 41.4048 185.994 41.7836C185.657 42.1586 185.225 42.4502 184.698 42.6586C184.172 42.8631 183.569 42.9654 182.891 42.9654Z" fill="#00051B"/>
</svg>
