<svg width="48" height="48" viewBox="0 0 48 48" fill="none" xmlns="http://www.w3.org/2000/svg">
<rect width="48" height="48" rx="24" fill="#ECECEC"/>
<mask id="mask0_384_3854" style="mask-type:alpha" maskUnits="userSpaceOnUse" x="12" y="12" width="24" height="24">
<rect x="12" y="12" width="24" height="24" fill="#D9D9D9"/>
</mask>
<g mask="url(#mask0_384_3854)">
<path d="M26 25H31V23H26V25ZM26 22H31V20H26V22ZM17 28H25V27.45C25 26.7 24.6333 26.1042 23.9 25.6625C23.1667 25.2208 22.2 25 21 25C19.8 25 18.8333 25.2208 18.1 25.6625C17.3667 26.1042 17 26.7 17 27.45V28ZM21 24C21.55 24 22.0208 23.8042 22.4125 23.4125C22.8042 23.0208 23 22.55 23 22C23 21.45 22.8042 20.9792 22.4125 20.5875C22.0208 20.1958 21.55 20 21 20C20.45 20 19.9792 20.1958 19.5875 20.5875C19.1958 20.9792 19 21.45 19 22C19 22.55 19.1958 23.0208 19.5875 23.4125C19.9792 23.8042 20.45 24 21 24ZM16 32C15.45 32 14.9792 31.8042 14.5875 31.4125C14.1958 31.0208 14 30.55 14 30V18C14 17.45 14.1958 16.9792 14.5875 16.5875C14.9792 16.1958 15.45 16 16 16H32C32.55 16 33.0208 16.1958 33.4125 16.5875C33.8042 16.9792 34 17.45 34 18V30C34 30.55 33.8042 31.0208 33.4125 31.4125C33.0208 31.8042 32.55 32 32 32H16ZM16 30H32V18H16V30Z" fill="#00051B"/>
</g>
</svg>
