<svg width="350" height="75" viewBox="0 0 350 75" fill="none" xmlns="http://www.w3.org/2000/svg">
<rect y="0.590332" width="350" height="73.5902" rx="12" fill="#FFE8E6"/>
<rect x="20" y="13.5903" width="47.5902" height="47.5902" rx="23.7951" fill="#E72417"/>
<mask id="mask0_556_1094" style="mask-type:alpha" maskUnits="userSpaceOnUse" x="32" y="25" width="24" height="25">
<rect x="32" y="25.3613" width="24" height="24" fill="#D9D9D9"/>
</mask>
<g mask="url(#mask0_556_1094)">
<path d="M39 46.3613C38.45 46.3613 37.9792 46.1655 37.5875 45.7738C37.1958 45.3822 37 44.9113 37 44.3613V31.3613H36V29.3613H41V28.3613H47V29.3613H52V31.3613H51V44.3613C51 44.9113 50.8042 45.3822 50.4125 45.7738C50.0208 46.1655 49.55 46.3613 49 46.3613H39ZM49 31.3613H39V44.3613H49V31.3613ZM41 42.3613H43V33.3613H41V42.3613ZM45 42.3613H47V33.3613H45V42.3613Z" fill="#F9FAFC"/>
</g>
<path d="M88.7381 43.3853V31.7489H96.3062V33.5159H90.846V36.675H95.9142V38.4421H90.846V41.6182H96.3517V43.3853H88.7381ZM99.8877 34.658L101.649 37.8796L103.439 34.658H105.615L102.984 39.0216L105.66 43.3853H103.496L101.649 40.2432L99.8195 43.3853H97.6377L100.297 39.0216L97.7059 34.658H99.8877ZM110.525 43.5557C109.653 43.5557 108.905 43.3644 108.28 42.9818C107.659 42.5993 107.18 42.0709 106.843 41.3966C106.509 40.7186 106.343 39.9383 106.343 39.0557C106.343 38.1693 106.513 37.3871 106.854 36.7091C107.195 36.0273 107.676 35.497 108.297 35.1182C108.922 34.7356 109.661 34.5443 110.513 34.5443C111.222 34.5443 111.848 34.675 112.394 34.9364C112.943 35.194 113.381 35.5595 113.706 36.033C114.032 36.5027 114.218 37.0519 114.263 37.6807H112.297C112.218 37.2603 112.028 36.9099 111.729 36.6296C111.434 36.3455 111.038 36.2034 110.542 36.2034C110.121 36.2034 109.752 36.3171 109.434 36.5443C109.116 36.7678 108.867 37.0898 108.689 37.5103C108.515 37.9307 108.428 38.4345 108.428 39.0216C108.428 39.6163 108.515 40.1277 108.689 40.5557C108.864 40.98 109.108 41.3076 109.422 41.5387C109.741 41.7659 110.114 41.8796 110.542 41.8796C110.845 41.8796 111.116 41.8228 111.354 41.7091C111.597 41.5917 111.799 41.4231 111.962 41.2034C112.125 40.9837 112.237 40.7167 112.297 40.4023H114.263C114.214 41.0197 114.032 41.5671 113.718 42.0443C113.403 42.5178 112.975 42.889 112.434 43.158C111.892 43.4231 111.256 43.5557 110.525 43.5557ZM117.849 31.7489V43.3853H115.792V31.7489H117.849ZM125.367 39.7148V34.658H127.423V43.3853H125.429V41.8341H125.338C125.141 42.3228 124.817 42.7224 124.367 43.033C123.92 43.3436 123.368 43.4989 122.713 43.4989C122.141 43.4989 121.635 43.372 121.196 43.1182C120.76 42.8606 120.42 42.4875 120.173 41.9989C119.927 41.5065 119.804 40.9118 119.804 40.2148V34.658H121.861V39.8966C121.861 40.4496 122.012 40.889 122.315 41.2148C122.618 41.5406 123.016 41.7034 123.509 41.7034C123.812 41.7034 124.105 41.6296 124.389 41.4818C124.673 41.3341 124.906 41.1144 125.088 40.8228C125.274 40.5273 125.367 40.158 125.367 39.7148ZM129.378 43.3853V34.658H131.435V43.3853H129.378ZM130.412 33.4193C130.087 33.4193 129.806 33.3114 129.572 33.0955C129.337 32.8758 129.219 32.6125 129.219 32.3057C129.219 31.9951 129.337 31.7318 129.572 31.5159C129.806 31.2962 130.087 31.1864 130.412 31.1864C130.742 31.1864 131.022 31.2962 131.253 31.5159C131.488 31.7318 131.606 31.9951 131.606 32.3057C131.606 32.6125 131.488 32.8758 131.253 33.0955C131.022 33.3114 130.742 33.4193 130.412 33.4193ZM133.39 43.3853V34.658H135.385V36.1125H135.476C135.635 35.6087 135.907 35.2205 136.294 34.9478C136.684 34.6712 137.129 34.533 137.629 34.533C137.743 34.533 137.869 34.5387 138.01 34.55C138.154 34.5576 138.273 34.5709 138.368 34.5898V36.4818C138.28 36.4515 138.142 36.425 137.953 36.4023C137.767 36.3758 137.587 36.3625 137.413 36.3625C137.038 36.3625 136.701 36.444 136.402 36.6068C136.106 36.7659 135.873 36.9875 135.703 37.2716C135.532 37.5557 135.447 37.8834 135.447 38.2546V43.3853H133.39ZM147.19 43.5557C146.318 43.5557 145.57 43.3644 144.945 42.9818C144.324 42.5993 143.845 42.0709 143.508 41.3966C143.174 40.7186 143.008 39.9383 143.008 39.0557C143.008 38.1693 143.178 37.3871 143.519 36.7091C143.86 36.0273 144.341 35.497 144.962 35.1182C145.587 34.7356 146.326 34.5443 147.178 34.5443C147.887 34.5443 148.513 34.675 149.059 34.9364C149.608 35.194 150.046 35.5595 150.371 36.033C150.697 36.5027 150.883 37.0519 150.928 37.6807H148.962C148.883 37.2603 148.693 36.9099 148.394 36.6296C148.099 36.3455 147.703 36.2034 147.207 36.2034C146.786 36.2034 146.417 36.3171 146.099 36.5443C145.781 36.7678 145.532 37.0898 145.354 37.5103C145.18 37.9307 145.093 38.4345 145.093 39.0216C145.093 39.6163 145.18 40.1277 145.354 40.5557C145.529 40.98 145.773 41.3076 146.087 41.5387C146.406 41.7659 146.779 41.8796 147.207 41.8796C147.51 41.8796 147.781 41.8228 148.019 41.7091C148.262 41.5917 148.464 41.4231 148.627 41.2034C148.79 40.9837 148.902 40.7167 148.962 40.4023H150.928C150.879 41.0197 150.697 41.5671 150.383 42.0443C150.068 42.5178 149.64 42.889 149.099 43.158C148.557 43.4231 147.921 43.5557 147.19 43.5557ZM154.514 38.2716V43.3853H152.457V31.7489H154.469V36.1409H154.571C154.775 35.6485 155.092 35.2603 155.52 34.9762C155.951 34.6883 156.501 34.5443 157.167 34.5443C157.773 34.5443 158.302 34.6712 158.753 34.925C159.203 35.1788 159.552 35.55 159.798 36.0387C160.048 36.5273 160.173 37.1239 160.173 37.8284V43.3853H158.116V38.1466C158.116 37.5595 157.965 37.1031 157.662 36.7773C157.362 36.4478 156.942 36.283 156.4 36.283C156.037 36.283 155.711 36.3625 155.423 36.5216C155.139 36.6769 154.915 36.9023 154.753 37.1978C154.594 37.4932 154.514 37.8512 154.514 38.2716ZM164.621 43.5614C164.068 43.5614 163.57 43.4629 163.127 43.2659C162.687 43.0652 162.339 42.7697 162.081 42.3796C161.827 41.9894 161.701 41.5084 161.701 40.9364C161.701 40.444 161.791 40.0368 161.973 39.7148C162.155 39.3928 162.403 39.1353 162.718 38.9421C163.032 38.7489 163.386 38.6031 163.78 38.5046C164.178 38.4023 164.589 38.3284 165.013 38.283C165.524 38.23 165.939 38.1826 166.257 38.1409C166.576 38.0955 166.807 38.0273 166.951 37.9364C167.098 37.8417 167.172 37.6959 167.172 37.4989V37.4648C167.172 37.0368 167.045 36.7053 166.791 36.4705C166.538 36.2356 166.172 36.1182 165.695 36.1182C165.191 36.1182 164.791 36.2281 164.496 36.4478C164.204 36.6675 164.007 36.9269 163.905 37.2262L161.985 36.9534C162.136 36.4231 162.386 35.98 162.735 35.6239C163.083 35.264 163.509 34.9951 164.013 34.8171C164.517 34.6353 165.074 34.5443 165.684 34.5443C166.104 34.5443 166.523 34.5936 166.939 34.6921C167.356 34.7906 167.737 34.9534 168.081 35.1807C168.426 35.4042 168.702 35.7091 168.911 36.0955C169.123 36.4818 169.229 36.9648 169.229 37.5443V43.3853H167.252V42.1864H167.184C167.059 42.4288 166.882 42.6561 166.655 42.8682C166.432 43.0765 166.149 43.2451 165.809 43.3739C165.471 43.4989 165.076 43.5614 164.621 43.5614ZM165.155 42.05C165.568 42.05 165.926 41.9686 166.229 41.8057C166.532 41.639 166.765 41.4193 166.928 41.1466C167.095 40.8739 167.178 40.5765 167.178 40.2546V39.2262C167.113 39.2792 167.004 39.3284 166.848 39.3739C166.697 39.4193 166.526 39.4591 166.337 39.4932C166.148 39.5273 165.96 39.5576 165.774 39.5841C165.589 39.6106 165.428 39.6334 165.291 39.6523C164.985 39.694 164.71 39.7621 164.468 39.8568C164.225 39.9515 164.034 40.0841 163.894 40.2546C163.754 40.4212 163.684 40.6371 163.684 40.9023C163.684 41.2811 163.822 41.5671 164.098 41.7603C164.375 41.9534 164.727 42.05 165.155 42.05ZM178.62 34.658L175.512 43.3853H173.239L170.131 34.658H172.325L174.33 41.1409H174.421L176.433 34.658H178.62ZM183.45 43.5557C182.575 43.5557 181.819 43.3739 181.183 43.0103C180.551 42.6428 180.064 42.1239 179.723 41.4534C179.382 40.7792 179.212 39.9856 179.212 39.0728C179.212 38.175 179.382 37.3871 179.723 36.7091C180.068 36.0273 180.549 35.497 181.166 35.1182C181.783 34.7356 182.509 34.5443 183.342 34.5443C183.88 34.5443 184.388 34.6315 184.865 34.8057C185.346 34.9762 185.77 35.2413 186.138 35.6012C186.509 35.961 186.801 36.4193 187.013 36.9762C187.225 37.5292 187.331 38.1883 187.331 38.9534V39.5841H180.177V38.1978H185.359C185.355 37.8038 185.27 37.4534 185.104 37.1466C184.937 36.836 184.704 36.5917 184.405 36.4137C184.109 36.2356 183.765 36.1466 183.371 36.1466C182.95 36.1466 182.581 36.2489 182.263 36.4534C181.944 36.6542 181.696 36.9193 181.518 37.2489C181.344 37.5746 181.255 37.9326 181.251 38.3228V39.533C181.251 40.0406 181.344 40.4762 181.53 40.8398C181.715 41.1996 181.975 41.4762 182.308 41.6693C182.641 41.8587 183.032 41.9534 183.479 41.9534C183.778 41.9534 184.049 41.9118 184.291 41.8284C184.533 41.7413 184.744 41.6144 184.922 41.4478C185.1 41.2811 185.234 41.0746 185.325 40.8284L187.246 41.0443C187.124 41.5519 186.893 41.9951 186.552 42.3739C186.215 42.7489 185.783 43.0406 185.257 43.2489C184.73 43.4534 184.128 43.5557 183.45 43.5557Z" fill="#E72417"/>
</svg>
