<svg width="351" height="54" viewBox="0 0 351 54" fill="none" xmlns="http://www.w3.org/2000/svg">
<rect width="351" height="54" rx="27" fill="#1313F2"/>
<path d="M83.5043 32V21.8182H87.3224C88.1046 21.8182 88.7609 21.9541 89.2912 22.2259C89.8248 22.4976 90.2275 22.8788 90.4993 23.3693C90.7744 23.8565 90.9119 24.425 90.9119 25.0746C90.9119 25.7275 90.7727 26.2943 90.4943 26.7749C90.2192 27.2521 89.8132 27.6217 89.2763 27.8835C88.7393 28.142 88.0798 28.2713 87.2976 28.2713H84.5781V26.7401H87.049C87.5064 26.7401 87.8809 26.6771 88.1726 26.5511C88.4643 26.4219 88.6797 26.2346 88.8189 25.9893C88.9614 25.7408 89.0327 25.4358 89.0327 25.0746C89.0327 24.7133 88.9614 24.4051 88.8189 24.1499C88.6764 23.8913 88.4593 23.6958 88.1676 23.5632C87.8759 23.4273 87.4998 23.3594 87.0391 23.3594H85.3487V32H83.5043ZM88.7642 27.3864L91.2848 32H89.2266L86.7507 27.3864H88.7642ZM95.8015 32.1491C95.0359 32.1491 94.3746 31.9901 93.8178 31.6719C93.2643 31.3504 92.8384 30.8963 92.5401 30.3097C92.2418 29.7197 92.0927 29.0253 92.0927 28.2266C92.0927 27.4411 92.2418 26.7517 92.5401 26.1584C92.8417 25.5618 93.2627 25.0978 93.8029 24.7663C94.3432 24.4316 94.9779 24.2642 95.707 24.2642C96.1777 24.2642 96.6218 24.3404 97.0394 24.4929C97.4603 24.642 97.8316 24.8741 98.1531 25.1889C98.4779 25.5038 98.7331 25.9048 98.9187 26.392C99.1043 26.8759 99.1971 27.4527 99.1971 28.1222V28.674H92.9379V27.4609H97.4719C97.4686 27.1162 97.3941 26.8097 97.2482 26.5412C97.1024 26.2694 96.8986 26.0556 96.6367 25.8999C96.3782 25.7441 96.0766 25.6662 95.7319 25.6662C95.364 25.6662 95.0408 25.7557 94.7624 25.9347C94.484 26.1103 94.2669 26.3423 94.1112 26.6307C93.9587 26.9157 93.8808 27.2289 93.8775 27.5703V28.6293C93.8775 29.0734 93.9587 29.4545 94.1211 29.7727C94.2835 30.0876 94.5105 30.3295 94.8022 30.4986C95.0939 30.6643 95.4353 30.7472 95.8263 30.7472C96.0882 30.7472 96.3252 30.7107 96.5373 30.6378C96.7494 30.5616 96.9334 30.4505 97.0891 30.3047C97.2449 30.1589 97.3626 29.9782 97.4421 29.7628L99.1225 29.9517C99.0165 30.3958 98.8143 30.7836 98.516 31.1151C98.221 31.4432 97.8432 31.6984 97.3825 31.8807C96.9218 32.0597 96.3948 32.1491 95.8015 32.1491ZM104.041 35.0227C103.394 35.0227 102.839 34.9349 102.375 34.7592C101.911 34.5869 101.538 34.3549 101.257 34.0632C100.975 33.7715 100.779 33.4484 100.67 33.0938L102.291 32.701C102.364 32.8501 102.47 32.9976 102.609 33.1435C102.748 33.2926 102.935 33.4152 103.171 33.5114C103.409 33.6108 103.709 33.6605 104.07 33.6605C104.581 33.6605 105.003 33.5362 105.338 33.2876C105.673 33.0424 105.84 32.638 105.84 32.0746V30.6278H105.751C105.658 30.8134 105.522 31.004 105.343 31.1996C105.168 31.3951 104.934 31.5592 104.642 31.6918C104.354 31.8243 103.991 31.8906 103.553 31.8906C102.967 31.8906 102.435 31.7531 101.958 31.478C101.484 31.1996 101.106 30.7853 100.824 30.2351C100.546 29.6816 100.406 28.9889 100.406 28.157C100.406 27.3184 100.546 26.6108 100.824 26.0341C101.106 25.4541 101.485 25.0149 101.963 24.7166C102.44 24.415 102.972 24.2642 103.558 24.2642C104.006 24.2642 104.374 24.3404 104.662 24.4929C104.954 24.642 105.186 24.8227 105.358 25.0348C105.53 25.2436 105.661 25.4408 105.751 25.6264H105.85V24.3636H107.625V32.1243C107.625 32.7772 107.469 33.3175 107.158 33.745C106.846 34.1726 106.42 34.4924 105.88 34.7045C105.34 34.9167 104.727 35.0227 104.041 35.0227ZM104.056 30.4787C104.437 30.4787 104.762 30.3859 105.03 30.2003C105.298 30.0147 105.502 29.7479 105.642 29.3999C105.781 29.0518 105.85 28.6342 105.85 28.147C105.85 27.6664 105.781 27.2455 105.642 26.8842C105.506 26.523 105.303 26.2429 105.035 26.044C104.77 25.8419 104.443 25.7408 104.056 25.7408C103.655 25.7408 103.32 25.8452 103.051 26.054C102.783 26.2628 102.581 26.5495 102.445 26.9141C102.309 27.2753 102.241 27.6863 102.241 28.147C102.241 28.6143 102.309 29.0237 102.445 29.375C102.584 29.723 102.788 29.9948 103.056 30.1903C103.328 30.3826 103.661 30.4787 104.056 30.4787ZM109.47 32V24.3636H111.269V32H109.47ZM110.374 23.2798C110.089 23.2798 109.844 23.1854 109.639 22.9964C109.433 22.8042 109.33 22.5739 109.33 22.3054C109.33 22.0336 109.433 21.8033 109.639 21.6143C109.844 21.4221 110.089 21.326 110.374 21.326C110.663 21.326 110.908 21.4221 111.11 21.6143C111.316 21.8033 111.419 22.0336 111.419 22.3054C111.419 22.5739 111.316 22.8042 111.11 22.9964C110.908 23.1854 110.663 23.2798 110.374 23.2798ZM119.156 26.3821L117.515 26.5611C117.469 26.3954 117.387 26.2396 117.271 26.0938C117.159 25.9479 117.006 25.8303 116.814 25.7408C116.622 25.6513 116.386 25.6065 116.108 25.6065C115.733 25.6065 115.419 25.6877 115.163 25.8501C114.911 26.0125 114.787 26.223 114.79 26.4815C114.787 26.7036 114.868 26.8842 115.034 27.0234C115.203 27.1626 115.482 27.277 115.869 27.3665L117.172 27.6449C117.894 27.8007 118.431 28.0476 118.783 28.3857C119.137 28.7237 119.316 29.1662 119.32 29.7131C119.316 30.1937 119.175 30.6179 118.897 30.9858C118.622 31.3504 118.239 31.6354 117.749 31.8409C117.258 32.0464 116.695 32.1491 116.058 32.1491C115.124 32.1491 114.371 31.9536 113.801 31.5625C113.231 31.1681 112.891 30.6196 112.782 29.9169L114.537 29.7479C114.616 30.0926 114.786 30.3527 115.044 30.5284C115.303 30.7041 115.639 30.7919 116.053 30.7919C116.481 30.7919 116.824 30.7041 117.082 30.5284C117.344 30.3527 117.475 30.1357 117.475 29.8771C117.475 29.6584 117.391 29.4777 117.222 29.3352C117.056 29.1927 116.797 29.0833 116.446 29.0071L115.143 28.7337C114.411 28.5812 113.869 28.3243 113.518 27.9631C113.166 27.5985 112.992 27.1378 112.996 26.581C112.992 26.1103 113.12 25.7027 113.379 25.358C113.64 25.0099 114.003 24.7415 114.467 24.5526C114.935 24.3603 115.473 24.2642 116.083 24.2642C116.978 24.2642 117.682 24.4548 118.196 24.8359C118.713 25.2171 119.033 25.7325 119.156 26.3821ZM124.617 24.3636V25.7557H120.227V24.3636H124.617ZM121.311 22.5341H123.11V29.7031C123.11 29.9451 123.147 30.1307 123.22 30.2599C123.296 30.3859 123.395 30.4721 123.518 30.5185C123.641 30.5649 123.777 30.5881 123.926 30.5881C124.038 30.5881 124.141 30.5798 124.234 30.5632C124.33 30.5466 124.403 30.5317 124.453 30.5185L124.756 31.9254C124.66 31.9586 124.522 31.995 124.343 32.0348C124.168 32.0746 123.952 32.0978 123.697 32.1044C123.246 32.1177 122.84 32.0497 122.479 31.9006C122.118 31.7481 121.831 31.5128 121.619 31.1946C121.41 30.8764 121.307 30.4787 121.311 30.0014V22.5341ZM126.122 32V24.3636H127.867V25.6364H127.947C128.086 25.1955 128.324 24.8558 128.662 24.6172C129.004 24.3752 129.393 24.2543 129.831 24.2543C129.93 24.2543 130.041 24.2592 130.164 24.2692C130.29 24.2758 130.394 24.2874 130.477 24.304V25.9595C130.401 25.933 130.28 25.9098 130.114 25.8899C129.952 25.8667 129.794 25.8551 129.642 25.8551C129.314 25.8551 129.019 25.9264 128.757 26.0689C128.498 26.2081 128.295 26.402 128.145 26.6506C127.996 26.8991 127.922 27.1858 127.922 27.5107V32H126.122ZM133.733 32.1541C133.25 32.1541 132.814 32.0679 132.426 31.8956C132.041 31.7199 131.737 31.4614 131.511 31.12C131.289 30.7786 131.178 30.3577 131.178 29.8572C131.178 29.4264 131.258 29.0701 131.417 28.7884C131.576 28.5066 131.793 28.2812 132.068 28.1122C132.343 27.9432 132.653 27.8156 132.998 27.7294C133.346 27.6399 133.705 27.5753 134.077 27.5355C134.524 27.4891 134.887 27.4477 135.165 27.4112C135.444 27.3714 135.646 27.3118 135.772 27.2322C135.901 27.1494 135.966 27.0218 135.966 26.8494V26.8196C135.966 26.4451 135.855 26.1551 135.633 25.9496C135.411 25.7441 135.091 25.6413 134.673 25.6413C134.232 25.6413 133.883 25.7375 133.624 25.9297C133.369 26.1219 133.197 26.349 133.107 26.6108L131.427 26.3722C131.559 25.9081 131.778 25.5204 132.083 25.2088C132.388 24.8939 132.761 24.6586 133.202 24.5028C133.642 24.3438 134.13 24.2642 134.663 24.2642C135.031 24.2642 135.397 24.3073 135.762 24.3935C136.126 24.4796 136.46 24.6222 136.761 24.821C137.063 25.0166 137.305 25.2834 137.487 25.6214C137.673 25.9595 137.765 26.3821 137.765 26.8892V32H136.035V30.951H135.976C135.866 31.1631 135.712 31.362 135.513 31.5476C135.318 31.7299 135.071 31.8774 134.773 31.9901C134.478 32.0994 134.131 32.1541 133.733 32.1541ZM134.201 30.8317C134.562 30.8317 134.875 30.7604 135.14 30.6179C135.406 30.4721 135.609 30.2798 135.752 30.0412C135.898 29.8026 135.971 29.5424 135.971 29.2607V28.3608C135.914 28.4072 135.818 28.4503 135.682 28.4901C135.55 28.5298 135.401 28.5646 135.235 28.5945C135.069 28.6243 134.905 28.6508 134.743 28.674C134.58 28.6972 134.439 28.7171 134.32 28.7337C134.052 28.7701 133.811 28.8298 133.599 28.9126C133.387 28.9955 133.22 29.1115 133.097 29.2607C132.974 29.4065 132.913 29.5954 132.913 29.8274C132.913 30.1589 133.034 30.4091 133.276 30.5781C133.518 30.7472 133.826 30.8317 134.201 30.8317ZM139.575 32V24.3636H141.32V25.6364H141.4C141.539 25.1955 141.778 24.8558 142.116 24.6172C142.457 24.3752 142.846 24.2543 143.284 24.2543C143.383 24.2543 143.494 24.2592 143.617 24.2692C143.743 24.2758 143.847 24.2874 143.93 24.304V25.9595C143.854 25.933 143.733 25.9098 143.567 25.8899C143.405 25.8667 143.247 25.8551 143.095 25.8551C142.767 25.8551 142.472 25.9264 142.21 26.0689C141.952 26.2081 141.748 26.402 141.599 26.6506C141.449 26.8991 141.375 27.1858 141.375 27.5107V32H139.575ZM150.398 27.5256V32H148.599V24.3636H150.319V25.6612H150.408C150.584 25.2337 150.864 24.8939 151.248 24.642C151.636 24.3902 152.115 24.2642 152.685 24.2642C153.212 24.2642 153.671 24.3769 154.062 24.6023C154.457 24.8277 154.762 25.1541 154.977 25.5817C155.196 26.0092 155.304 26.5279 155.3 27.1378V32H153.501V27.4162C153.501 26.9058 153.368 26.5064 153.103 26.218C152.841 25.9297 152.478 25.7855 152.014 25.7855C151.699 25.7855 151.419 25.8551 151.174 25.9943C150.932 26.1302 150.741 26.3274 150.602 26.5859C150.466 26.8445 150.398 27.1577 150.398 27.5256ZM160.461 32.1491C159.715 32.1491 159.069 31.9851 158.522 31.657C157.975 31.3288 157.551 30.8698 157.249 30.2798C156.951 29.6899 156.802 29.0005 156.802 28.2116C156.802 27.4228 156.951 26.7318 157.249 26.1385C157.551 25.5452 157.975 25.0845 158.522 24.7564C159.069 24.4283 159.715 24.2642 160.461 24.2642C161.206 24.2642 161.853 24.4283 162.4 24.7564C162.947 25.0845 163.369 25.5452 163.667 26.1385C163.969 26.7318 164.12 27.4228 164.12 28.2116C164.12 29.0005 163.969 29.6899 163.667 30.2798C163.369 30.8698 162.947 31.3288 162.4 31.657C161.853 31.9851 161.206 32.1491 160.461 32.1491ZM160.471 30.7074C160.875 30.7074 161.213 30.5964 161.485 30.3743C161.757 30.1489 161.959 29.8473 162.091 29.4695C162.227 29.0916 162.295 28.6707 162.295 28.2067C162.295 27.7393 162.227 27.3168 162.091 26.9389C161.959 26.5578 161.757 26.2545 161.485 26.0291C161.213 25.8037 160.875 25.6911 160.471 25.6911C160.056 25.6911 159.712 25.8037 159.437 26.0291C159.165 26.2545 158.961 26.5578 158.825 26.9389C158.693 27.3168 158.626 27.7393 158.626 28.2067C158.626 28.6707 158.693 29.0916 158.825 29.4695C158.961 29.8473 159.165 30.1489 159.437 30.3743C159.712 30.5964 160.056 30.7074 160.471 30.7074ZM172.209 24.3636L169.489 32H167.501L164.781 24.3636H166.7L168.455 30.0362H168.535L170.295 24.3636H172.209ZM175.433 32.1541C174.949 32.1541 174.513 32.0679 174.125 31.8956C173.741 31.7199 173.436 31.4614 173.21 31.12C172.988 30.7786 172.877 30.3577 172.877 29.8572C172.877 29.4264 172.957 29.0701 173.116 28.7884C173.275 28.5066 173.492 28.2812 173.767 28.1122C174.042 27.9432 174.352 27.8156 174.697 27.7294C175.045 27.6399 175.405 27.5753 175.776 27.5355C176.223 27.4891 176.586 27.4477 176.865 27.4112C177.143 27.3714 177.345 27.3118 177.471 27.2322C177.6 27.1494 177.665 27.0218 177.665 26.8494V26.8196C177.665 26.4451 177.554 26.1551 177.332 25.9496C177.11 25.7441 176.79 25.6413 176.372 25.6413C175.932 25.6413 175.582 25.7375 175.323 25.9297C175.068 26.1219 174.896 26.349 174.806 26.6108L173.126 26.3722C173.258 25.9081 173.477 25.5204 173.782 25.2088C174.087 24.8939 174.46 24.6586 174.901 24.5028C175.342 24.3438 175.829 24.2642 176.362 24.2642C176.73 24.2642 177.097 24.3073 177.461 24.3935C177.826 24.4796 178.159 24.6222 178.46 24.821C178.762 25.0166 179.004 25.2834 179.186 25.6214C179.372 25.9595 179.465 26.3821 179.465 26.8892V32H177.735V30.951H177.675C177.566 31.1631 177.411 31.362 177.213 31.5476C177.017 31.7299 176.77 31.8774 176.472 31.9901C176.177 32.0994 175.83 32.1541 175.433 32.1541ZM175.9 30.8317C176.261 30.8317 176.575 30.7604 176.84 30.6179C177.105 30.4721 177.309 30.2798 177.451 30.0412C177.597 29.8026 177.67 29.5424 177.67 29.2607V28.3608C177.614 28.4072 177.517 28.4503 177.382 28.4901C177.249 28.5298 177.1 28.5646 176.934 28.5945C176.768 28.6243 176.604 28.6508 176.442 28.674C176.28 28.6972 176.139 28.7171 176.019 28.7337C175.751 28.7701 175.511 28.8298 175.298 28.9126C175.086 28.9955 174.919 29.1115 174.796 29.2607C174.674 29.4065 174.612 29.5954 174.612 29.8274C174.612 30.1589 174.733 30.4091 174.975 30.5781C175.217 30.7472 175.526 30.8317 175.9 30.8317ZM188.078 32.1491C187.316 32.1491 186.661 31.9818 186.114 31.647C185.571 31.3123 185.151 30.8499 184.856 30.2599C184.565 29.6667 184.419 28.9839 184.419 28.2116C184.419 27.4361 184.568 26.7517 184.866 26.1584C185.165 25.5618 185.586 25.0978 186.129 24.7663C186.676 24.4316 187.322 24.2642 188.068 24.2642C188.688 24.2642 189.236 24.3786 189.714 24.6072C190.194 24.8326 190.577 25.1525 190.862 25.5668C191.147 25.9777 191.309 26.4583 191.349 27.0085H189.629C189.559 26.6406 189.394 26.334 189.132 26.0888C188.873 25.8402 188.527 25.7159 188.093 25.7159C187.725 25.7159 187.402 25.8153 187.123 26.0142C186.845 26.2098 186.628 26.4915 186.472 26.8594C186.32 27.2273 186.243 27.6681 186.243 28.1818C186.243 28.7022 186.32 29.1496 186.472 29.5241C186.625 29.8954 186.838 30.1821 187.113 30.3842C187.392 30.5831 187.718 30.6825 188.093 30.6825C188.358 30.6825 188.595 30.6328 188.804 30.5334C189.016 30.4306 189.193 30.2831 189.336 30.0909C189.478 29.8987 189.576 29.665 189.629 29.3899H191.349C191.306 29.9302 191.147 30.4091 190.872 30.8267C190.597 31.241 190.222 31.5658 189.748 31.8011C189.274 32.0331 188.718 32.1491 188.078 32.1491ZM194.627 27.5256V32H192.827V21.8182H194.587V25.6612H194.676C194.855 25.2304 195.132 24.8906 195.507 24.642C195.885 24.3902 196.365 24.2642 196.949 24.2642C197.479 24.2642 197.941 24.3752 198.336 24.5973C198.73 24.8194 199.035 25.1442 199.25 25.5717C199.469 25.9993 199.578 26.5213 199.578 27.1378V32H197.779V27.4162C197.779 26.9025 197.646 26.5031 197.381 26.218C197.119 25.9297 196.751 25.7855 196.277 25.7855C195.959 25.7855 195.674 25.8551 195.422 25.9943C195.174 26.1302 194.978 26.3274 194.836 26.5859C194.696 26.8445 194.627 27.1577 194.627 27.5256ZM203.61 32.1541C203.127 32.1541 202.691 32.0679 202.303 31.8956C201.918 31.7199 201.614 31.4614 201.388 31.12C201.166 30.7786 201.055 30.3577 201.055 29.8572C201.055 29.4264 201.135 29.0701 201.294 28.7884C201.453 28.5066 201.67 28.2812 201.945 28.1122C202.22 27.9432 202.53 27.8156 202.875 27.7294C203.223 27.6399 203.582 27.5753 203.953 27.5355C204.401 27.4891 204.764 27.4477 205.042 27.4112C205.321 27.3714 205.523 27.3118 205.649 27.2322C205.778 27.1494 205.843 27.0218 205.843 26.8494V26.8196C205.843 26.4451 205.732 26.1551 205.51 25.9496C205.288 25.7441 204.968 25.6413 204.55 25.6413C204.109 25.6413 203.76 25.7375 203.501 25.9297C203.246 26.1219 203.074 26.349 202.984 26.6108L201.304 26.3722C201.436 25.9081 201.655 25.5204 201.96 25.2088C202.265 24.8939 202.638 24.6586 203.078 24.5028C203.519 24.3438 204.007 24.2642 204.54 24.2642C204.908 24.2642 205.274 24.3073 205.639 24.3935C206.003 24.4796 206.337 24.6222 206.638 24.821C206.94 25.0166 207.182 25.2834 207.364 25.6214C207.55 25.9595 207.642 26.3821 207.642 26.8892V32H205.912V30.951H205.853C205.743 31.1631 205.589 31.362 205.39 31.5476C205.195 31.7299 204.948 31.8774 204.65 31.9901C204.355 32.0994 204.008 32.1541 203.61 32.1541ZM204.078 30.8317C204.439 30.8317 204.752 30.7604 205.017 30.6179C205.283 30.4721 205.486 30.2798 205.629 30.0412C205.775 29.8026 205.848 29.5424 205.848 29.2607V28.3608C205.791 28.4072 205.695 28.4503 205.559 28.4901C205.427 28.5298 205.278 28.5646 205.112 28.5945C204.946 28.6243 204.782 28.6508 204.62 28.674C204.457 28.6972 204.316 28.7171 204.197 28.7337C203.929 28.7701 203.688 28.8298 203.476 28.9126C203.264 28.9955 203.097 29.1115 202.974 29.2607C202.851 29.4065 202.79 29.5954 202.79 29.8274C202.79 30.1589 202.911 30.4091 203.153 30.5781C203.395 30.7472 203.703 30.8317 204.078 30.8317ZM216 24.3636L213.28 32H211.292L208.572 24.3636H210.491L212.246 30.0362H212.326L214.086 24.3636H216ZM220.366 32.1491C219.6 32.1491 218.939 31.9901 218.382 31.6719C217.829 31.3504 217.403 30.8963 217.105 30.3097C216.806 29.7197 216.657 29.0253 216.657 28.2266C216.657 27.4411 216.806 26.7517 217.105 26.1584C217.406 25.5618 217.827 25.0978 218.367 24.7663C218.908 24.4316 219.542 24.2642 220.271 24.2642C220.742 24.2642 221.186 24.3404 221.604 24.4929C222.025 24.642 222.396 24.8741 222.718 25.1889C223.042 25.5038 223.298 25.9048 223.483 26.392C223.669 26.8759 223.762 27.4527 223.762 28.1222V28.674H217.502V27.4609H222.036C222.033 27.1162 221.959 26.8097 221.813 26.5412C221.667 26.2694 221.463 26.0556 221.201 25.8999C220.943 25.7441 220.641 25.6662 220.296 25.6662C219.928 25.6662 219.605 25.7557 219.327 25.9347C219.048 26.1103 218.831 26.3423 218.676 26.6307C218.523 26.9157 218.445 27.2289 218.442 27.5703V28.6293C218.442 29.0734 218.523 29.4545 218.686 29.7727C218.848 30.0876 219.075 30.3295 219.367 30.4986C219.658 30.6643 220 30.7472 220.391 30.7472C220.653 30.7472 220.89 30.7107 221.102 30.6378C221.314 30.5616 221.498 30.4505 221.654 30.3047C221.809 30.1589 221.927 29.9782 222.007 29.7628L223.687 29.9517C223.581 30.3958 223.379 30.7836 223.08 31.1151C222.785 31.4432 222.408 31.6984 221.947 31.8807C221.486 32.0597 220.959 32.1491 220.366 32.1491Z" fill="#F6F6F6"/>
<mask id="mask0_384_3576" style="mask-type:alpha" maskUnits="userSpaceOnUse" x="244" y="15" width="25" height="24">
<rect x="244.5" y="15" width="24" height="24" fill="#D9D9D9"/>
</mask>
<g mask="url(#mask0_384_3576)">
<path d="M255.5 28H249.5V26H255.5V20H257.5V26H263.5V28H257.5V34H255.5V28Z" fill="#F9FAFC"/>
</g>
</svg>
