<svg width="311" height="55" viewBox="0 0 311 55" fill="none" xmlns="http://www.w3.org/2000/svg">
<rect x="0.5" y="0.590332" width="310" height="54" rx="27" fill="#00051B"/>
<path d="M137.219 25.8439H135.36C135.307 25.539 135.209 25.2688 135.067 25.0335C134.924 24.7949 134.747 24.5927 134.535 24.427C134.323 24.2613 134.081 24.137 133.809 24.0541C133.54 23.9679 133.25 23.9248 132.939 23.9248C132.385 23.9248 131.895 24.0641 131.467 24.3425C131.04 24.6176 130.705 25.0219 130.463 25.5555C130.221 26.0858 130.1 26.7338 130.1 27.4994C130.1 28.2783 130.221 28.9346 130.463 29.4682C130.708 29.9985 131.043 30.3995 131.467 30.6713C131.895 30.9398 132.384 31.074 132.934 31.074C133.239 31.074 133.524 31.0342 133.789 30.9547C134.058 30.8718 134.298 30.7508 134.51 30.5918C134.725 30.4327 134.906 30.2371 135.052 30.0051C135.201 29.7731 135.304 29.5079 135.36 29.2097L137.219 29.2196C137.15 29.7035 136.999 30.1576 136.767 30.5818C136.538 31.0061 136.238 31.3806 135.867 31.7054C135.496 32.0269 135.062 32.2788 134.565 32.4611C134.067 32.64 133.516 32.7295 132.909 32.7295C132.014 32.7295 131.215 32.5224 130.513 32.1081C129.81 31.6938 129.257 31.0955 128.852 30.3133C128.448 29.5311 128.246 28.5932 128.246 27.4994C128.246 26.4024 128.45 25.4644 128.857 24.6855C129.265 23.9033 129.82 23.3051 130.523 22.8908C131.225 22.4765 132.021 22.2693 132.909 22.2693C133.476 22.2693 134.003 22.3489 134.49 22.5079C134.977 22.667 135.411 22.9007 135.793 23.2089C136.174 23.5139 136.487 23.8884 136.732 24.3325C136.981 24.7733 137.143 25.2771 137.219 25.8439ZM141.026 32.7445C140.543 32.7445 140.107 32.6583 139.719 32.4859C139.334 32.3103 139.03 32.0517 138.804 31.7104C138.582 31.369 138.471 30.948 138.471 30.4476C138.471 30.0167 138.551 29.6604 138.71 29.3787C138.869 29.097 139.086 28.8716 139.361 28.7025C139.636 28.5335 139.946 28.4059 140.291 28.3197C140.639 28.2302 140.998 28.1656 141.369 28.1258C141.817 28.0794 142.18 28.038 142.458 28.0016C142.737 27.9618 142.939 27.9021 143.065 27.8226C143.194 27.7397 143.259 27.6121 143.259 27.4398V27.4099C143.259 27.0354 143.148 26.7454 142.926 26.5399C142.704 26.3344 142.384 26.2317 141.966 26.2317C141.525 26.2317 141.176 26.3278 140.917 26.52C140.662 26.7123 140.49 26.9393 140.4 27.2011L138.72 26.9625C138.852 26.4985 139.071 26.1107 139.376 25.7991C139.681 25.4843 140.054 25.2489 140.494 25.0932C140.935 24.9341 141.423 24.8545 141.956 24.8545C142.324 24.8545 142.69 24.8976 143.055 24.9838C143.419 25.07 143.753 25.2125 144.054 25.4114C144.356 25.6069 144.598 25.8737 144.78 26.2118C144.966 26.5498 145.058 26.9724 145.058 27.4795V32.5903H143.328V31.5413H143.269C143.159 31.7534 143.005 31.9523 142.806 32.1379C142.611 32.3202 142.364 32.4677 142.066 32.5804C141.771 32.6898 141.424 32.7445 141.026 32.7445ZM141.494 31.422C141.855 31.422 142.168 31.3507 142.433 31.2082C142.699 31.0624 142.902 30.8702 143.045 30.6315C143.191 30.3929 143.264 30.1327 143.264 29.851V28.9511C143.207 28.9975 143.111 29.0406 142.975 29.0804C142.843 29.1202 142.694 29.155 142.528 29.1848C142.362 29.2146 142.198 29.2411 142.036 29.2643C141.873 29.2875 141.732 29.3074 141.613 29.324C141.345 29.3605 141.104 29.4201 140.892 29.503C140.68 29.5858 140.513 29.7018 140.39 29.851C140.267 29.9968 140.206 30.1857 140.206 30.4177C140.206 30.7492 140.327 30.9994 140.569 31.1685C140.811 31.3375 141.119 31.422 141.494 31.422ZM148.668 22.4085V32.5903H146.868V22.4085H148.668ZM153.849 32.7395C153.087 32.7395 152.433 32.5721 151.886 32.2373C151.342 31.9026 150.923 31.4402 150.628 30.8503C150.336 30.257 150.19 29.5742 150.19 28.802C150.19 28.0264 150.339 27.342 150.638 26.7487C150.936 26.1521 151.357 25.6881 151.901 25.3567C152.447 25.0219 153.094 24.8545 153.839 24.8545C154.459 24.8545 155.008 24.9689 155.485 25.1976C155.966 25.423 156.348 25.7428 156.634 26.1571C156.919 26.5681 157.081 27.0487 157.121 27.5989H155.401C155.331 27.231 155.165 26.9244 154.903 26.6791C154.645 26.4305 154.299 26.3062 153.864 26.3062C153.496 26.3062 153.173 26.4057 152.895 26.6045C152.616 26.8001 152.399 27.0818 152.244 27.4497C152.091 27.8176 152.015 28.2584 152.015 28.7722C152.015 29.2925 152.091 29.74 152.244 30.1145C152.396 30.4857 152.61 30.7724 152.885 30.9746C153.163 31.1734 153.49 31.2729 153.864 31.2729C154.129 31.2729 154.366 31.2231 154.575 31.1237C154.787 31.021 154.965 30.8735 155.107 30.6812C155.25 30.489 155.348 30.2553 155.401 29.9802H157.121C157.078 30.5205 156.919 30.9994 156.643 31.417C156.368 31.8313 155.994 32.1561 155.52 32.3915C155.046 32.6235 154.489 32.7395 153.849 32.7395ZM163.466 29.3787V24.954H165.265V32.5903H163.52V31.2331H163.441C163.269 31.6606 162.985 32.0103 162.591 32.2821C162.2 32.5539 161.717 32.6898 161.144 32.6898C160.644 32.6898 160.201 32.5787 159.817 32.3567C159.435 32.1313 159.137 31.8048 158.922 31.3773C158.706 30.9464 158.599 30.426 158.599 29.8162V24.954H160.398V29.5378C160.398 30.0217 160.531 30.4061 160.796 30.6912C161.061 30.9762 161.409 31.1187 161.84 31.1187C162.105 31.1187 162.362 31.0541 162.611 30.9248C162.859 30.7956 163.063 30.6034 163.222 30.3481C163.385 30.0896 163.466 29.7665 163.466 29.3787ZM168.916 22.4085V32.5903H167.116V22.4085H168.916ZM172.964 32.7445C172.48 32.7445 172.044 32.6583 171.656 32.4859C171.272 32.3103 170.967 32.0517 170.742 31.7104C170.52 31.369 170.409 30.948 170.409 30.4476C170.409 30.0167 170.488 29.6604 170.647 29.3787C170.806 29.097 171.023 28.8716 171.298 28.7025C171.574 28.5335 171.883 28.4059 172.228 28.3197C172.576 28.2302 172.936 28.1656 173.307 28.1258C173.754 28.0794 174.117 28.038 174.396 28.0016C174.674 27.9618 174.876 27.9021 175.002 27.8226C175.132 27.7397 175.196 27.6121 175.196 27.4398V27.4099C175.196 27.0354 175.085 26.7454 174.863 26.5399C174.641 26.3344 174.321 26.2317 173.904 26.2317C173.463 26.2317 173.113 26.3278 172.855 26.52C172.599 26.7123 172.427 26.9393 172.338 27.2011L170.657 26.9625C170.79 26.4985 171.008 26.1107 171.313 25.7991C171.618 25.4843 171.991 25.2489 172.432 25.0932C172.873 24.9341 173.36 24.8545 173.894 24.8545C174.262 24.8545 174.628 24.8976 174.992 24.9838C175.357 25.07 175.69 25.2125 175.992 25.4114C176.293 25.6069 176.535 25.8737 176.718 26.2118C176.903 26.5498 176.996 26.9724 176.996 27.4795V32.5903H175.266V31.5413H175.206C175.097 31.7534 174.943 31.9523 174.744 32.1379C174.548 32.3202 174.301 32.4677 174.003 32.5804C173.708 32.6898 173.362 32.7445 172.964 32.7445ZM173.431 31.422C173.793 31.422 174.106 31.3507 174.371 31.2082C174.636 31.0624 174.84 30.8702 174.982 30.6315C175.128 30.3929 175.201 30.1327 175.201 29.851V28.9511C175.145 28.9975 175.049 29.0406 174.913 29.0804C174.78 29.1202 174.631 29.155 174.465 29.1848C174.3 29.2146 174.136 29.2411 173.973 29.2643C173.811 29.2875 173.67 29.3074 173.551 29.324C173.282 29.3605 173.042 29.4201 172.83 29.503C172.618 29.5858 172.45 29.7018 172.328 29.851C172.205 29.9968 172.144 30.1857 172.144 30.4177C172.144 30.7492 172.265 30.9994 172.507 31.1685C172.749 31.3375 173.057 31.422 173.431 31.422ZM178.806 32.5903V24.954H180.551V26.2267H180.63C180.769 25.7859 181.008 25.4462 181.346 25.2075C181.687 24.9656 182.077 24.8446 182.514 24.8446C182.614 24.8446 182.725 24.8496 182.847 24.8595C182.973 24.8661 183.078 24.8777 183.161 24.8943V26.5498C183.084 26.5233 182.963 26.5001 182.798 26.4802C182.635 26.457 182.478 26.4454 182.325 26.4454C181.997 26.4454 181.702 26.5167 181.441 26.6592C181.182 26.7984 180.978 26.9923 180.829 27.2409C180.68 27.4895 180.605 27.7762 180.605 28.101V32.5903H178.806Z" fill="#F9FAFC"/>
</svg>
