<svg width="24" height="25" viewBox="0 0 24 25" fill="none" xmlns="http://www.w3.org/2000/svg">
<mask id="mask0_489_1703" style="mask-type:alpha" maskUnits="userSpaceOnUse" x="0" y="0" width="24" height="25">
<rect y="0.214844" width="24" height="24" fill="#D9D9D9"/>
</mask>
<g mask="url(#mask0_489_1703)">
<path d="M5.4001 18.8149H6.6751L16.0501 9.43994L14.7751 8.16494L5.4001 17.5399V18.8149ZM3.6001 20.6149V16.7899L16.0501 4.33994C16.2334 4.15661 16.4321 4.02327 16.6461 3.93994C16.8599 3.85661 17.0849 3.81494 17.3211 3.81494C17.5571 3.81494 17.7834 3.85661 18.0001 3.93994C18.2168 4.02327 18.4168 4.15661 18.6001 4.33994L19.8751 5.61494C20.0584 5.79827 20.1918 5.99827 20.2751 6.21494C20.3584 6.43161 20.4001 6.65277 20.4001 6.87844C20.4001 7.11927 20.3583 7.34877 20.2746 7.56694C20.1909 7.78511 20.0578 7.98444 19.8751 8.16494L7.4251 20.6149H3.6001ZM15.4013 8.81369L14.7751 8.16494L16.0501 9.43994L15.4013 8.81369Z" fill="#5B5B5B"/>
</g>
</svg>
