<svg width="24" height="25" viewBox="0 0 24 25" fill="none" xmlns="http://www.w3.org/2000/svg">
<mask id="mask0_384_1672" style="mask-type:alpha" maskUnits="userSpaceOnUse" x="0" y="0" width="24" height="25">
<rect y="0.214844" width="24" height="24" fill="#D9D9D9"/>
</mask>
<g mask="url(#mask0_384_1672)">
<path d="M12 12.2148C10.9 12.2148 9.95833 11.8232 9.175 11.0398C8.39167 10.2565 8 9.31484 8 8.21484C8 7.11484 8.39167 6.17318 9.175 5.38984C9.95833 4.60651 10.9 4.21484 12 4.21484C13.1 4.21484 14.0417 4.60651 14.825 5.38984C15.6083 6.17318 16 7.11484 16 8.21484C16 9.31484 15.6083 10.2565 14.825 11.0398C14.0417 11.8232 13.1 12.2148 12 12.2148ZM4 20.2148V17.4148C4 16.8482 4.14583 16.3273 4.4375 15.8523C4.72917 15.3773 5.11667 15.0148 5.6 14.7648C6.63333 14.2482 7.68333 13.8607 8.75 13.6023C9.81667 13.344 10.9 13.2148 12 13.2148C13.1 13.2148 14.1833 13.344 15.25 13.6023C16.3167 13.8607 17.3667 14.2482 18.4 14.7648C18.8833 15.0148 19.2708 15.3773 19.5625 15.8523C19.8542 16.3273 20 16.8482 20 17.4148V20.2148H4ZM6 18.2148H18V17.4148C18 17.2315 17.9542 17.0648 17.8625 16.9148C17.7708 16.7648 17.65 16.6482 17.5 16.5648C16.6 16.1148 15.6917 15.7773 14.775 15.5523C13.8583 15.3273 12.9333 15.2148 12 15.2148C11.0667 15.2148 10.1417 15.3273 9.225 15.5523C8.30833 15.7773 7.4 16.1148 6.5 16.5648C6.35 16.6482 6.22917 16.7648 6.1375 16.9148C6.04583 17.0648 6 17.2315 6 17.4148V18.2148ZM12 10.2148C12.55 10.2148 13.0208 10.019 13.4125 9.62734C13.8042 9.23568 14 8.76484 14 8.21484C14 7.66484 13.8042 7.19401 13.4125 6.80234C13.0208 6.41068 12.55 6.21484 12 6.21484C11.45 6.21484 10.9792 6.41068 10.5875 6.80234C10.1958 7.19401 10 7.66484 10 8.21484C10 8.76484 10.1958 9.23568 10.5875 9.62734C10.9792 10.019 11.45 10.2148 12 10.2148Z" fill="#00051B"/>
</g>
</svg>
