<svg width="24" height="25" viewBox="0 0 24 25" fill="none" xmlns="http://www.w3.org/2000/svg">
<mask id="mask0_384_1692" style="mask-type:alpha" maskUnits="userSpaceOnUse" x="0" y="0" width="24" height="25">
<rect y="0.214844" width="24" height="24" fill="#D9D9D9"/>
</mask>
<g mask="url(#mask0_384_1692)">
<path d="M7.5 11.2148C6.53333 11.2148 5.70833 10.8732 5.025 10.1898C4.34167 9.50651 4 8.68151 4 7.71484C4 6.74818 4.34167 5.92318 5.025 5.23984C5.70833 4.55651 6.53333 4.21484 7.5 4.21484C8.46667 4.21484 9.29167 4.55651 9.975 5.23984C10.6583 5.92318 11 6.74818 11 7.71484C11 8.68151 10.6583 9.50651 9.975 10.1898C9.29167 10.8732 8.46667 11.2148 7.5 11.2148ZM7.5 9.21484C7.91667 9.21484 8.27083 9.06901 8.5625 8.77734C8.85417 8.48568 9 8.13151 9 7.71484C9 7.29818 8.85417 6.94401 8.5625 6.65234C8.27083 6.36068 7.91667 6.21484 7.5 6.21484C7.08333 6.21484 6.72917 6.36068 6.4375 6.65234C6.14583 6.94401 6 7.29818 6 7.71484C6 8.13151 6.14583 8.48568 6.4375 8.77734C6.72917 9.06901 7.08333 9.21484 7.5 9.21484ZM16.5 20.2148C15.5333 20.2148 14.7083 19.8732 14.025 19.1898C13.3417 18.5065 13 17.6815 13 16.7148C13 15.7482 13.3417 14.9232 14.025 14.2398C14.7083 13.5565 15.5333 13.2148 16.5 13.2148C17.4667 13.2148 18.2917 13.5565 18.975 14.2398C19.6583 14.9232 20 15.7482 20 16.7148C20 17.6815 19.6583 18.5065 18.975 19.1898C18.2917 19.8732 17.4667 20.2148 16.5 20.2148ZM16.5 18.2148C16.9167 18.2148 17.2708 18.069 17.5625 17.7773C17.8542 17.4857 18 17.1315 18 16.7148C18 16.2982 17.8542 15.944 17.5625 15.6523C17.2708 15.3607 16.9167 15.2148 16.5 15.2148C16.0833 15.2148 15.7292 15.3607 15.4375 15.6523C15.1458 15.944 15 16.2982 15 16.7148C15 17.1315 15.1458 17.4857 15.4375 17.7773C15.7292 18.069 16.0833 18.2148 16.5 18.2148ZM5.4 20.2148L4 18.8148L18.6 4.21484L20 5.61484L5.4 20.2148Z" fill="#00051B"/>
</g>
</svg>
