<svg width="24" height="25" viewBox="0 0 24 25" fill="none" xmlns="http://www.w3.org/2000/svg">
<mask id="mask0_384_1702" style="mask-type:alpha" maskUnits="userSpaceOnUse" x="0" y="0" width="24" height="25">
<rect y="0.214844" width="24" height="24" fill="#D9D9D9"/>
</mask>
<g mask="url(#mask0_384_1702)">
<path d="M5 21.2148C4.45 21.2148 3.97917 21.019 3.5875 20.6273C3.19583 20.2357 3 19.7648 3 19.2148V5.21484C3 4.66484 3.19583 4.19401 3.5875 3.80234C3.97917 3.41068 4.45 3.21484 5 3.21484H12V5.21484H5V19.2148H12V21.2148H5ZM16 17.2148L14.625 15.7648L17.175 13.2148H9V11.2148H17.175L14.625 8.66484L16 7.21484L21 12.2148L16 17.2148Z" fill="#00051B"/>
</g>
</svg>
