<svg width="24" height="25" viewBox="0 0 24 25" fill="none" xmlns="http://www.w3.org/2000/svg">
<mask id="mask0_384_1682" style="mask-type:alpha" maskUnits="userSpaceOnUse" x="0" y="0" width="24" height="25">
<rect y="0.214844" width="24" height="24" fill="#D9D9D9"/>
</mask>
<g mask="url(#mask0_384_1682)">
<path d="M2 21.2148V3.21484H12V7.21484H22V21.2148H2ZM4 19.2148H6V17.2148H4V19.2148ZM4 15.2148H6V13.2148H4V15.2148ZM4 11.2148H6V9.21484H4V11.2148ZM4 7.21484H6V5.21484H4V7.21484ZM8 19.2148H10V17.2148H8V19.2148ZM8 15.2148H10V13.2148H8V15.2148ZM8 11.2148H10V9.21484H8V11.2148ZM8 7.21484H10V5.21484H8V7.21484ZM12 19.2148H20V9.21484H12V11.2148H14V13.2148H12V15.2148H14V17.2148H12V19.2148ZM16 13.2148V11.2148H18V13.2148H16ZM16 17.2148V15.2148H18V17.2148H16Z" fill="#00051B"/>
</g>
</svg>
