<svg width="92" height="92" viewBox="0 0 92 92" fill="none" xmlns="http://www.w3.org/2000/svg">
<rect x="0.392578" width="91.2146" height="91.2146" rx="45.6073" fill="#ECECEC"/>
<path d="M42.3387 42.1875C42.2194 41.7727 42.0518 41.4062 41.8359 41.0881C41.62 40.7642 41.3558 40.4915 41.0433 40.2699C40.7364 40.0426 40.3842 39.8693 39.9864 39.75C39.5944 39.6307 39.1597 39.571 38.6825 39.571C37.7904 39.571 37.0063 39.7926 36.3302 40.2358C35.6597 40.679 35.137 41.3239 34.762 42.1705C34.387 43.0114 34.1995 44.0398 34.1995 45.2557C34.1995 46.4716 34.3842 47.5057 34.7535 48.358C35.1228 49.2102 35.6455 49.8608 36.3217 50.3097C36.9978 50.7528 37.7961 50.9744 38.7166 50.9744C39.5518 50.9744 40.2649 50.8267 40.8558 50.5312C41.4524 50.2301 41.9069 49.8068 42.2194 49.2614C42.5376 48.7159 42.6967 48.071 42.6967 47.3267L43.4467 47.4375H38.9467V44.6591H46.2507V46.858C46.2507 48.392 45.9268 49.7102 45.2791 50.8125C44.6313 51.9091 43.7393 52.7557 42.6029 53.3523C41.4666 53.9432 40.1654 54.2386 38.6995 54.2386C37.0632 54.2386 35.6257 53.8778 34.387 53.1562C33.1484 52.429 32.1825 51.3977 31.4893 50.0625C30.8018 48.7216 30.458 47.1307 30.458 45.2898C30.458 43.875 30.6626 42.6136 31.0717 41.5057C31.4864 40.392 32.066 39.4489 32.8103 38.6761C33.5546 37.9034 34.4211 37.3153 35.4097 36.9119C36.3984 36.5085 37.4694 36.3068 38.6228 36.3068C39.6114 36.3068 40.5319 36.4517 41.3842 36.7415C42.2364 37.0256 42.9921 37.429 43.6512 37.9517C44.316 38.4744 44.8586 39.0966 45.2791 39.8182C45.6995 40.5341 45.9694 41.3239 46.0887 42.1875H42.3387ZM58.0114 41.5653C57.9432 40.8778 57.6506 40.3437 57.1336 39.9631C56.6165 39.5824 55.9148 39.392 55.0285 39.392C54.4262 39.392 53.9177 39.4773 53.5029 39.6477C53.0881 39.8125 52.7699 40.0426 52.5484 40.3381C52.3324 40.6335 52.2245 40.9688 52.2245 41.3438C52.2131 41.6562 52.2785 41.929 52.4205 42.1619C52.5682 42.3949 52.7699 42.5966 53.0256 42.767C53.2813 42.9318 53.5768 43.0767 53.912 43.2017C54.2472 43.321 54.6052 43.4233 54.9859 43.5085L56.554 43.8835C57.3154 44.054 58.0143 44.2812 58.6506 44.5653C59.287 44.8494 59.8381 45.1989 60.304 45.6136C60.7699 46.0284 61.1307 46.517 61.3864 47.0795C61.6478 47.642 61.7813 48.2869 61.787 49.0142C61.7813 50.0824 61.5086 51.0085 60.9688 51.7926C60.4347 52.571 59.662 53.1761 58.6506 53.608C57.6449 54.0341 56.4319 54.2472 55.0114 54.2472C53.6023 54.2472 52.3751 54.0312 51.3296 53.5994C50.2898 53.1676 49.4773 52.5284 48.8921 51.6818C48.3126 50.8295 48.0086 49.7756 47.9802 48.5199H51.5512C51.591 49.1051 51.7586 49.5937 52.054 49.9858C52.3552 50.3722 52.7557 50.6648 53.2557 50.8636C53.7614 51.0568 54.3324 51.1534 54.9688 51.1534C55.5938 51.1534 56.1364 51.0625 56.5966 50.8807C57.0626 50.6989 57.4234 50.446 57.679 50.1222C57.9347 49.7983 58.0626 49.4261 58.0626 49.0057C58.0626 48.6136 57.9461 48.2841 57.7131 48.017C57.4859 47.75 57.1506 47.5227 56.7074 47.3352C56.2699 47.1477 55.733 46.9773 55.0966 46.8239L53.1961 46.3466C51.7245 45.9886 50.5626 45.429 49.7103 44.6676C48.858 43.9062 48.4347 42.8807 48.4404 41.5909C48.4347 40.5341 48.716 39.6108 49.2841 38.821C49.858 38.0312 50.6449 37.4148 51.6449 36.9716C52.6449 36.5284 53.7813 36.3068 55.054 36.3068C56.3495 36.3068 57.4802 36.5284 58.4461 36.9716C59.4177 37.4148 60.1734 38.0312 60.7131 38.821C61.2529 39.6108 61.5313 40.5256 61.5484 41.5653H58.0114Z" fill="#1313F2"/>
<rect x="63.5" y="63.5" width="23" height="23" rx="11.5" fill="#00051B"/>
<rect x="63.5" y="63.5" width="23" height="23" rx="11.5" stroke="#F9FAFC"/>
<mask id="mask0_384_1805" style="mask-type:alpha" maskUnits="userSpaceOnUse" x="64" y="64" width="22" height="22">
<rect x="64" y="64" width="21.4168" height="21.4168" fill="#D9D9D9"/>
</mask>
<g mask="url(#mask0_384_1805)">
<path d="M74.2202 80.7454V75.5252H69V74.2202H74.2202V69H75.5252V74.2202H80.7454V75.5252H75.5252V80.7454H74.2202Z" fill="#F9FAFC"/>
</g>
</svg>
