<svg width="99" height="51" viewBox="0 0 99 51" fill="none" xmlns="http://www.w3.org/2000/svg">
<rect x="0.166504" y="0.590332" width="98.3333" height="50" rx="12" fill="#F9FAFC"/>
<path d="M29.371 30.5903V20.4085H33.0996C33.8222 20.4085 34.4204 20.5278 34.8944 20.7665C35.3683 21.0018 35.723 21.3216 35.9583 21.726C36.1936 22.127 36.3113 22.5794 36.3113 23.0832C36.3113 23.5075 36.2334 23.8654 36.0776 24.1571C35.9219 24.4454 35.713 24.6775 35.4512 24.8531C35.1927 25.0255 34.9076 25.1514 34.5961 25.231V25.3304C34.9342 25.347 35.2639 25.4563 35.5854 25.6585C35.9103 25.8574 36.1787 26.1408 36.3908 26.5087C36.603 26.8766 36.709 27.324 36.709 27.851C36.709 28.3713 36.5864 28.8387 36.3411 29.253C36.0992 29.664 35.7246 29.9904 35.2175 30.2324C34.7104 30.471 34.0625 30.5903 33.2737 30.5903H29.371ZM30.9072 29.2729H33.1245C33.8603 29.2729 34.3873 29.1303 34.7055 28.8453C35.0237 28.5603 35.1827 28.204 35.1827 27.7764C35.1827 27.4549 35.1015 27.1599 34.9391 26.8915C34.7767 26.623 34.5447 26.4092 34.2431 26.2501C33.9448 26.091 33.5902 26.0115 33.1792 26.0115H30.9072V29.2729ZM30.9072 24.8133H32.9654C33.3101 24.8133 33.62 24.7471 33.8951 24.6145C34.1735 24.4819 34.3939 24.2963 34.5563 24.0577C34.722 23.8157 34.8049 23.5307 34.8049 23.2025C34.8049 22.7816 34.6574 22.4286 34.3624 22.1436C34.0674 21.8586 33.615 21.716 33.0052 21.716H30.9072V24.8133ZM41.4884 30.7445C40.7725 30.7445 40.1477 30.5804 39.6141 30.2523C39.0805 29.9241 38.6662 29.4651 38.3712 28.8751C38.0762 28.2852 37.9288 27.5958 37.9288 26.807C37.9288 26.0148 38.0762 25.3221 38.3712 24.7288C38.6662 24.1355 39.0805 23.6748 39.6141 23.3467C40.1477 23.0186 40.7725 22.8545 41.4884 22.8545C42.2043 22.8545 42.8291 23.0186 43.3627 23.3467C43.8963 23.6748 44.3106 24.1355 44.6056 24.7288C44.9006 25.3221 45.0481 26.0148 45.0481 26.807C45.0481 27.5958 44.9006 28.2852 44.6056 28.8751C44.3106 29.4651 43.8963 29.9241 43.3627 30.2523C42.8291 30.5804 42.2043 30.7445 41.4884 30.7445ZM41.4934 29.4966C41.9574 29.4966 42.3419 29.3739 42.6468 29.1287C42.9517 28.8834 43.1771 28.557 43.3229 28.1493C43.4721 27.7416 43.5466 27.2925 43.5466 26.802C43.5466 26.3148 43.4721 25.8673 43.3229 25.4597C43.1771 25.0487 42.9517 24.7189 42.6468 24.4703C42.3419 24.2217 41.9574 24.0974 41.4934 24.0974C41.0261 24.0974 40.6383 24.2217 40.33 24.4703C40.0251 24.7189 39.7981 25.0487 39.6489 25.4597C39.5031 25.8673 39.4302 26.3148 39.4302 26.802C39.4302 27.2925 39.5031 27.7416 39.6489 28.1493C39.7981 28.557 40.0251 28.8834 40.33 29.1287C40.6383 29.3739 41.0261 29.4966 41.4934 29.4966ZM48.0538 20.4085V30.5903H46.5673V20.4085H48.0538ZM53.2049 30.7445C52.4525 30.7445 51.8045 30.5837 51.261 30.2622C50.7207 29.9374 50.3031 29.4817 50.0081 28.895C49.7165 28.3051 49.5706 27.614 49.5706 26.8219C49.5706 26.0397 49.7165 25.3503 50.0081 24.7537C50.3031 24.1571 50.7141 23.6914 51.2411 23.3567C51.7714 23.0219 52.3912 22.8545 53.1005 22.8545C53.5313 22.8545 53.9489 22.9258 54.3533 23.0683C54.7577 23.2108 55.1206 23.4346 55.4421 23.7395C55.7636 24.0444 56.0171 24.4405 56.2027 24.9277C56.3883 25.4116 56.4811 25.9999 56.4811 26.6926V27.2196H50.4108V26.106H55.0245C55.0245 25.7149 54.9449 25.3685 54.7858 25.0669C54.6267 24.762 54.403 24.5217 54.1147 24.346C53.8296 24.1704 53.4949 24.0825 53.1104 24.0825C52.6928 24.0825 52.3282 24.1853 52.0166 24.3908C51.7084 24.5929 51.4698 24.8581 51.3007 25.1862C51.135 25.511 51.0522 25.864 51.0522 26.2452V27.1152C51.0522 27.6256 51.1416 28.0598 51.3206 28.4177C51.5029 28.7757 51.7565 29.0491 52.0813 29.2381C52.4061 29.4237 52.7856 29.5165 53.2198 29.5165C53.5015 29.5165 53.7584 29.4767 53.9904 29.3972C54.2224 29.3143 54.4229 29.1917 54.5919 29.0293C54.761 28.8668 54.8902 28.6663 54.9797 28.4277L56.3867 28.6812C56.274 29.0955 56.0718 29.4585 55.7801 29.77C55.4918 30.0783 55.1289 30.3186 54.6914 30.4909C54.2572 30.6599 53.7617 30.7445 53.2049 30.7445ZM61.5551 22.954V24.1472H57.3839V22.954H61.5551ZM58.5025 21.1244H59.989V28.3481C59.989 28.6365 60.0321 28.8536 60.1183 28.9994C60.2045 29.1419 60.3155 29.2397 60.4514 29.2927C60.5906 29.3425 60.7414 29.3673 60.9038 29.3673C61.0231 29.3673 61.1275 29.359 61.217 29.3425C61.3065 29.3259 61.3761 29.3126 61.4258 29.3027L61.6943 30.5307C61.6081 30.5638 61.4855 30.597 61.3264 30.6301C61.1673 30.6666 60.9684 30.6864 60.7298 30.6898C60.3387 30.6964 59.9741 30.6268 59.6361 30.481C59.298 30.3351 59.0246 30.1097 58.8157 29.8048C58.6069 29.4999 58.5025 29.1171 58.5025 28.6564V21.1244ZM66.194 30.7445C65.4781 30.7445 64.8534 30.5804 64.3197 30.2523C63.7861 29.9241 63.3718 29.4651 63.0768 28.8751C62.7819 28.2852 62.6344 27.5958 62.6344 26.807C62.6344 26.0148 62.7819 25.3221 63.0768 24.7288C63.3718 24.1355 63.7861 23.6748 64.3197 23.3467C64.8534 23.0186 65.4781 22.8545 66.194 22.8545C66.9099 22.8545 67.5347 23.0186 68.0683 23.3467C68.6019 23.6748 69.0162 24.1355 69.3112 24.7288C69.6062 25.3221 69.7537 26.0148 69.7537 26.807C69.7537 27.5958 69.6062 28.2852 69.3112 28.8751C69.0162 29.4651 68.6019 29.9241 68.0683 30.2523C67.5347 30.5804 66.9099 30.7445 66.194 30.7445ZM66.199 29.4966C66.663 29.4966 67.0475 29.3739 67.3524 29.1287C67.6573 28.8834 67.8827 28.557 68.0286 28.1493C68.1777 27.7416 68.2523 27.2925 68.2523 26.802C68.2523 26.3148 68.1777 25.8673 68.0286 25.4597C67.8827 25.0487 67.6573 24.7189 67.3524 24.4703C67.0475 24.2217 66.663 24.0974 66.199 24.0974C65.7317 24.0974 65.3439 24.2217 65.0357 24.4703C64.7307 24.7189 64.5037 25.0487 64.3545 25.4597C64.2087 25.8673 64.1358 26.3148 64.1358 26.802C64.1358 27.2925 64.2087 27.7416 64.3545 28.1493C64.5037 28.557 64.7307 28.8834 65.0357 29.1287C65.3439 29.3739 65.7317 29.4966 66.199 29.4966Z" fill="#5B5B5B"/>
</svg>
