<svg width="99" height="51" viewBox="0 0 99 51" fill="none" xmlns="http://www.w3.org/2000/svg">
<rect x="0.5" y="0.590332" width="98.3333" height="50" rx="12" fill="#00051B"/>
<path d="M40.8489 30.5903V20.4085H44.4782C45.2703 20.4085 45.9266 20.5527 46.447 20.841C46.9673 21.1294 47.3568 21.5238 47.6153 22.0243C47.8738 22.5214 48.0031 23.0816 48.0031 23.7047C48.0031 24.3311 47.8721 24.8945 47.6103 25.395C47.3518 25.8922 46.9607 26.2866 46.437 26.5783C45.9166 26.8666 45.2621 27.0108 44.4732 27.0108H41.9775V25.7082H44.334C44.8345 25.7082 45.2405 25.6221 45.5521 25.4497C45.8636 25.274 46.0923 25.0354 46.2381 24.7338C46.384 24.4322 46.4569 24.0891 46.4569 23.7047C46.4569 23.3202 46.384 22.9788 46.2381 22.6805C46.0923 22.3822 45.862 22.1486 45.5471 21.9795C45.2355 21.8105 44.8246 21.726 44.3141 21.726H42.3852V30.5903H40.8489ZM49.5447 30.5903V22.954H51.0312V30.5903H49.5447ZM50.2954 21.7757C50.0369 21.7757 49.8148 21.6895 49.6292 21.5172C49.4469 21.3415 49.3558 21.1327 49.3558 20.8908C49.3558 20.6455 49.4469 20.4367 49.6292 20.2643C49.8148 20.0887 50.0369 20.0008 50.2954 20.0008C50.5539 20.0008 50.7743 20.0887 50.9566 20.2643C51.1422 20.4367 51.235 20.6455 51.235 20.8908C51.235 21.1327 51.1422 21.3415 50.9566 21.5172C50.7743 21.6895 50.5539 21.7757 50.2954 21.7757ZM54.0643 22.954L55.7497 25.927L57.45 22.954H59.0757L56.6943 26.7722L59.0956 30.5903H57.4699L55.7497 27.7366L54.0345 30.5903H52.4038L54.7802 26.7722L52.4336 22.954H54.0643Z" fill="#F9FAFC"/>
</svg>
