<svg width="100" height="51" viewBox="0 0 100 51" fill="none" xmlns="http://www.w3.org/2000/svg">
<rect x="0.833496" y="0.590332" width="98.3333" height="50" rx="12" fill="#F9FAFC"/>
<path d="M37.0727 23.7196H35.5216C35.462 23.3882 35.3509 23.0965 35.1885 22.8446C35.0261 22.5927 34.8272 22.3789 34.5919 22.2033C34.3566 22.0276 34.0931 21.895 33.8014 21.8055C33.5131 21.716 33.2065 21.6713 32.8817 21.6713C32.295 21.6713 31.7697 21.8188 31.3057 22.1138C30.845 22.4088 30.4804 22.8413 30.2119 23.4114C29.9468 23.9814 29.8142 24.6775 29.8142 25.4994C29.8142 26.328 29.9468 27.0274 30.2119 27.5974C30.4804 28.1675 30.8467 28.5984 31.3107 28.89C31.7747 29.1817 32.2967 29.3275 32.8767 29.3275C33.1982 29.3275 33.5031 29.2845 33.7915 29.1983C34.0832 29.1088 34.3467 28.9779 34.582 28.8055C34.8173 28.6332 35.0162 28.4227 35.1786 28.1741C35.3443 27.9222 35.4586 27.6339 35.5216 27.3091L37.0727 27.3141C36.9899 27.8145 36.8291 28.2752 36.5905 28.6962C36.3552 29.1138 36.0519 29.475 35.6807 29.78C35.3128 30.0816 34.8919 30.3152 34.4179 30.481C33.944 30.6467 33.4269 30.7295 32.8668 30.7295C31.9852 30.7295 31.1996 30.5207 30.5102 30.1031C29.8209 29.6822 29.2773 29.0806 28.8796 28.2984C28.4852 27.5162 28.2879 26.5832 28.2879 25.4994C28.2879 24.4123 28.4868 23.4793 28.8845 22.7004C29.2823 21.9182 29.8258 21.3183 30.5152 20.9007C31.2046 20.4798 31.9885 20.2693 32.8668 20.2693C33.407 20.2693 33.9108 20.3472 34.3781 20.503C34.8488 20.6554 35.2714 20.8808 35.6459 21.1791C36.0204 21.4741 36.3303 21.8354 36.5756 22.2629C36.8209 22.6872 36.9866 23.1727 37.0727 23.7196ZM40.874 30.7594C40.3901 30.7594 39.9526 30.6699 39.5615 30.4909C39.1704 30.3086 38.8605 30.0451 38.6318 29.7004C38.4064 29.3557 38.2937 28.9331 38.2937 28.4327C38.2937 28.0018 38.3766 27.6472 38.5423 27.3687C38.708 27.0903 38.9317 26.8699 39.2135 26.7075C39.4952 26.5451 39.8101 26.4225 40.1581 26.3396C40.5061 26.2568 40.8607 26.1938 41.222 26.1507C41.6794 26.0977 42.0506 26.0546 42.3356 26.0214C42.6207 25.985 42.8278 25.927 42.9571 25.8474C43.0863 25.7679 43.151 25.6386 43.151 25.4597V25.4248C43.151 24.9907 43.0283 24.6543 42.7831 24.4156C42.5411 24.177 42.1798 24.0577 41.6993 24.0577C41.1988 24.0577 40.8044 24.1687 40.516 24.3908C40.231 24.6095 40.0338 24.8531 39.9244 25.1216L38.5274 24.8034C38.6931 24.3394 38.9351 23.9649 39.2532 23.6798C39.5747 23.3915 39.9443 23.1827 40.3619 23.0534C40.7795 22.9208 41.2187 22.8545 41.6794 22.8545C41.9843 22.8545 42.3074 22.891 42.6488 22.9639C42.9935 23.0335 43.315 23.1628 43.6133 23.3517C43.9149 23.5406 44.1619 23.8107 44.3541 24.1621C44.5463 24.5101 44.6424 24.9625 44.6424 25.5193V30.5903H43.1907V29.5463H43.1311C43.035 29.7385 42.8908 29.9275 42.6985 30.1131C42.5063 30.2987 42.2594 30.4528 41.9578 30.5754C41.6562 30.698 41.2949 30.7594 40.874 30.7594ZM41.1971 29.5662C41.6081 29.5662 41.9594 29.485 42.2511 29.3226C42.5461 29.1602 42.7698 28.948 42.9223 28.6862C43.078 28.4211 43.1559 28.1377 43.1559 27.8361V26.8517C43.1029 26.9047 43.0002 26.9544 42.8477 27.0008C42.6985 27.0439 42.5279 27.082 42.3356 27.1152C42.1434 27.145 41.9561 27.1732 41.7738 27.1997C41.5915 27.2229 41.4391 27.2428 41.3164 27.2594C41.0281 27.2958 40.7646 27.3571 40.526 27.4433C40.2906 27.5295 40.1017 27.6538 39.9592 27.8162C39.82 27.9753 39.7504 28.1874 39.7504 28.4525C39.7504 28.8204 39.8863 29.0989 40.1581 29.2878C40.4298 29.4734 40.7762 29.5662 41.1971 29.5662ZM46.4824 30.5903V22.954H47.9192V24.167H47.9987C48.1379 23.7561 48.3832 23.4329 48.7345 23.1976C49.0891 22.9589 49.4902 22.8396 49.9376 22.8396C50.0304 22.8396 50.1398 22.8429 50.2658 22.8496C50.395 22.8562 50.4961 22.8645 50.569 22.8744V24.2963C50.5094 24.2797 50.4033 24.2615 50.2508 24.2416C50.0984 24.2184 49.9459 24.2068 49.7935 24.2068C49.4421 24.2068 49.1289 24.2814 48.8538 24.4305C48.582 24.5764 48.3666 24.7802 48.2075 25.042C48.0484 25.3006 47.9689 25.5955 47.9689 25.927V30.5903H46.4824ZM55.7312 22.954V24.1472H51.5601V22.954H55.7312ZM52.6787 21.1244H54.1652V28.3481C54.1652 28.6365 54.2083 28.8536 54.2944 28.9994C54.3806 29.1419 54.4916 29.2397 54.6275 29.2927C54.7667 29.3425 54.9175 29.3673 55.0799 29.3673C55.1993 29.3673 55.3037 29.359 55.3932 29.3425C55.4826 29.3259 55.5522 29.3126 55.602 29.3027L55.8704 30.5307C55.7843 30.5638 55.6616 30.597 55.5025 30.6301C55.3434 30.6666 55.1446 30.6864 54.9059 30.6898C54.5148 30.6964 54.1503 30.6268 53.8122 30.481C53.4741 30.3351 53.2007 30.1097 52.9919 29.8048C52.7831 29.4999 52.6787 29.1171 52.6787 28.6564V21.1244ZM59.4579 30.7594C58.974 30.7594 58.5365 30.6699 58.1454 30.4909C57.7543 30.3086 57.4444 30.0451 57.2157 29.7004C56.9903 29.3557 56.8776 28.9331 56.8776 28.4327C56.8776 28.0018 56.9605 27.6472 57.1262 27.3687C57.2919 27.0903 57.5156 26.8699 57.7974 26.7075C58.0791 26.5451 58.394 26.4225 58.742 26.3396C59.09 26.2568 59.4446 26.1938 59.8059 26.1507C60.2633 26.0977 60.6345 26.0546 60.9195 26.0214C61.2046 25.985 61.4117 25.927 61.541 25.8474C61.6702 25.7679 61.7349 25.6386 61.7349 25.4597V25.4248C61.7349 24.9907 61.6122 24.6543 61.367 24.4156C61.125 24.177 60.7638 24.0577 60.2832 24.0577C59.7827 24.0577 59.3883 24.1687 59.0999 24.3908C58.8149 24.6095 58.6177 24.8531 58.5083 25.1216L57.1113 24.8034C57.277 24.3394 57.519 23.9649 57.8371 23.6798C58.1586 23.3915 58.5282 23.1827 58.9458 23.0534C59.3634 22.9208 59.8026 22.8545 60.2633 22.8545C60.5682 22.8545 60.8914 22.891 61.2327 22.9639C61.5774 23.0335 61.8989 23.1628 62.1972 23.3517C62.4988 23.5406 62.7458 23.8107 62.938 24.1621C63.1302 24.5101 63.2263 24.9625 63.2263 25.5193V30.5903H61.7746V29.5463H61.715C61.6189 29.7385 61.4747 29.9275 61.2825 30.1131C61.0902 30.2987 60.8433 30.4528 60.5417 30.5754C60.2401 30.698 59.8788 30.7594 59.4579 30.7594ZM59.781 29.5662C60.192 29.5662 60.5433 29.485 60.835 29.3226C61.13 29.1602 61.3537 28.948 61.5062 28.6862C61.662 28.4211 61.7398 28.1377 61.7398 27.8361V26.8517C61.6868 26.9047 61.5841 26.9544 61.4316 27.0008C61.2825 27.0439 61.1118 27.082 60.9195 27.1152C60.7273 27.145 60.54 27.1732 60.3577 27.1997C60.1754 27.2229 60.023 27.2428 59.9004 27.2594C59.612 27.2958 59.3485 27.3571 59.1099 27.4433C58.8745 27.5295 58.6856 27.6538 58.5431 27.8162C58.4039 27.9753 58.3343 28.1874 58.3343 28.4525C58.3343 28.8204 58.4702 29.0989 58.742 29.2878C59.0138 29.4734 59.3601 29.5662 59.781 29.5662ZM58.8464 22.0293L57.8471 21.9994C57.8471 21.4492 57.9946 21.0101 58.2896 20.682C58.5879 20.3538 58.9558 20.1898 59.3933 20.1898C59.5954 20.1898 59.7727 20.2246 59.9252 20.2942C60.0777 20.3605 60.2202 20.4383 60.3528 20.5278C60.4887 20.614 60.6229 20.6919 60.7555 20.7615C60.8914 20.8278 61.0422 20.8609 61.2079 20.8609C61.4001 20.8609 61.5559 20.788 61.6752 20.6422C61.7978 20.4963 61.8592 20.3157 61.8592 20.1003L62.8386 20.1649C62.8386 20.7184 62.6894 21.1543 62.3911 21.4724C62.0928 21.7873 61.7266 21.9464 61.2924 21.9497C61.0571 21.9497 60.8615 21.9166 60.7058 21.8503C60.5533 21.7807 60.4174 21.7028 60.2981 21.6166C60.1788 21.5271 60.0561 21.4476 59.9302 21.378C59.8042 21.3084 59.6534 21.2736 59.4778 21.2736C59.2922 21.2736 59.1397 21.3465 59.0204 21.4923C58.9044 21.6348 58.8464 21.8138 58.8464 22.0293ZM68.2829 30.7445C67.567 30.7445 66.9422 30.5804 66.4086 30.2523C65.875 29.9241 65.4607 29.4651 65.1657 28.8751C64.8707 28.2852 64.7232 27.5958 64.7232 26.807C64.7232 26.0148 64.8707 25.3221 65.1657 24.7288C65.4607 24.1355 65.875 23.6748 66.4086 23.3467C66.9422 23.0186 67.567 22.8545 68.2829 22.8545C68.9988 22.8545 69.6236 23.0186 70.1572 23.3467C70.6908 23.6748 71.1051 24.1355 71.4001 24.7288C71.6951 25.3221 71.8426 26.0148 71.8426 26.807C71.8426 27.5958 71.6951 28.2852 71.4001 28.8751C71.1051 29.4651 70.6908 29.9241 70.1572 30.2523C69.6236 30.5804 68.9988 30.7445 68.2829 30.7445ZM68.2879 29.4966C68.7519 29.4966 69.1364 29.3739 69.4413 29.1287C69.7462 28.8834 69.9716 28.557 70.1174 28.1493C70.2666 27.7416 70.3411 27.2925 70.3411 26.802C70.3411 26.3148 70.2666 25.8673 70.1174 25.4597C69.9716 25.0487 69.7462 24.7189 69.4413 24.4703C69.1364 24.2217 68.7519 24.0974 68.2879 24.0974C67.8205 24.0974 67.4328 24.2217 67.1245 24.4703C66.8196 24.7189 66.5926 25.0487 66.4434 25.4597C66.2976 25.8673 66.2247 26.3148 66.2247 26.802C66.2247 27.2925 66.2976 27.7416 66.4434 28.1493C66.5926 28.557 66.8196 28.8834 67.1245 29.1287C67.4328 29.3739 67.8205 29.4966 68.2879 29.4966Z" fill="#5B5B5B"/>
</svg>
