<svg width="312" height="128" viewBox="0 0 312 128" fill="none" xmlns="http://www.w3.org/2000/svg">
<rect x="0.5" width="311" height="128" rx="12" fill="url(#paint0_linear_384_1885)"/>
<mask id="path-2-inside-1_384_1885" fill="white">
<path d="M20.5 9H291.5V67H20.5V9Z"/>
</mask>
<path d="M291.5 67V66H20.5V67V68H291.5V67Z" fill="#7575B3" mask="url(#path-2-inside-1_384_1885)"/>
<path d="M21.6186 33V22.8182H25.2479C26.04 22.8182 26.6963 22.9624 27.2166 23.2507C27.737 23.5391 28.1264 23.9335 28.3849 24.4339C28.6435 24.9311 28.7727 25.4912 28.7727 26.1143C28.7727 26.7408 28.6418 27.3042 28.38 27.8047C28.1214 28.3018 27.7304 28.6963 27.2067 28.9879C26.6863 29.2763 26.0317 29.4205 25.2429 29.4205H22.7472V28.1179H25.1037C25.6042 28.1179 26.0102 28.0317 26.3217 27.8594C26.6333 27.6837 26.862 27.4451 27.0078 27.1435C27.1536 26.8419 27.2266 26.4988 27.2266 26.1143C27.2266 25.7299 27.1536 25.3885 27.0078 25.0902C26.862 24.7919 26.6316 24.5582 26.3168 24.3892C26.0052 24.2202 25.5942 24.1357 25.0838 24.1357H23.1548V33H21.6186ZM30.3144 33V25.3636H31.7512V26.5767H31.8307C31.9699 26.1657 32.2152 25.8426 32.5665 25.6072C32.9211 25.3686 33.3222 25.2493 33.7696 25.2493C33.8624 25.2493 33.9718 25.2526 34.0977 25.2592C34.227 25.2659 34.3281 25.2741 34.401 25.2841V26.706C34.3414 26.6894 34.2353 26.6712 34.0828 26.6513C33.9304 26.6281 33.7779 26.6165 33.6254 26.6165C33.2741 26.6165 32.9609 26.6911 32.6858 26.8402C32.414 26.986 32.1986 27.1899 32.0395 27.4517C31.8804 27.7102 31.8009 28.0052 31.8009 28.3366V33H30.3144ZM38.5652 33.1541C37.8128 33.1541 37.1648 32.9934 36.6213 32.6719C36.081 32.3471 35.6634 31.8913 35.3684 31.3047C35.0768 30.7147 34.9309 30.0237 34.9309 29.2315C34.9309 28.4493 35.0768 27.7599 35.3684 27.1634C35.6634 26.5668 36.0744 26.1011 36.6014 25.7663C37.1317 25.4316 37.7515 25.2642 38.4608 25.2642C38.8916 25.2642 39.3093 25.3355 39.7136 25.478C40.118 25.6205 40.4809 25.8442 40.8024 26.1491C41.1239 26.4541 41.3774 26.8501 41.563 27.3374C41.7486 27.8213 41.8414 28.4096 41.8414 29.1023V29.6293H35.7711V28.5156H40.3848C40.3848 28.1245 40.3052 27.7782 40.1461 27.4766C39.987 27.1716 39.7633 26.9313 39.475 26.7557C39.1899 26.58 38.8552 26.4922 38.4707 26.4922C38.0531 26.4922 37.6885 26.5949 37.377 26.8004C37.0687 27.0026 36.8301 27.2678 36.6611 27.5959C36.4953 27.9207 36.4125 28.2737 36.4125 28.6548V29.5249C36.4125 30.0353 36.502 30.4695 36.6809 30.8274C36.8632 31.1854 37.1168 31.4588 37.4416 31.6477C37.7664 31.8333 38.1459 31.9261 38.5801 31.9261C38.8618 31.9261 39.1187 31.8864 39.3507 31.8068C39.5827 31.724 39.7832 31.6013 39.9522 31.4389C40.1213 31.2765 40.2505 31.076 40.34 30.8374L41.747 31.0909C41.6343 31.5052 41.4321 31.8681 41.1405 32.1797C40.8521 32.4879 40.4892 32.7282 40.0517 32.9006C39.6175 33.0696 39.122 33.1541 38.5652 33.1541ZM46.642 33.1541C45.8896 33.1541 45.2416 32.9934 44.6981 32.6719C44.1578 32.3471 43.7402 31.8913 43.4452 31.3047C43.1536 30.7147 43.0077 30.0237 43.0077 29.2315C43.0077 28.4493 43.1536 27.7599 43.4452 27.1634C43.7402 26.5668 44.1512 26.1011 44.6782 25.7663C45.2085 25.4316 45.8283 25.2642 46.5376 25.2642C46.9684 25.2642 47.386 25.3355 47.7904 25.478C48.1948 25.6205 48.5577 25.8442 48.8792 26.1491C49.2007 26.4541 49.4542 26.8501 49.6398 27.3374C49.8254 27.8213 49.9182 28.4096 49.9182 29.1023V29.6293H43.8479V28.5156H48.4616C48.4616 28.1245 48.382 27.7782 48.2229 27.4766C48.0638 27.1716 47.8401 26.9313 47.5518 26.7557C47.2667 26.58 46.932 26.4922 46.5475 26.4922C46.1299 26.4922 45.7653 26.5949 45.4538 26.8004C45.1455 27.0026 44.9069 27.2678 44.7378 27.5959C44.5721 27.9207 44.4893 28.2737 44.4893 28.6548V29.5249C44.4893 30.0353 44.5788 30.4695 44.7577 30.8274C44.94 31.1854 45.1936 31.4588 45.5184 31.6477C45.8432 31.8333 46.2227 31.9261 46.6569 31.9261C46.9386 31.9261 47.1955 31.8864 47.4275 31.8068C47.6595 31.724 47.86 31.6013 48.029 31.4389C48.1981 31.2765 48.3273 31.076 48.4168 30.8374L49.8238 31.0909C49.7111 31.5052 49.5089 31.8681 49.2173 32.1797C48.9289 32.4879 48.566 32.7282 48.1285 32.9006C47.6943 33.0696 47.1988 33.1541 46.642 33.1541ZM52.9141 28.4659V33H51.4276V25.3636H52.8544V26.6065H52.9489C53.1245 26.2022 53.3996 25.8774 53.7742 25.6321C54.152 25.3868 54.6276 25.2642 55.201 25.2642C55.7214 25.2642 56.1771 25.3736 56.5682 25.5923C56.9593 25.8078 57.2626 26.1293 57.478 26.5568C57.6934 26.9844 57.8012 27.513 57.8012 28.1428V33H56.3146V28.3217C56.3146 27.7682 56.1705 27.3357 55.8821 27.0241C55.5938 26.7093 55.1977 26.5518 54.6939 26.5518C54.3492 26.5518 54.0426 26.6264 53.7742 26.7756C53.509 26.9247 53.2985 27.1435 53.1428 27.4318C52.9903 27.7169 52.9141 28.0616 52.9141 28.4659ZM62.8714 33.1541C62.1323 33.1541 61.4959 32.9867 60.9623 32.652C60.432 32.3139 60.0243 31.8482 59.7393 31.255C59.4542 30.6617 59.3117 29.9822 59.3117 29.2166C59.3117 28.4411 59.4576 27.7566 59.7492 27.1634C60.0409 26.5668 60.4519 26.1011 60.9822 25.7663C61.5125 25.4316 62.1372 25.2642 62.8565 25.2642C63.4365 25.2642 63.9535 25.3719 64.4076 25.5874C64.8617 25.7995 65.2279 26.0978 65.5063 26.4822C65.788 26.8667 65.9554 27.3158 66.0085 27.8295H64.5617C64.4822 27.4716 64.2999 27.1634 64.0148 26.9048C63.7331 26.6463 63.3553 26.517 62.8813 26.517C62.467 26.517 62.1041 26.6264 61.7925 26.8452C61.4843 27.0606 61.244 27.3688 61.0717 27.7699C60.8993 28.1676 60.8131 28.6383 60.8131 29.1818C60.8131 29.7386 60.8977 30.2192 61.0667 30.6236C61.2357 31.0279 61.4744 31.3411 61.7826 31.5632C62.0942 31.7853 62.4604 31.8963 62.8813 31.8963C63.163 31.8963 63.4183 31.8449 63.6469 31.7422C63.879 31.6361 64.0728 31.4853 64.2286 31.2898C64.3877 31.0942 64.4987 30.8589 64.5617 30.5838H66.0085C65.9554 31.0777 65.7947 31.5185 65.5262 31.9062C65.2577 32.294 64.8981 32.599 64.4474 32.821C63.9999 33.0431 63.4746 33.1541 62.8714 33.1541ZM68.9446 28.4659V33H67.4581V22.8182H68.9247V26.6065H69.0192C69.1982 26.1955 69.4716 25.8691 69.8395 25.6271C70.2074 25.3852 70.688 25.2642 71.2813 25.2642C71.8049 25.2642 72.2623 25.3719 72.6534 25.5874C73.0478 25.8028 73.3528 26.1243 73.5682 26.5518C73.787 26.9761 73.8963 27.5064 73.8963 28.1428V33H72.4098V28.3217C72.4098 27.7616 72.2656 27.3274 71.9773 27.0192C71.6889 26.7076 71.2879 26.5518 70.7742 26.5518C70.4228 26.5518 70.108 26.6264 69.8296 26.7756C69.5545 26.9247 69.3374 27.1435 69.1783 27.4318C69.0225 27.7169 68.9446 28.0616 68.9446 28.4659ZM77.9623 33.169C77.4784 33.169 77.0409 33.0795 76.6498 32.9006C76.2587 32.7183 75.9488 32.4548 75.7201 32.1101C75.4947 31.7654 75.382 31.3428 75.382 30.8423C75.382 30.4115 75.4649 30.0568 75.6306 29.7784C75.7963 29.5 76.0201 29.2796 76.3018 29.1172C76.5835 28.9548 76.8984 28.8321 77.2464 28.7493C77.5944 28.6664 77.949 28.6035 78.3103 28.5604C78.7677 28.5073 79.1389 28.4643 79.4239 28.4311C79.709 28.3946 79.9161 28.3366 80.0454 28.2571C80.1747 28.1776 80.2393 28.0483 80.2393 27.8693V27.8345C80.2393 27.4003 80.1167 27.0639 79.8714 26.8253C79.6294 26.5866 79.2682 26.4673 78.7876 26.4673C78.2871 26.4673 77.8927 26.5784 77.6043 26.8004C77.3193 27.0192 77.1221 27.2628 77.0127 27.5312L75.6157 27.2131C75.7814 26.7491 76.0234 26.3745 76.3416 26.0895C76.6631 25.8011 77.0326 25.5923 77.4502 25.4631C77.8678 25.3305 78.307 25.2642 78.7677 25.2642C79.0726 25.2642 79.3958 25.3007 79.7372 25.3736C80.0818 25.4432 80.4033 25.5724 80.7016 25.7614C81.0033 25.9503 81.2502 26.2204 81.4424 26.5717C81.6346 26.9197 81.7308 27.3722 81.7308 27.929V33H80.2791V31.956H80.2194C80.1233 32.1482 79.9791 32.3371 79.7869 32.5227C79.5946 32.7083 79.3477 32.8625 79.0461 32.9851C78.7445 33.1077 78.3832 33.169 77.9623 33.169ZM78.2854 31.9759C78.6964 31.9759 79.0478 31.8946 79.3394 31.7322C79.6344 31.5698 79.8581 31.3577 80.0106 31.0959C80.1664 30.8307 80.2443 30.5473 80.2443 30.2457V29.2614C80.1912 29.3144 80.0885 29.3641 79.936 29.4105C79.7869 29.4536 79.6162 29.4917 79.4239 29.5249C79.2317 29.5547 79.0444 29.5829 78.8622 29.6094C78.6799 29.6326 78.5274 29.6525 78.4048 29.669C78.1164 29.7055 77.8529 29.7668 77.6143 29.853C77.379 29.9392 77.19 30.0634 77.0475 30.2259C76.9083 30.3849 76.8387 30.5971 76.8387 30.8622C76.8387 31.2301 76.9746 31.5085 77.2464 31.6974C77.5182 31.883 77.8645 31.9759 78.2854 31.9759ZM90.3524 33.1541C89.6365 33.1541 89.0117 32.9901 88.4781 32.6619C87.9445 32.3338 87.5302 31.8748 87.2352 31.2848C86.9402 30.6948 86.7927 30.0054 86.7927 29.2166C86.7927 28.4245 86.9402 27.7318 87.2352 27.1385C87.5302 26.5452 87.9445 26.0845 88.4781 25.7564C89.0117 25.4283 89.6365 25.2642 90.3524 25.2642C91.0683 25.2642 91.6931 25.4283 92.2267 25.7564C92.7603 26.0845 93.1746 26.5452 93.4696 27.1385C93.7646 27.7318 93.9121 28.4245 93.9121 29.2166C93.9121 30.0054 93.7646 30.6948 93.4696 31.2848C93.1746 31.8748 92.7603 32.3338 92.2267 32.6619C91.6931 32.9901 91.0683 33.1541 90.3524 33.1541ZM90.3574 31.9062C90.8214 31.9062 91.2058 31.7836 91.5108 31.5384C91.8157 31.2931 92.0411 30.9666 92.1869 30.5589C92.3361 30.1513 92.4106 29.7022 92.4106 29.2116C92.4106 28.7244 92.3361 28.277 92.1869 27.8693C92.0411 27.4583 91.8157 27.1286 91.5108 26.88C91.2058 26.6314 90.8214 26.5071 90.3574 26.5071C89.89 26.5071 89.5022 26.6314 89.194 26.88C88.8891 27.1286 88.6621 27.4583 88.5129 27.8693C88.3671 28.277 88.2942 28.7244 88.2942 29.2116C88.2942 29.7022 88.3671 30.1513 88.5129 30.5589C88.6621 30.9666 88.8891 31.2931 89.194 31.5384C89.5022 31.7836 89.89 31.9062 90.3574 31.9062ZM101.154 27.228L99.8063 27.4666C99.75 27.2943 99.6605 27.1302 99.5379 26.9744C99.4185 26.8187 99.2561 26.6911 99.0506 26.5916C98.8451 26.4922 98.5883 26.4425 98.28 26.4425C97.8591 26.4425 97.5078 26.5369 97.2261 26.7259C96.9443 26.9115 96.8035 27.1518 96.8035 27.4467C96.8035 27.7019 96.8979 27.9074 97.0869 28.0632C97.2758 28.219 97.5807 28.3466 98.0016 28.446L99.2147 28.7244C99.9174 28.8868 100.441 29.1371 100.786 29.4751C101.13 29.8132 101.303 30.2524 101.303 30.7926C101.303 31.25 101.17 31.6577 100.905 32.0156C100.643 32.3703 100.277 32.6487 99.8063 32.8509C99.339 33.053 98.7971 33.1541 98.1806 33.1541C97.3255 33.1541 96.6278 32.9718 96.0876 32.6072C95.5473 32.2393 95.2159 31.7173 95.0933 31.0412L96.53 30.8224C96.6195 31.197 96.8035 31.4804 97.0819 31.6726C97.3603 31.8615 97.7232 31.956 98.1707 31.956C98.6579 31.956 99.0473 31.8549 99.339 31.6527C99.6307 31.4472 99.7765 31.197 99.7765 30.902C99.7765 30.6634 99.687 30.4628 99.508 30.3004C99.3324 30.138 99.0622 30.0154 98.6977 29.9325L97.405 29.6491C96.6924 29.4867 96.1655 29.2282 95.8241 28.8736C95.486 28.5189 95.317 28.0698 95.317 27.5263C95.317 27.0755 95.4429 26.6811 95.6948 26.343C95.9467 26.005 96.2947 25.7415 96.7388 25.5526C97.183 25.3603 97.6917 25.2642 98.2651 25.2642C99.0904 25.2642 99.74 25.4432 100.214 25.8011C100.688 26.1558 101.001 26.6314 101.154 27.228ZM109.579 33.1541C108.84 33.1541 108.203 32.9867 107.67 32.652C107.139 32.3139 106.732 31.8482 106.447 31.255C106.162 30.6617 106.019 29.9822 106.019 29.2166C106.019 28.4411 106.165 27.7566 106.457 27.1634C106.748 26.5668 107.159 26.1011 107.69 25.7663C108.22 25.4316 108.845 25.2642 109.564 25.2642C110.144 25.2642 110.661 25.3719 111.115 25.5874C111.569 25.7995 111.935 26.0978 112.214 26.4822C112.496 26.8667 112.663 27.3158 112.716 27.8295H111.269C111.19 27.4716 111.007 27.1634 110.722 26.9048C110.441 26.6463 110.063 26.517 109.589 26.517C109.175 26.517 108.812 26.6264 108.5 26.8452C108.192 27.0606 107.952 27.3688 107.779 27.7699C107.607 28.1676 107.521 28.6383 107.521 29.1818C107.521 29.7386 107.605 30.2192 107.774 30.6236C107.943 31.0279 108.182 31.3411 108.49 31.5632C108.802 31.7853 109.168 31.8963 109.589 31.8963C109.871 31.8963 110.126 31.8449 110.354 31.7422C110.586 31.6361 110.78 31.4853 110.936 31.2898C111.095 31.0942 111.206 30.8589 111.269 30.5838H112.716C112.663 31.0777 112.502 31.5185 112.234 31.9062C111.965 32.294 111.606 32.599 111.155 32.821C110.707 33.0431 110.182 33.1541 109.579 33.1541ZM116.388 33.169C115.904 33.169 115.467 33.0795 115.075 32.9006C114.684 32.7183 114.374 32.4548 114.146 32.1101C113.92 31.7654 113.808 31.3428 113.808 30.8423C113.808 30.4115 113.891 30.0568 114.056 29.7784C114.222 29.5 114.446 29.2796 114.727 29.1172C115.009 28.9548 115.324 28.8321 115.672 28.7493C116.02 28.6664 116.375 28.6035 116.736 28.5604C117.193 28.5073 117.565 28.4643 117.85 28.4311C118.135 28.3946 118.342 28.3366 118.471 28.2571C118.6 28.1776 118.665 28.0483 118.665 27.8693V27.8345C118.665 27.4003 118.542 27.0639 118.297 26.8253C118.055 26.5866 117.694 26.4673 117.213 26.4673C116.713 26.4673 116.318 26.5784 116.03 26.8004C115.745 27.0192 115.548 27.2628 115.438 27.5312L114.041 27.2131C114.207 26.7491 114.449 26.3745 114.767 26.0895C115.089 25.8011 115.458 25.5923 115.876 25.4631C116.293 25.3305 116.733 25.2642 117.193 25.2642C117.498 25.2642 117.821 25.3007 118.163 25.3736C118.507 25.4432 118.829 25.5724 119.127 25.7614C119.429 25.9503 119.676 26.2204 119.868 26.5717C120.06 26.9197 120.156 27.3722 120.156 27.929V33H118.705V31.956H118.645C118.549 32.1482 118.405 32.3371 118.212 32.5227C118.02 32.7083 117.773 32.8625 117.472 32.9851C117.17 33.1077 116.809 33.169 116.388 33.169ZM116.711 31.9759C117.122 31.9759 117.473 31.8946 117.765 31.7322C118.06 31.5698 118.284 31.3577 118.436 31.0959C118.592 30.8307 118.67 30.5473 118.67 30.2457V29.2614C118.617 29.3144 118.514 29.3641 118.362 29.4105C118.212 29.4536 118.042 29.4917 117.85 29.5249C117.657 29.5547 117.47 29.5829 117.288 29.6094C117.105 29.6326 116.953 29.6525 116.83 29.669C116.542 29.7055 116.279 29.7668 116.04 29.853C115.805 29.9392 115.616 30.0634 115.473 30.2259C115.334 30.3849 115.264 30.5971 115.264 30.8622C115.264 31.2301 115.4 31.5085 115.672 31.6974C115.944 31.883 116.29 31.9759 116.711 31.9759ZM121.996 33V25.3636H123.423V26.6065H123.518C123.677 26.1856 123.937 25.8575 124.298 25.6222C124.659 25.3835 125.092 25.2642 125.596 25.2642C126.106 25.2642 126.534 25.3835 126.878 25.6222C127.226 25.8608 127.483 26.1889 127.649 26.6065H127.729C127.911 26.1989 128.201 25.8741 128.599 25.6321C128.996 25.3868 129.47 25.2642 130.02 25.2642C130.713 25.2642 131.278 25.4813 131.716 25.9155C132.157 26.3497 132.377 27.0043 132.377 27.8793V33H130.89V28.0185C130.89 27.5014 130.75 27.1269 130.468 26.8949C130.186 26.6629 129.85 26.5469 129.459 26.5469C128.975 26.5469 128.599 26.696 128.33 26.9943C128.062 27.2893 127.927 27.6688 127.927 28.1328V33H126.446V27.924C126.446 27.5097 126.317 27.1766 126.058 26.9247C125.8 26.6728 125.463 26.5469 125.049 26.5469C124.767 26.5469 124.507 26.6214 124.268 26.7706C124.033 26.9164 123.842 27.1203 123.697 27.3821C123.554 27.6439 123.483 27.9472 123.483 28.2919V33H121.996ZM134.229 35.8636V25.3636H135.681V26.6016H135.805C135.892 26.4425 136.016 26.2585 136.178 26.0497C136.341 25.8409 136.566 25.6586 136.854 25.5028C137.143 25.3438 137.524 25.2642 137.998 25.2642C138.614 25.2642 139.165 25.42 139.648 25.7315C140.132 26.0431 140.512 26.4922 140.787 27.0788C141.065 27.6655 141.205 28.3714 141.205 29.1967C141.205 30.022 141.067 30.7296 140.792 31.3196C140.517 31.9062 140.139 32.3587 139.658 32.6768C139.178 32.9917 138.629 33.1491 138.013 33.1491C137.549 33.1491 137.169 33.0713 136.874 32.9155C136.583 32.7597 136.354 32.5774 136.188 32.3686C136.022 32.1598 135.895 31.9742 135.805 31.8118H135.716V35.8636H134.229ZM135.686 29.1818C135.686 29.7187 135.764 30.1894 135.92 30.5938C136.075 30.9981 136.301 31.3146 136.596 31.5433C136.891 31.7687 137.252 31.8814 137.68 31.8814C138.124 31.8814 138.495 31.7637 138.793 31.5284C139.092 31.2898 139.317 30.9666 139.469 30.5589C139.625 30.1513 139.703 29.6922 139.703 29.1818C139.703 28.678 139.627 28.2256 139.474 27.8246C139.325 27.4235 139.1 27.107 138.798 26.875C138.5 26.643 138.127 26.527 137.68 26.527C137.249 26.527 136.884 26.638 136.586 26.8601C136.291 27.0821 136.067 27.392 135.915 27.7898C135.762 28.1875 135.686 28.6515 135.686 29.1818ZM145.947 33.1541C145.231 33.1541 144.606 32.9901 144.072 32.6619C143.539 32.3338 143.124 31.8748 142.829 31.2848C142.534 30.6948 142.387 30.0054 142.387 29.2166C142.387 28.4245 142.534 27.7318 142.829 27.1385C143.124 26.5452 143.539 26.0845 144.072 25.7564C144.606 25.4283 145.231 25.2642 145.947 25.2642C146.663 25.2642 147.287 25.4283 147.821 25.7564C148.355 26.0845 148.769 26.5452 149.064 27.1385C149.359 27.7318 149.506 28.4245 149.506 29.2166C149.506 30.0054 149.359 30.6948 149.064 31.2848C148.769 31.8748 148.355 32.3338 147.821 32.6619C147.287 32.9901 146.663 33.1541 145.947 33.1541ZM145.952 31.9062C146.416 31.9062 146.8 31.7836 147.105 31.5384C147.41 31.2931 147.635 30.9666 147.781 30.5589C147.93 30.1513 148.005 29.7022 148.005 29.2116C148.005 28.7244 147.93 28.277 147.781 27.8693C147.635 27.4583 147.41 27.1286 147.105 26.88C146.8 26.6314 146.416 26.5071 145.952 26.5071C145.484 26.5071 145.096 26.6314 144.788 26.88C144.483 27.1286 144.256 27.4583 144.107 27.8693C143.961 28.277 143.888 28.7244 143.888 29.2116C143.888 29.7022 143.961 30.1513 144.107 30.5589C144.256 30.9666 144.483 31.2931 144.788 31.5384C145.096 31.7836 145.484 31.9062 145.952 31.9062ZM156.748 27.228L155.401 27.4666C155.344 27.2943 155.255 27.1302 155.132 26.9744C155.013 26.8187 154.85 26.6911 154.645 26.5916C154.439 26.4922 154.182 26.4425 153.874 26.4425C153.453 26.4425 153.102 26.5369 152.82 26.7259C152.539 26.9115 152.398 27.1518 152.398 27.4467C152.398 27.7019 152.492 27.9074 152.681 28.0632C152.87 28.219 153.175 28.3466 153.596 28.446L154.809 28.7244C155.512 28.8868 156.035 29.1371 156.38 29.4751C156.725 29.8132 156.897 30.2524 156.897 30.7926C156.897 31.25 156.764 31.6577 156.499 32.0156C156.237 32.3703 155.871 32.6487 155.401 32.8509C154.933 33.053 154.391 33.1541 153.775 33.1541C152.92 33.1541 152.222 32.9718 151.682 32.6072C151.142 32.2393 150.81 31.7173 150.687 31.0412L152.124 30.8224C152.214 31.197 152.398 31.4804 152.676 31.6726C152.955 31.8615 153.317 31.956 153.765 31.956C154.252 31.956 154.642 31.8549 154.933 31.6527C155.225 31.4472 155.371 31.197 155.371 30.902C155.371 30.6634 155.281 30.4628 155.102 30.3004C154.927 30.138 154.656 30.0154 154.292 29.9325L152.999 29.6491C152.287 29.4867 151.76 29.2282 151.418 28.8736C151.08 28.5189 150.911 28.0698 150.911 27.5263C150.911 27.0755 151.037 26.6811 151.289 26.343C151.541 26.005 151.889 25.7415 152.333 25.5526C152.777 25.3603 153.286 25.2642 153.859 25.2642C154.685 25.2642 155.334 25.4432 155.808 25.8011C156.282 26.1558 156.595 26.6314 156.748 27.228ZM164.179 33.169C163.695 33.169 163.257 33.0795 162.866 32.9006C162.475 32.7183 162.165 32.4548 161.937 32.1101C161.711 31.7654 161.599 31.3428 161.599 30.8423C161.599 30.4115 161.681 30.0568 161.847 29.7784C162.013 29.5 162.237 29.2796 162.518 29.1172C162.8 28.9548 163.115 28.8321 163.463 28.7493C163.811 28.6664 164.166 28.6035 164.527 28.5604C164.984 28.5073 165.355 28.4643 165.64 28.4311C165.925 28.3946 166.133 28.3366 166.262 28.2571C166.391 28.1776 166.456 28.0483 166.456 27.8693V27.8345C166.456 27.4003 166.333 27.0639 166.088 26.8253C165.846 26.5866 165.485 26.4673 165.004 26.4673C164.504 26.4673 164.109 26.5784 163.821 26.8004C163.536 27.0192 163.339 27.2628 163.229 27.5312L161.832 27.2131C161.998 26.7491 162.24 26.3745 162.558 26.0895C162.88 25.8011 163.249 25.5923 163.667 25.4631C164.084 25.3305 164.523 25.2642 164.984 25.2642C165.289 25.2642 165.612 25.3007 165.954 25.3736C166.298 25.4432 166.62 25.5724 166.918 25.7614C167.22 25.9503 167.467 26.2204 167.659 26.5717C167.851 26.9197 167.947 27.3722 167.947 27.929V33H166.496V31.956H166.436C166.34 32.1482 166.196 32.3371 166.003 32.5227C165.811 32.7083 165.564 32.8625 165.263 32.9851C164.961 33.1077 164.6 33.169 164.179 33.169ZM164.502 31.9759C164.913 31.9759 165.264 31.8946 165.556 31.7322C165.851 31.5698 166.075 31.3577 166.227 31.0959C166.383 30.8307 166.461 30.5473 166.461 30.2457V29.2614C166.408 29.3144 166.305 29.3641 166.152 29.4105C166.003 29.4536 165.833 29.4917 165.64 29.5249C165.448 29.5547 165.261 29.5829 165.079 29.6094C164.896 29.6326 164.744 29.6525 164.621 29.669C164.333 29.7055 164.069 29.7668 163.831 29.853C163.595 29.9392 163.407 30.0634 163.264 30.2259C163.125 30.3849 163.055 30.5971 163.055 30.8622C163.055 31.2301 163.191 31.5085 163.463 31.6974C163.735 31.883 164.081 31.9759 164.502 31.9759ZM169.906 33V22.8182H171.393V26.6016H171.482C171.569 26.4425 171.693 26.2585 171.855 26.0497C172.018 25.8409 172.243 25.6586 172.531 25.5028C172.82 25.3438 173.201 25.2642 173.675 25.2642C174.291 25.2642 174.842 25.42 175.326 25.7315C175.809 26.0431 176.189 26.4922 176.464 27.0788C176.742 27.6655 176.882 28.3714 176.882 29.1967C176.882 30.022 176.744 30.7296 176.469 31.3196C176.194 31.9062 175.816 32.3587 175.335 32.6768C174.855 32.9917 174.306 33.1491 173.69 33.1491C173.226 33.1491 172.846 33.0713 172.551 32.9155C172.26 32.7597 172.031 32.5774 171.865 32.3686C171.7 32.1598 171.572 31.9742 171.482 31.8118H171.358V33H169.906ZM171.363 29.1818C171.363 29.7187 171.441 30.1894 171.597 30.5938C171.753 30.9981 171.978 31.3146 172.273 31.5433C172.568 31.7687 172.929 31.8814 173.357 31.8814C173.801 31.8814 174.172 31.7637 174.47 31.5284C174.769 31.2898 174.994 30.9666 175.147 30.5589C175.302 30.1513 175.38 29.6922 175.38 29.1818C175.38 28.678 175.304 28.2256 175.152 27.8246C175.002 27.4235 174.777 27.107 174.475 26.875C174.177 26.643 173.804 26.527 173.357 26.527C172.926 26.527 172.561 26.638 172.263 26.8601C171.968 27.0821 171.744 27.392 171.592 27.7898C171.439 28.1875 171.363 28.6515 171.363 29.1818ZM180.633 33.169C180.149 33.169 179.712 33.0795 179.321 32.9006C178.93 32.7183 178.62 32.4548 178.391 32.1101C178.166 31.7654 178.053 31.3428 178.053 30.8423C178.053 30.4115 178.136 30.0568 178.301 29.7784C178.467 29.5 178.691 29.2796 178.973 29.1172C179.254 28.9548 179.569 28.8321 179.917 28.7493C180.265 28.6664 180.62 28.6035 180.981 28.5604C181.439 28.5073 181.81 28.4643 182.095 28.4311C182.38 28.3946 182.587 28.3366 182.716 28.2571C182.846 28.1776 182.91 28.0483 182.91 27.8693V27.8345C182.91 27.4003 182.788 27.0639 182.542 26.8253C182.3 26.5866 181.939 26.4673 181.458 26.4673C180.958 26.4673 180.564 26.5784 180.275 26.8004C179.99 27.0192 179.793 27.2628 179.684 27.5312L178.287 27.2131C178.452 26.7491 178.694 26.3745 179.012 26.0895C179.334 25.8011 179.703 25.5923 180.121 25.4631C180.539 25.3305 180.978 25.2642 181.439 25.2642C181.743 25.2642 182.067 25.3007 182.408 25.3736C182.753 25.4432 183.074 25.5724 183.372 25.7614C183.674 25.9503 183.921 26.2204 184.113 26.5717C184.305 26.9197 184.402 27.3722 184.402 27.929V33H182.95V31.956H182.89C182.794 32.1482 182.65 32.3371 182.458 32.5227C182.265 32.7083 182.019 32.8625 181.717 32.9851C181.415 33.1077 181.054 33.169 180.633 33.169ZM180.956 31.9759C181.367 31.9759 181.719 31.8946 182.01 31.7322C182.305 31.5698 182.529 31.3577 182.681 31.0959C182.837 30.8307 182.915 30.5473 182.915 30.2457V29.2614C182.862 29.3144 182.759 29.3641 182.607 29.4105C182.458 29.4536 182.287 29.4917 182.095 29.5249C181.903 29.5547 181.715 29.5829 181.533 29.6094C181.351 29.6326 181.198 29.6525 181.076 29.669C180.787 29.7055 180.524 29.7668 180.285 29.853C180.05 29.9392 179.861 30.0634 179.718 30.2259C179.579 30.3849 179.51 30.5971 179.51 30.8622C179.51 31.2301 179.645 31.5085 179.917 31.6974C180.189 31.883 180.535 31.9759 180.956 31.9759ZM186.242 33V25.3636H187.728V33H186.242ZM186.992 24.1854C186.734 24.1854 186.512 24.0992 186.326 23.9268C186.144 23.7512 186.053 23.5424 186.053 23.3004C186.053 23.0552 186.144 22.8464 186.326 22.674C186.512 22.4983 186.734 22.4105 186.992 22.4105C187.251 22.4105 187.471 22.4983 187.653 22.674C187.839 22.8464 187.932 23.0552 187.932 23.3004C187.932 23.5424 187.839 23.7512 187.653 23.9268C187.471 24.0992 187.251 24.1854 186.992 24.1854ZM190.761 25.3636L192.447 28.3366L194.147 25.3636H195.773L193.391 29.1818L195.792 33H194.167L192.447 30.1463L190.731 33H189.101L191.477 29.1818L189.13 25.3636H190.761ZM200.075 33.1541C199.359 33.1541 198.734 32.9901 198.2 32.6619C197.667 32.3338 197.252 31.8748 196.957 31.2848C196.662 30.6948 196.515 30.0054 196.515 29.2166C196.515 28.4245 196.662 27.7318 196.957 27.1385C197.252 26.5452 197.667 26.0845 198.2 25.7564C198.734 25.4283 199.359 25.2642 200.075 25.2642C200.791 25.2642 201.415 25.4283 201.949 25.7564C202.483 26.0845 202.897 26.5452 203.192 27.1385C203.487 27.7318 203.634 28.4245 203.634 29.2166C203.634 30.0054 203.487 30.6948 203.192 31.2848C202.897 31.8748 202.483 32.3338 201.949 32.6619C201.415 32.9901 200.791 33.1541 200.075 33.1541ZM200.08 31.9062C200.544 31.9062 200.928 31.7836 201.233 31.5384C201.538 31.2931 201.763 30.9666 201.909 30.5589C202.058 30.1513 202.133 29.7022 202.133 29.2116C202.133 28.7244 202.058 28.277 201.909 27.8693C201.763 27.4583 201.538 27.1286 201.233 26.88C200.928 26.6314 200.544 26.5071 200.08 26.5071C199.612 26.5071 199.225 26.6314 198.916 26.88C198.611 27.1286 198.384 27.4583 198.235 27.8693C198.089 28.277 198.016 28.7244 198.016 29.2116C198.016 29.7022 198.089 30.1513 198.235 30.5589C198.384 30.9666 198.611 31.2931 198.916 31.5384C199.225 31.7836 199.612 31.9062 200.08 31.9062ZM208.719 35.8636V25.3636H210.17V26.6016H210.295C210.381 26.4425 210.505 26.2585 210.668 26.0497C210.83 25.8409 211.055 25.6586 211.344 25.5028C211.632 25.3438 212.013 25.2642 212.487 25.2642C213.104 25.2642 213.654 25.42 214.138 25.7315C214.622 26.0431 215.001 26.4922 215.276 27.0788C215.555 27.6655 215.694 28.3714 215.694 29.1967C215.694 30.022 215.556 30.7296 215.281 31.3196C215.006 31.9062 214.628 32.3587 214.148 32.6768C213.667 32.9917 213.119 33.1491 212.502 33.1491C212.038 33.1491 211.659 33.0713 211.364 32.9155C211.072 32.7597 210.843 32.5774 210.677 32.3686C210.512 32.1598 210.384 31.9742 210.295 31.8118H210.205V35.8636H208.719ZM210.175 29.1818C210.175 29.7187 210.253 30.1894 210.409 30.5938C210.565 30.9981 210.79 31.3146 211.085 31.5433C211.38 31.7687 211.741 31.8814 212.169 31.8814C212.613 31.8814 212.984 31.7637 213.283 31.5284C213.581 31.2898 213.806 30.9666 213.959 30.5589C214.114 30.1513 214.192 29.6922 214.192 29.1818C214.192 28.678 214.116 28.2256 213.964 27.8246C213.815 27.4235 213.589 27.107 213.288 26.875C212.989 26.643 212.616 26.527 212.169 26.527C211.738 26.527 211.373 26.638 211.075 26.8601C210.78 27.0821 210.556 27.392 210.404 27.7898C210.252 28.1875 210.175 28.6515 210.175 29.1818ZM219.442 33.169C218.958 33.169 218.52 33.0795 218.129 32.9006C217.738 32.7183 217.428 32.4548 217.199 32.1101C216.974 31.7654 216.861 31.3428 216.861 30.8423C216.861 30.4115 216.944 30.0568 217.11 29.7784C217.276 29.5 217.499 29.2796 217.781 29.1172C218.063 28.9548 218.378 28.8321 218.726 28.7493C219.074 28.6664 219.428 28.6035 219.79 28.5604C220.247 28.5073 220.618 28.4643 220.903 28.4311C221.188 28.3946 221.395 28.3366 221.525 28.2571C221.654 28.1776 221.719 28.0483 221.719 27.8693V27.8345C221.719 27.4003 221.596 27.0639 221.351 26.8253C221.109 26.5866 220.747 26.4673 220.267 26.4673C219.766 26.4673 219.372 26.5784 219.084 26.8004C218.799 27.0192 218.601 27.2628 218.492 27.5312L217.095 27.2131C217.261 26.7491 217.503 26.3745 217.821 26.0895C218.142 25.8011 218.512 25.5923 218.93 25.4631C219.347 25.3305 219.786 25.2642 220.247 25.2642C220.552 25.2642 220.875 25.3007 221.216 25.3736C221.561 25.4432 221.883 25.5724 222.181 25.7614C222.483 25.9503 222.729 26.2204 222.922 26.5717C223.114 26.9197 223.21 27.3722 223.21 27.929V33H221.758V31.956H221.699C221.603 32.1482 221.458 32.3371 221.266 32.5227C221.074 32.7083 220.827 32.8625 220.525 32.9851C220.224 33.1077 219.863 33.169 219.442 33.169ZM219.765 31.9759C220.176 31.9759 220.527 31.8946 220.819 31.7322C221.114 31.5698 221.337 31.3577 221.49 31.0959C221.646 30.8307 221.724 30.5473 221.724 30.2457V29.2614C221.671 29.3144 221.568 29.3641 221.415 29.4105C221.266 29.4536 221.095 29.4917 220.903 29.5249C220.711 29.5547 220.524 29.5829 220.341 29.6094C220.159 29.6326 220.007 29.6525 219.884 29.669C219.596 29.7055 219.332 29.7668 219.094 29.853C218.858 29.9392 218.669 30.0634 218.527 30.2259C218.388 30.3849 218.318 30.5971 218.318 30.8622C218.318 31.2301 218.454 31.5085 218.726 31.6974C218.997 31.883 219.344 31.9759 219.765 31.9759ZM225.05 33V25.3636H226.487V26.5767H226.566C226.706 26.1657 226.951 25.8426 227.302 25.6072C227.657 25.3686 228.058 25.2493 228.505 25.2493C228.598 25.2493 228.707 25.2526 228.833 25.2592C228.963 25.2659 229.064 25.2741 229.137 25.2841V26.706C229.077 26.6894 228.971 26.6712 228.818 26.6513C228.666 26.6281 228.514 26.6165 228.361 26.6165C228.01 26.6165 227.697 26.6911 227.421 26.8402C227.15 26.986 226.934 27.1899 226.775 27.4517C226.616 27.7102 226.537 28.0052 226.537 28.3366V33H225.05ZM232.437 33.169C231.953 33.169 231.516 33.0795 231.124 32.9006C230.733 32.7183 230.423 32.4548 230.195 32.1101C229.969 31.7654 229.857 31.3428 229.857 30.8423C229.857 30.4115 229.94 30.0568 230.105 29.7784C230.271 29.5 230.495 29.2796 230.776 29.1172C231.058 28.9548 231.373 28.8321 231.721 28.7493C232.069 28.6664 232.424 28.6035 232.785 28.5604C233.242 28.5073 233.614 28.4643 233.899 28.4311C234.184 28.3946 234.391 28.3366 234.52 28.2571C234.649 28.1776 234.714 28.0483 234.714 27.8693V27.8345C234.714 27.4003 234.591 27.0639 234.346 26.8253C234.104 26.5866 233.743 26.4673 233.262 26.4673C232.762 26.4673 232.367 26.5784 232.079 26.8004C231.794 27.0192 231.597 27.2628 231.487 27.5312L230.09 27.2131C230.256 26.7491 230.498 26.3745 230.816 26.0895C231.138 25.8011 231.507 25.5923 231.925 25.4631C232.343 25.3305 232.782 25.2642 233.242 25.2642C233.547 25.2642 233.87 25.3007 234.212 25.3736C234.557 25.4432 234.878 25.5724 235.176 25.7614C235.478 25.9503 235.725 26.2204 235.917 26.5717C236.109 26.9197 236.205 27.3722 236.205 27.929V33H234.754V31.956H234.694C234.598 32.1482 234.454 32.3371 234.262 32.5227C234.069 32.7083 233.822 32.8625 233.521 32.9851C233.219 33.1077 232.858 33.169 232.437 33.169ZM232.76 31.9759C233.171 31.9759 233.522 31.8946 233.814 31.7322C234.109 31.5698 234.333 31.3577 234.485 31.0959C234.641 30.8307 234.719 30.5473 234.719 30.2457V29.2614C234.666 29.3144 234.563 29.3641 234.411 29.4105C234.262 29.4536 234.091 29.4917 233.899 29.5249C233.706 29.5547 233.519 29.5829 233.337 29.6094C233.155 29.6326 233.002 29.6525 232.879 29.669C232.591 29.7055 232.328 29.7668 232.089 29.853C231.854 29.9392 231.665 30.0634 231.522 30.2259C231.383 30.3849 231.313 30.5971 231.313 30.8622C231.313 31.2301 231.449 31.5085 231.721 31.6974C231.993 31.883 232.339 31.9759 232.76 31.9759ZM24.7159 53.1541C23.9768 53.1541 23.3404 52.9867 22.8068 52.652C22.2765 52.3139 21.8688 51.8482 21.5838 51.255C21.2988 50.6617 21.1562 49.9822 21.1562 49.2166C21.1562 48.4411 21.3021 47.7566 21.5938 47.1634C21.8854 46.5668 22.2964 46.1011 22.8267 45.7663C23.357 45.4316 23.9818 45.2642 24.701 45.2642C25.281 45.2642 25.7981 45.3719 26.2521 45.5874C26.7062 45.7995 27.0724 46.0978 27.3509 46.4822C27.6326 46.8667 27.8 47.3158 27.853 47.8295H26.4062C26.3267 47.4716 26.1444 47.1634 25.8594 46.9048C25.5777 46.6463 25.1998 46.517 24.7259 46.517C24.3116 46.517 23.9486 46.6264 23.6371 46.8452C23.3288 47.0606 23.0885 47.3688 22.9162 47.7699C22.7438 48.1676 22.6577 48.6383 22.6577 49.1818C22.6577 49.7386 22.7422 50.2192 22.9112 50.6236C23.0803 51.0279 23.3189 51.3411 23.6271 51.5632C23.9387 51.7853 24.3049 51.8963 24.7259 51.8963C25.0076 51.8963 25.2628 51.8449 25.4915 51.7422C25.7235 51.6361 25.9174 51.4853 26.0732 51.2898C26.2322 51.0942 26.3433 50.8589 26.4062 50.5838H27.853C27.8 51.0777 27.6392 51.5185 27.3707 51.9062C27.1023 52.294 26.7427 52.599 26.2919 52.821C25.8445 53.0431 25.3191 53.1541 24.7159 53.1541ZM31.525 53.169C31.041 53.169 30.6035 53.0795 30.2125 52.9006C29.8214 52.7183 29.5115 52.4548 29.2828 52.1101C29.0574 51.7654 28.9447 51.3428 28.9447 50.8423C28.9447 50.4115 29.0276 50.0568 29.1933 49.7784C29.359 49.5 29.5827 49.2796 29.8644 49.1172C30.1462 48.9548 30.461 48.8321 30.809 48.7493C31.1571 48.6664 31.5117 48.6035 31.873 48.5604C32.3303 48.5073 32.7016 48.4643 32.9866 48.4311C33.2716 48.3946 33.4788 48.3366 33.608 48.2571C33.7373 48.1776 33.8019 48.0483 33.8019 47.8693V47.8345C33.8019 47.4003 33.6793 47.0639 33.434 46.8253C33.1921 46.5866 32.8308 46.4673 32.3502 46.4673C31.8498 46.4673 31.4553 46.5784 31.167 46.8004C30.882 47.0192 30.6848 47.2628 30.5754 47.5312L29.1784 47.2131C29.3441 46.7491 29.586 46.3745 29.9042 46.0895C30.2257 45.8011 30.5953 45.5923 31.0129 45.4631C31.4305 45.3305 31.8696 45.2642 32.3303 45.2642C32.6353 45.2642 32.9584 45.3007 33.2998 45.3736C33.6445 45.4432 33.966 45.5724 34.2643 45.7614C34.5659 45.9503 34.8128 46.2204 35.0051 46.5717C35.1973 46.9197 35.2934 47.3722 35.2934 47.929V53H33.8417V51.956H33.7821C33.6859 52.1482 33.5418 52.3371 33.3495 52.5227C33.1573 52.7083 32.9104 52.8625 32.6088 52.9851C32.3071 53.1077 31.9459 53.169 31.525 53.169ZM31.8481 51.9759C32.2591 51.9759 32.6104 51.8946 32.9021 51.7322C33.1971 51.5698 33.4208 51.3577 33.5732 51.0959C33.729 50.8307 33.8069 50.5473 33.8069 50.2457V49.2614C33.7539 49.3144 33.6511 49.3641 33.4987 49.4105C33.3495 49.4536 33.1788 49.4917 32.9866 49.5249C32.7944 49.5547 32.6071 49.5829 32.4248 49.6094C32.2425 49.6326 32.0901 49.6525 31.9674 49.669C31.6791 49.7055 31.4156 49.7668 31.1769 49.853C30.9416 49.9392 30.7527 50.0634 30.6102 50.2259C30.471 50.3849 30.4014 50.5971 30.4014 50.8622C30.4014 51.2301 30.5373 51.5085 30.809 51.6974C31.0808 51.883 31.4272 51.9759 31.8481 51.9759ZM38.6199 42.8182V53H37.1334V42.8182H38.6199ZM43.6963 53.1541C42.9572 53.1541 42.3208 52.9867 41.7872 52.652C41.2569 52.3139 40.8492 51.8482 40.5642 51.255C40.2792 50.6617 40.1366 49.9822 40.1366 49.2166C40.1366 48.4411 40.2825 47.7566 40.5741 47.1634C40.8658 46.5668 41.2768 46.1011 41.8071 45.7663C42.3374 45.4316 42.9622 45.2642 43.6814 45.2642C44.2614 45.2642 44.7784 45.3719 45.2325 45.5874C45.6866 45.7995 46.0528 46.0978 46.3312 46.4822C46.613 46.8667 46.7803 47.3158 46.8334 47.8295H45.3866C45.3071 47.4716 45.1248 47.1634 44.8398 46.9048C44.558 46.6463 44.1802 46.517 43.7062 46.517C43.2919 46.517 42.929 46.6264 42.6175 46.8452C42.3092 47.0606 42.0689 47.3688 41.8966 47.7699C41.7242 48.1676 41.6381 48.6383 41.6381 49.1818C41.6381 49.7386 41.7226 50.2192 41.8916 50.6236C42.0606 51.0279 42.2993 51.3411 42.6075 51.5632C42.9191 51.7853 43.2853 51.8963 43.7062 51.8963C43.988 51.8963 44.2432 51.8449 44.4719 51.7422C44.7039 51.6361 44.8978 51.4853 45.0535 51.2898C45.2126 51.0942 45.3237 50.8589 45.3866 50.5838H46.8334C46.7803 51.0777 46.6196 51.5185 46.3511 51.9062C46.0827 52.294 45.7231 52.599 45.2723 52.821C44.8249 53.0431 44.2995 53.1541 43.6963 53.1541ZM53.1204 49.8331V45.3636H54.6119V53H53.1502V51.6776H53.0707C52.895 52.0852 52.6133 52.425 52.2255 52.6967C51.841 52.9652 51.3621 53.0994 50.7887 53.0994C50.2982 53.0994 49.864 52.9917 49.4862 52.7763C49.1116 52.5575 48.8167 52.2344 48.6012 51.8068C48.3891 51.3793 48.283 50.8506 48.283 50.2209V45.3636H49.7695V50.0419C49.7695 50.5623 49.9137 50.9766 50.2021 51.2848C50.4904 51.593 50.865 51.7472 51.3257 51.7472C51.6041 51.7472 51.8808 51.6776 52.1559 51.5384C52.4343 51.3991 52.6647 51.1887 52.847 50.907C53.0326 50.6252 53.1237 50.2673 53.1204 49.8331ZM57.9557 42.8182V53H56.4692V42.8182H57.9557ZM62.0378 53.169C61.5539 53.169 61.1164 53.0795 60.7253 52.9006C60.3342 52.7183 60.0243 52.4548 59.7957 52.1101C59.5703 51.7654 59.4576 51.3428 59.4576 50.8423C59.4576 50.4115 59.5404 50.0568 59.7062 49.7784C59.8719 49.5 60.0956 49.2796 60.3773 49.1172C60.6591 48.9548 60.9739 48.8321 61.3219 48.7493C61.6699 48.6664 62.0246 48.6035 62.3859 48.5604C62.8432 48.5073 63.2145 48.4643 63.4995 48.4311C63.7845 48.3946 63.9917 48.3366 64.1209 48.2571C64.2502 48.1776 64.3148 48.0483 64.3148 47.8693V47.8345C64.3148 47.4003 64.1922 47.0639 63.9469 46.8253C63.705 46.5866 63.3437 46.4673 62.8631 46.4673C62.3627 46.4673 61.9682 46.5784 61.6799 46.8004C61.3948 47.0192 61.1976 47.2628 61.0883 47.5312L59.6912 47.2131C59.857 46.7491 60.0989 46.3745 60.4171 46.0895C60.7386 45.8011 61.1082 45.5923 61.5258 45.4631C61.9434 45.3305 62.3825 45.2642 62.8432 45.2642C63.1482 45.2642 63.4713 45.3007 63.8127 45.3736C64.1574 45.4432 64.4789 45.5724 64.7772 45.7614C65.0788 45.9503 65.3257 46.2204 65.518 46.5717C65.7102 46.9197 65.8063 47.3722 65.8063 47.929V53H64.3546V51.956H64.2949C64.1988 52.1482 64.0546 52.3371 63.8624 52.5227C63.6702 52.7083 63.4233 52.8625 63.1216 52.9851C62.82 53.1077 62.4588 53.169 62.0378 53.169ZM62.361 51.9759C62.772 51.9759 63.1233 51.8946 63.415 51.7322C63.71 51.5698 63.9337 51.3577 64.0861 51.0959C64.2419 50.8307 64.3198 50.5473 64.3198 50.2457V49.2614C64.2668 49.3144 64.164 49.3641 64.0116 49.4105C63.8624 49.4536 63.6917 49.4917 63.4995 49.5249C63.3073 49.5547 63.12 49.5829 62.9377 49.6094C62.7554 49.6326 62.6029 49.6525 62.4803 49.669C62.192 49.7055 61.9285 49.7668 61.6898 49.853C61.4545 49.9392 61.2656 50.0634 61.1231 50.2259C60.9839 50.3849 60.9143 50.5971 60.9143 50.8622C60.9143 51.2301 61.0502 51.5085 61.3219 51.6974C61.5937 51.883 61.9401 51.9759 62.361 51.9759ZM67.6462 53V45.3636H69.083V46.5767H69.1626C69.3018 46.1657 69.547 45.8426 69.8984 45.6072C70.253 45.3686 70.6541 45.2493 71.1015 45.2493C71.1943 45.2493 71.3037 45.2526 71.4296 45.2592C71.5589 45.2659 71.66 45.2741 71.7329 45.2841V46.706C71.6732 46.6894 71.5672 46.6712 71.4147 46.6513C71.2622 46.6281 71.1098 46.6165 70.9573 46.6165C70.606 46.6165 70.2928 46.6911 70.0177 46.8402C69.7459 46.986 69.5305 47.1899 69.3714 47.4517C69.2123 47.7102 69.1327 48.0052 69.1327 48.3366V53H67.6462ZM82.1667 47.228L80.8194 47.4666C80.763 47.2943 80.6735 47.1302 80.5509 46.9744C80.4316 46.8187 80.2692 46.6911 80.0637 46.5916C79.8582 46.4922 79.6013 46.4425 79.2931 46.4425C78.8722 46.4425 78.5208 46.5369 78.2391 46.7259C77.9574 46.9115 77.8165 47.1518 77.8165 47.4467C77.8165 47.7019 77.911 47.9074 78.0999 48.0632C78.2888 48.219 78.5938 48.3466 79.0147 48.446L80.2278 48.7244C80.9304 48.8868 81.4541 49.1371 81.7988 49.4751C82.1435 49.8132 82.3158 50.2524 82.3158 50.7926C82.3158 51.25 82.1832 51.6577 81.9181 52.0156C81.6563 52.3703 81.29 52.6487 80.8194 52.8509C80.352 53.053 79.8101 53.1541 79.1937 53.1541C78.3385 53.1541 77.6409 52.9718 77.1006 52.6072C76.5604 52.2393 76.2289 51.7173 76.1063 51.0412L77.5431 50.8224C77.6326 51.197 77.8165 51.4804 78.0949 51.6726C78.3733 51.8615 78.7363 51.956 79.1837 51.956C79.6709 51.956 80.0604 51.8549 80.352 51.6527C80.6437 51.4472 80.7895 51.197 80.7895 50.902C80.7895 50.6634 80.7001 50.4628 80.5211 50.3004C80.3454 50.138 80.0753 50.0154 79.7107 49.9325L78.4181 49.6491C77.7055 49.4867 77.1785 49.2282 76.8371 48.8736C76.4991 48.5189 76.33 48.0698 76.33 47.5263C76.33 47.0755 76.456 46.6811 76.7079 46.343C76.9598 46.005 77.3078 45.7415 77.7519 45.5526C78.196 45.3603 78.7048 45.2642 79.2782 45.2642C80.1035 45.2642 80.7531 45.4432 81.227 45.8011C81.701 46.1558 82.0142 46.6314 82.1667 47.228ZM88.6476 49.8331V45.3636H90.1391V53H88.6774V51.6776H88.5979C88.4222 52.0852 88.1405 52.425 87.7527 52.6967C87.3682 52.9652 86.8893 53.0994 86.3159 53.0994C85.8254 53.0994 85.3912 52.9917 85.0134 52.7763C84.6388 52.5575 84.3438 52.2344 84.1284 51.8068C83.9163 51.3793 83.8102 50.8506 83.8102 50.2209V45.3636H85.2967V50.0419C85.2967 50.5623 85.4409 50.9766 85.7293 51.2848C86.0176 51.593 86.3921 51.7472 86.8528 51.7472C87.1312 51.7472 87.408 51.6776 87.6831 51.5384C87.9615 51.3991 88.1919 51.1887 88.3741 50.907C88.5598 50.6252 88.6509 50.2673 88.6476 49.8331ZM94.2187 53.169C93.7348 53.169 93.2973 53.0795 92.9062 52.9006C92.5151 52.7183 92.2052 52.4548 91.9765 52.1101C91.7511 51.7654 91.6384 51.3428 91.6384 50.8423C91.6384 50.4115 91.7213 50.0568 91.887 49.7784C92.0527 49.5 92.2765 49.2796 92.5582 49.1172C92.8399 48.9548 93.1548 48.8321 93.5028 48.7493C93.8508 48.6664 94.2054 48.6035 94.5667 48.5604C95.0241 48.5073 95.3953 48.4643 95.6803 48.4311C95.9654 48.3946 96.1725 48.3366 96.3018 48.2571C96.4311 48.1776 96.4957 48.0483 96.4957 47.8693V47.8345C96.4957 47.4003 96.3731 47.0639 96.1278 46.8253C95.8858 46.5866 95.5246 46.4673 95.044 46.4673C94.5435 46.4673 94.1491 46.5784 93.8607 46.8004C93.5757 47.0192 93.3785 47.2628 93.2691 47.5312L91.8721 47.2131C92.0378 46.7491 92.2798 46.3745 92.598 46.0895C92.9195 45.8011 93.289 45.5923 93.7066 45.4631C94.1242 45.3305 94.5634 45.2642 95.0241 45.2642C95.329 45.2642 95.6522 45.3007 95.9936 45.3736C96.3383 45.4432 96.6598 45.5724 96.958 45.7614C97.2597 45.9503 97.5066 46.2204 97.6988 46.5717C97.891 46.9197 97.9872 47.3722 97.9872 47.929V53H96.5355V51.956H96.4758C96.3797 52.1482 96.2355 52.3371 96.0433 52.5227C95.851 52.7083 95.6041 52.8625 95.3025 52.9851C95.0009 53.1077 94.6396 53.169 94.2187 53.169ZM94.5419 51.9759C94.9528 51.9759 95.3042 51.8946 95.5958 51.7322C95.8908 51.5698 96.1145 51.3577 96.267 51.0959C96.4228 50.8307 96.5007 50.5473 96.5007 50.2457V49.2614C96.4476 49.3144 96.3449 49.3641 96.1924 49.4105C96.0433 49.4536 95.8726 49.4917 95.6803 49.5249C95.4881 49.5547 95.3008 49.5829 95.1186 49.6094C94.9363 49.6326 94.7838 49.6525 94.6612 49.669C94.3728 49.7055 94.1093 49.7668 93.8707 49.853C93.6354 49.9392 93.4464 50.0634 93.3039 50.2259C93.1647 50.3849 93.0951 50.5971 93.0951 50.8622C93.0951 51.2301 93.231 51.5085 93.5028 51.6974C93.7746 51.883 94.1209 51.9759 94.5419 51.9759ZM106.957 45.3636V46.5568H102.786V45.3636H106.957ZM103.904 43.5341H105.391V50.7578C105.391 51.0462 105.434 51.2633 105.52 51.4091C105.606 51.5516 105.717 51.6494 105.853 51.7024C105.992 51.7521 106.143 51.777 106.306 51.777C106.425 51.777 106.529 51.7687 106.619 51.7521C106.708 51.7356 106.778 51.7223 106.828 51.7124L107.096 52.9403C107.01 52.9735 106.887 53.0066 106.728 53.0398C106.569 53.0762 106.37 53.0961 106.132 53.0994C105.74 53.1061 105.376 53.0365 105.038 52.8906C104.7 52.7448 104.426 52.5194 104.217 52.2145C104.009 51.9096 103.904 51.5268 103.904 51.0661V43.5341ZM110.683 53.169C110.2 53.169 109.762 53.0795 109.371 52.9006C108.98 52.7183 108.67 52.4548 108.441 52.1101C108.216 51.7654 108.103 51.3428 108.103 50.8423C108.103 50.4115 108.186 50.0568 108.352 49.7784C108.518 49.5 108.741 49.2796 109.023 49.1172C109.305 48.9548 109.62 48.8321 109.968 48.7493C110.316 48.6664 110.67 48.6035 111.031 48.5604C111.489 48.5073 111.86 48.4643 112.145 48.4311C112.43 48.3946 112.637 48.3366 112.767 48.2571C112.896 48.1776 112.96 48.0483 112.96 47.8693V47.8345C112.96 47.4003 112.838 47.0639 112.593 46.8253C112.351 46.5866 111.989 46.4673 111.509 46.4673C111.008 46.4673 110.614 46.5784 110.326 46.8004C110.04 47.0192 109.843 47.2628 109.734 47.5312L108.337 47.2131C108.503 46.7491 108.745 46.3745 109.063 46.0895C109.384 45.8011 109.754 45.5923 110.171 45.4631C110.589 45.3305 111.028 45.2642 111.489 45.2642C111.794 45.2642 112.117 45.3007 112.458 45.3736C112.803 45.4432 113.125 45.5724 113.423 45.7614C113.724 45.9503 113.971 46.2204 114.164 46.5717C114.356 46.9197 114.452 47.3722 114.452 47.929V53H113V51.956H112.941C112.844 52.1482 112.7 52.3371 112.508 52.5227C112.316 52.7083 112.069 52.8625 111.767 52.9851C111.466 53.1077 111.104 53.169 110.683 53.169ZM111.007 51.9759C111.418 51.9759 111.769 51.8946 112.061 51.7322C112.356 51.5698 112.579 51.3577 112.732 51.0959C112.888 50.8307 112.965 50.5473 112.965 50.2457V49.2614C112.912 49.3144 112.81 49.3641 112.657 49.4105C112.508 49.4536 112.337 49.4917 112.145 49.5249C111.953 49.5547 111.766 49.5829 111.583 49.6094C111.401 49.6326 111.249 49.6525 111.126 49.669C110.838 49.7055 110.574 49.7668 110.335 49.853C110.1 49.9392 109.911 50.0634 109.769 50.2259C109.629 50.3849 109.56 50.5971 109.56 50.8622C109.56 51.2301 109.696 51.5085 109.968 51.6974C110.239 51.883 110.586 51.9759 111.007 51.9759ZM117.465 45.3636L119.151 48.3366L120.851 45.3636H122.477L120.095 49.1818L122.496 53H120.871L119.151 50.1463L117.435 53H115.805L118.181 49.1818L115.834 45.3636H117.465ZM126.071 53.169C125.588 53.169 125.15 53.0795 124.759 52.9006C124.368 52.7183 124.058 52.4548 123.829 52.1101C123.604 51.7654 123.491 51.3428 123.491 50.8423C123.491 50.4115 123.574 50.0568 123.74 49.7784C123.905 49.5 124.129 49.2796 124.411 49.1172C124.693 48.9548 125.008 48.8321 125.356 48.7493C125.704 48.6664 126.058 48.6035 126.419 48.5604C126.877 48.5073 127.248 48.4643 127.533 48.4311C127.818 48.3946 128.025 48.3366 128.155 48.2571C128.284 48.1776 128.348 48.0483 128.348 47.8693V47.8345C128.348 47.4003 128.226 47.0639 127.981 46.8253C127.739 46.5866 127.377 46.4673 126.897 46.4673C126.396 46.4673 126.002 46.5784 125.713 46.8004C125.428 47.0192 125.231 47.2628 125.122 47.5312L123.725 47.2131C123.891 46.7491 124.133 46.3745 124.451 46.0895C124.772 45.8011 125.142 45.5923 125.559 45.4631C125.977 45.3305 126.416 45.2642 126.877 45.2642C127.182 45.2642 127.505 45.3007 127.846 45.3736C128.191 45.4432 128.512 45.5724 128.811 45.7614C129.112 45.9503 129.359 46.2204 129.552 46.5717C129.744 46.9197 129.84 47.3722 129.84 47.929V53H128.388V51.956H128.329C128.232 52.1482 128.088 52.3371 127.896 52.5227C127.704 52.7083 127.457 52.8625 127.155 52.9851C126.854 53.1077 126.492 53.169 126.071 53.169ZM126.395 51.9759C126.806 51.9759 127.157 51.8946 127.449 51.7322C127.744 51.5698 127.967 51.3577 128.12 51.0959C128.276 50.8307 128.353 50.5473 128.353 50.2457V49.2614C128.3 49.3144 128.198 49.3641 128.045 49.4105C127.896 49.4536 127.725 49.4917 127.533 49.5249C127.341 49.5547 127.154 49.5829 126.971 49.6094C126.789 49.6326 126.637 49.6525 126.514 49.669C126.226 49.7055 125.962 49.7668 125.723 49.853C125.488 49.9392 125.299 50.0634 125.157 50.2259C125.017 50.3849 124.948 50.5971 124.948 50.8622C124.948 51.2301 125.084 51.5085 125.356 51.6974C125.627 51.883 125.974 51.9759 126.395 51.9759Z" fill="#00051B"/>
<path d="M28.7585 108.384C27.2926 108.378 26.0313 108.017 24.9744 107.301C23.9233 106.585 23.1136 105.548 22.5455 104.19C21.983 102.832 21.7045 101.199 21.7102 99.2898C21.7102 97.3864 21.9915 95.7642 22.554 94.4233C23.1222 93.0824 23.9318 92.0625 24.983 91.3636C26.0398 90.6591 27.2983 90.3068 28.7585 90.3068C30.2188 90.3068 31.4744 90.6591 32.5256 91.3636C33.5824 92.0682 34.3949 93.0909 34.9631 94.4318C35.5313 95.767 35.8125 97.3864 35.8068 99.2898C35.8068 101.205 35.5227 102.841 34.9545 104.199C34.392 105.557 33.5852 106.594 32.5341 107.31C31.483 108.026 30.2244 108.384 28.7585 108.384ZM28.7585 105.324C29.7585 105.324 30.5568 104.821 31.1534 103.815C31.75 102.81 32.0455 101.301 32.0398 99.2898C32.0398 97.9659 31.9034 96.8636 31.6307 95.983C31.3636 95.1023 30.983 94.4403 30.4886 93.9972C30 93.554 29.4233 93.3324 28.7585 93.3324C27.7642 93.3324 26.9688 93.8295 26.3722 94.8239C25.7756 95.8182 25.4744 97.3068 25.4688 99.2898C25.4688 100.631 25.6023 101.75 25.8693 102.648C26.142 103.54 26.5256 104.21 27.0199 104.659C27.5142 105.102 28.0938 105.324 28.7585 105.324ZM39.4113 108.222C38.8488 108.222 38.3659 108.023 37.9625 107.625C37.5647 107.222 37.3659 106.739 37.3659 106.176C37.3659 105.619 37.5647 105.142 37.9625 104.744C38.3659 104.347 38.8488 104.148 39.4113 104.148C39.9568 104.148 40.4341 104.347 40.8432 104.744C41.2522 105.142 41.4568 105.619 41.4568 106.176C41.4568 106.551 41.3602 106.895 41.167 107.207C40.9795 107.514 40.7324 107.761 40.4255 107.949C40.1187 108.131 39.7807 108.222 39.4113 108.222ZM50.0641 108.384C48.5982 108.378 47.3369 108.017 46.2801 107.301C45.2289 106.585 44.4193 105.548 43.8511 104.19C43.2886 102.832 43.0102 101.199 43.0159 99.2898C43.0159 97.3864 43.2971 95.7642 43.8596 94.4233C44.4278 93.0824 45.2374 92.0625 46.2886 91.3636C47.3454 90.6591 48.6039 90.3068 50.0641 90.3068C51.5244 90.3068 52.7801 90.6591 53.8312 91.3636C54.888 92.0682 55.7005 93.0909 56.2687 94.4318C56.8369 95.767 57.1181 97.3864 57.1124 99.2898C57.1124 101.205 56.8284 102.841 56.2602 104.199C55.6977 105.557 54.8909 106.594 53.8397 107.31C52.7886 108.026 51.5301 108.384 50.0641 108.384ZM50.0641 105.324C51.0641 105.324 51.8624 104.821 52.459 103.815C53.0556 102.81 53.3511 101.301 53.3454 99.2898C53.3454 97.9659 53.209 96.8636 52.9363 95.983C52.6693 95.1023 52.2886 94.4403 51.7943 93.9972C51.3056 93.554 50.7289 93.3324 50.0641 93.3324C49.0698 93.3324 48.2744 93.8295 47.6778 94.8239C47.0812 95.8182 46.7801 97.3068 46.7744 99.2898C46.7744 100.631 46.9079 101.75 47.1749 102.648C47.4477 103.54 47.8312 104.21 48.3255 104.659C48.8198 105.102 49.3994 105.324 50.0641 105.324ZM66.1076 108.384C64.6417 108.378 63.3803 108.017 62.3235 107.301C61.2724 106.585 60.4627 105.548 59.8945 104.19C59.332 102.832 59.0536 101.199 59.0593 99.2898C59.0593 97.3864 59.3405 95.7642 59.903 94.4233C60.4712 93.0824 61.2809 92.0625 62.332 91.3636C63.3888 90.6591 64.6474 90.3068 66.1076 90.3068C67.5678 90.3068 68.8235 90.6591 69.8746 91.3636C70.9315 92.0682 71.744 93.0909 72.3121 94.4318C72.8803 95.767 73.1616 97.3864 73.1559 99.2898C73.1559 101.205 72.8718 102.841 72.3036 104.199C71.7411 105.557 70.9343 106.594 69.8832 107.31C68.832 108.026 67.5735 108.384 66.1076 108.384ZM66.1076 105.324C67.1076 105.324 67.9059 104.821 68.5025 103.815C69.0991 102.81 69.3945 101.301 69.3888 99.2898C69.3888 97.9659 69.2525 96.8636 68.9797 95.983C68.7127 95.1023 68.332 94.4403 67.8377 93.9972C67.3491 93.554 66.7724 93.3324 66.1076 93.3324C65.1133 93.3324 64.3178 93.8295 63.7212 94.8239C63.1246 95.8182 62.8235 97.3068 62.8178 99.2898C62.8178 100.631 62.9513 101.75 63.2184 102.648C63.4911 103.54 63.8746 104.21 64.369 104.659C64.8633 105.102 65.4428 105.324 66.1076 105.324ZM84.8613 104.727V103.807C84.8613 103.108 85.009 102.466 85.3044 101.881C85.6056 101.29 86.0402 100.818 86.6084 100.466C87.1823 100.108 87.8811 99.929 88.705 99.929C89.5402 99.929 90.2419 100.105 90.8101 100.457C91.384 100.81 91.8158 101.281 92.1056 101.872C92.401 102.457 92.5488 103.102 92.5488 103.807V104.727C92.5488 105.426 92.401 106.071 92.1056 106.662C91.8101 107.247 91.3755 107.716 90.8016 108.068C90.2277 108.426 89.5289 108.605 88.705 108.605C87.8698 108.605 87.1681 108.426 86.5999 108.068C86.0317 107.716 85.5999 107.247 85.3044 106.662C85.009 106.071 84.8613 105.426 84.8613 104.727ZM87.3414 103.807V104.727C87.3414 105.131 87.438 105.511 87.6311 105.869C87.83 106.227 88.188 106.406 88.705 106.406C89.222 106.406 89.5743 106.23 89.7618 105.878C89.955 105.526 90.0516 105.142 90.0516 104.727V103.807C90.0516 103.392 89.9607 103.006 89.7789 102.648C89.597 102.29 89.2391 102.111 88.705 102.111C88.1936 102.111 87.8385 102.29 87.6397 102.648C87.4408 103.006 87.3414 103.392 87.3414 103.807ZM75.9039 94.7386V93.8182C75.9039 93.1136 76.0544 92.4687 76.3556 91.8835C76.6567 91.2926 77.0914 90.821 77.6595 90.4688C78.2334 90.1165 78.9266 89.9403 79.7391 89.9403C80.58 89.9403 81.2845 90.1165 81.8527 90.4688C82.4209 90.821 82.8527 91.2926 83.1482 91.8835C83.4436 92.4687 83.5914 93.1136 83.5914 93.8182V94.7386C83.5914 95.4432 83.4408 96.0881 83.1397 96.6733C82.8442 97.2585 82.4095 97.7273 81.8357 98.0795C81.2675 98.4261 80.5686 98.5994 79.7391 98.5994C78.9095 98.5994 78.2078 98.4233 77.634 98.071C77.0658 97.7131 76.634 97.2443 76.3385 96.6648C76.0488 96.0795 75.9039 95.4375 75.9039 94.7386ZM78.401 93.8182V94.7386C78.401 95.1534 78.4976 95.5369 78.6908 95.8892C78.8897 96.2415 79.2391 96.4176 79.7391 96.4176C80.2618 96.4176 80.6169 96.2415 80.8044 95.8892C80.9976 95.5369 81.0942 95.1534 81.0942 94.7386V93.8182C81.0942 93.4034 81.0033 93.017 80.8215 92.6591C80.6397 92.3011 80.2789 92.1222 79.7391 92.1222C79.2334 92.1222 78.884 92.304 78.6908 92.6676C78.4976 93.0312 78.401 93.4148 78.401 93.8182ZM77.0289 108L89.0289 90.5455H91.2618L79.2618 108H77.0289Z" fill="#7575B3"/>
<defs>
<linearGradient id="paint0_linear_384_1885" x1="278" y1="-41.9496" x2="122.33" y2="109.226" gradientUnits="userSpaceOnUse">
<stop stop-color="#9898FF"/>
<stop offset="1" stop-color="#DBE4FF"/>
</linearGradient>
</defs>
</svg>
