<svg width="109" height="58" viewBox="0 0 109 58" fill="none" xmlns="http://www.w3.org/2000/svg">
<g clip-path="url(#clip0_384_5851)">
<path d="M54.5464 19.4399H35.7247L1.41452 53.7502C0.184547 54.9801 1.05566 57.0831 2.79507 57.0831H35.7247L54.5464 38.2615H35.7247L54.5464 19.4399Z" fill="#1313F2"/>
<path d="M106.296 0.618164H73.3683L54.5468 19.4397H73.3683L54.5468 38.2613H73.3683L107.677 3.95269C108.907 2.72214 108.036 0.618164 106.296 0.618164Z" fill="#1313F2"/>
<path d="M69.8356 50.019C67.885 50.019 66.3036 51.6004 66.3036 53.5511C66.3036 55.5017 67.885 57.0831 69.8356 57.0831C71.7862 57.0831 73.3676 55.5017 73.3676 53.5511C73.3676 51.6004 71.7862 50.019 69.8356 50.019ZM69.8356 56.3262C68.3029 56.3262 67.0604 55.0837 67.0604 53.5511C67.0604 52.0184 68.3029 50.7758 69.8356 50.7758C71.3683 50.7758 72.6108 52.0184 72.6108 53.5511C72.6108 55.0837 71.3683 56.3262 69.8356 56.3262Z" fill="#1313F2"/>
<path d="M69.8362 54.8116C69.4844 54.8116 69.1646 54.6669 68.9375 54.4346C68.7118 54.2073 68.5739 53.8959 68.5739 53.5509C68.5739 53.2007 68.717 52.8844 68.9475 52.6554C69.1764 52.4282 69.4896 52.2885 69.8362 52.2885C70.183 52.2885 70.4944 52.4282 70.7233 52.6537L71.2603 52.1201C70.895 51.7566 70.3918 51.5327 69.8362 51.5327C69.2808 51.5327 68.7775 51.7566 68.4124 52.1201C68.0454 52.4854 67.8181 52.992 67.8181 53.5509C67.8181 54.1047 68.0403 54.6063 68.4005 54.9698C68.7675 55.3402 69.2758 55.5691 69.8362 55.5691C70.3968 55.5691 70.9052 55.3402 71.272 54.9698L70.7351 54.4362C70.5061 54.6685 70.1881 54.8116 69.8362 54.8116Z" fill="#1313F2"/>
</g>
<defs>
<clipPath id="clip0_384_5851">
<rect width="107.414" height="56.4647" fill="white" transform="translate(0.838745 0.618164)"/>
</clipPath>
</defs>
</svg>
