<svg width="18" height="19" viewBox="0 0 18 19" fill="none" xmlns="http://www.w3.org/2000/svg">
<path d="M16.6 18.0671L10.3 11.7671C9.8 12.1671 9.225 12.4838 8.575 12.7171C7.925 12.9505 7.23333 13.0671 6.5 13.0671C4.68333 13.0671 3.14583 12.438 1.8875 11.1796C0.629167 9.92131 0 8.38381 0 6.56714C0 4.75047 0.629167 3.21297 1.8875 1.95464C3.14583 0.696305 4.68333 0.0671387 6.5 0.0671387C8.31667 0.0671387 9.85417 0.696305 11.1125 1.95464C12.3708 3.21297 13 4.75047 13 6.56714C13 7.30047 12.8833 7.99214 12.65 8.64214C12.4167 9.29214 12.1 9.86714 11.7 10.3671L18 16.6671L16.6 18.0671ZM6.5 11.0671C7.75 11.0671 8.8125 10.6296 9.6875 9.75464C10.5625 8.87964 11 7.81714 11 6.56714C11 5.31714 10.5625 4.25464 9.6875 3.37964C8.8125 2.50464 7.75 2.06714 6.5 2.06714C5.25 2.06714 4.1875 2.50464 3.3125 3.37964C2.4375 4.25464 2 5.31714 2 6.56714C2 7.81714 2.4375 8.87964 3.3125 9.75464C4.1875 10.6296 5.25 11.0671 6.5 11.0671Z" fill="#5B5B5B"/>
</svg>
