<svg width="54" height="54" viewBox="0 0 54 54" fill="none" xmlns="http://www.w3.org/2000/svg">
<rect width="54" height="54" rx="27" fill="#F2F2F2"/>
<mask id="mask0_384_2978" style="mask-type:alpha" maskUnits="userSpaceOnUse" x="15" y="15" width="24" height="24">
<rect x="15" y="15" width="24" height="24" fill="#D9D9D9"/>
</mask>
<g mask="url(#mask0_384_2978)">
<path d="M26.4042 34.2C26.2345 34.2 26.0914 34.1425 25.9747 34.0275C25.858 33.9125 25.7997 33.77 25.7997 33.6V27.925L19.9247 20.775C19.7747 20.575 19.7519 20.3625 19.8562 20.1375C19.9604 19.9125 20.1415 19.8 20.3997 19.8H33.5997C33.8579 19.8 34.039 19.9125 34.1432 20.1375C34.2475 20.3625 34.2247 20.575 34.0747 20.775L28.1997 27.925V33.6C28.1997 33.77 28.1424 33.9125 28.0277 34.0275C27.9129 34.1425 27.7707 34.2 27.6012 34.2H26.4042ZM26.9997 26.55L31.0497 21.6H22.9247L26.9997 26.55Z" fill="#5B5B5B"/>
</g>
</svg>
