<svg width="94" height="54" viewBox="0 0 94 54" fill="none" xmlns="http://www.w3.org/2000/svg">
<path d="M1 16.626V16.626C5.38997 14.3863 10.7457 15.4838 13.9008 19.2698L14.7002 20.2291C16.1307 21.9457 18.1768 23.0336 20.3999 23.2597V23.2597C23.7826 23.6037 26.6395 25.9206 27.6746 29.1594L27.9912 30.15C30.7433 38.7616 42.5409 39.7302 46.6608 31.6829L48.5578 27.9776C50.5846 24.0187 54.6575 21.5283 59.105 21.5283H61.62C64.6475 21.5283 67.6095 20.6467 70.1443 18.9913V18.9913C72.5141 17.4437 74.3667 15.2485 75.8623 12.8456C78.7755 8.16547 83.2622 2.94762 87.247 4.37076" stroke="#E24A3F" stroke-width="1.59477" stroke-linecap="round"/>
<circle cx="88.7848" cy="5.8038" r="4.21494" fill="#F9FAFC" stroke="#E24A3F" stroke-width="1.59477" stroke-linecap="round"/>
</svg>
