<svg width="77" height="76" viewBox="0 0 77 76" fill="none" xmlns="http://www.w3.org/2000/svg">
<rect x="0.5" width="76" height="76" rx="38" fill="#F2F2F2"/>
<mask id="mask0_384_3159" style="mask-type:alpha" maskUnits="userSpaceOnUse" x="23" y="22" width="32" height="32">
<rect x="23" y="22" width="32" height="32" fill="#D9D9D9"/>
</mask>
<g mask="url(#mask0_384_3159)">
<path d="M32.3335 47.3333V44.6666H41.8002C43.2002 44.6666 44.4168 44.2221 45.4502 43.3333C46.4835 42.4444 47.0002 41.3333 47.0002 39.9999C47.0002 38.6666 46.4835 37.5555 45.4502 36.6666C44.4168 35.7777 43.2002 35.3333 41.8002 35.3333H33.4002L36.8668 38.7999L35.0002 40.6666L28.3335 33.9999L35.0002 27.3333L36.8668 29.1999L33.4002 32.6666H41.8002C43.9557 32.6666 45.8057 33.3666 47.3502 34.7666C48.8946 36.1666 49.6668 37.911 49.6668 39.9999C49.6668 42.0888 48.8946 43.8333 47.3502 45.2333C45.8057 46.6333 43.9557 47.3333 41.8002 47.3333H32.3335Z" fill="#1313F2"/>
</g>
</svg>
