<svg width="74" height="75" viewBox="0 0 74 75" fill="none" xmlns="http://www.w3.org/2000/svg">
<path d="M61.98 54.7571C66.3609 48.3996 68.1492 40.6093 66.9797 32.9777C65.8101 25.3461 61.771 18.4489 55.6873 13.695L47.1666 24.5993C50.4714 27.1817 52.6655 30.9283 53.3008 35.074C53.9361 39.2196 52.9647 43.4514 50.5849 46.9049L61.98 54.7571Z" fill="#9898FF"/>
<path d="M57.0623 14.8314C51.2682 9.72866 43.7445 7.03055 36.0281 7.28826C28.3116 7.54597 20.9847 10.7401 15.544 16.2181L25.3627 25.9699C28.3182 22.9942 32.2983 21.2591 36.49 21.1191C40.6817 20.9791 44.7687 22.4448 47.9161 25.2167L57.0623 14.8314Z" fill="#041D6F"/>
<path d="M19.8864 12.5861C16.1386 15.1576 13.0175 18.5394 10.7542 22.4809C8.49093 26.4224 7.1435 30.8227 6.81176 35.3557C6.48002 39.8886 7.17246 44.4382 8.83779 48.6672C10.5031 52.8962 13.0986 56.6964 16.4321 59.7861C19.7655 62.8758 23.7514 65.1758 28.0945 66.5159C32.4376 67.8559 37.0265 68.2016 41.5213 67.5273C46.0161 66.853 50.3016 65.1759 54.0603 62.6205C57.8189 60.065 60.9544 56.6966 63.2345 52.7647L51.2631 45.8226C50.0246 47.9584 48.3213 49.7882 46.2796 51.1764C44.2378 52.5646 41.9098 53.4756 39.4682 53.8419C37.0265 54.2082 34.5338 54.0204 32.1745 53.2924C29.8153 52.5645 27.6501 51.3151 25.8393 49.6367C24.0286 47.9583 22.6186 45.894 21.714 43.5968C20.8094 41.2995 20.4332 38.8281 20.6134 36.3657C20.7936 33.9033 21.5256 31.513 22.755 29.3719C23.9845 27.2308 25.6799 25.3938 27.7157 23.997L19.8864 12.5861Z" fill="#1313F2"/>
</svg>
