<svg width="48" height="48" viewBox="0 0 48 48" fill="none" xmlns="http://www.w3.org/2000/svg">
<rect width="48" height="48" rx="24" fill="#1313F2"/>
<mask id="mask0_462_653" style="mask-type:alpha" maskUnits="userSpaceOnUse" x="12" y="12" width="24" height="24">
<rect x="12" y="12" width="24" height="24" fill="#D9D9D9"/>
</mask>
<g mask="url(#mask0_462_653)">
<path d="M24 16L18.075 19.425L24 22.85L29.925 19.425L24 16ZM15 27.975V20.025C15 19.6583 15.0875 19.325 15.2625 19.025C15.4375 18.725 15.6833 18.4833 16 18.3L23 14.275C23.1667 14.1917 23.3292 14.125 23.4875 14.075C23.6458 14.025 23.8167 14 24 14C24.1833 14 24.3583 14.025 24.525 14.075C24.6917 14.125 24.85 14.1917 25 14.275L32 18.3C32.3167 18.4833 32.5625 18.725 32.7375 19.025C32.9125 19.325 33 19.6583 33 20.025V24H31V21.1L23.975 25.15L17 21.1V27.95L23 31.425V33.725L16 29.7C15.6833 29.5167 15.4375 29.275 15.2625 28.975C15.0875 28.675 15 28.3417 15 27.975ZM30 34C30.1333 34 30.25 33.95 30.35 33.85C30.45 33.75 30.5 33.6333 30.5 33.5C30.5 33.3667 30.45 33.25 30.35 33.15C30.25 33.05 30.1333 33 30 33C29.8667 33 29.75 33.05 29.65 33.15C29.55 33.25 29.5 33.3667 29.5 33.5C29.5 33.6333 29.55 33.75 29.65 33.85C29.75 33.95 29.8667 34 30 34ZM29.5 32H30.5V28H29.5V32ZM30 36C28.6167 36 27.4375 35.5125 26.4625 34.5375C25.4875 33.5625 25 32.3833 25 31C25 29.6167 25.4875 28.4375 26.4625 27.4625C27.4375 26.4875 28.6167 26 30 26C31.3833 26 32.5625 26.4875 33.5375 27.4625C34.5125 28.4375 35 29.6167 35 31C35 32.3833 34.5125 33.5625 33.5375 34.5375C32.5625 35.5125 31.3833 36 30 36Z" fill="#F9FAFC"/>
</g>
</svg>
