<svg width="76" height="76" viewBox="0 0 76 76" fill="none" xmlns="http://www.w3.org/2000/svg">
<rect width="76" height="76" rx="38" fill="#F2F2F2"/>
<mask id="mask0_384_3153" style="mask-type:alpha" maskUnits="userSpaceOnUse" x="22" y="22" width="32" height="32">
<rect x="22" y="22" width="32" height="32" fill="#D9D9D9"/>
</mask>
<g mask="url(#mask0_384_3153)">
<path d="M31.3333 44.6667H40.6667V42H31.3333V44.6667ZM31.3333 39.3333H44.6667V36.6667H31.3333V39.3333ZM31.3333 34H44.6667V31.3333H31.3333V34ZM28.6667 50C27.9333 50 27.3056 49.7389 26.7833 49.2167C26.2611 48.6944 26 48.0667 26 47.3333V28.6667C26 27.9333 26.2611 27.3056 26.7833 26.7833C27.3056 26.2611 27.9333 26 28.6667 26H47.3333C48.0667 26 48.6944 26.2611 49.2167 26.7833C49.7389 27.3056 50 27.9333 50 28.6667V47.3333C50 48.0667 49.7389 48.6944 49.2167 49.2167C48.6944 49.7389 48.0667 50 47.3333 50H28.6667ZM28.6667 47.3333H47.3333V28.6667H28.6667V47.3333Z" fill="#1313F2"/>
</g>
</svg>
