<svg width="287" height="55" viewBox="0 0 287 55" fill="none" xmlns="http://www.w3.org/2000/svg">
<rect y="0.0671387" width="287" height="54" rx="27" fill="#F2F2F2"/>
<path d="M61.1186 32.0671V21.8853H64.8473C65.5698 21.8853 66.1681 22.0046 66.642 22.2433C67.116 22.4786 67.4706 22.7984 67.706 23.2028C67.9413 23.6038 68.0589 24.0562 68.0589 24.56C68.0589 24.9843 67.9811 25.3422 67.8253 25.6339C67.6695 25.9223 67.4607 26.1543 67.1989 26.3299C66.9403 26.5023 66.6553 26.6282 66.3438 26.7078V26.8072C66.6818 26.8238 67.0116 26.9331 67.3331 27.1353C67.6579 27.3342 67.9264 27.6176 68.1385 27.9855C68.3506 28.3534 68.4567 28.8008 68.4567 29.3278C68.4567 29.8482 68.334 30.3155 68.0888 30.7298C67.8468 31.1408 67.4723 31.4672 66.9652 31.7092C66.4581 31.9478 65.8101 32.0671 65.0213 32.0671H61.1186ZM62.6548 30.7497H64.8722C65.608 30.7497 66.1349 30.6071 66.4531 30.3221C66.7713 30.0371 66.9304 29.6808 66.9304 29.2532C66.9304 28.9317 66.8492 28.6367 66.6868 28.3683C66.5244 28.0998 66.2924 27.886 65.9908 27.7269C65.6925 27.5678 65.3378 27.4883 64.9268 27.4883H62.6548V30.7497ZM62.6548 26.2901H64.7131C65.0578 26.2901 65.3677 26.2239 65.6428 26.0913C65.9212 25.9587 66.1416 25.7731 66.304 25.5345C66.4697 25.2925 66.5526 25.0075 66.5526 24.6794C66.5526 24.2584 66.4051 23.9054 66.1101 23.6204C65.8151 23.3354 65.3627 23.1928 64.7528 23.1928H62.6548V26.2901ZM74.8568 28.9002V24.4308H76.3483V32.0671H74.8866V30.7447H74.8071C74.6314 31.1524 74.3497 31.4921 73.9619 31.7639C73.5774 32.0323 73.0985 32.1666 72.5251 32.1666C72.0346 32.1666 71.6004 32.0589 71.2226 31.8434C70.848 31.6247 70.5531 31.3015 70.3376 30.874C70.1255 30.4464 70.0194 29.9178 70.0194 29.288V24.4308H71.506V29.109C71.506 29.6294 71.6501 30.0437 71.9385 30.3519C72.2268 30.6602 72.6014 30.8143 73.0621 30.8143C73.3405 30.8143 73.6172 30.7447 73.8923 30.6055C74.1707 30.4663 74.4011 30.2558 74.5834 29.9741C74.769 29.6924 74.8601 29.3344 74.8568 28.9002ZM83.9279 26.2951L82.5806 26.5338C82.5243 26.3614 82.4348 26.1973 82.3122 26.0416C82.1928 25.8858 82.0304 25.7582 81.8249 25.6588C81.6194 25.5593 81.3626 25.5096 81.0543 25.5096C80.6334 25.5096 80.2821 25.6041 80.0004 25.793C79.7186 25.9786 79.5778 26.2189 79.5778 26.5139C79.5778 26.7691 79.6722 26.9746 79.8612 27.1303C80.0501 27.2861 80.355 27.4137 80.7759 27.5132L81.989 27.7916C82.6916 27.954 83.2153 28.2042 83.56 28.5423C83.9047 28.8803 84.0771 29.3195 84.0771 29.8598C84.0771 30.3171 83.9445 30.7248 83.6793 31.0828C83.4175 31.4374 83.0513 31.7158 82.5806 31.918C82.1133 32.1202 81.5714 32.2213 80.9549 32.2213C80.0998 32.2213 79.4021 32.039 78.8619 31.6744C78.3216 31.3065 77.9902 30.7845 77.8675 30.1083L79.3043 29.8896C79.3938 30.2641 79.5778 30.5475 79.8562 30.7397C80.1346 30.9286 80.4975 31.0231 80.945 31.0231C81.4322 31.0231 81.8216 30.922 82.1133 30.7198C82.405 30.5143 82.5508 30.2641 82.5508 29.9691C82.5508 29.7305 82.4613 29.53 82.2823 29.3676C82.1067 29.2052 81.8365 29.0825 81.472 28.9997L80.1793 28.7163C79.4667 28.5539 78.9398 28.2954 78.5984 27.9407C78.2603 27.5861 78.0913 27.137 78.0913 26.5934C78.0913 26.1427 78.2172 25.7482 78.4691 25.4102C78.721 25.0721 79.069 24.8086 79.5131 24.6197C79.9573 24.4275 80.466 24.3313 81.0394 24.3313C81.8647 24.3313 82.5143 24.5103 82.9883 24.8683C83.4622 25.2229 83.7755 25.6985 83.9279 26.2951ZM88.7881 32.2213C88.049 32.2213 87.4126 32.0539 86.879 31.7191C86.3487 31.3811 85.941 30.9154 85.656 30.3221C85.371 29.7288 85.2284 29.0494 85.2284 28.2838C85.2284 27.5082 85.3743 26.8238 85.6659 26.2305C85.9576 25.6339 86.3686 25.1682 86.8989 24.8335C87.4292 24.4987 88.054 24.3313 88.7732 24.3313C89.3532 24.3313 89.8702 24.4391 90.3243 24.6545C90.7784 24.8666 91.1446 25.1649 91.423 25.5494C91.7048 25.9339 91.8721 26.383 91.9252 26.8967H90.4784C90.3989 26.5387 90.2166 26.2305 89.9316 25.972C89.6498 25.7134 89.272 25.5842 88.798 25.5842C88.3837 25.5842 88.0208 25.6936 87.7093 25.9123C87.401 26.1277 87.1607 26.436 86.9884 26.837C86.816 27.2348 86.7299 27.7054 86.7299 28.249C86.7299 28.8058 86.8144 29.2864 86.9834 29.6907C87.1524 30.0951 87.3911 30.4083 87.6993 30.6303C88.0109 30.8524 88.3771 30.9634 88.798 30.9634C89.0798 30.9634 89.335 30.9121 89.5637 30.8093C89.7957 30.7033 89.9896 30.5525 90.1453 30.3569C90.3044 30.1614 90.4155 29.926 90.4784 29.6509H91.9252C91.8721 30.1448 91.7114 30.5856 91.4429 30.9734C91.1745 31.3612 90.8148 31.6661 90.3641 31.8882C89.9166 32.1102 89.3913 32.2213 88.7881 32.2213ZM95.5971 32.2362C95.1132 32.2362 94.6757 32.1467 94.2846 31.9677C93.8935 31.7854 93.5836 31.5219 93.3549 31.1772C93.1296 30.8325 93.0169 30.4099 93.0169 29.9095C93.0169 29.4786 93.0997 29.124 93.2655 28.8455C93.4312 28.5671 93.6549 28.3467 93.9366 28.1843C94.2183 28.0219 94.5332 27.8993 94.8812 27.8164C95.2292 27.7336 95.5839 27.6706 95.9451 27.6275C96.4025 27.5745 96.7737 27.5314 97.0588 27.4982C97.3438 27.4618 97.551 27.4038 97.6802 27.3242C97.8095 27.2447 97.8741 27.1154 97.8741 26.9365V26.9017C97.8741 26.4675 97.7515 26.1311 97.5062 25.8924C97.2643 25.6538 96.903 25.5345 96.4224 25.5345C95.9219 25.5345 95.5275 25.6455 95.2392 25.8676C94.9541 26.0863 94.7569 26.3299 94.6476 26.5984L93.2505 26.2802C93.4163 25.8162 93.6582 25.4417 93.9764 25.1566C94.2979 24.8683 94.6674 24.6595 95.0851 24.5302C95.5027 24.3976 95.9418 24.3313 96.4025 24.3313C96.7075 24.3313 97.0306 24.3678 97.372 24.4407C97.7167 24.5103 98.0382 24.6396 98.3365 24.8285C98.6381 25.0174 98.885 25.2875 99.0773 25.6389C99.2695 25.9869 99.3656 26.4393 99.3656 26.9961V32.0671H97.9139V31.0231H97.8542C97.7581 31.2153 97.6139 31.4043 97.4217 31.5899C97.2295 31.7755 96.9826 31.9296 96.6809 32.0522C96.3793 32.1749 96.0181 32.2362 95.5971 32.2362ZM95.9203 31.043C96.3313 31.043 96.6826 30.9618 96.9743 30.7994C97.2692 30.637 97.493 30.4249 97.6454 30.163C97.8012 29.8979 97.8791 29.6145 97.8791 29.3129V28.3285C97.8261 28.3815 97.7233 28.4312 97.5709 28.4776C97.4217 28.5207 97.251 28.5589 97.0588 28.592C96.8665 28.6218 96.6793 28.65 96.497 28.6765C96.3147 28.6997 96.1622 28.7196 96.0396 28.7362C95.7513 28.7726 95.4878 28.8339 95.2491 28.9201C95.0138 29.0063 94.8249 29.1306 94.6824 29.293C94.5432 29.4521 94.4736 29.6642 94.4736 29.9294C94.4736 30.2973 94.6094 30.5757 94.8812 30.7646C95.153 30.9502 95.4994 31.043 95.9203 31.043ZM101.206 32.0671V24.4308H102.642V25.6438H102.722C102.861 25.2329 103.106 24.9097 103.458 24.6744C103.812 24.4357 104.213 24.3164 104.661 24.3164C104.754 24.3164 104.863 24.3197 104.989 24.3264C105.118 24.333 105.219 24.3413 105.292 24.3512V25.7731C105.233 25.7565 105.126 25.7383 104.974 25.7184C104.822 25.6952 104.669 25.6836 104.517 25.6836C104.165 25.6836 103.852 25.7582 103.577 25.9073C103.305 26.0532 103.09 26.257 102.931 26.5188C102.772 26.7774 102.692 27.0723 102.692 27.4038V32.0671H101.206ZM113.568 24.4308V25.624H109.397V24.4308H113.568ZM110.516 22.6012H112.002V29.825C112.002 30.1133 112.045 30.3304 112.132 30.4762C112.218 30.6187 112.329 30.7165 112.465 30.7696C112.604 30.8193 112.755 30.8441 112.917 30.8441C113.036 30.8441 113.141 30.8358 113.23 30.8193C113.32 30.8027 113.389 30.7894 113.439 30.7795L113.708 32.0075C113.621 32.0406 113.499 32.0738 113.34 32.1069C113.181 32.1434 112.982 32.1633 112.743 32.1666C112.352 32.1732 111.987 32.1036 111.649 31.9578C111.311 31.8119 111.038 31.5866 110.829 31.2816C110.62 30.9767 110.516 30.5939 110.516 30.1332V22.6012ZM115.073 32.0671V24.4308H116.509V25.6438H116.589C116.728 25.2329 116.973 24.9097 117.325 24.6744C117.679 24.4357 118.08 24.3164 118.528 24.3164C118.621 24.3164 118.73 24.3197 118.856 24.3264C118.985 24.333 119.086 24.3413 119.159 24.3512V25.7731C119.1 25.7565 118.994 25.7383 118.841 25.7184C118.689 25.6952 118.536 25.6836 118.384 25.6836C118.032 25.6836 117.719 25.7582 117.444 25.9073C117.172 26.0532 116.957 26.257 116.798 26.5188C116.639 26.7774 116.559 27.0723 116.559 27.4038V32.0671H115.073ZM122.46 32.2362C121.976 32.2362 121.538 32.1467 121.147 31.9677C120.756 31.7854 120.446 31.5219 120.217 31.1772C119.992 30.8325 119.879 30.4099 119.879 29.9095C119.879 29.4786 119.962 29.124 120.128 28.8455C120.294 28.5671 120.517 28.3467 120.799 28.1843C121.081 28.0219 121.396 27.8993 121.744 27.8164C122.092 27.7336 122.446 27.6706 122.808 27.6275C123.265 27.5745 123.636 27.5314 123.921 27.4982C124.206 27.4618 124.413 27.4038 124.543 27.3242C124.672 27.2447 124.737 27.1154 124.737 26.9365V26.9017C124.737 26.4675 124.614 26.1311 124.369 25.8924C124.127 25.6538 123.766 25.5345 123.285 25.5345C122.784 25.5345 122.39 25.6455 122.102 25.8676C121.817 26.0863 121.619 26.3299 121.51 26.5984L120.113 26.2802C120.279 25.8162 120.521 25.4417 120.839 25.1566C121.16 24.8683 121.53 24.6595 121.948 24.5302C122.365 24.3976 122.804 24.3313 123.265 24.3313C123.57 24.3313 123.893 24.3678 124.234 24.4407C124.579 24.5103 124.901 24.6396 125.199 24.8285C125.501 25.0174 125.748 25.2875 125.94 25.6389C126.132 25.9869 126.228 26.4393 126.228 26.9961V32.0671H124.776V31.0231H124.717C124.621 31.2153 124.476 31.4043 124.284 31.5899C124.092 31.7755 123.845 31.9296 123.543 32.0522C123.242 32.1749 122.881 32.2362 122.46 32.2362ZM122.783 31.043C123.194 31.043 123.545 30.9618 123.837 30.7994C124.132 30.637 124.355 30.4249 124.508 30.163C124.664 29.8979 124.742 29.6145 124.742 29.3129V28.3285C124.689 28.3815 124.586 28.4312 124.433 28.4776C124.284 28.5207 124.114 28.5589 123.921 28.592C123.729 28.6218 123.542 28.65 123.359 28.6765C123.177 28.6997 123.025 28.7196 122.902 28.7362C122.614 28.7726 122.35 28.8339 122.112 28.9201C121.876 29.0063 121.687 29.1306 121.545 29.293C121.406 29.4521 121.336 29.6642 121.336 29.9294C121.336 30.2973 121.472 30.5757 121.744 30.7646C122.016 30.9502 122.362 31.043 122.783 31.043ZM129.555 27.533V32.0671H128.068V24.4308H129.495V25.6737H129.589C129.765 25.2693 130.04 24.9445 130.415 24.6992C130.792 24.454 131.268 24.3313 131.841 24.3313C132.362 24.3313 132.818 24.4407 133.209 24.6595C133.6 24.8749 133.903 25.1964 134.118 25.624C134.334 26.0515 134.442 26.5802 134.442 27.2099V32.0671H132.955V27.3889C132.955 26.8354 132.811 26.4028 132.523 26.0913C132.234 25.7764 131.838 25.619 131.334 25.619C130.99 25.619 130.683 25.6936 130.415 25.8427C130.149 25.9919 129.939 26.2106 129.783 26.499C129.631 26.784 129.555 27.1287 129.555 27.533ZM142.018 26.2951L140.67 26.5338C140.614 26.3614 140.524 26.1973 140.402 26.0416C140.282 25.8858 140.12 25.7582 139.915 25.6588C139.709 25.5593 139.452 25.5096 139.144 25.5096C138.723 25.5096 138.372 25.6041 138.09 25.793C137.808 25.9786 137.667 26.2189 137.667 26.5139C137.667 26.7691 137.762 26.9746 137.951 27.1303C138.14 27.2861 138.445 27.4137 138.866 27.5132L140.079 27.7916C140.781 27.954 141.305 28.2042 141.65 28.5423C141.994 28.8803 142.167 29.3195 142.167 29.8598C142.167 30.3171 142.034 30.7248 141.769 31.0828C141.507 31.4374 141.141 31.7158 140.67 31.918C140.203 32.1202 139.661 32.2213 139.045 32.2213C138.189 32.2213 137.492 32.039 136.951 31.6744C136.411 31.3065 136.08 30.7845 135.957 30.1083L137.394 29.8896C137.483 30.2641 137.667 30.5475 137.946 30.7397C138.224 30.9286 138.587 31.0231 139.035 31.0231C139.522 31.0231 139.911 30.922 140.203 30.7198C140.495 30.5143 140.64 30.2641 140.64 29.9691C140.64 29.7305 140.551 29.53 140.372 29.3676C140.196 29.2052 139.926 29.0825 139.562 28.9997L138.269 28.7163C137.556 28.5539 137.029 28.2954 136.688 27.9407C136.35 27.5861 136.181 27.137 136.181 26.5934C136.181 26.1427 136.307 25.7482 136.559 25.4102C136.811 25.0721 137.159 24.8086 137.603 24.6197C138.047 24.4275 138.556 24.3313 139.129 24.3313C139.954 24.3313 140.604 24.5103 141.078 24.8683C141.552 25.2229 141.865 25.6985 142.018 26.2951ZM145.883 32.2362C145.399 32.2362 144.962 32.1467 144.571 31.9677C144.18 31.7854 143.87 31.5219 143.641 31.1772C143.416 30.8325 143.303 30.4099 143.303 29.9095C143.303 29.4786 143.386 29.124 143.552 28.8455C143.717 28.5671 143.941 28.3467 144.223 28.1843C144.505 28.0219 144.819 27.8993 145.167 27.8164C145.515 27.7336 145.87 27.6706 146.231 27.6275C146.689 27.5745 147.06 27.5314 147.345 27.4982C147.63 27.4618 147.837 27.4038 147.966 27.3242C148.096 27.2447 148.16 27.1154 148.16 26.9365V26.9017C148.16 26.4675 148.038 26.1311 147.792 25.8924C147.551 25.6538 147.189 25.5345 146.709 25.5345C146.208 25.5345 145.814 25.6455 145.525 25.8676C145.24 26.0863 145.043 26.3299 144.934 26.5984L143.537 26.2802C143.703 25.8162 143.944 25.4417 144.263 25.1566C144.584 24.8683 144.954 24.6595 145.371 24.5302C145.789 24.3976 146.228 24.3313 146.689 24.3313C146.994 24.3313 147.317 24.3678 147.658 24.4407C148.003 24.5103 148.324 24.6396 148.623 24.8285C148.924 25.0174 149.171 25.2875 149.364 25.6389C149.556 25.9869 149.652 26.4393 149.652 26.9961V32.0671H148.2V31.0231H148.14C148.044 31.2153 147.9 31.4043 147.708 31.5899C147.516 31.7755 147.269 31.9296 146.967 32.0522C146.666 32.1749 146.304 32.2362 145.883 32.2362ZM146.207 31.043C146.618 31.043 146.969 30.9618 147.261 30.7994C147.555 30.637 147.779 30.4249 147.932 30.163C148.087 29.8979 148.165 29.6145 148.165 29.3129V28.3285C148.112 28.3815 148.01 28.4312 147.857 28.4776C147.708 28.5207 147.537 28.5589 147.345 28.592C147.153 28.6218 146.966 28.65 146.783 28.6765C146.601 28.6997 146.448 28.7196 146.326 28.7362C146.038 28.7726 145.774 28.8339 145.535 28.9201C145.3 29.0063 145.111 29.1306 144.969 29.293C144.829 29.4521 144.76 29.6642 144.76 29.9294C144.76 30.2973 144.896 30.5757 145.167 30.7646C145.439 30.9502 145.786 31.043 146.207 31.043ZM154.708 32.2213C153.969 32.2213 153.333 32.0539 152.799 31.7191C152.269 31.3811 151.861 30.9154 151.576 30.3221C151.291 29.7288 151.149 29.0494 151.149 28.2838C151.149 27.5082 151.295 26.8238 151.586 26.2305C151.878 25.6339 152.289 25.1682 152.819 24.8335C153.35 24.4987 153.974 24.3313 154.693 24.3313C155.274 24.3313 155.791 24.4391 156.245 24.6545C156.699 24.8666 157.065 25.1649 157.343 25.5494C157.625 25.9339 157.792 26.383 157.845 26.8967H156.399C156.319 26.5387 156.137 26.2305 155.852 25.972C155.57 25.7134 155.192 25.5842 154.718 25.5842C154.304 25.5842 153.941 25.6936 153.63 25.9123C153.321 26.1277 153.081 26.436 152.909 26.837C152.736 27.2348 152.65 27.7054 152.65 28.249C152.65 28.8058 152.735 29.2864 152.904 29.6907C153.073 30.0951 153.311 30.4083 153.62 30.6303C153.931 30.8524 154.297 30.9634 154.718 30.9634C155 30.9634 155.255 30.9121 155.484 30.8093C155.716 30.7033 155.91 30.5525 156.066 30.3569C156.225 30.1614 156.336 29.926 156.399 29.6509H157.845C157.792 30.1448 157.632 30.5856 157.363 30.9734C157.095 31.3612 156.735 31.6661 156.284 31.8882C155.837 32.1102 155.312 32.2213 154.708 32.2213ZM154.171 32.0274H155.146L155.066 32.435C155.355 32.4814 155.607 32.5974 155.822 32.783C156.037 32.9687 156.145 33.2487 156.145 33.6232C156.149 34.0707 155.955 34.4336 155.564 34.712C155.176 34.9904 154.614 35.1296 153.878 35.1296L153.848 34.2994C154.193 34.2994 154.471 34.2497 154.684 34.1502C154.899 34.0508 155.008 33.8901 155.012 33.668C155.015 33.4459 154.932 33.2902 154.763 33.2007C154.597 33.1112 154.332 33.0482 153.968 33.0117L154.171 32.0274ZM162.512 32.2213C161.796 32.2213 161.171 32.0572 160.637 31.7291C160.104 31.4009 159.69 30.9419 159.395 30.3519C159.1 29.762 158.952 29.0726 158.952 28.2838C158.952 27.4916 159.1 26.7989 159.395 26.2056C159.69 25.6124 160.104 25.1517 160.637 24.8235C161.171 24.4954 161.796 24.3313 162.512 24.3313C163.228 24.3313 163.852 24.4954 164.386 24.8235C164.92 25.1517 165.334 25.6124 165.629 26.2056C165.924 26.7989 166.071 27.4916 166.071 28.2838C166.071 29.0726 165.924 29.762 165.629 30.3519C165.334 30.9419 164.92 31.4009 164.386 31.7291C163.852 32.0572 163.228 32.2213 162.512 32.2213ZM162.517 30.9734C162.981 30.9734 163.365 30.8508 163.67 30.6055C163.975 30.3602 164.2 30.0338 164.346 29.6261C164.495 29.2184 164.57 28.7693 164.57 28.2788C164.57 27.7916 164.495 27.3441 164.346 26.9365C164.2 26.5255 163.975 26.1957 163.67 25.9471C163.365 25.6985 162.981 25.5742 162.517 25.5742C162.049 25.5742 161.662 25.6985 161.353 25.9471C161.048 26.1957 160.821 26.5255 160.672 26.9365C160.526 27.3441 160.454 27.7916 160.454 28.2788C160.454 28.7693 160.526 29.2184 160.672 29.6261C160.821 30.0338 161.048 30.3602 161.353 30.6055C161.662 30.8508 162.049 30.9734 162.517 30.9734ZM161.015 23.5061L160.016 23.4762C160.016 22.926 160.164 22.4869 160.459 22.1588C160.757 21.8306 161.125 21.6666 161.562 21.6666C161.764 21.6666 161.942 21.7014 162.094 21.771C162.247 21.8373 162.389 21.9152 162.522 22.0046C162.658 22.0908 162.792 22.1687 162.924 22.2383C163.06 22.3046 163.211 22.3377 163.377 22.3377C163.569 22.3377 163.725 22.2648 163.844 22.119C163.967 21.9732 164.028 21.7925 164.028 21.5771L165.008 21.6417C165.008 22.1952 164.858 22.6311 164.56 22.9492C164.262 23.2641 163.896 23.4232 163.461 23.4265C163.226 23.4265 163.03 23.3934 162.875 23.3271C162.722 23.2575 162.586 23.1796 162.467 23.0934C162.348 23.0039 162.225 22.9244 162.099 22.8548C161.973 22.7852 161.822 22.7504 161.647 22.7504C161.461 22.7504 161.309 22.8233 161.189 22.9691C161.073 23.1116 161.015 23.2906 161.015 23.5061ZM170.882 32.2213C170.13 32.2213 169.482 32.0605 168.938 31.739C168.398 31.4142 167.98 30.9585 167.685 30.3718C167.393 29.7819 167.248 29.0908 167.248 28.2987C167.248 27.5165 167.393 26.8271 167.685 26.2305C167.98 25.6339 168.391 25.1682 168.918 24.8335C169.448 24.4987 170.068 24.3313 170.777 24.3313C171.208 24.3313 171.626 24.4026 172.03 24.5451C172.435 24.6876 172.798 24.9114 173.119 25.2163C173.441 25.5212 173.694 25.9173 173.88 26.4045C174.065 26.8884 174.158 27.4767 174.158 28.1694V28.6964H168.088V27.5828H172.701C172.701 27.1917 172.622 26.8453 172.463 26.5437C172.304 26.2388 172.08 25.9985 171.792 25.8228C171.507 25.6472 171.172 25.5593 170.787 25.5593C170.37 25.5593 170.005 25.6621 169.694 25.8676C169.385 26.0697 169.147 26.3349 168.978 26.663C168.812 26.9878 168.729 27.3408 168.729 27.722V28.592C168.729 29.1024 168.819 29.5366 168.998 29.8946C169.18 30.2525 169.434 30.5259 169.758 30.7149C170.083 30.9005 170.463 30.9933 170.897 30.9933C171.179 30.9933 171.435 30.9535 171.667 30.874C171.899 30.7911 172.1 30.6685 172.269 30.5061C172.438 30.3437 172.567 30.1431 172.657 29.9045L174.064 30.158C173.951 30.5723 173.749 30.9353 173.457 31.2468C173.169 31.5551 172.806 31.7954 172.368 31.9677C171.934 32.1367 171.439 32.2213 170.882 32.2213ZM181.39 26.2951L180.042 26.5338C179.986 26.3614 179.897 26.1973 179.774 26.0416C179.655 25.8858 179.492 25.7582 179.287 25.6588C179.081 25.5593 178.824 25.5096 178.516 25.5096C178.095 25.5096 177.744 25.6041 177.462 25.793C177.181 25.9786 177.04 26.2189 177.04 26.5139C177.04 26.7691 177.134 26.9746 177.323 27.1303C177.512 27.2861 177.817 27.4137 178.238 27.5132L179.451 27.7916C180.154 27.954 180.677 28.2042 181.022 28.5423C181.367 28.8803 181.539 29.3195 181.539 29.8598C181.539 30.3171 181.406 30.7248 181.141 31.0828C180.879 31.4374 180.513 31.7158 180.042 31.918C179.575 32.1202 179.033 32.2213 178.417 32.2213C177.562 32.2213 176.864 32.039 176.324 31.6744C175.783 31.3065 175.452 30.7845 175.329 30.1083L176.766 29.8896C176.856 30.2641 177.04 30.5475 177.318 30.7397C177.596 30.9286 177.959 31.0231 178.407 31.0231C178.894 31.0231 179.283 30.922 179.575 30.7198C179.867 30.5143 180.013 30.2641 180.013 29.9691C180.013 29.7305 179.923 29.53 179.744 29.3676C179.569 29.2052 179.298 29.0825 178.934 28.9997L177.641 28.7163C176.929 28.5539 176.402 28.2954 176.06 27.9407C175.722 27.5861 175.553 27.137 175.553 26.5934C175.553 26.1427 175.679 25.7482 175.931 25.4102C176.183 25.0721 176.531 24.8086 176.975 24.6197C177.419 24.4275 177.928 24.3313 178.501 24.3313C179.327 24.3313 179.976 24.5103 180.45 24.8683C180.924 25.2229 181.237 25.6985 181.39 26.2951Z" fill="#5B5B5B"/>
<mask id="mask0_384_2973" style="mask-type:alpha" maskUnits="userSpaceOnUse" x="203" y="15" width="24" height="25">
<rect x="203" y="15.0671" width="24" height="24" fill="#D9D9D9"/>
</mask>
<g mask="url(#mask0_384_2973)">
<path d="M222.6 36.0671L216.3 29.7671C215.8 30.1671 215.225 30.4838 214.575 30.7171C213.925 30.9505 213.233 31.0671 212.5 31.0671C210.683 31.0671 209.146 30.438 207.888 29.1796C206.629 27.9213 206 26.3838 206 24.5671C206 22.7505 206.629 21.213 207.888 19.9546C209.146 18.6963 210.683 18.0671 212.5 18.0671C214.317 18.0671 215.854 18.6963 217.113 19.9546C218.371 21.213 219 22.7505 219 24.5671C219 25.3005 218.883 25.9921 218.65 26.6421C218.417 27.2921 218.1 27.8671 217.7 28.3671L224 34.6671L222.6 36.0671ZM212.5 29.0671C213.75 29.0671 214.812 28.6296 215.688 27.7546C216.562 26.8796 217 25.8171 217 24.5671C217 23.3171 216.562 22.2546 215.688 21.3796C214.812 20.5046 213.75 20.0671 212.5 20.0671C211.25 20.0671 210.188 20.5046 209.312 21.3796C208.438 22.2546 208 23.3171 208 24.5671C208 25.8171 208.438 26.8796 209.312 27.7546C210.188 28.6296 211.25 29.0671 212.5 29.0671Z" fill="#5B5B5B"/>
</g>
</svg>
