<svg width="48" height="49" viewBox="0 0 48 49" fill="none" xmlns="http://www.w3.org/2000/svg">
<rect y="0.0668945" width="48" height="48" rx="24" fill="#ECECEC"/>
<mask id="mask0_396_1658" style="mask-type:alpha" maskUnits="userSpaceOnUse" x="12" y="12" width="24" height="25">
<rect x="12" y="12.0669" width="24" height="24" fill="#D9D9D9"/>
</mask>
<g mask="url(#mask0_396_1658)">
<path d="M17 33.0669C16.45 33.0669 15.9792 32.8711 15.5875 32.4794C15.1958 32.0877 15 31.6169 15 31.0669V17.0669C15 16.5169 15.1958 16.0461 15.5875 15.6544C15.9792 15.2627 16.45 15.0669 17 15.0669H31C31.55 15.0669 32.0208 15.2627 32.4125 15.6544C32.8042 16.0461 33 16.5169 33 17.0669V19.5669H31V17.0669H17V31.0669H31V28.5669H33V31.0669C33 31.6169 32.8042 32.0877 32.4125 32.4794C32.0208 32.8711 31.55 33.0669 31 33.0669H17ZM25 29.0669C24.45 29.0669 23.9792 28.8711 23.5875 28.4794C23.1958 28.0877 23 27.6169 23 27.0669V21.0669C23 20.5169 23.1958 20.0461 23.5875 19.6544C23.9792 19.2627 24.45 19.0669 25 19.0669H32C32.55 19.0669 33.0208 19.2627 33.4125 19.6544C33.8042 20.0461 34 20.5169 34 21.0669V27.0669C34 27.6169 33.8042 28.0877 33.4125 28.4794C33.0208 28.8711 32.55 29.0669 32 29.0669H25ZM32 27.0669V21.0669H25V27.0669H32ZM28 25.5669C28.4167 25.5669 28.7708 25.4211 29.0625 25.1294C29.3542 24.8377 29.5 24.4836 29.5 24.0669C29.5 23.6502 29.3542 23.2961 29.0625 23.0044C28.7708 22.7127 28.4167 22.5669 28 22.5669C27.5833 22.5669 27.2292 22.7127 26.9375 23.0044C26.6458 23.2961 26.5 23.6502 26.5 24.0669C26.5 24.4836 26.6458 24.8377 26.9375 25.1294C27.2292 25.4211 27.5833 25.5669 28 25.5669Z" fill="#1C1B1F"/>
</g>
</svg>
