<svg width="289" height="54" viewBox="0 0 289 54" fill="none" xmlns="http://www.w3.org/2000/svg">
<rect width="289" height="54" rx="27" fill="#F2F2F2"/>
<path d="M34.6186 32V21.8182H38.3473C39.0698 21.8182 39.6681 21.9375 40.142 22.1761C40.616 22.4115 40.9706 22.7313 41.206 23.1357C41.4413 23.5367 41.5589 23.9891 41.5589 24.4929C41.5589 24.9171 41.4811 25.2751 41.3253 25.5668C41.1695 25.8551 40.9607 26.0871 40.6989 26.2628C40.4403 26.4351 40.1553 26.5611 39.8438 26.6406V26.7401C40.1818 26.7566 40.5116 26.866 40.8331 27.0682C41.1579 27.267 41.4264 27.5504 41.6385 27.9183C41.8506 28.2862 41.9567 28.7337 41.9567 29.2607C41.9567 29.781 41.834 30.2483 41.5888 30.6626C41.3468 31.0736 40.9723 31.4001 40.4652 31.642C39.9581 31.8807 39.3101 32 38.5213 32H34.6186ZM36.1548 30.6825H38.3722C39.108 30.6825 39.6349 30.54 39.9531 30.255C40.2713 29.9699 40.4304 29.6136 40.4304 29.1861C40.4304 28.8646 40.3492 28.5696 40.1868 28.3011C40.0244 28.0327 39.7924 27.8189 39.4908 27.6598C39.1925 27.5007 38.8378 27.4212 38.4268 27.4212H36.1548V30.6825ZM36.1548 26.223H38.2131C38.5578 26.223 38.8677 26.1567 39.1428 26.0241C39.4212 25.8916 39.6416 25.706 39.804 25.4673C39.9697 25.2254 40.0526 24.9403 40.0526 24.6122C40.0526 24.1913 39.9051 23.8383 39.6101 23.5533C39.3151 23.2682 38.8627 23.1257 38.2528 23.1257H36.1548V26.223ZM48.3568 28.8331V24.3636H49.8483V32H48.3866V30.6776H48.3071C48.1314 31.0852 47.8497 31.425 47.4619 31.6967C47.0774 31.9652 46.5985 32.0994 46.0251 32.0994C45.5346 32.0994 45.1004 31.9917 44.7226 31.7763C44.348 31.5575 44.0531 31.2344 43.8376 30.8068C43.6255 30.3793 43.5194 29.8506 43.5194 29.2209V24.3636H45.006V29.0419C45.006 29.5623 45.1501 29.9766 45.4385 30.2848C45.7268 30.593 46.1014 30.7472 46.5621 30.7472C46.8405 30.7472 47.1172 30.6776 47.3923 30.5384C47.6707 30.3991 47.9011 30.1887 48.0834 29.907C48.269 29.6252 48.3601 29.2673 48.3568 28.8331ZM57.4279 26.228L56.0806 26.4666C56.0243 26.2943 55.9348 26.1302 55.8122 25.9744C55.6928 25.8187 55.5304 25.6911 55.3249 25.5916C55.1194 25.4922 54.8626 25.4425 54.5543 25.4425C54.1334 25.4425 53.7821 25.5369 53.5004 25.7259C53.2186 25.9115 53.0778 26.1518 53.0778 26.4467C53.0778 26.7019 53.1722 26.9074 53.3612 27.0632C53.5501 27.219 53.855 27.3466 54.2759 27.446L55.489 27.7244C56.1916 27.8868 56.7153 28.1371 57.06 28.4751C57.4047 28.8132 57.5771 29.2524 57.5771 29.7926C57.5771 30.25 57.4445 30.6577 57.1793 31.0156C56.9175 31.3703 56.5513 31.6487 56.0806 31.8509C55.6133 32.053 55.0714 32.1541 54.4549 32.1541C53.5998 32.1541 52.9021 31.9718 52.3619 31.6072C51.8216 31.2393 51.4902 30.7173 51.3675 30.0412L52.8043 29.8224C52.8938 30.197 53.0778 30.4804 53.3562 30.6726C53.6346 30.8615 53.9975 30.956 54.445 30.956C54.9322 30.956 55.3216 30.8549 55.6133 30.6527C55.905 30.4472 56.0508 30.197 56.0508 29.902C56.0508 29.6634 55.9613 29.4628 55.7823 29.3004C55.6067 29.138 55.3365 29.0154 54.972 28.9325L53.6793 28.6491C52.9667 28.4867 52.4398 28.2282 52.0984 27.8736C51.7603 27.5189 51.5913 27.0698 51.5913 26.5263C51.5913 26.0755 51.7172 25.6811 51.9691 25.343C52.221 25.005 52.569 24.7415 53.0131 24.5526C53.4573 24.3603 53.966 24.2642 54.5394 24.2642C55.3647 24.2642 56.0143 24.4432 56.4883 24.8011C56.9622 25.1558 57.2755 25.6314 57.4279 26.228ZM62.2881 32.1541C61.549 32.1541 60.9126 31.9867 60.379 31.652C59.8487 31.3139 59.441 30.8482 59.156 30.255C58.871 29.6617 58.7284 28.9822 58.7284 28.2166C58.7284 27.4411 58.8743 26.7566 59.1659 26.1634C59.4576 25.5668 59.8686 25.1011 60.3989 24.7663C60.9292 24.4316 61.554 24.2642 62.2732 24.2642C62.8532 24.2642 63.3702 24.3719 63.8243 24.5874C64.2784 24.7995 64.6446 25.0978 64.923 25.4822C65.2048 25.8667 65.3721 26.3158 65.4252 26.8295H63.9784C63.8989 26.4716 63.7166 26.1634 63.4316 25.9048C63.1498 25.6463 62.772 25.517 62.298 25.517C61.8837 25.517 61.5208 25.6264 61.2093 25.8452C60.901 26.0606 60.6607 26.3688 60.4884 26.7699C60.316 27.1676 60.2299 27.6383 60.2299 28.1818C60.2299 28.7386 60.3144 29.2192 60.4834 29.6236C60.6524 30.0279 60.8911 30.3411 61.1993 30.5632C61.5109 30.7853 61.8771 30.8963 62.298 30.8963C62.5798 30.8963 62.835 30.8449 63.0637 30.7422C63.2957 30.6361 63.4896 30.4853 63.6453 30.2898C63.8044 30.0942 63.9155 29.8589 63.9784 29.5838H65.4252C65.3721 30.0777 65.2114 30.5185 64.9429 30.9062C64.6745 31.294 64.3148 31.599 63.8641 31.821C63.4166 32.0431 62.8913 32.1541 62.2881 32.1541ZM69.0971 32.169C68.6132 32.169 68.1757 32.0795 67.7846 31.9006C67.3935 31.7183 67.0836 31.4548 66.8549 31.1101C66.6296 30.7654 66.5169 30.3428 66.5169 29.8423C66.5169 29.4115 66.5997 29.0568 66.7655 28.7784C66.9312 28.5 67.1549 28.2796 67.4366 28.1172C67.7183 27.9548 68.0332 27.8321 68.3812 27.7493C68.7292 27.6664 69.0839 27.6035 69.4451 27.5604C69.9025 27.5073 70.2737 27.4643 70.5588 27.4311C70.8438 27.3946 71.051 27.3366 71.1802 27.2571C71.3095 27.1776 71.3741 27.0483 71.3741 26.8693V26.8345C71.3741 26.4003 71.2515 26.0639 71.0062 25.8253C70.7643 25.5866 70.403 25.4673 69.9224 25.4673C69.4219 25.4673 69.0275 25.5784 68.7392 25.8004C68.4541 26.0192 68.2569 26.2628 68.1476 26.5312L66.7505 26.2131C66.9163 25.7491 67.1582 25.3745 67.4764 25.0895C67.7979 24.8011 68.1674 24.5923 68.5851 24.4631C69.0027 24.3305 69.4418 24.2642 69.9025 24.2642C70.2075 24.2642 70.5306 24.3007 70.872 24.3736C71.2167 24.4432 71.5382 24.5724 71.8365 24.7614C72.1381 24.9503 72.385 25.2204 72.5773 25.5717C72.7695 25.9197 72.8656 26.3722 72.8656 26.929V32H71.4139V30.956H71.3542C71.2581 31.1482 71.1139 31.3371 70.9217 31.5227C70.7295 31.7083 70.4826 31.8625 70.1809 31.9851C69.8793 32.1077 69.5181 32.169 69.0971 32.169ZM69.4203 30.9759C69.8313 30.9759 70.1826 30.8946 70.4743 30.7322C70.7692 30.5698 70.993 30.3577 71.1454 30.0959C71.3012 29.8307 71.3791 29.5473 71.3791 29.2457V28.2614C71.3261 28.3144 71.2233 28.3641 71.0709 28.4105C70.9217 28.4536 70.751 28.4917 70.5588 28.5249C70.3665 28.5547 70.1793 28.5829 69.997 28.6094C69.8147 28.6326 69.6622 28.6525 69.5396 28.669C69.2513 28.7055 68.9878 28.7668 68.7491 28.853C68.5138 28.9392 68.3249 29.0634 68.1824 29.2259C68.0432 29.3849 67.9736 29.5971 67.9736 29.8622C67.9736 30.2301 68.1094 30.5085 68.3812 30.6974C68.653 30.883 68.9994 30.9759 69.4203 30.9759ZM74.7055 32V24.3636H76.1423V25.5767H76.2219C76.3611 25.1657 76.6063 24.8426 76.9577 24.6072C77.3123 24.3686 77.7134 24.2493 78.1608 24.2493C78.2536 24.2493 78.363 24.2526 78.4889 24.2592C78.6182 24.2659 78.7193 24.2741 78.7922 24.2841V25.706C78.7325 25.6894 78.6265 25.6712 78.474 25.6513C78.3215 25.6281 78.1691 25.6165 78.0166 25.6165C77.6653 25.6165 77.3521 25.6911 77.077 25.8402C76.8052 25.986 76.5898 26.1899 76.4307 26.4517C76.2716 26.7102 76.192 27.0052 76.192 27.3366V32H74.7055ZM84.9902 21.8182V32H83.5037V21.8182H84.9902ZM86.85 32V24.3636H88.3365V32H86.85ZM87.6007 23.1854C87.3422 23.1854 87.1201 23.0992 86.9345 22.9268C86.7522 22.7512 86.6611 22.5424 86.6611 22.3004C86.6611 22.0552 86.7522 21.8464 86.9345 21.674C87.1201 21.4983 87.3422 21.4105 87.6007 21.4105C87.8592 21.4105 88.0796 21.4983 88.2619 21.674C88.4475 21.8464 88.5403 22.0552 88.5403 22.3004C88.5403 22.5424 88.4475 22.7512 88.2619 22.9268C88.0796 23.0992 87.8592 23.1854 87.6007 23.1854ZM91.6828 27.4659V32H90.1963V24.3636H91.6232V25.6065H91.7176C91.8933 25.2022 92.1684 24.8774 92.5429 24.6321C92.9208 24.3868 93.3964 24.2642 93.9698 24.2642C94.4901 24.2642 94.9458 24.3736 95.3369 24.5923C95.728 24.8078 96.0313 25.1293 96.2467 25.5568C96.4622 25.9844 96.5699 26.513 96.5699 27.1428V32H95.0834V27.3217C95.0834 26.7682 94.9392 26.3357 94.6509 26.0241C94.3625 25.7093 93.9664 25.5518 93.4627 25.5518C93.118 25.5518 92.8114 25.6264 92.5429 25.7756C92.2778 25.9247 92.0673 26.1435 91.9115 26.4318C91.7591 26.7169 91.6828 27.0616 91.6828 27.4659ZM99.7907 29.4098L99.7808 27.5952H100.039L103.082 24.3636H104.862L101.392 28.0426H101.158L99.7907 29.4098ZM98.4235 32V21.8182H99.91V32H98.4235ZM103.246 32L100.512 28.3707L101.536 27.3317L105.071 32H103.246ZM111.799 26.228L110.451 26.4666C110.395 26.2943 110.306 26.1302 110.183 25.9744C110.064 25.8187 109.901 25.6911 109.696 25.5916C109.49 25.4922 109.233 25.4425 108.925 25.4425C108.504 25.4425 108.153 25.5369 107.871 25.7259C107.589 25.9115 107.449 26.1518 107.449 26.4467C107.449 26.7019 107.543 26.9074 107.732 27.0632C107.921 27.219 108.226 27.3466 108.647 27.446L109.86 27.7244C110.563 27.8868 111.086 28.1371 111.431 28.4751C111.776 28.8132 111.948 29.2524 111.948 29.7926C111.948 30.25 111.815 30.6577 111.55 31.0156C111.288 31.3703 110.922 31.6487 110.451 31.8509C109.984 32.053 109.442 32.1541 108.826 32.1541C107.971 32.1541 107.273 31.9718 106.733 31.6072C106.192 31.2393 105.861 30.7173 105.738 30.0412L107.175 29.8224C107.265 30.197 107.449 30.4804 107.727 30.6726C108.005 30.8615 108.368 30.956 108.816 30.956C109.303 30.956 109.692 30.8549 109.984 30.6527C110.276 30.4472 110.422 30.197 110.422 29.902C110.422 29.6634 110.332 29.4628 110.153 29.3004C109.978 29.138 109.707 29.0154 109.343 28.9325L108.05 28.6491C107.338 28.4867 106.811 28.2282 106.469 27.8736C106.131 27.5189 105.962 27.0698 105.962 26.5263C105.962 26.0755 106.088 25.6811 106.34 25.343C106.592 25.005 106.94 24.7415 107.384 24.5526C107.828 24.3603 108.337 24.2642 108.91 24.2642C109.736 24.2642 110.385 24.4432 110.859 24.8011C111.333 25.1558 111.646 25.6314 111.799 26.228ZM119.866 32.1491C119.25 32.1491 118.699 31.9917 118.216 31.6768C117.735 31.3587 117.357 30.9062 117.082 30.3196C116.81 29.7296 116.674 29.022 116.674 28.1967C116.674 27.3714 116.812 26.6655 117.087 26.0788C117.365 25.4922 117.747 25.0431 118.23 24.7315C118.714 24.42 119.263 24.2642 119.876 24.2642C120.35 24.2642 120.731 24.3438 121.019 24.5028C121.311 24.6586 121.537 24.8409 121.696 25.0497C121.858 25.2585 121.984 25.4425 122.073 25.6016H122.163V21.8182H123.649V32H122.198V30.8118H122.073C121.984 30.9742 121.855 31.1598 121.686 31.3686C121.52 31.5774 121.291 31.7597 121 31.9155C120.708 32.0713 120.33 32.1491 119.866 32.1491ZM120.194 30.8814C120.622 30.8814 120.983 30.7687 121.278 30.5433C121.576 30.3146 121.802 29.9981 121.954 29.5938C122.11 29.1894 122.188 28.7187 122.188 28.1818C122.188 27.6515 122.112 27.1875 121.959 26.7898C121.807 26.392 121.583 26.0821 121.288 25.8601C120.993 25.638 120.628 25.527 120.194 25.527C119.747 25.527 119.374 25.643 119.076 25.875C118.777 26.107 118.552 26.4235 118.399 26.8246C118.25 27.2256 118.176 27.678 118.176 28.1818C118.176 28.6922 118.252 29.1513 118.404 29.5589C118.557 29.9666 118.782 30.2898 119.081 30.5284C119.382 30.7637 119.753 30.8814 120.194 30.8814ZM128.922 32.1541C128.17 32.1541 127.522 31.9934 126.978 31.6719C126.438 31.3471 126.021 30.8913 125.726 30.3047C125.434 29.7147 125.288 29.0237 125.288 28.2315C125.288 27.4493 125.434 26.7599 125.726 26.1634C126.021 25.5668 126.432 25.1011 126.959 24.7663C127.489 24.4316 128.109 24.2642 128.818 24.2642C129.249 24.2642 129.666 24.3355 130.071 24.478C130.475 24.6205 130.838 24.8442 131.159 25.1491C131.481 25.4541 131.735 25.8501 131.92 26.3374C132.106 26.8213 132.199 27.4096 132.199 28.1023V28.6293H126.128V27.5156H130.742C130.742 27.1245 130.662 26.7782 130.503 26.4766C130.344 26.1716 130.12 25.9313 129.832 25.7557C129.547 25.58 129.212 25.4922 128.828 25.4922C128.41 25.4922 128.046 25.5949 127.734 25.8004C127.426 26.0026 127.187 26.2678 127.018 26.5959C126.852 26.9207 126.77 27.2737 126.77 27.6548V28.5249C126.77 29.0353 126.859 29.4695 127.038 29.8274C127.22 30.1854 127.474 30.4588 127.799 30.6477C128.124 30.8333 128.503 30.9261 128.937 30.9261C129.219 30.9261 129.476 30.8864 129.708 30.8068C129.94 30.724 130.14 30.6013 130.309 30.4389C130.478 30.2765 130.608 30.076 130.697 29.8374L132.104 30.0909C131.991 30.5052 131.789 30.8681 131.498 31.1797C131.209 31.4879 130.846 31.7282 130.409 31.9006C129.975 32.0696 129.479 32.1541 128.922 32.1541ZM137.273 34.8636V24.3636H138.725V25.6016H138.849C138.935 25.4425 139.059 25.2585 139.222 25.0497C139.384 24.8409 139.61 24.6586 139.898 24.5028C140.186 24.3438 140.567 24.2642 141.041 24.2642C141.658 24.2642 142.208 24.42 142.692 24.7315C143.176 25.0431 143.555 25.4922 143.83 26.0788C144.109 26.6655 144.248 27.3714 144.248 28.1967C144.248 29.022 144.111 29.7296 143.835 30.3196C143.56 30.9062 143.183 31.3587 142.702 31.6768C142.221 31.9917 141.673 32.1491 141.056 32.1491C140.592 32.1491 140.213 32.0713 139.918 31.9155C139.626 31.7597 139.397 31.5774 139.232 31.3686C139.066 31.1598 138.938 30.9742 138.849 30.8118H138.759V34.8636H137.273ZM138.73 28.1818C138.73 28.7187 138.808 29.1894 138.963 29.5938C139.119 29.9981 139.344 30.3146 139.639 30.5433C139.934 30.7687 140.296 30.8814 140.723 30.8814C141.167 30.8814 141.539 30.7637 141.837 30.5284C142.135 30.2898 142.361 29.9666 142.513 29.5589C142.669 29.1513 142.747 28.6922 142.747 28.1818C142.747 27.678 142.67 27.2256 142.518 26.8246C142.369 26.4235 142.143 26.107 141.842 25.875C141.544 25.643 141.171 25.527 140.723 25.527C140.292 25.527 139.928 25.638 139.629 25.8601C139.335 26.0821 139.111 26.392 138.958 26.7898C138.806 27.1875 138.73 27.6515 138.73 28.1818ZM147.996 32.169C147.512 32.169 147.074 32.0795 146.683 31.9006C146.292 31.7183 145.982 31.4548 145.754 31.1101C145.528 30.7654 145.416 30.3428 145.416 29.8423C145.416 29.4115 145.498 29.0568 145.664 28.7784C145.83 28.5 146.054 28.2796 146.335 28.1172C146.617 27.9548 146.932 27.8321 147.28 27.7493C147.628 27.6664 147.983 27.6035 148.344 27.5604C148.801 27.5073 149.173 27.4643 149.458 27.4311C149.743 27.3946 149.95 27.3366 150.079 27.2571C150.208 27.1776 150.273 27.0483 150.273 26.8693V26.8345C150.273 26.4003 150.15 26.0639 149.905 25.8253C149.663 25.5866 149.302 25.4673 148.821 25.4673C148.321 25.4673 147.926 25.5784 147.638 25.8004C147.353 26.0192 147.156 26.2628 147.046 26.5312L145.649 26.2131C145.815 25.7491 146.057 25.3745 146.375 25.0895C146.697 24.8011 147.066 24.5923 147.484 24.4631C147.901 24.3305 148.341 24.2642 148.801 24.2642C149.106 24.2642 149.429 24.3007 149.771 24.3736C150.115 24.4432 150.437 24.5724 150.735 24.7614C151.037 24.9503 151.284 25.2204 151.476 25.5717C151.668 25.9197 151.764 26.3722 151.764 26.929V32H150.313V30.956H150.253C150.157 31.1482 150.013 31.3371 149.82 31.5227C149.628 31.7083 149.381 31.8625 149.08 31.9851C148.778 32.1077 148.417 32.169 147.996 32.169ZM148.319 30.9759C148.73 30.9759 149.081 30.8946 149.373 30.7322C149.668 30.5698 149.892 30.3577 150.044 30.0959C150.2 29.8307 150.278 29.5473 150.278 29.2457V28.2614C150.225 28.3144 150.122 28.3641 149.97 28.4105C149.82 28.4536 149.65 28.4917 149.458 28.5249C149.265 28.5547 149.078 28.5829 148.896 28.6094C148.713 28.6326 148.561 28.6525 148.438 28.669C148.15 28.7055 147.887 28.7668 147.648 28.853C147.413 28.9392 147.224 29.0634 147.081 29.2259C146.942 29.3849 146.872 29.5971 146.872 29.8622C146.872 30.2301 147.008 30.5085 147.28 30.6974C147.552 30.883 147.898 30.9759 148.319 30.9759ZM156.806 35.0227C156.199 35.0227 155.677 34.9432 155.24 34.7841C154.806 34.625 154.451 34.4145 154.176 34.1527C153.901 33.8909 153.695 33.6042 153.56 33.2926L154.837 32.7656C154.927 32.9115 155.046 33.0656 155.195 33.228C155.348 33.3937 155.553 33.5346 155.812 33.6506C156.074 33.7666 156.41 33.8246 156.821 33.8246C157.384 33.8246 157.85 33.687 158.218 33.4119C158.586 33.1402 158.77 32.706 158.77 32.1094V30.608H158.675C158.586 30.7704 158.457 30.951 158.288 31.1499C158.122 31.3487 157.893 31.5211 157.601 31.6669C157.31 31.8127 156.93 31.8857 156.463 31.8857C155.86 31.8857 155.316 31.7448 154.832 31.4631C154.352 31.178 153.971 30.7588 153.689 30.2053C153.41 29.6484 153.271 28.964 153.271 28.152C153.271 27.34 153.409 26.6439 153.684 26.0639C153.962 25.4839 154.343 25.0398 154.827 24.7315C155.311 24.42 155.86 24.2642 156.473 24.2642C156.947 24.2642 157.33 24.3438 157.621 24.5028C157.913 24.6586 158.14 24.8409 158.302 25.0497C158.468 25.2585 158.596 25.4425 158.685 25.6016H158.795V24.3636H160.251V32.169C160.251 32.8253 160.099 33.3639 159.794 33.7848C159.489 34.2057 159.076 34.5173 158.556 34.7195C158.039 34.9216 157.456 35.0227 156.806 35.0227ZM156.791 30.6527C157.219 30.6527 157.58 30.5533 157.875 30.3544C158.173 30.1522 158.399 29.8639 158.551 29.4893C158.707 29.1115 158.785 28.6591 158.785 28.1321C158.785 27.6184 158.708 27.166 158.556 26.7749C158.404 26.3838 158.18 26.0788 157.885 25.8601C157.59 25.638 157.225 25.527 156.791 25.527C156.344 25.527 155.971 25.643 155.672 25.875C155.374 26.1037 155.149 26.4152 154.996 26.8097C154.847 27.2041 154.773 27.6449 154.773 28.1321C154.773 28.6326 154.849 29.0717 155.001 29.4496C155.154 29.8274 155.379 30.1224 155.677 30.3345C155.979 30.5466 156.35 30.6527 156.791 30.6527ZM164.327 32.169C163.843 32.169 163.406 32.0795 163.015 31.9006C162.624 31.7183 162.314 31.4548 162.085 31.1101C161.86 30.7654 161.747 30.3428 161.747 29.8423C161.747 29.4115 161.83 29.0568 161.996 28.7784C162.161 28.5 162.385 28.2796 162.667 28.1172C162.948 27.9548 163.263 27.8321 163.611 27.7493C163.959 27.6664 164.314 27.6035 164.675 27.5604C165.133 27.5073 165.504 27.4643 165.789 27.4311C166.074 27.3946 166.281 27.3366 166.41 27.2571C166.54 27.1776 166.604 27.0483 166.604 26.8693V26.8345C166.604 26.4003 166.482 26.0639 166.236 25.8253C165.994 25.5866 165.633 25.4673 165.152 25.4673C164.652 25.4673 164.258 25.5784 163.969 25.8004C163.684 26.0192 163.487 26.2628 163.378 26.5312L161.981 26.2131C162.146 25.7491 162.388 25.3745 162.706 25.0895C163.028 24.8011 163.398 24.5923 163.815 24.4631C164.233 24.3305 164.672 24.2642 165.133 24.2642C165.438 24.2642 165.761 24.3007 166.102 24.3736C166.447 24.4432 166.768 24.5724 167.067 24.7614C167.368 24.9503 167.615 25.2204 167.807 25.5717C168 25.9197 168.096 26.3722 168.096 26.929V32H166.644V30.956H166.584C166.488 31.1482 166.344 31.3371 166.152 31.5227C165.96 31.7083 165.713 31.8625 165.411 31.9851C165.109 32.1077 164.748 32.169 164.327 32.169ZM164.65 30.9759C165.061 30.9759 165.413 30.8946 165.704 30.7322C165.999 30.5698 166.223 30.3577 166.376 30.0959C166.531 29.8307 166.609 29.5473 166.609 29.2457V28.2614C166.556 28.3144 166.453 28.3641 166.301 28.4105C166.152 28.4536 165.981 28.4917 165.789 28.5249C165.597 28.5547 165.409 28.5829 165.227 28.6094C165.045 28.6326 164.892 28.6525 164.77 28.669C164.481 28.7055 164.218 28.7668 163.979 28.853C163.744 28.9392 163.555 29.0634 163.412 29.2259C163.273 29.3849 163.204 29.5971 163.204 29.8622C163.204 30.2301 163.34 30.5085 163.611 30.6974C163.883 30.883 164.229 30.9759 164.65 30.9759ZM169.936 32V24.3636H171.362V25.6065H171.457C171.616 25.1856 171.876 24.8575 172.237 24.6222C172.599 24.3835 173.031 24.2642 173.535 24.2642C174.045 24.2642 174.473 24.3835 174.818 24.6222C175.166 24.8608 175.423 25.1889 175.588 25.6065H175.668C175.85 25.1989 176.14 24.8741 176.538 24.6321C176.936 24.3868 177.41 24.2642 177.96 24.2642C178.652 24.2642 179.218 24.4813 179.655 24.9155C180.096 25.3497 180.316 26.0043 180.316 26.8793V32H178.83V27.0185C178.83 26.5014 178.689 26.1269 178.407 25.8949C178.125 25.6629 177.789 25.5469 177.398 25.5469C176.914 25.5469 176.538 25.696 176.269 25.9943C176.001 26.2893 175.867 26.6688 175.867 27.1328V32H174.385V26.924C174.385 26.5097 174.256 26.1766 173.997 25.9247C173.739 25.6728 173.402 25.5469 172.988 25.5469C172.706 25.5469 172.446 25.6214 172.208 25.7706C171.972 25.9164 171.782 26.1203 171.636 26.3821C171.493 26.6439 171.422 26.9472 171.422 27.2919V32H169.936ZM185.46 32.1541C184.707 32.1541 184.06 31.9934 183.516 31.6719C182.976 31.3471 182.558 30.8913 182.263 30.3047C181.971 29.7147 181.826 29.0237 181.826 28.2315C181.826 27.4493 181.971 26.7599 182.263 26.1634C182.558 25.5668 182.969 25.1011 183.496 24.7663C184.026 24.4316 184.646 24.2642 185.355 24.2642C185.786 24.2642 186.204 24.3355 186.608 24.478C187.013 24.6205 187.376 24.8442 187.697 25.1491C188.019 25.4541 188.272 25.8501 188.458 26.3374C188.643 26.8213 188.736 27.4096 188.736 28.1023V28.6293H182.666V27.5156H187.279C187.279 27.1245 187.2 26.7782 187.041 26.4766C186.882 26.1716 186.658 25.9313 186.37 25.7557C186.085 25.58 185.75 25.4922 185.365 25.4922C184.948 25.4922 184.583 25.5949 184.272 25.8004C183.963 26.0026 183.725 26.2678 183.556 26.5959C183.39 26.9207 183.307 27.2737 183.307 27.6548V28.5249C183.307 29.0353 183.397 29.4695 183.576 29.8274C183.758 30.1854 184.011 30.4588 184.336 30.6477C184.661 30.8333 185.041 30.9261 185.475 30.9261C185.756 30.9261 186.013 30.8864 186.245 30.8068C186.477 30.724 186.678 30.6013 186.847 30.4389C187.016 30.2765 187.145 30.076 187.235 29.8374L188.642 30.0909C188.529 30.5052 188.327 30.8681 188.035 31.1797C187.747 31.4879 187.384 31.7282 186.946 31.9006C186.512 32.0696 186.017 32.1541 185.46 32.1541ZM191.732 27.4659V32H190.245V24.3636H191.672V25.6065H191.767C191.942 25.2022 192.218 24.8774 192.592 24.6321C192.97 24.3868 193.446 24.2642 194.019 24.2642C194.539 24.2642 194.995 24.3736 195.386 24.5923C195.777 24.8078 196.08 25.1293 196.296 25.5568C196.511 25.9844 196.619 26.513 196.619 27.1428V32H195.133V27.3217C195.133 26.7682 194.988 26.3357 194.7 26.0241C194.412 25.7093 194.016 25.5518 193.512 25.5518C193.167 25.5518 192.861 25.6264 192.592 25.7756C192.327 25.9247 192.116 26.1435 191.961 26.4318C191.808 26.7169 191.732 27.0616 191.732 27.4659ZM202.037 24.3636V25.5568H197.866V24.3636H202.037ZM198.985 22.5341H200.471V29.7578C200.471 30.0462 200.514 30.2633 200.6 30.4091C200.687 30.5516 200.798 30.6494 200.934 30.7024C201.073 30.7521 201.224 30.777 201.386 30.777C201.505 30.777 201.61 30.7687 201.699 30.7521C201.789 30.7356 201.858 30.7223 201.908 30.7124L202.176 31.9403C202.09 31.9735 201.968 32.0066 201.809 32.0398C201.649 32.0762 201.451 32.0961 201.212 32.0994C200.821 32.1061 200.456 32.0365 200.118 31.8906C199.78 31.7448 199.507 31.5194 199.298 31.2145C199.089 30.9096 198.985 30.5268 198.985 30.0661V22.5341ZM206.676 32.1541C205.96 32.1541 205.336 31.9901 204.802 31.6619C204.268 31.3338 203.854 30.8748 203.559 30.2848C203.264 29.6948 203.117 29.0054 203.117 28.2166C203.117 27.4245 203.264 26.7318 203.559 26.1385C203.854 25.5452 204.268 25.0845 204.802 24.7564C205.336 24.4283 205.96 24.2642 206.676 24.2642C207.392 24.2642 208.017 24.4283 208.551 24.7564C209.084 25.0845 209.498 25.5452 209.793 26.1385C210.088 26.7318 210.236 27.4245 210.236 28.2166C210.236 29.0054 210.088 29.6948 209.793 30.2848C209.498 30.8748 209.084 31.3338 208.551 31.6619C208.017 31.9901 207.392 32.1541 206.676 32.1541ZM206.681 30.9062C207.145 30.9062 207.53 30.7836 207.835 30.5384C208.14 30.2931 208.365 29.9666 208.511 29.5589C208.66 29.1513 208.734 28.7022 208.734 28.2116C208.734 27.7244 208.66 27.277 208.511 26.8693C208.365 26.4583 208.14 26.1286 207.835 25.88C207.53 25.6314 207.145 25.5071 206.681 25.5071C206.214 25.5071 205.826 25.6314 205.518 25.88C205.213 26.1286 204.986 26.4583 204.837 26.8693C204.691 27.277 204.618 27.7244 204.618 28.2116C204.618 28.7022 204.691 29.1513 204.837 29.5589C204.986 29.9666 205.213 30.2931 205.518 30.5384C205.826 30.7836 206.214 30.9062 206.681 30.9062Z" fill="#5B5B5B"/>
<mask id="mask0_384_1920" style="mask-type:alpha" maskUnits="userSpaceOnUse" x="231" y="15" width="25" height="24">
<rect x="231.5" y="15" width="24" height="24" fill="#D9D9D9"/>
</mask>
<g mask="url(#mask0_384_1920)">
<path d="M251.1 36L244.8 29.7C244.3 30.1 243.725 30.4167 243.075 30.65C242.425 30.8833 241.733 31 241 31C239.183 31 237.646 30.3708 236.388 29.1125C235.129 27.8542 234.5 26.3167 234.5 24.5C234.5 22.6833 235.129 21.1458 236.388 19.8875C237.646 18.6292 239.183 18 241 18C242.817 18 244.354 18.6292 245.613 19.8875C246.871 21.1458 247.5 22.6833 247.5 24.5C247.5 25.2333 247.383 25.925 247.15 26.575C246.917 27.225 246.6 27.8 246.2 28.3L252.5 34.6L251.1 36ZM241 29C242.25 29 243.312 28.5625 244.188 27.6875C245.062 26.8125 245.5 25.75 245.5 24.5C245.5 23.25 245.062 22.1875 244.188 21.3125C243.312 20.4375 242.25 20 241 20C239.75 20 238.688 20.4375 237.812 21.3125C236.938 22.1875 236.5 23.25 236.5 24.5C236.5 25.75 236.938 26.8125 237.812 27.6875C238.688 28.5625 239.75 29 241 29Z" fill="#5B5B5B"/>
</g>
</svg>
