<svg width="119" height="38" viewBox="0 0 119 38" fill="none" xmlns="http://www.w3.org/2000/svg">
<path d="M19 0.5H100C110.217 0.5 118.5 8.78273 118.5 19C118.5 29.2173 110.217 37.5 100 37.5H19C8.78273 37.5 0.5 29.2173 0.5 19C0.5 8.78273 8.78273 0.5 19 0.5Z" fill="#E5EBFF"/>
<path d="M19 0.5H100C110.217 0.5 118.5 8.78273 118.5 19C118.5 29.2173 110.217 37.5 100 37.5H19C8.78273 37.5 0.5 29.2173 0.5 19C0.5 8.78273 8.78273 0.5 19 0.5Z" stroke="#E5EBFF"/>
<mask id="mask0_384_1953" style="mask-type:alpha" maskUnits="userSpaceOnUse" x="15" y="10" width="18" height="18">
<rect x="15" y="10" width="18" height="18" fill="#D9D9D9"/>
</mask>
<g mask="url(#mask0_384_1953)">
<path d="M21.75 23.5C21.3375 23.5 20.9844 23.3531 20.6906 23.0594C20.3969 22.7656 20.25 22.4125 20.25 22V13C20.25 12.5875 20.3969 12.2344 20.6906 11.9406C20.9844 11.6469 21.3375 11.5 21.75 11.5H28.5C28.9125 11.5 29.2656 11.6469 29.5594 11.9406C29.8531 12.2344 30 12.5875 30 13V22C30 22.4125 29.8531 22.7656 29.5594 23.0594C29.2656 23.3531 28.9125 23.5 28.5 23.5H21.75ZM21.75 22H28.5V13H21.75V22ZM18.75 26.5C18.3375 26.5 17.9844 26.3531 17.6906 26.0594C17.3969 25.7656 17.25 25.4125 17.25 25V14.5H18.75V25H27V26.5H18.75Z" fill="#1313F2"/>
</g>
<path d="M51.2074 17.6108H49.8778C49.8267 17.3267 49.7315 17.0767 49.5923 16.8608C49.4531 16.6449 49.2827 16.4616 49.081 16.3111C48.8793 16.1605 48.6534 16.0469 48.4034 15.9702C48.1563 15.8935 47.8935 15.8551 47.6151 15.8551C47.1122 15.8551 46.6619 15.9815 46.2642 16.2344C45.8693 16.4872 45.5568 16.858 45.3267 17.3466C45.0994 17.8352 44.9858 18.4318 44.9858 19.1364C44.9858 19.8466 45.0994 20.446 45.3267 20.9347C45.5568 21.4233 45.8707 21.7926 46.2685 22.0426C46.6662 22.2926 47.1136 22.4176 47.6108 22.4176C47.8864 22.4176 48.1477 22.3807 48.3949 22.3068C48.6449 22.2301 48.8707 22.1179 49.0724 21.9702C49.2741 21.8224 49.4446 21.642 49.5838 21.429C49.7259 21.2131 49.8239 20.9659 49.8778 20.6875L51.2074 20.6918C51.1364 21.1207 50.9986 21.5156 50.794 21.8764C50.5923 22.2344 50.3324 22.544 50.0142 22.8054C49.6989 23.0639 49.3381 23.2642 48.9318 23.4062C48.5256 23.5483 48.0824 23.6193 47.6023 23.6193C46.8466 23.6193 46.1733 23.4403 45.5824 23.0824C44.9915 22.7216 44.5256 22.206 44.1847 21.5355C43.8466 20.8651 43.6776 20.0653 43.6776 19.1364C43.6776 18.2045 43.848 17.4048 44.1889 16.7372C44.5298 16.0668 44.9957 15.5526 45.5866 15.1946C46.1776 14.8338 46.8494 14.6534 47.6023 14.6534C48.0653 14.6534 48.4972 14.7202 48.8977 14.8537C49.3011 14.9844 49.6634 15.1776 49.9844 15.4332C50.3054 15.6861 50.571 15.9957 50.7812 16.3622C50.9915 16.7259 51.1335 17.142 51.2074 17.6108ZM55.4379 23.6321C54.8242 23.6321 54.2887 23.4915 53.8313 23.2102C53.3739 22.929 53.0188 22.5355 52.766 22.0298C52.5131 21.5241 52.3867 20.9332 52.3867 20.2571C52.3867 19.5781 52.5131 18.9844 52.766 18.4759C53.0188 17.9673 53.3739 17.5724 53.8313 17.2912C54.2887 17.0099 54.8242 16.8693 55.4379 16.8693C56.0515 16.8693 56.587 17.0099 57.0444 17.2912C57.5018 17.5724 57.8569 17.9673 58.1097 18.4759C58.3626 18.9844 58.489 19.5781 58.489 20.2571C58.489 20.9332 58.3626 21.5241 58.1097 22.0298C57.8569 22.5355 57.5018 22.929 57.0444 23.2102C56.587 23.4915 56.0515 23.6321 55.4379 23.6321ZM55.4421 22.5625C55.8398 22.5625 56.1694 22.4574 56.4308 22.2472C56.6921 22.0369 56.8853 21.7571 57.0103 21.4077C57.1381 21.0582 57.2021 20.6733 57.2021 20.2528C57.2021 19.8352 57.1381 19.4517 57.0103 19.1023C56.8853 18.75 56.6921 18.4673 56.4308 18.2543C56.1694 18.0412 55.8398 17.9347 55.4421 17.9347C55.0415 17.9347 54.7092 18.0412 54.445 18.2543C54.1836 18.4673 53.989 18.75 53.8612 19.1023C53.7362 19.4517 53.6737 19.8352 53.6737 20.2528C53.6737 20.6733 53.7362 21.0582 53.8612 21.4077C53.989 21.7571 54.1836 22.0369 54.445 22.2472C54.7092 22.4574 55.0415 22.5625 55.4421 22.5625ZM59.9112 25.9545V16.9545H61.1555V18.0156H61.2621C61.3359 17.8793 61.4425 17.7216 61.5817 17.5426C61.7209 17.3636 61.9141 17.2074 62.1612 17.0739C62.4084 16.9375 62.7351 16.8693 63.1413 16.8693C63.6697 16.8693 64.1413 17.0028 64.5561 17.2699C64.9709 17.5369 65.2962 17.9219 65.532 18.4247C65.7706 18.9276 65.8899 19.5327 65.8899 20.2401C65.8899 20.9474 65.772 21.554 65.5362 22.0597C65.3004 22.5625 64.9766 22.9503 64.5646 23.223C64.1527 23.4929 63.6825 23.6278 63.1541 23.6278C62.7564 23.6278 62.4311 23.5611 62.1783 23.4276C61.9283 23.294 61.7322 23.1378 61.5902 22.9588C61.4482 22.7798 61.3388 22.6207 61.2621 22.4815H61.1854V25.9545H59.9112ZM61.1598 20.2273C61.1598 20.6875 61.2266 21.0909 61.3601 21.4375C61.4936 21.7841 61.6868 22.0554 61.9396 22.2514C62.1925 22.4446 62.5021 22.5412 62.8686 22.5412C63.2493 22.5412 63.5675 22.4403 63.8232 22.2386C64.0788 22.0341 64.272 21.7571 64.4027 21.4077C64.5362 21.0582 64.603 20.6648 64.603 20.2273C64.603 19.7955 64.5376 19.4077 64.407 19.0639C64.2791 18.7202 64.0859 18.4489 63.8274 18.25C63.5717 18.0511 63.2521 17.9517 62.8686 17.9517C62.4993 17.9517 62.1868 18.0469 61.9311 18.2372C61.6783 18.4276 61.4865 18.6932 61.3558 19.0341C61.2251 19.375 61.1598 19.7727 61.1598 20.2273ZM67.3175 23.5V16.9545H68.5916V23.5H67.3175ZM67.9609 15.9446C67.7393 15.9446 67.549 15.8707 67.3899 15.723C67.2337 15.5724 67.1555 15.3935 67.1555 15.1861C67.1555 14.9759 67.2337 14.7969 67.3899 14.6491C67.549 14.4986 67.7393 14.4233 67.9609 14.4233C68.1825 14.4233 68.3714 14.4986 68.5277 14.6491C68.6868 14.7969 68.7663 14.9759 68.7663 15.1861C68.7663 15.3935 68.6868 15.5724 68.5277 15.723C68.3714 15.8707 68.1825 15.9446 67.9609 15.9446ZM72.2106 23.6449C71.7958 23.6449 71.4208 23.5682 71.0856 23.4148C70.7504 23.2585 70.4847 23.0327 70.2887 22.7372C70.0955 22.4418 69.9989 22.0795 69.9989 21.6506C69.9989 21.2812 70.07 20.9773 70.212 20.7386C70.354 20.5 70.5458 20.3111 70.7873 20.1719C71.0288 20.0327 71.2987 19.9276 71.5969 19.8565C71.8952 19.7855 72.1992 19.7315 72.5089 19.6946C72.9009 19.6491 73.2191 19.6122 73.4634 19.5838C73.7077 19.5526 73.8853 19.5028 73.9961 19.4347C74.1069 19.3665 74.1623 19.2557 74.1623 19.1023V19.0724C74.1623 18.7003 74.0572 18.4119 73.8469 18.2074C73.6396 18.0028 73.3299 17.9006 72.918 17.9006C72.489 17.9006 72.1509 17.9957 71.9038 18.1861C71.6594 18.3736 71.4904 18.5824 71.3967 18.8125L70.1992 18.5398C70.3413 18.142 70.5487 17.821 70.8214 17.5767C71.0969 17.3295 71.4137 17.1506 71.7717 17.0398C72.1296 16.9261 72.506 16.8693 72.9009 16.8693C73.1623 16.8693 73.4393 16.9006 73.7319 16.9631C74.0273 17.0227 74.3029 17.1335 74.5586 17.2955C74.8171 17.4574 75.0288 17.6889 75.1935 17.9901C75.3583 18.2884 75.4407 18.6761 75.4407 19.1534V23.5H74.1964V22.6051H74.1452C74.0629 22.7699 73.9393 22.9318 73.7745 23.0909C73.6097 23.25 73.3981 23.3821 73.1396 23.4872C72.881 23.5923 72.5714 23.6449 72.2106 23.6449ZM72.4876 22.6222C72.8398 22.6222 73.141 22.5526 73.391 22.4134C73.6438 22.2741 73.8356 22.0923 73.9663 21.8679C74.0998 21.6406 74.1665 21.3977 74.1665 21.1392V20.2955C74.1211 20.3409 74.033 20.3835 73.9023 20.4233C73.7745 20.4602 73.6282 20.4929 73.4634 20.5213C73.2987 20.5469 73.1381 20.571 72.9819 20.5938C72.8256 20.6136 72.695 20.6307 72.5898 20.6449C72.3427 20.6761 72.1168 20.7287 71.9123 20.8026C71.7106 20.8764 71.5487 20.983 71.4265 21.1222C71.3072 21.2585 71.2475 21.4403 71.2475 21.6676C71.2475 21.983 71.364 22.2216 71.5969 22.3835C71.8299 22.5426 72.1268 22.6222 72.4876 22.6222ZM77.1378 23.5V16.9545H78.3693V17.9943H78.4375C78.5568 17.642 78.767 17.3651 79.0682 17.1634C79.3722 16.9588 79.7159 16.8565 80.0994 16.8565C80.179 16.8565 80.2727 16.8594 80.3807 16.8651C80.4915 16.8707 80.5781 16.8778 80.6406 16.8864V18.1051C80.5895 18.0909 80.4986 18.0753 80.3679 18.0582C80.2372 18.0384 80.1065 18.0284 79.9759 18.0284C79.6747 18.0284 79.4063 18.0923 79.1705 18.2202C78.9375 18.3452 78.7528 18.5199 78.6165 18.7443C78.4801 18.9659 78.4119 19.2187 78.4119 19.5028V23.5H77.1378ZM86.1932 14.7727V23.5H84.919V14.7727H86.1932ZM87.9073 23.5V16.9545H89.1815V23.5H87.9073ZM88.5508 15.9446C88.3292 15.9446 88.1388 15.8707 87.9798 15.723C87.8235 15.5724 87.7454 15.3935 87.7454 15.1861C87.7454 14.9759 87.8235 14.7969 87.9798 14.6491C88.1388 14.4986 88.3292 14.4233 88.5508 14.4233C88.7724 14.4233 88.9613 14.4986 89.1175 14.6491C89.2766 14.7969 89.3562 14.9759 89.3562 15.1861C89.3562 15.3935 89.2766 15.5724 89.1175 15.723C88.9613 15.8707 88.7724 15.9446 88.5508 15.9446ZM92.1697 19.6136V23.5H90.8956V16.9545H92.1186V18.0199H92.1996C92.3501 17.6733 92.5859 17.3949 92.907 17.1847C93.2308 16.9744 93.6385 16.8693 94.13 16.8693C94.576 16.8693 94.9666 16.9631 95.3018 17.1506C95.6371 17.3352 95.897 17.6108 96.0817 17.9773C96.2663 18.3437 96.3587 18.7969 96.3587 19.3366V23.5H95.0845V19.4901C95.0845 19.0156 94.9609 18.6449 94.7138 18.3778C94.4666 18.108 94.1271 17.973 93.6953 17.973C93.3999 17.973 93.1371 18.0369 92.907 18.1648C92.6797 18.2926 92.4993 18.4801 92.3658 18.7273C92.2351 18.9716 92.1697 19.267 92.1697 19.6136ZM99.2393 21.2798L99.2308 19.7244H99.4524L102.06 16.9545H103.586L100.612 20.108H100.411L99.2393 21.2798ZM98.0675 23.5V14.7727H99.3416V23.5H98.0675ZM102.201 23.5L99.8572 20.3892L100.735 19.4986L103.765 23.5H102.201Z" fill="#1313F2"/>
</svg>
