<svg width="48" height="48" viewBox="0 0 48 48" fill="none" xmlns="http://www.w3.org/2000/svg">
<rect width="48" height="48" rx="24" fill="#1313F2"/>
<mask id="mask0_462_1766" style="mask-type:alpha" maskUnits="userSpaceOnUse" x="11" y="11" width="26" height="26">
<rect x="11.478" y="11.4785" width="25.0435" height="25.0435" fill="#D9D9D9"/>
</mask>
<g mask="url(#mask0_462_1766)">
<path d="M20.8693 30.2611C20.2954 30.2611 19.8041 30.0567 19.3954 29.648C18.9867 29.2393 18.7823 28.748 18.7823 28.1741V15.6524C18.7823 15.0785 18.9867 14.5872 19.3954 14.1785C19.8041 13.7698 20.2954 13.5654 20.8693 13.5654H30.2606C30.8345 13.5654 31.3258 13.7698 31.7345 14.1785C32.1432 14.5872 32.3475 15.0785 32.3475 15.6524V28.1741C32.3475 28.748 32.1432 29.2393 31.7345 29.648C31.3258 30.0567 30.8345 30.2611 30.2606 30.2611H20.8693ZM20.8693 28.1741H30.2606V15.6524H20.8693V28.1741ZM16.6954 34.435C16.1214 34.435 15.6301 34.2306 15.2214 33.822C14.8127 33.4133 14.6084 32.922 14.6084 32.348V17.7393H16.6954V32.348H28.1736V34.435H16.6954Z" fill="#E5EBFF"/>
</g>
</svg>
