<svg width="351" height="54" viewBox="0 0 351 54" fill="none" xmlns="http://www.w3.org/2000/svg">
<rect width="351" height="54" rx="27" fill="#1313F2"/>
<path d="M119.219 25.2536H117.36C117.307 24.9486 117.209 24.6785 117.067 24.4432C116.924 24.2045 116.747 24.0024 116.535 23.8366C116.323 23.6709 116.081 23.5466 115.809 23.4638C115.54 23.3776 115.25 23.3345 114.939 23.3345C114.385 23.3345 113.895 23.4737 113.467 23.7521C113.04 24.0272 112.705 24.4316 112.463 24.9652C112.221 25.4955 112.1 26.1435 112.1 26.9091C112.1 27.688 112.221 28.3442 112.463 28.8778C112.708 29.4081 113.043 29.8092 113.467 30.081C113.895 30.3494 114.384 30.4837 114.934 30.4837C115.239 30.4837 115.524 30.4439 115.789 30.3643C116.058 30.2815 116.298 30.1605 116.51 30.0014C116.725 29.8423 116.906 29.6468 117.052 29.4148C117.201 29.1828 117.304 28.9176 117.36 28.6193L119.219 28.6293C119.15 29.1132 118.999 29.5672 118.767 29.9915C118.538 30.4157 118.238 30.7902 117.867 31.1151C117.496 31.4366 117.062 31.6884 116.565 31.8707C116.067 32.0497 115.516 32.1392 114.909 32.1392C114.014 32.1392 113.215 31.9321 112.513 31.5178C111.81 31.1035 111.257 30.5052 110.852 29.723C110.448 28.9408 110.246 28.0028 110.246 26.9091C110.246 25.812 110.45 24.8741 110.857 24.0952C111.265 23.313 111.82 22.7147 112.523 22.3004C113.225 21.8861 114.021 21.679 114.909 21.679C115.476 21.679 116.003 21.7585 116.49 21.9176C116.977 22.0767 117.411 22.3104 117.793 22.6186C118.174 22.9235 118.487 23.2981 118.732 23.7422C118.981 24.183 119.143 24.6868 119.219 25.2536ZM120.829 32V24.3636H122.574V25.6364H122.654C122.793 25.1955 123.031 24.8558 123.369 24.6172C123.711 24.3752 124.1 24.2543 124.538 24.2543C124.637 24.2543 124.748 24.2592 124.871 24.2692C124.997 24.2758 125.101 24.2874 125.184 24.304V25.9595C125.108 25.933 124.987 25.9098 124.821 25.8899C124.659 25.8667 124.501 25.8551 124.349 25.8551C124.021 25.8551 123.726 25.9264 123.464 26.0689C123.205 26.2081 123.002 26.402 122.852 26.6506C122.703 26.8991 122.629 27.1858 122.629 27.5107V32H120.829ZM126.38 32V24.3636H128.18V32H126.38ZM127.285 23.2798C127 23.2798 126.754 23.1854 126.549 22.9964C126.343 22.8042 126.241 22.5739 126.241 22.3054C126.241 22.0336 126.343 21.8033 126.549 21.6143C126.754 21.4221 127 21.326 127.285 21.326C127.573 21.326 127.818 21.4221 128.02 21.6143C128.226 21.8033 128.329 22.0336 128.329 22.3054C128.329 22.5739 128.226 22.8042 128.02 22.9964C127.818 23.1854 127.573 23.2798 127.285 23.2798ZM132.228 32.1541C131.744 32.1541 131.308 32.0679 130.92 31.8956C130.536 31.7199 130.231 31.4614 130.005 31.12C129.783 30.7786 129.672 30.3577 129.672 29.8572C129.672 29.4264 129.752 29.0701 129.911 28.7884C130.07 28.5066 130.287 28.2812 130.562 28.1122C130.837 27.9432 131.147 27.8156 131.492 27.7294C131.84 27.6399 132.199 27.5753 132.571 27.5355C133.018 27.4891 133.381 27.4477 133.659 27.4112C133.938 27.3714 134.14 27.3118 134.266 27.2322C134.395 27.1494 134.46 27.0218 134.46 26.8494V26.8196C134.46 26.4451 134.349 26.1551 134.127 25.9496C133.905 25.7441 133.585 25.6413 133.167 25.6413C132.726 25.6413 132.377 25.7375 132.118 25.9297C131.863 26.1219 131.691 26.349 131.601 26.6108L129.921 26.3722C130.053 25.9081 130.272 25.5204 130.577 25.2088C130.882 24.8939 131.255 24.6586 131.696 24.5028C132.136 24.3438 132.624 24.2642 133.157 24.2642C133.525 24.2642 133.891 24.3073 134.256 24.3935C134.621 24.4796 134.954 24.6222 135.255 24.821C135.557 25.0166 135.799 25.2834 135.981 25.6214C136.167 25.9595 136.26 26.3821 136.26 26.8892V32H134.529V30.951H134.47C134.36 31.1631 134.206 31.362 134.007 31.5476C133.812 31.7299 133.565 31.8774 133.267 31.9901C132.972 32.0994 132.625 32.1541 132.228 32.1541ZM132.695 30.8317C133.056 30.8317 133.369 30.7604 133.635 30.6179C133.9 30.4721 134.104 30.2798 134.246 30.0412C134.392 29.8026 134.465 29.5424 134.465 29.2607V28.3608C134.408 28.4072 134.312 28.4503 134.176 28.4901C134.044 28.5298 133.895 28.5646 133.729 28.5945C133.563 28.6243 133.399 28.6508 133.237 28.674C133.074 28.6972 132.934 28.7171 132.814 28.7337C132.546 28.7701 132.306 28.8298 132.093 28.9126C131.881 28.9955 131.714 29.1115 131.591 29.2607C131.469 29.4065 131.407 29.5954 131.407 29.8274C131.407 30.1589 131.528 30.4091 131.77 30.5781C132.012 30.7472 132.32 30.8317 132.695 30.8317ZM138.069 32V24.3636H139.814V25.6364H139.894C140.033 25.1955 140.272 24.8558 140.61 24.6172C140.951 24.3752 141.341 24.2543 141.778 24.2543C141.877 24.2543 141.989 24.2592 142.111 24.2692C142.237 24.2758 142.342 24.2874 142.424 24.304V25.9595C142.348 25.933 142.227 25.9098 142.061 25.8899C141.899 25.8667 141.742 25.8551 141.589 25.8551C141.261 25.8551 140.966 25.9264 140.704 26.0689C140.446 26.2081 140.242 26.402 140.093 26.6506C139.944 26.8991 139.869 27.1858 139.869 27.5107V32H138.069ZM148.892 27.5256V32H147.093V24.3636H148.813V25.6612H148.902C149.078 25.2337 149.358 24.8939 149.743 24.642C150.13 24.3902 150.609 24.2642 151.179 24.2642C151.706 24.2642 152.165 24.3769 152.556 24.6023C152.951 24.8277 153.256 25.1541 153.471 25.5817C153.69 26.0092 153.798 26.5279 153.794 27.1378V32H151.995V27.4162C151.995 26.9058 151.862 26.5064 151.597 26.218C151.335 25.9297 150.972 25.7855 150.508 25.7855C150.193 25.7855 149.913 25.8551 149.668 25.9943C149.426 26.1302 149.235 26.3274 149.096 26.5859C148.96 26.8445 148.892 27.1577 148.892 27.5256ZM158.955 32.1491C158.209 32.1491 157.563 31.9851 157.016 31.657C156.469 31.3288 156.045 30.8698 155.743 30.2798C155.445 29.6899 155.296 29.0005 155.296 28.2116C155.296 27.4228 155.445 26.7318 155.743 26.1385C156.045 25.5452 156.469 25.0845 157.016 24.7564C157.563 24.4283 158.209 24.2642 158.955 24.2642C159.701 24.2642 160.347 24.4283 160.894 24.7564C161.441 25.0845 161.863 25.5452 162.162 26.1385C162.463 26.7318 162.614 27.4228 162.614 28.2116C162.614 29.0005 162.463 29.6899 162.162 30.2798C161.863 30.8698 161.441 31.3288 160.894 31.657C160.347 31.9851 159.701 32.1491 158.955 32.1491ZM158.965 30.7074C159.369 30.7074 159.707 30.5964 159.979 30.3743C160.251 30.1489 160.453 29.8473 160.586 29.4695C160.721 29.0916 160.789 28.6707 160.789 28.2067C160.789 27.7393 160.721 27.3168 160.586 26.9389C160.453 26.5578 160.251 26.2545 159.979 26.0291C159.707 25.8037 159.369 25.6911 158.965 25.6911C158.551 25.6911 158.206 25.8037 157.931 26.0291C157.659 26.2545 157.455 26.5578 157.319 26.9389C157.187 27.3168 157.12 27.7393 157.12 28.2067C157.12 28.6707 157.187 29.0916 157.319 29.4695C157.455 29.8473 157.659 30.1489 157.931 30.3743C158.206 30.5964 158.551 30.7074 158.965 30.7074ZM170.703 24.3636L167.983 32H165.995L163.275 24.3636H165.194L166.949 30.0362H167.029L168.789 24.3636H170.703ZM175.019 32.1491C174.274 32.1491 173.627 31.9851 173.08 31.657C172.534 31.3288 172.109 30.8698 171.808 30.2798C171.509 29.6899 171.36 29.0005 171.36 28.2116C171.36 27.4228 171.509 26.7318 171.808 26.1385C172.109 25.5452 172.534 25.0845 173.08 24.7564C173.627 24.4283 174.274 24.2642 175.019 24.2642C175.765 24.2642 176.411 24.4283 176.958 24.7564C177.505 25.0845 177.928 25.5452 178.226 26.1385C178.528 26.7318 178.678 27.4228 178.678 28.2116C178.678 29.0005 178.528 29.6899 178.226 30.2798C177.928 30.8698 177.505 31.3288 176.958 31.657C176.411 31.9851 175.765 32.1491 175.019 32.1491ZM175.029 30.7074C175.434 30.7074 175.772 30.5964 176.044 30.3743C176.315 30.1489 176.517 29.8473 176.65 29.4695C176.786 29.0916 176.854 28.6707 176.854 28.2067C176.854 27.7393 176.786 27.3168 176.65 26.9389C176.517 26.5578 176.315 26.2545 176.044 26.0291C175.772 25.8037 175.434 25.6911 175.029 25.6911C174.615 25.6911 174.27 25.8037 173.995 26.0291C173.723 26.2545 173.52 26.5578 173.384 26.9389C173.251 27.3168 173.185 27.7393 173.185 28.2067C173.185 28.6707 173.251 29.0916 173.384 29.4695C173.52 29.8473 173.723 30.1489 173.995 30.3743C174.27 30.5964 174.615 30.7074 175.029 30.7074ZM185.478 21.8182V32H183.679V21.8182H185.478ZM187.329 32V24.3636H189.129V32H187.329ZM188.234 23.2798C187.949 23.2798 187.704 23.1854 187.498 22.9964C187.293 22.8042 187.19 22.5739 187.19 22.3054C187.19 22.0336 187.293 21.8033 187.498 21.6143C187.704 21.4221 187.949 21.326 188.234 21.326C188.522 21.326 188.767 21.4221 188.97 21.6143C189.175 21.8033 189.278 22.0336 189.278 22.3054C189.278 22.5739 189.175 22.8042 188.97 22.9964C188.767 23.1854 188.522 23.2798 188.234 23.2798ZM192.779 27.5256V32H190.979V24.3636H192.7V25.6612H192.789C192.965 25.2337 193.245 24.8939 193.629 24.642C194.017 24.3902 194.496 24.2642 195.066 24.2642C195.593 24.2642 196.052 24.3769 196.443 24.6023C196.838 24.8277 197.143 25.1541 197.358 25.5817C197.577 26.0092 197.684 26.5279 197.681 27.1378V32H195.881V27.4162C195.881 26.9058 195.749 26.5064 195.484 26.218C195.222 25.9297 194.859 25.7855 194.395 25.7855C194.08 25.7855 193.8 25.8551 193.555 25.9943C193.313 26.1302 193.122 26.3274 192.983 26.5859C192.847 26.8445 192.779 27.1577 192.779 27.5256ZM201.151 29.6037L201.146 27.4311H201.435L204.179 24.3636H206.282L202.906 28.1222H202.533L201.151 29.6037ZM199.511 32V21.8182H201.31V32H199.511ZM204.303 32L201.817 28.5249L203.031 27.2571L206.456 32H204.303Z" fill="#F6F6F6"/>
<mask id="mask0_384_1917" style="mask-type:alpha" maskUnits="userSpaceOnUse" x="217" y="15" width="25" height="24">
<rect x="217.5" y="15" width="24" height="24" fill="#D9D9D9"/>
</mask>
<g mask="url(#mask0_384_1917)">
<path d="M228.5 36V28H220.5V26H228.5V18H230.5V26H238.5V28H230.5V36H228.5Z" fill="#F9FAFC"/>
</g>
</svg>
