<svg width="148" height="54" viewBox="0 0 148 54" fill="none" xmlns="http://www.w3.org/2000/svg">
<rect x="0.5" width="147.5" height="54" rx="27" fill="#1313F2"/>
<path d="M36.4695 25.2536H34.6101C34.5571 24.9486 34.4593 24.6785 34.3168 24.4432C34.1742 24.2045 33.9969 24.0024 33.7848 23.8366C33.5727 23.6709 33.3307 23.5466 33.0589 23.4638C32.7905 23.3776 32.5005 23.3345 32.1889 23.3345C31.6354 23.3345 31.1449 23.4737 30.7173 23.7521C30.2898 24.0272 29.955 24.4316 29.7131 24.9652C29.4711 25.4955 29.3501 26.1435 29.3501 26.9091C29.3501 27.688 29.4711 28.3442 29.7131 28.8778C29.9583 29.4081 30.2931 29.8092 30.7173 30.081C31.1449 30.3494 31.6338 30.4837 32.1839 30.4837C32.4889 30.4837 32.7739 30.4439 33.0391 30.3643C33.3075 30.2815 33.5478 30.1605 33.7599 30.0014C33.9754 29.8423 34.156 29.6468 34.3018 29.4148C34.451 29.1828 34.5537 28.9176 34.6101 28.6193L36.4695 28.6293C36.3999 29.1132 36.2491 29.5672 36.017 29.9915C35.7884 30.4157 35.4884 30.7902 35.1172 31.1151C34.746 31.4366 34.3118 31.6884 33.8146 31.8707C33.3175 32.0497 32.7656 32.1392 32.1591 32.1392C31.2642 32.1392 30.4654 31.9321 29.7628 31.5178C29.0601 31.1035 28.5066 30.5052 28.1023 29.723C27.6979 28.9408 27.4957 28.0028 27.4957 26.9091C27.4957 25.812 27.6996 24.8741 28.1072 24.0952C28.5149 23.313 29.0701 22.7147 29.7727 22.3004C30.4754 21.8861 31.2708 21.679 32.1591 21.679C32.7259 21.679 33.2528 21.7585 33.7401 21.9176C34.2273 22.0767 34.6615 22.3104 35.0426 22.6186C35.4238 22.9235 35.737 23.2981 35.9822 23.7422C36.2308 24.183 36.3932 24.6868 36.4695 25.2536ZM38.079 32V24.3636H39.824V25.6364H39.9036C40.0428 25.1955 40.2814 24.8558 40.6195 24.6172C40.9609 24.3752 41.3503 24.2543 41.7878 24.2543C41.8873 24.2543 41.9983 24.2592 42.1209 24.2692C42.2469 24.2758 42.3513 24.2874 42.4341 24.304V25.9595C42.3579 25.933 42.2369 25.9098 42.0712 25.8899C41.9088 25.8667 41.7514 25.8551 41.5989 25.8551C41.2708 25.8551 40.9758 25.9264 40.714 26.0689C40.4554 26.2081 40.2516 26.402 40.1025 26.6506C39.9533 26.8991 39.8787 27.1858 39.8787 27.5107V32H38.079ZM43.6298 32V24.3636H45.4295V32H43.6298ZM44.5346 23.2798C44.2496 23.2798 44.0043 23.1854 43.7988 22.9964C43.5933 22.8042 43.4906 22.5739 43.4906 22.3054C43.4906 22.0336 43.5933 21.8033 43.7988 21.6143C44.0043 21.4221 44.2496 21.326 44.5346 21.326C44.823 21.326 45.0682 21.4221 45.2704 21.6143C45.4759 21.8033 45.5787 22.0336 45.5787 22.3054C45.5787 22.5739 45.4759 22.8042 45.2704 22.9964C45.0682 23.1854 44.823 23.2798 44.5346 23.2798ZM49.4776 32.1541C48.9937 32.1541 48.5579 32.0679 48.1701 31.8956C47.7856 31.7199 47.4807 31.4614 47.2553 31.12C47.0333 30.7786 46.9222 30.3577 46.9222 29.8572C46.9222 29.4264 47.0018 29.0701 47.1609 28.7884C47.32 28.5066 47.5371 28.2812 47.8121 28.1122C48.0872 27.9432 48.3971 27.8156 48.7418 27.7294C49.0898 27.6399 49.4495 27.5753 49.8207 27.5355C50.2681 27.4891 50.631 27.4477 50.9094 27.4112C51.1879 27.3714 51.39 27.3118 51.516 27.2322C51.6452 27.1494 51.7099 27.0218 51.7099 26.8494V26.8196C51.7099 26.4451 51.5988 26.1551 51.3768 25.9496C51.1547 25.7441 50.8349 25.6413 50.4173 25.6413C49.9764 25.6413 49.6268 25.7375 49.3683 25.9297C49.113 26.1219 48.9407 26.349 48.8512 26.6108L47.1708 26.3722C47.3034 25.9081 47.5221 25.5204 47.8271 25.2088C48.132 24.8939 48.5049 24.6586 48.9457 24.5028C49.3865 24.3438 49.8737 24.2642 50.4073 24.2642C50.7752 24.2642 51.1415 24.3073 51.506 24.3935C51.8706 24.4796 52.2037 24.6222 52.5053 24.821C52.8069 25.0166 53.0489 25.2834 53.2312 25.6214C53.4168 25.9595 53.5096 26.3821 53.5096 26.8892V32H51.7795V30.951H51.7198C51.6104 31.1631 51.4563 31.362 51.2575 31.5476C51.0619 31.7299 50.815 31.8774 50.5167 31.9901C50.2217 32.0994 49.8754 32.1541 49.4776 32.1541ZM49.945 30.8317C50.3062 30.8317 50.6194 30.7604 50.8846 30.6179C51.1497 30.4721 51.3536 30.2798 51.4961 30.0412C51.6419 29.8026 51.7148 29.5424 51.7148 29.2607V28.3608C51.6585 28.4072 51.5624 28.4503 51.4265 28.4901C51.2939 28.5298 51.1448 28.5646 50.979 28.5945C50.8133 28.6243 50.6493 28.6508 50.4869 28.674C50.3245 28.6972 50.1836 28.7171 50.0643 28.7337C49.7958 28.7701 49.5555 28.8298 49.3434 28.9126C49.1313 28.9955 48.9639 29.1115 48.8413 29.2607C48.7186 29.4065 48.6573 29.5954 48.6573 29.8274C48.6573 30.1589 48.7783 30.4091 49.0202 30.5781C49.2622 30.7472 49.5704 30.8317 49.945 30.8317ZM55.3192 32V24.3636H57.0643V25.6364H57.1438C57.283 25.1955 57.5217 24.8558 57.8597 24.6172C58.2011 24.3752 58.5906 24.2543 59.0281 24.2543C59.1275 24.2543 59.2385 24.2592 59.3612 24.2692C59.4871 24.2758 59.5915 24.2874 59.6744 24.304V25.9595C59.5981 25.933 59.4772 25.9098 59.3114 25.8899C59.149 25.8667 58.9916 25.8551 58.8391 25.8551C58.511 25.8551 58.216 25.9264 57.9542 26.0689C57.6957 26.2081 57.4918 26.402 57.3427 26.6506C57.1935 26.8991 57.119 27.1858 57.119 27.5107V32H55.3192ZM66.1424 21.8182V32H64.3427V21.8182H66.1424ZM67.9931 32V24.3636H69.7928V32H67.9931ZM68.8979 23.2798C68.6129 23.2798 68.3676 23.1854 68.1621 22.9964C67.9566 22.8042 67.8539 22.5739 67.8539 22.3054C67.8539 22.0336 67.9566 21.8033 68.1621 21.6143C68.3676 21.4221 68.6129 21.326 68.8979 21.326C69.1863 21.326 69.4315 21.4221 69.6337 21.6143C69.8392 21.8033 69.9419 22.0336 69.9419 22.3054C69.9419 22.5739 69.8392 22.8042 69.6337 22.9964C69.4315 23.1854 69.1863 23.2798 68.8979 23.2798ZM73.4432 27.5256V32H71.6435V24.3636H73.3636V25.6612H73.4531C73.6288 25.2337 73.9089 24.8939 74.2933 24.642C74.6811 24.3902 75.16 24.2642 75.7301 24.2642C76.2571 24.2642 76.7161 24.3769 77.1072 24.6023C77.5017 24.8277 77.8066 25.1541 78.022 25.5817C78.2408 26.0092 78.3485 26.5279 78.3452 27.1378V32H76.5455V27.4162C76.5455 26.9058 76.4129 26.5064 76.1477 26.218C75.8859 25.9297 75.523 25.7855 75.0589 25.7855C74.7441 25.7855 74.464 25.8551 74.2188 25.9943C73.9768 26.1302 73.7862 26.3274 73.647 26.5859C73.5111 26.8445 73.4432 27.1577 73.4432 27.5256ZM81.8153 29.6037L81.8104 27.4311H82.0987L84.843 24.3636H86.946L83.5703 28.1222H83.1974L81.8153 29.6037ZM80.1747 32V21.8182H81.9744V32H80.1747ZM84.9673 32L82.4815 28.5249L83.6946 27.2571L87.12 32H84.9673Z" fill="#F6F6F6"/>
<mask id="mask0_384_2478" style="mask-type:alpha" maskUnits="userSpaceOnUse" x="97" y="15" width="25" height="24">
<rect x="97.75" y="15" width="24" height="24" fill="#D9D9D9"/>
</mask>
<g mask="url(#mask0_384_2478)">
<path d="M107.3 32.9996L101.6 27.2996L103.025 25.8746L107.3 30.1496L116.475 20.9746L117.9 22.3996L107.3 32.9996Z" fill="#F9FAFC"/>
</g>
</svg>
