<svg width="54" height="54" viewBox="0 0 54 54" fill="none" xmlns="http://www.w3.org/2000/svg">
<rect width="54" height="54" rx="27" fill="#F2F2F2"/>
<mask id="mask0_384_1925" style="mask-type:alpha" maskUnits="userSpaceOnUse" x="15" y="15" width="24" height="24">
<rect x="15" y="15" width="24" height="24" fill="#D9D9D9"/>
</mask>
<g mask="url(#mask0_384_1925)">
<path d="M26.4042 34.1998C26.2345 34.1998 26.0914 34.1423 25.9747 34.0273C25.858 33.9123 25.7997 33.7698 25.7997 33.5998V27.9248L19.9247 20.7748C19.7747 20.5748 19.7519 20.3623 19.8562 20.1373C19.9604 19.9123 20.1415 19.7998 20.3997 19.7998H33.5997C33.8579 19.7998 34.039 19.9123 34.1432 20.1373C34.2475 20.3623 34.2247 20.5748 34.0747 20.7748L28.1997 27.9248V33.5998C28.1997 33.7698 28.1424 33.9123 28.0277 34.0273C27.9129 34.1423 27.7707 34.1998 27.6012 34.1998H26.4042ZM26.9997 26.5498L31.0497 21.5998H22.9247L26.9997 26.5498Z" fill="#5B5B5B"/>
</g>
</svg>
