<svg width="90" height="54" viewBox="0 0 90 54" fill="none" xmlns="http://www.w3.org/2000/svg">
<path d="M0 12C0 5.37257 5.37258 0 12 0H78C84.6274 0 90 5.37258 90 12V42.0017C90 48.6291 84.6274 54.0017 78 54.0017H12C5.37258 54.0017 0 48.6291 0 42.0017V12Z" fill="#ECECEC"/>
<path d="M35.5151 33.0352C35.9349 33.4562 36.4336 33.7902 36.9829 34.0176C37.0055 34.0269 37.0286 34.035 37.0513 34.0439L33.8696 37.2275C32.8373 38.2599 31.1609 38.2598 30.1284 37.2275L27.0327 34.1318C27.1235 34.1009 27.2143 34.0681 27.3032 34.0312C27.8529 33.8036 28.3522 33.4695 28.772 33.0479L28.771 33.0469L32.1489 29.6699L35.5151 33.0352ZM31.9985 16C32.6123 16 33.2045 16.2132 33.6753 16.5986L33.8696 16.7744L37.0513 19.9561C37.0288 19.9649 37.0062 19.9732 36.9839 19.9824C36.4344 20.2101 35.9348 20.5443 35.5151 20.9658L32.1499 24.3301L28.77 20.9512C28.2739 20.4551 27.6809 20.0886 27.0337 19.8682L30.1284 16.7744C30.6246 16.2787 31.2971 16.0001 31.9985 16Z" stroke="#00051B" stroke-width="2"/>
<path d="M25.5684 22.6816L25.7139 22.6895C26.051 22.7236 26.3681 22.8721 26.6104 23.1133L30.2227 26.7275V26.7266C30.3232 26.8275 30.4333 26.9173 30.5479 27.001C30.44 27.0775 30.3362 27.1607 30.2393 27.2529L30.2295 27.2607L30.2207 27.2705L26.6084 30.8857C26.3372 31.1567 25.958 31.3144 25.5713 31.3145H24.2178L21.7744 28.8711C20.8061 27.9013 20.7462 26.3675 21.5928 25.3291L21.7744 25.1279L24.2197 22.6816H25.5684ZM38.7168 22.6973H39.7949L42.2256 25.1279C43.258 26.1604 43.258 27.8367 42.2256 28.8691L39.7959 31.2988H38.7168C38.3308 31.2988 37.9502 31.1406 37.6816 30.8711L34.0713 27.2607L34.0625 27.2529L33.8623 27.0791C33.8273 27.0517 33.79 27.0276 33.7539 27.002C33.8687 26.9182 33.9793 26.8286 34.0801 26.7275L37.6807 23.1279L37.6816 23.126C37.9514 22.8552 38.3326 22.6973 38.7168 22.6973Z" stroke="#00051B" stroke-width="2"/>
<path d="M51.1186 32.001V21.8192H54.7479C55.54 21.8192 56.1963 21.9633 56.7166 22.2517C57.237 22.54 57.6264 22.9345 57.8849 23.4349C58.1435 23.9321 58.2727 24.4922 58.2727 25.1153C58.2727 25.7417 58.1418 26.3052 57.88 26.8057C57.6214 27.3028 57.2304 27.6972 56.7067 27.9889C56.1863 28.2773 55.5317 28.4214 54.7429 28.4214H52.2472V27.1189H54.6037C55.1042 27.1189 55.5102 27.0327 55.8217 26.8604C56.1333 26.6847 56.362 26.4461 56.5078 26.1444C56.6536 25.8428 56.7266 25.4998 56.7266 25.1153C56.7266 24.7309 56.6536 24.3895 56.5078 24.0912C56.362 23.7929 56.1316 23.5592 55.8168 23.3902C55.5052 23.2211 55.0942 23.1366 54.5838 23.1366H52.6548V32.001H51.1186ZM59.8144 32.001V24.3646H61.3009V32.001H59.8144ZM60.5651 23.1863C60.3066 23.1863 60.0845 23.1002 59.8989 22.9278C59.7166 22.7522 59.6254 22.5434 59.6254 22.3014C59.6254 22.0561 59.7166 21.8473 59.8989 21.675C60.0845 21.4993 60.3066 21.4115 60.5651 21.4115C60.8236 21.4115 61.044 21.4993 61.2263 21.675C61.4119 21.8473 61.5047 22.0561 61.5047 22.3014C61.5047 22.5434 61.4119 22.7522 61.2263 22.9278C61.044 23.1002 60.8236 23.1863 60.5651 23.1863ZM64.334 24.3646L66.0194 27.3376L67.7196 24.3646H69.3454L66.964 28.1828L69.3652 32.001H67.7395L66.0194 29.1473L64.3042 32.001H62.6735L65.0499 28.1828L62.7033 24.3646H64.334Z" fill="#00051B"/>
</svg>
