<svg width="173" height="54" viewBox="0 0 173 54" fill="none" xmlns="http://www.w3.org/2000/svg">
<rect y="0.00195312" width="173" height="54" rx="12" fill="#ECECEC"/>
<mask id="mask0_384_2390" style="mask-type:alpha" maskUnits="userSpaceOnUse" x="20" y="15" width="24" height="25">
<rect x="20" y="15.002" width="24" height="24" fill="#D9D9D9"/>
</mask>
<g mask="url(#mask0_384_2390)">
<path d="M21 34.002V20.002H23V34.002H21ZM24 34.002V20.002H26V34.002H24ZM27 34.002V20.002H28V34.002H27ZM30 34.002V20.002H32V34.002H30ZM33 34.002V20.002H36V34.002H33ZM37 34.002V20.002H38V34.002H37ZM40 34.002V20.002H43V34.002H40Z" fill="#00051B"/>
</g>
<path d="M51.1186 32.002V21.8201H54.8473C55.5698 21.8201 56.1681 21.9395 56.642 22.1781C57.116 22.4134 57.4706 22.7333 57.706 23.1376C57.9413 23.5386 58.0589 23.9911 58.0589 24.4949C58.0589 24.9191 57.9811 25.277 57.8253 25.5687C57.6695 25.8571 57.4607 26.0891 57.1989 26.2647C56.9403 26.4371 56.6553 26.563 56.3438 26.6426V26.742C56.6818 26.7586 57.0116 26.868 57.3331 27.0701C57.6579 27.269 57.9264 27.5524 58.1385 27.9203C58.3506 28.2882 58.4567 28.7356 58.4567 29.2626C58.4567 29.783 58.334 30.2503 58.0888 30.6646C57.8468 31.0756 57.4723 31.402 56.9652 31.644C56.4581 31.8826 55.8101 32.002 55.0213 32.002H51.1186ZM52.6548 30.6845H54.8722C55.608 30.6845 56.1349 30.542 56.4531 30.2569C56.7713 29.9719 56.9304 29.6156 56.9304 29.188C56.9304 28.8665 56.8492 28.5716 56.6868 28.3031C56.5244 28.0346 56.2924 27.8208 55.9908 27.6618C55.6925 27.5027 55.3378 27.4231 54.9268 27.4231H52.6548V30.6845ZM52.6548 26.225H54.7131C55.0578 26.225 55.3677 26.1587 55.6428 26.0261C55.9212 25.8935 56.1416 25.7079 56.304 25.4693C56.4697 25.2273 56.5526 24.9423 56.5526 24.6142C56.5526 24.1932 56.4051 23.8403 56.1101 23.5552C55.8151 23.2702 55.3627 23.1277 54.7528 23.1277H52.6548V26.225ZM63.2361 32.1561C62.5202 32.1561 61.8954 31.992 61.3618 31.6639C60.8282 31.3358 60.4139 30.8767 60.1189 30.2868C59.8239 29.6968 59.6764 29.0074 59.6764 28.2186C59.6764 27.4264 59.8239 26.7337 60.1189 26.1404C60.4139 25.5472 60.8282 25.0865 61.3618 24.7583C61.8954 24.4302 62.5202 24.2662 63.2361 24.2662C63.952 24.2662 64.5767 24.4302 65.1104 24.7583C65.644 25.0865 66.0583 25.5472 66.3533 26.1404C66.6482 26.7337 66.7957 27.4264 66.7957 28.2186C66.7957 29.0074 66.6482 29.6968 66.3533 30.2868C66.0583 30.8767 65.644 31.3358 65.1104 31.6639C64.5767 31.992 63.952 32.1561 63.2361 32.1561ZM63.241 30.9082C63.7051 30.9082 64.0895 30.7856 64.3944 30.5403C64.6994 30.295 64.9247 29.9686 65.0706 29.5609C65.2197 29.1532 65.2943 28.7041 65.2943 28.2136C65.2943 27.7264 65.2197 27.2789 65.0706 26.8713C64.9247 26.4603 64.6994 26.1305 64.3944 25.8819C64.0895 25.6333 63.7051 25.5091 63.241 25.5091C62.7737 25.5091 62.3859 25.6333 62.0777 25.8819C61.7728 26.1305 61.5457 26.4603 61.3966 26.8713C61.2507 27.2789 61.1778 27.7264 61.1778 28.2136C61.1778 28.7041 61.2507 29.1532 61.3966 29.5609C61.5457 29.9686 61.7728 30.295 62.0777 30.5403C62.3859 30.7856 62.7737 30.9082 63.241 30.9082ZM69.8015 21.8201V32.002H68.315V21.8201H69.8015ZM74.9525 32.1561C74.2001 32.1561 73.5522 31.9953 73.0086 31.6738C72.4684 31.349 72.0508 30.8933 71.7558 30.3066C71.4641 29.7167 71.3183 29.0256 71.3183 28.2335C71.3183 27.4513 71.4641 26.7619 71.7558 26.1653C72.0508 25.5687 72.4617 25.103 72.9887 24.7683C73.519 24.4335 74.1388 24.2662 74.8481 24.2662C75.279 24.2662 75.6966 24.3374 76.101 24.4799C76.5053 24.6225 76.8682 24.8462 77.1897 25.1511C77.5112 25.456 77.7648 25.8521 77.9504 26.3393C78.136 26.8232 78.2288 27.4115 78.2288 28.1042V28.6312H72.1585V27.5176H76.7721C76.7721 27.1265 76.6926 26.7801 76.5335 26.4785C76.3744 26.1736 76.1507 25.9333 75.8623 25.7576C75.5773 25.582 75.2425 25.4941 74.8581 25.4941C74.4404 25.4941 74.0759 25.5969 73.7643 25.8024C73.4561 26.0046 73.2174 26.2697 73.0484 26.5978C72.8827 26.9226 72.7998 27.2756 72.7998 27.6568V28.5268C72.7998 29.0372 72.8893 29.4714 73.0683 29.8294C73.2506 30.1873 73.5041 30.4608 73.8289 30.6497C74.1537 30.8353 74.5332 30.9281 74.9674 30.9281C75.2492 30.9281 75.506 30.8883 75.738 30.8088C75.97 30.7259 76.1706 30.6033 76.3396 30.4409C76.5086 30.2785 76.6379 30.0779 76.7274 29.8393L78.1343 30.0929C78.0216 30.5072 77.8195 30.8701 77.5278 31.1816C77.2394 31.4899 76.8765 31.7302 76.439 31.9025C76.0048 32.0716 75.5093 32.1561 74.9525 32.1561ZM83.3027 24.3656V25.5588H79.1316V24.3656H83.3027ZM80.2502 22.536H81.7367V29.7598C81.7367 30.0481 81.7798 30.2652 81.866 30.411C81.9521 30.5536 82.0632 30.6513 82.1991 30.7044C82.3383 30.7541 82.4891 30.7789 82.6515 30.7789C82.7708 30.7789 82.8752 30.7707 82.9647 30.7541C83.0542 30.7375 83.1238 30.7243 83.1735 30.7143L83.442 31.9423C83.3558 31.9754 83.2331 32.0086 83.0741 32.0417C82.915 32.0782 82.7161 32.0981 82.4775 32.1014C82.0864 32.108 81.7218 32.0384 81.3837 31.8926C81.0456 31.7467 80.7722 31.5214 80.5634 31.2164C80.3546 30.9115 80.2502 30.5287 80.2502 30.068V22.536ZM87.9417 32.1561C87.2258 32.1561 86.601 31.992 86.0674 31.6639C85.5338 31.3358 85.1195 30.8767 84.8245 30.2868C84.5295 29.6968 84.382 29.0074 84.382 28.2186C84.382 27.4264 84.5295 26.7337 84.8245 26.1404C85.1195 25.5472 85.5338 25.0865 86.0674 24.7583C86.601 24.4302 87.2258 24.2662 87.9417 24.2662C88.6576 24.2662 89.2824 24.4302 89.816 24.7583C90.3496 25.0865 90.7639 25.5472 91.0589 26.1404C91.3539 26.7337 91.5013 27.4264 91.5013 28.2186C91.5013 29.0074 91.3539 29.6968 91.0589 30.2868C90.7639 30.8767 90.3496 31.3358 89.816 31.6639C89.2824 31.992 88.6576 32.1561 87.9417 32.1561ZM87.9467 30.9082C88.4107 30.9082 88.7951 30.7856 89.1001 30.5403C89.405 30.295 89.6304 29.9686 89.7762 29.5609C89.9254 29.1532 89.9999 28.7041 89.9999 28.2136C89.9999 27.7264 89.9254 27.2789 89.7762 26.8713C89.6304 26.4603 89.405 26.1305 89.1001 25.8819C88.7951 25.6333 88.4107 25.5091 87.9467 25.5091C87.4793 25.5091 87.0915 25.6333 86.7833 25.8819C86.4784 26.1305 86.2513 26.4603 86.1022 26.8713C85.9564 27.2789 85.8835 27.7264 85.8835 28.2136C85.8835 28.7041 85.9564 29.1532 86.1022 29.5609C86.2513 29.9686 86.4784 30.295 86.7833 30.5403C87.0915 30.7856 87.4793 30.9082 87.9467 30.9082ZM96.705 32.002V21.8201H98.1915V25.6035H98.281C98.3672 25.4444 98.4915 25.2605 98.6539 25.0517C98.8163 24.8429 99.0417 24.6606 99.33 24.5048C99.6184 24.3457 99.9995 24.2662 100.473 24.2662C101.09 24.2662 101.64 24.4219 102.124 24.7335C102.608 25.045 102.987 25.4941 103.263 26.0808C103.541 26.6674 103.68 27.3734 103.68 28.1987C103.68 29.024 103.543 29.7316 103.268 30.3216C102.992 30.9082 102.615 31.3606 102.134 31.6788C101.653 31.9937 101.105 32.1511 100.488 32.1511C100.024 32.1511 99.6449 32.0732 99.3499 31.9174C99.0582 31.7617 98.8295 31.5794 98.6638 31.3706C98.4981 31.1618 98.3705 30.9761 98.281 30.8137H98.1567V32.002H96.705ZM98.1617 28.1838C98.1617 28.7207 98.2396 29.1913 98.3954 29.5957C98.5511 30.0001 98.7765 30.3166 99.0715 30.5453C99.3665 30.7707 99.7277 30.8833 100.155 30.8833C100.599 30.8833 100.971 30.7657 101.269 30.5304C101.567 30.2917 101.793 29.9686 101.945 29.5609C102.101 29.1532 102.179 28.6942 102.179 28.1838C102.179 27.68 102.103 27.2276 101.95 26.8265C101.801 26.4255 101.576 26.109 101.274 25.877C100.976 25.6449 100.603 25.5289 100.155 25.5289C99.7244 25.5289 99.3598 25.64 99.0615 25.862C98.7666 26.0841 98.5428 26.394 98.3904 26.7917C98.2379 27.1895 98.1617 27.6535 98.1617 28.1838ZM107.432 32.171C106.948 32.171 106.51 32.0815 106.119 31.9025C105.728 31.7202 105.418 31.4567 105.189 31.112C104.964 30.7673 104.851 30.3448 104.851 29.8443C104.851 29.4134 104.934 29.0588 105.1 28.7804C105.266 28.502 105.489 28.2815 105.771 28.1191C106.053 27.9567 106.368 27.8341 106.716 27.7512C107.064 27.6684 107.418 27.6054 107.78 27.5623C108.237 27.5093 108.608 27.4662 108.893 27.4331C109.178 27.3966 109.386 27.3386 109.515 27.2591C109.644 27.1795 109.709 27.0502 109.709 26.8713V26.8365C109.709 26.4023 109.586 26.0659 109.341 25.8272C109.099 25.5886 108.738 25.4693 108.257 25.4693C107.756 25.4693 107.362 25.5803 107.074 25.8024C106.789 26.0211 106.591 26.2647 106.482 26.5332L105.085 26.215C105.251 25.751 105.493 25.3765 105.811 25.0914C106.132 24.8031 106.502 24.5943 106.92 24.465C107.337 24.3324 107.776 24.2662 108.237 24.2662C108.542 24.2662 108.865 24.3026 109.207 24.3755C109.551 24.4451 109.873 24.5744 110.171 24.7633C110.473 24.9522 110.72 25.2224 110.912 25.5737C111.104 25.9217 111.2 26.3741 111.2 26.9309V32.002H109.748V30.9579H109.689C109.593 31.1502 109.448 31.3391 109.256 31.5247C109.064 31.7103 108.817 31.8644 108.515 31.987C108.214 32.1097 107.853 32.171 107.432 32.171ZM107.755 30.9778C108.166 30.9778 108.517 30.8966 108.809 30.7342C109.104 30.5718 109.328 30.3597 109.48 30.0978C109.636 29.8327 109.714 29.5493 109.714 29.2477V28.2633C109.661 28.3163 109.558 28.3661 109.405 28.4125C109.256 28.4556 109.086 28.4937 108.893 28.5268C108.701 28.5566 108.514 28.5848 108.332 28.6113C108.149 28.6345 107.997 28.6544 107.874 28.671C107.586 28.7074 107.322 28.7688 107.084 28.8549C106.848 28.9411 106.659 29.0654 106.517 29.2278C106.378 29.3869 106.308 29.599 106.308 29.8642C106.308 30.2321 106.444 30.5105 106.716 30.6994C106.988 30.885 107.334 30.9778 107.755 30.9778ZM114.527 27.4679V32.002H113.04V24.3656H114.467V25.6085H114.561C114.737 25.2041 115.012 24.8793 115.387 24.6341C115.765 24.3888 116.24 24.2662 116.814 24.2662C117.334 24.2662 117.79 24.3755 118.181 24.5943C118.572 24.8097 118.875 25.1312 119.09 25.5588C119.306 25.9863 119.414 26.515 119.414 27.1447V32.002H117.927V27.3237C117.927 26.7702 117.783 26.3377 117.495 26.0261C117.206 25.7112 116.81 25.5538 116.306 25.5538C115.962 25.5538 115.655 25.6284 115.387 25.7775C115.122 25.9267 114.911 26.1454 114.755 26.4338C114.603 26.7188 114.527 27.0635 114.527 27.4679ZM124.484 32.1561C123.745 32.1561 123.108 31.9887 122.575 31.6539C122.044 31.3159 121.637 30.8502 121.352 30.2569C121.067 29.6636 120.924 28.9842 120.924 28.2186C120.924 27.443 121.07 26.7586 121.362 26.1653C121.653 25.5687 122.064 25.103 122.595 24.7683C123.125 24.4335 123.75 24.2662 124.469 24.2662C125.049 24.2662 125.566 24.3739 126.02 24.5893C126.474 24.8014 126.84 25.0997 127.119 25.4842C127.401 25.8687 127.568 26.3178 127.621 26.8315H126.174C126.095 26.4735 125.912 26.1653 125.627 25.9068C125.346 25.6483 124.968 25.519 124.494 25.519C124.08 25.519 123.717 25.6284 123.405 25.8471C123.097 26.0626 122.857 26.3708 122.684 26.7718C122.512 27.1696 122.426 27.6402 122.426 28.1838C122.426 28.7406 122.51 29.2212 122.679 29.6255C122.848 30.0299 123.087 30.3431 123.395 30.5652C123.707 30.7872 124.073 30.8983 124.494 30.8983C124.776 30.8983 125.031 30.8469 125.259 30.7441C125.491 30.6381 125.685 30.4873 125.841 30.2917C126 30.0962 126.111 29.8609 126.174 29.5858H127.621C127.568 30.0796 127.407 30.5204 127.139 30.9082C126.87 31.296 126.511 31.6009 126.06 31.823C125.612 32.045 125.087 32.1561 124.484 32.1561ZM131.293 32.171C130.809 32.171 130.372 32.0815 129.98 31.9025C129.589 31.7202 129.279 31.4567 129.051 31.112C128.825 30.7673 128.713 30.3448 128.713 29.8443C128.713 29.4134 128.796 29.0588 128.961 28.7804C129.127 28.502 129.351 28.2815 129.632 28.1191C129.914 27.9567 130.229 27.8341 130.577 27.7512C130.925 27.6684 131.28 27.6054 131.641 27.5623C132.098 27.5093 132.47 27.4662 132.755 27.4331C133.04 27.3966 133.247 27.3386 133.376 27.2591C133.505 27.1795 133.57 27.0502 133.57 26.8713V26.8365C133.57 26.4023 133.447 26.0659 133.202 25.8272C132.96 25.5886 132.599 25.4693 132.118 25.4693C131.618 25.4693 131.223 25.5803 130.935 25.8024C130.65 26.0211 130.453 26.2647 130.343 26.5332L128.946 26.215C129.112 25.751 129.354 25.3765 129.672 25.0914C129.994 24.8031 130.363 24.5943 130.781 24.465C131.198 24.3324 131.638 24.2662 132.098 24.2662C132.403 24.2662 132.726 24.3026 133.068 24.3755C133.412 24.4451 133.734 24.5744 134.032 24.7633C134.334 24.9522 134.581 25.2224 134.773 25.5737C134.965 25.9217 135.061 26.3741 135.061 26.9309V32.002H133.61V30.9579H133.55C133.454 31.1502 133.31 31.3391 133.117 31.5247C132.925 31.7103 132.678 31.8644 132.377 31.987C132.075 32.1097 131.714 32.171 131.293 32.171ZM131.616 30.9778C132.027 30.9778 132.378 30.8966 132.67 30.7342C132.965 30.5718 133.189 30.3597 133.341 30.0978C133.497 29.8327 133.575 29.5493 133.575 29.2477V28.2633C133.522 28.3163 133.419 28.3661 133.267 28.4125C133.117 28.4556 132.947 28.4937 132.755 28.5268C132.562 28.5566 132.375 28.5848 132.193 28.6113C132.01 28.6345 131.858 28.6544 131.735 28.671C131.447 28.7074 131.184 28.7688 130.945 28.8549C130.71 28.9411 130.521 29.0654 130.378 29.2278C130.239 29.3869 130.169 29.599 130.169 29.8642C130.169 30.2321 130.305 30.5105 130.577 30.6994C130.849 30.885 131.195 30.9778 131.616 30.9778ZM131.561 23.3464L132.725 21.0545H134.291L132.75 23.3464H131.561ZM136.901 32.002V24.3656H138.338V25.5787H138.418C138.557 25.1677 138.802 24.8445 139.153 24.6092C139.508 24.3706 139.909 24.2512 140.357 24.2512C140.449 24.2512 140.559 24.2546 140.685 24.2612C140.814 24.2678 140.915 24.2761 140.988 24.286V25.7079C140.928 25.6913 140.822 25.6731 140.67 25.6532C140.517 25.63 140.365 25.6184 140.212 25.6184C139.861 25.6184 139.548 25.693 139.273 25.8422C139.001 25.988 138.786 26.1918 138.626 26.4537C138.467 26.7122 138.388 27.0072 138.388 27.3386V32.002H136.901ZM142.134 32.002V24.3656H143.621V32.002H142.134ZM142.885 23.1873C142.627 23.1873 142.404 23.1011 142.219 22.9288C142.037 22.7531 141.945 22.5443 141.945 22.3024C141.945 22.0571 142.037 21.8483 142.219 21.676C142.404 21.5003 142.627 21.4125 142.885 21.4125C143.144 21.4125 143.364 21.5003 143.546 21.676C143.732 21.8483 143.825 22.0571 143.825 22.3024C143.825 22.5443 143.732 22.7531 143.546 22.9288C143.364 23.1011 143.144 23.1873 142.885 23.1873ZM148.697 32.1561C147.981 32.1561 147.357 31.992 146.823 31.6639C146.289 31.3358 145.875 30.8767 145.58 30.2868C145.285 29.6968 145.138 29.0074 145.138 28.2186C145.138 27.4264 145.285 26.7337 145.58 26.1404C145.875 25.5472 146.289 25.0865 146.823 24.7583C147.357 24.4302 147.981 24.2662 148.697 24.2662C149.413 24.2662 150.038 24.4302 150.572 24.7583C151.105 25.0865 151.52 25.5472 151.815 26.1404C152.109 26.7337 152.257 27.4264 152.257 28.2186C152.257 29.0074 152.109 29.6968 151.815 30.2868C151.52 30.8767 151.105 31.3358 150.572 31.6639C150.038 31.992 149.413 32.1561 148.697 32.1561ZM148.702 30.9082C149.166 30.9082 149.551 30.7856 149.856 30.5403C150.161 30.295 150.386 29.9686 150.532 29.5609C150.681 29.1532 150.756 28.7041 150.756 28.2136C150.756 27.7264 150.681 27.2789 150.532 26.8713C150.386 26.4603 150.161 26.1305 149.856 25.8819C149.551 25.6333 149.166 25.5091 148.702 25.5091C148.235 25.5091 147.847 25.6333 147.539 25.8819C147.234 26.1305 147.007 26.4603 146.858 26.8713C146.712 27.2789 146.639 27.7264 146.639 28.2136C146.639 28.7041 146.712 29.1532 146.858 29.5609C147.007 29.9686 147.234 30.295 147.539 30.5403C147.847 30.7856 148.235 30.9082 148.702 30.9082Z" fill="#00051B"/>
</svg>
