<svg width="185" height="54" viewBox="0 0 185 54" fill="none" xmlns="http://www.w3.org/2000/svg">
<path d="M0 12C0 5.37258 5.37258 0 12 0H173C179.627 0 185 5.37258 185 12V42C185 48.6274 179.627 54 173 54H12C5.37258 54 0 48.6274 0 42V12Z" fill="#ECECEC"/>
<mask id="mask0_384_2388" style="mask-type:alpha" maskUnits="userSpaceOnUse" x="20" y="15" width="24" height="24">
<rect x="20" y="15" width="24" height="24" fill="#D9D9D9"/>
</mask>
<g mask="url(#mask0_384_2388)">
<path d="M42 21V33C42 33.55 41.8042 34.0208 41.4125 34.4125C41.0208 34.8042 40.55 35 40 35H24C23.45 35 22.9792 34.8042 22.5875 34.4125C22.1958 34.0208 22 33.55 22 33V21C22 20.45 22.1958 19.9792 22.5875 19.5875C22.9792 19.1958 23.45 19 24 19H40C40.55 19 41.0208 19.1958 41.4125 19.5875C41.8042 19.9792 42 20.45 42 21ZM24 23H40V21H24V23ZM24 27V33H40V27H24Z" fill="#00051B"/>
</g>
<path d="M59.5753 25.1293H58.0241C57.9645 24.7978 57.8535 24.5062 57.6911 24.2543C57.5286 24.0024 57.3298 23.7886 57.0945 23.6129C56.8591 23.4373 56.5956 23.3047 56.304 23.2152C56.0156 23.1257 55.709 23.081 55.3842 23.081C54.7976 23.081 54.2723 23.2285 53.8082 23.5234C53.3475 23.8184 52.983 24.2509 52.7145 24.821C52.4493 25.3911 52.3168 26.0871 52.3168 26.9091C52.3168 27.7377 52.4493 28.437 52.7145 29.0071C52.983 29.5772 53.3492 30.008 53.8132 30.2997C54.2772 30.5914 54.7992 30.7372 55.3793 30.7372C55.7008 30.7372 56.0057 30.6941 56.294 30.608C56.5857 30.5185 56.8492 30.3875 57.0845 30.2152C57.3198 30.0429 57.5187 29.8324 57.6811 29.5838C57.8468 29.3319 57.9612 29.0436 58.0241 28.7188L59.5753 28.7237C59.4924 29.2242 59.3317 29.6849 59.093 30.1058C58.8577 30.5234 58.5545 30.8847 58.1832 31.1896C57.8153 31.4912 57.3944 31.7249 56.9205 31.8906C56.4465 32.0563 55.9295 32.1392 55.3693 32.1392C54.4877 32.1392 53.7022 31.9304 53.0128 31.5128C52.3234 31.0919 51.7798 30.4903 51.3821 29.7081C50.9877 28.9259 50.7905 27.9929 50.7905 26.9091C50.7905 25.822 50.9893 24.889 51.3871 24.1101C51.7848 23.3279 52.3284 22.728 53.0178 22.3104C53.7071 21.8894 54.491 21.679 55.3693 21.679C55.9096 21.679 56.4134 21.7569 56.8807 21.9126C57.3513 22.0651 57.7739 22.2905 58.1484 22.5888C58.523 22.8838 58.8329 23.245 59.0781 23.6726C59.3234 24.0968 59.4891 24.5824 59.5753 25.1293ZM63.3765 32.169C62.8926 32.169 62.4551 32.0795 62.064 31.9006C61.6729 31.7183 61.363 31.4548 61.1343 31.1101C60.9089 30.7654 60.7963 30.3428 60.7963 29.8423C60.7963 29.4115 60.8791 29.0568 61.0448 28.7784C61.2106 28.5 61.4343 28.2796 61.716 28.1172C61.9977 27.9548 62.3126 27.8321 62.6606 27.7493C63.0086 27.6664 63.3633 27.6035 63.7245 27.5604C64.1819 27.5073 64.5531 27.4643 64.8382 27.4311C65.1232 27.3946 65.3303 27.3366 65.4596 27.2571C65.5889 27.1776 65.6535 27.0483 65.6535 26.8693V26.8345C65.6535 26.4003 65.5309 26.0639 65.2856 25.8253C65.0437 25.5866 64.6824 25.4673 64.2018 25.4673C63.7013 25.4673 63.3069 25.5784 63.0186 25.8004C62.7335 26.0192 62.5363 26.2628 62.4269 26.5312L61.0299 26.2131C61.1956 25.7491 61.4376 25.3745 61.7558 25.0895C62.0773 24.8011 62.4468 24.5923 62.8644 24.4631C63.2821 24.3305 63.7212 24.2642 64.1819 24.2642C64.4868 24.2642 64.81 24.3007 65.1514 24.3736C65.4961 24.4432 65.8176 24.5724 66.1159 24.7614C66.4175 24.9503 66.6644 25.2204 66.8566 25.5717C67.0489 25.9197 67.145 26.3722 67.145 26.929V32H65.6933V30.956H65.6336C65.5375 31.1482 65.3933 31.3371 65.2011 31.5227C65.0089 31.7083 64.7619 31.8625 64.4603 31.9851C64.1587 32.1077 63.7974 32.169 63.3765 32.169ZM63.6997 30.9759C64.1107 30.9759 64.462 30.8946 64.7536 30.7322C65.0486 30.5698 65.2723 30.3577 65.4248 30.0959C65.5806 29.8307 65.6585 29.5473 65.6585 29.2457V28.2614C65.6054 28.3144 65.5027 28.3641 65.3502 28.4105C65.2011 28.4536 65.0304 28.4917 64.8382 28.5249C64.6459 28.5547 64.4587 28.5829 64.2764 28.6094C64.0941 28.6326 63.9416 28.6525 63.819 28.669C63.5306 28.7055 63.2671 28.7668 63.0285 28.853C62.7932 28.9392 62.6043 29.0634 62.4617 29.2259C62.3225 29.3849 62.2529 29.5971 62.2529 29.8622C62.2529 30.2301 62.3888 30.5085 62.6606 30.6974C62.9324 30.883 63.2787 30.9759 63.6997 30.9759ZM68.9849 32V24.3636H70.4217V25.5767H70.5012C70.6405 25.1657 70.8857 24.8426 71.237 24.6072C71.5917 24.3686 71.9927 24.2493 72.4402 24.2493C72.533 24.2493 72.6423 24.2526 72.7683 24.2592C72.8976 24.2659 72.9986 24.2741 73.0716 24.2841V25.706C73.0119 25.6894 72.9058 25.6712 72.7534 25.6513C72.6009 25.6281 72.4485 25.6165 72.296 25.6165C71.9447 25.6165 71.6315 25.6911 71.3564 25.8402C71.0846 25.986 70.8691 26.1899 70.7101 26.4517C70.551 26.7102 70.4714 27.0052 70.4714 27.3366V32H68.9849ZM78.2338 24.3636V25.5568H74.0626V24.3636H78.2338ZM75.1812 22.5341H76.6677V29.7578C76.6677 30.0462 76.7108 30.2633 76.797 30.4091C76.8831 30.5516 76.9942 30.6494 77.1301 30.7024C77.2693 30.7521 77.4201 30.777 77.5825 30.777C77.7018 30.777 77.8062 30.7687 77.8957 30.7521C77.9852 30.7356 78.0548 30.7223 78.1045 30.7124L78.373 31.9403C78.2868 31.9735 78.1642 32.0066 78.0051 32.0398C77.846 32.0762 77.6471 32.0961 77.4085 32.0994C77.0174 32.1061 76.6528 32.0365 76.3147 31.8906C75.9767 31.7448 75.7032 31.5194 75.4944 31.2145C75.2856 30.9096 75.1812 30.5268 75.1812 30.0661V22.5341ZM81.9604 32.169C81.4765 32.169 81.039 32.0795 80.6479 31.9006C80.2568 31.7183 79.9469 31.4548 79.7182 31.1101C79.4929 30.7654 79.3802 30.3428 79.3802 29.8423C79.3802 29.4115 79.463 29.0568 79.6287 28.7784C79.7945 28.5 80.0182 28.2796 80.2999 28.1172C80.5816 27.9548 80.8965 27.8321 81.2445 27.7493C81.5925 27.6664 81.9472 27.6035 82.3084 27.5604C82.7658 27.5073 83.137 27.4643 83.4221 27.4311C83.7071 27.3946 83.9143 27.3366 84.0435 27.2571C84.1728 27.1776 84.2374 27.0483 84.2374 26.8693V26.8345C84.2374 26.4003 84.1148 26.0639 83.8695 25.8253C83.6276 25.5866 83.2663 25.4673 82.7857 25.4673C82.2852 25.4673 81.8908 25.5784 81.6025 25.8004C81.3174 26.0192 81.1202 26.2628 81.0108 26.5312L79.6138 26.2131C79.7795 25.7491 80.0215 25.3745 80.3397 25.0895C80.6612 24.8011 81.0307 24.5923 81.4483 24.4631C81.866 24.3305 82.3051 24.2642 82.7658 24.2642C83.0707 24.2642 83.3939 24.3007 83.7353 24.3736C84.08 24.4432 84.4015 24.5724 84.6998 24.7614C85.0014 24.9503 85.2483 25.2204 85.4405 25.5717C85.6328 25.9197 85.7289 26.3722 85.7289 26.929V32H84.2772V30.956H84.2175C84.1214 31.1482 83.9772 31.3371 83.785 31.5227C83.5928 31.7083 83.3458 31.8625 83.0442 31.9851C82.7426 32.1077 82.3813 32.169 81.9604 32.169ZM82.2836 30.9759C82.6946 30.9759 83.0459 30.8946 83.3376 30.7322C83.6325 30.5698 83.8563 30.3577 84.0087 30.0959C84.1645 29.8307 84.2424 29.5473 84.2424 29.2457V28.2614C84.1893 28.3144 84.0866 28.3641 83.9341 28.4105C83.785 28.4536 83.6143 28.4917 83.4221 28.5249C83.2298 28.5547 83.0426 28.5829 82.8603 28.6094C82.678 28.6326 82.5255 28.6525 82.4029 28.669C82.1145 28.7055 81.851 28.7668 81.6124 28.853C81.3771 28.9392 81.1882 29.0634 81.0456 29.2259C80.9064 29.3849 80.8368 29.5971 80.8368 29.8622C80.8368 30.2301 80.9727 30.5085 81.2445 30.6974C81.5163 30.883 81.8626 30.9759 82.2836 30.9759ZM81.3489 23.4389L80.3496 23.4091C80.3496 22.8589 80.4971 22.4197 80.7921 22.0916C81.0904 21.7635 81.4583 21.5994 81.8958 21.5994C82.098 21.5994 82.2753 21.6342 82.4277 21.7038C82.5802 21.7701 82.7227 21.848 82.8553 21.9375C82.9912 22.0237 83.1254 22.1016 83.258 22.1712C83.3939 22.2375 83.5447 22.2706 83.7104 22.2706C83.9027 22.2706 84.0584 22.1977 84.1777 22.0518C84.3004 21.906 84.3617 21.7254 84.3617 21.5099L85.3411 21.5746C85.3411 22.1281 85.192 22.5639 84.8937 22.8821C84.5954 23.197 84.2291 23.3561 83.7949 23.3594C83.5596 23.3594 83.3641 23.3262 83.2083 23.2599C83.0558 23.1903 82.9199 23.1125 82.8006 23.0263C82.6813 22.9368 82.5587 22.8572 82.4327 22.7876C82.3068 22.718 82.156 22.6832 81.9803 22.6832C81.7947 22.6832 81.6422 22.7562 81.5229 22.902C81.4069 23.0445 81.3489 23.2235 81.3489 23.4389ZM90.7854 32.1541C90.0695 32.1541 89.4448 31.9901 88.9111 31.6619C88.3775 31.3338 87.9632 30.8748 87.6683 30.2848C87.3733 29.6948 87.2258 29.0054 87.2258 28.2166C87.2258 27.4245 87.3733 26.7318 87.6683 26.1385C87.9632 25.5452 88.3775 25.0845 88.9111 24.7564C89.4448 24.4283 90.0695 24.2642 90.7854 24.2642C91.5013 24.2642 92.1261 24.4283 92.6597 24.7564C93.1933 25.0845 93.6076 25.5452 93.9026 26.1385C94.1976 26.7318 94.3451 27.4245 94.3451 28.2166C94.3451 29.0054 94.1976 29.6948 93.9026 30.2848C93.6076 30.8748 93.1933 31.3338 92.6597 31.6619C92.1261 31.9901 91.5013 32.1541 90.7854 32.1541ZM90.7904 30.9062C91.2544 30.9062 91.6389 30.7836 91.9438 30.5384C92.2487 30.2931 92.4741 29.9666 92.62 29.5589C92.7691 29.1513 92.8437 28.7022 92.8437 28.2116C92.8437 27.7244 92.7691 27.277 92.62 26.8693C92.4741 26.4583 92.2487 26.1286 91.9438 25.88C91.6389 25.6314 91.2544 25.5071 90.7904 25.5071C90.3231 25.5071 89.9353 25.6314 89.6271 25.88C89.3221 26.1286 89.0951 26.4583 88.946 26.8693C88.8001 27.277 88.7272 27.7244 88.7272 28.2116C88.7272 28.7022 88.8001 29.1513 88.946 29.5589C89.0951 29.9666 89.3221 30.2931 89.6271 30.5384C89.9353 30.7836 90.3231 30.9062 90.7904 30.9062ZM102.288 32.1491C101.672 32.1491 101.121 31.9917 100.638 31.6768C100.157 31.3587 99.7791 30.9062 99.504 30.3196C99.2322 29.7296 99.0963 29.022 99.0963 28.1967C99.0963 27.3714 99.2339 26.6655 99.509 26.0788C99.7874 25.4922 100.169 25.0431 100.652 24.7315C101.136 24.42 101.685 24.2642 102.298 24.2642C102.772 24.2642 103.153 24.3438 103.442 24.5028C103.733 24.6586 103.959 24.8409 104.118 25.0497C104.28 25.2585 104.406 25.4425 104.495 25.6016H104.585V21.8182H106.071V32H104.62V30.8118H104.495C104.406 30.9742 104.277 31.1598 104.108 31.3686C103.942 31.5774 103.713 31.7597 103.422 31.9155C103.13 32.0713 102.752 32.1491 102.288 32.1491ZM102.616 30.8814C103.044 30.8814 103.405 30.7687 103.7 30.5433C103.998 30.3146 104.224 29.9981 104.376 29.5938C104.532 29.1894 104.61 28.7187 104.61 28.1818C104.61 27.6515 104.534 27.1875 104.381 26.7898C104.229 26.392 104.005 26.0821 103.71 25.8601C103.415 25.638 103.05 25.527 102.616 25.527C102.169 25.527 101.796 25.643 101.498 25.875C101.199 26.107 100.974 26.4235 100.821 26.8246C100.672 27.2256 100.598 27.678 100.598 28.1818C100.598 28.6922 100.674 29.1513 100.826 29.5589C100.979 29.9666 101.204 30.2898 101.503 30.5284C101.804 30.7637 102.175 30.8814 102.616 30.8814ZM111.344 32.1541C110.592 32.1541 109.944 31.9934 109.4 31.6719C108.86 31.3471 108.443 30.8913 108.148 30.3047C107.856 29.7147 107.71 29.0237 107.71 28.2315C107.71 27.4493 107.856 26.7599 108.148 26.1634C108.443 25.5668 108.854 25.1011 109.381 24.7663C109.911 24.4316 110.531 24.2642 111.24 24.2642C111.671 24.2642 112.088 24.3355 112.493 24.478C112.897 24.6205 113.26 24.8442 113.582 25.1491C113.903 25.4541 114.157 25.8501 114.342 26.3374C114.528 26.8213 114.621 27.4096 114.621 28.1023V28.6293H108.55V27.5156H113.164C113.164 27.1245 113.084 26.7782 112.925 26.4766C112.766 26.1716 112.542 25.9313 112.254 25.7557C111.969 25.58 111.634 25.4922 111.25 25.4922C110.832 25.4922 110.468 25.5949 110.156 25.8004C109.848 26.0026 109.609 26.2678 109.44 26.5959C109.274 26.9207 109.192 27.2737 109.192 27.6548V28.5249C109.192 29.0353 109.281 29.4695 109.46 29.8274C109.642 30.1854 109.896 30.4588 110.221 30.6477C110.546 30.8333 110.925 30.9261 111.359 30.9261C111.641 30.9261 111.898 30.8864 112.13 30.8068C112.362 30.724 112.562 30.6013 112.731 30.4389C112.9 30.2765 113.03 30.076 113.119 29.8374L114.526 30.0909C114.413 30.5052 114.211 30.8681 113.92 31.1797C113.631 31.4879 113.268 31.7282 112.831 31.9006C112.397 32.0696 111.901 32.1541 111.344 32.1541ZM122.912 32.1541C122.173 32.1541 121.536 31.9867 121.003 31.652C120.472 31.3139 120.065 30.8482 119.78 30.255C119.494 29.6617 119.352 28.9822 119.352 28.2166C119.352 27.4411 119.498 26.7566 119.789 26.1634C120.081 25.5668 120.492 25.1011 121.022 24.7663C121.553 24.4316 122.177 24.2642 122.897 24.2642C123.477 24.2642 123.994 24.3719 124.448 24.5874C124.902 24.7995 125.268 25.0978 125.547 25.4822C125.828 25.8667 125.996 26.3158 126.049 26.8295H124.602C124.522 26.4716 124.34 26.1634 124.055 25.9048C123.773 25.6463 123.396 25.517 122.922 25.517C122.507 25.517 122.144 25.6264 121.833 25.8452C121.525 26.0606 121.284 26.3688 121.112 26.7699C120.94 27.1676 120.853 27.6383 120.853 28.1818C120.853 28.7386 120.938 29.2192 121.107 29.6236C121.276 30.0279 121.515 30.3411 121.823 30.5632C122.134 30.7853 122.501 30.8963 122.922 30.8963C123.203 30.8963 123.458 30.8449 123.687 30.7422C123.919 30.6361 124.113 30.4853 124.269 30.2898C124.428 30.0942 124.539 29.8589 124.602 29.5838H126.049C125.996 30.0777 125.835 30.5185 125.566 30.9062C125.298 31.294 124.938 31.599 124.488 31.821C124.04 32.0431 123.515 32.1541 122.912 32.1541ZM127.498 32V24.3636H128.935V25.5767H129.015C129.154 25.1657 129.399 24.8426 129.75 24.6072C130.105 24.3686 130.506 24.2493 130.954 24.2493C131.046 24.2493 131.156 24.2526 131.282 24.2592C131.411 24.2659 131.512 24.2741 131.585 24.2841V25.706C131.525 25.6894 131.419 25.6712 131.267 25.6513C131.114 25.6281 130.962 25.6165 130.809 25.6165C130.458 25.6165 130.145 25.6911 129.87 25.8402C129.598 25.986 129.383 26.1899 129.223 26.4517C129.064 26.7102 128.985 27.0052 128.985 27.3366V32H127.498ZM135.749 32.1541C134.997 32.1541 134.349 31.9934 133.805 31.6719C133.265 31.3471 132.847 30.8913 132.552 30.3047C132.261 29.7147 132.115 29.0237 132.115 28.2315C132.115 27.4493 132.261 26.7599 132.552 26.1634C132.847 25.5668 133.258 25.1011 133.785 24.7663C134.316 24.4316 134.935 24.2642 135.645 24.2642C136.076 24.2642 136.493 24.3355 136.898 24.478C137.302 24.6205 137.665 24.8442 137.986 25.1491C138.308 25.4541 138.561 25.8501 138.747 26.3374C138.933 26.8213 139.025 27.4096 139.025 28.1023V28.6293H132.955V27.5156H137.569C137.569 27.1245 137.489 26.7782 137.33 26.4766C137.171 26.1716 136.947 25.9313 136.659 25.7557C136.374 25.58 136.039 25.4922 135.655 25.4922C135.237 25.4922 134.872 25.5949 134.561 25.8004C134.253 26.0026 134.014 26.2678 133.845 26.5959C133.679 26.9207 133.596 27.2737 133.596 27.6548V28.5249C133.596 29.0353 133.686 29.4695 133.865 29.8274C134.047 30.1854 134.301 30.4588 134.626 30.6477C134.95 30.8333 135.33 30.9261 135.764 30.9261C136.046 30.9261 136.303 30.8864 136.535 30.8068C136.767 30.724 136.967 30.6013 137.136 30.4389C137.305 30.2765 137.435 30.076 137.524 29.8374L138.931 30.0909C138.818 30.5052 138.616 30.8681 138.324 31.1797C138.036 31.4879 137.673 31.7282 137.236 31.9006C136.801 32.0696 136.306 32.1541 135.749 32.1541ZM134.974 23.3445L136.137 21.0526H137.703L136.162 23.3445H134.974ZM143.393 32.1491C142.777 32.1491 142.227 31.9917 141.743 31.6768C141.262 31.3587 140.884 30.9062 140.609 30.3196C140.338 29.7296 140.202 29.022 140.202 28.1967C140.202 27.3714 140.339 26.6655 140.614 26.0788C140.893 25.4922 141.274 25.0431 141.758 24.7315C142.242 24.42 142.79 24.2642 143.403 24.2642C143.877 24.2642 144.258 24.3438 144.547 24.5028C144.838 24.6586 145.064 24.8409 145.223 25.0497C145.385 25.2585 145.511 25.4425 145.601 25.6016H145.69V21.8182H147.177V32H145.725V30.8118H145.601C145.511 30.9742 145.382 31.1598 145.213 31.3686C145.047 31.5774 144.819 31.7597 144.527 31.9155C144.235 32.0713 143.857 32.1491 143.393 32.1491ZM143.722 30.8814C144.149 30.8814 144.51 30.7687 144.805 30.5433C145.104 30.3146 145.329 29.9981 145.481 29.5938C145.637 29.1894 145.715 28.7187 145.715 28.1818C145.715 27.6515 145.639 27.1875 145.486 26.7898C145.334 26.392 145.11 26.0821 144.815 25.8601C144.52 25.638 144.156 25.527 143.722 25.527C143.274 25.527 142.901 25.643 142.603 25.875C142.305 26.107 142.079 26.4235 141.927 26.8246C141.778 27.2256 141.703 27.678 141.703 28.1818C141.703 28.6922 141.779 29.1513 141.932 29.5589C142.084 29.9666 142.31 30.2898 142.608 30.5284C142.91 30.7637 143.281 30.8814 143.722 30.8814ZM149.158 32V24.3636H150.645V32H149.158ZM149.909 23.1854C149.651 23.1854 149.429 23.0992 149.243 22.9268C149.061 22.7512 148.97 22.5424 148.97 22.3004C148.97 22.0552 149.061 21.8464 149.243 21.674C149.429 21.4983 149.651 21.4105 149.909 21.4105C150.168 21.4105 150.388 21.4983 150.57 21.674C150.756 21.8464 150.849 22.0552 150.849 22.3004C150.849 22.5424 150.756 22.7512 150.57 22.9268C150.388 23.0992 150.168 23.1854 149.909 23.1854ZM156.069 24.3636V25.5568H151.898V24.3636H156.069ZM153.017 22.5341H154.503V29.7578C154.503 30.0462 154.546 30.2633 154.633 30.4091C154.719 30.5516 154.83 30.6494 154.966 30.7024C155.105 30.7521 155.256 30.777 155.418 30.777C155.537 30.777 155.642 30.7687 155.731 30.7521C155.821 30.7356 155.89 30.7223 155.94 30.7124L156.209 31.9403C156.122 31.9735 156 32.0066 155.841 32.0398C155.682 32.0762 155.483 32.0961 155.244 32.0994C154.853 32.1061 154.488 32.0365 154.15 31.8906C153.812 31.7448 153.539 31.5194 153.33 31.2145C153.121 30.9096 153.017 30.5268 153.017 30.0661V22.5341ZM160.708 32.1541C159.992 32.1541 159.368 31.9901 158.834 31.6619C158.3 31.3338 157.886 30.8748 157.591 30.2848C157.296 29.6948 157.149 29.0054 157.149 28.2166C157.149 27.4245 157.296 26.7318 157.591 26.1385C157.886 25.5452 158.3 25.0845 158.834 24.7564C159.368 24.4283 159.992 24.2642 160.708 24.2642C161.424 24.2642 162.049 24.4283 162.583 24.7564C163.116 25.0845 163.531 25.5452 163.826 26.1385C164.121 26.7318 164.268 27.4245 164.268 28.2166C164.268 29.0054 164.121 29.6948 163.826 30.2848C163.531 30.8748 163.116 31.3338 162.583 31.6619C162.049 31.9901 161.424 32.1541 160.708 32.1541ZM160.713 30.9062C161.177 30.9062 161.562 30.7836 161.867 30.5384C162.172 30.2931 162.397 29.9666 162.543 29.5589C162.692 29.1513 162.767 28.7022 162.767 28.2116C162.767 27.7244 162.692 27.277 162.543 26.8693C162.397 26.4583 162.172 26.1286 161.867 25.88C161.562 25.6314 161.177 25.5071 160.713 25.5071C160.246 25.5071 159.858 25.6314 159.55 25.88C159.245 26.1286 159.018 26.4583 158.869 26.8693C158.723 27.277 158.65 27.7244 158.65 28.2116C158.65 28.7022 158.723 29.1513 158.869 29.5589C159.018 29.9666 159.245 30.2931 159.55 30.5384C159.858 30.7836 160.246 30.9062 160.713 30.9062Z" fill="#00051B"/>
</svg>
