<svg width="307" height="60" viewBox="0 0 307 60" fill="none" xmlns="http://www.w3.org/2000/svg">
<rect width="307" height="60" rx="12" fill="#ECECEC"/>
<path d="M82.6719 27.4929C82.6188 27.0223 82.4001 26.6577 82.0156 26.3991C81.6312 26.1373 81.1473 26.0064 80.5639 26.0064C80.1463 26.0064 79.785 26.0727 79.4801 26.2053C79.1752 26.3345 78.9382 26.5135 78.7692 26.7422C78.6035 26.9676 78.5206 27.2244 78.5206 27.5128C78.5206 27.7547 78.5769 27.9635 78.6896 28.1392C78.8056 28.3149 78.9564 28.4624 79.142 28.5817C79.331 28.6977 79.5331 28.7955 79.7486 28.875C79.964 28.9512 80.1712 29.0142 80.37 29.0639L81.3643 29.3224C81.6892 29.402 82.0223 29.5097 82.3636 29.6456C82.705 29.7815 83.0215 29.9605 83.3132 30.1825C83.6049 30.4046 83.8402 30.6797 84.0192 31.0078C84.2015 31.3359 84.2926 31.7287 84.2926 32.1861C84.2926 32.7628 84.1435 33.2749 83.8452 33.7223C83.5502 34.1697 83.121 34.5227 82.5575 34.7812C81.9974 35.0398 81.3196 35.169 80.5241 35.169C79.7618 35.169 79.1023 35.0481 78.5455 34.8061C77.9886 34.5642 77.5528 34.2211 77.2379 33.777C76.9231 33.3295 76.7491 32.7992 76.7159 32.1861H78.2571C78.2869 32.554 78.4063 32.8606 78.6151 33.1058C78.8272 33.3478 79.0973 33.5284 79.4254 33.6477C79.7569 33.7637 80.1198 33.8217 80.5142 33.8217C80.9484 33.8217 81.3345 33.7538 81.6726 33.6179C82.014 33.4787 82.2824 33.2865 82.478 33.0412C82.6735 32.7926 82.7713 32.5026 82.7713 32.1712C82.7713 31.8696 82.6851 31.6226 82.5128 31.4304C82.3438 31.2382 82.1134 31.0791 81.8217 30.9531C81.5334 30.8272 81.2069 30.7161 80.8423 30.62L79.6392 30.2919C78.8239 30.0698 78.1776 29.7434 77.7003 29.3125C77.2263 28.8816 76.9893 28.3116 76.9893 27.6023C76.9893 27.0156 77.1484 26.5036 77.4666 26.0661C77.7848 25.6286 78.2157 25.2888 78.7592 25.0469C79.3028 24.8016 79.916 24.679 80.5987 24.679C81.2881 24.679 81.8963 24.8 82.4233 25.0419C82.9536 25.2839 83.3712 25.617 83.6761 26.0412C83.9811 26.4621 84.1402 26.946 84.1534 27.4929H82.6719ZM89.1602 35.1541C88.4079 35.1541 87.7599 34.9934 87.2164 34.6719C86.6761 34.3471 86.2585 33.8913 85.9635 33.3047C85.6718 32.7147 85.526 32.0237 85.526 31.2315C85.526 30.4493 85.6718 29.7599 85.9635 29.1634C86.2585 28.5668 86.6695 28.1011 87.1965 27.7663C87.7268 27.4316 88.3466 27.2642 89.0558 27.2642C89.4867 27.2642 89.9043 27.3355 90.3087 27.478C90.713 27.6205 91.076 27.8442 91.3975 28.1491C91.719 28.4541 91.9725 28.8501 92.1581 29.3374C92.3437 29.8213 92.4365 30.4096 92.4365 31.1023V31.6293H86.3662V30.5156H90.9799C90.9799 30.1245 90.9003 29.7782 90.7412 29.4766C90.5821 29.1716 90.3584 28.9313 90.07 28.7557C89.785 28.58 89.4503 28.4922 89.0658 28.4922C88.6482 28.4922 88.2836 28.5949 87.972 28.8004C87.6638 29.0026 87.4252 29.2678 87.2561 29.5959C87.0904 29.9207 87.0075 30.2737 87.0075 30.6548V31.5249C87.0075 32.0353 87.097 32.4695 87.276 32.8274C87.4583 33.1854 87.7119 33.4588 88.0367 33.6477C88.3615 33.8333 88.741 33.9261 89.1752 33.9261C89.4569 33.9261 89.7138 33.8864 89.9458 33.8068C90.1778 33.724 90.3783 33.6013 90.5473 33.4389C90.7164 33.2765 90.8456 33.076 90.9351 32.8374L92.3421 33.0909C92.2294 33.5052 92.0272 33.8681 91.7355 34.1797C91.4472 34.4879 91.0843 34.7282 90.6468 34.9006C90.2126 35.0696 89.7171 35.1541 89.1602 35.1541ZM95.4324 24.8182V35H93.9459V24.8182H95.4324ZM100.583 35.1541C99.831 35.1541 99.183 34.9934 98.6395 34.6719C98.0992 34.3471 97.6816 33.8913 97.3866 33.3047C97.095 32.7147 96.9491 32.0237 96.9491 31.2315C96.9491 30.4493 97.095 29.7599 97.3866 29.1634C97.6816 28.5668 98.0926 28.1011 98.6196 27.7663C99.1499 27.4316 99.7697 27.2642 100.479 27.2642C100.91 27.2642 101.327 27.3355 101.732 27.478C102.136 27.6205 102.499 27.8442 102.821 28.1491C103.142 28.4541 103.396 28.8501 103.581 29.3374C103.767 29.8213 103.86 30.4096 103.86 31.1023V31.6293H97.7893V30.5156H102.403C102.403 30.1245 102.323 29.7782 102.164 29.4766C102.005 29.1716 101.782 28.9313 101.493 28.7557C101.208 28.58 100.873 28.4922 100.489 28.4922C100.071 28.4922 99.7067 28.5949 99.3952 28.8004C99.0869 29.0026 98.8483 29.2678 98.6793 29.5959C98.5135 29.9207 98.4307 30.2737 98.4307 30.6548V31.5249C98.4307 32.0353 98.5202 32.4695 98.6991 32.8274C98.8814 33.1854 99.135 33.4588 99.4598 33.6477C99.7846 33.8333 100.164 33.9261 100.598 33.9261C100.88 33.9261 101.137 33.8864 101.369 33.8068C101.601 33.724 101.801 33.6013 101.97 33.4389C102.139 33.2765 102.269 33.076 102.358 32.8374L103.765 33.0909C103.653 33.5052 103.45 33.8681 103.159 34.1797C102.87 34.4879 102.507 34.7282 102.07 34.9006C101.636 35.0696 101.14 35.1541 100.583 35.1541ZM108.586 35.1541C107.846 35.1541 107.21 34.9867 106.677 34.652C106.146 34.3139 105.739 33.8482 105.453 33.255C105.168 32.6617 105.026 31.9822 105.026 31.2166C105.026 30.4411 105.172 29.7566 105.463 29.1634C105.755 28.5668 106.166 28.1011 106.696 27.7663C107.227 27.4316 107.851 27.2642 108.571 27.2642C109.151 27.2642 109.668 27.3719 110.122 27.5874C110.576 27.7995 110.942 28.0978 111.221 28.4822C111.502 28.8667 111.67 29.3158 111.723 29.8295H110.276C110.196 29.4716 110.014 29.1634 109.729 28.9048C109.447 28.6463 109.069 28.517 108.596 28.517C108.181 28.517 107.818 28.6264 107.507 28.8452C107.199 29.0606 106.958 29.3688 106.786 29.7699C106.614 30.1676 106.527 30.6383 106.527 31.1818C106.527 31.7386 106.612 32.2192 106.781 32.6236C106.95 33.0279 107.189 33.3411 107.497 33.5632C107.808 33.7853 108.175 33.8963 108.596 33.8963C108.877 33.8963 109.132 33.8449 109.361 33.7422C109.593 33.6361 109.787 33.4853 109.943 33.2898C110.102 33.0942 110.213 32.8589 110.276 32.5838H111.723C111.67 33.0777 111.509 33.5185 111.24 33.9062C110.972 34.294 110.612 34.599 110.162 34.821C109.714 35.0431 109.189 35.1541 108.586 35.1541ZM113.172 35V27.3636H114.659V35H113.172ZM113.923 26.1854C113.665 26.1854 113.442 26.0992 113.257 25.9268C113.075 25.7512 112.983 25.5424 112.983 25.3004C112.983 25.0552 113.075 24.8464 113.257 24.674C113.442 24.4983 113.665 24.4105 113.923 24.4105C114.182 24.4105 114.402 24.4983 114.584 24.674C114.77 24.8464 114.863 25.0552 114.863 25.3004C114.863 25.5424 114.77 25.7512 114.584 25.9268C114.402 26.0992 114.182 26.1854 113.923 26.1854ZM119.735 35.1541C119.019 35.1541 118.395 34.9901 117.861 34.6619C117.327 34.3338 116.913 33.8748 116.618 33.2848C116.323 32.6948 116.176 32.0054 116.176 31.2166C116.176 30.4245 116.323 29.7318 116.618 29.1385C116.913 28.5452 117.327 28.0845 117.861 27.7564C118.395 27.4283 119.019 27.2642 119.735 27.2642C120.451 27.2642 121.076 27.4283 121.61 27.7564C122.143 28.0845 122.557 28.5452 122.852 29.1385C123.147 29.7318 123.295 30.4245 123.295 31.2166C123.295 32.0054 123.147 32.6948 122.852 33.2848C122.557 33.8748 122.143 34.3338 121.61 34.6619C121.076 34.9901 120.451 35.1541 119.735 35.1541ZM119.74 33.9062C120.204 33.9062 120.589 33.7836 120.894 33.5384C121.199 33.2931 121.424 32.9666 121.57 32.5589C121.719 32.1513 121.794 31.7022 121.794 31.2116C121.794 30.7244 121.719 30.277 121.57 29.8693C121.424 29.4583 121.199 29.1286 120.894 28.88C120.589 28.6314 120.204 28.5071 119.74 28.5071C119.273 28.5071 118.885 28.6314 118.577 28.88C118.272 29.1286 118.045 29.4583 117.896 29.8693C117.75 30.277 117.677 30.7244 117.677 31.2116C117.677 31.7022 117.75 32.1513 117.896 32.5589C118.045 32.9666 118.272 33.2931 118.577 33.5384C118.885 33.7836 119.273 33.9062 119.74 33.9062ZM126.301 30.4659V35H124.814V27.3636H126.241V28.6065H126.336C126.511 28.2022 126.786 27.8774 127.161 27.6321C127.539 27.3868 128.014 27.2642 128.588 27.2642C129.108 27.2642 129.564 27.3736 129.955 27.5923C130.346 27.8078 130.649 28.1293 130.865 28.5568C131.08 28.9844 131.188 29.513 131.188 30.1428V35H129.701V30.3217C129.701 29.7682 129.557 29.3357 129.269 29.0241C128.98 28.7093 128.584 28.5518 128.081 28.5518C127.736 28.5518 127.429 28.6264 127.161 28.7756C126.896 28.9247 126.685 29.1435 126.529 29.4318C126.377 29.7169 126.301 30.0616 126.301 30.4659ZM136.333 35.1541C135.58 35.1541 134.932 34.9934 134.389 34.6719C133.848 34.3471 133.431 33.8913 133.136 33.3047C132.844 32.7147 132.698 32.0237 132.698 31.2315C132.698 30.4493 132.844 29.7599 133.136 29.1634C133.431 28.5668 133.842 28.1011 134.369 27.7663C134.899 27.4316 135.519 27.2642 136.228 27.2642C136.659 27.2642 137.077 27.3355 137.481 27.478C137.885 27.6205 138.248 27.8442 138.57 28.1491C138.891 28.4541 139.145 28.8501 139.33 29.3374C139.516 29.8213 139.609 30.4096 139.609 31.1023V31.6293H133.539V30.5156H138.152C138.152 30.1245 138.073 29.7782 137.914 29.4766C137.754 29.1716 137.531 28.9313 137.242 28.7557C136.957 28.58 136.623 28.4922 136.238 28.4922C135.821 28.4922 135.456 28.5949 135.144 28.8004C134.836 29.0026 134.598 29.2678 134.428 29.5959C134.263 29.9207 134.18 30.2737 134.18 30.6548V31.5249C134.18 32.0353 134.269 32.4695 134.448 32.8274C134.631 33.1854 134.884 33.4588 135.209 33.6477C135.534 33.8333 135.913 33.9261 136.348 33.9261C136.629 33.9261 136.886 33.8864 137.118 33.8068C137.35 33.724 137.551 33.6013 137.72 33.4389C137.889 33.2765 138.018 33.076 138.107 32.8374L139.514 33.0909C139.402 33.5052 139.2 33.8681 138.908 34.1797C138.62 34.4879 138.257 34.7282 137.819 34.9006C137.385 35.0696 136.889 35.1541 136.333 35.1541ZM146.906 35.169C146.422 35.169 145.984 35.0795 145.593 34.9006C145.202 34.7183 144.892 34.4548 144.663 34.1101C144.438 33.7654 144.325 33.3428 144.325 32.8423C144.325 32.4115 144.408 32.0568 144.574 31.7784C144.74 31.5 144.963 31.2796 145.245 31.1172C145.527 30.9548 145.842 30.8321 146.19 30.7493C146.538 30.6664 146.892 30.6035 147.254 30.5604C147.711 30.5073 148.082 30.4643 148.367 30.4311C148.652 30.3946 148.859 30.3366 148.989 30.2571C149.118 30.1776 149.183 30.0483 149.183 29.8693V29.8345C149.183 29.4003 149.06 29.0639 148.815 28.8253C148.573 28.5866 148.211 28.4673 147.731 28.4673C147.23 28.4673 146.836 28.5784 146.548 28.8004C146.263 29.0192 146.065 29.2628 145.956 29.5312L144.559 29.2131C144.725 28.7491 144.967 28.3745 145.285 28.0895C145.606 27.8011 145.976 27.5923 146.393 27.4631C146.811 27.3305 147.25 27.2642 147.711 27.2642C148.016 27.2642 148.339 27.3007 148.68 27.3736C149.025 27.4432 149.347 27.5724 149.645 27.7614C149.947 27.9503 150.193 28.2204 150.386 28.5717C150.578 28.9197 150.674 29.3722 150.674 29.929V35H149.222V33.956H149.163C149.067 34.1482 148.922 34.3371 148.73 34.5227C148.538 34.7083 148.291 34.8625 147.989 34.9851C147.688 35.1077 147.327 35.169 146.906 35.169ZM147.229 33.9759C147.64 33.9759 147.991 33.8946 148.283 33.7322C148.578 33.5698 148.801 33.3577 148.954 33.0959C149.11 32.8307 149.188 32.5473 149.188 32.2457V31.2614C149.135 31.3144 149.032 31.3641 148.879 31.4105C148.73 31.4536 148.559 31.4917 148.367 31.5249C148.175 31.5547 147.988 31.5829 147.805 31.6094C147.623 31.6326 147.471 31.6525 147.348 31.669C147.06 31.7055 146.796 31.7668 146.558 31.853C146.322 31.9392 146.133 32.0634 145.991 32.2259C145.852 32.3849 145.782 32.5971 145.782 32.8622C145.782 33.2301 145.918 33.5085 146.19 33.6974C146.461 33.883 146.808 33.9759 147.229 33.9759ZM159.296 35.1541C158.557 35.1541 157.92 34.9867 157.387 34.652C156.856 34.3139 156.449 33.8482 156.164 33.255C155.879 32.6617 155.736 31.9822 155.736 31.2166C155.736 30.4411 155.882 29.7566 156.174 29.1634C156.465 28.5668 156.876 28.1011 157.406 27.7663C157.937 27.4316 158.562 27.2642 159.281 27.2642C159.861 27.2642 160.378 27.3719 160.832 27.5874C161.286 27.7995 161.652 28.0978 161.931 28.4822C162.212 28.8667 162.38 29.3158 162.433 29.8295H160.986C160.906 29.4716 160.724 29.1634 160.439 28.9048C160.157 28.6463 159.78 28.517 159.306 28.517C158.891 28.517 158.528 28.6264 158.217 28.8452C157.909 29.0606 157.668 29.3688 157.496 29.7699C157.324 30.1676 157.237 30.6383 157.237 31.1818C157.237 31.7386 157.322 32.2192 157.491 32.6236C157.66 33.0279 157.899 33.3411 158.207 33.5632C158.518 33.7853 158.885 33.8963 159.306 33.8963C159.587 33.8963 159.843 33.8449 160.071 33.7422C160.303 33.6361 160.497 33.4853 160.653 33.2898C160.812 33.0942 160.923 32.8589 160.986 32.5838H162.433C162.38 33.0777 162.219 33.5185 161.951 33.9062C161.682 34.294 161.322 34.599 160.872 34.821C160.424 35.0431 159.899 35.1541 159.296 35.1541ZM167.099 35.1541C166.383 35.1541 165.758 34.9901 165.225 34.6619C164.691 34.3338 164.277 33.8748 163.982 33.2848C163.687 32.6948 163.539 32.0054 163.539 31.2166C163.539 30.4245 163.687 29.7318 163.982 29.1385C164.277 28.5452 164.691 28.0845 165.225 27.7564C165.758 27.4283 166.383 27.2642 167.099 27.2642C167.815 27.2642 168.44 27.4283 168.973 27.7564C169.507 28.0845 169.921 28.5452 170.216 29.1385C170.511 29.7318 170.659 30.4245 170.659 31.2166C170.659 32.0054 170.511 32.6948 170.216 33.2848C169.921 33.8748 169.507 34.3338 168.973 34.6619C168.44 34.9901 167.815 35.1541 167.099 35.1541ZM167.104 33.9062C167.568 33.9062 167.952 33.7836 168.257 33.5384C168.562 33.2931 168.788 32.9666 168.934 32.5589C169.083 32.1513 169.157 31.7022 169.157 31.2116C169.157 30.7244 169.083 30.277 168.934 29.8693C168.788 29.4583 168.562 29.1286 168.257 28.88C167.952 28.6314 167.568 28.5071 167.104 28.5071C166.637 28.5071 166.249 28.6314 165.941 28.88C165.636 29.1286 165.409 29.4583 165.26 29.8693C165.114 30.277 165.041 30.7244 165.041 31.2116C165.041 31.7022 165.114 32.1513 165.26 32.5589C165.409 32.9666 165.636 33.2931 165.941 33.5384C166.249 33.7836 166.637 33.9062 167.104 33.9062ZM172.178 35V27.3636H173.615V28.5767H173.694C173.834 28.1657 174.079 27.8426 174.43 27.6072C174.785 27.3686 175.186 27.2493 175.633 27.2493C175.726 27.2493 175.835 27.2526 175.961 27.2592C176.091 27.2659 176.192 27.2741 176.265 27.2841V28.706C176.205 28.6894 176.099 28.6712 175.946 28.6513C175.794 28.6281 175.642 28.6165 175.489 28.6165C175.138 28.6165 174.825 28.6911 174.549 28.8402C174.278 28.986 174.062 29.1899 173.903 29.4517C173.744 29.7102 173.664 30.0052 173.664 30.3366V35H172.178Z" fill="#00051B"/>
<mask id="mask0_384_2448" style="mask-type:alpha" maskUnits="userSpaceOnUse" x="187" y="18" width="24" height="24">
<rect x="187" y="18" width="24" height="24" fill="#D9D9D9"/>
</mask>
<g mask="url(#mask0_384_2448)">
<path d="M195.65 38.5L189.5 32.35C189.333 32.1833 189.208 32 189.125 31.8C189.042 31.6 189 31.3917 189 31.175C189 30.9583 189.042 30.75 189.125 30.55C189.208 30.35 189.333 30.1667 189.5 30L195.25 24.275L192.6 21.625L194.15 20L204.15 30C204.317 30.1667 204.438 30.35 204.512 30.55C204.587 30.75 204.625 30.9583 204.625 31.175C204.625 31.3917 204.587 31.6 204.512 31.8C204.438 32 204.317 32.1833 204.15 32.35L198 38.5C197.833 38.6667 197.65 38.7917 197.45 38.875C197.25 38.9583 197.042 39 196.825 39C196.608 39 196.4 38.9583 196.2 38.875C196 38.7917 195.817 38.6667 195.65 38.5ZM196.825 25.85L191.475 31.2H202.175L196.825 25.85ZM206.8 39C206.2 39 205.692 38.7875 205.275 38.3625C204.858 37.9375 204.65 37.4167 204.65 36.8C204.65 36.35 204.762 35.925 204.988 35.525C205.212 35.125 205.467 34.7333 205.75 34.35L206.8 33L207.9 34.35C208.167 34.7333 208.417 35.125 208.65 35.525C208.883 35.925 209 36.35 209 36.8C209 37.4167 208.783 37.9375 208.35 38.3625C207.917 38.7875 207.4 39 206.8 39Z" fill="#00051B"/>
</g>
</svg>
