<svg width="48" height="48" viewBox="0 0 48 48" fill="none" xmlns="http://www.w3.org/2000/svg">
<rect width="48" height="48" rx="24" fill="#FFE8E6"/>
<mask id="mask0_462_1717" style="mask-type:alpha" maskUnits="userSpaceOnUse" x="11" y="11" width="26" height="26">
<rect x="11.478" y="11.478" width="25.0435" height="25.0435" fill="#D9D9D9"/>
</mask>
<g mask="url(#mask0_462_1717)">
<path d="M31.5651 28.6434L29.9998 27.026C30.6955 26.8347 31.2607 26.4651 31.6955 25.9173C32.1303 25.3695 32.3477 24.7303 32.3477 23.9999C32.3477 23.1303 32.0433 22.3912 31.4346 21.7825C30.8259 21.1738 30.0868 20.8695 29.2172 20.8695H25.0433V18.7825H29.2172C30.6607 18.7825 31.8911 19.2912 32.9085 20.3086C33.9259 21.326 34.4346 22.5564 34.4346 23.9999C34.4346 24.9912 34.1781 25.9043 33.6651 26.739C33.152 27.5738 32.452 28.2086 31.5651 28.6434ZM28.0172 25.0434L25.9303 22.9564H28.1737V25.0434H28.0172ZM32.139 35.0608L12.939 15.8608L14.3998 14.3999L33.5998 33.5999L32.139 35.0608ZM22.9564 29.2173H18.7824C17.339 29.2173 16.1085 28.7086 15.0911 27.6912C14.0737 26.6738 13.5651 25.4434 13.5651 23.9999C13.5651 22.7999 13.9303 21.7303 14.6607 20.7912C15.3911 19.8521 16.3303 19.2347 17.4781 18.939L19.4085 20.8695H18.7824C17.9129 20.8695 17.1737 21.1738 16.5651 21.7825C15.9564 22.3912 15.652 23.1303 15.652 23.9999C15.652 24.8695 15.9564 25.6086 16.5651 26.2173C17.1737 26.826 17.9129 27.1303 18.7824 27.1303H22.9564V29.2173ZM19.8259 25.0434V22.9564H21.5216L23.5824 25.0434H19.8259Z" fill="#E24A3F"/>
</g>
</svg>
