<svg width="48" height="48" viewBox="0 0 48 48" fill="none" xmlns="http://www.w3.org/2000/svg">
<rect width="48" height="48" rx="24" fill="#ECECEC"/>
<mask id="mask0_384_1933" style="mask-type:alpha" maskUnits="userSpaceOnUse" x="11" y="11" width="26" height="26">
<rect x="11.478" y="11.4785" width="25.0435" height="25.0435" fill="#D9D9D9"/>
</mask>
<g mask="url(#mask0_384_1933)">
<path d="M22.9562 29.218H18.7823C17.3389 29.218 16.1084 28.7093 15.091 27.6919C14.0736 26.6745 13.5649 25.4441 13.5649 24.0006C13.5649 22.5571 14.0736 21.3267 15.091 20.3093C16.1084 19.2919 17.3389 18.7832 18.7823 18.7832H22.9562V20.8702H18.7823C17.9128 20.8702 17.1736 21.1745 16.5649 21.7832C15.9562 22.3919 15.6519 23.131 15.6519 24.0006C15.6519 24.8702 15.9562 25.6093 16.5649 26.218C17.1736 26.8267 17.9128 27.131 18.7823 27.131H22.9562V29.218ZM19.8258 25.0441V22.9571H28.1736V25.0441H19.8258ZM25.0432 29.218V27.131H29.2171C30.0867 27.131 30.8258 26.8267 31.4345 26.218C32.0432 25.6093 32.3475 24.8702 32.3475 24.0006C32.3475 23.131 32.0432 22.3919 31.4345 21.7832C30.8258 21.1745 30.0867 20.8702 29.2171 20.8702H25.0432V18.7832H29.2171C30.6606 18.7832 31.891 19.2919 32.9084 20.3093C33.9258 21.3267 34.4345 22.5571 34.4345 24.0006C34.4345 25.4441 33.9258 26.6745 32.9084 27.6919C31.891 28.7093 30.6606 29.218 29.2171 29.218H25.0432Z" fill="#00051B"/>
</g>
</svg>
