<svg width="97" height="38" viewBox="0 0 97 38" fill="none" xmlns="http://www.w3.org/2000/svg">
<path d="M0 19C0 8.50659 8.50659 0 19 0H78C88.4934 0 97 8.50659 97 19C97 29.4934 88.4934 38 78 38H19C8.50659 38 0 29.4934 0 19Z" fill="#FFE8E6"/>
<mask id="mask0_384_2121" style="mask-type:alpha" maskUnits="userSpaceOnUse" x="15" y="10" width="18" height="18">
<rect x="15" y="10" width="18" height="18" fill="#D9D9D9"/>
</mask>
<g mask="url(#mask0_384_2121)">
<path d="M29.4373 22.3371L28.3123 21.1746C28.8123 21.0371 29.2186 20.7715 29.5311 20.3777C29.8436 19.984 29.9998 19.5246 29.9998 18.9996C29.9998 18.3746 29.7811 17.8434 29.3436 17.4059C28.9061 16.9684 28.3748 16.7496 27.7498 16.7496H24.7498V15.2496H27.7498C28.7873 15.2496 29.6717 15.6152 30.4029 16.3465C31.1342 17.0777 31.4998 17.9621 31.4998 18.9996C31.4998 19.7121 31.3154 20.3684 30.9467 20.9684C30.5779 21.5684 30.0748 22.0246 29.4373 22.3371ZM26.8873 19.7496L25.3873 18.2496H26.9998V19.7496H26.8873ZM29.8498 26.9496L16.0498 13.1496L17.0998 12.0996L30.8998 25.8996L29.8498 26.9496ZM23.2498 22.7496H20.2498C19.2123 22.7496 18.3279 22.384 17.5967 21.6527C16.8654 20.9215 16.4998 20.0371 16.4998 18.9996C16.4998 18.1371 16.7623 17.3684 17.2873 16.6934C17.8123 16.0184 18.4873 15.5746 19.3123 15.3621L20.6998 16.7496H20.2498C19.6248 16.7496 19.0936 16.9684 18.6561 17.4059C18.2186 17.8434 17.9998 18.3746 17.9998 18.9996C17.9998 19.6246 18.2186 20.1559 18.6561 20.5934C19.0936 21.0309 19.6248 21.2496 20.2498 21.2496H23.2498V22.7496ZM20.9998 19.7496V18.2496H22.2186L23.6998 19.7496H20.9998Z" fill="#E72417"/>
</g>
<path d="M45.2756 14.7727V23.5H43.9588V14.7727H45.2756ZM48.3651 19.6136V23.5H47.0909V16.9545H48.3139V18.0199H48.3949C48.5455 17.6733 48.7813 17.3949 49.1023 17.1847C49.4261 16.9744 49.8338 16.8693 50.3253 16.8693C50.7713 16.8693 51.1619 16.9631 51.4972 17.1506C51.8324 17.3352 52.0923 17.6108 52.277 17.9773C52.4616 18.3437 52.554 18.7969 52.554 19.3366V23.5H51.2798V19.4901C51.2798 19.0156 51.1563 18.6449 50.9091 18.3778C50.6619 18.108 50.3224 17.973 49.8906 17.973C49.5952 17.973 49.3324 18.0369 49.1023 18.1648C48.875 18.2926 48.6946 18.4801 48.5611 18.7273C48.4304 18.9716 48.3651 19.267 48.3651 19.6136ZM56.1676 23.6449C55.7528 23.6449 55.3778 23.5682 55.0426 23.4148C54.7074 23.2585 54.4418 23.0327 54.2457 22.7372C54.0526 22.4418 53.956 22.0795 53.956 21.6506C53.956 21.2812 54.027 20.9773 54.169 20.7386C54.3111 20.5 54.5028 20.3111 54.7443 20.1719C54.9858 20.0327 55.2557 19.9276 55.554 19.8565C55.8523 19.7855 56.1563 19.7315 56.4659 19.6946C56.858 19.6491 57.1761 19.6122 57.4205 19.5838C57.6648 19.5526 57.8423 19.5028 57.9531 19.4347C58.0639 19.3665 58.1193 19.2557 58.1193 19.1023V19.0724C58.1193 18.7003 58.0142 18.4119 57.804 18.2074C57.5966 18.0028 57.2869 17.9006 56.875 17.9006C56.446 17.9006 56.108 17.9957 55.8608 18.1861C55.6165 18.3736 55.4474 18.5824 55.3537 18.8125L54.1562 18.5398C54.2983 18.142 54.5057 17.821 54.7784 17.5767C55.054 17.3295 55.3707 17.1506 55.7287 17.0398C56.0866 16.9261 56.4631 16.8693 56.858 16.8693C57.1193 16.8693 57.3963 16.9006 57.6889 16.9631C57.9844 17.0227 58.2599 17.1335 58.5156 17.2955C58.7741 17.4574 58.9858 17.6889 59.1506 17.9901C59.3153 18.2884 59.3977 18.6761 59.3977 19.1534V23.5H58.1534V22.6051H58.1023C58.0199 22.7699 57.8963 22.9318 57.7315 23.0909C57.5668 23.25 57.3551 23.3821 57.0966 23.4872C56.8381 23.5923 56.5284 23.6449 56.1676 23.6449ZM56.4446 22.6222C56.7969 22.6222 57.098 22.5526 57.348 22.4134C57.6009 22.2741 57.7926 22.0923 57.9233 21.8679C58.0568 21.6406 58.1236 21.3977 58.1236 21.1392V20.2955C58.0781 20.3409 57.9901 20.3835 57.8594 20.4233C57.7315 20.4602 57.5852 20.4929 57.4205 20.5213C57.2557 20.5469 57.0952 20.571 56.9389 20.5938C56.7827 20.6136 56.652 20.6307 56.5469 20.6449C56.2997 20.6761 56.0739 20.7287 55.8693 20.8026C55.6676 20.8764 55.5057 20.983 55.3835 21.1222C55.2642 21.2585 55.2045 21.4403 55.2045 21.6676C55.2045 21.983 55.321 22.2216 55.554 22.3835C55.7869 22.5426 56.0838 22.6222 56.4446 22.6222ZM64.1502 16.9545V17.9773H60.5749V16.9545H64.1502ZM61.5337 15.3864H62.8079V21.5781C62.8079 21.8253 62.8448 22.0114 62.9187 22.1364C62.9925 22.2585 63.0877 22.3423 63.2042 22.3878C63.3235 22.4304 63.4528 22.4517 63.592 22.4517C63.6942 22.4517 63.7837 22.4446 63.8604 22.4304C63.9371 22.4162 63.9968 22.4048 64.0394 22.3963L64.2695 23.4489C64.1957 23.4773 64.0906 23.5057 63.9542 23.5341C63.8178 23.5653 63.6474 23.5824 63.4428 23.5852C63.1076 23.5909 62.7951 23.5312 62.5053 23.4062C62.2156 23.2812 61.9812 23.0881 61.8022 22.8267C61.6232 22.5653 61.5337 22.2372 61.5337 21.8423V15.3864ZM65.5597 23.5V16.9545H66.8338V23.5H65.5597ZM66.2031 15.9446C65.9815 15.9446 65.7912 15.8707 65.6321 15.723C65.4759 15.5724 65.3977 15.3935 65.3977 15.1861C65.3977 14.9759 65.4759 14.7969 65.6321 14.6491C65.7912 14.4986 65.9815 14.4233 66.2031 14.4233C66.4247 14.4233 66.6136 14.4986 66.7699 14.6491C66.929 14.7969 67.0085 14.9759 67.0085 15.1861C67.0085 15.3935 66.929 15.5724 66.7699 15.723C66.6136 15.8707 66.4247 15.9446 66.2031 15.9446ZM74.1474 16.9545L71.7738 23.5H70.4102L68.0323 16.9545H69.4002L71.0579 21.9915H71.1261L72.7795 16.9545H74.1474ZM77.8793 23.6321C77.2656 23.6321 76.7301 23.4915 76.2727 23.2102C75.8153 22.929 75.4602 22.5355 75.2074 22.0298C74.9545 21.5241 74.8281 20.9332 74.8281 20.2571C74.8281 19.5781 74.9545 18.9844 75.2074 18.4759C75.4602 17.9673 75.8153 17.5724 76.2727 17.2912C76.7301 17.0099 77.2656 16.8693 77.8793 16.8693C78.4929 16.8693 79.0284 17.0099 79.4858 17.2912C79.9432 17.5724 80.2983 17.9673 80.5511 18.4759C80.804 18.9844 80.9304 19.5781 80.9304 20.2571C80.9304 20.9332 80.804 21.5241 80.5511 22.0298C80.2983 22.5355 79.9432 22.929 79.4858 23.2102C79.0284 23.4915 78.4929 23.6321 77.8793 23.6321ZM77.8835 22.5625C78.2813 22.5625 78.6108 22.4574 78.8722 22.2472C79.1335 22.0369 79.3267 21.7571 79.4517 21.4077C79.5795 21.0582 79.6435 20.6733 79.6435 20.2528C79.6435 19.8352 79.5795 19.4517 79.4517 19.1023C79.3267 18.75 79.1335 18.4673 78.8722 18.2543C78.6108 18.0412 78.2813 17.9347 77.8835 17.9347C77.483 17.9347 77.1506 18.0412 76.8864 18.2543C76.625 18.4673 76.4304 18.75 76.3026 19.1023C76.1776 19.4517 76.1151 19.8352 76.1151 20.2528C76.1151 20.6733 76.1776 21.0582 76.3026 21.4077C76.4304 21.7571 76.625 22.0369 76.8864 22.2472C77.1506 22.4574 77.483 22.5625 77.8835 22.5625Z" fill="#E72417"/>
</svg>
