<svg width="88" height="38" viewBox="0 0 88 38" fill="none" xmlns="http://www.w3.org/2000/svg">
<path d="M0 19C0 8.50659 8.50659 0 19 0H69C79.4934 0 88 8.50659 88 19C88 29.4934 79.4934 38 69 38H19C8.50659 38 0 29.4934 0 19Z" fill="#CAEECC"/>
<mask id="mask0_384_1945" style="mask-type:alpha" maskUnits="userSpaceOnUse" x="15" y="10" width="18" height="18">
<rect x="15" y="10" width="18" height="18" fill="#D9D9D9"/>
</mask>
<g mask="url(#mask0_384_1945)">
<path d="M22.1627 23.5002L17.8877 19.2252L18.9564 18.1564L22.1627 21.3627L29.0439 14.4814L30.1127 15.5502L22.1627 23.5002Z" fill="#148430"/>
</g>
<path d="M44.696 23.5H43.2983L46.4389 14.7727H47.9602L51.1009 23.5H49.7031L47.2358 16.358H47.1676L44.696 23.5ZM44.9304 20.0824H49.4645V21.1903H44.9304V20.0824ZM54.9041 16.9545V17.9773H51.3288V16.9545H54.9041ZM52.2876 15.3864H53.5618V21.5781C53.5618 21.8253 53.5987 22.0114 53.6726 22.1364C53.7464 22.2585 53.8416 22.3423 53.9581 22.3878C54.0774 22.4304 54.2067 22.4517 54.3459 22.4517C54.4482 22.4517 54.5376 22.4446 54.6143 22.4304C54.6911 22.4162 54.7507 22.4048 54.7933 22.3963L55.0234 23.4489C54.9496 23.4773 54.8445 23.5057 54.7081 23.5341C54.5717 23.5653 54.4013 23.5824 54.1967 23.5852C53.8615 23.5909 53.549 23.5312 53.2592 23.4062C52.9695 23.2812 52.7351 23.0881 52.5561 22.8267C52.3771 22.5653 52.2876 22.2372 52.2876 21.8423V15.3864ZM56.3136 23.5V16.9545H57.5877V23.5H56.3136ZM56.957 15.9446C56.7354 15.9446 56.5451 15.8707 56.386 15.723C56.2298 15.5724 56.1516 15.3935 56.1516 15.1861C56.1516 14.9759 56.2298 14.7969 56.386 14.6491C56.5451 14.4986 56.7354 14.4233 56.957 14.4233C57.1786 14.4233 57.3675 14.4986 57.5238 14.6491C57.6829 14.7969 57.7624 14.9759 57.7624 15.1861C57.7624 15.3935 57.6829 15.5724 57.5238 15.723C57.3675 15.8707 57.1786 15.9446 56.957 15.9446ZM64.9013 16.9545L62.5277 23.5H61.1641L58.7862 16.9545H60.1541L61.8118 21.9915H61.88L63.5334 16.9545H64.9013ZM68.6332 23.6321C68.0195 23.6321 67.484 23.4915 67.0266 23.2102C66.5692 22.929 66.2141 22.5355 65.9613 22.0298C65.7085 21.5241 65.582 20.9332 65.582 20.2571C65.582 19.5781 65.7085 18.9844 65.9613 18.4759C66.2141 17.9673 66.5692 17.5724 67.0266 17.2912C67.484 17.0099 68.0195 16.8693 68.6332 16.8693C69.2468 16.8693 69.7823 17.0099 70.2397 17.2912C70.6971 17.5724 71.0522 17.9673 71.305 18.4759C71.5579 18.9844 71.6843 19.5781 71.6843 20.2571C71.6843 20.9332 71.5579 21.5241 71.305 22.0298C71.0522 22.5355 70.6971 22.929 70.2397 23.2102C69.7823 23.4915 69.2468 23.6321 68.6332 23.6321ZM68.6374 22.5625C69.0352 22.5625 69.3647 22.4574 69.6261 22.2472C69.8874 22.0369 70.0806 21.7571 70.2056 21.4077C70.3335 21.0582 70.3974 20.6733 70.3974 20.2528C70.3974 19.8352 70.3335 19.4517 70.2056 19.1023C70.0806 18.75 69.8874 18.4673 69.6261 18.2543C69.3647 18.0412 69.0352 17.9347 68.6374 17.9347C68.2369 17.9347 67.9045 18.0412 67.6403 18.2543C67.3789 18.4673 67.1843 18.75 67.0565 19.1023C66.9315 19.4517 66.869 19.8352 66.869 20.2528C66.869 20.6733 66.9315 21.0582 67.0565 21.4077C67.1843 21.7571 67.3789 22.0369 67.6403 22.2472C67.9045 22.4574 68.2369 22.5625 68.6374 22.5625Z" fill="#148430"/>
</svg>
