<svg width="350" height="217" viewBox="0 0 350 217" fill="none" xmlns="http://www.w3.org/2000/svg">
<path d="M23.3182 10.8182C23.1136 9.09091 22.2841 7.75 20.8295 6.79545C19.375 5.84091 17.5909 5.36364 15.4773 5.36364C13.9318 5.36364 12.5795 5.61364 11.4205 6.11364C10.2727 6.61364 9.375 7.30114 8.72727 8.17614C8.09091 9.05114 7.77273 10.0455 7.77273 11.1591C7.77273 12.0909 7.99432 12.892 8.4375 13.5625C8.89205 14.2216 9.47159 14.7727 10.1761 15.2159C10.8807 15.6477 11.6193 16.0057 12.392 16.2898C13.1648 16.5625 13.875 16.7841 14.5227 16.9545L18.0682 17.9091C18.9773 18.1477 19.9886 18.4773 21.1023 18.8977C22.2273 19.3182 23.3011 19.892 24.3239 20.6193C25.358 21.3352 26.2102 22.2557 26.8807 23.3807C27.5511 24.5057 27.8864 25.8864 27.8864 27.5227C27.8864 29.4091 27.392 31.1136 26.4034 32.6364C25.4261 34.1591 23.9943 35.3693 22.108 36.267C20.233 37.1648 17.9545 37.6136 15.2727 37.6136C12.7727 37.6136 10.608 37.2102 8.77841 36.4034C6.96023 35.5966 5.52841 34.4716 4.48295 33.0284C3.44886 31.5852 2.86364 29.9091 2.72727 28H7.09091C7.20455 29.3182 7.64773 30.4091 8.42045 31.2727C9.20455 32.125 10.1932 32.7614 11.3864 33.1818C12.5909 33.5909 13.8864 33.7955 15.2727 33.7955C16.8864 33.7955 18.3352 33.5341 19.6193 33.0114C20.9034 32.4773 21.9205 31.7386 22.6705 30.7955C23.4205 29.8409 23.7955 28.7273 23.7955 27.4545C23.7955 26.2955 23.4716 25.3523 22.8239 24.625C22.1761 23.8977 21.3239 23.3068 20.267 22.8523C19.2102 22.3977 18.0682 22 16.8409 21.6591L12.5455 20.4318C9.81818 19.6477 7.65909 18.5284 6.06818 17.0739C4.47727 15.6193 3.68182 13.7159 3.68182 11.3636C3.68182 9.40909 4.21023 7.70454 5.26705 6.25C6.33523 4.78409 7.76705 3.64773 9.5625 2.84091C11.3693 2.02273 13.3864 1.61364 15.6136 1.61364C17.8636 1.61364 19.8636 2.01704 21.6136 2.82386C23.3636 3.61932 24.75 4.71023 25.7727 6.09659C26.8068 7.48295 27.3523 9.05682 27.4091 10.8182H23.3182ZM47.4312 26.2955V10.8182H51.4539V37H47.4312V32.5682H47.1585C46.5448 33.8977 45.5903 35.0284 44.2948 35.9602C42.9994 36.8807 41.363 37.3409 39.3857 37.3409C37.7494 37.3409 36.2948 36.983 35.0221 36.267C33.7494 35.5398 32.7494 34.4489 32.0221 32.9943C31.2948 31.5284 30.9312 29.6818 30.9312 27.4545V10.8182H34.9539V27.1818C34.9539 29.0909 35.488 30.6136 36.5562 31.75C37.6357 32.8864 39.0107 33.4545 40.6812 33.4545C41.6812 33.4545 42.6982 33.1989 43.7323 32.6875C44.7778 32.1761 45.6528 31.392 46.3573 30.3352C47.0732 29.2784 47.4312 27.9318 47.4312 26.2955ZM63.1664 37.6136C61.5073 37.6136 60.0016 37.3011 58.6493 36.6761C57.297 36.0398 56.2232 35.125 55.4277 33.9318C54.6323 32.7273 54.2345 31.2727 54.2345 29.5682C54.2345 28.0682 54.53 26.8523 55.1209 25.9205C55.7118 24.9773 56.5016 24.2386 57.4902 23.7045C58.4789 23.1705 59.5698 22.7727 60.763 22.5114C61.9675 22.2386 63.1777 22.0227 64.3936 21.8636C65.9845 21.6591 67.2743 21.5057 68.263 21.4034C69.263 21.2898 69.9902 21.1023 70.4448 20.8409C70.9107 20.5795 71.1436 20.125 71.1436 19.4773V19.3409C71.1436 17.6591 70.6834 16.3523 69.763 15.4205C68.8539 14.4886 67.4732 14.0227 65.6209 14.0227C63.7005 14.0227 62.1948 14.4432 61.1039 15.2841C60.013 16.125 59.2459 17.0227 58.8027 17.9773L54.9845 16.6136C55.6664 15.0227 56.5755 13.7841 57.7118 12.8977C58.8595 12 60.1095 11.375 61.4618 11.0227C62.8255 10.6591 64.1664 10.4773 65.4845 10.4773C66.3255 10.4773 67.2914 10.5795 68.3823 10.7841C69.4845 10.9773 70.547 11.3807 71.5698 11.9943C72.6039 12.608 73.4618 13.5341 74.1436 14.7727C74.8255 16.0114 75.1664 17.6705 75.1664 19.75V37H71.1436V33.4545H70.9391C70.6664 34.0227 70.2118 34.6307 69.5755 35.2784C68.9391 35.9261 68.0925 36.4773 67.0357 36.9318C65.9789 37.3864 64.6891 37.6136 63.1664 37.6136ZM63.78 34C65.3709 34 66.7118 33.6875 67.8027 33.0625C68.905 32.4375 69.7345 31.6307 70.2914 30.642C70.8595 29.6534 71.1436 28.6136 71.1436 27.5227V23.8409C70.9732 24.0455 70.5982 24.233 70.0186 24.4034C69.4505 24.5625 68.7914 24.7045 68.0414 24.8295C67.3027 24.9432 66.5811 25.0455 65.8766 25.1364C65.1834 25.2159 64.6209 25.2841 64.1891 25.3409C63.1436 25.4773 62.1664 25.6989 61.2573 26.0057C60.3595 26.3011 59.6323 26.75 59.0755 27.3523C58.53 27.9432 58.2573 28.75 58.2573 29.7727C58.2573 31.1705 58.7743 32.2273 59.8084 32.9432C60.8539 33.6477 62.1777 34 63.78 34ZM99.9251 37.5455C97.4705 37.5455 95.3569 36.9659 93.5841 35.8068C91.8114 34.6477 90.4478 33.0511 89.4932 31.017C88.5387 28.983 88.0614 26.6591 88.0614 24.0455C88.0614 21.3864 88.5501 19.0398 89.5273 17.0057C90.516 14.9602 91.891 13.3636 93.6523 12.2159C95.4251 11.0568 97.4932 10.4773 99.8569 10.4773C101.698 10.4773 103.357 10.8182 104.834 11.5C106.311 12.1818 107.522 13.1364 108.465 14.3636C109.408 15.5909 109.993 17.0227 110.221 18.6591H106.198C105.891 17.4659 105.209 16.4091 104.152 15.4886C103.107 14.5568 101.698 14.0909 99.9251 14.0909C98.3569 14.0909 96.9819 14.5 95.8001 15.3182C94.6296 16.125 93.7148 17.267 93.0557 18.7443C92.408 20.2102 92.0841 21.9318 92.0841 23.9091C92.0841 25.9318 92.4023 27.6932 93.0387 29.1932C93.6864 30.6932 94.5955 31.858 95.766 32.6875C96.9478 33.517 98.3341 33.9318 99.9251 33.9318C100.971 33.9318 101.919 33.75 102.772 33.3864C103.624 33.0227 104.346 32.5 104.936 31.8182C105.527 31.1364 105.948 30.3182 106.198 29.3636H110.221C109.993 30.9091 109.431 32.3011 108.533 33.5398C107.647 34.767 106.471 35.7443 105.005 36.4716C103.55 37.1875 101.857 37.5455 99.9251 37.5455ZM116.764 21.25V37H112.741V2.09091H116.764V14.9091H117.105C117.718 13.5568 118.639 12.483 119.866 11.6875C121.105 10.8807 122.753 10.4773 124.809 10.4773C126.593 10.4773 128.156 10.8352 129.497 11.5511C130.838 12.2557 131.878 13.3409 132.616 14.8068C133.366 16.2614 133.741 18.1136 133.741 20.3636V37H129.718V20.6364C129.718 18.5568 129.179 16.9489 128.099 15.8125C127.031 14.6648 125.548 14.0909 123.65 14.0909C122.332 14.0909 121.15 14.3693 120.105 14.9261C119.071 15.483 118.253 16.2955 117.65 17.3636C117.059 18.4318 116.764 19.7273 116.764 21.25ZM145.445 37.6136C143.786 37.6136 142.28 37.3011 140.928 36.6761C139.576 36.0398 138.502 35.125 137.706 33.9318C136.911 32.7273 136.513 31.2727 136.513 29.5682C136.513 28.0682 136.809 26.8523 137.4 25.9205C137.991 24.9773 138.78 24.2386 139.769 23.7045C140.758 23.1705 141.849 22.7727 143.042 22.5114C144.246 22.2386 145.456 22.0227 146.672 21.8636C148.263 21.6591 149.553 21.5057 150.542 21.4034C151.542 21.2898 152.269 21.1023 152.724 20.8409C153.189 20.5795 153.422 20.125 153.422 19.4773V19.3409C153.422 17.6591 152.962 16.3523 152.042 15.4205C151.133 14.4886 149.752 14.0227 147.9 14.0227C145.979 14.0227 144.474 14.4432 143.383 15.2841C142.292 16.125 141.525 17.0227 141.081 17.9773L137.263 16.6136C137.945 15.0227 138.854 13.7841 139.991 12.8977C141.138 12 142.388 11.375 143.741 11.0227C145.104 10.6591 146.445 10.4773 147.763 10.4773C148.604 10.4773 149.57 10.5795 150.661 10.7841C151.763 10.9773 152.826 11.3807 153.849 11.9943C154.883 12.608 155.741 13.5341 156.422 14.7727C157.104 16.0114 157.445 17.6705 157.445 19.75V37H153.422V33.4545H153.218C152.945 34.0227 152.491 34.6307 151.854 35.2784C151.218 35.9261 150.371 36.4773 149.314 36.9318C148.258 37.3864 146.968 37.6136 145.445 37.6136ZM146.059 34C147.65 34 148.991 33.6875 150.081 33.0625C151.184 32.4375 152.013 31.6307 152.57 30.642C153.138 29.6534 153.422 28.6136 153.422 27.5227V23.8409C153.252 24.0455 152.877 24.233 152.297 24.4034C151.729 24.5625 151.07 24.7045 150.32 24.8295C149.581 24.9432 148.86 25.0455 148.155 25.1364C147.462 25.2159 146.9 25.2841 146.468 25.3409C145.422 25.4773 144.445 25.6989 143.536 26.0057C142.638 26.3011 141.911 26.75 141.354 27.3523C140.809 27.9432 140.536 28.75 140.536 29.7727C140.536 31.1705 141.053 32.2273 142.087 32.9432C143.133 33.6477 144.456 34 146.059 34ZM181.899 10.8182L172.217 37H168.126L158.444 10.8182H162.808L170.035 31.6818H170.308L177.535 10.8182H181.899ZM193.888 37.5455C191.366 37.5455 189.19 36.9886 187.36 35.875C185.542 34.75 184.138 33.1818 183.15 31.1705C182.173 29.1477 181.684 26.7955 181.684 24.1136C181.684 21.4318 182.173 19.0682 183.15 17.0227C184.138 14.9659 185.513 13.3636 187.275 12.2159C189.048 11.0568 191.116 10.4773 193.479 10.4773C194.843 10.4773 196.19 10.7045 197.519 11.1591C198.849 11.6136 200.059 12.3523 201.15 13.375C202.241 14.3864 203.11 15.7273 203.758 17.3977C204.406 19.0682 204.729 21.125 204.729 23.5682V25.2727H184.548V21.7955H200.638C200.638 20.3182 200.343 19 199.752 17.8409C199.173 16.6818 198.343 15.767 197.263 15.0966C196.195 14.4261 194.934 14.0909 193.479 14.0909C191.877 14.0909 190.491 14.4886 189.32 15.2841C188.161 16.0682 187.269 17.0909 186.644 18.3523C186.019 19.6136 185.707 20.9659 185.707 22.4091V24.7273C185.707 26.7045 186.048 28.3807 186.729 29.7557C187.423 31.1193 188.383 32.1591 189.61 32.875C190.837 33.5795 192.263 33.9318 193.888 33.9318C194.945 33.9318 195.9 33.7841 196.752 33.4886C197.616 33.1818 198.36 32.7273 198.985 32.125C199.61 31.5114 200.093 30.75 200.434 29.8409L204.32 30.9318C203.911 32.25 203.224 33.4091 202.258 34.4091C201.292 35.3977 200.099 36.1705 198.678 36.7273C197.258 37.2727 195.661 37.5455 193.888 37.5455ZM229.288 10.8182V14.2273H215.174V10.8182H229.288ZM219.401 37V7.20455C219.401 5.70454 219.754 4.45454 220.458 3.45454C221.163 2.45454 222.078 1.70454 223.203 1.20454C224.328 0.704543 225.515 0.454543 226.765 0.454543C227.754 0.454543 228.561 0.534089 229.186 0.693181C229.811 0.852271 230.276 0.999998 230.583 1.13636L229.424 4.61364C229.22 4.54545 228.936 4.46023 228.572 4.35795C228.22 4.25568 227.754 4.20454 227.174 4.20454C225.845 4.20454 224.884 4.53977 224.293 5.21023C223.714 5.88068 223.424 6.86364 223.424 8.15909V37H219.401ZM241.124 37.5455C238.76 37.5455 236.686 36.983 234.902 35.858C233.129 34.733 231.743 33.1591 230.743 31.1364C229.754 29.1136 229.26 26.75 229.26 24.0455C229.26 21.3182 229.754 18.9375 230.743 16.9034C231.743 14.8693 233.129 13.2898 234.902 12.1648C236.686 11.0398 238.76 10.4773 241.124 10.4773C243.487 10.4773 245.556 11.0398 247.328 12.1648C249.112 13.2898 250.499 14.8693 251.487 16.9034C252.487 18.9375 252.987 21.3182 252.987 24.0455C252.987 26.75 252.487 29.1136 251.487 31.1364C250.499 33.1591 249.112 34.733 247.328 35.858C245.556 36.983 243.487 37.5455 241.124 37.5455ZM241.124 33.9318C242.919 33.9318 244.397 33.4716 245.556 32.5511C246.715 31.6307 247.573 30.4205 248.129 28.9205C248.686 27.4205 248.965 25.7955 248.965 24.0455C248.965 22.2955 248.686 20.6648 248.129 19.1534C247.573 17.642 246.715 16.4205 245.556 15.4886C244.397 14.5568 242.919 14.0909 241.124 14.0909C239.328 14.0909 237.851 14.5568 236.692 15.4886C235.533 16.4205 234.675 17.642 234.118 19.1534C233.561 20.6648 233.283 22.2955 233.283 24.0455C233.283 25.7955 233.561 27.4205 234.118 28.9205C234.675 30.4205 235.533 31.6307 236.692 32.5511C237.851 33.4716 239.328 33.9318 241.124 33.9318ZM255.768 37V10.8182H259.791V37H255.768ZM257.814 6.45455C257.029 6.45455 256.353 6.1875 255.785 5.65341C255.228 5.11932 254.95 4.47727 254.95 3.72727C254.95 2.97727 255.228 2.33523 255.785 1.80114C256.353 1.26705 257.029 1 257.814 1C258.598 1 259.268 1.26705 259.825 1.80114C260.393 2.33523 260.677 2.97727 260.677 3.72727C260.677 4.47727 260.393 5.11932 259.825 5.65341C259.268 6.1875 258.598 6.45455 257.814 6.45455ZM3.68182 95V68.8182H7.56818V72.7727H7.84091C8.31818 71.4773 9.18182 70.4261 10.4318 69.6193C11.6818 68.8125 13.0909 68.4091 14.6591 68.4091C14.9545 68.4091 15.3239 68.4148 15.767 68.4261C16.2102 68.4375 16.5455 68.4545 16.7727 68.4773V72.5682C16.6364 72.5341 16.3239 72.483 15.8352 72.4148C15.358 72.3352 14.8523 72.2955 14.3182 72.2955C13.0455 72.2955 11.9091 72.5625 10.9091 73.0966C9.92045 73.6193 9.13636 74.3466 8.55682 75.2784C7.98864 76.1989 7.70455 77.25 7.70455 78.4318V95H3.68182ZM28.3616 95.5455C25.8389 95.5455 23.6627 94.9886 21.8332 93.875C20.015 92.75 18.6116 91.1818 17.623 89.1705C16.6457 87.1477 16.157 84.7955 16.157 82.1136C16.157 79.4318 16.6457 77.0682 17.623 75.0227C18.6116 72.9659 19.9866 71.3636 21.748 70.2159C23.5207 69.0568 25.5889 68.4773 27.9525 68.4773C29.3161 68.4773 30.6627 68.7045 31.9923 69.1591C33.3218 69.6136 34.532 70.3523 35.623 71.375C36.7139 72.3864 37.5832 73.7273 38.2309 75.3977C38.8786 77.0682 39.2025 79.125 39.2025 81.5682V83.2727H19.0207V79.7955H35.1116C35.1116 78.3182 34.8161 77 34.2252 75.8409C33.6457 74.6818 32.8161 73.767 31.7366 73.0966C30.6684 72.4261 29.407 72.0909 27.9525 72.0909C26.3502 72.0909 24.9639 72.4886 23.7934 73.2841C22.6343 74.0682 21.7423 75.0909 21.1173 76.3523C20.4923 77.6136 20.1798 78.9659 20.1798 80.4091V82.7273C20.1798 84.7045 20.5207 86.3807 21.2025 87.7557C21.8957 89.1193 22.8559 90.1591 24.0832 90.875C25.3105 91.5795 26.7366 91.9318 28.3616 91.9318C29.4184 91.9318 30.373 91.7841 31.2252 91.4886C32.0889 91.1818 32.8332 90.7273 33.4582 90.125C34.0832 89.5114 34.5661 88.75 34.907 87.8409L38.7934 88.9318C38.3843 90.25 37.6968 91.4091 36.7309 92.4091C35.765 93.3977 34.5718 94.1705 33.1514 94.7273C31.7309 95.2727 30.1343 95.5455 28.3616 95.5455ZM52.53 105.364C50.5868 105.364 48.9164 105.114 47.5186 104.614C46.1209 104.125 44.9561 103.477 44.0243 102.67C43.1039 101.875 42.3709 101.023 41.8255 100.114L45.03 97.8636C45.3936 98.3409 45.8539 98.8864 46.4107 99.5C46.9675 100.125 47.7289 100.665 48.6948 101.119C49.672 101.585 50.9505 101.818 52.53 101.818C54.6436 101.818 56.388 101.307 57.763 100.284C59.138 99.2614 59.8255 97.6591 59.8255 95.4773V90.1591H59.4845C59.1891 90.6364 58.7686 91.2273 58.2232 91.9318C57.6891 92.625 56.9164 93.2443 55.905 93.7898C54.905 94.3239 53.5527 94.5909 51.8482 94.5909C49.7345 94.5909 47.8368 94.0909 46.155 93.0909C44.4845 92.0909 43.1607 90.6364 42.1834 88.7273C41.2175 86.8182 40.7345 84.5 40.7345 81.7727C40.7345 79.0909 41.2061 76.7557 42.1493 74.767C43.0925 72.767 44.405 71.2216 46.0868 70.1307C47.7686 69.0284 49.7118 68.4773 51.9164 68.4773C53.6209 68.4773 54.9732 68.7614 55.9732 69.3295C56.9845 69.8864 57.7573 70.5227 58.2914 71.2386C58.8368 71.9432 59.2573 72.5227 59.5527 72.9773H59.9618V68.8182H63.8482V95.75C63.8482 98 63.3368 99.8295 62.3141 101.239C61.3027 102.659 59.9391 103.699 58.2232 104.358C56.5186 105.028 54.6209 105.364 52.53 105.364ZM52.3936 90.9773C54.0073 90.9773 55.3709 90.608 56.4845 89.8693C57.5982 89.1307 58.4448 88.0682 59.0243 86.6818C59.6039 85.2955 59.8936 83.6364 59.8936 81.7045C59.8936 79.8182 59.6095 78.1534 59.0414 76.7102C58.4732 75.267 57.6323 74.1364 56.5186 73.3182C55.405 72.5 54.03 72.0909 52.3936 72.0909C50.6891 72.0909 49.2686 72.5227 48.1323 73.3864C47.0073 74.25 46.1607 75.4091 45.5925 76.8636C45.0357 78.3182 44.7573 79.9318 44.7573 81.7045C44.7573 83.5227 45.0414 85.1307 45.6095 86.5284C46.1891 87.9148 47.0414 89.0057 48.1664 89.8011C49.3027 90.5852 50.7118 90.9773 52.3936 90.9773ZM67.8518 95V68.8182H71.8745V95H67.8518ZM69.8973 64.4545C69.1132 64.4545 68.437 64.1875 67.8689 63.6534C67.312 63.1193 67.0336 62.4773 67.0336 61.7273C67.0336 60.9773 67.312 60.3352 67.8689 59.8011C68.437 59.267 69.1132 59 69.8973 59C70.6814 59 71.3518 59.267 71.9086 59.8011C72.4768 60.3352 72.7609 60.9773 72.7609 61.7273C72.7609 62.4773 72.4768 63.1193 71.9086 63.6534C71.3518 64.1875 70.6814 64.4545 69.8973 64.4545ZM94.4279 74.6818L90.8143 75.7045C90.587 75.1023 90.2518 74.517 89.8086 73.9489C89.3768 73.3693 88.7859 72.892 88.0359 72.517C87.2859 72.142 86.3256 71.9545 85.1552 71.9545C83.5529 71.9545 82.2177 72.3239 81.1495 73.0625C80.0927 73.7898 79.5643 74.7159 79.5643 75.8409C79.5643 76.8409 79.9279 77.6307 80.6552 78.2102C81.3824 78.7898 82.5188 79.2727 84.0643 79.6591L87.9506 80.6136C90.2915 81.1818 92.0359 82.0511 93.1836 83.2216C94.3313 84.3807 94.9052 85.875 94.9052 87.7045C94.9052 89.2045 94.4734 90.5455 93.6097 91.7273C92.7574 92.9091 91.5643 93.8409 90.0302 94.5227C88.4961 95.2045 86.712 95.5455 84.6779 95.5455C82.0074 95.5455 79.7972 94.9659 78.0472 93.8068C76.2972 92.6477 75.1893 90.9545 74.7233 88.7273L78.5415 87.7727C78.9052 89.1818 79.5927 90.2386 80.604 90.9432C81.6268 91.6477 82.962 92 84.6097 92C86.4847 92 87.9734 91.6023 89.0756 90.8068C90.1893 90 90.7461 89.0341 90.7461 87.9091C90.7461 87 90.4279 86.2386 89.7915 85.625C89.1552 85 88.1779 84.5341 86.8597 84.2273L82.4961 83.2045C80.0983 82.6364 78.337 81.7557 77.212 80.5625C76.0983 79.358 75.5415 77.8523 75.5415 76.0455C75.5415 74.5682 75.9563 73.2614 76.7858 72.125C77.6268 70.9886 78.7688 70.0966 80.212 69.4489C81.6665 68.8011 83.3143 68.4773 85.1552 68.4773C87.7461 68.4773 89.7802 69.0455 91.2574 70.1818C92.7461 71.3182 93.8029 72.8182 94.4279 74.6818ZM108.987 68.8182V72.2273H95.4187V68.8182H108.987ZM99.3733 62.5455H103.396V87.5C103.396 88.6364 103.561 89.4886 103.89 90.0568C104.231 90.6136 104.663 90.9886 105.186 91.1818C105.72 91.3636 106.282 91.4545 106.873 91.4545C107.316 91.4545 107.68 91.4318 107.964 91.3864C108.248 91.3295 108.476 91.2841 108.646 91.25L109.464 94.8636C109.191 94.9659 108.811 95.0682 108.322 95.1705C107.834 95.2841 107.214 95.3409 106.464 95.3409C105.328 95.3409 104.214 95.0966 103.123 94.608C102.044 94.1193 101.146 93.375 100.43 92.375C99.7256 91.375 99.3733 90.1136 99.3733 88.5909V62.5455ZM111.678 95V68.8182H115.564V72.7727H115.837C116.314 71.4773 117.178 70.4261 118.428 69.6193C119.678 68.8125 121.087 68.4091 122.655 68.4091C122.951 68.4091 123.32 68.4148 123.763 68.4261C124.206 68.4375 124.542 68.4545 124.769 68.4773V72.5682C124.633 72.5341 124.32 72.483 123.831 72.4148C123.354 72.3352 122.849 72.2955 122.314 72.2955C121.042 72.2955 119.905 72.5625 118.905 73.0966C117.917 73.6193 117.133 74.3466 116.553 75.2784C115.985 76.1989 115.701 77.25 115.701 78.4318V95H111.678ZM133.882 95.6136C132.223 95.6136 130.717 95.3011 129.365 94.6761C128.013 94.0398 126.939 93.125 126.143 91.9318C125.348 90.7273 124.95 89.2727 124.95 87.5682C124.95 86.0682 125.246 84.8523 125.837 83.9205C126.427 82.9773 127.217 82.2386 128.206 81.7045C129.194 81.1705 130.285 80.7727 131.479 80.5114C132.683 80.2386 133.893 80.0227 135.109 79.8636C136.7 79.6591 137.99 79.5057 138.979 79.4034C139.979 79.2898 140.706 79.1023 141.16 78.8409C141.626 78.5795 141.859 78.125 141.859 77.4773V77.3409C141.859 75.6591 141.399 74.3523 140.479 73.4205C139.569 72.4886 138.189 72.0227 136.337 72.0227C134.416 72.0227 132.91 72.4432 131.819 73.2841C130.729 74.125 129.962 75.0227 129.518 75.9773L125.7 74.6136C126.382 73.0227 127.291 71.7841 128.427 70.8977C129.575 70 130.825 69.375 132.177 69.0227C133.541 68.6591 134.882 68.4773 136.2 68.4773C137.041 68.4773 138.007 68.5795 139.098 68.7841C140.2 68.9773 141.263 69.3807 142.285 69.9943C143.319 70.608 144.177 71.5341 144.859 72.7727C145.541 74.0114 145.882 75.6705 145.882 77.75V95H141.859V91.4545H141.655C141.382 92.0227 140.927 92.6307 140.291 93.2784C139.655 93.9261 138.808 94.4773 137.751 94.9318C136.694 95.3864 135.405 95.6136 133.882 95.6136ZM134.496 92C136.087 92 137.427 91.6875 138.518 91.0625C139.621 90.4375 140.45 89.6307 141.007 88.642C141.575 87.6534 141.859 86.6136 141.859 85.5227V81.8409C141.689 82.0455 141.314 82.233 140.734 82.4034C140.166 82.5625 139.507 82.7045 138.757 82.8295C138.018 82.9432 137.297 83.0455 136.592 83.1364C135.899 83.2159 135.337 83.2841 134.905 83.3409C133.859 83.4773 132.882 83.6989 131.973 84.0057C131.075 84.3011 130.348 84.75 129.791 85.3523C129.246 85.9432 128.973 86.75 128.973 87.7727C128.973 89.1705 129.49 90.2273 130.524 90.9432C131.569 91.6477 132.893 92 134.496 92ZM159.751 95.5455C157.569 95.5455 155.643 94.9943 153.972 93.892C152.302 92.7784 150.995 91.2102 150.052 89.1875C149.109 87.1534 148.637 84.75 148.637 81.9773C148.637 79.2273 149.109 76.8409 150.052 74.8182C150.995 72.7955 152.307 71.233 153.989 70.1307C155.671 69.0284 157.614 68.4773 159.819 68.4773C161.523 68.4773 162.87 68.7614 163.859 69.3295C164.859 69.8864 165.62 70.5227 166.143 71.2386C166.677 71.9432 167.092 72.5227 167.387 72.9773H167.728V60.0909H171.751V95H167.864V90.9773H167.387C167.092 91.4545 166.671 92.0568 166.126 92.7841C165.58 93.5 164.802 94.142 163.79 94.7102C162.779 95.267 161.432 95.5455 159.751 95.5455ZM160.296 91.9318C161.91 91.9318 163.273 91.5114 164.387 90.6705C165.501 89.8182 166.347 88.642 166.927 87.142C167.506 85.6307 167.796 83.8864 167.796 81.9091C167.796 79.9545 167.512 78.2443 166.944 76.7784C166.376 75.3011 165.535 74.1534 164.421 73.3352C163.307 72.5057 161.932 72.0909 160.296 72.0909C158.592 72.0909 157.171 72.5284 156.035 73.4034C154.91 74.267 154.063 75.4432 153.495 76.9318C152.938 78.4091 152.66 80.0682 152.66 81.9091C152.66 83.7727 152.944 85.4659 153.512 86.9886C154.092 88.5 154.944 89.7045 156.069 90.6023C157.205 91.4886 158.614 91.9318 160.296 91.9318ZM184.021 95.6136C182.362 95.6136 180.857 95.3011 179.504 94.6761C178.152 94.0398 177.078 93.125 176.283 91.9318C175.487 90.7273 175.09 89.2727 175.09 87.5682C175.09 86.0682 175.385 84.8523 175.976 83.9205C176.567 82.9773 177.357 82.2386 178.345 81.7045C179.334 81.1705 180.425 80.7727 181.618 80.5114C182.822 80.2386 184.033 80.0227 185.249 79.8636C186.84 79.6591 188.129 79.5057 189.118 79.4034C190.118 79.2898 190.845 79.1023 191.3 78.8409C191.766 78.5795 191.999 78.125 191.999 77.4773V77.3409C191.999 75.6591 191.538 74.3523 190.618 73.4205C189.709 72.4886 188.328 72.0227 186.476 72.0227C184.555 72.0227 183.05 72.4432 181.959 73.2841C180.868 74.125 180.101 75.0227 179.658 75.9773L175.84 74.6136C176.521 73.0227 177.43 71.7841 178.567 70.8977C179.715 70 180.965 69.375 182.317 69.0227C183.68 68.6591 185.021 68.4773 186.34 68.4773C187.18 68.4773 188.146 68.5795 189.237 68.7841C190.34 68.9773 191.402 69.3807 192.425 69.9943C193.459 70.608 194.317 71.5341 194.999 72.7727C195.68 74.0114 196.021 75.6705 196.021 77.75V95H191.999V91.4545H191.794C191.521 92.0227 191.067 92.6307 190.43 93.2784C189.794 93.9261 188.947 94.4773 187.891 94.9318C186.834 95.3864 185.544 95.6136 184.021 95.6136ZM184.635 92C186.226 92 187.567 91.6875 188.658 91.0625C189.76 90.4375 190.59 89.6307 191.146 88.642C191.715 87.6534 191.999 86.6136 191.999 85.5227V81.8409C191.828 82.0455 191.453 82.233 190.874 82.4034C190.305 82.5625 189.646 82.7045 188.896 82.8295C188.158 82.9432 187.436 83.0455 186.732 83.1364C186.038 83.2159 185.476 83.2841 185.044 83.3409C183.999 83.4773 183.021 83.6989 182.112 84.0057C181.215 84.3011 180.487 84.75 179.93 85.3523C179.385 85.9432 179.112 86.75 179.112 87.7727C179.112 89.1705 179.629 90.2273 180.663 90.9432C181.709 91.6477 183.033 92 184.635 92ZM220.78 95.5455C218.326 95.5455 216.212 94.9659 214.439 93.8068C212.666 92.6477 211.303 91.0511 210.348 89.017C209.394 86.983 208.916 84.6591 208.916 82.0455C208.916 79.3864 209.405 77.0398 210.382 75.0057C211.371 72.9602 212.746 71.3636 214.507 70.2159C216.28 69.0568 218.348 68.4773 220.712 68.4773C222.553 68.4773 224.212 68.8182 225.689 69.5C227.166 70.1818 228.377 71.1364 229.32 72.3636C230.263 73.5909 230.848 75.0227 231.076 76.6591H227.053C226.746 75.4659 226.064 74.4091 225.007 73.4886C223.962 72.5568 222.553 72.0909 220.78 72.0909C219.212 72.0909 217.837 72.5 216.655 73.3182C215.485 74.125 214.57 75.267 213.911 76.7443C213.263 78.2102 212.939 79.9318 212.939 81.9091C212.939 83.9318 213.257 85.6932 213.894 87.1932C214.541 88.6932 215.451 89.858 216.621 90.6875C217.803 91.517 219.189 91.9318 220.78 91.9318C221.826 91.9318 222.774 91.75 223.627 91.3864C224.479 91.0227 225.201 90.5 225.791 89.8182C226.382 89.1364 226.803 88.3182 227.053 87.3636H231.076C230.848 88.9091 230.286 90.3011 229.388 91.5398C228.502 92.767 227.326 93.7443 225.86 94.4716C224.405 95.1875 222.712 95.5455 220.78 95.5455ZM244.233 95.5455C241.869 95.5455 239.795 94.983 238.011 93.858C236.238 92.733 234.852 91.1591 233.852 89.1364C232.863 87.1136 232.369 84.75 232.369 82.0455C232.369 79.3182 232.863 76.9375 233.852 74.9034C234.852 72.8693 236.238 71.2898 238.011 70.1648C239.795 69.0398 241.869 68.4773 244.233 68.4773C246.596 68.4773 248.664 69.0398 250.437 70.1648C252.221 71.2898 253.608 72.8693 254.596 74.9034C255.596 76.9375 256.096 79.3182 256.096 82.0455C256.096 84.75 255.596 87.1136 254.596 89.1364C253.608 91.1591 252.221 92.733 250.437 93.858C248.664 94.983 246.596 95.5455 244.233 95.5455ZM244.233 91.9318C246.028 91.9318 247.505 91.4716 248.664 90.5511C249.823 89.6307 250.681 88.4205 251.238 86.9205C251.795 85.4205 252.073 83.7955 252.073 82.0455C252.073 80.2955 251.795 78.6648 251.238 77.1534C250.681 75.642 249.823 74.4205 248.664 73.4886C247.505 72.5568 246.028 72.0909 244.233 72.0909C242.437 72.0909 240.96 72.5568 239.801 73.4886C238.642 74.4205 237.784 75.642 237.227 77.1534C236.67 78.6648 236.392 80.2955 236.392 82.0455C236.392 83.7955 236.67 85.4205 237.227 86.9205C237.784 88.4205 238.642 89.6307 239.801 90.5511C240.96 91.4716 242.437 91.9318 244.233 91.9318ZM258.877 95V68.8182H262.763V72.9091H263.104C263.65 71.5114 264.53 70.4261 265.746 69.6534C266.962 68.8693 268.422 68.4773 270.127 68.4773C271.854 68.4773 273.292 68.8693 274.439 69.6534C275.598 70.4261 276.502 71.5114 277.15 72.9091H277.422C278.093 71.5568 279.098 70.483 280.439 69.6875C281.78 68.8807 283.388 68.4773 285.263 68.4773C287.604 68.4773 289.519 69.2102 291.008 70.6761C292.496 72.1307 293.24 74.3977 293.24 77.4773V95H289.218V77.4773C289.218 75.5455 288.689 74.1648 287.633 73.3352C286.576 72.5057 285.331 72.0909 283.9 72.0909C282.059 72.0909 280.633 72.6477 279.621 73.7614C278.61 74.8636 278.104 76.2614 278.104 77.9545V95H274.013V77.0682C274.013 75.5795 273.53 74.3807 272.564 73.4716C271.598 72.5511 270.354 72.0909 268.831 72.0909C267.786 72.0909 266.809 72.3693 265.9 72.9261C265.002 73.483 264.275 74.2557 263.718 75.2443C263.172 76.2216 262.9 77.3523 262.9 78.6364V95H258.877ZM22.2273 132.682L18.6136 133.705C18.3864 133.102 18.0511 132.517 17.608 131.949C17.1761 131.369 16.5852 130.892 15.8352 130.517C15.0852 130.142 14.125 129.955 12.9545 129.955C11.3523 129.955 10.017 130.324 8.94886 131.062C7.89205 131.79 7.36364 132.716 7.36364 133.841C7.36364 134.841 7.72727 135.631 8.45455 136.21C9.18182 136.79 10.3182 137.273 11.8636 137.659L15.75 138.614C18.0909 139.182 19.8352 140.051 20.983 141.222C22.1307 142.381 22.7045 143.875 22.7045 145.705C22.7045 147.205 22.2727 148.545 21.4091 149.727C20.5568 150.909 19.3636 151.841 17.8295 152.523C16.2955 153.205 14.5114 153.545 12.4773 153.545C9.80682 153.545 7.59659 152.966 5.84659 151.807C4.09659 150.648 2.98864 148.955 2.52273 146.727L6.34091 145.773C6.70455 147.182 7.39205 148.239 8.40341 148.943C9.42614 149.648 10.7614 150 12.4091 150C14.2841 150 15.7727 149.602 16.875 148.807C17.9886 148 18.5455 147.034 18.5455 145.909C18.5455 145 18.2273 144.239 17.5909 143.625C16.9545 143 15.9773 142.534 14.6591 142.227L10.2955 141.205C7.89773 140.636 6.13636 139.756 5.01136 138.562C3.89773 137.358 3.34091 135.852 3.34091 134.045C3.34091 132.568 3.75568 131.261 4.58523 130.125C5.42614 128.989 6.56818 128.097 8.01136 127.449C9.46591 126.801 11.1136 126.477 12.9545 126.477C15.5455 126.477 17.5795 127.045 19.0568 128.182C20.5455 129.318 21.6023 130.818 22.2273 132.682ZM41.8999 142.295V126.818H45.9227V153H41.8999V148.568H41.6272C41.0136 149.898 40.059 151.028 38.7636 151.96C37.4681 152.881 35.8318 153.341 33.8545 153.341C32.2181 153.341 30.7636 152.983 29.4909 152.267C28.2181 151.54 27.2181 150.449 26.4909 148.994C25.7636 147.528 25.3999 145.682 25.3999 143.455V126.818H29.4227V143.182C29.4227 145.091 29.9568 146.614 31.0249 147.75C32.1045 148.886 33.4795 149.455 35.1499 149.455C36.1499 149.455 37.167 149.199 38.2011 148.688C39.2465 148.176 40.1215 147.392 40.8261 146.335C41.542 145.278 41.8999 143.932 41.8999 142.295ZM60.5669 153.545C58.1124 153.545 55.9987 152.966 54.226 151.807C52.4533 150.648 51.0897 149.051 50.1351 147.017C49.1806 144.983 48.7033 142.659 48.7033 140.045C48.7033 137.386 49.1919 135.04 50.1692 133.006C51.1578 130.96 52.5328 129.364 54.2942 128.216C56.0669 127.057 58.1351 126.477 60.4987 126.477C62.3397 126.477 63.9987 126.818 65.476 127.5C66.9533 128.182 68.1635 129.136 69.1067 130.364C70.0499 131.591 70.6351 133.023 70.8624 134.659H66.8397C66.5328 133.466 65.851 132.409 64.7942 131.489C63.7487 130.557 62.3397 130.091 60.5669 130.091C58.9987 130.091 57.6237 130.5 56.4419 131.318C55.2715 132.125 54.3567 133.267 53.6976 134.744C53.0499 136.21 52.726 137.932 52.726 139.909C52.726 141.932 53.0442 143.693 53.6806 145.193C54.3283 146.693 55.2374 147.858 56.4078 148.688C57.5897 149.517 58.976 149.932 60.5669 149.932C61.6124 149.932 62.5612 149.75 63.4135 149.386C64.2658 149.023 64.9874 148.5 65.5783 147.818C66.1692 147.136 66.5897 146.318 66.8397 145.364H70.8624C70.6351 146.909 70.0726 148.301 69.1749 149.54C68.2885 150.767 67.1124 151.744 65.6465 152.472C64.1919 153.188 62.4987 153.545 60.5669 153.545ZM84.3603 153.545C81.8376 153.545 79.6615 152.989 77.8319 151.875C76.0137 150.75 74.6103 149.182 73.6217 147.17C72.6444 145.148 72.1558 142.795 72.1558 140.114C72.1558 137.432 72.6444 135.068 73.6217 133.023C74.6103 130.966 75.9853 129.364 77.7467 128.216C79.5194 127.057 81.5876 126.477 83.9512 126.477C85.3149 126.477 86.6615 126.705 87.991 127.159C89.3206 127.614 90.5308 128.352 91.6217 129.375C92.7126 130.386 93.5819 131.727 94.2297 133.398C94.8774 135.068 95.2012 137.125 95.2012 139.568V141.273H75.0194V137.795H91.1103C91.1103 136.318 90.8149 135 90.224 133.841C89.6444 132.682 88.8149 131.767 87.7353 131.097C86.6672 130.426 85.4058 130.091 83.9512 130.091C82.349 130.091 80.9626 130.489 79.7922 131.284C78.6331 132.068 77.741 133.091 77.116 134.352C76.491 135.614 76.1785 136.966 76.1785 138.409V140.727C76.1785 142.705 76.5194 144.381 77.2012 145.756C77.8944 147.119 78.8547 148.159 80.0819 148.875C81.3092 149.58 82.7353 149.932 84.3603 149.932C85.4172 149.932 86.3717 149.784 87.224 149.489C88.0876 149.182 88.8319 148.727 89.4569 148.125C90.0819 147.511 90.5649 146.75 90.9058 145.841L94.7922 146.932C94.3831 148.25 93.6956 149.409 92.7297 150.409C91.7637 151.398 90.5706 152.17 89.1501 152.727C87.7297 153.273 86.1331 153.545 84.3603 153.545ZM116.506 132.682L112.892 133.705C112.665 133.102 112.33 132.517 111.887 131.949C111.455 131.369 110.864 130.892 110.114 130.517C109.364 130.142 108.404 129.955 107.233 129.955C105.631 129.955 104.296 130.324 103.228 131.062C102.171 131.79 101.642 132.716 101.642 133.841C101.642 134.841 102.006 135.631 102.733 136.21C103.461 136.79 104.597 137.273 106.142 137.659L110.029 138.614C112.37 139.182 114.114 140.051 115.262 141.222C116.409 142.381 116.983 143.875 116.983 145.705C116.983 147.205 116.551 148.545 115.688 149.727C114.836 150.909 113.642 151.841 112.108 152.523C110.574 153.205 108.79 153.545 106.756 153.545C104.086 153.545 101.875 152.966 100.125 151.807C98.3753 150.648 97.2674 148.955 96.8015 146.727L100.62 145.773C100.983 147.182 101.671 148.239 102.682 148.943C103.705 149.648 105.04 150 106.688 150C108.563 150 110.051 149.602 111.154 148.807C112.267 148 112.824 147.034 112.824 145.909C112.824 145 112.506 144.239 111.87 143.625C111.233 143 110.256 142.534 108.938 142.227L104.574 141.205C102.176 140.636 100.415 139.756 99.2901 138.562C98.1765 137.358 97.6197 135.852 97.6197 134.045C97.6197 132.568 98.0344 131.261 98.864 130.125C99.7049 128.989 100.847 128.097 102.29 127.449C103.745 126.801 105.392 126.477 107.233 126.477C109.824 126.477 111.858 127.045 113.336 128.182C114.824 129.318 115.881 130.818 116.506 132.682ZM138.224 132.682L134.611 133.705C134.383 133.102 134.048 132.517 133.605 131.949C133.173 131.369 132.582 130.892 131.832 130.517C131.082 130.142 130.122 129.955 128.951 129.955C127.349 129.955 126.014 130.324 124.946 131.062C123.889 131.79 123.361 132.716 123.361 133.841C123.361 134.841 123.724 135.631 124.451 136.21C125.179 136.79 126.315 137.273 127.861 137.659L131.747 138.614C134.088 139.182 135.832 140.051 136.98 141.222C138.128 142.381 138.701 143.875 138.701 145.705C138.701 147.205 138.27 148.545 137.406 149.727C136.554 150.909 135.361 151.841 133.826 152.523C132.292 153.205 130.508 153.545 128.474 153.545C125.804 153.545 123.593 152.966 121.843 151.807C120.093 150.648 118.986 148.955 118.52 146.727L122.338 145.773C122.701 147.182 123.389 148.239 124.4 148.943C125.423 149.648 126.758 150 128.406 150C130.281 150 131.77 149.602 132.872 148.807C133.986 148 134.542 147.034 134.542 145.909C134.542 145 134.224 144.239 133.588 143.625C132.951 143 131.974 142.534 130.656 142.227L126.292 141.205C123.895 140.636 122.133 139.756 121.008 138.562C119.895 137.358 119.338 135.852 119.338 134.045C119.338 132.568 119.753 131.261 120.582 130.125C121.423 128.989 122.565 128.097 124.008 127.449C125.463 126.801 127.111 126.477 128.951 126.477C131.542 126.477 133.576 127.045 135.054 128.182C136.542 129.318 137.599 130.818 138.224 132.682ZM152.033 153.545C149.67 153.545 147.596 152.983 145.812 151.858C144.039 150.733 142.652 149.159 141.652 147.136C140.664 145.114 140.17 142.75 140.17 140.045C140.17 137.318 140.664 134.937 141.652 132.903C142.652 130.869 144.039 129.29 145.812 128.165C147.596 127.04 149.67 126.477 152.033 126.477C154.397 126.477 156.465 127.04 158.238 128.165C160.022 129.29 161.408 130.869 162.397 132.903C163.397 134.937 163.897 137.318 163.897 140.045C163.897 142.75 163.397 145.114 162.397 147.136C161.408 149.159 160.022 150.733 158.238 151.858C156.465 152.983 154.397 153.545 152.033 153.545ZM152.033 149.932C153.829 149.932 155.306 149.472 156.465 148.551C157.624 147.631 158.482 146.42 159.039 144.92C159.596 143.42 159.874 141.795 159.874 140.045C159.874 138.295 159.596 136.665 159.039 135.153C158.482 133.642 157.624 132.42 156.465 131.489C155.306 130.557 153.829 130.091 152.033 130.091C150.238 130.091 148.76 130.557 147.601 131.489C146.442 132.42 145.584 133.642 145.027 135.153C144.471 136.665 144.192 138.295 144.192 140.045C144.192 141.795 144.471 143.42 145.027 144.92C145.584 146.42 146.442 147.631 147.601 148.551C148.76 149.472 150.238 149.932 152.033 149.932ZM169.609 153.273C168.768 153.273 168.047 152.972 167.444 152.369C166.842 151.767 166.541 151.045 166.541 150.205C166.541 149.364 166.842 148.642 167.444 148.04C168.047 147.437 168.768 147.136 169.609 147.136C170.45 147.136 171.172 147.437 171.774 148.04C172.376 148.642 172.677 149.364 172.677 150.205C172.677 150.761 172.535 151.273 172.251 151.739C171.979 152.205 171.609 152.58 171.143 152.864C170.689 153.136 170.177 153.273 169.609 153.273Z" fill="#7575B3"/>
<path d="M10.9432 181.148H9.17045C9.10227 180.769 8.97538 180.436 8.78977 180.148C8.60417 179.86 8.37689 179.616 8.10795 179.415C7.83902 179.214 7.53788 179.062 7.20455 178.96C6.875 178.858 6.52462 178.807 6.15341 178.807C5.48295 178.807 4.88258 178.975 4.35227 179.312C3.82576 179.65 3.40909 180.144 3.10227 180.795C2.79924 181.447 2.64773 182.242 2.64773 183.182C2.64773 184.129 2.79924 184.928 3.10227 185.58C3.40909 186.231 3.82765 186.723 4.35795 187.057C4.88826 187.39 5.48485 187.557 6.14773 187.557C6.51515 187.557 6.86364 187.508 7.19318 187.409C7.52652 187.307 7.82765 187.157 8.09659 186.96C8.36553 186.763 8.5928 186.523 8.77841 186.239C8.9678 185.951 9.09848 185.621 9.17045 185.25L10.9432 185.256C10.8485 185.828 10.6648 186.354 10.392 186.835C10.1231 187.312 9.77652 187.725 9.35227 188.074C8.93182 188.419 8.45076 188.686 7.90909 188.875C7.36742 189.064 6.77652 189.159 6.13636 189.159C5.12879 189.159 4.23106 188.92 3.44318 188.443C2.6553 187.962 2.03409 187.275 1.57955 186.381C1.12879 185.487 0.903409 184.42 0.903409 183.182C0.903409 181.939 1.13068 180.873 1.58523 179.983C2.03977 179.089 2.66098 178.403 3.44886 177.926C4.23674 177.445 5.13258 177.205 6.13636 177.205C6.75379 177.205 7.32955 177.294 7.86364 177.472C8.40152 177.646 8.88447 177.903 9.3125 178.244C9.74053 178.581 10.0947 178.994 10.375 179.483C10.6553 179.968 10.8447 180.523 10.9432 181.148ZM16.4238 189.176C15.6056 189.176 14.8916 188.989 14.2818 188.614C13.6719 188.239 13.1984 187.714 12.8613 187.04C12.5242 186.366 12.3556 185.578 12.3556 184.676C12.3556 183.771 12.5242 182.979 12.8613 182.301C13.1984 181.623 13.6719 181.097 14.2818 180.722C14.8916 180.347 15.6056 180.159 16.4238 180.159C17.242 180.159 17.956 180.347 18.5659 180.722C19.1757 181.097 19.6492 181.623 19.9863 182.301C20.3234 182.979 20.492 183.771 20.492 184.676C20.492 185.578 20.3234 186.366 19.9863 187.04C19.6492 187.714 19.1757 188.239 18.5659 188.614C17.956 188.989 17.242 189.176 16.4238 189.176ZM16.4295 187.75C16.9598 187.75 17.3992 187.61 17.7477 187.33C18.0962 187.049 18.3537 186.676 18.5204 186.21C18.6909 185.744 18.7761 185.231 18.7761 184.67C18.7761 184.114 18.6909 183.602 18.5204 183.136C18.3537 182.667 18.0962 182.29 17.7477 182.006C17.3992 181.722 16.9598 181.58 16.4295 181.58C15.8954 181.58 15.4522 181.722 15.0999 182.006C14.7515 182.29 14.492 182.667 14.3215 183.136C14.1549 183.602 14.0715 184.114 14.0715 184.67C14.0715 185.231 14.1549 185.744 14.3215 186.21C14.492 186.676 14.7515 187.049 15.0999 187.33C15.4522 187.61 15.8954 187.75 16.4295 187.75ZM22.2283 192.273V180.273H23.8874V181.688H24.0294C24.1279 181.506 24.27 181.295 24.4556 181.057C24.6412 180.818 24.8988 180.61 25.2283 180.432C25.5578 180.25 25.9934 180.159 26.5351 180.159C27.2397 180.159 27.8684 180.337 28.4215 180.693C28.9745 181.049 29.4082 181.562 29.7226 182.233C30.0408 182.903 30.1999 183.71 30.1999 184.653C30.1999 185.597 30.0427 186.405 29.7283 187.08C29.4139 187.75 28.9821 188.267 28.4328 188.631C27.8836 188.991 27.2567 189.17 26.5522 189.17C26.0219 189.17 25.5881 189.081 25.251 188.903C24.9177 188.725 24.6563 188.517 24.4669 188.278C24.2775 188.04 24.1317 187.828 24.0294 187.642H23.9272V192.273H22.2283ZM23.8931 184.636C23.8931 185.25 23.9821 185.788 24.1601 186.25C24.3381 186.712 24.5957 187.074 24.9328 187.335C25.27 187.593 25.6828 187.722 26.1715 187.722C26.6791 187.722 27.1033 187.587 27.4442 187.318C27.7851 187.045 28.0427 186.676 28.2169 186.21C28.395 185.744 28.484 185.22 28.484 184.636C28.484 184.061 28.3969 183.544 28.2226 183.085C28.0522 182.627 27.7946 182.265 27.4499 182C27.109 181.735 26.6828 181.602 26.1715 181.602C25.6791 181.602 25.2624 181.729 24.9215 181.983C24.5844 182.237 24.3287 182.591 24.1544 183.045C23.9802 183.5 23.8931 184.03 23.8931 184.636ZM31.9433 189V180.273H33.6422V189H31.9433ZM32.8013 178.926C32.5058 178.926 32.252 178.828 32.0399 178.631C31.8316 178.43 31.7274 178.191 31.7274 177.915C31.7274 177.634 31.8316 177.396 32.0399 177.199C32.252 176.998 32.5058 176.898 32.8013 176.898C33.0967 176.898 33.3486 176.998 33.5569 177.199C33.7691 177.396 33.8751 177.634 33.8751 177.915C33.8751 178.191 33.7691 178.43 33.5569 178.631C33.3486 178.828 33.0967 178.926 32.8013 178.926ZM39.529 189.176C38.6692 189.176 37.9287 188.992 37.3074 188.625C36.69 188.254 36.2127 187.733 35.8756 187.062C35.5423 186.388 35.3756 185.598 35.3756 184.693C35.3756 183.799 35.5423 183.011 35.8756 182.33C36.2127 181.648 36.6824 181.116 37.2847 180.733C37.8908 180.35 38.5991 180.159 39.4097 180.159C39.9021 180.159 40.3794 180.241 40.8415 180.403C41.3037 180.566 41.7184 180.822 42.0859 181.17C42.4533 181.519 42.7431 181.972 42.9552 182.528C43.1673 183.081 43.2734 183.754 43.2734 184.545V185.148H36.3359V183.875H41.6086C41.6086 183.428 41.5177 183.032 41.3359 182.688C41.154 182.339 40.8984 182.064 40.5688 181.864C40.243 181.663 39.8605 181.562 39.4211 181.562C38.9438 181.562 38.5271 181.68 38.1711 181.915C37.8188 182.146 37.5461 182.449 37.3529 182.824C37.1635 183.195 37.0688 183.598 37.0688 184.034V185.028C37.0688 185.612 37.1711 186.108 37.3756 186.517C37.584 186.926 37.8737 187.239 38.2449 187.455C38.6162 187.667 39.0499 187.773 39.5461 187.773C39.8681 187.773 40.1616 187.727 40.4268 187.636C40.6919 187.542 40.9211 187.402 41.1143 187.216C41.3074 187.03 41.4552 186.801 41.5574 186.528L43.1654 186.818C43.0366 187.292 42.8055 187.706 42.4722 188.062C42.1427 188.415 41.7279 188.689 41.2279 188.886C40.7317 189.08 40.1654 189.176 39.529 189.176ZM51.6124 189.193C51.0594 189.193 50.5594 189.091 50.1124 188.886C49.6655 188.678 49.3113 188.377 49.0499 187.983C48.7924 187.589 48.6636 187.106 48.6636 186.534C48.6636 186.042 48.7583 185.636 48.9477 185.318C49.1371 185 49.3927 184.748 49.7147 184.562C50.0367 184.377 50.3965 184.237 50.7943 184.142C51.192 184.047 51.5973 183.975 52.0102 183.926C52.5329 183.866 52.9571 183.816 53.2829 183.778C53.6087 183.737 53.8454 183.67 53.9931 183.58C54.1409 183.489 54.2147 183.341 54.2147 183.136V183.097C54.2147 182.6 54.0746 182.216 53.7943 181.943C53.5177 181.67 53.1049 181.534 52.5556 181.534C51.9837 181.534 51.5329 181.661 51.2034 181.915C50.8776 182.165 50.6522 182.443 50.5272 182.75L48.9306 182.386C49.12 181.856 49.3965 181.428 49.7602 181.102C50.1276 180.773 50.5499 180.534 51.0272 180.386C51.5045 180.235 52.0064 180.159 52.5329 180.159C52.8814 180.159 53.2507 180.201 53.6409 180.284C54.0348 180.364 54.4022 180.511 54.7431 180.727C55.0878 180.943 55.37 181.252 55.5897 181.653C55.8094 182.051 55.9193 182.568 55.9193 183.205V189H54.2602V187.807H54.192C54.0821 188.027 53.9174 188.242 53.6977 188.455C53.478 188.667 53.1958 188.843 52.8511 188.983C52.5064 189.123 52.0935 189.193 51.6124 189.193ZM51.9818 187.83C52.4515 187.83 52.853 187.737 53.1863 187.551C53.5234 187.366 53.7791 187.123 53.9534 186.824C54.1314 186.521 54.2204 186.197 54.2204 185.852V184.727C54.1598 184.788 54.0424 184.845 53.8681 184.898C53.6977 184.947 53.5026 184.991 53.2829 185.028C53.0632 185.062 52.8492 185.095 52.6409 185.125C52.4325 185.152 52.2583 185.174 52.1181 185.193C51.7886 185.235 51.4874 185.305 51.2147 185.403C50.9458 185.502 50.7299 185.644 50.567 185.83C50.4079 186.011 50.3284 186.254 50.3284 186.557C50.3284 186.977 50.4837 187.295 50.7943 187.511C51.1049 187.723 51.5007 187.83 51.9818 187.83ZM65.7726 189.176C64.9279 189.176 64.2006 188.985 63.5907 188.602C62.9847 188.216 62.5188 187.684 62.193 187.006C61.8673 186.328 61.7044 185.551 61.7044 184.676C61.7044 183.79 61.871 183.008 62.2044 182.33C62.5377 181.648 63.0074 181.116 63.6135 180.733C64.2195 180.35 64.9335 180.159 65.7555 180.159C66.4184 180.159 67.0093 180.282 67.5282 180.528C68.0472 180.771 68.4657 181.112 68.7839 181.551C69.1059 181.991 69.2972 182.504 69.3578 183.091H67.7044C67.6135 182.682 67.4051 182.33 67.0794 182.034C66.7574 181.739 66.3256 181.591 65.7839 181.591C65.3104 181.591 64.8957 181.716 64.5396 181.966C64.1873 182.212 63.9127 182.564 63.7157 183.023C63.5188 183.477 63.4203 184.015 63.4203 184.636C63.4203 185.273 63.5169 185.822 63.7101 186.284C63.9032 186.746 64.176 187.104 64.5282 187.358C64.8843 187.612 65.3029 187.739 65.7839 187.739C66.1059 187.739 66.3976 187.68 66.6589 187.562C66.9241 187.441 67.1457 187.269 67.3237 187.045C67.5055 186.822 67.6324 186.553 67.7044 186.239H69.3578C69.2972 186.803 69.1135 187.307 68.8066 187.75C68.4998 188.193 68.0888 188.542 67.5737 188.795C67.0623 189.049 66.462 189.176 65.7726 189.176ZM72.7134 183.818V189H71.0145V177.364H72.6907V181.693H72.7986C73.0032 181.223 73.3157 180.85 73.7361 180.574C74.1566 180.297 74.7058 180.159 75.3839 180.159C75.9823 180.159 76.5051 180.282 76.952 180.528C77.4028 180.775 77.7513 181.142 77.9975 181.631C78.2475 182.116 78.3725 182.722 78.3725 183.449V189H76.6736V183.653C76.6736 183.013 76.5089 182.517 76.1793 182.165C75.8498 181.809 75.3914 181.631 74.8043 181.631C74.4028 181.631 74.043 181.716 73.7248 181.886C73.4104 182.057 73.1623 182.307 72.9805 182.636C72.8024 182.962 72.7134 183.356 72.7134 183.818ZM83.0193 189.193C82.4663 189.193 81.9663 189.091 81.5193 188.886C81.0724 188.678 80.7182 188.377 80.4568 187.983C80.1992 187.589 80.0705 187.106 80.0705 186.534C80.0705 186.042 80.1652 185.636 80.3545 185.318C80.5439 185 80.7996 184.748 81.1216 184.562C81.4436 184.377 81.8034 184.237 82.2011 184.142C82.5989 184.047 83.0042 183.975 83.417 183.926C83.9398 183.866 84.364 183.816 84.6898 183.778C85.0155 183.737 85.2523 183.67 85.4 183.58C85.5477 183.489 85.6216 183.341 85.6216 183.136V183.097C85.6216 182.6 85.4814 182.216 85.2011 181.943C84.9246 181.67 84.5117 181.534 83.9625 181.534C83.3905 181.534 82.9398 181.661 82.6102 181.915C82.2845 182.165 82.0591 182.443 81.9341 182.75L80.3375 182.386C80.5269 181.856 80.8034 181.428 81.167 181.102C81.5345 180.773 81.9568 180.534 82.4341 180.386C82.9114 180.235 83.4133 180.159 83.9398 180.159C84.2883 180.159 84.6576 180.201 85.0477 180.284C85.4417 180.364 85.8091 180.511 86.15 180.727C86.4947 180.943 86.7769 181.252 86.9966 181.653C87.2163 182.051 87.3261 182.568 87.3261 183.205V189H85.667V187.807H85.5989C85.489 188.027 85.3242 188.242 85.1045 188.455C84.8849 188.667 84.6027 188.843 84.258 188.983C83.9133 189.123 83.5004 189.193 83.0193 189.193ZM83.3886 187.83C83.8583 187.83 84.2599 187.737 84.5932 187.551C84.9303 187.366 85.186 187.123 85.3602 186.824C85.5383 186.521 85.6273 186.197 85.6273 185.852V184.727C85.5667 184.788 85.4492 184.845 85.275 184.898C85.1045 184.947 84.9095 184.991 84.6898 185.028C84.4701 185.062 84.2561 185.095 84.0477 185.125C83.8394 185.152 83.6652 185.174 83.525 185.193C83.1955 185.235 82.8943 185.305 82.6216 185.403C82.3527 185.502 82.1367 185.644 81.9739 185.83C81.8148 186.011 81.7352 186.254 81.7352 186.557C81.7352 186.977 81.8905 187.295 82.2011 187.511C82.5117 187.723 82.9076 187.83 83.3886 187.83ZM96.5823 180.273L93.4176 189H91.5994L88.4289 180.273H90.2528L92.463 186.989H92.5539L94.7585 180.273H96.5823ZM101.483 189.176C100.624 189.176 99.883 188.992 99.2618 188.625C98.6444 188.254 98.1671 187.733 97.83 187.062C97.4967 186.388 97.33 185.598 97.33 184.693C97.33 183.799 97.4967 183.011 97.83 182.33C98.1671 181.648 98.6368 181.116 99.2391 180.733C99.8452 180.35 100.553 180.159 101.364 180.159C101.857 180.159 102.334 180.241 102.796 180.403C103.258 180.566 103.673 180.822 104.04 181.17C104.408 181.519 104.697 181.972 104.91 182.528C105.122 183.081 105.228 183.754 105.228 184.545V185.148H98.2902V183.875H103.563C103.563 183.428 103.472 183.032 103.29 182.688C103.108 182.339 102.853 182.064 102.523 181.864C102.197 181.663 101.815 181.562 101.375 181.562C100.898 181.562 100.482 181.68 100.125 181.915C99.7732 182.146 99.5005 182.449 99.3073 182.824C99.1179 183.195 99.0232 183.598 99.0232 184.034V185.028C99.0232 185.612 99.1255 186.108 99.33 186.517C99.5383 186.926 99.8281 187.239 100.199 187.455C100.571 187.667 101.004 187.773 101.5 187.773C101.822 187.773 102.116 187.727 102.381 187.636C102.646 187.542 102.875 187.402 103.069 187.216C103.262 187.03 103.41 186.801 103.512 186.528L105.12 186.818C104.991 187.292 104.76 187.706 104.427 188.062C104.097 188.415 103.682 188.689 103.182 188.886C102.686 189.08 102.12 189.176 101.483 189.176ZM113.567 189.193C113.014 189.193 112.514 189.091 112.067 188.886C111.62 188.678 111.266 188.377 111.004 187.983C110.747 187.589 110.618 187.106 110.618 186.534C110.618 186.042 110.713 185.636 110.902 185.318C111.091 185 111.347 184.748 111.669 184.562C111.991 184.377 112.351 184.237 112.749 184.142C113.146 184.047 113.552 183.975 113.965 183.926C114.487 183.866 114.912 183.816 115.237 183.778C115.563 183.737 115.8 183.67 115.948 183.58C116.095 183.489 116.169 183.341 116.169 183.136V183.097C116.169 182.6 116.029 182.216 115.749 181.943C115.472 181.67 115.059 181.534 114.51 181.534C113.938 181.534 113.487 181.661 113.158 181.915C112.832 182.165 112.607 182.443 112.482 182.75L110.885 182.386C111.074 181.856 111.351 181.428 111.715 181.102C112.082 180.773 112.504 180.534 112.982 180.386C113.459 180.235 113.961 180.159 114.487 180.159C114.836 180.159 115.205 180.201 115.595 180.284C115.989 180.364 116.357 180.511 116.698 180.727C117.042 180.943 117.324 181.252 117.544 181.653C117.764 182.051 117.874 182.568 117.874 183.205V189H116.215V187.807H116.146C116.037 188.027 115.872 188.242 115.652 188.455C115.432 188.667 115.15 188.843 114.805 188.983C114.461 189.123 114.048 189.193 113.567 189.193ZM113.936 187.83C114.406 187.83 114.807 187.737 115.141 187.551C115.478 187.366 115.733 187.123 115.908 186.824C116.086 186.521 116.175 186.197 116.175 185.852V184.727C116.114 184.788 115.997 184.845 115.823 184.898C115.652 184.947 115.457 184.991 115.237 185.028C115.018 185.062 114.804 185.095 114.595 185.125C114.387 185.152 114.213 185.174 114.073 185.193C113.743 185.235 113.442 185.305 113.169 185.403C112.9 185.502 112.684 185.644 112.521 185.83C112.362 186.011 112.283 186.254 112.283 186.557C112.283 186.977 112.438 187.295 112.749 187.511C113.059 187.723 113.455 187.83 113.936 187.83ZM120.113 189V177.364H121.812V181.688H121.914C122.012 181.506 122.154 181.295 122.34 181.057C122.526 180.818 122.783 180.61 123.113 180.432C123.442 180.25 123.878 180.159 124.42 180.159C125.124 180.159 125.753 180.337 126.306 180.693C126.859 181.049 127.293 181.562 127.607 182.233C127.925 182.903 128.084 183.71 128.084 184.653C128.084 185.597 127.927 186.405 127.613 187.08C127.298 187.75 126.867 188.267 126.317 188.631C125.768 188.991 125.141 189.17 124.437 189.17C123.906 189.17 123.473 189.081 123.136 188.903C122.802 188.725 122.541 188.517 122.351 188.278C122.162 188.04 122.016 187.828 121.914 187.642H121.772V189H120.113ZM121.778 184.636C121.778 185.25 121.867 185.788 122.045 186.25C122.223 186.712 122.48 187.074 122.817 187.335C123.154 187.593 123.567 187.722 124.056 187.722C124.564 187.722 124.988 187.587 125.329 187.318C125.67 187.045 125.927 186.676 126.101 186.21C126.279 185.744 126.368 185.22 126.368 184.636C126.368 184.061 126.281 183.544 126.107 183.085C125.937 182.627 125.679 182.265 125.334 182C124.993 181.735 124.567 181.602 124.056 181.602C123.564 181.602 123.147 181.729 122.806 181.983C122.469 182.237 122.213 182.591 122.039 183.045C121.865 183.5 121.778 184.03 121.778 184.636ZM132.372 189.193C131.819 189.193 131.319 189.091 130.872 188.886C130.425 188.678 130.071 188.377 129.809 187.983C129.552 187.589 129.423 187.106 129.423 186.534C129.423 186.042 129.518 185.636 129.707 185.318C129.896 185 130.152 184.748 130.474 184.562C130.796 184.377 131.156 184.237 131.554 184.142C131.951 184.047 132.357 183.975 132.77 183.926C133.292 183.866 133.717 183.816 134.042 183.778C134.368 183.737 134.605 183.67 134.753 183.58C134.9 183.489 134.974 183.341 134.974 183.136V183.097C134.974 182.6 134.834 182.216 134.554 181.943C134.277 181.67 133.864 181.534 133.315 181.534C132.743 181.534 132.292 181.661 131.963 181.915C131.637 182.165 131.412 182.443 131.287 182.75L129.69 182.386C129.879 181.856 130.156 181.428 130.52 181.102C130.887 180.773 131.309 180.534 131.787 180.386C132.264 180.235 132.766 180.159 133.292 180.159C133.641 180.159 134.01 180.201 134.4 180.284C134.794 180.364 135.162 180.511 135.503 180.727C135.847 180.943 136.129 181.252 136.349 181.653C136.569 182.051 136.679 182.568 136.679 183.205V189H135.02V187.807H134.951C134.842 188.027 134.677 188.242 134.457 188.455C134.237 188.667 133.955 188.843 133.61 188.983C133.266 189.123 132.853 189.193 132.372 189.193ZM132.741 187.83C133.211 187.83 133.612 187.737 133.946 187.551C134.283 187.366 134.538 187.123 134.713 186.824C134.891 186.521 134.98 186.197 134.98 185.852V184.727C134.919 184.788 134.802 184.845 134.628 184.898C134.457 184.947 134.262 184.991 134.042 185.028C133.823 185.062 133.609 185.095 133.4 185.125C133.192 185.152 133.018 185.174 132.878 185.193C132.548 185.235 132.247 185.305 131.974 185.403C131.705 185.502 131.489 185.644 131.326 185.83C131.167 186.011 131.088 186.254 131.088 186.557C131.088 186.977 131.243 187.295 131.554 187.511C131.864 187.723 132.26 187.83 132.741 187.83ZM138.781 189V180.273H140.48V189H138.781ZM139.639 178.926C139.344 178.926 139.09 178.828 138.878 178.631C138.67 178.43 138.566 178.191 138.566 177.915C138.566 177.634 138.67 177.396 138.878 177.199C139.09 176.998 139.344 176.898 139.639 176.898C139.935 176.898 140.187 176.998 140.395 177.199C140.607 177.396 140.713 177.634 140.713 177.915C140.713 178.191 140.607 178.43 140.395 178.631C140.187 178.828 139.935 178.926 139.639 178.926ZM143.947 180.273L145.873 183.67L147.816 180.273H149.674L146.952 184.636L149.697 189H147.839L145.873 185.739L143.913 189H142.049L144.765 184.636L142.083 180.273H143.947ZM154.591 189.176C153.773 189.176 153.058 188.989 152.449 188.614C151.839 188.239 151.365 187.714 151.028 187.04C150.691 186.366 150.523 185.578 150.523 184.676C150.523 183.771 150.691 182.979 151.028 182.301C151.365 181.623 151.839 181.097 152.449 180.722C153.058 180.347 153.773 180.159 154.591 180.159C155.409 180.159 156.123 180.347 156.733 180.722C157.343 181.097 157.816 181.623 158.153 182.301C158.49 182.979 158.659 183.771 158.659 184.676C158.659 185.578 158.49 186.366 158.153 187.04C157.816 187.714 157.343 188.239 156.733 188.614C156.123 188.989 155.409 189.176 154.591 189.176ZM154.596 187.75C155.127 187.75 155.566 187.61 155.915 187.33C156.263 187.049 156.521 186.676 156.687 186.21C156.858 185.744 156.943 185.231 156.943 184.67C156.943 184.114 156.858 183.602 156.687 183.136C156.521 182.667 156.263 182.29 155.915 182.006C155.566 181.722 155.127 181.58 154.596 181.58C154.062 181.58 153.619 181.722 153.267 182.006C152.918 182.29 152.659 182.667 152.488 183.136C152.322 183.602 152.238 184.114 152.238 184.67C152.238 185.231 152.322 185.744 152.488 186.21C152.659 186.676 152.918 187.049 153.267 187.33C153.619 187.61 154.062 187.75 154.596 187.75ZM168.231 189.176C167.371 189.176 166.631 188.992 166.009 188.625C165.392 188.254 164.915 187.733 164.577 187.062C164.244 186.388 164.077 185.598 164.077 184.693C164.077 183.799 164.244 183.011 164.577 182.33C164.915 181.648 165.384 181.116 165.987 180.733C166.593 180.35 167.301 180.159 168.112 180.159C168.604 180.159 169.081 180.241 169.543 180.403C170.006 180.566 170.42 180.822 170.788 181.17C171.155 181.519 171.445 181.972 171.657 182.528C171.869 183.081 171.975 183.754 171.975 184.545V185.148H165.038V183.875H170.31C170.31 183.428 170.22 183.032 170.038 182.688C169.856 182.339 169.6 182.064 169.271 181.864C168.945 181.663 168.562 181.562 168.123 181.562C167.646 181.562 167.229 181.68 166.873 181.915C166.521 182.146 166.248 182.449 166.055 182.824C165.865 183.195 165.771 183.598 165.771 184.034V185.028C165.771 185.612 165.873 186.108 166.077 186.517C166.286 186.926 166.576 187.239 166.947 187.455C167.318 187.667 167.752 187.773 168.248 187.773C168.57 187.773 168.863 187.727 169.129 187.636C169.394 187.542 169.623 187.402 169.816 187.216C170.009 187.03 170.157 186.801 170.259 186.528L171.867 186.818C171.738 187.292 171.507 187.706 171.174 188.062C170.845 188.415 170.43 188.689 169.93 188.886C169.434 189.08 168.867 189.176 168.231 189.176ZM181.451 189.176C180.606 189.176 179.879 188.985 179.269 188.602C178.663 188.216 178.197 187.684 177.871 187.006C177.545 186.328 177.383 185.551 177.383 184.676C177.383 183.79 177.549 183.008 177.883 182.33C178.216 181.648 178.686 181.116 179.292 180.733C179.898 180.35 180.612 180.159 181.434 180.159C182.097 180.159 182.687 180.282 183.206 180.528C183.725 180.771 184.144 181.112 184.462 181.551C184.784 181.991 184.975 182.504 185.036 183.091H183.383C183.292 182.682 183.083 182.33 182.758 182.034C182.436 181.739 182.004 181.591 181.462 181.591C180.989 181.591 180.574 181.716 180.218 181.966C179.865 182.212 179.591 182.564 179.394 183.023C179.197 183.477 179.098 184.015 179.098 184.636C179.098 185.273 179.195 185.822 179.388 186.284C179.581 186.746 179.854 187.104 180.206 187.358C180.562 187.612 180.981 187.739 181.462 187.739C181.784 187.739 182.076 187.68 182.337 187.562C182.602 187.441 182.824 187.269 183.002 187.045C183.184 186.822 183.311 186.553 183.383 186.239H185.036C184.975 186.803 184.792 187.307 184.485 187.75C184.178 188.193 183.767 188.542 183.252 188.795C182.74 189.049 182.14 189.176 181.451 189.176ZM190.369 189.176C189.551 189.176 188.837 188.989 188.227 188.614C187.617 188.239 187.143 187.714 186.806 187.04C186.469 186.366 186.301 185.578 186.301 184.676C186.301 183.771 186.469 182.979 186.806 182.301C187.143 181.623 187.617 181.097 188.227 180.722C188.837 180.347 189.551 180.159 190.369 180.159C191.187 180.159 191.901 180.347 192.511 180.722C193.121 181.097 193.594 181.623 193.931 182.301C194.268 182.979 194.437 183.771 194.437 184.676C194.437 185.578 194.268 186.366 193.931 187.04C193.594 187.714 193.121 188.239 192.511 188.614C191.901 188.989 191.187 189.176 190.369 189.176ZM190.374 187.75C190.905 187.75 191.344 187.61 191.693 187.33C192.041 187.049 192.299 186.676 192.465 186.21C192.636 185.744 192.721 185.231 192.721 184.67C192.721 184.114 192.636 183.602 192.465 183.136C192.299 182.667 192.041 182.29 191.693 182.006C191.344 181.722 190.905 181.58 190.374 181.58C189.84 181.58 189.397 181.722 189.045 182.006C188.696 182.29 188.437 182.667 188.267 183.136C188.1 183.602 188.017 184.114 188.017 184.67C188.017 185.231 188.1 185.744 188.267 186.21C188.437 186.676 188.696 187.049 189.045 187.33C189.397 187.61 189.84 187.75 190.374 187.75ZM196.173 189V180.273H197.804V181.693H197.912C198.094 181.212 198.391 180.837 198.804 180.568C199.217 180.295 199.711 180.159 200.287 180.159C200.87 180.159 201.359 180.295 201.753 180.568C202.151 180.841 202.444 181.216 202.634 181.693H202.724C202.933 181.227 203.264 180.856 203.719 180.58C204.173 180.299 204.715 180.159 205.344 180.159C206.135 180.159 206.781 180.407 207.281 180.903C207.785 181.4 208.037 182.148 208.037 183.148V189H206.338V183.307C206.338 182.716 206.177 182.288 205.855 182.023C205.533 181.758 205.149 181.625 204.702 181.625C204.149 181.625 203.719 181.795 203.412 182.136C203.105 182.473 202.952 182.907 202.952 183.438V189H201.259V183.199C201.259 182.725 201.111 182.345 200.815 182.057C200.52 181.769 200.135 181.625 199.662 181.625C199.34 181.625 199.043 181.71 198.77 181.881C198.501 182.047 198.283 182.28 198.116 182.58C197.954 182.879 197.872 183.225 197.872 183.619V189H196.173ZM213.915 189.176C213.055 189.176 212.315 188.992 211.694 188.625C211.076 188.254 210.599 187.733 210.262 187.062C209.929 186.388 209.762 185.598 209.762 184.693C209.762 183.799 209.929 183.011 210.262 182.33C210.599 181.648 211.069 181.116 211.671 180.733C212.277 180.35 212.985 180.159 213.796 180.159C214.288 180.159 214.766 180.241 215.228 180.403C215.69 180.566 216.105 180.822 216.472 181.17C216.84 181.519 217.129 181.972 217.341 182.528C217.554 183.081 217.66 183.754 217.66 184.545V185.148H210.722V183.875H215.995C215.995 183.428 215.904 183.032 215.722 182.688C215.54 182.339 215.285 182.064 214.955 181.864C214.629 181.663 214.247 181.562 213.807 181.562C213.33 181.562 212.913 181.68 212.557 181.915C212.205 182.146 211.932 182.449 211.739 182.824C211.55 183.195 211.455 183.598 211.455 184.034V185.028C211.455 185.612 211.557 186.108 211.762 186.517C211.97 186.926 212.26 187.239 212.631 187.455C213.002 187.667 213.436 187.773 213.932 187.773C214.254 187.773 214.548 187.727 214.813 187.636C215.078 187.542 215.307 187.402 215.501 187.216C215.694 187.03 215.841 186.801 215.944 186.528L217.552 186.818C217.423 187.292 217.192 187.706 216.858 188.062C216.529 188.415 216.114 188.689 215.614 188.886C215.118 189.08 214.552 189.176 213.915 189.176ZM223.061 189.176C222.216 189.176 221.489 188.985 220.879 188.602C220.273 188.216 219.807 187.684 219.481 187.006C219.155 186.328 218.992 185.551 218.992 184.676C218.992 183.79 219.159 183.008 219.492 182.33C219.826 181.648 220.296 181.116 220.902 180.733C221.508 180.35 222.222 180.159 223.044 180.159C223.707 180.159 224.297 180.282 224.816 180.528C225.335 180.771 225.754 181.112 226.072 181.551C226.394 181.991 226.585 182.504 226.646 183.091H224.992C224.902 182.682 224.693 182.33 224.367 182.034C224.046 181.739 223.614 181.591 223.072 181.591C222.599 181.591 222.184 181.716 221.828 181.966C221.475 182.212 221.201 182.564 221.004 183.023C220.807 183.477 220.708 184.015 220.708 184.636C220.708 185.273 220.805 185.822 220.998 186.284C221.191 186.746 221.464 187.104 221.816 187.358C222.172 187.612 222.591 187.739 223.072 187.739C223.394 187.739 223.686 187.68 223.947 187.562C224.212 187.441 224.434 187.269 224.612 187.045C224.794 186.822 224.921 186.553 224.992 186.239H226.646C226.585 186.803 226.402 187.307 226.095 187.75C225.788 188.193 225.377 188.542 224.862 188.795C224.35 189.049 223.75 189.176 223.061 189.176ZM232.064 189.176C231.204 189.176 230.464 188.992 229.842 188.625C229.225 188.254 228.748 187.733 228.411 187.062C228.077 186.388 227.911 185.598 227.911 184.693C227.911 183.799 228.077 183.011 228.411 182.33C228.748 181.648 229.217 181.116 229.82 180.733C230.426 180.35 231.134 180.159 231.945 180.159C232.437 180.159 232.914 180.241 233.377 180.403C233.839 180.566 234.253 180.822 234.621 181.17C234.988 181.519 235.278 181.972 235.49 182.528C235.702 183.081 235.808 183.754 235.808 184.545V185.148H228.871V183.875H234.144C234.144 183.428 234.053 183.032 233.871 182.688C233.689 182.339 233.433 182.064 233.104 181.864C232.778 181.663 232.395 181.562 231.956 181.562C231.479 181.562 231.062 181.68 230.706 181.915C230.354 182.146 230.081 182.449 229.888 182.824C229.699 183.195 229.604 183.598 229.604 184.034V185.028C229.604 185.612 229.706 186.108 229.911 186.517C230.119 186.926 230.409 187.239 230.78 187.455C231.151 187.667 231.585 187.773 232.081 187.773C232.403 187.773 232.697 187.727 232.962 187.636C233.227 187.542 233.456 187.402 233.649 187.216C233.842 187.03 233.99 186.801 234.092 186.528L235.7 186.818C235.572 187.292 235.341 187.706 235.007 188.062C234.678 188.415 234.263 188.689 233.763 188.886C233.267 189.08 232.7 189.176 232.064 189.176ZM244.147 189.193C243.594 189.193 243.094 189.091 242.647 188.886C242.2 188.678 241.846 188.377 241.585 187.983C241.327 187.589 241.199 187.106 241.199 186.534C241.199 186.042 241.293 185.636 241.483 185.318C241.672 185 241.928 184.748 242.25 184.562C242.572 184.377 242.932 184.237 243.329 184.142C243.727 184.047 244.132 183.975 244.545 183.926C245.068 183.866 245.492 183.816 245.818 183.778C246.144 183.737 246.38 183.67 246.528 183.58C246.676 183.489 246.75 183.341 246.75 183.136V183.097C246.75 182.6 246.61 182.216 246.329 181.943C246.053 181.67 245.64 181.534 245.091 181.534C244.519 181.534 244.068 181.661 243.738 181.915C243.413 182.165 243.187 182.443 243.062 182.75L241.466 182.386C241.655 181.856 241.932 181.428 242.295 181.102C242.663 180.773 243.085 180.534 243.562 180.386C244.039 180.235 244.541 180.159 245.068 180.159C245.416 180.159 245.786 180.201 246.176 180.284C246.57 180.364 246.937 180.511 247.278 180.727C247.623 180.943 247.905 181.252 248.125 181.653C248.344 182.051 248.454 182.568 248.454 183.205V189H246.795V187.807H246.727C246.617 188.027 246.452 188.242 246.233 188.455C246.013 188.667 245.731 188.843 245.386 188.983C245.041 189.123 244.629 189.193 244.147 189.193ZM244.517 187.83C244.986 187.83 245.388 187.737 245.721 187.551C246.058 187.366 246.314 187.123 246.488 186.824C246.666 186.521 246.755 186.197 246.755 185.852V184.727C246.695 184.788 246.577 184.845 246.403 184.898C246.233 184.947 246.038 184.991 245.818 185.028C245.598 185.062 245.384 185.095 245.176 185.125C244.968 185.152 244.793 185.174 244.653 185.193C244.324 185.235 244.022 185.305 243.75 185.403C243.481 185.502 243.265 185.644 243.102 185.83C242.943 186.011 242.863 186.254 242.863 186.557C242.863 186.977 243.019 187.295 243.329 187.511C243.64 187.723 244.036 187.83 244.517 187.83ZM254.631 189V180.273H256.273V181.659H256.364C256.523 181.189 256.804 180.82 257.205 180.551C257.611 180.278 258.069 180.142 258.58 180.142C258.686 180.142 258.811 180.146 258.955 180.153C259.103 180.161 259.219 180.17 259.302 180.182V181.807C259.234 181.788 259.112 181.767 258.938 181.744C258.764 181.718 258.59 181.705 258.416 181.705C258.014 181.705 257.656 181.79 257.342 181.96C257.031 182.127 256.785 182.36 256.603 182.659C256.421 182.955 256.33 183.292 256.33 183.67V189H254.631ZM264.061 189.176C263.201 189.176 262.461 188.992 261.839 188.625C261.222 188.254 260.745 187.733 260.408 187.062C260.074 186.388 259.908 185.598 259.908 184.693C259.908 183.799 260.074 183.011 260.408 182.33C260.745 181.648 261.214 181.116 261.817 180.733C262.423 180.35 263.131 180.159 263.942 180.159C264.434 180.159 264.911 180.241 265.373 180.403C265.836 180.566 266.25 180.822 266.618 181.17C266.985 181.519 267.275 181.972 267.487 182.528C267.699 183.081 267.805 183.754 267.805 184.545V185.148H260.868V183.875H266.14C266.14 183.428 266.05 183.032 265.868 182.688C265.686 182.339 265.43 182.064 265.101 181.864C264.775 181.663 264.392 181.562 263.953 181.562C263.476 181.562 263.059 181.68 262.703 181.915C262.351 182.146 262.078 182.449 261.885 182.824C261.695 183.195 261.601 183.598 261.601 184.034V185.028C261.601 185.612 261.703 186.108 261.908 186.517C262.116 186.926 262.406 187.239 262.777 187.455C263.148 187.667 263.582 187.773 264.078 187.773C264.4 187.773 264.693 187.727 264.959 187.636C265.224 187.542 265.453 187.402 265.646 187.216C265.839 187.03 265.987 186.801 266.089 186.528L267.697 186.818C267.568 187.292 267.337 187.706 267.004 188.062C266.675 188.415 266.26 188.689 265.76 188.886C265.264 189.08 264.697 189.176 264.061 189.176ZM273.206 189.176C272.362 189.176 271.634 188.985 271.024 188.602C270.418 188.216 269.953 187.684 269.627 187.006C269.301 186.328 269.138 185.551 269.138 184.676C269.138 183.79 269.305 183.008 269.638 182.33C269.971 181.648 270.441 181.116 271.047 180.733C271.653 180.35 272.367 180.159 273.189 180.159C273.852 180.159 274.443 180.282 274.962 180.528C275.481 180.771 275.899 181.112 276.218 181.551C276.54 181.991 276.731 182.504 276.792 183.091H275.138C275.047 182.682 274.839 182.33 274.513 182.034C274.191 181.739 273.759 181.591 273.218 181.591C272.744 181.591 272.329 181.716 271.973 181.966C271.621 182.212 271.346 182.564 271.149 183.023C270.953 183.477 270.854 184.015 270.854 184.636C270.854 185.273 270.951 185.822 271.144 186.284C271.337 186.746 271.61 187.104 271.962 187.358C272.318 187.612 272.737 187.739 273.218 187.739C273.54 187.739 273.831 187.68 274.093 187.562C274.358 187.441 274.579 187.269 274.757 187.045C274.939 186.822 275.066 186.553 275.138 186.239H276.792C276.731 186.803 276.547 187.307 276.24 187.75C275.934 188.193 275.523 188.542 275.007 188.795C274.496 189.049 273.896 189.176 273.206 189.176ZM282.21 189.176C281.35 189.176 280.609 188.992 279.988 188.625C279.371 188.254 278.893 187.733 278.556 187.062C278.223 186.388 278.056 185.598 278.056 184.693C278.056 183.799 278.223 183.011 278.556 182.33C278.893 181.648 279.363 181.116 279.965 180.733C280.571 180.35 281.28 180.159 282.09 180.159C282.583 180.159 283.06 180.241 283.522 180.403C283.984 180.566 284.399 180.822 284.766 181.17C285.134 181.519 285.424 181.972 285.636 182.528C285.848 183.081 285.954 183.754 285.954 184.545V185.148H279.016V183.875H284.289C284.289 183.428 284.198 183.032 284.016 182.688C283.835 182.339 283.579 182.064 283.249 181.864C282.924 181.663 282.541 181.562 282.102 181.562C281.624 181.562 281.208 181.68 280.852 181.915C280.499 182.146 280.227 182.449 280.034 182.824C279.844 183.195 279.749 183.598 279.749 184.034V185.028C279.749 185.612 279.852 186.108 280.056 186.517C280.265 186.926 280.554 187.239 280.926 187.455C281.297 187.667 281.73 187.773 282.227 187.773C282.549 187.773 282.842 187.727 283.107 187.636C283.373 187.542 283.602 187.402 283.795 187.216C283.988 187.03 284.136 186.801 284.238 186.528L285.846 186.818C285.717 187.292 285.486 187.706 285.153 188.062C284.823 188.415 284.409 188.689 283.909 188.886C283.412 189.08 282.846 189.176 282.21 189.176ZM287.815 189V177.364H289.514V181.688H289.616C289.715 181.506 289.857 181.295 290.043 181.057C290.228 180.818 290.486 180.61 290.815 180.432C291.145 180.25 291.58 180.159 292.122 180.159C292.827 180.159 293.455 180.337 294.008 180.693C294.561 181.049 294.995 181.562 295.31 182.233C295.628 182.903 295.787 183.71 295.787 184.653C295.787 185.597 295.63 186.405 295.315 187.08C295.001 187.75 294.569 188.267 294.02 188.631C293.471 188.991 292.844 189.17 292.139 189.17C291.609 189.17 291.175 189.081 290.838 188.903C290.505 188.725 290.243 188.517 290.054 188.278C289.865 188.04 289.719 187.828 289.616 187.642H289.474V189H287.815ZM289.48 184.636C289.48 185.25 289.569 185.788 289.747 186.25C289.925 186.712 290.183 187.074 290.52 187.335C290.857 187.593 291.27 187.722 291.758 187.722C292.266 187.722 292.69 187.587 293.031 187.318C293.372 187.045 293.63 186.676 293.804 186.21C293.982 185.744 294.071 185.22 294.071 184.636C294.071 184.061 293.984 183.544 293.81 183.085C293.639 182.627 293.382 182.265 293.037 182C292.696 181.735 292.27 181.602 291.758 181.602C291.266 181.602 290.849 181.729 290.508 181.983C290.171 182.237 289.916 182.591 289.741 183.045C289.567 183.5 289.48 184.03 289.48 184.636ZM301.296 189.176C300.436 189.176 299.696 188.992 299.074 188.625C298.457 188.254 297.98 187.733 297.642 187.062C297.309 186.388 297.142 185.598 297.142 184.693C297.142 183.799 297.309 183.011 297.642 182.33C297.98 181.648 298.449 181.116 299.052 180.733C299.658 180.35 300.366 180.159 301.177 180.159C301.669 180.159 302.146 180.241 302.608 180.403C303.071 180.566 303.485 180.822 303.853 181.17C304.22 181.519 304.51 181.972 304.722 182.528C304.934 183.081 305.04 183.754 305.04 184.545V185.148H298.103V183.875H303.375C303.375 183.428 303.285 183.032 303.103 182.688C302.921 182.339 302.665 182.064 302.336 181.864C302.01 181.663 301.627 181.562 301.188 181.562C300.711 181.562 300.294 181.68 299.938 181.915C299.586 182.146 299.313 182.449 299.12 182.824C298.93 183.195 298.836 183.598 298.836 184.034V185.028C298.836 185.612 298.938 186.108 299.142 186.517C299.351 186.926 299.641 187.239 300.012 187.455C300.383 187.667 300.817 187.773 301.313 187.773C301.635 187.773 301.928 187.727 302.194 187.636C302.459 187.542 302.688 187.402 302.881 187.216C303.074 187.03 303.222 186.801 303.324 186.528L304.932 186.818C304.803 187.292 304.572 187.706 304.239 188.062C303.91 188.415 303.495 188.689 302.995 188.886C302.499 189.08 301.932 189.176 301.296 189.176ZM306.765 189V180.273H308.407V181.659H308.498C308.657 181.189 308.938 180.82 309.339 180.551C309.744 180.278 310.203 180.142 310.714 180.142C310.82 180.142 310.945 180.146 311.089 180.153C311.237 180.161 311.352 180.17 311.436 180.182V181.807C311.367 181.788 311.246 181.767 311.072 181.744C310.898 181.718 310.724 181.705 310.549 181.705C310.148 181.705 309.79 181.79 309.475 181.96C309.165 182.127 308.919 182.36 308.737 182.659C308.555 182.955 308.464 183.292 308.464 183.67V189H306.765ZM1.14205 216.273V204.273H2.80114V205.688H2.94318C3.04167 205.506 3.18371 205.295 3.36932 205.057C3.55492 204.818 3.8125 204.61 4.14205 204.432C4.47159 204.25 4.9072 204.159 5.44886 204.159C6.15341 204.159 6.7822 204.337 7.33523 204.693C7.88826 205.049 8.32197 205.562 8.63636 206.233C8.95455 206.903 9.11364 207.71 9.11364 208.653C9.11364 209.597 8.95644 210.405 8.64205 211.08C8.32765 211.75 7.89583 212.267 7.34659 212.631C6.79735 212.991 6.17045 213.17 5.46591 213.17C4.93561 213.17 4.50189 213.081 4.16477 212.903C3.83144 212.725 3.57008 212.517 3.38068 212.278C3.19129 212.04 3.04545 211.828 2.94318 211.642H2.84091V216.273H1.14205ZM2.80682 208.636C2.80682 209.25 2.89583 209.788 3.07386 210.25C3.25189 210.712 3.50947 211.074 3.84659 211.335C4.18371 211.593 4.59659 211.722 5.08523 211.722C5.5928 211.722 6.01705 211.587 6.35795 211.318C6.69886 211.045 6.95644 210.676 7.13068 210.21C7.30871 209.744 7.39773 209.22 7.39773 208.636C7.39773 208.061 7.31061 207.544 7.13636 207.085C6.96591 206.627 6.70833 206.265 6.36364 206C6.02273 205.735 5.59659 205.602 5.08523 205.602C4.5928 205.602 4.17614 205.729 3.83523 205.983C3.49811 206.237 3.24242 206.591 3.06818 207.045C2.89394 207.5 2.80682 208.03 2.80682 208.636ZM13.3968 213.193C12.8438 213.193 12.3438 213.091 11.8968 212.886C11.4498 212.678 11.0957 212.377 10.8343 211.983C10.5767 211.589 10.448 211.106 10.448 210.534C10.448 210.042 10.5427 209.636 10.732 209.318C10.9214 209 11.1771 208.748 11.4991 208.562C11.8211 208.377 12.1809 208.237 12.5786 208.142C12.9764 208.047 13.3817 207.975 13.7945 207.926C14.3173 207.866 14.7415 207.816 15.0673 207.778C15.393 207.737 15.6298 207.67 15.7775 207.58C15.9252 207.489 15.9991 207.341 15.9991 207.136V207.097C15.9991 206.6 15.8589 206.216 15.5786 205.943C15.3021 205.67 14.8892 205.534 14.34 205.534C13.768 205.534 13.3173 205.661 12.9877 205.915C12.662 206.165 12.4366 206.443 12.3116 206.75L10.715 206.386C10.9044 205.856 11.1809 205.428 11.5445 205.102C11.912 204.773 12.3343 204.534 12.8116 204.386C13.2889 204.235 13.7908 204.159 14.3173 204.159C14.6658 204.159 15.0351 204.201 15.4252 204.284C15.8192 204.364 16.1866 204.511 16.5275 204.727C16.8722 204.943 17.1544 205.252 17.3741 205.653C17.5938 206.051 17.7036 206.568 17.7036 207.205V213H16.0445V211.807H15.9764C15.8665 212.027 15.7017 212.242 15.482 212.455C15.2623 212.667 14.9802 212.843 14.6355 212.983C14.2908 213.123 13.8779 213.193 13.3968 213.193ZM13.7661 211.83C14.2358 211.83 14.6373 211.737 14.9707 211.551C15.3078 211.366 15.5635 211.123 15.7377 210.824C15.9158 210.521 16.0048 210.197 16.0048 209.852V208.727C15.9442 208.788 15.8267 208.845 15.6525 208.898C15.482 208.947 15.287 208.991 15.0673 209.028C14.8476 209.062 14.6336 209.095 14.4252 209.125C14.2169 209.152 14.0427 209.174 13.9025 209.193C13.573 209.235 13.2718 209.305 12.9991 209.403C12.7302 209.502 12.5142 209.644 12.3514 209.83C12.1923 210.011 12.1127 210.254 12.1127 210.557C12.1127 210.977 12.268 211.295 12.5786 211.511C12.8892 211.723 13.2851 211.83 13.7661 211.83ZM23.4655 216.455C22.7723 216.455 22.1757 216.364 21.6757 216.182C21.1795 216 20.7742 215.759 20.4598 215.46C20.1454 215.161 19.9106 214.833 19.7553 214.477L21.2155 213.875C21.3178 214.042 21.4541 214.218 21.6246 214.403C21.7988 214.593 22.0337 214.754 22.3291 214.886C22.6284 215.019 23.0129 215.085 23.4826 215.085C24.1265 215.085 24.6587 214.928 25.0791 214.614C25.4996 214.303 25.7098 213.807 25.7098 213.125V211.409H25.6019C25.4996 211.595 25.3519 211.801 25.1587 212.028C24.9693 212.256 24.7079 212.453 24.3746 212.619C24.0413 212.786 23.6076 212.869 23.0735 212.869C22.3841 212.869 21.7629 212.708 21.2098 212.386C20.6606 212.061 20.225 211.581 19.903 210.949C19.5848 210.312 19.4257 209.53 19.4257 208.602C19.4257 207.674 19.5829 206.879 19.8973 206.216C20.2155 205.553 20.6511 205.045 21.2041 204.693C21.7572 204.337 22.3841 204.159 23.0848 204.159C23.6265 204.159 24.064 204.25 24.3973 204.432C24.7307 204.61 24.9901 204.818 25.1757 205.057C25.3651 205.295 25.511 205.506 25.6132 205.688H25.7382V204.273H27.403V213.193C27.403 213.943 27.2288 214.559 26.8803 215.04C26.5318 215.521 26.0602 215.877 25.4655 216.108C24.8746 216.339 24.2079 216.455 23.4655 216.455ZM23.4485 211.46C23.9371 211.46 24.35 211.347 24.6871 211.119C25.028 210.888 25.2856 210.559 25.4598 210.131C25.6379 209.699 25.7269 209.182 25.7269 208.58C25.7269 207.992 25.6398 207.475 25.4655 207.028C25.2913 206.581 25.0356 206.233 24.6985 205.983C24.3613 205.729 23.9447 205.602 23.4485 205.602C22.9371 205.602 22.511 205.735 22.1701 206C21.8291 206.261 21.5716 206.617 21.3973 207.068C21.2269 207.519 21.1416 208.023 21.1416 208.58C21.1416 209.152 21.2288 209.653 21.403 210.085C21.5773 210.517 21.8348 210.854 22.1757 211.097C22.5204 211.339 22.9447 211.46 23.4485 211.46ZM32.0612 213.193C31.5082 213.193 31.0082 213.091 30.5612 212.886C30.1142 212.678 29.7601 212.377 29.4987 211.983C29.2411 211.589 29.1123 211.106 29.1123 210.534C29.1123 210.042 29.207 209.636 29.3964 209.318C29.5858 209 29.8415 208.748 30.1635 208.562C30.4854 208.377 30.8453 208.237 31.243 208.142C31.6407 208.047 32.046 207.975 32.4589 207.926C32.9816 207.866 33.4059 207.816 33.7316 207.778C34.0574 207.737 34.2941 207.67 34.4419 207.58C34.5896 207.489 34.6635 207.341 34.6635 207.136V207.097C34.6635 206.6 34.5233 206.216 34.243 205.943C33.9665 205.67 33.5536 205.534 33.0044 205.534C32.4324 205.534 31.9816 205.661 31.6521 205.915C31.3263 206.165 31.101 206.443 30.976 206.75L29.3794 206.386C29.5688 205.856 29.8453 205.428 30.2089 205.102C30.5763 204.773 30.9987 204.534 31.476 204.386C31.9532 204.235 32.4551 204.159 32.9816 204.159C33.3301 204.159 33.6995 204.201 34.0896 204.284C34.4835 204.364 34.851 204.511 35.1919 204.727C35.5366 204.943 35.8188 205.252 36.0385 205.653C36.2582 206.051 36.368 206.568 36.368 207.205V213H34.7089V211.807H34.6407C34.5309 212.027 34.3661 212.242 34.1464 212.455C33.9267 212.667 33.6445 212.843 33.2998 212.983C32.9551 213.123 32.5423 213.193 32.0612 213.193ZM32.4305 211.83C32.9002 211.83 33.3017 211.737 33.6351 211.551C33.9722 211.366 34.2279 211.123 34.4021 210.824C34.5801 210.521 34.6691 210.197 34.6691 209.852V208.727C34.6085 208.788 34.4911 208.845 34.3169 208.898C34.1464 208.947 33.9513 208.991 33.7316 209.028C33.512 209.062 33.2979 209.095 33.0896 209.125C32.8813 209.152 32.707 209.174 32.5669 209.193C32.2373 209.235 31.9362 209.305 31.6635 209.403C31.3945 209.502 31.1786 209.644 31.0157 209.83C30.8566 210.011 30.7771 210.254 30.7771 210.557C30.7771 210.977 30.9324 211.295 31.243 211.511C31.5536 211.723 31.9495 211.83 32.4305 211.83ZM38.4708 213V204.273H40.1015V205.693H40.2094C40.3913 205.212 40.6886 204.837 41.1015 204.568C41.5144 204.295 42.0087 204.159 42.5844 204.159C43.1678 204.159 43.6564 204.295 44.0503 204.568C44.4481 204.841 44.7416 205.216 44.931 205.693H45.0219C45.2303 205.227 45.5617 204.856 46.0163 204.58C46.4708 204.299 47.0125 204.159 47.6413 204.159C48.4329 204.159 49.0788 204.407 49.5788 204.903C50.0825 205.4 50.3344 206.148 50.3344 207.148V213H48.6356V207.307C48.6356 206.716 48.4746 206.288 48.1526 206.023C47.8306 205.758 47.4462 205.625 46.9992 205.625C46.4462 205.625 46.0163 205.795 45.7094 206.136C45.4026 206.473 45.2492 206.907 45.2492 207.438V213H43.556V207.199C43.556 206.725 43.4083 206.345 43.1128 206.057C42.8174 205.769 42.4329 205.625 41.9594 205.625C41.6375 205.625 41.3401 205.71 41.0674 205.881C40.7984 206.047 40.5806 206.28 40.414 206.58C40.2511 206.879 40.1697 207.225 40.1697 207.619V213H38.4708ZM56.2128 213.176C55.3529 213.176 54.6124 212.992 53.9912 212.625C53.3738 212.254 52.8965 211.733 52.5594 211.062C52.226 210.388 52.0594 209.598 52.0594 208.693C52.0594 207.799 52.226 207.011 52.5594 206.33C52.8965 205.648 53.3662 205.116 53.9685 204.733C54.5745 204.35 55.2829 204.159 56.0935 204.159C56.5859 204.159 57.0632 204.241 57.5253 204.403C57.9874 204.566 58.4022 204.822 58.7696 205.17C59.137 205.519 59.4268 205.972 59.6389 206.528C59.851 207.081 59.9571 207.754 59.9571 208.545V209.148H53.0196V207.875H58.2923C58.2923 207.428 58.2014 207.032 58.0196 206.688C57.8378 206.339 57.5821 206.064 57.2526 205.864C56.9268 205.663 56.5442 205.562 56.1048 205.562C55.6276 205.562 55.2109 205.68 54.8548 205.915C54.5026 206.146 54.2298 206.449 54.0366 206.824C53.8473 207.195 53.7526 207.598 53.7526 208.034V209.028C53.7526 209.612 53.8548 210.108 54.0594 210.517C54.2677 210.926 54.5575 211.239 54.9287 211.455C55.2999 211.667 55.7336 211.773 56.2298 211.773C56.5518 211.773 56.8454 211.727 57.1105 211.636C57.3757 211.542 57.6048 211.402 57.798 211.216C57.9912 211.03 58.1389 210.801 58.2412 210.528L59.8491 210.818C59.7204 211.292 59.4893 211.706 59.156 212.062C58.8264 212.415 58.4116 212.689 57.9116 212.886C57.4154 213.08 56.8491 213.176 56.2128 213.176ZM63.3809 207.818V213H61.682V204.273H63.3127V205.693H63.4207C63.6214 205.231 63.9358 204.86 64.3639 204.58C64.7957 204.299 65.3392 204.159 65.9945 204.159C66.5892 204.159 67.1101 204.284 67.557 204.534C68.004 204.78 68.3506 205.148 68.5968 205.636C68.843 206.125 68.9661 206.729 68.9661 207.449V213H67.2673V207.653C67.2673 207.021 67.1025 206.527 66.773 206.17C66.4434 205.811 65.9908 205.631 65.415 205.631C65.0211 205.631 64.6707 205.716 64.3639 205.886C64.0608 206.057 63.8203 206.307 63.6423 206.636C63.468 206.962 63.3809 207.356 63.3809 207.818ZM75.1584 204.273V205.636H70.3914V204.273H75.1584ZM71.6698 202.182H73.3686V210.438C73.3686 210.767 73.4179 211.015 73.5164 211.182C73.6148 211.345 73.7417 211.456 73.897 211.517C74.0561 211.574 74.2285 211.602 74.4141 211.602C74.5505 211.602 74.6698 211.593 74.772 211.574C74.8743 211.555 74.9539 211.54 75.0107 211.528L75.3175 212.932C75.219 212.97 75.0789 213.008 74.897 213.045C74.7152 213.087 74.488 213.11 74.2152 213.114C73.7683 213.121 73.3516 213.042 72.9652 212.875C72.5789 212.708 72.2664 212.451 72.0277 212.102C71.7891 211.754 71.6698 211.316 71.6698 210.79V202.182ZM80.4601 213.176C79.6419 213.176 78.9279 212.989 78.318 212.614C77.7082 212.239 77.2347 211.714 76.8976 211.04C76.5604 210.366 76.3919 209.578 76.3919 208.676C76.3919 207.771 76.5604 206.979 76.8976 206.301C77.2347 205.623 77.7082 205.097 78.318 204.722C78.9279 204.347 79.6419 204.159 80.4601 204.159C81.2782 204.159 81.9923 204.347 82.6021 204.722C83.212 205.097 83.6854 205.623 84.0226 206.301C84.3597 206.979 84.5282 207.771 84.5282 208.676C84.5282 209.578 84.3597 210.366 84.0226 211.04C83.6854 211.714 83.212 212.239 82.6021 212.614C81.9923 212.989 81.2782 213.176 80.4601 213.176ZM80.4657 211.75C80.996 211.75 81.4354 211.61 81.7839 211.33C82.1324 211.049 82.39 210.676 82.5566 210.21C82.7271 209.744 82.8123 209.231 82.8123 208.67C82.8123 208.114 82.7271 207.602 82.5566 207.136C82.39 206.667 82.1324 206.29 81.7839 206.006C81.4354 205.722 80.996 205.58 80.4657 205.58C79.9316 205.58 79.4885 205.722 79.1362 206.006C78.7877 206.29 78.5282 206.667 78.3578 207.136C78.1911 207.602 78.1078 208.114 78.1078 208.67C78.1078 209.231 78.1911 209.744 78.3578 210.21C78.5282 210.676 78.7877 211.049 79.1362 211.33C79.4885 211.61 79.9316 211.75 80.4657 211.75ZM92.8043 206.403L91.2645 206.676C91.2001 206.479 91.0979 206.292 90.9577 206.114C90.8214 205.936 90.6358 205.79 90.4009 205.676C90.1661 205.562 89.8725 205.506 89.5202 205.506C89.0392 205.506 88.6376 205.614 88.3157 205.83C87.9937 206.042 87.8327 206.316 87.8327 206.653C87.8327 206.945 87.9407 207.18 88.1566 207.358C88.3725 207.536 88.721 207.682 89.202 207.795L90.5884 208.114C91.3914 208.299 91.9899 208.585 92.3839 208.972C92.7778 209.358 92.9748 209.86 92.9748 210.477C92.9748 211 92.8233 211.466 92.5202 211.875C92.221 212.28 91.8024 212.598 91.2645 212.83C90.7305 213.061 90.1111 213.176 89.4066 213.176C88.4293 213.176 87.632 212.968 87.0145 212.551C86.3971 212.131 86.0183 211.534 85.8782 210.761L87.5202 210.511C87.6225 210.939 87.8327 211.263 88.1509 211.483C88.4691 211.699 88.8839 211.807 89.3952 211.807C89.952 211.807 90.3971 211.691 90.7305 211.46C91.0638 211.225 91.2305 210.939 91.2305 210.602C91.2305 210.33 91.1282 210.1 90.9236 209.915C90.7229 209.729 90.4142 209.589 89.9975 209.494L88.5202 209.17C87.7058 208.985 87.1036 208.689 86.7134 208.284C86.327 207.879 86.1339 207.366 86.1339 206.744C86.1339 206.229 86.2778 205.778 86.5657 205.392C86.8536 205.006 87.2513 204.705 87.7589 204.489C88.2664 204.269 88.8479 204.159 89.5032 204.159C90.4464 204.159 91.1888 204.364 91.7305 204.773C92.2721 205.178 92.6301 205.722 92.8043 206.403ZM95.802 213.108C95.4914 213.108 95.2243 212.998 95.0009 212.778C94.7774 212.555 94.6656 212.286 94.6656 211.972C94.6656 211.661 94.7774 211.396 95.0009 211.176C95.2243 210.953 95.4914 210.841 95.802 210.841C96.1126 210.841 96.3796 210.953 96.6031 211.176C96.8266 211.396 96.9384 211.661 96.9384 211.972C96.9384 212.18 96.8853 212.371 96.7793 212.545C96.677 212.716 96.5406 212.852 96.3702 212.955C96.1997 213.057 96.0103 213.108 95.802 213.108Z" fill="#00051B"/>
</svg>
