<svg width="148" height="54" viewBox="0 0 148 54" fill="none" xmlns="http://www.w3.org/2000/svg">
<rect width="147.5" height="54" rx="27" fill="#ECECEC"/>
<mask id="mask0_384_2477" style="mask-type:alpha" maskUnits="userSpaceOnUse" x="28" y="15" width="25" height="24">
<rect x="28.75" y="15" width="24" height="24" fill="#D9D9D9"/>
</mask>
<g mask="url(#mask0_384_2477)">
<path d="M36.575 28L42.175 33.6L40.75 35L32.75 27L40.75 19L42.175 20.4L36.575 26H48.75V28H36.575Z" fill="#00051B"/>
</g>
<path d="M65.0618 32H63.093L66.6776 21.8182H68.9545L72.544 32H70.5753L67.8558 23.9062H67.7763L65.0618 32ZM65.1264 28.0078H70.4957V29.4893H65.1264V28.0078ZM75.6053 27.5256V32H73.8056V24.3636H75.5257V25.6612H75.6152C75.7909 25.2337 76.071 24.8939 76.4554 24.642C76.8432 24.3902 77.3221 24.2642 77.8922 24.2642C78.4192 24.2642 78.8783 24.3769 79.2694 24.6023C79.6638 24.8277 79.9687 25.1541 80.1841 25.5817C80.4029 26.0092 80.5106 26.5279 80.5073 27.1378V32H78.7076V27.4162C78.7076 26.9058 78.575 26.5064 78.3098 26.218C78.048 25.9297 77.6851 25.7855 77.2211 25.7855C76.9062 25.7855 76.6261 25.8551 76.3809 25.9943C76.1389 26.1302 75.9483 26.3274 75.8091 26.5859C75.6732 26.8445 75.6053 27.1577 75.6053 27.5256ZM86.15 24.3636V25.7557H81.7601V24.3636H86.15ZM82.8439 22.5341H84.6436V29.7031C84.6436 29.9451 84.6801 30.1307 84.753 30.2599C84.8292 30.3859 84.9287 30.4721 85.0513 30.5185C85.1739 30.5649 85.3098 30.5881 85.459 30.5881C85.5717 30.5881 85.6744 30.5798 85.7672 30.5632C85.8633 30.5466 85.9363 30.5317 85.986 30.5185L86.2892 31.9254C86.1931 31.9586 86.0556 31.995 85.8766 32.0348C85.7009 32.0746 85.4855 32.0978 85.2303 32.1044C84.7795 32.1177 84.3735 32.0497 84.0123 31.9006C83.651 31.7481 83.3643 31.5128 83.1522 31.1946C82.9434 30.8764 82.8406 30.4787 82.8439 30.0014V22.5341ZM90.9538 32.1491C90.1882 32.1491 89.527 31.9901 88.9702 31.6719C88.4167 31.3504 87.9908 30.8963 87.6925 30.3097C87.3942 29.7197 87.245 29.0253 87.245 28.2266C87.245 27.4411 87.3942 26.7517 87.6925 26.1584C87.9941 25.5618 88.415 25.0978 88.9553 24.7663C89.4955 24.4316 90.1302 24.2642 90.8594 24.2642C91.33 24.2642 91.7741 24.3404 92.1918 24.4929C92.6127 24.642 92.9839 24.8741 93.3054 25.1889C93.6302 25.5038 93.8854 25.9048 94.071 26.392C94.2566 26.8759 94.3494 27.4527 94.3494 28.1222V28.674H88.0902V27.4609H92.6243C92.621 27.1162 92.5464 26.8097 92.4006 26.5412C92.2547 26.2694 92.0509 26.0556 91.7891 25.8999C91.5305 25.7441 91.2289 25.6662 90.8842 25.6662C90.5163 25.6662 90.1932 25.7557 89.9148 25.9347C89.6364 26.1103 89.4193 26.3423 89.2635 26.6307C89.111 26.9157 89.0331 27.2289 89.0298 27.5703V28.6293C89.0298 29.0734 89.111 29.4545 89.2734 29.7727C89.4358 30.0876 89.6629 30.3295 89.9545 30.4986C90.2462 30.6643 90.5876 30.7472 90.9787 30.7472C91.2405 30.7472 91.4775 30.7107 91.6896 30.6378C91.9018 30.5616 92.0857 30.4505 92.2415 30.3047C92.3973 30.1589 92.5149 29.9782 92.5945 29.7628L94.2749 29.9517C94.1688 30.3958 93.9666 30.7836 93.6683 31.1151C93.3733 31.4432 92.9955 31.6984 92.5348 31.8807C92.0741 32.0597 91.5471 32.1491 90.9538 32.1491ZM95.872 32V24.3636H97.617V25.6364H97.6966C97.8358 25.1955 98.0744 24.8558 98.4125 24.6172C98.7538 24.3752 99.1433 24.2543 99.5808 24.2543C99.6802 24.2543 99.7913 24.2592 99.9139 24.2692C100.04 24.2758 100.144 24.2874 100.227 24.304V25.9595C100.151 25.933 100.03 25.9098 99.8642 25.8899C99.7018 25.8667 99.5443 25.8551 99.3919 25.8551C99.0637 25.8551 98.7688 25.9264 98.5069 26.0689C98.2484 26.2081 98.0446 26.402 97.8954 26.6506C97.7463 26.8991 97.6717 27.1858 97.6717 27.5107V32H95.872ZM101.423 32V24.3636H103.222V32H101.423ZM102.328 23.2798C102.043 23.2798 101.797 23.1854 101.592 22.9964C101.386 22.8042 101.284 22.5739 101.284 22.3054C101.284 22.0336 101.386 21.8033 101.592 21.6143C101.797 21.4221 102.043 21.326 102.328 21.326C102.616 21.326 102.861 21.4221 103.063 21.6143C103.269 21.8033 103.372 22.0336 103.372 22.3054C103.372 22.5739 103.269 22.8042 103.063 22.9964C102.861 23.1854 102.616 23.2798 102.328 23.2798ZM108.404 32.1491C107.658 32.1491 107.012 31.9851 106.465 31.657C105.918 31.3288 105.494 30.8698 105.192 30.2798C104.894 29.6899 104.745 29.0005 104.745 28.2116C104.745 27.4228 104.894 26.7318 105.192 26.1385C105.494 25.5452 105.918 25.0845 106.465 24.7564C107.012 24.4283 107.658 24.2642 108.404 24.2642C109.15 24.2642 109.796 24.4283 110.343 24.7564C110.89 25.0845 111.313 25.5452 111.611 26.1385C111.912 26.7318 112.063 27.4228 112.063 28.2116C112.063 29.0005 111.912 29.6899 111.611 30.2798C111.313 30.8698 110.89 31.3288 110.343 31.657C109.796 31.9851 109.15 32.1491 108.404 32.1491ZM108.414 30.7074C108.818 30.7074 109.156 30.5964 109.428 30.3743C109.7 30.1489 109.902 29.8473 110.035 29.4695C110.171 29.0916 110.239 28.6707 110.239 28.2067C110.239 27.7393 110.171 27.3168 110.035 26.9389C109.902 26.5578 109.7 26.2545 109.428 26.0291C109.156 25.8037 108.818 25.6911 108.414 25.6911C108 25.6911 107.655 25.8037 107.38 26.0291C107.108 26.2545 106.904 26.5578 106.768 26.9389C106.636 27.3168 106.57 27.7393 106.57 28.2067C106.57 28.6707 106.636 29.0916 106.768 29.4695C106.904 29.8473 107.108 30.1489 107.38 30.3743C107.655 30.5964 108 30.7074 108.414 30.7074ZM113.591 32V24.3636H115.336V25.6364H115.415C115.555 25.1955 115.793 24.8558 116.131 24.6172C116.473 24.3752 116.862 24.2543 117.3 24.2543C117.399 24.2543 117.51 24.2592 117.633 24.2692C117.759 24.2758 117.863 24.2874 117.946 24.304V25.9595C117.87 25.933 117.749 25.9098 117.583 25.8899C117.421 25.8667 117.263 25.8551 117.111 25.8551C116.782 25.8551 116.488 25.9264 116.226 26.0689C115.967 26.2081 115.763 26.402 115.614 26.6506C115.465 26.8991 115.39 27.1858 115.39 27.5107V32H113.591Z" fill="#00051B"/>
</svg>
