<svg width="281" height="211" viewBox="0 0 281 211" fill="none" xmlns="http://www.w3.org/2000/svg">
<path d="M21.3182 9.81818C21.1136 8.09091 20.2841 6.75 18.8295 5.79545C17.375 4.84091 15.5909 4.36364 13.4773 4.36364C11.9318 4.36364 10.5795 4.61364 9.42045 5.11364C8.27273 5.61364 7.375 6.30114 6.72727 7.17614C6.09091 8.05114 5.77273 9.04545 5.77273 10.1591C5.77273 11.0909 5.99432 11.892 6.4375 12.5625C6.89205 13.2216 7.47159 13.7727 8.17614 14.2159C8.88068 14.6477 9.61932 15.0057 10.392 15.2898C11.1648 15.5625 11.875 15.7841 12.5227 15.9545L16.0682 16.9091C16.9773 17.1477 17.9886 17.4773 19.1023 17.8977C20.2273 18.3182 21.3011 18.892 22.3239 19.6193C23.358 20.3352 24.2102 21.2557 24.8807 22.3807C25.5511 23.5057 25.8864 24.8864 25.8864 26.5227C25.8864 28.4091 25.392 30.1136 24.4034 31.6364C23.4261 33.1591 21.9943 34.3693 20.108 35.267C18.233 36.1648 15.9545 36.6136 13.2727 36.6136C10.7727 36.6136 8.60795 36.2102 6.77841 35.4034C4.96023 34.5966 3.52841 33.4716 2.48295 32.0284C1.44886 30.5852 0.863636 28.9091 0.727273 27H5.09091C5.20455 28.3182 5.64773 29.4091 6.42045 30.2727C7.20455 31.125 8.19318 31.7614 9.38636 32.1818C10.5909 32.5909 11.8864 32.7955 13.2727 32.7955C14.8864 32.7955 16.3352 32.5341 17.6193 32.0114C18.9034 31.4773 19.9205 30.7386 20.6705 29.7955C21.4205 28.8409 21.7955 27.7273 21.7955 26.4545C21.7955 25.2955 21.4716 24.3523 20.8239 23.625C20.1761 22.8977 19.3239 22.3068 18.267 21.8523C17.2102 21.3977 16.0682 21 14.8409 20.6591L10.5455 19.4318C7.81818 18.6477 5.65909 17.5284 4.06818 16.0739C2.47727 14.6193 1.68182 12.7159 1.68182 10.3636C1.68182 8.40909 2.21023 6.70454 3.26705 5.25C4.33523 3.78409 5.76705 2.64773 7.5625 1.84091C9.36932 1.02273 11.3864 0.613635 13.6136 0.613635C15.8636 0.613635 17.8636 1.01704 19.6136 1.82386C21.3636 2.61932 22.75 3.71023 23.7727 5.09659C24.8068 6.48295 25.3523 8.05682 25.4091 9.81818H21.3182ZM39.9085 36.5455C37.3857 36.5455 35.2096 35.9886 33.3801 34.875C31.5619 33.75 30.1585 32.1818 29.1698 30.1705C28.1926 28.1477 27.7039 25.7955 27.7039 23.1136C27.7039 20.4318 28.1926 18.0682 29.1698 16.0227C30.1585 13.9659 31.5335 12.3636 33.2948 11.2159C35.0676 10.0568 37.1357 9.47727 39.4994 9.47727C40.863 9.47727 42.2096 9.70455 43.5391 10.1591C44.8687 10.6136 46.0789 11.3523 47.1698 12.375C48.2607 13.3864 49.1301 14.7273 49.7778 16.3977C50.4255 18.0682 50.7494 20.125 50.7494 22.5682V24.2727H30.5676V20.7955H46.6585C46.6585 19.3182 46.363 18 45.7721 16.8409C45.1926 15.6818 44.363 14.767 43.2835 14.0966C42.2153 13.4261 40.9539 13.0909 39.4994 13.0909C37.8971 13.0909 36.5107 13.4886 35.3403 14.2841C34.1812 15.0682 33.2891 16.0909 32.6641 17.3523C32.0391 18.6136 31.7266 19.9659 31.7266 21.4091V23.7273C31.7266 25.7045 32.0676 27.3807 32.7494 28.7557C33.4426 30.1193 34.4028 31.1591 35.6301 31.875C36.8573 32.5795 38.2835 32.9318 39.9085 32.9318C40.9653 32.9318 41.9198 32.7841 42.7721 32.4886C43.6357 32.1818 44.3801 31.7273 45.0051 31.125C45.6301 30.5114 46.113 29.75 46.4539 28.8409L50.3403 29.9318C49.9312 31.25 49.2437 32.4091 48.2778 33.4091C47.3119 34.3977 46.1187 35.1705 44.6982 35.7273C43.2778 36.2727 41.6812 36.5455 39.9085 36.5455ZM70.0087 25.2955V9.81818H74.0314V36H70.0087V31.5682H69.736C69.1223 32.8977 68.1678 34.0284 66.8723 34.9602C65.5769 35.8807 63.9405 36.3409 61.9632 36.3409C60.3269 36.3409 58.8723 35.983 57.5996 35.267C56.3269 34.5398 55.3269 33.4489 54.5996 31.9943C53.8723 30.5284 53.5087 28.6818 53.5087 26.4545V9.81818H57.5314V26.1818C57.5314 28.0909 58.0655 29.6136 59.1337 30.75C60.2132 31.8864 61.5882 32.4545 63.2587 32.4545C64.2587 32.4545 65.2757 32.1989 66.3098 31.6875C67.3553 31.1761 68.2303 30.392 68.9348 29.3352C69.6507 28.2784 70.0087 26.9318 70.0087 25.2955ZM92.202 1.09091V36H88.1793V1.09091H92.202ZM96.2099 36V9.81818H100.233V36H96.2099ZM98.2554 5.45455C97.4713 5.45455 96.7952 5.1875 96.227 4.65341C95.6702 4.11932 95.3918 3.47727 95.3918 2.72727C95.3918 1.97727 95.6702 1.33523 96.227 0.801135C96.7952 0.267045 97.4713 0 98.2554 0C99.0395 0 99.7099 0.267045 100.267 0.801135C100.835 1.33523 101.119 1.97727 101.119 2.72727C101.119 3.47727 100.835 4.11932 100.267 4.65341C99.7099 5.1875 99.0395 5.45455 98.2554 5.45455ZM108.263 20.25V36H104.241V9.81818H108.127V13.9091H108.468C109.081 12.5795 110.013 11.5114 111.263 10.7045C112.513 9.88636 114.127 9.47727 116.104 9.47727C117.877 9.47727 119.428 9.84091 120.758 10.5682C122.087 11.2841 123.121 12.375 123.86 13.8409C124.599 15.2955 124.968 17.1364 124.968 19.3636V36H120.945V19.6364C120.945 17.5795 120.411 15.9773 119.343 14.8295C118.275 13.6705 116.809 13.0909 114.945 13.0909C113.661 13.0909 112.513 13.3693 111.502 13.9261C110.502 14.483 109.712 15.2955 109.133 16.3636C108.553 17.4318 108.263 18.7273 108.263 20.25ZM132.709 26.4545L132.641 21.4773H133.459L144.913 9.81818H149.891L137.686 22.1591H137.345L132.709 26.4545ZM128.959 36V1.09091H132.981V36H128.959ZM145.595 36L135.368 23.0455L138.231 20.25L150.709 36H145.595ZM171.734 36.5455C169.553 36.5455 167.626 35.9943 165.956 34.892C164.286 33.7784 162.979 32.2102 162.036 30.1875C161.092 28.1534 160.621 25.75 160.621 22.9773C160.621 20.2273 161.092 17.8409 162.036 15.8182C162.979 13.7955 164.291 12.233 165.973 11.1307C167.655 10.0284 169.598 9.47727 171.803 9.47727C173.507 9.47727 174.854 9.76136 175.842 10.3295C176.842 10.8864 177.604 11.5227 178.126 12.2386C178.661 12.9432 179.075 13.5227 179.371 13.9773H179.712V1.09091H183.734V36H179.848V31.9773H179.371C179.075 32.4545 178.655 33.0568 178.109 33.7841C177.564 34.5 176.786 35.142 175.774 35.7102C174.763 36.267 173.416 36.5455 171.734 36.5455ZM172.28 32.9318C173.894 32.9318 175.257 32.5114 176.371 31.6705C177.484 30.8182 178.331 29.642 178.911 28.142C179.49 26.6307 179.78 24.8864 179.78 22.9091C179.78 20.9545 179.496 19.2443 178.928 17.7784C178.359 16.3011 177.519 15.1534 176.405 14.3352C175.291 13.5057 173.916 13.0909 172.28 13.0909C170.575 13.0909 169.155 13.5284 168.019 14.4034C166.894 15.267 166.047 16.4432 165.479 17.9318C164.922 19.4091 164.644 21.0682 164.644 22.9091C164.644 24.7727 164.928 26.4659 165.496 27.9886C166.075 29.5 166.928 30.7045 168.053 31.6023C169.189 32.4886 170.598 32.9318 172.28 32.9318ZM199.278 36.5455C196.755 36.5455 194.579 35.9886 192.749 34.875C190.931 33.75 189.528 32.1818 188.539 30.1705C187.562 28.1477 187.073 25.7955 187.073 23.1136C187.073 20.4318 187.562 18.0682 188.539 16.0227C189.528 13.9659 190.903 12.3636 192.664 11.2159C194.437 10.0568 196.505 9.47727 198.869 9.47727C200.232 9.47727 201.579 9.70455 202.909 10.1591C204.238 10.6136 205.448 11.3523 206.539 12.375C207.63 13.3864 208.499 14.7273 209.147 16.3977C209.795 18.0682 210.119 20.125 210.119 22.5682V24.2727H189.937V20.7955H206.028C206.028 19.3182 205.732 18 205.141 16.8409C204.562 15.6818 203.732 14.767 202.653 14.0966C201.585 13.4261 200.323 13.0909 198.869 13.0909C197.266 13.0909 195.88 13.4886 194.71 14.2841C193.551 15.0682 192.659 16.0909 192.034 17.3523C191.409 18.6136 191.096 19.9659 191.096 21.4091V23.7273C191.096 25.7045 191.437 27.3807 192.119 28.7557C192.812 30.1193 193.772 31.1591 194.999 31.875C196.227 32.5795 197.653 32.9318 199.278 32.9318C200.335 32.9318 201.289 32.7841 202.141 32.4886C203.005 32.1818 203.749 31.7273 204.374 31.125C204.999 30.5114 205.482 29.75 205.823 28.8409L209.71 29.9318C209.301 31.25 208.613 32.4091 207.647 33.4091C206.681 34.3977 205.488 35.1705 204.068 35.7273C202.647 36.2727 201.051 36.5455 199.278 36.5455ZM1.68182 103.818V67.8182H5.56818V71.9773H6.04545C6.34091 71.5227 6.75 70.9432 7.27273 70.2386C7.80682 69.5227 8.56818 68.8864 9.55682 68.3295C10.5568 67.7614 11.9091 67.4773 13.6136 67.4773C15.8182 67.4773 17.7614 68.0284 19.4432 69.1307C21.125 70.233 22.4375 71.7955 23.3807 73.8182C24.3239 75.8409 24.7955 78.2273 24.7955 80.9773C24.7955 83.75 24.3239 86.1534 23.3807 88.1875C22.4375 90.2102 21.1307 91.7784 19.4602 92.892C17.7898 93.9943 15.8636 94.5455 13.6818 94.5455C12 94.5455 10.6534 94.267 9.64205 93.7102C8.63068 93.142 7.85227 92.5 7.30682 91.7841C6.76136 91.0568 6.34091 90.4545 6.04545 89.9773H5.70455V103.818H1.68182ZM5.63636 80.9091C5.63636 82.8864 5.92614 84.6307 6.50568 86.142C7.08523 87.642 7.93182 88.8182 9.04545 89.6705C10.1591 90.5114 11.5227 90.9318 13.1364 90.9318C14.8182 90.9318 16.2216 90.4886 17.3466 89.6023C18.483 88.7045 19.3352 87.5 19.9034 85.9886C20.483 84.4659 20.7727 82.7727 20.7727 80.9091C20.7727 79.0682 20.4886 77.4091 19.9205 75.9318C19.3636 74.4432 18.517 73.267 17.3807 72.4034C16.2557 71.5284 14.8409 71.0909 13.1364 71.0909C11.5 71.0909 10.125 71.5057 9.01136 72.3352C7.89773 73.1534 7.05682 74.3011 6.48864 75.7784C5.92045 77.2443 5.63636 78.9545 5.63636 80.9091ZM35.2764 94.6136C33.6173 94.6136 32.1116 94.3011 30.7593 93.6761C29.407 93.0398 28.3332 92.125 27.5377 90.9318C26.7423 89.7273 26.3445 88.2727 26.3445 86.5682C26.3445 85.0682 26.64 83.8523 27.2309 82.9205C27.8218 81.9773 28.6116 81.2386 29.6002 80.7045C30.5889 80.1705 31.6798 79.7727 32.873 79.5114C34.0775 79.2386 35.2877 79.0227 36.5036 78.8636C38.0945 78.6591 39.3843 78.5057 40.373 78.4034C41.373 78.2898 42.1002 78.1023 42.5548 77.8409C43.0207 77.5795 43.2536 77.125 43.2536 76.4773V76.3409C43.2536 74.6591 42.7934 73.3523 41.873 72.4205C40.9639 71.4886 39.5832 71.0227 37.7309 71.0227C35.8105 71.0227 34.3048 71.4432 33.2139 72.2841C32.123 73.125 31.3559 74.0227 30.9127 74.9773L27.0945 73.6136C27.7764 72.0227 28.6855 70.7841 29.8218 69.8977C30.9695 69 32.2195 68.375 33.5718 68.0227C34.9355 67.6591 36.2764 67.4773 37.5945 67.4773C38.4355 67.4773 39.4014 67.5795 40.4923 67.7841C41.5945 67.9773 42.657 68.3807 43.6798 68.9943C44.7139 69.608 45.5718 70.5341 46.2536 71.7727C46.9355 73.0114 47.2764 74.6705 47.2764 76.75V94H43.2536V90.4545H43.0491C42.7764 91.0227 42.3218 91.6307 41.6855 92.2784C41.0491 92.9261 40.2025 93.4773 39.1457 93.9318C38.0889 94.3864 36.7991 94.6136 35.2764 94.6136ZM35.89 91C37.4809 91 38.8218 90.6875 39.9127 90.0625C41.015 89.4375 41.8445 88.6307 42.4014 87.642C42.9695 86.6534 43.2536 85.6136 43.2536 84.5227V80.8409C43.0832 81.0455 42.7082 81.233 42.1286 81.4034C41.5605 81.5625 40.9014 81.7045 40.1514 81.8295C39.4127 81.9432 38.6911 82.0455 37.9866 82.1364C37.2934 82.2159 36.7309 82.2841 36.2991 82.3409C35.2536 82.4773 34.2764 82.6989 33.3673 83.0057C32.4695 83.3011 31.7423 83.75 31.1855 84.3523C30.64 84.9432 30.3673 85.75 30.3673 86.7727C30.3673 88.1705 30.8843 89.2273 31.9184 89.9432C32.9639 90.6477 34.2877 91 35.89 91ZM61.8269 104.364C59.8837 104.364 58.2132 104.114 56.8155 103.614C55.4178 103.125 54.253 102.477 53.3212 101.67C52.4007 100.875 51.6678 100.023 51.1223 99.1136L54.3269 96.8636C54.6905 97.3409 55.1507 97.8864 55.7076 98.5C56.2644 99.125 57.0257 99.6648 57.9916 100.119C58.9689 100.585 60.2473 100.818 61.8269 100.818C63.9405 100.818 65.6848 100.307 67.0598 99.2841C68.4348 98.2614 69.1223 96.6591 69.1223 94.4773V89.1591H68.7814C68.486 89.6364 68.0655 90.2273 67.5201 90.9318C66.986 91.625 66.2132 92.2443 65.2019 92.7898C64.2019 93.3239 62.8496 93.5909 61.1451 93.5909C59.0314 93.5909 57.1337 93.0909 55.4519 92.0909C53.7814 91.0909 52.4576 89.6364 51.4803 87.7273C50.5144 85.8182 50.0314 83.5 50.0314 80.7727C50.0314 78.0909 50.503 75.7557 51.4462 73.767C52.3894 71.767 53.7019 70.2216 55.3837 69.1307C57.0655 68.0284 59.0087 67.4773 61.2132 67.4773C62.9178 67.4773 64.2701 67.7614 65.2701 68.3295C66.2814 68.8864 67.0541 69.5227 67.5882 70.2386C68.1337 70.9432 68.5541 71.5227 68.8496 71.9773H69.2587V67.8182H73.1451V94.75C73.1451 97 72.6337 98.8295 71.611 100.239C70.5996 101.659 69.236 102.699 67.5201 103.358C65.8155 104.028 63.9178 104.364 61.8269 104.364ZM61.6905 89.9773C63.3041 89.9773 64.6678 89.608 65.7814 88.8693C66.8951 88.1307 67.7416 87.0682 68.3212 85.6818C68.9007 84.2955 69.1905 82.6364 69.1905 80.7045C69.1905 78.8182 68.9064 77.1534 68.3382 75.7102C67.7701 74.267 66.9291 73.1364 65.8155 72.3182C64.7019 71.5 63.3269 71.0909 61.6905 71.0909C59.986 71.0909 58.5655 71.5227 57.4291 72.3864C56.3041 73.25 55.4576 74.4091 54.8894 75.8636C54.3326 77.3182 54.0541 78.9318 54.0541 80.7045C54.0541 82.5227 54.3382 84.1307 54.9064 85.5284C55.486 86.9148 56.3382 88.0057 57.4632 88.8011C58.5996 89.5852 60.0087 89.9773 61.6905 89.9773ZM84.8532 94.6136C83.1941 94.6136 81.6885 94.3011 80.3362 93.6761C78.9839 93.0398 77.9101 92.125 77.1146 90.9318C76.3191 89.7273 75.9214 88.2727 75.9214 86.5682C75.9214 85.0682 76.2169 83.8523 76.8078 82.9205C77.3987 81.9773 78.1885 81.2386 79.1771 80.7045C80.1657 80.1705 81.2566 79.7727 82.4498 79.5114C83.6544 79.2386 84.8646 79.0227 86.0805 78.8636C87.6714 78.6591 88.9612 78.5057 89.9498 78.4034C90.9498 78.2898 91.6771 78.1023 92.1316 77.8409C92.5976 77.5795 92.8305 77.125 92.8305 76.4773V76.3409C92.8305 74.6591 92.3703 73.3523 91.4498 72.4205C90.5407 71.4886 89.1601 71.0227 87.3078 71.0227C85.3873 71.0227 83.8816 71.4432 82.7907 72.2841C81.6998 73.125 80.9328 74.0227 80.4896 74.9773L76.6714 73.6136C77.3532 72.0227 78.2623 70.7841 79.3987 69.8977C80.5464 69 81.7964 68.375 83.1487 68.0227C84.5123 67.6591 85.8532 67.4773 87.1714 67.4773C88.0123 67.4773 88.9782 67.5795 90.0691 67.7841C91.1714 67.9773 92.2339 68.3807 93.2566 68.9943C94.2907 69.608 95.1487 70.5341 95.8305 71.7727C96.5123 73.0114 96.8532 74.6705 96.8532 76.75V94H92.8305V90.4545H92.626C92.3532 91.0227 91.8987 91.6307 91.2623 92.2784C90.626 92.9261 89.7794 93.4773 88.7226 93.9318C87.6657 94.3864 86.376 94.6136 84.8532 94.6136ZM85.4669 91C87.0578 91 88.3987 90.6875 89.4896 90.0625C90.5919 89.4375 91.4214 88.6307 91.9782 87.642C92.5464 86.6534 92.8305 85.6136 92.8305 84.5227V80.8409C92.6601 81.0455 92.2851 81.233 91.7055 81.4034C91.1373 81.5625 90.4782 81.7045 89.7282 81.8295C88.9896 81.9432 88.268 82.0455 87.5635 82.1364C86.8703 82.2159 86.3078 82.2841 85.876 82.3409C84.8305 82.4773 83.8532 82.6989 82.9441 83.0057C82.0464 83.3011 81.3191 83.75 80.7623 84.3523C80.2169 84.9432 79.9441 85.75 79.9441 86.7727C79.9441 88.1705 80.4612 89.2273 81.4953 89.9432C82.5407 90.6477 83.8646 91 85.4669 91ZM100.836 94V67.8182H104.722V71.9091H105.063C105.608 70.5114 106.489 69.4261 107.705 68.6534C108.921 67.8693 110.381 67.4773 112.086 67.4773C113.813 67.4773 115.25 67.8693 116.398 68.6534C117.557 69.4261 118.461 70.5114 119.108 71.9091H119.381C120.051 70.5568 121.057 69.483 122.398 68.6875C123.739 67.8807 125.347 67.4773 127.222 67.4773C129.563 67.4773 131.478 68.2102 132.966 69.6761C134.455 71.1307 135.199 73.3977 135.199 76.4773V94H131.176V76.4773C131.176 74.5455 130.648 73.1648 129.591 72.3352C128.534 71.5057 127.29 71.0909 125.858 71.0909C124.017 71.0909 122.591 71.6477 121.58 72.7614C120.569 73.8636 120.063 75.2614 120.063 76.9545V94H115.972V76.0682C115.972 74.5795 115.489 73.3807 114.523 72.4716C113.557 71.5511 112.313 71.0909 110.79 71.0909C109.745 71.0909 108.767 71.3693 107.858 71.9261C106.961 72.483 106.233 73.2557 105.676 74.2443C105.131 75.2216 104.858 76.3523 104.858 77.6364V94H100.836ZM150.172 94.5455C147.649 94.5455 145.473 93.9886 143.643 92.875C141.825 91.75 140.422 90.1818 139.433 88.1705C138.456 86.1477 137.967 83.7955 137.967 81.1136C137.967 78.4318 138.456 76.0682 139.433 74.0227C140.422 71.9659 141.797 70.3636 143.558 69.2159C145.331 68.0568 147.399 67.4773 149.762 67.4773C151.126 67.4773 152.473 67.7045 153.802 68.1591C155.132 68.6136 156.342 69.3523 157.433 70.375C158.524 71.3864 159.393 72.7273 160.041 74.3977C160.689 76.0682 161.012 78.125 161.012 80.5682V82.2727H140.831V78.7955H156.922C156.922 77.3182 156.626 76 156.035 74.8409C155.456 73.6818 154.626 72.767 153.547 72.0966C152.478 71.4261 151.217 71.0909 149.762 71.0909C148.16 71.0909 146.774 71.4886 145.603 72.2841C144.444 73.0682 143.552 74.0909 142.927 75.3523C142.302 76.6136 141.99 77.9659 141.99 79.4091V81.7273C141.99 83.7045 142.331 85.3807 143.012 86.7557C143.706 88.1193 144.666 89.1591 145.893 89.875C147.12 90.5795 148.547 90.9318 150.172 90.9318C151.228 90.9318 152.183 90.7841 153.035 90.4886C153.899 90.1818 154.643 89.7273 155.268 89.125C155.893 88.5114 156.376 87.75 156.717 86.8409L160.603 87.9318C160.194 89.25 159.507 90.4091 158.541 91.4091C157.575 92.3977 156.382 93.1705 154.961 93.7273C153.541 94.2727 151.944 94.5455 150.172 94.5455ZM167.795 78.25V94H163.772V67.8182H167.658V71.9091H167.999C168.613 70.5795 169.545 69.5114 170.795 68.7045C172.045 67.8864 173.658 67.4773 175.635 67.4773C177.408 67.4773 178.959 67.8409 180.289 68.5682C181.618 69.2841 182.652 70.375 183.391 71.8409C184.13 73.2955 184.499 75.1364 184.499 77.3636V94H180.476V77.6364C180.476 75.5795 179.942 73.9773 178.874 72.8295C177.806 71.6705 176.34 71.0909 174.476 71.0909C173.192 71.0909 172.045 71.3693 171.033 71.9261C170.033 72.483 169.243 73.2955 168.664 74.3636C168.084 75.4318 167.795 76.7273 167.795 78.25ZM199.876 67.8182V71.2273H186.308V67.8182H199.876ZM190.263 61.5455H194.285V86.5C194.285 87.6364 194.45 88.4886 194.78 89.0568C195.121 89.6136 195.552 89.9886 196.075 90.1818C196.609 90.3636 197.172 90.4545 197.763 90.4545C198.206 90.4545 198.569 90.4318 198.854 90.3864C199.138 90.3295 199.365 90.2841 199.535 90.25L200.354 93.8636C200.081 93.9659 199.7 94.0682 199.212 94.1705C198.723 94.2841 198.104 94.3409 197.354 94.3409C196.217 94.3409 195.104 94.0966 194.013 93.608C192.933 93.1193 192.035 92.375 191.319 91.375C190.615 90.375 190.263 89.1136 190.263 87.5909V61.5455ZM212.923 94.5455C210.559 94.5455 208.485 93.983 206.701 92.858C204.928 91.733 203.542 90.1591 202.542 88.1364C201.553 86.1136 201.059 83.75 201.059 81.0455C201.059 78.3182 201.553 75.9375 202.542 73.9034C203.542 71.8693 204.928 70.2898 206.701 69.1648C208.485 68.0398 210.559 67.4773 212.923 67.4773C215.286 67.4773 217.354 68.0398 219.127 69.1648C220.911 70.2898 222.298 71.8693 223.286 73.9034C224.286 75.9375 224.786 78.3182 224.786 81.0455C224.786 83.75 224.286 86.1136 223.286 88.1364C222.298 90.1591 220.911 91.733 219.127 92.858C217.354 93.983 215.286 94.5455 212.923 94.5455ZM212.923 90.9318C214.718 90.9318 216.195 90.4716 217.354 89.5511C218.513 88.6307 219.371 87.4205 219.928 85.9205C220.485 84.4205 220.763 82.7955 220.763 81.0455C220.763 79.2955 220.485 77.6648 219.928 76.1534C219.371 74.642 218.513 73.4205 217.354 72.4886C216.195 71.5568 214.718 71.0909 212.923 71.0909C211.127 71.0909 209.65 71.5568 208.491 72.4886C207.332 73.4205 206.474 74.642 205.917 76.1534C205.36 77.6648 205.082 79.2955 205.082 81.0455C205.082 82.7955 205.36 84.4205 205.917 85.9205C206.474 87.4205 207.332 88.6307 208.491 89.5511C209.65 90.4716 211.127 90.9318 212.923 90.9318ZM249.366 67.8182V71.2273H235.252V67.8182H249.366ZM239.48 94V64.2045C239.48 62.7045 239.832 61.4545 240.536 60.4545C241.241 59.4545 242.156 58.7045 243.281 58.2045C244.406 57.7045 245.593 57.4545 246.843 57.4545C247.832 57.4545 248.639 57.5341 249.264 57.6932C249.889 57.8523 250.355 58 250.661 58.1364L249.502 61.6136C249.298 61.5455 249.014 61.4602 248.65 61.358C248.298 61.2557 247.832 61.2045 247.252 61.2045C245.923 61.2045 244.962 61.5398 244.372 62.2102C243.792 62.8807 243.502 63.8636 243.502 65.1591V94H239.48ZM261.202 94.5455C258.838 94.5455 256.764 93.983 254.98 92.858C253.208 91.733 251.821 90.1591 250.821 88.1364C249.833 86.1136 249.338 83.75 249.338 81.0455C249.338 78.3182 249.833 75.9375 250.821 73.9034C251.821 71.8693 253.208 70.2898 254.98 69.1648C256.764 68.0398 258.838 67.4773 261.202 67.4773C263.566 67.4773 265.634 68.0398 267.406 69.1648C269.191 70.2898 270.577 71.8693 271.566 73.9034C272.566 75.9375 273.066 78.3182 273.066 81.0455C273.066 83.75 272.566 86.1136 271.566 88.1364C270.577 90.1591 269.191 91.733 267.406 92.858C265.634 93.983 263.566 94.5455 261.202 94.5455ZM261.202 90.9318C262.997 90.9318 264.475 90.4716 265.634 89.5511C266.793 88.6307 267.651 87.4205 268.208 85.9205C268.764 84.4205 269.043 82.7955 269.043 81.0455C269.043 79.2955 268.764 77.6648 268.208 76.1534C267.651 74.642 266.793 73.4205 265.634 72.4886C264.475 71.5568 262.997 71.0909 261.202 71.0909C259.406 71.0909 257.929 71.5568 256.77 72.4886C255.611 73.4205 254.753 74.642 254.196 76.1534C253.639 77.6648 253.361 79.2955 253.361 81.0455C253.361 82.7955 253.639 84.4205 254.196 85.9205C254.753 87.4205 255.611 88.6307 256.77 89.5511C257.929 90.4716 259.406 90.9318 261.202 90.9318ZM275.846 94V67.8182H279.869V94H275.846ZM277.892 63.4545C277.108 63.4545 276.431 63.1875 275.863 62.6534C275.306 62.1193 275.028 61.4773 275.028 60.7273C275.028 59.9773 275.306 59.3352 275.863 58.8011C276.431 58.267 277.108 58 277.892 58C278.676 58 279.346 58.267 279.903 58.8011C280.471 59.3352 280.755 59.9773 280.755 60.7273C280.755 61.4773 280.471 62.1193 279.903 62.6534C279.346 63.1875 278.676 63.4545 277.892 63.4545ZM12.25 162.364C10.3068 162.364 8.63636 162.114 7.23864 161.614C5.84091 161.125 4.67614 160.477 3.74432 159.67C2.82386 158.875 2.09091 158.023 1.54545 157.114L4.75 154.864C5.11364 155.341 5.57386 155.886 6.13068 156.5C6.6875 157.125 7.44886 157.665 8.41477 158.119C9.39205 158.585 10.6705 158.818 12.25 158.818C14.3636 158.818 16.108 158.307 17.483 157.284C18.858 156.261 19.5455 154.659 19.5455 152.477V147.159H19.2045C18.9091 147.636 18.4886 148.227 17.9432 148.932C17.4091 149.625 16.6364 150.244 15.625 150.79C14.625 151.324 13.2727 151.591 11.5682 151.591C9.45455 151.591 7.55682 151.091 5.875 150.091C4.20455 149.091 2.88068 147.636 1.90341 145.727C0.9375 143.818 0.454546 141.5 0.454546 138.773C0.454546 136.091 0.926136 133.756 1.86932 131.767C2.8125 129.767 4.125 128.222 5.80682 127.131C7.48864 126.028 9.43182 125.477 11.6364 125.477C13.3409 125.477 14.6932 125.761 15.6932 126.33C16.7045 126.886 17.4773 127.523 18.0114 128.239C18.5568 128.943 18.9773 129.523 19.2727 129.977H19.6818V125.818H23.5682V152.75C23.5682 155 23.0568 156.83 22.0341 158.239C21.0227 159.659 19.6591 160.699 17.9432 161.358C16.2386 162.028 14.3409 162.364 12.25 162.364ZM12.1136 147.977C13.7273 147.977 15.0909 147.608 16.2045 146.869C17.3182 146.131 18.1648 145.068 18.7443 143.682C19.3239 142.295 19.6136 140.636 19.6136 138.705C19.6136 136.818 19.3295 135.153 18.7614 133.71C18.1932 132.267 17.3523 131.136 16.2386 130.318C15.125 129.5 13.75 129.091 12.1136 129.091C10.4091 129.091 8.98864 129.523 7.85227 130.386C6.72727 131.25 5.88068 132.409 5.3125 133.864C4.75568 135.318 4.47727 136.932 4.47727 138.705C4.47727 140.523 4.76136 142.131 5.32955 143.528C5.90909 144.915 6.76136 146.006 7.88636 146.801C9.02273 147.585 10.4318 147.977 12.1136 147.977ZM38.5491 152.545C36.0264 152.545 33.8502 151.989 32.0207 150.875C30.2025 149.75 28.7991 148.182 27.8105 146.17C26.8332 144.148 26.3445 141.795 26.3445 139.114C26.3445 136.432 26.8332 134.068 27.8105 132.023C28.7991 129.966 30.1741 128.364 31.9355 127.216C33.7082 126.057 35.7764 125.477 38.14 125.477C39.5036 125.477 40.8502 125.705 42.1798 126.159C43.5093 126.614 44.7195 127.352 45.8105 128.375C46.9014 129.386 47.7707 130.727 48.4184 132.398C49.0661 134.068 49.39 136.125 49.39 138.568V140.273H29.2082V136.795H45.2991C45.2991 135.318 45.0036 134 44.4127 132.841C43.8332 131.682 43.0036 130.767 41.9241 130.097C40.8559 129.426 39.5945 129.091 38.14 129.091C36.5377 129.091 35.1514 129.489 33.9809 130.284C32.8218 131.068 31.9298 132.091 31.3048 133.352C30.6798 134.614 30.3673 135.966 30.3673 137.409V139.727C30.3673 141.705 30.7082 143.381 31.39 144.756C32.0832 146.119 33.0434 147.159 34.2707 147.875C35.498 148.58 36.9241 148.932 38.5491 148.932C39.6059 148.932 40.5605 148.784 41.4127 148.489C42.2764 148.182 43.0207 147.727 43.6457 147.125C44.2707 146.511 44.7536 145.75 45.0945 144.841L48.9809 145.932C48.5718 147.25 47.8843 148.409 46.9184 149.409C45.9525 150.398 44.7593 151.17 43.3389 151.727C41.9184 152.273 40.3218 152.545 38.5491 152.545ZM52.1493 152V125.818H56.0357V129.773H56.3084C56.7857 128.477 57.6493 127.426 58.8993 126.619C60.1493 125.812 61.5584 125.409 63.1266 125.409C63.422 125.409 63.7914 125.415 64.2345 125.426C64.6777 125.437 65.013 125.455 65.2402 125.477V129.568C65.1039 129.534 64.7914 129.483 64.3027 129.415C63.8255 129.335 63.3198 129.295 62.7857 129.295C61.513 129.295 60.3766 129.562 59.3766 130.097C58.388 130.619 57.6039 131.347 57.0243 132.278C56.4561 133.199 56.172 134.25 56.172 135.432V152H52.1493ZM74.3532 152.614C72.6941 152.614 71.1885 152.301 69.8362 151.676C68.4839 151.04 67.4101 150.125 66.6146 148.932C65.8191 147.727 65.4214 146.273 65.4214 144.568C65.4214 143.068 65.7169 141.852 66.3078 140.92C66.8987 139.977 67.6885 139.239 68.6771 138.705C69.6657 138.17 70.7566 137.773 71.9498 137.511C73.1544 137.239 74.3646 137.023 75.5805 136.864C77.1714 136.659 78.4612 136.506 79.4498 136.403C80.4498 136.29 81.1771 136.102 81.6316 135.841C82.0976 135.58 82.3305 135.125 82.3305 134.477V134.341C82.3305 132.659 81.8703 131.352 80.9498 130.42C80.0407 129.489 78.6601 129.023 76.8078 129.023C74.8873 129.023 73.3816 129.443 72.2907 130.284C71.1998 131.125 70.4328 132.023 69.9896 132.977L66.1714 131.614C66.8532 130.023 67.7623 128.784 68.8987 127.898C70.0464 127 71.2964 126.375 72.6487 126.023C74.0123 125.659 75.3532 125.477 76.6714 125.477C77.5123 125.477 78.4782 125.58 79.5691 125.784C80.6714 125.977 81.7339 126.381 82.7566 126.994C83.7907 127.608 84.6487 128.534 85.3305 129.773C86.0123 131.011 86.3532 132.67 86.3532 134.75V152H82.3305V148.455H82.126C81.8532 149.023 81.3987 149.631 80.7623 150.278C80.126 150.926 79.2794 151.477 78.2226 151.932C77.1657 152.386 75.876 152.614 74.3532 152.614ZM74.9669 149C76.5578 149 77.8987 148.688 78.9896 148.062C80.0919 147.438 80.9214 146.631 81.4782 145.642C82.0464 144.653 82.3305 143.614 82.3305 142.523V138.841C82.1601 139.045 81.7851 139.233 81.2055 139.403C80.6373 139.562 79.9782 139.705 79.2282 139.83C78.4896 139.943 77.768 140.045 77.0635 140.136C76.3703 140.216 75.8078 140.284 75.376 140.341C74.3305 140.477 73.3532 140.699 72.4441 141.006C71.5464 141.301 70.8191 141.75 70.2623 142.352C69.7169 142.943 69.4441 143.75 69.4441 144.773C69.4441 146.17 69.9612 147.227 70.9953 147.943C72.0407 148.648 73.3646 149 74.9669 149ZM100.222 152.545C98.0401 152.545 96.114 151.994 94.4435 150.892C92.7731 149.778 91.4662 148.21 90.5231 146.188C89.5799 144.153 89.1083 141.75 89.1083 138.977C89.1083 136.227 89.5799 133.841 90.5231 131.818C91.4662 129.795 92.7787 128.233 94.4606 127.131C96.1424 126.028 98.0856 125.477 100.29 125.477C101.995 125.477 103.341 125.761 104.33 126.33C105.33 126.886 106.091 127.523 106.614 128.239C107.148 128.943 107.563 129.523 107.858 129.977H108.199V117.091H112.222V152H108.336V147.977H107.858C107.563 148.455 107.142 149.057 106.597 149.784C106.051 150.5 105.273 151.142 104.262 151.71C103.25 152.267 101.904 152.545 100.222 152.545ZM100.767 148.932C102.381 148.932 103.745 148.511 104.858 147.67C105.972 146.818 106.819 145.642 107.398 144.142C107.978 142.631 108.267 140.886 108.267 138.909C108.267 136.955 107.983 135.244 107.415 133.778C106.847 132.301 106.006 131.153 104.892 130.335C103.779 129.506 102.404 129.091 100.767 129.091C99.0628 129.091 97.6424 129.528 96.506 130.403C95.381 131.267 94.5344 132.443 93.9662 133.932C93.4094 135.409 93.131 137.068 93.131 138.909C93.131 140.773 93.4151 142.466 93.9833 143.989C94.5628 145.5 95.4151 146.705 96.5401 147.602C97.6765 148.489 99.0856 148.932 100.767 148.932ZM127.424 152.545C125.061 152.545 122.987 151.983 121.203 150.858C119.43 149.733 118.044 148.159 117.044 146.136C116.055 144.114 115.561 141.75 115.561 139.045C115.561 136.318 116.055 133.937 117.044 131.903C118.044 129.869 119.43 128.29 121.203 127.165C122.987 126.04 125.061 125.477 127.424 125.477C129.788 125.477 131.856 126.04 133.629 127.165C135.413 128.29 136.799 129.869 137.788 131.903C138.788 133.937 139.288 136.318 139.288 139.045C139.288 141.75 138.788 144.114 137.788 146.136C136.799 148.159 135.413 149.733 133.629 150.858C131.856 151.983 129.788 152.545 127.424 152.545ZM127.424 148.932C129.22 148.932 130.697 148.472 131.856 147.551C133.015 146.631 133.873 145.42 134.43 143.92C134.987 142.42 135.265 140.795 135.265 139.045C135.265 137.295 134.987 135.665 134.43 134.153C133.873 132.642 133.015 131.42 131.856 130.489C130.697 129.557 129.22 129.091 127.424 129.091C125.629 129.091 124.152 129.557 122.993 130.489C121.834 131.42 120.976 132.642 120.419 134.153C119.862 135.665 119.584 137.295 119.584 139.045C119.584 140.795 119.862 142.42 120.419 143.92C120.976 145.42 121.834 146.631 122.993 147.551C124.152 148.472 125.629 148.932 127.424 148.932ZM162.845 152.545C160.391 152.545 158.277 151.966 156.504 150.807C154.731 149.648 153.368 148.051 152.413 146.017C151.459 143.983 150.981 141.659 150.981 139.045C150.981 136.386 151.47 134.04 152.447 132.006C153.436 129.96 154.811 128.364 156.572 127.216C158.345 126.057 160.413 125.477 162.777 125.477C164.618 125.477 166.277 125.818 167.754 126.5C169.231 127.182 170.442 128.136 171.385 129.364C172.328 130.591 172.913 132.023 173.141 133.659H169.118C168.811 132.466 168.129 131.409 167.072 130.489C166.027 129.557 164.618 129.091 162.845 129.091C161.277 129.091 159.902 129.5 158.72 130.318C157.55 131.125 156.635 132.267 155.976 133.744C155.328 135.21 155.004 136.932 155.004 138.909C155.004 140.932 155.322 142.693 155.959 144.193C156.606 145.693 157.516 146.858 158.686 147.688C159.868 148.517 161.254 148.932 162.845 148.932C163.891 148.932 164.839 148.75 165.692 148.386C166.544 148.023 167.266 147.5 167.856 146.818C168.447 146.136 168.868 145.318 169.118 144.364H173.141C172.913 145.909 172.351 147.301 171.453 148.54C170.567 149.767 169.391 150.744 167.925 151.472C166.47 152.188 164.777 152.545 162.845 152.545ZM186.298 152.545C183.934 152.545 181.86 151.983 180.076 150.858C178.303 149.733 176.917 148.159 175.917 146.136C174.928 144.114 174.434 141.75 174.434 139.045C174.434 136.318 174.928 133.937 175.917 131.903C176.917 129.869 178.303 128.29 180.076 127.165C181.86 126.04 183.934 125.477 186.298 125.477C188.661 125.477 190.729 126.04 192.502 127.165C194.286 128.29 195.673 129.869 196.661 131.903C197.661 133.937 198.161 136.318 198.161 139.045C198.161 141.75 197.661 144.114 196.661 146.136C195.673 148.159 194.286 149.733 192.502 150.858C190.729 151.983 188.661 152.545 186.298 152.545ZM186.298 148.932C188.093 148.932 189.57 148.472 190.729 147.551C191.888 146.631 192.746 145.42 193.303 143.92C193.86 142.42 194.138 140.795 194.138 139.045C194.138 137.295 193.86 135.665 193.303 134.153C192.746 132.642 191.888 131.42 190.729 130.489C189.57 129.557 188.093 129.091 186.298 129.091C184.502 129.091 183.025 129.557 181.866 130.489C180.707 131.42 179.849 132.642 179.292 134.153C178.735 135.665 178.457 137.295 178.457 139.045C178.457 140.795 178.735 142.42 179.292 143.92C179.849 145.42 180.707 146.631 181.866 147.551C183.025 148.472 184.502 148.932 186.298 148.932ZM200.942 152V125.818H204.828V129.909H205.169C205.715 128.511 206.595 127.426 207.811 126.653C209.027 125.869 210.487 125.477 212.192 125.477C213.919 125.477 215.357 125.869 216.504 126.653C217.663 127.426 218.567 128.511 219.215 129.909H219.487C220.158 128.557 221.163 127.483 222.504 126.688C223.845 125.881 225.453 125.477 227.328 125.477C229.669 125.477 231.584 126.21 233.072 127.676C234.561 129.131 235.305 131.398 235.305 134.477V152H231.283V134.477C231.283 132.545 230.754 131.165 229.697 130.335C228.641 129.506 227.396 129.091 225.965 129.091C224.124 129.091 222.697 129.648 221.686 130.761C220.675 131.864 220.169 133.261 220.169 134.955V152H216.078V134.068C216.078 132.58 215.595 131.381 214.629 130.472C213.663 129.551 212.419 129.091 210.896 129.091C209.851 129.091 208.874 129.369 207.965 129.926C207.067 130.483 206.34 131.256 205.783 132.244C205.237 133.222 204.965 134.352 204.965 135.636V152H200.942ZM20.2273 189.682L16.6136 190.705C16.3864 190.102 16.0511 189.517 15.608 188.949C15.1761 188.369 14.5852 187.892 13.8352 187.517C13.0852 187.142 12.125 186.955 10.9545 186.955C9.35227 186.955 8.01705 187.324 6.94886 188.062C5.89205 188.79 5.36364 189.716 5.36364 190.841C5.36364 191.841 5.72727 192.631 6.45455 193.21C7.18182 193.79 8.31818 194.273 9.86364 194.659L13.75 195.614C16.0909 196.182 17.8352 197.051 18.983 198.222C20.1307 199.381 20.7045 200.875 20.7045 202.705C20.7045 204.205 20.2727 205.545 19.4091 206.727C18.5568 207.909 17.3636 208.841 15.8295 209.523C14.2955 210.205 12.5114 210.545 10.4773 210.545C7.80682 210.545 5.59659 209.966 3.84659 208.807C2.09659 207.648 0.988636 205.955 0.522727 203.727L4.34091 202.773C4.70455 204.182 5.39205 205.239 6.40341 205.943C7.42614 206.648 8.76136 207 10.4091 207C12.2841 207 13.7727 206.602 14.875 205.807C15.9886 205 16.5455 204.034 16.5455 202.909C16.5455 202 16.2273 201.239 15.5909 200.625C14.9545 200 13.9773 199.534 12.6591 199.227L8.29545 198.205C5.89773 197.636 4.13636 196.756 3.01136 195.562C1.89773 194.358 1.34091 192.852 1.34091 191.045C1.34091 189.568 1.75568 188.261 2.58523 187.125C3.42614 185.989 4.56818 185.097 6.01136 184.449C7.46591 183.801 9.11364 183.477 10.9545 183.477C13.5455 183.477 15.5795 184.045 17.0568 185.182C18.5455 186.318 19.6023 187.818 20.2273 189.682ZM39.8999 199.295V183.818H43.9227V210H39.8999V205.568H39.6272C39.0136 206.898 38.059 208.028 36.7636 208.96C35.4681 209.881 33.8318 210.341 31.8545 210.341C30.2181 210.341 28.7636 209.983 27.4909 209.267C26.2181 208.54 25.2181 207.449 24.4909 205.994C23.7636 204.528 23.3999 202.682 23.3999 200.455V183.818H27.4227V200.182C27.4227 202.091 27.9568 203.614 29.0249 204.75C30.1045 205.886 31.4795 206.455 33.1499 206.455C34.1499 206.455 35.167 206.199 36.2011 205.688C37.2465 205.176 38.1215 204.392 38.8261 203.335C39.542 202.278 39.8999 200.932 39.8999 199.295ZM58.5669 210.545C56.1124 210.545 53.9987 209.966 52.226 208.807C50.4533 207.648 49.0897 206.051 48.1351 204.017C47.1806 201.983 46.7033 199.659 46.7033 197.045C46.7033 194.386 47.1919 192.04 48.1692 190.006C49.1578 187.96 50.5328 186.364 52.2942 185.216C54.0669 184.057 56.1351 183.477 58.4987 183.477C60.3397 183.477 61.9987 183.818 63.476 184.5C64.9533 185.182 66.1635 186.136 67.1067 187.364C68.0499 188.591 68.6351 190.023 68.8624 191.659H64.8397C64.5328 190.466 63.851 189.409 62.7942 188.489C61.7487 187.557 60.3397 187.091 58.5669 187.091C56.9987 187.091 55.6237 187.5 54.4419 188.318C53.2715 189.125 52.3567 190.267 51.6976 191.744C51.0499 193.21 50.726 194.932 50.726 196.909C50.726 198.932 51.0442 200.693 51.6806 202.193C52.3283 203.693 53.2374 204.858 54.4078 205.688C55.5897 206.517 56.976 206.932 58.5669 206.932C59.6124 206.932 60.5612 206.75 61.4135 206.386C62.2658 206.023 62.9874 205.5 63.5783 204.818C64.1692 204.136 64.5897 203.318 64.8397 202.364H68.8624C68.6351 203.909 68.0726 205.301 67.1749 206.54C66.2885 207.767 65.1124 208.744 63.6465 209.472C62.1919 210.188 60.4987 210.545 58.5669 210.545ZM82.3603 210.545C79.8376 210.545 77.6615 209.989 75.8319 208.875C74.0137 207.75 72.6103 206.182 71.6217 204.17C70.6444 202.148 70.1558 199.795 70.1558 197.114C70.1558 194.432 70.6444 192.068 71.6217 190.023C72.6103 187.966 73.9853 186.364 75.7467 185.216C77.5194 184.057 79.5876 183.477 81.9512 183.477C83.3149 183.477 84.6615 183.705 85.991 184.159C87.3206 184.614 88.5308 185.352 89.6217 186.375C90.7126 187.386 91.5819 188.727 92.2297 190.398C92.8774 192.068 93.2012 194.125 93.2012 196.568V198.273H73.0194V194.795H89.1103C89.1103 193.318 88.8149 192 88.224 190.841C87.6444 189.682 86.8149 188.767 85.7353 188.097C84.6672 187.426 83.4058 187.091 81.9512 187.091C80.349 187.091 78.9626 187.489 77.7922 188.284C76.6331 189.068 75.741 190.091 75.116 191.352C74.491 192.614 74.1785 193.966 74.1785 195.409V197.727C74.1785 199.705 74.5194 201.381 75.2012 202.756C75.8944 204.119 76.8547 205.159 78.0819 205.875C79.3092 206.58 80.7353 206.932 82.3603 206.932C83.4172 206.932 84.3717 206.784 85.224 206.489C86.0876 206.182 86.8319 205.727 87.4569 205.125C88.0819 204.511 88.5649 203.75 88.9058 202.841L92.7922 203.932C92.3831 205.25 91.6956 206.409 90.7297 207.409C89.7637 208.398 88.5706 209.17 87.1501 209.727C85.7297 210.273 84.1331 210.545 82.3603 210.545ZM114.506 189.682L110.892 190.705C110.665 190.102 110.33 189.517 109.887 188.949C109.455 188.369 108.864 187.892 108.114 187.517C107.364 187.142 106.404 186.955 105.233 186.955C103.631 186.955 102.296 187.324 101.228 188.062C100.171 188.79 99.6424 189.716 99.6424 190.841C99.6424 191.841 100.006 192.631 100.733 193.21C101.461 193.79 102.597 194.273 104.142 194.659L108.029 195.614C110.37 196.182 112.114 197.051 113.262 198.222C114.409 199.381 114.983 200.875 114.983 202.705C114.983 204.205 114.551 205.545 113.688 206.727C112.836 207.909 111.642 208.841 110.108 209.523C108.574 210.205 106.79 210.545 104.756 210.545C102.086 210.545 99.8753 209.966 98.1253 208.807C96.3753 207.648 95.2674 205.955 94.8015 203.727L98.6197 202.773C98.9833 204.182 99.6708 205.239 100.682 205.943C101.705 206.648 103.04 207 104.688 207C106.563 207 108.051 206.602 109.154 205.807C110.267 205 110.824 204.034 110.824 202.909C110.824 202 110.506 201.239 109.87 200.625C109.233 200 108.256 199.534 106.938 199.227L102.574 198.205C100.176 197.636 98.4151 196.756 97.2901 195.562C96.1765 194.358 95.6197 192.852 95.6197 191.045C95.6197 189.568 96.0344 188.261 96.864 187.125C97.7049 185.989 98.8469 185.097 100.29 184.449C101.745 183.801 103.392 183.477 105.233 183.477C107.824 183.477 109.858 184.045 111.336 185.182C112.824 186.318 113.881 187.818 114.506 189.682ZM136.224 189.682L132.611 190.705C132.383 190.102 132.048 189.517 131.605 188.949C131.173 188.369 130.582 187.892 129.832 187.517C129.082 187.142 128.122 186.955 126.951 186.955C125.349 186.955 124.014 187.324 122.946 188.062C121.889 188.79 121.361 189.716 121.361 190.841C121.361 191.841 121.724 192.631 122.451 193.21C123.179 193.79 124.315 194.273 125.861 194.659L129.747 195.614C132.088 196.182 133.832 197.051 134.98 198.222C136.128 199.381 136.701 200.875 136.701 202.705C136.701 204.205 136.27 205.545 135.406 206.727C134.554 207.909 133.361 208.841 131.826 209.523C130.292 210.205 128.508 210.545 126.474 210.545C123.804 210.545 121.593 209.966 119.843 208.807C118.093 207.648 116.986 205.955 116.52 203.727L120.338 202.773C120.701 204.182 121.389 205.239 122.4 205.943C123.423 206.648 124.758 207 126.406 207C128.281 207 129.77 206.602 130.872 205.807C131.986 205 132.542 204.034 132.542 202.909C132.542 202 132.224 201.239 131.588 200.625C130.951 200 129.974 199.534 128.656 199.227L124.292 198.205C121.895 197.636 120.133 196.756 119.008 195.562C117.895 194.358 117.338 192.852 117.338 191.045C117.338 189.568 117.753 188.261 118.582 187.125C119.423 185.989 120.565 185.097 122.008 184.449C123.463 183.801 125.111 183.477 126.951 183.477C129.542 183.477 131.576 184.045 133.054 185.182C134.542 186.318 135.599 187.818 136.224 189.682ZM150.033 210.545C147.67 210.545 145.596 209.983 143.812 208.858C142.039 207.733 140.652 206.159 139.652 204.136C138.664 202.114 138.17 199.75 138.17 197.045C138.17 194.318 138.664 191.937 139.652 189.903C140.652 187.869 142.039 186.29 143.812 185.165C145.596 184.04 147.67 183.477 150.033 183.477C152.397 183.477 154.465 184.04 156.238 185.165C158.022 186.29 159.408 187.869 160.397 189.903C161.397 191.937 161.897 194.318 161.897 197.045C161.897 199.75 161.397 202.114 160.397 204.136C159.408 206.159 158.022 207.733 156.238 208.858C154.465 209.983 152.397 210.545 150.033 210.545ZM150.033 206.932C151.829 206.932 153.306 206.472 154.465 205.551C155.624 204.631 156.482 203.42 157.039 201.92C157.596 200.42 157.874 198.795 157.874 197.045C157.874 195.295 157.596 193.665 157.039 192.153C156.482 190.642 155.624 189.42 154.465 188.489C153.306 187.557 151.829 187.091 150.033 187.091C148.238 187.091 146.76 187.557 145.601 188.489C144.442 189.42 143.584 190.642 143.027 192.153C142.471 193.665 142.192 195.295 142.192 197.045C142.192 198.795 142.471 200.42 143.027 201.92C143.584 203.42 144.442 204.631 145.601 205.551C146.76 206.472 148.238 206.932 150.033 206.932ZM167.609 210.273C166.768 210.273 166.047 209.972 165.444 209.369C164.842 208.767 164.541 208.045 164.541 207.205C164.541 206.364 164.842 205.642 165.444 205.04C166.047 204.437 166.768 204.136 167.609 204.136C168.45 204.136 169.172 204.437 169.774 205.04C170.376 205.642 170.677 206.364 170.677 207.205C170.677 207.761 170.535 208.273 170.251 208.739C169.979 209.205 169.609 209.58 169.143 209.864C168.689 210.136 168.177 210.273 167.609 210.273Z" fill="#7575B3"/>
</svg>
