<svg width="106" height="20" viewBox="0 0 106 20" fill="none" xmlns="http://www.w3.org/2000/svg">
<g clip-path="url(#clip0_384_4121)">
<path d="M33.7051 0H35.7285V7.41011L43.3942 0H46.2958L39.749 6.10977L46.4313 15.1391H43.7153L38.2258 7.53176L35.7285 9.86262V15.1391H33.7051V0Z" fill="#00051B"/>
<path d="M47.0615 0H48.9704V2.10239H47.0615V0ZM47.0615 4.15327H48.9704V15.1391H47.0615V4.15327Z" fill="#00051B"/>
<path d="M50.8618 4.10174H52.6454V5.66827C53.1738 5.02257 53.7336 4.55882 54.3247 4.27703C54.9157 3.99539 55.5728 3.85449 56.2961 3.85449C57.8814 3.85449 58.9522 4.40066 59.5086 5.49314C59.8145 6.09081 59.9675 6.94619 59.9675 8.05928V15.1393H58.0588V8.1829C58.0588 7.50963 57.9579 6.96679 57.7563 6.55456C57.4225 5.86765 56.8176 5.52404 55.9415 5.52404C55.4963 5.52404 55.1312 5.56874 54.8462 5.65797C54.3316 5.80917 53.8796 6.11142 53.4903 6.56486C53.1773 6.92907 52.974 7.30525 52.8801 7.6934C52.7863 8.08155 52.7392 8.63635 52.7392 9.3578V15.1393H50.8618V4.10174Z" fill="#00051B"/>
<path d="M68.1804 4.54465C68.5335 4.78523 68.8937 5.13565 69.261 5.59592V4.20467H70.9924V14.2424C70.9924 15.644 70.7845 16.7501 70.3686 17.5609C69.5925 19.0585 68.1266 19.8075 65.9715 19.8075C64.7724 19.8075 63.7641 19.5412 62.9464 19.0088C62.1285 18.4763 61.6711 17.6433 61.5737 16.5097H63.4826C63.5723 17.0043 63.7521 17.3856 64.022 17.6536C64.4437 18.0659 65.1078 18.2719 66.0137 18.2719C67.4452 18.2719 68.3822 17.7703 68.8249 16.7674C69.0877 16.1764 69.2088 15.1219 69.188 13.6034C68.8138 14.1668 68.3638 14.586 67.8374 14.8607C67.311 15.1357 66.6147 15.2729 65.749 15.2729C64.5438 15.2729 63.4892 14.8489 62.5854 14.0002C61.6815 13.1518 61.2295 11.7484 61.2295 9.7904C61.2295 7.94223 61.6849 6.49947 62.5959 5.46199C63.5067 4.42466 64.6062 3.90576 65.8945 3.90576C66.7673 3.90576 67.5292 4.11877 68.1804 4.54465ZM68.4101 6.53371C67.8428 5.87423 67.1198 5.54441 66.2412 5.54441C64.9267 5.54441 64.0274 6.15602 63.5431 7.37879C63.2871 8.03161 63.1592 8.88699 63.1592 9.94493C63.1592 11.1886 63.4134 12.1349 63.9219 12.7842C64.4303 13.4334 65.1136 13.7581 65.9715 13.7581C67.3135 13.7581 68.2577 13.1569 68.8043 11.9546C69.1087 11.2744 69.261 10.4808 69.261 9.5739C69.261 8.20675 68.9771 7.19335 68.4101 6.53371Z" fill="#00051B"/>
<path d="M72.8833 0H79.7398C81.0951 0 82.1896 0.379664 83.0231 1.13884C83.8566 1.89802 84.2732 2.96459 84.2732 4.33871C84.2732 5.52043 83.9014 6.54927 83.1577 7.42526C82.4139 8.30124 81.2759 8.73923 79.7433 8.73923H74.959V15.1391H72.8833V0ZM80.9341 2.08179C80.4784 1.86893 79.8535 1.76227 79.0597 1.76227H74.959V7.00787H79.0597C79.9848 7.00787 80.7355 6.81213 81.312 6.4205C81.8884 6.02887 82.1767 5.33832 82.1767 4.34901C82.1767 3.23593 81.7625 2.48024 80.9341 2.08179Z" fill="#00051B"/>
<path d="M91.3861 8.22185C91.8172 8.167 92.1059 7.98869 92.2519 7.68689C92.3351 7.5213 92.3768 7.2836 92.3768 6.97302C92.3768 6.33868 92.1494 5.87826 91.695 5.59193C91.2405 5.30574 90.5899 5.16257 89.7433 5.16257C88.7649 5.16257 88.0708 5.42512 87.6614 5.94977C87.4324 6.2399 87.2833 6.67153 87.2138 7.24436H85.4615C85.4963 5.88023 85.9425 4.93107 86.8002 4.39703C87.658 3.86314 88.6528 3.59619 89.7849 3.59619C91.0976 3.59619 92.1637 3.84344 92.9833 4.3381C93.7959 4.8329 94.2021 5.60238 94.2021 6.64683V13.0058C94.2021 13.1982 94.2422 13.3528 94.3222 13.4694C94.4019 13.5859 94.5706 13.6443 94.828 13.6443C94.9115 13.6443 95.0053 13.6391 95.1096 13.6288C95.214 13.6185 95.3251 13.6032 95.4434 13.5826V14.9531C95.1514 15.0355 94.9288 15.087 94.7759 15.1076C94.6229 15.1284 94.4142 15.1387 94.15 15.1387C93.5034 15.1387 93.034 14.9119 92.7419 14.4586C92.5889 14.2181 92.4811 13.878 92.4186 13.4385C92.0361 13.9332 91.4867 14.3624 90.7705 14.7266C90.0543 15.0905 89.2651 15.2726 88.4029 15.2726C87.3667 15.2726 86.5203 14.962 85.8631 14.341C85.206 13.7202 84.8774 12.9429 84.8774 12.0097C84.8774 10.9874 85.2008 10.1947 85.8474 9.63218C86.4942 9.0695 87.3424 8.72271 88.3925 8.59242L91.3861 8.22185ZM87.4329 13.2332C87.8293 13.5417 88.2986 13.6958 88.841 13.6958C89.5015 13.6958 90.1412 13.5449 90.7601 13.2431C91.8032 12.7424 92.3247 11.9227 92.3247 10.7839V9.29206C92.0956 9.43674 91.8008 9.55734 91.44 9.65384C91.079 9.7505 90.7251 9.81928 90.3781 9.86034L89.2435 10.0044C88.5634 10.0937 88.0521 10.2342 87.7092 10.4262C87.1285 10.7483 86.8383 11.2625 86.8383 11.9685C86.8383 12.503 87.0365 12.9246 87.4329 13.2332Z" fill="#00051B"/>
<path d="M103.924 4.43848H106C105.735 5.1466 105.148 6.76191 104.237 9.28457C103.555 11.1817 102.985 12.7282 102.526 13.9242C101.443 16.7389 100.678 18.4553 100.234 19.0734C99.7893 19.6912 99.0251 20.0001 97.9413 20.0001C97.6773 20.0001 97.4741 19.9898 97.3317 19.9692C97.1892 19.9486 97.0137 19.9109 96.8054 19.8559V18.1658C97.1317 18.255 97.3677 18.3101 97.5134 18.3307C97.659 18.3514 97.7877 18.3617 97.8989 18.3617C98.2459 18.3617 98.5009 18.305 98.664 18.1918C98.8272 18.0786 98.9644 17.9399 99.0756 17.7753C99.1101 17.7203 99.235 17.4393 99.4501 16.9321C99.6653 16.4244 99.8215 16.0473 99.6137 15.8007L95.4834 4.43848H97.9162L100.91 13.4292L103.924 4.43848Z" fill="#00051B"/>
<path d="M14.574 5.04639H9.4666L0.156241 14.2455C-0.177522 14.5753 0.0588627 15.1391 0.530866 15.1391H9.4666L14.574 10.0928H9.4666L14.574 5.04639Z" fill="#1313F2"/>
<path d="M28.6167 0H19.6816L14.5742 5.04637H19.6816L14.5742 10.0927H19.6816L28.9915 0.894042C29.3254 0.564112 29.089 0 28.6167 0Z" fill="#1313F2"/>
<path d="M18.7231 13.2451C18.1938 13.2451 17.7646 13.6691 17.7646 14.1921C17.7646 14.7151 18.1938 15.1391 18.7231 15.1391C19.2524 15.1391 19.6815 14.7151 19.6815 14.1921C19.6815 13.6691 19.2524 13.2451 18.7231 13.2451ZM18.7231 14.9362C18.3072 14.9362 17.97 14.603 17.97 14.1921C17.97 13.7812 18.3072 13.448 18.7231 13.448C19.139 13.448 19.4762 13.7812 19.4762 14.1921C19.4762 14.603 19.139 14.9362 18.7231 14.9362Z" fill="#1313F2"/>
<path d="M18.7229 14.53C18.6275 14.53 18.5407 14.4912 18.479 14.4289C18.4178 14.368 18.3804 14.2845 18.3804 14.192C18.3804 14.0981 18.4192 14.0133 18.4818 13.9519C18.5439 13.891 18.6289 13.8535 18.7229 13.8535C18.817 13.8535 18.9015 13.891 18.9636 13.9514L19.1094 13.8084C19.0102 13.7109 18.8737 13.6509 18.7229 13.6509C18.5722 13.6509 18.4356 13.7109 18.3365 13.8084C18.237 13.9063 18.1753 14.0421 18.1753 14.192C18.1753 14.3405 18.2356 14.4749 18.3333 14.5724C18.4329 14.6717 18.5708 14.7331 18.7229 14.7331C18.875 14.7331 19.013 14.6717 19.1125 14.5724L18.9668 14.4294C18.9047 14.4916 18.8184 14.53 18.7229 14.53Z" fill="#1313F2"/>
</g>
<defs>
<clipPath id="clip0_384_4121">
<rect width="106" height="20" fill="white"/>
</clipPath>
</defs>
</svg>
