<svg width="350" height="78" viewBox="0 0 350 78" fill="none" xmlns="http://www.w3.org/2000/svg">
<rect y="-0.0078125" width="350" height="78" rx="12" fill="#EAEBF1"/>
<rect x="20" y="14.9922" width="48" height="48" rx="24" fill="#ECECEC"/>
<mask id="mask0_384_4026" style="mask-type:alpha" maskUnits="userSpaceOnUse" x="31" y="26" width="26" height="26">
<rect x="31.478" y="26.4707" width="25.0435" height="25.0435" fill="#D9D9D9"/>
</mask>
<g mask="url(#mask0_384_4026)">
<path d="M41.4434 45.2529L35.4956 39.3051L36.9826 37.8181L41.4434 42.279L51.0173 32.7051L52.5043 34.192L41.4434 45.2529Z" fill="white"/>
<path d="M41.4434 45.2529L35.4956 39.3051L36.9826 37.8181L41.4434 42.279L51.0173 32.7051L52.5043 34.192L41.4434 45.2529Z" fill="url(#paint0_linear_384_4026)"/>
</g>
<path d="M86.2614 44.9922H84.3977L88.5852 33.3558H90.6136L94.8011 44.9922H92.9375L89.6477 35.4695H89.5568L86.2614 44.9922ZM86.5739 40.4354H92.6193V41.9126H86.5739V40.4354ZM102.662 38.3956L101.123 38.6683C101.058 38.4714 100.956 38.2839 100.816 38.1058C100.679 37.9278 100.494 37.782 100.259 37.6683C100.024 37.5547 99.7306 37.4979 99.3784 37.4979C98.8973 37.4979 98.4958 37.6058 98.1738 37.8217C97.8518 38.0339 97.6909 38.3085 97.6909 38.6456C97.6909 38.9373 97.7988 39.1721 98.0147 39.3501C98.2306 39.5282 98.5791 39.674 99.0602 39.7876L100.447 40.1058C101.25 40.2914 101.848 40.5774 102.242 40.9638C102.636 41.3501 102.833 41.852 102.833 42.4695C102.833 42.9922 102.681 43.4581 102.378 43.8672C102.079 44.2725 101.661 44.5907 101.123 44.8217C100.589 45.0528 99.9693 45.1683 99.2647 45.1683C98.2874 45.1683 97.4901 44.96 96.8727 44.5433C96.2552 44.1229 95.8765 43.5263 95.7363 42.7536L97.3784 42.5036C97.4806 42.9316 97.6909 43.2554 98.009 43.4751C98.3272 43.6911 98.742 43.799 99.2534 43.799C99.8102 43.799 100.255 43.6835 100.589 43.4524C100.922 43.2176 101.089 42.9316 101.089 42.5945C101.089 42.3217 100.986 42.0926 100.782 41.907C100.581 41.7214 100.272 41.5812 99.8556 41.4865L98.3784 41.1626C97.564 40.977 96.9617 40.6816 96.5715 40.2763C96.1852 39.871 95.992 39.3577 95.992 38.7365C95.992 38.2214 96.1359 37.7706 96.4238 37.3842C96.7117 36.9979 97.1094 36.6967 97.617 36.4808C98.1246 36.2611 98.706 36.1513 99.3613 36.1513C100.304 36.1513 101.047 36.3558 101.589 36.7649C102.13 37.1702 102.488 37.7138 102.662 38.3956ZM104.541 48.2649V36.2649H106.2V37.6797H106.342C106.44 37.4979 106.582 37.2876 106.768 37.049C106.954 36.8104 107.211 36.602 107.541 36.424C107.87 36.2422 108.306 36.1513 108.848 36.1513C109.552 36.1513 110.181 36.3293 110.734 36.6854C111.287 37.0414 111.721 37.5547 112.035 38.2251C112.353 38.8956 112.512 39.7024 112.512 40.6456C112.512 41.5888 112.355 42.3975 112.041 43.0717C111.726 43.7422 111.295 44.2592 110.745 44.6229C110.196 44.9827 109.569 45.1626 108.865 45.1626C108.334 45.1626 107.901 45.0736 107.564 44.8956C107.23 44.7176 106.969 44.5092 106.779 44.2706C106.59 44.032 106.444 43.8198 106.342 43.6342H106.24V48.2649H104.541ZM106.206 40.6286C106.206 41.2422 106.295 41.7801 106.473 42.2422C106.651 42.7043 106.908 43.0661 107.245 43.3274C107.582 43.585 107.995 43.7138 108.484 43.7138C108.992 43.7138 109.416 43.5793 109.757 43.3104C110.098 43.0376 110.355 42.6683 110.529 42.2024C110.707 41.7365 110.796 41.2119 110.796 40.6286C110.796 40.0528 110.709 39.5357 110.535 39.0774C110.365 38.6191 110.107 38.2573 109.762 37.9922C109.421 37.727 108.995 37.5945 108.484 37.5945C107.992 37.5945 107.575 37.7214 107.234 37.9751C106.897 38.2289 106.641 38.5831 106.467 39.0376C106.293 39.4922 106.206 40.0225 106.206 40.6286ZM114.256 44.9922V36.2649H115.955V44.9922H114.256ZM115.114 34.9183C114.818 34.9183 114.565 34.8198 114.352 34.6229C114.144 34.4221 114.04 34.1835 114.04 33.907C114.04 33.6267 114.144 33.388 114.352 33.1911C114.565 32.9903 114.818 32.8899 115.114 32.8899C115.409 32.8899 115.661 32.9903 115.869 33.1911C116.082 33.388 116.188 33.6267 116.188 33.907C116.188 34.1835 116.082 34.4221 115.869 34.6229C115.661 34.8198 115.409 34.9183 115.114 34.9183ZM118.08 44.9922V36.2649H119.722V37.6513H119.813C119.972 37.1816 120.253 36.8123 120.654 36.5433C121.059 36.2706 121.518 36.1342 122.029 36.1342C122.135 36.1342 122.26 36.138 122.404 36.1456C122.552 36.1532 122.667 36.1626 122.751 36.174V37.799C122.682 37.7801 122.561 37.7592 122.387 37.7365C122.213 37.71 122.039 37.6967 121.864 37.6967C121.463 37.6967 121.105 37.782 120.79 37.9524C120.48 38.1191 120.234 38.352 120.052 38.6513C119.87 38.9467 119.779 39.2839 119.779 39.6626V44.9922H118.08ZM126.522 45.1854C125.969 45.1854 125.469 45.0831 125.022 44.8786C124.575 44.6702 124.221 44.3691 123.96 43.9751C123.702 43.5812 123.574 43.0982 123.574 42.5263C123.574 42.0339 123.668 41.6286 123.858 41.3104C124.047 40.9922 124.303 40.7403 124.625 40.5547C124.947 40.3691 125.307 40.2289 125.704 40.1342C126.102 40.0395 126.507 39.9676 126.92 39.9183C127.443 39.8577 127.867 39.8085 128.193 39.7706C128.519 39.7289 128.755 39.6626 128.903 39.5717C129.051 39.4808 129.125 39.3331 129.125 39.1286V39.0888C129.125 38.5926 128.985 38.2081 128.704 37.9354C128.428 37.6626 128.015 37.5263 127.466 37.5263C126.894 37.5263 126.443 37.6532 126.113 37.907C125.788 38.157 125.562 38.4354 125.437 38.7422L123.841 38.3786C124.03 37.8482 124.307 37.4202 124.67 37.0945C125.038 36.7649 125.46 36.5263 125.937 36.3786C126.414 36.227 126.916 36.1513 127.443 36.1513C127.791 36.1513 128.161 36.1929 128.551 36.2763C128.945 36.3558 129.312 36.5036 129.653 36.7195C129.998 36.9354 130.28 37.2441 130.5 37.6456C130.719 38.0433 130.829 38.5604 130.829 39.1967V44.9922H129.17V43.799H129.102C128.992 44.0187 128.827 44.2346 128.608 44.4467C128.388 44.6589 128.106 44.835 127.761 44.9751C127.416 45.1153 127.004 45.1854 126.522 45.1854ZM126.892 43.8217C127.361 43.8217 127.763 43.7289 128.096 43.5433C128.433 43.3577 128.689 43.1153 128.863 42.8161C129.041 42.513 129.13 42.1892 129.13 41.8445V40.7195C129.07 40.7801 128.952 40.8369 128.778 40.8899C128.608 40.9392 128.413 40.9827 128.193 41.0206C127.973 41.0547 127.759 41.0869 127.551 41.1172C127.343 41.1437 127.168 41.1664 127.028 41.1854C126.699 41.227 126.397 41.2971 126.125 41.3956C125.856 41.4941 125.64 41.6361 125.477 41.8217C125.318 42.0036 125.238 42.246 125.238 42.549C125.238 42.9695 125.394 43.2876 125.704 43.5036C126.015 43.7157 126.411 43.8217 126.892 43.8217ZM134.631 39.8104V44.9922H132.932V36.2649H134.563V37.6854H134.671C134.871 37.2232 135.186 36.852 135.614 36.5717C136.046 36.2914 136.589 36.1513 137.245 36.1513C137.839 36.1513 138.36 36.2763 138.807 36.5263C139.254 36.7725 139.601 37.1399 139.847 37.6286C140.093 38.1172 140.216 38.7214 140.216 39.4411V44.9922H138.517V39.6456C138.517 39.013 138.353 38.5187 138.023 38.1626C137.693 37.8028 137.241 37.6229 136.665 37.6229C136.271 37.6229 135.921 37.7081 135.614 37.8786C135.311 38.049 135.07 38.299 134.892 38.6286C134.718 38.9543 134.631 39.3482 134.631 39.8104ZM146.408 36.2649V37.6286H141.641V36.2649H146.408ZM142.92 34.174H144.619V42.4297C144.619 42.7592 144.668 43.0073 144.766 43.174C144.865 43.3369 144.992 43.4486 145.147 43.5092C145.306 43.5661 145.478 43.5945 145.664 43.5945C145.8 43.5945 145.92 43.585 146.022 43.5661C146.124 43.5471 146.204 43.532 146.261 43.5206L146.568 44.924C146.469 44.9619 146.329 44.9998 146.147 45.0376C145.965 45.0793 145.738 45.102 145.465 45.1058C145.018 45.1134 144.602 45.0339 144.215 44.8672C143.829 44.7005 143.516 44.4429 143.278 44.0945C143.039 43.746 142.92 43.3085 142.92 42.782V34.174ZM151.795 45.1683C150.935 45.1683 150.195 44.9846 149.574 44.6172C148.956 44.246 148.479 43.7251 148.142 43.0547C147.809 42.3804 147.642 41.5907 147.642 40.6854C147.642 39.7914 147.809 39.0036 148.142 38.3217C148.479 37.6399 148.949 37.1077 149.551 36.7251C150.157 36.3426 150.865 36.1513 151.676 36.1513C152.168 36.1513 152.646 36.2327 153.108 36.3956C153.57 36.5585 153.985 36.8142 154.352 37.1626C154.72 37.5111 155.009 37.9638 155.221 38.5206C155.434 39.0736 155.54 39.746 155.54 40.5376V41.1399H148.602V39.8672H153.875C153.875 39.4202 153.784 39.0244 153.602 38.6797C153.42 38.3312 153.165 38.0566 152.835 37.8558C152.509 37.6551 152.127 37.5547 151.687 37.5547C151.21 37.5547 150.793 37.6721 150.437 37.907C150.085 38.138 149.812 38.4411 149.619 38.8161C149.43 39.1873 149.335 39.5907 149.335 40.0263V41.0206C149.335 41.6039 149.437 42.1001 149.642 42.5092C149.85 42.9183 150.14 43.2308 150.511 43.4467C150.882 43.6589 151.316 43.7649 151.812 43.7649C152.134 43.7649 152.428 43.7195 152.693 43.6286C152.958 43.5339 153.187 43.3937 153.381 43.2081C153.574 43.0225 153.721 42.7933 153.824 42.5206L155.432 42.8104C155.303 43.2839 155.072 43.6986 154.738 44.0547C154.409 44.407 153.994 44.6816 153.494 44.8786C152.998 45.0717 152.432 45.1683 151.795 45.1683ZM163.879 45.1854C163.326 45.1854 162.826 45.0831 162.379 44.8786C161.932 44.6702 161.578 44.3691 161.316 43.9751C161.059 43.5812 160.93 43.0982 160.93 42.5263C160.93 42.0339 161.025 41.6286 161.214 41.3104C161.403 40.9922 161.659 40.7403 161.981 40.5547C162.303 40.3691 162.663 40.2289 163.061 40.1342C163.458 40.0395 163.864 39.9676 164.276 39.9183C164.799 39.8577 165.223 39.8085 165.549 39.7706C165.875 39.7289 166.112 39.6626 166.259 39.5717C166.407 39.4808 166.481 39.3331 166.481 39.1286V39.0888C166.481 38.5926 166.341 38.2081 166.061 37.9354C165.784 37.6626 165.371 37.5263 164.822 37.5263C164.25 37.5263 163.799 37.6532 163.47 37.907C163.144 38.157 162.918 38.4354 162.793 38.7422L161.197 38.3786C161.386 37.8482 161.663 37.4202 162.026 37.0945C162.394 36.7649 162.816 36.5263 163.293 36.3786C163.771 36.227 164.273 36.1513 164.799 36.1513C165.148 36.1513 165.517 36.1929 165.907 36.2763C166.301 36.3558 166.668 36.5036 167.009 36.7195C167.354 36.9354 167.636 37.2441 167.856 37.6456C168.076 38.0433 168.186 38.5604 168.186 39.1967V44.9922H166.526V43.799H166.458C166.348 44.0187 166.184 44.2346 165.964 44.4467C165.744 44.6589 165.462 44.835 165.117 44.9751C164.773 45.1153 164.36 45.1854 163.879 45.1854ZM164.248 43.8217C164.718 43.8217 165.119 43.7289 165.453 43.5433C165.79 43.3577 166.045 43.1153 166.22 42.8161C166.398 42.513 166.487 42.1892 166.487 41.8445V40.7195C166.426 40.7801 166.309 40.8369 166.134 40.8899C165.964 40.9392 165.769 40.9827 165.549 41.0206C165.329 41.0547 165.115 41.0869 164.907 41.1172C164.699 41.1437 164.525 41.1664 164.384 41.1854C164.055 41.227 163.754 41.2971 163.481 41.3956C163.212 41.4941 162.996 41.6361 162.833 41.8217C162.674 42.0036 162.595 42.246 162.595 42.549C162.595 42.9695 162.75 43.2876 163.061 43.5036C163.371 43.7157 163.767 43.8217 164.248 43.8217ZM164.225 35.1001L162.47 32.4808H164.259L165.583 35.1001H164.225ZM174.499 44.9922V33.3558H178.647C179.548 33.3558 180.296 33.5111 180.891 33.8217C181.49 34.1323 181.937 34.5623 182.232 35.1115C182.527 35.657 182.675 36.2876 182.675 37.0036C182.675 37.7157 182.526 38.3426 182.226 38.8842C181.931 39.4221 181.484 39.8407 180.885 40.1399C180.291 40.4392 179.543 40.5888 178.641 40.5888H175.499V39.0774H178.482C179.05 39.0774 179.512 38.996 179.868 38.8331C180.228 38.6702 180.491 38.4335 180.658 38.1229C180.825 37.8123 180.908 37.4392 180.908 37.0036C180.908 36.5642 180.823 36.1835 180.652 35.8615C180.486 35.5395 180.223 35.2933 179.863 35.1229C179.507 34.9486 179.039 34.8615 178.459 34.8615H176.255V44.9922H174.499ZM180.243 39.7422L183.118 44.9922H181.118L178.3 39.7422H180.243ZM188.167 45.1683C187.307 45.1683 186.567 44.9846 185.946 44.6172C185.328 44.246 184.851 43.7251 184.514 43.0547C184.18 42.3804 184.014 41.5907 184.014 40.6854C184.014 39.7914 184.18 39.0036 184.514 38.3217C184.851 37.6399 185.321 37.1077 185.923 36.7251C186.529 36.3426 187.237 36.1513 188.048 36.1513C188.54 36.1513 189.018 36.2327 189.48 36.3956C189.942 36.5585 190.357 36.8142 190.724 37.1626C191.091 37.5111 191.381 37.9638 191.593 38.5206C191.805 39.0736 191.911 39.746 191.911 40.5376V41.1399H184.974V39.8672H190.247C190.247 39.4202 190.156 39.0244 189.974 38.6797C189.792 38.3312 189.536 38.0566 189.207 37.8558C188.881 37.6551 188.499 37.5547 188.059 37.5547C187.582 37.5547 187.165 37.6721 186.809 37.907C186.457 38.138 186.184 38.4411 185.991 38.8161C185.802 39.1873 185.707 39.5907 185.707 40.0263V41.0206C185.707 41.6039 185.809 42.1001 186.014 42.5092C186.222 42.9183 186.512 43.2308 186.883 43.4467C187.254 43.6589 187.688 43.7649 188.184 43.7649C188.506 43.7649 188.8 43.7195 189.065 43.6286C189.33 43.5339 189.559 43.3937 189.752 43.2081C189.946 43.0225 190.093 42.7933 190.196 42.5206L191.804 42.8104C191.675 43.2839 191.444 43.6986 191.11 44.0547C190.781 44.407 190.366 44.6816 189.866 44.8786C189.37 45.0717 188.804 45.1683 188.167 45.1683ZM196.176 45.1854C195.623 45.1854 195.123 45.0831 194.676 44.8786C194.229 44.6702 193.875 44.3691 193.614 43.9751C193.356 43.5812 193.227 43.0982 193.227 42.5263C193.227 42.0339 193.322 41.6286 193.511 41.3104C193.701 40.9922 193.956 40.7403 194.278 40.5547C194.6 40.3691 194.96 40.2289 195.358 40.1342C195.756 40.0395 196.161 39.9676 196.574 39.9183C197.097 39.8577 197.521 39.8085 197.847 39.7706C198.172 39.7289 198.409 39.6626 198.557 39.5717C198.705 39.4808 198.778 39.3331 198.778 39.1286V39.0888C198.778 38.5926 198.638 38.2081 198.358 37.9354C198.081 37.6626 197.669 37.5263 197.119 37.5263C196.547 37.5263 196.097 37.6532 195.767 37.907C195.441 38.157 195.216 38.4354 195.091 38.7422L193.494 38.3786C193.684 37.8482 193.96 37.4202 194.324 37.0945C194.691 36.7649 195.114 36.5263 195.591 36.3786C196.068 36.227 196.57 36.1513 197.097 36.1513C197.445 36.1513 197.814 36.1929 198.205 36.2763C198.599 36.3558 198.966 36.5036 199.307 36.7195C199.652 36.9354 199.934 37.2441 200.153 37.6456C200.373 38.0433 200.483 38.5604 200.483 39.1967V44.9922H198.824V43.799H198.756C198.646 44.0187 198.481 44.2346 198.261 44.4467C198.042 44.6589 197.76 44.835 197.415 44.9751C197.07 45.1153 196.657 45.1854 196.176 45.1854ZM196.546 43.8217C197.015 43.8217 197.417 43.7289 197.75 43.5433C198.087 43.3577 198.343 43.1153 198.517 42.8161C198.695 42.513 198.784 42.1892 198.784 41.8445V40.7195C198.724 40.7801 198.606 40.8369 198.432 40.8899C198.261 40.9392 198.066 40.9827 197.847 41.0206C197.627 41.0547 197.413 41.0869 197.205 41.1172C196.996 41.1437 196.822 41.1664 196.682 41.1854C196.352 41.227 196.051 41.2971 195.778 41.3956C195.51 41.4941 195.294 41.6361 195.131 41.8217C194.972 42.0036 194.892 42.246 194.892 42.549C194.892 42.9695 195.047 43.2876 195.358 43.5036C195.669 43.7157 196.064 43.8217 196.546 43.8217ZM204.285 33.3558V44.9922H202.586V33.3558H204.285ZM210.172 45.1683C209.312 45.1683 208.571 44.9846 207.95 44.6172C207.333 44.246 206.855 43.7251 206.518 43.0547C206.185 42.3804 206.018 41.5907 206.018 40.6854C206.018 39.7914 206.185 39.0036 206.518 38.3217C206.855 37.6399 207.325 37.1077 207.927 36.7251C208.533 36.3426 209.242 36.1513 210.052 36.1513C210.545 36.1513 211.022 36.2327 211.484 36.3956C211.946 36.5585 212.361 36.8142 212.728 37.1626C213.096 37.5111 213.386 37.9638 213.598 38.5206C213.81 39.0736 213.916 39.746 213.916 40.5376V41.1399H206.978V39.8672H212.251C212.251 39.4202 212.16 39.0244 211.978 38.6797C211.797 38.3312 211.541 38.0566 211.211 37.8558C210.886 37.6551 210.503 37.5547 210.064 37.5547C209.586 37.5547 209.17 37.6721 208.814 37.907C208.461 38.138 208.189 38.4411 207.995 38.8161C207.806 39.1873 207.711 39.5907 207.711 40.0263V41.0206C207.711 41.6039 207.814 42.1001 208.018 42.5092C208.226 42.9183 208.516 43.2308 208.887 43.4467C209.259 43.6589 209.692 43.7649 210.189 43.7649C210.511 43.7649 210.804 43.7195 211.069 43.6286C211.334 43.5339 211.564 43.3937 211.757 43.2081C211.95 43.0225 212.098 42.7933 212.2 42.5206L213.808 42.8104C213.679 43.2839 213.448 43.6986 213.115 44.0547C212.785 44.407 212.37 44.6816 211.87 44.8786C211.374 45.0717 210.808 45.1683 210.172 45.1683ZM215.459 44.9922V43.8274L220.186 37.8217V37.7422H215.612V36.2649H222.306V37.5036L217.76 43.4354V43.5149H222.465V44.9922H215.459ZM226.849 45.1854C226.296 45.1854 225.796 45.0831 225.349 44.8786C224.902 44.6702 224.548 44.3691 224.286 43.9751C224.029 43.5812 223.9 43.0982 223.9 42.5263C223.9 42.0339 223.995 41.6286 224.184 41.3104C224.373 40.9922 224.629 40.7403 224.951 40.5547C225.273 40.3691 225.633 40.2289 226.031 40.1342C226.428 40.0395 226.834 39.9676 227.246 39.9183C227.769 39.8577 228.193 39.8085 228.519 39.7706C228.845 39.7289 229.082 39.6626 229.229 39.5717C229.377 39.4808 229.451 39.3331 229.451 39.1286V39.0888C229.451 38.5926 229.311 38.2081 229.031 37.9354C228.754 37.6626 228.341 37.5263 227.792 37.5263C227.22 37.5263 226.769 37.6532 226.44 37.907C226.114 38.157 225.888 38.4354 225.763 38.7422L224.167 38.3786C224.356 37.8482 224.633 37.4202 224.996 37.0945C225.364 36.7649 225.786 36.5263 226.263 36.3786C226.741 36.227 227.243 36.1513 227.769 36.1513C228.118 36.1513 228.487 36.1929 228.877 36.2763C229.271 36.3558 229.638 36.5036 229.979 36.7195C230.324 36.9354 230.606 37.2441 230.826 37.6456C231.046 38.0433 231.156 38.5604 231.156 39.1967V44.9922H229.496V43.799H229.428C229.318 44.0187 229.154 44.2346 228.934 44.4467C228.714 44.6589 228.432 44.835 228.087 44.9751C227.743 45.1153 227.33 45.1854 226.849 45.1854ZM227.218 43.8217C227.688 43.8217 228.089 43.7289 228.423 43.5433C228.76 43.3577 229.015 43.1153 229.19 42.8161C229.368 42.513 229.457 42.1892 229.457 41.8445V40.7195C229.396 40.7801 229.279 40.8369 229.104 40.8899C228.934 40.9392 228.739 40.9827 228.519 41.0206C228.299 41.0547 228.085 41.0869 227.877 41.1172C227.669 41.1437 227.495 41.1664 227.354 41.1854C227.025 41.227 226.724 41.2971 226.451 41.3956C226.182 41.4941 225.966 41.6361 225.803 41.8217C225.644 42.0036 225.565 42.246 225.565 42.549C225.565 42.9695 225.72 43.2876 226.031 43.5036C226.341 43.7157 226.737 43.8217 227.218 43.8217Z" fill="#00051B"/>
<mask id="mask1_384_4026" style="mask-type:alpha" maskUnits="userSpaceOnUse" x="310" y="28" width="20" height="21">
<rect x="310" y="28.9922" width="20" height="20" fill="#D9D9D9"/>
</mask>
<g mask="url(#mask1_384_4026)">
<path d="M316 46.9922L314.583 45.5755L321.167 38.9922L314.583 32.4089L316 30.9922L324 38.9922L316 46.9922Z" fill="#00051B"/>
</g>
<defs>
<linearGradient id="paint0_linear_384_4026" x1="44.4049" y1="32.7051" x2="44.3694" y2="45.5265" gradientUnits="userSpaceOnUse">
<stop stop-color="#9898FF"/>
<stop offset="1" stop-color="#1313F2"/>
</linearGradient>
</defs>
</svg>
