<svg width="350" height="78" viewBox="0 0 350 78" fill="none" xmlns="http://www.w3.org/2000/svg">
<rect y="-0.0078125" width="350" height="78" rx="12" fill="#1313F2"/>
<rect x="20" y="14.9922" width="48" height="48" rx="24" fill="#F9FAFC"/>
<mask id="mask0_384_4027" style="mask-type:alpha" maskUnits="userSpaceOnUse" x="31" y="26" width="26" height="26">
<rect x="31.4785" y="26.4707" width="25.0435" height="25.0435" fill="#D9D9D9"/>
</mask>
<g mask="url(#mask0_384_4027)">
<path d="M39.2613 48.8617V46.7748H43.4352V43.54C42.5831 43.3487 41.8222 42.9878 41.1526 42.4574C40.4831 41.9269 39.9918 41.2617 39.6787 40.4617C38.3744 40.3052 37.2831 39.7356 36.4048 38.753C35.5265 37.7704 35.0874 36.6182 35.0874 35.2965V34.253C35.0874 33.6791 35.2918 33.1878 35.7004 32.7791C36.1091 32.3704 36.6004 32.1661 37.1744 32.1661H39.2613V30.0791H49.6961V32.1661H51.7831C52.357 32.1661 52.8483 32.3704 53.257 32.7791C53.6657 33.1878 53.87 33.6791 53.87 34.253V35.2965C53.87 36.6182 53.4309 37.7704 52.5526 38.753C51.6744 39.7356 50.5831 40.3052 49.2787 40.4617C48.9657 41.2617 48.4744 41.9269 47.8048 42.4574C47.1352 42.9878 46.3744 43.3487 45.5222 43.54V46.7748H49.6961V48.8617H39.2613ZM39.2613 38.2182V34.253H37.1744V35.2965C37.1744 35.9574 37.3657 36.553 37.7483 37.0834C38.1309 37.6139 38.6352 37.9921 39.2613 38.2182ZM44.4787 41.5574C45.3483 41.5574 46.0874 41.253 46.6961 40.6443C47.3048 40.0356 47.6091 39.2965 47.6091 38.4269V32.1661H41.3483V38.4269C41.3483 39.2965 41.6526 40.0356 42.2613 40.6443C42.87 41.253 43.6091 41.5574 44.4787 41.5574ZM49.6961 38.2182C50.3222 37.9921 50.8265 37.6139 51.2091 37.0834C51.5917 36.553 51.7831 35.9574 51.7831 35.2965V34.253H49.6961V38.2182Z" fill="white"/>
<path d="M39.2613 48.8617V46.7748H43.4352V43.54C42.5831 43.3487 41.8222 42.9878 41.1526 42.4574C40.4831 41.9269 39.9918 41.2617 39.6787 40.4617C38.3744 40.3052 37.2831 39.7356 36.4048 38.753C35.5265 37.7704 35.0874 36.6182 35.0874 35.2965V34.253C35.0874 33.6791 35.2918 33.1878 35.7004 32.7791C36.1091 32.3704 36.6004 32.1661 37.1744 32.1661H39.2613V30.0791H49.6961V32.1661H51.7831C52.357 32.1661 52.8483 32.3704 53.257 32.7791C53.6657 33.1878 53.87 33.6791 53.87 34.253V35.2965C53.87 36.6182 53.4309 37.7704 52.5526 38.753C51.6744 39.7356 50.5831 40.3052 49.2787 40.4617C48.9657 41.2617 48.4744 41.9269 47.8048 42.4574C47.1352 42.9878 46.3744 43.3487 45.5222 43.54V46.7748H49.6961V48.8617H39.2613ZM39.2613 38.2182V34.253H37.1744V35.2965C37.1744 35.9574 37.3657 36.553 37.7483 37.0834C38.1309 37.6139 38.6352 37.9921 39.2613 38.2182ZM44.4787 41.5574C45.3483 41.5574 46.0874 41.253 46.6961 40.6443C47.3048 40.0356 47.6091 39.2965 47.6091 38.4269V32.1661H41.3483V38.4269C41.3483 39.2965 41.6526 40.0356 42.2613 40.6443C42.87 41.253 43.6091 41.5574 44.4787 41.5574ZM49.6961 38.2182C50.3222 37.9921 50.8265 37.6139 51.2091 37.0834C51.5917 36.553 51.7831 35.9574 51.7831 35.2965V34.253H49.6961V38.2182Z" fill="url(#paint0_linear_384_4027)"/>
</g>
<path d="M94.6705 33.3558V44.9922H93.0568L87.142 36.4581H87.0341V44.9922H85.2784V33.3558H86.9034L92.8239 41.9013H92.9318V33.3558H94.6705ZM96.9352 44.9922V36.2649H98.634V44.9922H96.9352ZM97.0943 35.1001L98.4238 32.4808H100.214L98.4522 35.1001H97.0943ZM108.225 36.2649L105.061 44.9922H103.243L100.072 36.2649H101.896L104.106 42.9808H104.197L106.402 36.2649H108.225ZM113.127 45.1683C112.267 45.1683 111.526 44.9846 110.905 44.6172C110.288 44.246 109.81 43.7251 109.473 43.0547C109.14 42.3804 108.973 41.5907 108.973 40.6854C108.973 39.7914 109.14 39.0036 109.473 38.3217C109.81 37.6399 110.28 37.1077 110.882 36.7251C111.488 36.3426 112.197 36.1513 113.007 36.1513C113.5 36.1513 113.977 36.2327 114.439 36.3956C114.901 36.5585 115.316 36.8142 115.683 37.1626C116.051 37.5111 116.341 37.9638 116.553 38.5206C116.765 39.0736 116.871 39.746 116.871 40.5376V41.1399H109.933V39.8672H115.206C115.206 39.4202 115.115 39.0244 114.933 38.6797C114.752 38.3312 114.496 38.0566 114.166 37.8558C113.841 37.6551 113.458 37.5547 113.019 37.5547C112.541 37.5547 112.125 37.6721 111.769 37.907C111.416 38.138 111.144 38.4411 110.95 38.8161C110.761 39.1873 110.666 39.5907 110.666 40.0263V41.0206C110.666 41.6039 110.769 42.1001 110.973 42.5092C111.181 42.9183 111.471 43.2308 111.842 43.4467C112.214 43.6589 112.647 43.7649 113.144 43.7649C113.466 43.7649 113.759 43.7195 114.024 43.6286C114.289 43.5339 114.519 43.3937 114.712 43.2081C114.905 43.0225 115.053 42.7933 115.155 42.5206L116.763 42.8104C116.634 43.2839 116.403 43.6986 116.07 44.0547C115.74 44.407 115.325 44.6816 114.825 44.8786C114.329 45.0717 113.763 45.1683 113.127 45.1683ZM120.295 33.3558V44.9922H118.596V33.3558H120.295ZM126.472 44.9922V43.7195L130.409 39.6399C130.83 39.1967 131.176 38.8085 131.449 38.4751C131.726 38.138 131.932 37.8179 132.068 37.5149C132.205 37.2119 132.273 36.8899 132.273 36.549C132.273 36.1626 132.182 35.8293 132 35.549C131.818 35.2649 131.57 35.0471 131.256 34.8956C130.942 34.7403 130.587 34.6626 130.193 34.6626C129.777 34.6626 129.413 34.7479 129.103 34.9183C128.792 35.0888 128.553 35.3293 128.387 35.6399C128.22 35.9505 128.137 36.3142 128.137 36.7308H126.46C126.46 36.0225 126.623 35.4032 126.949 34.8729C127.275 34.3426 127.722 33.9316 128.29 33.6399C128.858 33.3445 129.504 33.1967 130.228 33.1967C130.959 33.1967 131.603 33.3426 132.159 33.6342C132.72 33.9221 133.157 34.3161 133.472 34.8161C133.786 35.3123 133.943 35.8729 133.943 36.4979C133.943 36.9297 133.862 37.352 133.699 37.7649C133.54 38.1778 133.262 38.638 132.864 39.1456C132.466 39.6494 131.913 40.2611 131.205 40.9808L128.892 43.4013V43.4865H134.131V44.9922H126.472Z" fill="#F9FAFC"/>
<g clip-path="url(#clip0_384_4027)">
<rect x="290" y="30.4922" width="17" height="134" rx="8" transform="rotate(90 290 30.4922)" fill="#F9FAFC"/>
<rect x="267" y="30.4922" width="17" height="111" rx="8" transform="rotate(90 267 30.4922)" fill="url(#paint1_linear_384_4027)"/>
</g>
<mask id="mask1_384_4027" style="mask-type:alpha" maskUnits="userSpaceOnUse" x="310" y="28" width="20" height="21">
<rect x="310" y="28.9922" width="20" height="20" fill="#D9D9D9"/>
</mask>
<g mask="url(#mask1_384_4027)">
<path d="M316 46.9922L314.583 45.5755L321.167 38.9922L314.583 32.4089L316 30.9922L324 38.9922L316 46.9922Z" fill="#F9FAFC"/>
</g>
<defs>
<linearGradient id="paint0_linear_384_4027" x1="44.9259" y1="30.0791" x2="44.8538" y2="49.2712" gradientUnits="userSpaceOnUse">
<stop stop-color="#9898FF"/>
<stop offset="1" stop-color="#1313F2"/>
</linearGradient>
<linearGradient id="paint1_linear_384_4027" x1="275.905" y1="30.4922" x2="273.126" y2="143.845" gradientUnits="userSpaceOnUse">
<stop stop-color="#9898FF"/>
<stop offset="1" stop-color="#F6F6F6"/>
</linearGradient>
<clipPath id="clip0_384_4027">
<rect x="290" y="30.4922" width="17" height="134" rx="8" transform="rotate(90 290 30.4922)" fill="white"/>
</clipPath>
</defs>
</svg>
