<svg width="350" height="78" viewBox="0 0 350 78" fill="none" xmlns="http://www.w3.org/2000/svg">
<rect y="-0.0078125" width="350" height="78" rx="12" fill="#EAEBF1"/>
<rect x="20" y="14.9922" width="48" height="48" rx="24" fill="#ECECEC"/>
<mask id="mask0_384_4028" style="mask-type:alpha" maskUnits="userSpaceOnUse" x="31" y="26" width="26" height="26">
<rect x="31.478" y="26.4707" width="25.0435" height="25.0435" fill="#D9D9D9"/>
</mask>
<g mask="url(#mask0_384_4028)">
<path d="M37.7388 49.4277C37.1649 49.4277 36.6736 49.2233 36.2649 48.8146C35.8562 48.406 35.6519 47.9146 35.6519 47.3407V36.906C35.6519 36.332 35.8562 35.8407 36.2649 35.432C36.6736 35.0233 37.1649 34.819 37.7388 34.819H38.7823V32.732C38.7823 31.2886 39.291 30.0581 40.3084 29.0407C41.3258 28.0233 42.5562 27.5146 43.9997 27.5146C45.4432 27.5146 46.6736 28.0233 47.691 29.0407C48.7084 30.0581 49.2171 31.2886 49.2171 32.732V34.819H50.2606C50.8345 34.819 51.3258 35.0233 51.7345 35.432C52.1432 35.8407 52.3475 36.332 52.3475 36.906V47.3407C52.3475 47.9146 52.1432 48.406 51.7345 48.8146C51.3258 49.2233 50.8345 49.4277 50.2606 49.4277H37.7388ZM37.7388 47.3407H50.2606V36.906H37.7388V47.3407ZM43.9997 44.2103C44.5736 44.2103 45.0649 44.006 45.4736 43.5973C45.8823 43.1886 46.0866 42.6973 46.0866 42.1233C46.0866 41.5494 45.8823 41.0581 45.4736 40.6494C45.0649 40.2407 44.5736 40.0364 43.9997 40.0364C43.4258 40.0364 42.9345 40.2407 42.5258 40.6494C42.1171 41.0581 41.9127 41.5494 41.9127 42.1233C41.9127 42.6973 42.1171 43.1886 42.5258 43.5973C42.9345 44.006 43.4258 44.2103 43.9997 44.2103ZM40.8692 34.819H47.1301V32.732C47.1301 31.8625 46.8258 31.1233 46.2171 30.5146C45.6084 29.906 44.8692 29.6016 43.9997 29.6016C43.1301 29.6016 42.391 29.906 41.7823 30.5146C41.1736 31.1233 40.8692 31.8625 40.8692 32.732V34.819Z" fill="#00051B"/>
</g>
<path d="M85.2784 44.9922V33.3558H89.4261C90.3314 33.3558 91.0814 33.5206 91.6761 33.8501C92.2708 34.1797 92.7159 34.6304 93.0114 35.2024C93.3068 35.7706 93.4545 36.4107 93.4545 37.1229C93.4545 37.8388 93.3049 38.4827 93.0057 39.0547C92.7102 39.6229 92.2633 40.0736 91.6648 40.407C91.0701 40.7365 90.322 40.9013 89.4205 40.9013H86.5682V39.4126H89.2614C89.8333 39.4126 90.2973 39.3142 90.6534 39.1172C91.0095 38.9164 91.2708 38.6437 91.4375 38.299C91.6042 37.9543 91.6875 37.5623 91.6875 37.1229C91.6875 36.6835 91.6042 36.2933 91.4375 35.9524C91.2708 35.6115 91.0076 35.3445 90.6477 35.1513C90.2917 34.9581 89.822 34.8615 89.2386 34.8615H87.0341V44.9922H85.2784ZM95.2164 44.9922V36.2649H96.8585V37.6513H96.9494C97.1085 37.1816 97.3888 36.8123 97.7903 36.5433C98.1956 36.2706 98.6539 36.1342 99.1653 36.1342C99.2713 36.1342 99.3963 36.138 99.5403 36.1456C99.688 36.1532 99.8035 36.1626 99.8869 36.174V37.799C99.8187 37.7801 99.6975 37.7592 99.5232 37.7365C99.349 37.71 99.1748 37.6967 99.0005 37.6967C98.599 37.6967 98.241 37.782 97.9266 37.9524C97.616 38.1191 97.3698 38.352 97.188 38.6513C97.0062 38.9467 96.9153 39.2839 96.9153 39.6626V44.9922H95.2164ZM101.197 44.9922V36.2649H102.896V44.9922H101.197ZM101.356 35.1001L102.686 32.4808H104.475L102.714 35.1001H101.356ZM106.72 39.8104V44.9922H105.021V36.2649H106.652V37.6854H106.76C106.961 37.2232 107.275 36.852 107.703 36.5717C108.135 36.2914 108.679 36.1513 109.334 36.1513C109.929 36.1513 110.449 36.2763 110.896 36.5263C111.343 36.7725 111.69 37.1399 111.936 37.6286C112.182 38.1172 112.306 38.7214 112.306 39.4411V44.9922H110.607V39.6456C110.607 39.013 110.442 38.5187 110.112 38.1626C109.783 37.8028 109.33 37.6229 108.754 37.6229C108.36 37.6229 108.01 37.7081 107.703 37.8786C107.4 38.049 107.16 38.299 106.982 38.6286C106.807 38.9543 106.72 39.3482 106.72 39.8104ZM118.1 45.1683C117.255 45.1683 116.528 44.977 115.918 44.5945C115.312 44.2081 114.846 43.6759 114.521 42.9979C114.195 42.3198 114.032 41.5433 114.032 40.6683C114.032 39.782 114.199 38.9998 114.532 38.3217C114.865 37.6399 115.335 37.1077 115.941 36.7251C116.547 36.3426 117.261 36.1513 118.083 36.1513C118.746 36.1513 119.337 36.2744 119.856 36.5206C120.375 36.763 120.793 37.1039 121.111 37.5433C121.433 37.9827 121.625 38.496 121.685 39.0831H120.032C119.941 38.674 119.733 38.3217 119.407 38.0263C119.085 37.7308 118.653 37.5831 118.111 37.5831C117.638 37.5831 117.223 37.7081 116.867 37.9581C116.515 38.2043 116.24 38.5566 116.043 39.0149C115.846 39.4695 115.748 40.0073 115.748 40.6286C115.748 41.2649 115.844 41.8142 116.038 42.2763C116.231 42.7384 116.503 43.0964 116.856 43.3501C117.212 43.6039 117.63 43.7308 118.111 43.7308C118.433 43.7308 118.725 43.6721 118.986 43.5547C119.252 43.4335 119.473 43.2611 119.651 43.0376C119.833 42.8142 119.96 42.5452 120.032 42.2308H121.685C121.625 42.7952 121.441 43.299 121.134 43.7422C120.827 44.1854 120.416 44.5339 119.901 44.7876C119.39 45.0414 118.789 45.1683 118.1 45.1683ZM123.342 44.9922V36.2649H125.041V44.9922H123.342ZM124.2 34.9183C123.905 34.9183 123.651 34.8198 123.439 34.6229C123.23 34.4221 123.126 34.1835 123.126 33.907C123.126 33.6267 123.23 33.388 123.439 33.1911C123.651 32.9903 123.905 32.8899 124.2 32.8899C124.495 32.8899 124.747 32.9903 124.956 33.1911C125.168 33.388 125.274 33.6267 125.274 33.907C125.274 34.1835 125.168 34.4221 124.956 34.6229C124.747 34.8198 124.495 34.9183 124.2 34.9183ZM127.166 48.2649V36.2649H128.826V37.6797H128.968C129.066 37.4979 129.208 37.2876 129.394 37.049C129.579 36.8104 129.837 36.602 130.166 36.424C130.496 36.2422 130.932 36.1513 131.473 36.1513C132.178 36.1513 132.807 36.3293 133.36 36.6854C133.913 37.0414 134.346 37.5547 134.661 38.2251C134.979 38.8956 135.138 39.7024 135.138 40.6456C135.138 41.5888 134.981 42.3975 134.666 43.0717C134.352 43.7422 133.92 44.2592 133.371 44.6229C132.822 44.9827 132.195 45.1626 131.49 45.1626C130.96 45.1626 130.526 45.0736 130.189 44.8956C129.856 44.7176 129.594 44.5092 129.405 44.2706C129.216 44.032 129.07 43.8198 128.968 43.6342H128.865V48.2649H127.166ZM128.831 40.6286C128.831 41.2422 128.92 41.7801 129.098 42.2422C129.276 42.7043 129.534 43.0661 129.871 43.3274C130.208 43.585 130.621 43.7138 131.11 43.7138C131.617 43.7138 132.041 43.5793 132.382 43.3104C132.723 43.0376 132.981 42.6683 133.155 42.2024C133.333 41.7365 133.422 41.2119 133.422 40.6286C133.422 40.0528 133.335 39.5357 133.161 39.0774C132.99 38.6191 132.733 38.2573 132.388 37.9922C132.047 37.727 131.621 37.5945 131.11 37.5945C130.617 37.5945 130.201 37.7214 129.86 37.9751C129.522 38.2289 129.267 38.5831 129.093 39.0376C128.918 39.4922 128.831 40.0225 128.831 40.6286ZM140.643 45.1683C139.783 45.1683 139.042 44.9846 138.421 44.6172C137.804 44.246 137.326 43.7251 136.989 43.0547C136.656 42.3804 136.489 41.5907 136.489 40.6854C136.489 39.7914 136.656 39.0036 136.989 38.3217C137.326 37.6399 137.796 37.1077 138.398 36.7251C139.005 36.3426 139.713 36.1513 140.523 36.1513C141.016 36.1513 141.493 36.2327 141.955 36.3956C142.417 36.5585 142.832 36.8142 143.2 37.1626C143.567 37.5111 143.857 37.9638 144.069 38.5206C144.281 39.0736 144.387 39.746 144.387 40.5376V41.1399H137.45V39.8672H142.722C142.722 39.4202 142.631 39.0244 142.45 38.6797C142.268 38.3312 142.012 38.0566 141.683 37.8558C141.357 37.6551 140.974 37.5547 140.535 37.5547C140.058 37.5547 139.641 37.6721 139.285 37.907C138.933 38.138 138.66 38.4411 138.467 38.8161C138.277 39.1873 138.183 39.5907 138.183 40.0263V41.0206C138.183 41.6039 138.285 42.1001 138.489 42.5092C138.698 42.9183 138.987 43.2308 139.359 43.4467C139.73 43.6589 140.164 43.7649 140.66 43.7649C140.982 43.7649 141.275 43.7195 141.541 43.6286C141.806 43.5339 142.035 43.3937 142.228 43.2081C142.421 43.0225 142.569 42.7933 142.671 42.5206L144.279 42.8104C144.15 43.2839 143.919 43.6986 143.586 44.0547C143.256 44.407 142.842 44.6816 142.342 44.8786C141.845 45.0717 141.279 45.1683 140.643 45.1683ZM153.453 45.1626C152.749 45.1626 152.12 44.9827 151.567 44.6229C151.018 44.2592 150.586 43.7422 150.272 43.0717C149.961 42.3975 149.806 41.5888 149.806 40.6456C149.806 39.7024 149.963 38.8956 150.277 38.2251C150.596 37.5547 151.031 37.0414 151.584 36.6854C152.137 36.3293 152.764 36.1513 153.465 36.1513C154.006 36.1513 154.442 36.2422 154.772 36.424C155.105 36.602 155.363 36.8104 155.544 37.049C155.73 37.2876 155.874 37.4979 155.976 37.6797H156.078V33.3558H157.777V44.9922H156.118V43.6342H155.976C155.874 43.8198 155.726 44.032 155.533 44.2706C155.344 44.5092 155.082 44.7176 154.749 44.8956C154.416 45.0736 153.984 45.1626 153.453 45.1626ZM153.828 43.7138C154.317 43.7138 154.73 43.585 155.067 43.3274C155.408 43.0661 155.666 42.7043 155.84 42.2422C156.018 41.7801 156.107 41.2422 156.107 40.6286C156.107 40.0225 156.02 39.4922 155.846 39.0376C155.671 38.5831 155.416 38.2289 155.078 37.9751C154.741 37.7214 154.325 37.5945 153.828 37.5945C153.317 37.5945 152.891 37.727 152.55 37.9922C152.209 38.2573 151.952 38.6191 151.777 39.0774C151.607 39.5357 151.522 40.0528 151.522 40.6286C151.522 41.2119 151.609 41.7365 151.783 42.2024C151.957 42.6683 152.215 43.0376 152.556 43.3104C152.9 43.5793 153.325 43.7138 153.828 43.7138ZM163.718 45.1683C162.9 45.1683 162.186 44.9808 161.576 44.6058C160.966 44.2308 160.493 43.7062 160.156 43.032C159.819 42.3577 159.65 41.5698 159.65 40.6683C159.65 39.763 159.819 38.9714 160.156 38.2933C160.493 37.6153 160.966 37.0888 161.576 36.7138C162.186 36.3388 162.9 36.1513 163.718 36.1513C164.536 36.1513 165.25 36.3388 165.86 36.7138C166.47 37.0888 166.944 37.6153 167.281 38.2933C167.618 38.9714 167.786 39.763 167.786 40.6683C167.786 41.5698 167.618 42.3577 167.281 43.032C166.944 43.7062 166.47 44.2308 165.86 44.6058C165.25 44.9808 164.536 45.1683 163.718 45.1683ZM163.724 43.7422C164.254 43.7422 164.694 43.602 165.042 43.3217C165.391 43.0414 165.648 42.6683 165.815 42.2024C165.985 41.7365 166.07 41.2232 166.07 40.6626C166.07 40.1058 165.985 39.5945 165.815 39.1286C165.648 38.6589 165.391 38.282 165.042 37.9979C164.694 37.7138 164.254 37.5717 163.724 37.5717C163.19 37.5717 162.747 37.7138 162.394 37.9979C162.046 38.282 161.786 38.6589 161.616 39.1286C161.449 39.5945 161.366 40.1058 161.366 40.6626C161.366 41.2232 161.449 41.7365 161.616 42.2024C161.786 42.6683 162.046 43.0414 162.394 43.3217C162.747 43.602 163.19 43.7422 163.724 43.7422ZM183.398 37.1399H181.625C181.557 36.7611 181.43 36.4278 181.245 36.1399C181.059 35.852 180.832 35.6077 180.563 35.407C180.294 35.2062 179.993 35.0547 179.66 34.9524C179.33 34.8501 178.98 34.799 178.608 34.799C177.938 34.799 177.338 34.9676 176.807 35.3047C176.281 35.6418 175.864 36.1361 175.557 36.7876C175.254 37.4392 175.103 38.2346 175.103 39.174C175.103 40.121 175.254 40.9202 175.557 41.5717C175.864 42.2232 176.283 42.7157 176.813 43.049C177.343 43.3823 177.94 43.549 178.603 43.549C178.97 43.549 179.319 43.4998 179.648 43.4013C179.982 43.299 180.283 43.1494 180.552 42.9524C180.821 42.7554 181.048 42.5149 181.233 42.2308C181.423 41.9429 181.553 41.6134 181.625 41.2422L183.398 41.2479C183.303 41.8198 183.12 42.3464 182.847 42.8274C182.578 43.3047 182.232 43.7176 181.807 44.0661C181.387 44.4107 180.906 44.6778 180.364 44.8672C179.822 45.0566 179.232 45.1513 178.591 45.1513C177.584 45.1513 176.686 44.9126 175.898 44.4354C175.11 43.9543 174.489 43.2668 174.035 42.3729C173.584 41.4789 173.358 40.4126 173.358 39.174C173.358 37.9316 173.586 36.8653 174.04 35.9751C174.495 35.0812 175.116 34.3956 175.904 33.9183C176.692 33.4373 177.588 33.1967 178.591 33.1967C179.209 33.1967 179.785 33.2857 180.319 33.4638C180.857 33.638 181.339 33.8956 181.768 34.2365C182.196 34.5736 182.55 34.9865 182.83 35.4751C183.11 35.96 183.3 36.5149 183.398 37.1399ZM188.879 45.1683C188.061 45.1683 187.347 44.9808 186.737 44.6058C186.127 44.2308 185.653 43.7062 185.316 43.032C184.979 42.3577 184.811 41.5698 184.811 40.6683C184.811 39.763 184.979 38.9714 185.316 38.2933C185.653 37.6153 186.127 37.0888 186.737 36.7138C187.347 36.3388 188.061 36.1513 188.879 36.1513C189.697 36.1513 190.411 36.3388 191.021 36.7138C191.631 37.0888 192.104 37.6153 192.441 38.2933C192.778 38.9714 192.947 39.763 192.947 40.6683C192.947 41.5698 192.778 42.3577 192.441 43.032C192.104 43.7062 191.631 44.2308 191.021 44.6058C190.411 44.9808 189.697 45.1683 188.879 45.1683ZM188.884 43.7422C189.415 43.7422 189.854 43.602 190.203 43.3217C190.551 43.0414 190.809 42.6683 190.975 42.2024C191.146 41.7365 191.231 41.2232 191.231 40.6626C191.231 40.1058 191.146 39.5945 190.975 39.1286C190.809 38.6589 190.551 38.282 190.203 37.9979C189.854 37.7138 189.415 37.5717 188.884 37.5717C188.35 37.5717 187.907 37.7138 187.555 37.9979C187.206 38.282 186.947 38.6589 186.777 39.1286C186.61 39.5945 186.527 40.1058 186.527 40.6626C186.527 41.2232 186.61 41.7365 186.777 42.2024C186.947 42.6683 187.206 43.0414 187.555 43.3217C187.907 43.602 188.35 43.7422 188.884 43.7422ZM194.683 44.9922V36.2649H196.314V37.6854H196.422C196.604 37.2043 196.901 36.8293 197.314 36.5604C197.727 36.2876 198.221 36.1513 198.797 36.1513C199.38 36.1513 199.869 36.2876 200.263 36.5604C200.661 36.8331 200.954 37.2081 201.144 37.6854H201.234C201.443 37.2195 201.774 36.8482 202.229 36.5717C202.683 36.2914 203.225 36.1513 203.854 36.1513C204.645 36.1513 205.291 36.3994 205.791 36.8956C206.295 37.3918 206.547 38.1399 206.547 39.1399V44.9922H204.848V39.299C204.848 38.7081 204.687 38.2801 204.365 38.0149C204.043 37.7498 203.659 37.6172 203.212 37.6172C202.659 37.6172 202.229 37.7876 201.922 38.1286C201.615 38.4657 201.462 38.8994 201.462 39.4297V44.9922H199.769V39.1911C199.769 38.7176 199.621 38.3369 199.325 38.049C199.03 37.7611 198.645 37.6172 198.172 37.6172C197.85 37.6172 197.553 37.7024 197.28 37.8729C197.011 38.0395 196.793 38.2725 196.626 38.5717C196.464 38.871 196.382 39.2176 196.382 39.6115V44.9922H194.683ZM212.425 45.1683C211.565 45.1683 210.825 44.9846 210.204 44.6172C209.586 44.246 209.109 43.7251 208.772 43.0547C208.439 42.3804 208.272 41.5907 208.272 40.6854C208.272 39.7914 208.439 39.0036 208.772 38.3217C209.109 37.6399 209.579 37.1077 210.181 36.7251C210.787 36.3426 211.495 36.1513 212.306 36.1513C212.798 36.1513 213.276 36.2327 213.738 36.3956C214.2 36.5585 214.615 36.8142 214.982 37.1626C215.35 37.5111 215.639 37.9638 215.851 38.5206C216.064 39.0736 216.17 39.746 216.17 40.5376V41.1399H209.232V39.8672H214.505C214.505 39.4202 214.414 39.0244 214.232 38.6797C214.05 38.3312 213.795 38.0566 213.465 37.8558C213.139 37.6551 212.757 37.5547 212.317 37.5547C211.84 37.5547 211.423 37.6721 211.067 37.907C210.715 38.138 210.442 38.4411 210.249 38.8161C210.06 39.1873 209.965 39.5907 209.965 40.0263V41.0206C209.965 41.6039 210.067 42.1001 210.272 42.5092C210.48 42.9183 210.77 43.2308 211.141 43.4467C211.512 43.6589 211.946 43.7649 212.442 43.7649C212.764 43.7649 213.058 43.7195 213.323 43.6286C213.588 43.5339 213.817 43.3937 214.011 43.2081C214.204 43.0225 214.351 42.7933 214.454 42.5206L216.062 42.8104C215.933 43.2839 215.702 43.6986 215.368 44.0547C215.039 44.407 214.624 44.6816 214.124 44.8786C213.628 45.0717 213.062 45.1683 212.425 45.1683ZM211.539 35.1001L212.868 32.4808H214.658L212.897 35.1001H211.539ZM217.895 44.9922V36.2649H219.537V37.6513H219.628C219.787 37.1816 220.067 36.8123 220.468 36.5433C220.874 36.2706 221.332 36.1342 221.843 36.1342C221.949 36.1342 222.074 36.138 222.218 36.1456C222.366 36.1532 222.482 36.1626 222.565 36.174V37.799C222.497 37.7801 222.376 37.7592 222.201 37.7365C222.027 37.71 221.853 37.6967 221.679 37.6967C221.277 37.6967 220.919 37.782 220.605 37.9524C220.294 38.1191 220.048 38.352 219.866 38.6513C219.684 38.9467 219.593 39.2839 219.593 39.6626V44.9922H217.895ZM227.239 45.1683C226.394 45.1683 225.667 44.977 225.057 44.5945C224.451 44.2081 223.985 43.6759 223.659 42.9979C223.334 42.3198 223.171 41.5433 223.171 40.6683C223.171 39.782 223.337 38.9998 223.671 38.3217C224.004 37.6399 224.474 37.1077 225.08 36.7251C225.686 36.3426 226.4 36.1513 227.222 36.1513C227.885 36.1513 228.476 36.2744 228.994 36.5206C229.513 36.763 229.932 37.1039 230.25 37.5433C230.572 37.9827 230.763 38.496 230.824 39.0831H229.171C229.08 38.674 228.871 38.3217 228.546 38.0263C228.224 37.7308 227.792 37.5831 227.25 37.5831C226.777 37.5831 226.362 37.7081 226.006 37.9581C225.654 38.2043 225.379 38.5566 225.182 39.0149C224.985 39.4695 224.887 40.0073 224.887 40.6286C224.887 41.2649 224.983 41.8142 225.176 42.2763C225.369 42.7384 225.642 43.0964 225.994 43.3501C226.351 43.6039 226.769 43.7308 227.25 43.7308C227.572 43.7308 227.864 43.6721 228.125 43.5547C228.39 43.4335 228.612 43.2611 228.79 43.0376C228.972 42.8142 229.099 42.5452 229.171 42.2308H230.824C230.763 42.7952 230.58 43.299 230.273 43.7422C229.966 44.1854 229.555 44.5339 229.04 44.7876C228.529 45.0414 227.928 45.1683 227.239 45.1683ZM232.481 44.9922V36.2649H234.18V44.9922H232.481ZM233.339 34.9183C233.043 34.9183 232.79 34.8198 232.577 34.6229C232.369 34.4221 232.265 34.1835 232.265 33.907C232.265 33.6267 232.369 33.388 232.577 33.1911C232.79 32.9903 233.043 32.8899 233.339 32.8899C233.634 32.8899 233.886 32.9903 234.094 33.1911C234.307 33.388 234.413 33.6267 234.413 33.907C234.413 34.1835 234.307 34.4221 234.094 34.6229C233.886 34.8198 233.634 34.9183 233.339 34.9183ZM239.981 45.1683C239.163 45.1683 238.449 44.9808 237.839 44.6058C237.229 44.2308 236.756 43.7062 236.419 43.032C236.082 42.3577 235.913 41.5698 235.913 40.6683C235.913 39.763 236.082 38.9714 236.419 38.2933C236.756 37.6153 237.229 37.0888 237.839 36.7138C238.449 36.3388 239.163 36.1513 239.981 36.1513C240.799 36.1513 241.514 36.3388 242.123 36.7138C242.733 37.0888 243.207 37.6153 243.544 38.2933C243.881 38.9714 244.049 39.763 244.049 40.6683C244.049 41.5698 243.881 42.3577 243.544 43.032C243.207 43.7062 242.733 44.2308 242.123 44.6058C241.514 44.9808 240.799 45.1683 239.981 45.1683ZM239.987 43.7422C240.517 43.7422 240.957 43.602 241.305 43.3217C241.654 43.0414 241.911 42.6683 242.078 42.2024C242.248 41.7365 242.334 41.2232 242.334 40.6626C242.334 40.1058 242.248 39.5945 242.078 39.1286C241.911 38.6589 241.654 38.282 241.305 37.9979C240.957 37.7138 240.517 37.5717 239.987 37.5717C239.453 37.5717 239.01 37.7138 238.657 37.9979C238.309 38.282 238.049 38.6589 237.879 39.1286C237.712 39.5945 237.629 40.1058 237.629 40.6626C237.629 41.2232 237.712 41.7365 237.879 42.2024C238.049 42.6683 238.309 43.0414 238.657 43.3217C239.01 43.602 239.453 43.7422 239.987 43.7422Z" fill="#00051B"/>
<mask id="mask1_384_4028" style="mask-type:alpha" maskUnits="userSpaceOnUse" x="310" y="28" width="20" height="21">
<rect x="310" y="28.9922" width="20" height="20" fill="#D9D9D9"/>
</mask>
<g mask="url(#mask1_384_4028)">
<path d="M316 46.9922L314.583 45.5755L321.167 38.9922L314.583 32.4089L316 30.9922L324 38.9922L316 46.9922Z" fill="#00051B"/>
</g>
</svg>
