<svg width="350" height="78" viewBox="0 0 350 78" fill="none" xmlns="http://www.w3.org/2000/svg">
<rect y="-0.0078125" width="350" height="78" rx="12" fill="#EAEBF1"/>
<rect x="20" y="14.9922" width="48" height="48" rx="24" fill="#ECECEC"/>
<mask id="mask0_384_4029" style="mask-type:alpha" maskUnits="userSpaceOnUse" x="31" y="26" width="26" height="26">
<rect x="31.478" y="26.4707" width="25.0435" height="25.0435" fill="#D9D9D9"/>
</mask>
<g mask="url(#mask0_384_4029)">
<path d="M37.7388 49.4277C37.1649 49.4277 36.6736 49.2233 36.2649 48.8146C35.8562 48.406 35.6519 47.9146 35.6519 47.3407V36.906C35.6519 36.332 35.8562 35.8407 36.2649 35.432C36.6736 35.0233 37.1649 34.819 37.7388 34.819H38.7823V32.732C38.7823 31.2886 39.291 30.0581 40.3084 29.0407C41.3258 28.0233 42.5562 27.5146 43.9997 27.5146C45.4432 27.5146 46.6736 28.0233 47.691 29.0407C48.7084 30.0581 49.2171 31.2886 49.2171 32.732V34.819H50.2606C50.8345 34.819 51.3258 35.0233 51.7345 35.432C52.1432 35.8407 52.3475 36.332 52.3475 36.906V47.3407C52.3475 47.9146 52.1432 48.406 51.7345 48.8146C51.3258 49.2233 50.8345 49.4277 50.2606 49.4277H37.7388ZM37.7388 47.3407H50.2606V36.906H37.7388V47.3407ZM43.9997 44.2103C44.5736 44.2103 45.0649 44.006 45.4736 43.5973C45.8823 43.1886 46.0866 42.6973 46.0866 42.1233C46.0866 41.5494 45.8823 41.0581 45.4736 40.6494C45.0649 40.2407 44.5736 40.0364 43.9997 40.0364C43.4258 40.0364 42.9345 40.2407 42.5258 40.6494C42.1171 41.0581 41.9127 41.5494 41.9127 42.1233C41.9127 42.6973 42.1171 43.1886 42.5258 43.5973C42.9345 44.006 43.4258 44.2103 43.9997 44.2103ZM40.8692 34.819H47.1301V32.732C47.1301 31.8625 46.8258 31.1233 46.2171 30.5146C45.6084 29.906 44.8692 29.6016 43.9997 29.6016C43.1301 29.6016 42.391 29.906 41.7823 30.5146C41.1736 31.1233 40.8692 31.8625 40.8692 32.732V34.819Z" fill="#00051B"/>
</g>
<path d="M85.2784 44.9922V33.3558H89.4261C90.3277 33.3558 91.0758 33.5111 91.6705 33.8217C92.2689 34.1323 92.7159 34.5623 93.0114 35.1115C93.3068 35.657 93.4545 36.2876 93.4545 37.0036C93.4545 37.7157 93.3049 38.3426 93.0057 38.8842C92.7102 39.4221 92.2633 39.8407 91.6648 40.1399C91.0701 40.4392 90.322 40.5888 89.4205 40.5888H86.2784V39.0774H89.2614C89.8295 39.0774 90.2917 38.996 90.6477 38.8331C91.0076 38.6702 91.2708 38.4335 91.4375 38.1229C91.6042 37.8123 91.6875 37.4392 91.6875 37.0036C91.6875 36.5642 91.6023 36.1835 91.4318 35.8615C91.2652 35.5395 91.0019 35.2933 90.642 35.1229C90.286 34.9486 89.8182 34.8615 89.2386 34.8615H87.0341V44.9922H85.2784ZM91.0227 39.7422L93.8977 44.9922H91.8977L89.0795 39.7422H91.0227ZM98.9465 45.1683C98.0867 45.1683 97.3462 44.9846 96.7249 44.6172C96.1075 44.246 95.6302 43.7251 95.2931 43.0547C94.9598 42.3804 94.7931 41.5907 94.7931 40.6854C94.7931 39.7914 94.9598 39.0036 95.2931 38.3217C95.6302 37.6399 96.0999 37.1077 96.7022 36.7251C97.3083 36.3426 98.0166 36.1513 98.8272 36.1513C99.3196 36.1513 99.7969 36.2327 100.259 36.3956C100.721 36.5585 101.136 36.8142 101.503 37.1626C101.871 37.5111 102.161 37.9638 102.373 38.5206C102.585 39.0736 102.691 39.746 102.691 40.5376V41.1399H95.7534V39.8672H101.026C101.026 39.4202 100.935 39.0244 100.753 38.6797C100.572 38.3312 100.316 38.0566 99.9863 37.8558C99.6605 37.6551 99.278 37.5547 98.8386 37.5547C98.3613 37.5547 97.9446 37.6721 97.5886 37.907C97.2363 38.138 96.9636 38.4411 96.7704 38.8161C96.581 39.1873 96.4863 39.5907 96.4863 40.0263V41.0206C96.4863 41.6039 96.5886 42.1001 96.7931 42.5092C97.0015 42.9183 97.2912 43.2308 97.6624 43.4467C98.0337 43.6589 98.4674 43.7649 98.9636 43.7649C99.2855 43.7649 99.5791 43.7195 99.8443 43.6286C100.109 43.5339 100.339 43.3937 100.532 43.2081C100.725 43.0225 100.873 42.7933 100.975 42.5206L102.583 42.8104C102.454 43.2839 102.223 43.6986 101.89 44.0547C101.56 44.407 101.145 44.6816 100.645 44.8786C100.149 45.0717 99.5829 45.1683 98.9465 45.1683ZM104.416 44.9922V36.2649H106.115V44.9922H104.416ZM105.274 34.9183C104.978 34.9183 104.725 34.8198 104.512 34.6229C104.304 34.4221 104.2 34.1835 104.2 33.907C104.2 33.6267 104.304 33.388 104.512 33.1911C104.725 32.9903 104.978 32.8899 105.274 32.8899C105.569 32.8899 105.821 32.9903 106.029 33.1911C106.242 33.388 106.348 33.6267 106.348 33.907C106.348 34.1835 106.242 34.4221 106.029 34.6229C105.821 34.8198 105.569 34.9183 105.274 34.9183ZM115.582 45.1626C114.877 45.1626 114.248 44.9827 113.695 44.6229C113.146 44.2592 112.714 43.7422 112.4 43.0717C112.089 42.3975 111.934 41.5888 111.934 40.6456C111.934 39.7024 112.091 38.8956 112.405 38.2251C112.724 37.5547 113.159 37.0414 113.712 36.6854C114.265 36.3293 114.892 36.1513 115.593 36.1513C116.135 36.1513 116.57 36.2422 116.9 36.424C117.233 36.602 117.491 36.8104 117.673 37.049C117.858 37.2876 118.002 37.4979 118.104 37.6797H118.207V33.3558H119.905V44.9922H118.246V43.6342H118.104C118.002 43.8198 117.854 44.032 117.661 44.2706C117.472 44.5092 117.21 44.7176 116.877 44.8956C116.544 45.0736 116.112 45.1626 115.582 45.1626ZM115.957 43.7138C116.445 43.7138 116.858 43.585 117.195 43.3274C117.536 43.0661 117.794 42.7043 117.968 42.2422C118.146 41.7801 118.235 41.2422 118.235 40.6286C118.235 40.0225 118.148 39.4922 117.974 39.0376C117.799 38.5831 117.544 38.2289 117.207 37.9751C116.869 37.7214 116.453 37.5945 115.957 37.5945C115.445 37.5945 115.019 37.727 114.678 37.9922C114.337 38.2573 114.08 38.6191 113.905 39.0774C113.735 39.5357 113.65 40.0528 113.65 40.6286C113.65 41.2119 113.737 41.7365 113.911 42.2024C114.085 42.6683 114.343 43.0376 114.684 43.3104C115.029 43.5793 115.453 43.7138 115.957 43.7138ZM124.71 45.1854C124.157 45.1854 123.657 45.0831 123.21 44.8786C122.763 44.6702 122.409 44.3691 122.147 43.9751C121.89 43.5812 121.761 43.0982 121.761 42.5263C121.761 42.0339 121.856 41.6286 122.045 41.3104C122.235 40.9922 122.49 40.7403 122.812 40.5547C123.134 40.3691 123.494 40.2289 123.892 40.1342C124.289 40.0395 124.695 39.9676 125.108 39.9183C125.63 39.8577 126.055 39.8085 126.38 39.7706C126.706 39.7289 126.943 39.6626 127.091 39.5717C127.238 39.4808 127.312 39.3331 127.312 39.1286V39.0888C127.312 38.5926 127.172 38.2081 126.892 37.9354C126.615 37.6626 126.202 37.5263 125.653 37.5263C125.081 37.5263 124.63 37.6532 124.301 37.907C123.975 38.157 123.75 38.4354 123.625 38.7422L122.028 38.3786C122.218 37.8482 122.494 37.4202 122.858 37.0945C123.225 36.7649 123.647 36.5263 124.125 36.3786C124.602 36.227 125.104 36.1513 125.63 36.1513C125.979 36.1513 126.348 36.1929 126.738 36.2763C127.132 36.3558 127.5 36.5036 127.841 36.7195C128.185 36.9354 128.468 37.2441 128.687 37.6456C128.907 38.0433 129.017 38.5604 129.017 39.1967V44.9922H127.358V43.799H127.289C127.18 44.0187 127.015 44.2346 126.795 44.4467C126.575 44.6589 126.293 44.835 125.949 44.9751C125.604 45.1153 125.191 45.1854 124.71 45.1854ZM125.079 43.8217C125.549 43.8217 125.95 43.7289 126.284 43.5433C126.621 43.3577 126.877 43.1153 127.051 42.8161C127.229 42.513 127.318 42.1892 127.318 41.8445V40.7195C127.257 40.7801 127.14 40.8369 126.966 40.8899C126.795 40.9392 126.6 40.9827 126.38 41.0206C126.161 41.0547 125.947 41.0869 125.738 41.1172C125.53 41.1437 125.356 41.1664 125.216 41.1854C124.886 41.227 124.585 41.2971 124.312 41.3956C124.043 41.4941 123.827 41.6361 123.664 41.8217C123.505 42.0036 123.426 42.246 123.426 42.549C123.426 42.9695 123.581 43.2876 123.892 43.5036C124.202 43.7157 124.598 43.8217 125.079 43.8217ZM135.33 44.9922V33.3558H137.086V38.9126H137.228L142.109 33.3558H144.319L139.626 38.5945L144.336 44.9922H142.222L138.461 39.7933L137.086 41.3729V44.9922H135.33ZM146.206 44.9922V36.2649H147.905V44.9922H146.206ZM147.064 34.9183C146.768 34.9183 146.515 34.8198 146.302 34.6229C146.094 34.4221 145.99 34.1835 145.99 33.907C145.99 33.6267 146.094 33.388 146.302 33.1911C146.515 32.9903 146.768 32.8899 147.064 32.8899C147.359 32.8899 147.611 32.9903 147.819 33.1911C148.032 33.388 148.138 33.6267 148.138 33.907C148.138 34.1835 148.032 34.4221 147.819 34.6229C147.611 34.8198 147.359 34.9183 147.064 34.9183ZM151.729 39.8104V44.9922H150.03V36.2649H151.661V37.6854H151.769C151.97 37.2232 152.284 36.852 152.712 36.5717C153.144 36.2914 153.687 36.1513 154.343 36.1513C154.937 36.1513 155.458 36.2763 155.905 36.5263C156.352 36.7725 156.699 37.1399 156.945 37.6286C157.191 38.1172 157.314 38.7214 157.314 39.4411V44.9922H155.615V39.6456C155.615 39.013 155.451 38.5187 155.121 38.1626C154.792 37.8028 154.339 37.6229 153.763 37.6229C153.369 37.6229 153.019 37.7081 152.712 37.8786C152.409 38.049 152.168 38.299 151.99 38.6286C151.816 38.9543 151.729 39.3482 151.729 39.8104ZM163.092 48.4467C162.399 48.4467 161.802 48.3558 161.302 48.174C160.806 47.9922 160.4 47.7517 160.086 47.4524C159.772 47.1532 159.537 46.8255 159.382 46.4695L160.842 45.8672C160.944 46.0339 161.08 46.21 161.251 46.3956C161.425 46.585 161.66 46.746 161.955 46.8786C162.255 47.0111 162.639 47.0774 163.109 47.0774C163.753 47.0774 164.285 46.9202 164.705 46.6058C165.126 46.2952 165.336 45.799 165.336 45.1172V43.4013H165.228C165.126 43.5869 164.978 43.7933 164.785 44.0206C164.596 44.2479 164.334 44.4448 164.001 44.6115C163.668 44.7782 163.234 44.8615 162.7 44.8615C162.01 44.8615 161.389 44.7005 160.836 44.3786C160.287 44.0528 159.851 43.5736 159.529 42.9411C159.211 42.3047 159.052 41.5225 159.052 40.5945C159.052 39.6664 159.209 38.871 159.524 38.2081C159.842 37.5452 160.277 37.0376 160.83 36.6854C161.383 36.3293 162.01 36.1513 162.711 36.1513C163.253 36.1513 163.69 36.2422 164.024 36.424C164.357 36.602 164.616 36.8104 164.802 37.049C164.991 37.2876 165.137 37.4979 165.239 37.6797H165.364V36.2649H167.029V45.1854C167.029 45.9354 166.855 46.5509 166.507 47.032C166.158 47.513 165.686 47.8691 165.092 48.1001C164.501 48.3312 163.834 48.4467 163.092 48.4467ZM163.075 43.4524C163.563 43.4524 163.976 43.3388 164.313 43.1115C164.654 42.8804 164.912 42.5509 165.086 42.1229C165.264 41.6911 165.353 41.174 165.353 40.5717C165.353 39.9846 165.266 39.4676 165.092 39.0206C164.918 38.5736 164.662 38.2251 164.325 37.9751C163.988 37.7214 163.571 37.5945 163.075 37.5945C162.563 37.5945 162.137 37.727 161.796 37.9922C161.455 38.2536 161.198 38.6096 161.024 39.0604C160.853 39.5111 160.768 40.0149 160.768 40.5717C160.768 41.1437 160.855 41.6456 161.029 42.0774C161.204 42.5092 161.461 42.8464 161.802 43.0888C162.147 43.3312 162.571 43.4524 163.075 43.4524ZM169.284 44.9922V33.3558H173.432C174.337 33.3558 175.087 33.5206 175.682 33.8501C176.276 34.1797 176.722 34.6304 177.017 35.2024C177.312 35.7706 177.46 36.4107 177.46 37.1229C177.46 37.8388 177.311 38.4827 177.011 39.0547C176.716 39.6229 176.269 40.0736 175.67 40.407C175.076 40.7365 174.328 40.9013 173.426 40.9013H170.574V39.4126H173.267C173.839 39.4126 174.303 39.3142 174.659 39.1172C175.015 38.9164 175.276 38.6437 175.443 38.299C175.61 37.9543 175.693 37.5623 175.693 37.1229C175.693 36.6835 175.61 36.2933 175.443 35.9524C175.276 35.6115 175.013 35.3445 174.653 35.1513C174.297 34.9581 173.828 34.8615 173.244 34.8615H171.04V44.9922H169.284ZM181.684 45.1854C181.131 45.1854 180.631 45.0831 180.184 44.8786C179.737 44.6702 179.383 44.3691 179.121 43.9751C178.864 43.5812 178.735 43.0982 178.735 42.5263C178.735 42.0339 178.83 41.6286 179.019 41.3104C179.208 40.9922 179.464 40.7403 179.786 40.5547C180.108 40.3691 180.468 40.2289 180.866 40.1342C181.263 40.0395 181.669 39.9676 182.081 39.9183C182.604 39.8577 183.028 39.8085 183.354 39.7706C183.68 39.7289 183.917 39.6626 184.064 39.5717C184.212 39.4808 184.286 39.3331 184.286 39.1286V39.0888C184.286 38.5926 184.146 38.2081 183.866 37.9354C183.589 37.6626 183.176 37.5263 182.627 37.5263C182.055 37.5263 181.604 37.6532 181.275 37.907C180.949 38.157 180.723 38.4354 180.598 38.7422L179.002 38.3786C179.191 37.8482 179.468 37.4202 179.831 37.0945C180.199 36.7649 180.621 36.5263 181.098 36.3786C181.576 36.227 182.078 36.1513 182.604 36.1513C182.953 36.1513 183.322 36.1929 183.712 36.2763C184.106 36.3558 184.473 36.5036 184.814 36.7195C185.159 36.9354 185.441 37.2441 185.661 37.6456C185.881 38.0433 185.991 38.5604 185.991 39.1967V44.9922H184.331V43.799H184.263C184.153 44.0187 183.989 44.2346 183.769 44.4467C183.549 44.6589 183.267 44.835 182.922 44.9751C182.578 45.1153 182.165 45.1854 181.684 45.1854ZM182.053 43.8217C182.523 43.8217 182.924 43.7289 183.258 43.5433C183.595 43.3577 183.85 43.1153 184.025 42.8161C184.203 42.513 184.292 42.1892 184.292 41.8445V40.7195C184.231 40.7801 184.114 40.8369 183.939 40.8899C183.769 40.9392 183.574 40.9827 183.354 41.0206C183.134 41.0547 182.92 41.0869 182.712 41.1172C182.504 41.1437 182.33 41.1664 182.189 41.1854C181.86 41.227 181.559 41.2971 181.286 41.3956C181.017 41.4941 180.801 41.6361 180.638 41.8217C180.479 42.0036 180.4 42.246 180.4 42.549C180.4 42.9695 180.555 43.2876 180.866 43.5036C181.176 43.7157 181.572 43.8217 182.053 43.8217ZM188.855 48.2649C188.601 48.2649 188.37 48.2441 188.161 48.2024C187.953 48.1645 187.798 48.1229 187.696 48.0774L188.105 46.6854C188.415 46.7687 188.692 46.8047 188.934 46.7933C189.177 46.782 189.391 46.6911 189.576 46.5206C189.766 46.3501 189.932 46.0717 190.076 45.6854L190.286 45.1058L187.093 36.2649H188.911L191.122 43.0376H191.213L193.423 36.2649H195.247L191.65 46.157C191.483 46.6115 191.271 46.996 191.014 47.3104C190.756 47.6286 190.449 47.8672 190.093 48.0263C189.737 48.1854 189.324 48.2649 188.855 48.2649Z" fill="#00051B"/>
<mask id="mask1_384_4029" style="mask-type:alpha" maskUnits="userSpaceOnUse" x="310" y="28" width="20" height="21">
<rect x="310" y="28.9922" width="20" height="20" fill="#D9D9D9"/>
</mask>
<g mask="url(#mask1_384_4029)">
<path d="M316 46.9922L314.583 45.5755L321.167 38.9922L314.583 32.4089L316 30.9922L324 38.9922L316 46.9922Z" fill="#00051B"/>
</g>
</svg>
