<svg width="16" height="16" viewBox="0 0 16 16" fill="none" xmlns="http://www.w3.org/2000/svg">
<path d="M3 15.2305V13.2305H10.1C11.15 13.2305 12.0625 12.8971 12.8375 12.2305C13.6125 11.5638 14 10.7305 14 9.73047C14 8.73047 13.6125 7.89714 12.8375 7.23047C12.0625 6.5638 11.15 6.23047 10.1 6.23047H3.8L6.4 8.83047L5 10.2305L0 5.23047L5 0.230469L6.4 1.63047L3.8 4.23047H10.1C11.7167 4.23047 13.1042 4.75547 14.2625 5.80547C15.4208 6.85547 16 8.1638 16 9.73047C16 11.2971 15.4208 12.6055 14.2625 13.6555C13.1042 14.7055 11.7167 15.2305 10.1 15.2305H3Z" fill="#5B5B5B"/>
</svg>
