<svg width="311" height="163" viewBox="0 0 311 163" fill="none" xmlns="http://www.w3.org/2000/svg">
<path d="M10.7051 45.601L1.42898 83.1724C0.628039 86.4165 0.223145 89.7456 0.223145 93.0871V142.633C0.223145 153.454 8.9954 162.226 19.8165 162.226H290.406C301.228 162.226 310 153.454 310 142.633V93.604C301.769 100.309 293.91 92.4864 288.084 82.1192C282.933 72.9535 271.482 68.1746 262.318 73.3291C254.243 77.8714 244.011 74.8614 239.681 66.6698L232.312 52.7271C227.733 44.0628 217.456 40.1145 208.253 43.4836L195.941 47.9911C189.813 50.2345 182.938 48.5841 178.496 43.8037C170.148 34.8195 155.233 38.0028 151.28 49.6122L140.469 81.3649C138.139 88.2071 128.624 88.633 125.692 82.0264C124.075 78.3824 120.007 76.5019 116.184 77.6309L112.369 78.7575C106.721 80.4254 100.675 77.9163 97.8682 72.7389L91.0344 60.1346C87.4793 53.5774 78.5939 52.3303 73.371 57.6555C68.3178 62.8075 59.7676 61.8361 55.9991 55.6817L46.4367 40.0656C37.3511 25.2282 14.8754 28.71 10.7051 45.601Z" fill="url(#paint0_linear_466_2283)"/>
<path d="M1.5 88.7357L11.1757 46.7775C15.1179 29.6822 37.8157 25.9867 46.9774 40.9483L55.9993 55.6817C59.7678 61.8361 68.318 62.8075 73.3712 57.6555V57.6555C78.5941 52.3303 87.4794 53.5774 91.0346 60.1346L97.8683 72.7389C100.675 77.9162 106.721 80.4254 112.369 78.7575L116.184 77.6309C120.007 76.5019 124.075 78.3824 125.692 82.0264V82.0264C128.624 88.633 138.14 88.2071 140.469 81.365L151.28 49.6122C155.233 38.0028 170.148 34.8195 178.496 43.8037V43.8037C182.938 48.5841 189.813 50.2345 195.941 47.9911L208.254 43.4835C217.456 40.1145 227.733 44.0628 232.312 52.727L239.681 66.6698C244.011 74.8614 254.243 77.8714 262.318 73.3291V73.3291C271.482 68.1746 282.862 72.9632 287.81 82.2401C293.339 92.6066 300.79 100.423 309 93.7357" stroke="#1313F2" stroke-width="2.17703" stroke-linecap="round"/>
<path d="M310 9.23584L-7.79005e-06 9.23584" stroke="#9898FF" stroke-width="0.544259" stroke-dasharray="3.27 3.27"/>
<path d="M310 54.2358L-7.79005e-06 54.2358" stroke="#9898FF" stroke-width="0.544259" stroke-dasharray="3.27 3.27"/>
<path d="M310 99.2358L-7.79005e-06 99.2358" stroke="#9898FF" stroke-width="0.544259" stroke-dasharray="3.27 3.27"/>
<path d="M310 144.236L-7.79005e-06 144.236" stroke="#9898FF" stroke-width="0.544259" stroke-dasharray="3.27 3.27"/>
<defs>
<linearGradient id="paint0_linear_466_2283" x1="155.111" y1="0.0708008" x2="155.111" y2="162.226" gradientUnits="userSpaceOnUse">
<stop stop-color="#9898FF"/>
<stop offset="1" stop-color="#D9D9D9" stop-opacity="0"/>
</linearGradient>
</defs>
</svg>
