<svg width="26" height="26" viewBox="0 0 26 26" fill="none" xmlns="http://www.w3.org/2000/svg">
<path d="M16.8081 19.5381C17.2628 19.9942 17.803 20.3562 18.3979 20.6025C18.4223 20.6126 18.4476 20.6212 18.4722 20.6309L15.0249 24.0801C13.9064 25.1981 12.0905 25.1983 10.9722 24.0801L7.61768 20.7256C7.7164 20.692 7.815 20.6572 7.91162 20.6172C8.50733 20.3705 9.04757 20.0077 9.50244 19.5508L13.1616 15.8916L16.8081 19.5381ZM12.9985 1.08301C13.6636 1.08301 14.3049 1.31475 14.8149 1.73242L15.0259 1.92285L18.4722 5.36816C18.4477 5.37783 18.4232 5.38739 18.3989 5.39746C17.8036 5.64412 17.2627 6.00619 16.8081 6.46289L13.1626 10.1074L9.50146 6.44629C8.96391 5.9088 8.32082 5.51222 7.61963 5.27344L10.9712 1.92188L10.9722 1.92285C11.5097 1.38567 12.2386 1.0831 12.9985 1.08301Z" stroke="#1313F2" stroke-width="2.16667"/>
<path d="M6.03223 8.32178C6.45536 8.32288 6.86121 8.49109 7.16113 8.78955L11.0732 12.7026V12.7036C11.1824 12.8133 11.3014 12.9116 11.4258 13.0024C11.3093 13.0851 11.1964 13.1743 11.0918 13.2739L11.0732 13.2925L7.15918 17.2095C6.86524 17.5032 6.45435 17.6743 6.03516 17.6743H4.56934L1.92188 15.0269C0.8035 13.9062 0.80433 12.0911 1.92188 10.9731L1.92285 10.9722L4.57129 8.32178H6.03223ZM20.2764 8.33838H21.4434L24.0781 10.9731C25.1962 12.0916 25.1965 13.9075 24.0781 15.0259L21.4453 17.6577H20.2764C19.8583 17.6576 19.4461 17.4858 19.1553 17.1938L15.2441 13.2827L15.2344 13.2739C15.1297 13.1743 15.0169 13.0852 14.9004 13.0024C15.0247 12.9118 15.1448 12.8151 15.2539 12.7056L19.1553 8.8042C19.4475 8.5109 19.8602 8.3385 20.2764 8.33838Z" stroke="#1313F2" stroke-width="2.16667"/>
</svg>
