<svg width="76" height="76" viewBox="0 0 76 76" fill="none" xmlns="http://www.w3.org/2000/svg">
<rect width="76" height="76" rx="38" fill="#F9FAFC"/>
<mask id="mask0_489_1304" style="mask-type:alpha" maskUnits="userSpaceOnUse" x="22" y="22" width="32" height="32">
<rect x="22" y="22" width="32" height="32" fill="#D9D9D9"/>
</mask>
<g mask="url(#mask0_489_1304)">
<path d="M44.6665 48.6668V44.6668H40.6665V42.0002H44.6665V38.0002H47.3332V42.0002H51.3332V44.6668H47.3332V48.6668H44.6665ZM36.6665 44.6668H31.3332C29.4887 44.6668 27.9165 44.0168 26.6165 42.7168C25.3165 41.4168 24.6665 39.8446 24.6665 38.0002C24.6665 36.1557 25.3165 34.5835 26.6165 33.2835C27.9165 31.9835 29.4887 31.3335 31.3332 31.3335H36.6665V34.0002H31.3332C30.2221 34.0002 29.2776 34.3891 28.4998 35.1668C27.7221 35.9446 27.3332 36.8891 27.3332 38.0002C27.3332 39.1113 27.7221 40.0557 28.4998 40.8335C29.2776 41.6113 30.2221 42.0002 31.3332 42.0002H36.6665V44.6668ZM32.6665 39.3335V36.6668H43.3332V39.3335H32.6665ZM51.3332 38.0002H48.6665C48.6665 36.8891 48.2776 35.9446 47.4998 35.1668C46.7221 34.3891 45.7776 34.0002 44.6665 34.0002H39.3332V31.3335H44.6665C46.5109 31.3335 48.0832 31.9835 49.3832 33.2835C50.6832 34.5835 51.3332 36.1557 51.3332 38.0002Z" fill="#1313F2"/>
</g>
</svg>
