<svg width="48" height="48" viewBox="0 0 48 48" fill="none" xmlns="http://www.w3.org/2000/svg">
<rect width="48" height="48" rx="24" fill="#1313F2"/>
<mask id="mask0_396_1417" style="mask-type:alpha" maskUnits="userSpaceOnUse" x="11" y="11" width="26" height="26">
<rect x="11.478" y="11.478" width="25.0435" height="25.0435" fill="#D9D9D9"/>
</mask>
<g mask="url(#mask0_396_1417)">
<path d="M19.2608 33.8695V31.7826H23.4347V28.5478C22.5826 28.3565 21.8217 27.9956 21.1521 27.4652C20.4826 26.9347 19.9913 26.2695 19.6782 25.4695C18.3739 25.313 17.2826 24.7434 16.4043 23.7608C15.526 22.7782 15.0869 21.626 15.0869 20.3043V19.2608C15.0869 18.6869 15.2913 18.1956 15.7 17.7869C16.1087 17.3782 16.6 17.1739 17.1739 17.1739H19.2608V15.0869H29.6956V17.1739H31.7826C32.3565 17.1739 32.8478 17.3782 33.2565 17.7869C33.6652 18.1956 33.8695 18.6869 33.8695 19.2608V20.3043C33.8695 21.626 33.4304 22.7782 32.5521 23.7608C31.6739 24.7434 30.5826 25.313 29.2782 25.4695C28.9652 26.2695 28.4739 26.9347 27.8043 27.4652C27.1347 27.9956 26.3739 28.3565 25.5217 28.5478V31.7826H29.6956V33.8695H19.2608ZM19.2608 23.226V19.2608H17.1739V20.3043C17.1739 20.9652 17.3652 21.5608 17.7478 22.0913C18.1304 22.6217 18.6347 23 19.2608 23.226ZM24.4782 26.5652C25.3478 26.5652 26.0869 26.2608 26.6956 25.6521C27.3043 25.0434 27.6087 24.3043 27.6087 23.4347V17.1739H21.3478V23.4347C21.3478 24.3043 21.6521 25.0434 22.2608 25.6521C22.8695 26.2608 23.6087 26.5652 24.4782 26.5652ZM29.6956 23.226C30.3217 23 30.826 22.6217 31.2087 22.0913C31.5913 21.5608 31.7826 20.9652 31.7826 20.3043V19.2608H29.6956V23.226Z" fill="#E5EBFF"/>
</g>
</svg>
