<svg width="48" height="48" viewBox="0 0 48 48" fill="none" xmlns="http://www.w3.org/2000/svg">
<rect width="47.5902" height="47.5902" rx="23.7951" fill="#DDDDDD"/>
<path d="M21.8463 22.0515C21.7761 21.8075 21.6775 21.5919 21.5505 21.4047C21.4235 21.2142 21.2681 21.0538 21.0843 20.9235C20.9038 20.7898 20.6966 20.6878 20.4626 20.6176C20.232 20.5475 19.9763 20.5124 19.6956 20.5124C19.1708 20.5124 18.7096 20.6427 18.3119 20.9034C17.9175 21.1641 17.61 21.5434 17.3894 22.0414C17.1688 22.5361 17.0585 23.141 17.0585 23.8563C17.0585 24.5715 17.1672 25.1798 17.3844 25.6811C17.6017 26.1825 17.9091 26.5652 18.3069 26.8292C18.7046 27.0899 19.1742 27.2203 19.7156 27.2203C20.2069 27.2203 20.6264 27.1334 20.974 26.9596C21.3249 26.7824 21.5923 26.5334 21.7761 26.2126C21.9633 25.8917 22.0569 25.5124 22.0569 25.0745L22.498 25.1397H19.851V23.5053H24.1474V24.7988C24.1474 25.7012 23.9569 26.4766 23.5759 27.125C23.1949 27.7701 22.6702 28.268 22.0017 28.619C21.3333 28.9666 20.5679 29.1404 19.7056 29.1404C18.743 29.1404 17.8974 28.9281 17.1688 28.5037C16.4402 28.0759 15.872 27.4693 15.4643 26.6838C15.0599 25.8951 14.8577 24.9592 14.8577 23.8763C14.8577 23.0441 14.978 22.3021 15.2186 21.6504C15.4626 20.9953 15.8035 20.4405 16.2414 19.986C16.6792 19.5314 17.1889 19.1855 17.7704 18.9482C18.352 18.7109 18.982 18.5922 19.6605 18.5922C20.242 18.5922 20.7835 18.6775 21.2848 18.8479C21.7861 19.015 22.2307 19.2523 22.6184 19.5598C23.0094 19.8673 23.3286 20.2333 23.5759 20.6578C23.8232 21.0789 23.982 21.5434 24.0522 22.0515H21.8463ZM31.0655 21.6855C31.0254 21.2811 30.8533 20.9669 30.5492 20.743C30.245 20.5191 29.8323 20.4071 29.3109 20.4071C28.9566 20.4071 28.6575 20.4572 28.4135 20.5575C28.1695 20.6544 27.9823 20.7898 27.852 20.9636C27.725 21.1374 27.6615 21.3346 27.6615 21.5551C27.6548 21.739 27.6932 21.8994 27.7768 22.0364C27.8637 22.1735 27.9823 22.2921 28.1327 22.3924C28.2831 22.4893 28.4569 22.5745 28.6541 22.6481C28.8513 22.7182 29.0619 22.7784 29.2858 22.8285L30.2083 23.0491C30.6561 23.1494 31.0672 23.2831 31.4415 23.4502C31.8159 23.6173 32.1401 23.8229 32.4141 24.0668C32.6882 24.3108 32.9004 24.5983 33.0508 24.9291C33.2046 25.26 33.2831 25.6394 33.2865 26.0672C33.2831 26.6955 33.1227 27.2403 32.8052 27.7015C32.491 28.1594 32.0365 28.5154 31.4415 28.7694C30.85 29.0201 30.1364 29.1454 29.3008 29.1454C28.472 29.1454 27.75 29.0184 27.1351 28.7644C26.5234 28.5104 26.0455 28.1344 25.7012 27.6364C25.3603 27.135 25.1815 26.515 25.1648 25.7764H27.2654C27.2888 26.1207 27.3874 26.4081 27.5612 26.6387C27.7383 26.866 27.974 27.0381 28.2681 27.1551C28.5655 27.2687 28.9014 27.3255 29.2758 27.3255C29.6434 27.3255 29.9626 27.2721 30.2333 27.1651C30.5074 27.0582 30.7196 26.9094 30.87 26.7189C31.0204 26.5284 31.0956 26.3095 31.0956 26.0622C31.0956 25.8316 31.0271 25.6377 30.8901 25.4806C30.7564 25.3235 30.5592 25.1898 30.2985 25.0795C30.0411 24.9693 29.7253 24.869 29.351 24.7787L28.233 24.498C27.3673 24.2874 26.6839 23.9582 26.1825 23.5104C25.6812 23.0625 25.4322 22.4592 25.4355 21.7005C25.4322 21.0789 25.5976 20.5358 25.9319 20.0712C26.2694 19.6066 26.7323 19.244 27.3206 18.9833C27.9088 18.7226 28.5772 18.5922 29.3259 18.5922C30.0879 18.5922 30.753 18.7226 31.3212 18.9833C31.8927 19.244 32.3373 19.6066 32.6548 20.0712C32.9723 20.5358 33.1361 21.0739 33.1461 21.6855H31.0655Z" fill="#1313F2"/>
</svg>
