<svg width="28" height="28" viewBox="0 0 28 28" fill="none" xmlns="http://www.w3.org/2000/svg">
<mask id="mask0_401_2205" style="mask-type:alpha" maskUnits="userSpaceOnUse" x="0" y="0" width="28" height="28">
<rect width="27.8824" height="27.8824" fill="#D9D9D9"/>
</mask>
<g mask="url(#mask0_401_2205)">
<path d="M13.7962 23.2355C13.8737 23.2355 13.9511 23.2161 14.0286 23.1774C14.106 23.1387 14.1641 23.1 14.2028 23.0612L23.7293 13.5348C23.9616 13.3024 24.1311 13.041 24.2376 12.7506C24.3441 12.4601 24.3973 12.1697 24.3973 11.8792C24.3973 11.5694 24.3441 11.2742 24.2376 10.9934C24.1311 10.7126 23.9616 10.4658 23.7293 10.2528L18.7918 5.31527C18.5788 5.08292 18.3319 4.9135 18.0512 4.807C17.7704 4.70051 17.4751 4.64726 17.1653 4.64726C16.8749 4.64726 16.5844 4.70051 16.294 4.807C16.0036 4.9135 15.7422 5.08292 15.5098 5.31527L15.1903 5.63476L17.3396 7.81307C17.63 8.08415 17.843 8.39395 17.9786 8.74248C18.1141 9.09101 18.1819 9.4589 18.1819 9.84616C18.1819 10.6594 17.9059 11.3419 17.3541 11.8938C16.8023 12.4456 16.1197 12.7215 15.3065 12.7215C14.9192 12.7215 14.5465 12.6538 14.1883 12.5182C13.8301 12.3827 13.5154 12.1794 13.2444 11.9083L11.0661 9.75902L5.98333 14.8417C5.92524 14.8998 5.88168 14.9628 5.85263 15.0305C5.82359 15.0983 5.80907 15.1709 5.80907 15.2484C5.80907 15.4033 5.86716 15.5436 5.98333 15.6695C6.09951 15.7954 6.23505 15.8583 6.38995 15.8583C6.4674 15.8583 6.54485 15.8389 6.6223 15.8002C6.69975 15.7615 6.75784 15.7228 6.79657 15.684L10.7466 11.734L12.373 13.3605L8.45208 17.3105C8.39399 17.3686 8.35043 17.4315 8.32138 17.4993C8.29234 17.5671 8.27782 17.6397 8.27782 17.7171C8.27782 17.872 8.33591 18.0076 8.45208 18.1237C8.56826 18.2399 8.7038 18.298 8.8587 18.298C8.93615 18.298 9.0136 18.2786 9.09105 18.2399C9.1685 18.2012 9.22659 18.1625 9.26532 18.1237L13.2153 14.2028L14.8418 15.8292L10.9208 19.7792C10.8627 19.818 10.8192 19.8761 10.7901 19.9535C10.7611 20.031 10.7466 20.1084 10.7466 20.1859C10.7466 20.3408 10.8047 20.4763 10.9208 20.5925C11.037 20.7087 11.1725 20.7667 11.3275 20.7667C11.4049 20.7667 11.4775 20.7522 11.5453 20.7232C11.6131 20.6941 11.676 20.6506 11.7341 20.5925L15.6841 16.6715L17.3105 18.298L13.3605 22.248C13.3025 22.3061 13.2589 22.369 13.2298 22.4368C13.2008 22.5046 13.1863 22.5772 13.1863 22.6546C13.1863 22.8095 13.2492 22.9451 13.3751 23.0612C13.5009 23.1774 13.6413 23.2355 13.7962 23.2355ZM13.7672 25.559C13.0507 25.559 12.4166 25.3218 11.8648 24.8474C11.3129 24.3731 10.9886 23.7777 10.8918 23.0612C10.2335 22.9644 9.68162 22.6933 9.23627 22.248C8.79093 21.8027 8.51985 21.2508 8.42304 20.5925C7.7647 20.4957 7.21771 20.2197 6.78205 19.7647C6.34638 19.3097 6.08015 18.7627 5.98333 18.1237C5.24755 18.0269 4.6473 17.7074 4.1826 17.1653C3.71789 16.6231 3.48554 15.9841 3.48554 15.2484C3.48554 14.8611 3.55815 14.4884 3.70337 14.1302C3.84859 13.772 4.05674 13.4573 4.32782 13.1862L11.0661 6.47704L14.8708 10.2818C14.9096 10.3399 14.9676 10.3835 15.0451 10.4125C15.1225 10.4416 15.2 10.4561 15.2774 10.4561C15.4517 10.4561 15.5969 10.4028 15.7131 10.2963C15.8293 10.1898 15.8874 10.0495 15.8874 9.8752C15.8874 9.79775 15.8729 9.7203 15.8438 9.64285C15.8148 9.5654 15.7712 9.50731 15.7131 9.46858L11.5598 5.31527C11.3468 5.08292 11.0999 4.9135 10.8192 4.807C10.5384 4.70051 10.2431 4.64726 9.93333 4.64726C9.64289 4.64726 9.35245 4.70051 9.06201 4.807C8.77157 4.9135 8.51017 5.08292 8.27782 5.31527L4.1826 9.43954C4.00833 9.6138 3.86311 9.81711 3.74693 10.0495C3.63076 10.2818 3.55331 10.5142 3.51458 10.7465C3.47586 10.9789 3.47586 11.2161 3.51458 11.4581C3.55331 11.7001 3.63076 11.9277 3.74693 12.1406L2.06238 13.8252C1.73321 13.3799 1.49117 12.8909 1.33627 12.3585C1.18137 11.826 1.12328 11.2887 1.16201 10.7465C1.20073 10.2044 1.33627 9.67673 1.56863 9.16362C1.80098 8.65051 2.12046 8.19064 2.52708 7.78403L6.6223 3.6888C7.08701 3.24346 7.60496 2.90461 8.17616 2.67226C8.74736 2.43991 9.33309 2.32373 9.93333 2.32373C10.5336 2.32373 11.1193 2.43991 11.6905 2.67226C12.2617 2.90461 12.77 3.24346 13.2153 3.6888L13.5348 4.00829L13.8543 3.6888C14.319 3.24346 14.8369 2.90461 15.4081 2.67226C15.9793 2.43991 16.5651 2.32373 17.1653 2.32373C17.7656 2.32373 18.3513 2.43991 18.9225 2.67226C19.4937 2.90461 20.002 3.24346 20.4473 3.6888L25.3558 8.59726C25.8011 9.0426 26.14 9.55572 26.3723 10.1366C26.6047 10.7175 26.7208 11.308 26.7208 11.9083C26.7208 12.5085 26.6047 13.0943 26.3723 13.6655C26.14 14.2367 25.8011 14.7449 25.3558 15.1903L15.8293 24.6877C15.5582 24.9588 15.2436 25.1718 14.8854 25.3267C14.5271 25.4816 14.1544 25.559 13.7672 25.559Z" fill="#00051B"/>
</g>
</svg>
