<svg width="18" height="19" viewBox="0 0 18 19" fill="none" xmlns="http://www.w3.org/2000/svg">
<path d="M11.6362 13.7568C11.9511 14.0727 12.3257 14.3226 12.7378 14.4932C12.7546 14.5001 12.7717 14.506 12.7886 14.5127L10.4019 16.9014C9.6275 17.6752 8.37037 17.6755 7.59619 16.9014L5.2749 14.5791C5.34289 14.5559 5.4105 14.5315 5.47705 14.5039C5.88902 14.3333 6.26293 14.0825 6.57764 13.7666L6.57861 13.7676L9.11182 11.2324L11.6362 13.7568ZM8.99951 0.980469C9.52534 0.980486 10.0297 1.18907 10.4019 1.56055V1.56152L12.7886 3.94727C12.7717 3.95394 12.7546 3.96082 12.7378 3.96777C12.3262 4.13833 11.9526 4.38853 11.6382 4.7041L9.11279 7.22852L6.57861 4.69336C6.20652 4.32127 5.76125 4.04621 5.27588 3.88086L7.59619 1.56152C7.96839 1.18958 8.47332 0.980469 8.99951 0.980469Z" stroke="#5B5B5B" stroke-width="1.5"/>
<path d="M4.17578 5.99219L4.28516 5.99707C4.50207 6.01898 4.7081 6.10428 4.87695 6.24219L4.95801 6.31543L7.66602 9.02441V9.02539C7.74146 9.10122 7.8242 9.16861 7.91016 9.23145C7.82955 9.28866 7.7521 9.35101 7.67969 9.41992L7.66602 9.43359L4.95703 12.1445C4.75364 12.3479 4.46885 12.4667 4.17871 12.4668H3.16309L1.33105 10.6338C0.556365 9.85791 0.556985 8.60122 1.33105 7.82715L3.16406 5.99219H4.17578ZM14.0381 6.00391H14.8467L16.6689 7.82715C17.4433 8.60147 17.4433 9.85849 16.6689 10.6328L14.8467 12.4551H14.0381C13.7485 12.4551 13.4631 12.336 13.2617 12.1338L10.5605 9.43262L10.5537 9.42676L10.5469 9.41992C10.4744 9.35095 10.3961 9.28968 10.3154 9.23242C10.4017 9.16953 10.4849 9.10232 10.5605 9.02637L13.2617 6.3252C13.4641 6.12221 13.75 6.00391 14.0381 6.00391Z" stroke="#5B5B5B" stroke-width="1.5"/>
</svg>
