<svg width="28" height="28" viewBox="0 0 28 28" fill="none" xmlns="http://www.w3.org/2000/svg">
<mask id="mask0_401_2201" style="mask-type:alpha" maskUnits="userSpaceOnUse" x="0" y="0" width="28" height="28">
<rect width="27.8824" height="27.8824" fill="#D9D9D9"/>
</mask>
<g mask="url(#mask0_401_2201)">
<path d="M13.941 18.5881C15.3932 18.5881 16.6276 18.0799 17.6442 17.0633C18.6607 16.0468 19.169 14.8124 19.169 13.3602C19.169 11.908 18.6607 10.6736 17.6442 9.65708C16.6276 8.64054 15.3932 8.13227 13.941 8.13227C12.4888 8.13227 11.2545 8.64054 10.2379 9.65708C9.22136 10.6736 8.71309 11.908 8.71309 13.3602C8.71309 14.8124 9.22136 16.0468 10.2379 17.0633C11.2545 18.0799 12.4888 18.5881 13.941 18.5881ZM13.941 16.497C13.0697 16.497 12.3291 16.192 11.7192 15.5821C11.1092 14.9722 10.8043 14.2315 10.8043 13.3602C10.8043 12.4889 11.1092 11.7483 11.7192 11.1383C12.3291 10.5284 13.0697 10.2234 13.941 10.2234C14.8124 10.2234 15.553 10.5284 16.1629 11.1383C16.7728 11.7483 17.0778 12.4889 17.0778 13.3602C17.0778 14.2315 16.7728 14.9722 16.1629 15.5821C15.553 16.192 14.8124 16.497 13.941 16.497ZM13.941 22.0734C11.1141 22.0734 8.53883 21.2844 6.2153 19.7063C3.89177 18.1283 2.20721 16.0129 1.16162 13.3602C2.20721 10.7075 3.89177 8.59213 6.2153 7.01407C8.53883 5.436 11.1141 4.64697 13.941 4.64697C16.768 4.64697 19.3432 5.436 21.6668 7.01407C23.9903 8.59213 25.6749 10.7075 26.7204 13.3602C25.6749 16.0129 23.9903 18.1283 21.6668 19.7063C19.3432 21.2844 16.768 22.0734 13.941 22.0734ZM13.941 19.7499C16.129 19.7499 18.1379 19.1739 19.9677 18.0218C21.7975 16.8697 23.1964 15.3158 24.1646 13.3602C23.1964 11.4046 21.7975 9.85071 19.9677 8.69863C18.1379 7.54654 16.129 6.9705 13.941 6.9705C11.753 6.9705 9.74416 7.54654 7.91438 8.69863C6.0846 9.85071 4.68564 11.4046 3.7175 13.3602C4.68564 15.3158 6.0846 16.8697 7.91438 18.0218C9.74416 19.1739 11.753 19.7499 13.941 19.7499Z" fill="#00051B"/>
</g>
</svg>
