<svg width="32" height="32" viewBox="0 0 32 32" fill="none" xmlns="http://www.w3.org/2000/svg">
<mask id="mask0_396_1406" style="mask-type:alpha" maskUnits="userSpaceOnUse" x="0" y="0" width="32" height="32">
<rect width="32" height="32" fill="#D9D9D9"/>
</mask>
<g mask="url(#mask0_396_1406)">
<path d="M22.6665 26.6668V22.6668H18.6665V20.0002H22.6665V16.0002H25.3332V20.0002H29.3332V22.6668H25.3332V26.6668H22.6665ZM14.6665 22.6668H9.33317C7.48873 22.6668 5.9165 22.0168 4.6165 20.7168C3.3165 19.4168 2.6665 17.8446 2.6665 16.0002C2.6665 14.1557 3.3165 12.5835 4.6165 11.2835C5.9165 9.9835 7.48873 9.3335 9.33317 9.3335H14.6665V12.0002H9.33317C8.22206 12.0002 7.27761 12.3891 6.49984 13.1668C5.72206 13.9446 5.33317 14.8891 5.33317 16.0002C5.33317 17.1113 5.72206 18.0557 6.49984 18.8335C7.27761 19.6113 8.22206 20.0002 9.33317 20.0002H14.6665V22.6668ZM10.6665 17.3335V14.6668H21.3332V17.3335H10.6665ZM29.3332 16.0002H26.6665C26.6665 14.8891 26.2776 13.9446 25.4998 13.1668C24.7221 12.3891 23.7776 12.0002 22.6665 12.0002H17.3332V9.3335H22.6665C24.5109 9.3335 26.0832 9.9835 27.3832 11.2835C28.6832 12.5835 29.3332 14.1557 29.3332 16.0002Z" fill="#1313F2"/>
</g>
</svg>
