<svg width="56" height="54" viewBox="0 0 56 54" fill="none" xmlns="http://www.w3.org/2000/svg">
<rect width="56" height="54" rx="27" fill="#F2F2F2"/>
<mask id="mask0_396_1547" style="mask-type:alpha" maskUnits="userSpaceOnUse" x="16" y="15" width="24" height="24">
<rect x="16" y="15" width="24" height="24" fill="#D9D9D9"/>
</mask>
<g mask="url(#mask0_396_1547)">
<path d="M25.2502 37L24.8502 33.8C24.6335 33.7167 24.4294 33.6167 24.2377 33.5C24.046 33.3833 23.8585 33.2583 23.6752 33.125L20.7002 34.375L17.9502 29.625L20.5252 27.675C20.5085 27.5583 20.5002 27.4458 20.5002 27.3375V26.6625C20.5002 26.5542 20.5085 26.4417 20.5252 26.325L17.9502 24.375L20.7002 19.625L23.6752 20.875C23.8585 20.7417 24.0502 20.6167 24.2502 20.5C24.4502 20.3833 24.6502 20.2833 24.8502 20.2L25.2502 17H30.7502L31.1502 20.2C31.3669 20.2833 31.571 20.3833 31.7627 20.5C31.9544 20.6167 32.1419 20.7417 32.3252 20.875L35.3002 19.625L38.0502 24.375L35.4752 26.325C35.4919 26.4417 35.5002 26.5542 35.5002 26.6625V27.3375C35.5002 27.4458 35.4835 27.5583 35.4502 27.675L38.0252 29.625L35.2752 34.375L32.3252 33.125C32.1419 33.2583 31.9502 33.3833 31.7502 33.5C31.5502 33.6167 31.3502 33.7167 31.1502 33.8L30.7502 37H25.2502ZM27.0002 35H28.9752L29.3252 32.35C29.8419 32.2167 30.321 32.0208 30.7627 31.7625C31.2044 31.5042 31.6085 31.1917 31.9752 30.825L34.4502 31.85L35.4252 30.15L33.2752 28.525C33.3585 28.2917 33.4169 28.0458 33.4502 27.7875C33.4835 27.5292 33.5002 27.2667 33.5002 27C33.5002 26.7333 33.4835 26.4708 33.4502 26.2125C33.4169 25.9542 33.3585 25.7083 33.2752 25.475L35.4252 23.85L34.4502 22.15L31.9752 23.2C31.6085 22.8167 31.2044 22.4958 30.7627 22.2375C30.321 21.9792 29.8419 21.7833 29.3252 21.65L29.0002 19H27.0252L26.6752 21.65C26.1585 21.7833 25.6794 21.9792 25.2377 22.2375C24.796 22.4958 24.3919 22.8083 24.0252 23.175L21.5502 22.15L20.5752 23.85L22.7252 25.45C22.6419 25.7 22.5835 25.95 22.5502 26.2C22.5169 26.45 22.5002 26.7167 22.5002 27C22.5002 27.2667 22.5169 27.525 22.5502 27.775C22.5835 28.025 22.6419 28.275 22.7252 28.525L20.5752 30.15L21.5502 31.85L24.0252 30.8C24.3919 31.1833 24.796 31.5042 25.2377 31.7625C25.6794 32.0208 26.1585 32.2167 26.6752 32.35L27.0002 35ZM28.0502 30.5C29.0169 30.5 29.8419 30.1583 30.5252 29.475C31.2085 28.7917 31.5502 27.9667 31.5502 27C31.5502 26.0333 31.2085 25.2083 30.5252 24.525C29.8419 23.8417 29.0169 23.5 28.0502 23.5C27.0669 23.5 26.2377 23.8417 25.5627 24.525C24.8877 25.2083 24.5502 26.0333 24.5502 27C24.5502 27.9667 24.8877 28.7917 25.5627 29.475C26.2377 30.1583 27.0669 30.5 28.0502 30.5Z" fill="#B0B0B0"/>
</g>
</svg>
