<svg width="76" height="76" viewBox="0 0 76 76" fill="none" xmlns="http://www.w3.org/2000/svg">
<rect width="76" height="76" rx="38" fill="#F9FAFC"/>
<mask id="mask0_489_1292" style="mask-type:alpha" maskUnits="userSpaceOnUse" x="22" y="22" width="32" height="32">
<rect x="22" y="22" width="32" height="32" fill="#D9D9D9"/>
</mask>
<g mask="url(#mask0_489_1292)">
<path d="M28.6667 50C27.9333 50 27.3056 49.7389 26.7833 49.2167C26.2611 48.6944 26 48.0667 26 47.3333V28.6667C26 27.9333 26.2611 27.3056 26.7833 26.7833C27.3056 26.2611 27.9333 26 28.6667 26H47.3333C48.0667 26 48.6944 26.2611 49.2167 26.7833C49.7389 27.3056 50 27.9333 50 28.6667V32H47.3333V28.6667H28.6667V47.3333H47.3333V44H50V47.3333C50 48.0667 49.7389 48.6944 49.2167 49.2167C48.6944 49.7389 48.0667 50 47.3333 50H28.6667ZM39.3333 44.6667C38.6 44.6667 37.9722 44.4056 37.45 43.8833C36.9278 43.3611 36.6667 42.7333 36.6667 42V34C36.6667 33.2667 36.9278 32.6389 37.45 32.1167C37.9722 31.5944 38.6 31.3333 39.3333 31.3333H48.6667C49.4 31.3333 50.0278 31.5944 50.55 32.1167C51.0722 32.6389 51.3333 33.2667 51.3333 34V42C51.3333 42.7333 51.0722 43.3611 50.55 43.8833C50.0278 44.4056 49.4 44.6667 48.6667 44.6667H39.3333ZM48.6667 42V34H39.3333V42H48.6667ZM43.3333 40C43.8889 40 44.3611 39.8056 44.75 39.4167C45.1389 39.0278 45.3333 38.5556 45.3333 38C45.3333 37.4444 45.1389 36.9722 44.75 36.5833C44.3611 36.1944 43.8889 36 43.3333 36C42.7778 36 42.3056 36.1944 41.9167 36.5833C41.5278 36.9722 41.3333 37.4444 41.3333 38C41.3333 38.5556 41.5278 39.0278 41.9167 39.4167C42.3056 39.8056 42.7778 40 43.3333 40Z" fill="#1313F2"/>
</g>
</svg>
