<svg width="66" height="24" viewBox="0 0 66 24" fill="none" xmlns="http://www.w3.org/2000/svg">
<mask id="mask0_396_1537" style="mask-type:alpha" maskUnits="userSpaceOnUse" x="0" y="0" width="25" height="24">
<rect x="0.5" width="24" height="24" fill="#D9D9D9"/>
</mask>
<g mask="url(#mask0_396_1537)">
<path d="M6.5 19H9.5V13H15.5V19H18.5V10L12.5 5.5L6.5 10V19ZM4.5 21V9L12.5 3L20.5 9V21H13.5V15H11.5V21H4.5Z" fill="#F9FAFC"/>
</g>
<path d="M27.6186 17V6.81818H29.1548V11.2429H34.2308V6.81818H35.772V17H34.2308V12.5604H29.1548V17H27.6186ZM40.9665 17.1541C40.2506 17.1541 39.6259 16.9901 39.0922 16.6619C38.5586 16.3338 38.1443 15.8748 37.8493 15.2848C37.5544 14.6948 37.4069 14.0054 37.4069 13.2166C37.4069 12.4245 37.5544 11.7318 37.8493 11.1385C38.1443 10.5452 38.5586 10.0845 39.0922 9.75639C39.6259 9.42827 40.2506 9.2642 40.9665 9.2642C41.6824 9.2642 42.3072 9.42827 42.8408 9.75639C43.3744 10.0845 43.7887 10.5452 44.0837 11.1385C44.3787 11.7318 44.5262 12.4245 44.5262 13.2166C44.5262 14.0054 44.3787 14.6948 44.0837 15.2848C43.7887 15.8748 43.3744 16.3338 42.8408 16.6619C42.3072 16.9901 41.6824 17.1541 40.9665 17.1541ZM40.9715 15.9062C41.4355 15.9062 41.82 15.7836 42.1249 15.5384C42.4298 15.2931 42.6552 14.9666 42.8011 14.5589C42.9502 14.1513 43.0248 13.7022 43.0248 13.2116C43.0248 12.7244 42.9502 12.277 42.8011 11.8693C42.6552 11.4583 42.4298 11.1286 42.1249 10.88C41.82 10.6314 41.4355 10.5071 40.9715 10.5071C40.5042 10.5071 40.1164 10.6314 39.8082 10.88C39.5032 11.1286 39.2762 11.4583 39.127 11.8693C38.9812 12.277 38.9083 12.7244 38.9083 13.2116C38.9083 13.7022 38.9812 14.1513 39.127 14.5589C39.2762 14.9666 39.5032 15.2931 39.8082 15.5384C40.1164 15.7836 40.5042 15.9062 40.9715 15.9062ZM46.0455 17V9.36364H47.4723V10.6065H47.5668C47.7259 10.1856 47.986 9.85748 48.3473 9.62216C48.7086 9.38352 49.1411 9.2642 49.6449 9.2642C50.1553 9.2642 50.5829 9.38352 50.9276 9.62216C51.2756 9.8608 51.5324 10.1889 51.6982 10.6065H51.7777C51.96 10.1989 52.25 9.87405 52.6477 9.6321C53.0455 9.38684 53.5194 9.2642 54.0696 9.2642C54.7623 9.2642 55.3274 9.4813 55.7649 9.91548C56.2057 10.3497 56.4261 11.0043 56.4261 11.8793V17H54.9396V12.0185C54.9396 11.5014 54.7988 11.1269 54.5171 10.8949C54.2353 10.6629 53.8989 10.5469 53.5078 10.5469C53.0239 10.5469 52.6477 10.696 52.3793 10.9943C52.1108 11.2893 51.9766 11.6688 51.9766 12.1328V17H50.495V11.924C50.495 11.5097 50.3658 11.1766 50.1073 10.9247C49.8487 10.6728 49.5123 10.5469 49.098 10.5469C48.8163 10.5469 48.5561 10.6214 48.3175 10.7706C48.0822 10.9164 47.8916 11.1203 47.7457 11.3821C47.6032 11.6439 47.532 11.9472 47.532 12.2919V17H46.0455ZM61.5697 17.1541C60.8173 17.1541 60.1694 16.9934 59.6258 16.6719C59.0856 16.3471 58.6679 15.8913 58.373 15.3047C58.0813 14.7147 57.9355 14.0237 57.9355 13.2315C57.9355 12.4493 58.0813 11.7599 58.373 11.1634C58.6679 10.5668 59.0789 10.1011 59.6059 9.76633C60.1362 9.43158 60.756 9.2642 61.4653 9.2642C61.8962 9.2642 62.3138 9.33546 62.7181 9.47798C63.1225 9.6205 63.4854 9.84422 63.8069 10.1491C64.1284 10.4541 64.382 10.8501 64.5676 11.3374C64.7532 11.8213 64.846 12.4096 64.846 13.1023V13.6293H58.7757V12.5156H63.3893C63.3893 12.1245 63.3098 11.7782 63.1507 11.4766C62.9916 11.1716 62.7679 10.9313 62.4795 10.7557C62.1945 10.58 61.8597 10.4922 61.4752 10.4922C61.0576 10.4922 60.693 10.5949 60.3815 10.8004C60.0733 11.0026 59.8346 11.2678 59.6656 11.5959C59.4999 11.9207 59.417 12.2737 59.417 12.6548V13.5249C59.417 14.0353 59.5065 14.4695 59.6855 14.8274C59.8678 15.1854 60.1213 15.4588 60.4461 15.6477C60.7709 15.8333 61.1504 15.9261 61.5846 15.9261C61.8663 15.9261 62.1232 15.8864 62.3552 15.8068C62.5872 15.724 62.7877 15.6013 62.9568 15.4389C63.1258 15.2765 63.2551 15.076 63.3446 14.8374L64.7515 15.0909C64.6388 15.5052 64.4367 15.8681 64.145 16.1797C63.8566 16.4879 63.4937 16.7282 63.0562 16.9006C62.622 17.0696 62.1265 17.1541 61.5697 17.1541Z" fill="#F9FAFC"/>
</svg>
