<svg width="76" height="76" viewBox="0 0 76 76" fill="none" xmlns="http://www.w3.org/2000/svg">
<rect width="76" height="76" rx="38" fill="#F9FAFC"/>
<path d="M41.8081 44.5381C42.2628 44.9942 42.803 45.3562 43.3979 45.6025C43.4223 45.6126 43.4476 45.6212 43.4722 45.6309L40.0249 49.0801C38.9064 50.1981 37.0905 50.1983 35.9722 49.0801L32.6177 45.7256C32.7164 45.692 32.815 45.6572 32.9116 45.6172C33.5073 45.3705 34.0476 45.0077 34.5024 44.5508L38.1616 40.8916L41.8081 44.5381ZM37.9985 26.083C38.6636 26.083 39.3049 26.3147 39.8149 26.7324L40.0259 26.9229L43.4722 30.3682C43.4477 30.3778 43.4232 30.3874 43.3989 30.3975C42.8036 30.6441 42.2627 31.0062 41.8081 31.4629L38.1626 35.1074L34.5015 31.4463C33.9639 30.9088 33.3208 30.5122 32.6196 30.2734L35.9712 26.9219L35.9722 26.9229C36.5097 26.3857 37.2386 26.0831 37.9985 26.083Z" stroke="#1313F2" stroke-width="2.16667"/>
<path d="M31.0322 33.3218C31.4554 33.3229 31.8612 33.4911 32.1611 33.7896L36.0732 37.7026V37.7036C36.1824 37.8133 36.3014 37.9116 36.4258 38.0024C36.3093 38.0851 36.1964 38.1743 36.0918 38.2739L36.0732 38.2925L32.1592 42.2095C31.8652 42.5032 31.4544 42.6743 31.0352 42.6743H29.5693L26.9219 40.0269C25.8035 38.9062 25.8043 37.0911 26.9219 35.9731L26.9229 35.9722L29.5713 33.3218H31.0322ZM45.2764 33.3384H46.4434L49.0781 35.9731C50.1962 37.0916 50.1965 38.9075 49.0781 40.0259L46.4453 42.6577H45.2764C44.8583 42.6576 44.4461 42.4858 44.1553 42.1938L40.2441 38.2827L40.2344 38.2739C40.1297 38.1743 40.0169 38.0852 39.9004 38.0024C40.0247 37.9118 40.1448 37.8151 40.2539 37.7056L44.1553 33.8042C44.4475 33.5109 44.8602 33.3385 45.2764 33.3384Z" stroke="#1313F2" stroke-width="2.16667"/>
</svg>
