<svg width="54" height="54" viewBox="0 0 54 54" fill="none" xmlns="http://www.w3.org/2000/svg">
<rect x="0.5" y="0.5" width="53" height="53" rx="26.5" stroke="#DDDDDD"/>
<mask id="mask0_384_4853" style="mask-type:alpha" maskUnits="userSpaceOnUse" x="14" y="13" width="28" height="28">
<rect x="14" y="13" width="27.8824" height="27.8824" fill="#D9D9D9"/>
</mask>
<g mask="url(#mask0_384_4853)">
<path d="M27.9411 38.559C27.3021 38.559 26.7551 38.3315 26.3001 37.8765C25.8451 37.4215 25.6176 36.8745 25.6176 36.2355H30.2646C30.2646 36.8745 30.0371 37.4215 29.5821 37.8765C29.1271 38.3315 28.5801 38.559 27.9411 38.559ZM18.647 35.0737V32.7502H20.9705V24.6178C20.9705 23.0107 21.4546 21.5827 22.4227 20.3338C23.3908 19.0849 24.6494 18.2669 26.1984 17.8796V17.0664C26.1984 16.5823 26.3679 16.1709 26.7067 15.832C27.0456 15.4932 27.457 15.3237 27.9411 15.3237C28.4252 15.3237 28.8366 15.4932 29.1755 15.832C29.5143 16.1709 29.6837 16.5823 29.6837 17.0664V17.444C29.4707 17.8699 29.3158 18.3056 29.219 18.7509C29.1222 19.1963 29.0835 19.6513 29.1029 20.116C28.9092 20.0773 28.7204 20.0434 28.5365 20.0144C28.3525 19.9853 28.1541 19.9708 27.9411 19.9708C26.6631 19.9708 25.5692 20.4258 24.6591 21.3359C23.7491 22.2459 23.294 23.3399 23.294 24.6178V32.7502H32.5882V25.2859C32.9367 25.4408 33.3094 25.5618 33.7063 25.6489C34.1033 25.736 34.5051 25.7796 34.9117 25.7796V32.7502H37.2352V35.0737H18.647ZM34.9117 23.4561C33.9435 23.4561 33.1206 23.1172 32.4429 22.4395C31.7652 21.7618 31.4264 20.9389 31.4264 19.9708C31.4264 19.0027 31.7652 18.1797 32.4429 17.502C33.1206 16.8243 33.9435 16.4855 34.9117 16.4855C35.8798 16.4855 36.7027 16.8243 37.3804 17.502C38.0581 18.1797 38.397 19.0027 38.397 19.9708C38.397 20.9389 38.0581 21.7618 37.3804 22.4395C36.7027 23.1172 35.8798 23.4561 34.9117 23.4561Z" fill="#00051B"/>
<path d="M34.9116 23.4559C33.9434 23.4559 33.1205 23.1171 32.4428 22.4394C31.7651 21.7617 31.4263 20.9388 31.4263 19.9706C31.4263 19.0025 31.7651 18.1796 32.4428 17.5019C33.1205 16.8242 33.9434 16.4854 34.9116 16.4854C35.8797 16.4854 36.7026 16.8242 37.3803 17.5019C38.058 18.1796 38.3969 19.0025 38.3969 19.9706C38.3969 20.9388 38.058 21.7617 37.3803 22.4394C36.7026 23.1171 35.8797 23.4559 34.9116 23.4559Z" fill="#1313F2"/>
</g>
</svg>
