<svg width="48" height="48" viewBox="0 0 48 48" fill="none" xmlns="http://www.w3.org/2000/svg">
<rect width="48" height="48" rx="24" fill="#F2F2F2"/>
<mask id="mask0_384_3738" style="mask-type:alpha" maskUnits="userSpaceOnUse" x="12" y="12" width="24" height="24">
<rect x="12" y="12" width="24" height="24" fill="#D9D9D9"/>
</mask>
<g mask="url(#mask0_384_3738)">
<path d="M29 34C28.1667 34 27.4583 33.7083 26.875 33.125C26.2917 32.5417 26 31.8333 26 31C26 30.9 26.025 30.6667 26.075 30.3L19.05 26.2C18.7833 26.45 18.475 26.6458 18.125 26.7875C17.775 26.9292 17.4 27 17 27C16.1667 27 15.4583 26.7083 14.875 26.125C14.2917 25.5417 14 24.8333 14 24C14 23.1667 14.2917 22.4583 14.875 21.875C15.4583 21.2917 16.1667 21 17 21C17.4 21 17.775 21.0708 18.125 21.2125C18.475 21.3542 18.7833 21.55 19.05 21.8L26.075 17.7C26.0417 17.5833 26.0208 17.4708 26.0125 17.3625C26.0042 17.2542 26 17.1333 26 17C26 16.1667 26.2917 15.4583 26.875 14.875C27.4583 14.2917 28.1667 14 29 14C29.8333 14 30.5417 14.2917 31.125 14.875C31.7083 15.4583 32 16.1667 32 17C32 17.8333 31.7083 18.5417 31.125 19.125C30.5417 19.7083 29.8333 20 29 20C28.6 20 28.225 19.9292 27.875 19.7875C27.525 19.6458 27.2167 19.45 26.95 19.2L19.925 23.3C19.9583 23.4167 19.9792 23.5292 19.9875 23.6375C19.9958 23.7458 20 23.8667 20 24C20 24.1333 19.9958 24.2542 19.9875 24.3625C19.9792 24.4708 19.9583 24.5833 19.925 24.7L26.95 28.8C27.2167 28.55 27.525 28.3542 27.875 28.2125C28.225 28.0708 28.6 28 29 28C29.8333 28 30.5417 28.2917 31.125 28.875C31.7083 29.4583 32 30.1667 32 31C32 31.8333 31.7083 32.5417 31.125 33.125C30.5417 33.7083 29.8333 34 29 34ZM29 32C29.2833 32 29.5208 31.9042 29.7125 31.7125C29.9042 31.5208 30 31.2833 30 31C30 30.7167 29.9042 30.4792 29.7125 30.2875C29.5208 30.0958 29.2833 30 29 30C28.7167 30 28.4792 30.0958 28.2875 30.2875C28.0958 30.4792 28 30.7167 28 31C28 31.2833 28.0958 31.5208 28.2875 31.7125C28.4792 31.9042 28.7167 32 29 32ZM17 25C17.2833 25 17.5208 24.9042 17.7125 24.7125C17.9042 24.5208 18 24.2833 18 24C18 23.7167 17.9042 23.4792 17.7125 23.2875C17.5208 23.0958 17.2833 23 17 23C16.7167 23 16.4792 23.0958 16.2875 23.2875C16.0958 23.4792 16 23.7167 16 24C16 24.2833 16.0958 24.5208 16.2875 24.7125C16.4792 24.9042 16.7167 25 17 25ZM29 18C29.2833 18 29.5208 17.9042 29.7125 17.7125C29.9042 17.5208 30 17.2833 30 17C30 16.7167 29.9042 16.4792 29.7125 16.2875C29.5208 16.0958 29.2833 16 29 16C28.7167 16 28.4792 16.0958 28.2875 16.2875C28.0958 16.4792 28 16.7167 28 17C28 17.2833 28.0958 17.5208 28.2875 17.7125C28.4792 17.9042 28.7167 18 29 18Z" fill="#1C1B1F"/>
</g>
</svg>
